<svg xmlns="http://www.w3.org/2000/svg" width="16" height="16" viewBox="0 0 16 16">
    <path fill="#333" fill-rule="nonzero" d="M15.547 7.422a.457.457 0 0 0-.454.46v7.198H10.23V9.934a.457.457 0 0 0-.453-.46H6.225a.457.457 0 0 0-.454.46v5.081c0 .254.203.46.454.46.25 0 .453-.206.453-.46v-4.621h2.644v4.686H.907V7.82L8 1.05l7.263 6.908c.196.16.48.127.637-.071a.465.465 0 0 0-.07-.647L8.283.101a.448.448 0 0 0-.567 0L.17 7.241a.463.463 0 0 0-.17.358v7.94c0 .255.203.461.453.461h15.094c.25 0 .453-.206.453-.46V7.882a.457.457 0 0 0-.453-.46z"/>
</svg>
