<svg xmlns="http://www.w3.org/2000/svg" xmlns:xlink="http://www.w3.org/1999/xlink" width="173" height="54" viewBox="0 0 173 54">
    <defs>
        <path id="a" d="M0 0h52.262v53.813H0z"/>
    </defs>
    <g fill="none" fill-rule="evenodd">
        <g>
            <mask id="b" fill="#fff">
                <use xlink:href="#a"/>
            </mask>
            <path fill="#2396FF" d="M22.272 3.708c1.298.509 2.543 2.53 2.574 3.948.065 3.226 3.447 15.303-10.198 13.05-1.42-.234-3.184-1.163-4.274-2.075-1.987-1.655-2.584-3.424-2.281-5.147.798-4.532 9.608-11.566 14.18-9.776zM1.397 31.279C.324 29.736.037 27.811.003 26.274c-.035-1.582.304-3.15.99-4.571.726-1.51 1.685-3.455 4.143-3.074 2.895.45 5.617 2.616 7.255 4.84 3.35 4.544-1.777 11.732-7.485 10.198-1.657-.445-2.77-1.325-3.509-2.388zm32.028-17.216c-1.871-.505-3.371-1.849-4.413-3.053a10.412 10.412 0 0 1-2.231-4.321c-.42-1.698-.942-3.9 1.263-5.26C30.642-.17 34.235-.282 37.006.386c5.663 1.36 6.333 10.572.784 13.21-1.61.767-3.076.817-4.365.468zM13.861 43.046c4.636 9.092 20.152 14.03 29.899 8.338 9.747-5.691 10.482-20.262 5.398-28.95-5.084-8.687-14.795-7.462-24.542-1.77-9.747 5.691-15.39 13.29-10.755 22.382z" mask="url(#b)"/>
        </g>
        <path fill="#FFF" d="M73.54 46.161c.304.155.675.271 1.113.349a6.8 6.8 0 0 0 1.17.116c.952 0 1.742-.145 2.37-.436.628-.29 1.113-.822 1.456-1.596l1.027-2.381-11.19-28.452h7.764l7.195 19.51 7.194-19.51h7.822L86.5 46.394c-1.028 2.632-2.436 4.412-4.225 5.341-1.79.93-3.864 1.413-6.224 1.452-.418 0-1.008-.039-1.77-.116-.76-.077-1.37-.174-1.827-.29l1.085-6.62zm41.051-3.658c-2.093 0-4.044-.348-5.852-1.045-1.808-.697-3.369-1.684-4.682-2.961-1.313-1.278-2.341-2.826-3.083-4.645-.742-1.82-1.114-3.852-1.114-6.097 0-2.013.352-3.92 1.057-5.72.704-1.8 1.684-3.358 2.94-4.674 1.256-1.316 2.76-2.361 4.51-3.135 1.752-.774 3.674-1.161 5.767-1.161 2.056 0 3.93.377 5.624 1.132 1.694.755 3.15 1.81 4.368 3.164 1.218 1.355 2.16 2.98 2.826 4.878.666 1.896 1 3.987 1 6.27v1.626h-20.498c.229 1.781 1.018 3.31 2.37 4.588 1.35 1.277 3.206 1.916 5.566 1.916.571 0 1.2-.068 1.885-.204a14.97 14.97 0 0 0 2.026-.551 10.481 10.481 0 0 0 1.885-.871 9.008 9.008 0 0 0 1.57-1.161l3.197 4.76c-1.37 1.278-3.064 2.246-5.081 2.904-2.018.658-4.111.987-6.28.987zm6.338-17.361c-.038-.658-.19-1.355-.457-2.09a6.148 6.148 0 0 0-1.2-2.004c-.532-.6-1.227-1.103-2.083-1.51-.856-.406-1.875-.609-3.055-.609-1.142 0-2.122.194-2.94.58-.818.388-1.494.881-2.027 1.481a7.07 7.07 0 0 0-1.256 2.004 7.846 7.846 0 0 0-.571 2.148h13.589zm11.19 16.664V3.077h7.252v38.73h-7.252zm26.15.697c-2.284 0-4.32-.397-6.109-1.19-1.789-.794-3.311-1.858-4.568-3.194a13.8 13.8 0 0 1-2.883-4.674c-.666-1.78-1-3.677-1-5.69 0-1.974.334-3.852 1-5.632a13.8 13.8 0 0 1 2.883-4.675c1.257-1.335 2.78-2.4 4.568-3.193 1.79-.794 3.825-1.19 6.11-1.19 2.283 0 4.33.396 6.137 1.19 1.808.793 3.34 1.858 4.596 3.193a13.8 13.8 0 0 1 2.884 4.675c.666 1.78.999 3.658.999 5.632 0 2.013-.333 3.91-1 5.69a13.8 13.8 0 0 1-2.883 4.674c-1.256 1.336-2.788 2.4-4.596 3.194-1.808.793-3.854 1.19-6.138 1.19zm0-6.561c1.142 0 2.15-.223 3.026-.668a6.63 6.63 0 0 0 2.199-1.77c.59-.736 1.046-1.598 1.37-2.585.323-.987.485-2.042.485-3.164a9.91 9.91 0 0 0-.485-3.107c-.324-.987-.78-1.848-1.37-2.583a6.63 6.63 0 0 0-2.199-1.771c-.875-.446-1.884-.668-3.026-.668s-2.14.222-2.997.668a7.037 7.037 0 0 0-2.198 1.77 7.44 7.44 0 0 0-1.37 2.584 10.478 10.478 0 0 0-.457 3.107c0 1.122.152 2.177.456 3.164a7.44 7.44 0 0 0 1.37 2.584 7.037 7.037 0 0 0 2.199 1.771c.856.445 1.855.668 2.997.668z"/>
    </g>
</svg>
