<svg width="470" height="526" viewBox="0 0 470 526" fill="none" xmlns="http://www.w3.org/2000/svg">
<mask id="mask0" style="mask-type:alpha" maskUnits="userSpaceOnUse" x="0" y="0" width="470" height="526">
<path fill-rule="evenodd" clip-rule="evenodd" d="M469.787 0H-0.000459552V526H469.787V0Z" fill="white"/>
</mask>
<g mask="url(#mask0)">
<path fill-rule="evenodd" clip-rule="evenodd" d="M467.576 -531.352C725.98 -531.352 935.463 -294.574 935.463 -2.5C935.463 289.574 725.98 526.352 467.576 526.352C209.168 526.352 -0.311279 289.576 -0.311279 -2.5C-0.311279 -294.576 209.168 -531.352 467.576 -531.352ZM467.574 -530.648C209.51 -530.648 0.309753 -294.187 0.309753 -2.49994C0.309753 289.187 209.51 525.648 467.574 525.648C725.635 525.648 934.838 289.186 934.838 -2.49994C934.838 -294.186 725.635 -530.648 467.574 -530.648ZM468.903 -494.344C708.494 -494.344 902.721 -274.138 902.721 -2.5C902.721 269.138 708.494 489.344 468.903 489.344C229.31 489.344 35.0848 269.14 35.0848 -2.5C35.0848 -274.14 229.31 -494.344 468.903 -494.344ZM468.901 -493.656C229.644 -493.656 35.6917 -273.761 35.6917 -2.49988C35.6917 268.761 229.644 488.656 468.901 488.656C708.155 488.656 902.111 268.759 902.111 -2.49988C902.111 -273.759 708.155 -493.656 468.901 -493.656ZM869.979 -3.99731C869.979 -254.369 690.413 -457.336 468.905 -457.336C247.396 -457.336 67.8265 -254.368 67.8265 -3.99731C67.8265 246.373 247.396 449.336 468.905 449.336C690.414 449.336 869.979 246.374 869.979 -3.99731ZM68.42 -3.99725C68.42 -253.997 247.724 -456.664 468.904 -456.664C690.084 -456.664 869.384 -253.998 869.384 -3.99725C869.384 246.003 690.085 448.664 468.904 448.664C247.723 448.664 68.42 246.002 68.42 -3.99725ZM467.134 -417.329C669.581 -417.329 833.699 -231.826 833.699 -2.99994C833.699 225.826 669.581 411.329 467.134 411.329C264.686 411.329 100.568 225.826 100.568 -2.99994C100.568 -231.826 264.686 -417.329 467.134 -417.329ZM467.132 -416.672C265.005 -416.672 101.147 -231.463 101.147 -2.99994C101.147 225.463 265.005 410.672 467.132 410.672C669.258 410.672 833.116 225.463 833.116 -2.99994C833.116 -231.463 669.258 -416.672 467.132 -416.672ZM801.842 -1.99994C801.842 -210.386 652.977 -379.32 469.345 -379.32C285.71 -379.32 136.849 -210.388 136.849 -1.99994C136.849 206.388 285.71 375.321 469.345 375.321C652.977 375.321 801.842 206.386 801.842 -1.99994ZM137.414 -2.00006C137.414 -210.035 286.022 -378.68 469.343 -378.68C652.661 -378.68 801.273 -210.033 801.273 -2.00006C801.273 206.033 652.661 374.679 469.343 374.679C286.022 374.679 137.414 206.035 137.414 -2.00006ZM469.348 -341.313C634.407 -341.313 768.216 -189.843 768.216 -2.99731C768.216 183.847 634.408 335.312 469.348 335.312C304.284 335.312 170.475 183.848 170.475 -2.99731C170.475 -189.844 304.285 -341.313 469.348 -341.313ZM469.346 -340.688C304.588 -340.688 171.026 -189.499 171.026 -2.99731C171.026 183.503 304.588 334.688 469.346 334.688C634.1 334.688 767.661 183.502 767.661 -2.99731C767.661 -189.498 634.099 -340.688 469.346 -340.688ZM732.82 -2.5C732.82 -168.077 614.264 -302.304 468.018 -302.304C321.773 -302.304 203.217 -168.077 203.217 -2.5C203.217 163.077 321.773 297.305 468.018 297.305C614.264 297.305 732.82 163.077 732.82 -2.5ZM203.754 -2.50006C203.754 -167.741 322.069 -301.696 468.017 -301.696C613.965 -301.696 732.279 -167.741 732.279 -2.50006C732.279 162.741 613.965 296.695 468.017 296.695C322.069 296.695 203.754 162.741 203.754 -2.50006ZM468.018 -264.296C595.692 -264.296 699.193 -147.085 699.193 -2.49994C699.193 142.086 595.692 259.297 468.018 259.297C340.344 259.297 236.843 142.086 236.843 -2.49994C236.843 -147.085 340.344 -264.296 468.018 -264.296ZM468.017 -263.703C340.633 -263.703 237.366 -146.758 237.366 -2.49994C237.366 141.758 340.633 258.704 468.017 258.704C595.401 258.704 698.667 141.758 698.667 -2.49994C698.667 -146.758 595.401 -263.703 468.017 -263.703ZM665.567 -3.49731C665.567 -127.095 577.122 -227.289 468.021 -227.289C358.915 -227.289 270.469 -127.095 270.469 -3.49731C270.469 120.096 358.916 220.289 468.021 220.289C577.122 220.289 665.567 120.095 665.567 -3.49731ZM270.979 -3.49731C270.979 -126.776 359.196 -226.711 468.019 -226.711C576.838 -226.711 665.054 -126.776 665.054 -3.49731C665.054 119.776 576.837 219.711 468.019 219.711C359.196 219.711 270.979 119.777 270.979 -3.49731ZM467.576 -187.281C557.861 -187.281 631.056 -104.327 631.056 -1.99994C631.056 100.327 557.861 183.281 467.576 183.281C377.287 183.281 304.096 100.329 304.096 -1.99994C304.096 -104.329 377.287 -187.281 467.576 -187.281ZM467.574 -186.719C377.561 -186.719 304.592 -104.019 304.592 -1.99994C304.592 100.019 377.561 182.719 467.574 182.719C557.585 182.719 630.557 100.017 630.557 -1.99994C630.557 -104.017 557.585 -186.719 467.574 -186.719ZM597.429 -1.99988C597.429 -83.3372 539.094 -149.273 467.133 -149.273C395.173 -149.273 336.838 -83.3372 336.838 -1.99988C336.838 79.3373 395.173 145.273 467.133 145.273C539.094 145.273 597.429 79.3373 597.429 -1.99988ZM337.319 -2C337.319 -83.0357 395.438 -148.727 467.132 -148.727C538.826 -148.727 596.945 -83.0357 596.945 -2C596.945 79.0358 538.826 144.727 467.132 144.727C395.438 144.727 337.319 79.0358 337.319 -2ZM468.905 -112.265C521.804 -112.265 564.687 -63.566 564.687 -3.49725C564.687 56.5704 521.805 105.265 468.905 105.265C416.005 105.265 373.119 56.5695 373.119 -3.49725C373.119 -63.565 416.006 -112.265 468.905 -112.265ZM468.904 -111.735C416.264 -111.735 373.586 -63.2728 373.586 -3.49725C373.586 56.2772 416.263 104.735 468.904 104.735C521.544 104.735 564.217 56.2783 564.217 -3.49725C564.217 -63.2739 521.543 -111.735 468.904 -111.735ZM528.407 -2.5C528.407 -41.0261 500.775 -72.257 466.691 -72.257C432.605 -72.257 404.976 -41.0279 404.976 -2.5C404.976 36.0245 432.606 67.257 466.691 67.257C500.773 67.257 528.407 36.0226 528.407 -2.5ZM405.429 -2.49994C405.429 -40.744 432.854 -71.7429 466.69 -71.7429C500.522 -71.7429 527.95 -40.7422 527.95 -2.49994C527.95 35.7388 500.52 66.743 466.69 66.743C432.856 66.743 405.429 35.7406 405.429 -2.49994ZM467.134 -34.249C482.89 -34.249 495.665 -19.8106 495.665 -2C495.665 15.8106 482.89 30.249 467.134 30.249C451.375 30.249 438.602 15.8124 438.602 -2C438.602 -19.8124 451.375 -34.249 467.134 -34.249ZM467.132 -33.7509C451.616 -33.7509 439.041 -19.5373 439.041 -1.99994C439.041 15.5375 451.616 29.7511 467.132 29.7511C482.645 29.7511 495.223 15.5356 495.223 -1.99994C495.223 -19.5355 482.645 -33.7509 467.132 -33.7509Z" fill="url(#paint0_linear)"/>
</g>
<defs>
<linearGradient id="paint0_linear" x1="499.513" y1="379.404" x2="91.7825" y2="436.214" gradientUnits="userSpaceOnUse">
<stop stop-color="#F2F0FF"/>
<stop offset="1" stop-color="#2E2C34" stop-opacity="0.242297"/>
</linearGradient>
</defs>
</svg>
