<svg width="17" height="18" viewBox="0 0 17 18" fill="none" xmlns="http://www.w3.org/2000/svg">
<path fill-rule="evenodd" clip-rule="evenodd" d="M15.4588 11.6256V5.55292C15.4583 5.01109 15.169 4.51063 14.6998 4.23971L9.3862 1.20339C8.91648 0.932202 8.33776 0.932202 7.86804 1.20339L2.55449 4.23971C2.08525 4.51063 1.79597 5.01109 1.79541 5.55292V11.6256C1.79597 12.1674 2.08525 12.6678 2.55449 12.9388L7.86804 15.9751C8.33776 16.2463 8.91648 16.2463 9.3862 15.9751L14.6998 12.9388C15.169 12.6678 15.4583 12.1674 15.4588 11.6256Z" stroke="#BDBFC4" stroke-width="2" stroke-linecap="round" stroke-linejoin="round"/>
<path fill-rule="evenodd" clip-rule="evenodd" d="M2.50089 3.89725C2.02283 3.62071 1.4111 3.78408 1.13456 4.26214C0.858017 4.7402 1.02138 5.35193 1.49944 5.62847L7.62691 9.173V16.2402C7.62691 16.7925 8.07463 17.2402 8.62691 17.2402C9.1792 17.2402 9.62691 16.7925 9.62691 16.2402V9.17301L15.7544 5.62847C16.2325 5.35193 16.3958 4.7402 16.1193 4.26214C15.8428 3.78408 15.231 3.62071 14.753 3.89725L8.62693 7.44095L2.50089 3.89725Z" fill="#BDBFC4"/>
<path d="M2.75928 4.41586L8.83191 1L14.525 4.41586L8.07283 8.21125L2.75928 4.41586Z" fill="#BDBFC4"/>
</svg>
