<?xml version="1.0" encoding="UTF-8" standalone="no"?>
<svg width="70px" height="70px" viewBox="0 0 70 70" version="1.1" xmlns="http://www.w3.org/2000/svg" xmlns:xlink="http://www.w3.org/1999/xlink">
    <!-- Generator: Sketch 39.1 (31720) - http://www.bohemiancoding.com/sketch -->
    <title>add_new_task</title>
    <desc>Created with Sketch.</desc>
    <defs></defs>
    <g id="version-5" stroke="none" stroke-width="1" fill="none" fill-rule="evenodd">
        <g id="add_new_task">
            <g id="Group-16">
                <path d="M51.9705882,46.9883801 C57.2585294,46.9883801 61.5294118,51.2433691 61.5294118,56.5116322 C61.5294118,61.779822 57.2585294,66.0348843 51.9705882,66.0348843 C46.6827206,66.0348843 42.4117647,61.779822 42.4117647,56.5116322 C42.4117647,51.2433691 46.6827206,46.9883801 51.9705882,46.9883801 L51.9705882,46.9883801 Z M15.9411765,8.89539357 L22.4209559,8.89539357 L23.2941176,14.1377241 C23.3485294,14.4818798 23.6798529,14.7601052 24.0294118,14.7558564 L44.6176471,14.7558564 C44.9672059,14.763182 45.2983088,14.4818798 45.3529412,14.1377241 L46.2261029,8.89539357 L52.7058824,8.89539357 C53.5333088,8.89539357 54.1764706,9.53616193 54.1764706,10.3605093 L54.1764706,45.7521887 C53.4658088,45.6084608 52.7232353,45.5232643 51.9705882,45.5232643 C45.8879412,45.5232643 40.9411765,50.4516206 40.9411765,56.5116322 C40.9411765,57.7936817 41.1777941,59.02958 41.5845588,60.1744214 L15.9411765,60.1744214 C15.11375,60.1744214 14.4705882,59.5336531 14.4705882,58.7093057 L14.4705882,10.3605093 C14.4705882,9.53616193 15.11375,8.89539357 15.9411765,8.89539357 L15.9411765,8.89539357 Z M23.4319853,5.96516215 L45.2150735,5.96516215 L43.9742647,13.2907407 L24.6727941,13.2907407 L23.4319853,5.96516215 Z" id="Combined-Shape" fill="#DDDDDD"></path>
                <path d="M19.5588235,3.50004644 C19.0363235,3.50004644 18.7488235,4.00382648 18.8235294,4.34702983 L19.1682353,6.43027786 L12.9411765,6.43027786 C11.3244853,6.43027786 10,7.74983433 10,9.36050928 L10,57.7093057 C10,59.3199807 11.3244853,60.6395372 12.9411765,60.6395372 L39.2279412,60.6395372 C41.0794853,64.1237288 44.7448529,66.5 48.9705882,66.5 C55.0532353,66.5 60,61.5716438 60,55.5116322 C60,50.7336701 56.9294118,46.6744205 52.6470588,45.1642525 L52.6470588,9.36050928 C52.6470588,7.74983433 51.3225735,6.43027786 49.7058824,6.43027786 L43.4788235,6.43027786 L43.8235294,4.34702983 C43.8904412,3.92742069 43.5146324,3.49484528 43.0882353,3.50004644 L19.5588235,3.50004644 L19.5588235,3.50004644 Z M20.4319853,4.96516215 L42.2150735,4.96516215 L40.9742647,12.2907407 L21.6727941,12.2907407 L20.4319853,4.96516215 L20.4319853,4.96516215 Z M12.9411765,7.89539357 L19.4209559,7.89539357 L20.2941176,13.1377241 C20.3485294,13.4818798 20.6798529,13.7601052 21.0294118,13.7558564 L41.6176471,13.7558564 C41.9672059,13.763182 42.2983088,13.4818798 42.3529412,13.1377241 L43.2261029,7.89539357 L49.7058824,7.89539357 C50.5333088,7.89539357 51.1764706,8.53616193 51.1764706,9.36050928 L51.1764706,44.7521887 C50.4658088,44.6084608 49.7232353,44.5232643 48.9705882,44.5232643 C42.8879412,44.5232643 37.9411765,49.4516206 37.9411765,55.5116322 C37.9411765,56.7936817 38.1777941,58.02958 38.5845588,59.1744214 L12.9411765,59.1744214 C12.11375,59.1744214 11.4705882,58.5336531 11.4705882,57.7093057 L11.4705882,9.36050928 C11.4705882,8.53616193 12.11375,7.89539357 12.9411765,7.89539357 L12.9411765,7.89539357 Z M48.9705882,45.9883801 C54.2585294,45.9883801 58.5294118,50.2433691 58.5294118,55.5116322 C58.5294118,60.779822 54.2585294,65.0348843 48.9705882,65.0348843 C43.6827206,65.0348843 39.4117647,60.779822 39.4117647,55.5116322 C39.4117647,50.2433691 43.6827206,45.9883801 48.9705882,45.9883801 L48.9705882,45.9883801 Z M49.7705882,54.7116322 L49.7705882,50.3176194 C49.7705882,49.8707683 49.412416,49.5116322 48.9705882,49.5116322 C48.5256801,49.5116322 48.1705882,49.8724849 48.1705882,50.3176194 L48.1705882,54.7116322 L43.7765754,54.7116322 C43.3297244,54.7116322 42.9705882,55.0698044 42.9705882,55.5116322 C42.9705882,55.9565403 43.331441,56.3116322 43.7765754,56.3116322 L48.1705882,56.3116322 L48.1705882,60.705645 C48.1705882,61.152496 48.5287604,61.5116322 48.9705882,61.5116322 C49.4154964,61.5116322 49.7705882,61.1507794 49.7705882,60.705645 L49.7705882,56.3116322 L54.1646011,56.3116322 C54.6114521,56.3116322 54.9705882,55.95346 54.9705882,55.5116322 C54.9705882,55.066724 54.6097355,54.7116322 54.1646011,54.7116322 L49.7705882,54.7116322 L49.7705882,54.7116322 Z" id="Shape-Copy-2" fill="#404040"></path>
            </g>
        </g>
    </g>
</svg>