<svg xmlns="http://www.w3.org/2000/svg" width="52" height="41" viewBox="0 0 52 41">
    <path fill="#C1C1C1" fill-rule="nonzero" d="M6.276 34.98c.21 0 .421-.072.592-.218l14.625-12.56 9.236 9.008a.912.912 0 0 0 1.268 0 .858.858 0 0 0 0-1.236l-4.31-4.204 8.232-8.792 10.096 9.028a.913.913 0 0 0 1.266-.055.86.86 0 0 0-.055-1.235l-10.759-9.62a.908.908 0 0 0-1.268.055l-8.78 9.381-4.253-4.148a.914.914 0 0 0-1.226-.038L5.683 33.448a.86.86 0 0 0-.08 1.235.904.904 0 0 0 .673.296zm8.069-15.62c2.753 0 4.993-2.185 4.993-4.87 0-2.686-2.24-4.87-4.993-4.87s-4.993 2.184-4.993 4.87c0 2.685 2.24 4.87 4.993 4.87zm0-7.992c1.764 0 3.2 1.401 3.2 3.121s-1.436 3.121-3.2 3.121c-1.765 0-3.2-1.4-3.2-3.12 0-1.72 1.435-3.122 3.2-3.122zM51.103 0H.897A.885.885 0 0 0 0 .874v38.478c0 .484.402.874.897.874h50.206c.495 0 .897-.39.897-.874V.874A.885.885 0 0 0 51.103 0zm-.896 38.477H1.793V1.75h48.414v36.728z"/>
</svg>
