<svg width="24" height="24" viewBox="0 0 24 24" fill="none" xmlns="http://www.w3.org/2000/svg">
<path d="M8.40002 10.7994C8.40002 10.1629 8.65288 9.55245 9.10297 9.10236C9.55306 8.65227 10.1635 8.39941 10.8 8.39941H18C18.6365 8.39941 19.247 8.65227 19.6971 9.10236C20.1472 9.55245 20.4 10.1629 20.4 10.7994V17.9994C20.4 18.6359 20.1472 19.2464 19.6971 19.6965C19.247 20.1466 18.6365 20.3994 18 20.3994H10.8C10.1635 20.3994 9.55306 20.1466 9.10297 19.6965C8.65288 19.2464 8.40002 18.6359 8.40002 17.9994V10.7994Z" fill="#377DFF"/>
<path d="M5.99998 3.59961C5.36346 3.59961 4.75301 3.85247 4.30292 4.30255C3.85283 4.75264 3.59998 5.36309 3.59998 5.99961V13.1996C3.59998 13.8361 3.85283 14.4466 4.30292 14.8967C4.75301 15.3468 5.36346 15.5996 5.99998 15.5996V5.99961H15.6C15.6 5.36309 15.3471 4.75264 14.897 4.30255C14.4469 3.85247 13.8365 3.59961 13.2 3.59961H5.99998Z" fill="#377DFF"/>
</svg>
