<svg width="24" height="25" viewBox="0 0 24 25" fill="none" xmlns="http://www.w3.org/2000/svg">
<path d="M12 3.61948C6.89249 3.61948 2.75024 7.75948 2.75024 12.8692C2.75024 17.979 6.89249 22.119 12 22.119C17.109 22.119 21.2497 17.979 21.2497 12.8692C21.2497 7.75948 17.1097 3.61948 12 3.61948ZM12 5.86948C13.3875 5.86948 14.679 6.28048 15.768 6.97948L6.11024 16.6372C5.38547 15.5142 5.00006 14.2059 5.00024 12.8692C5.00024 9.00973 8.14049 5.86948 12 5.86948ZM12 19.869C10.6634 19.8688 9.35521 19.4834 8.23199 18.759L17.889 9.10123C18.6138 10.2243 18.9992 11.5326 18.999 12.8692C18.999 16.7287 15.8595 19.869 12 19.869Z" fill="#969696"/>
</svg>

