<svg width="24" height="25" viewBox="0 0 24 25" fill="none" xmlns="http://www.w3.org/2000/svg">
<path d="M8.40015 11.6692C8.40015 11.0327 8.653 10.4223 9.10309 9.97218C9.55318 9.5221 10.1636 9.26924 10.8001 9.26924H18.0001C18.6367 9.26924 19.2471 9.5221 19.6972 9.97218C20.1473 10.4223 20.4001 11.0327 20.4001 11.6692V18.8692C20.4001 19.5058 20.1473 20.1162 19.6972 20.5663C19.2471 21.0164 18.6367 21.2692 18.0001 21.2692H10.8001C10.1636 21.2692 9.55318 21.0164 9.10309 20.5663C8.653 20.1162 8.40015 19.5058 8.40015 18.8692V11.6692Z" fill="#969696"/>
<path d="M6.0001 4.46924C5.36358 4.46924 4.75313 4.72209 4.30304 5.17218C3.85295 5.62227 3.6001 6.23272 3.6001 6.86924V14.0692C3.6001 14.7058 3.85295 15.3162 4.30304 15.7663C4.75313 16.2164 5.36358 16.4692 6.0001 16.4692V6.86924H15.6001C15.6001 6.23272 15.3472 5.62227 14.8972 5.17218C14.4471 4.72209 13.8366 4.46924 13.2001 4.46924H6.0001Z" fill="#969696"/>
</svg>
