<svg width="24" height="24" viewBox="0 0 24 24" fill="none" xmlns="http://www.w3.org/2000/svg">
<path d="M12 4.442C12.2167 4.442 12.3957 4.37133 12.537 4.23C12.6783 4.08867 12.7493 3.90933 12.75 3.692C12.75 3.47533 12.679 3.29633 12.537 3.155C12.395 3.01367 12.216 2.94267 12 2.942C11.7833 2.942 11.6043 3.013 11.463 3.155C11.3217 3.297 11.2507 3.476 11.25 3.692C11.25 3.90867 11.321 4.088 11.463 4.23C11.605 4.372 11.784 4.44267 12 4.442ZM18 22.115C16.886 22.115 15.9407 21.727 15.164 20.951C14.3873 20.175 13.9993 19.2297 14 18.115C14 17.0017 14.388 16.0567 15.164 15.28C15.94 14.5033 16.8853 14.115 18 14.115C19.114 14.115 20.0593 14.5033 20.836 15.28C21.6127 16.0567 22.0007 17.0017 22 18.115C22 19.2297 21.612 20.175 20.836 20.951C20.0587 21.727 19.1133 22.115 18 22.115ZM11.521 20H5.615C5.171 20 4.791 19.8417 4.475 19.525C4.15833 19.209 4 18.829 4 18.385V5.615C4 5.171 4.15833 4.791 4.475 4.475C4.791 4.15833 5.171 4 5.615 4H10.315C10.2243 3.49 10.3467 3.029 10.682 2.617C11.0173 2.20567 11.46 2 12.01 2C12.56 2 13.0027 2.20567 13.338 2.617C13.6727 3.029 13.7883 3.49 13.685 4H18.385C18.829 4 19.209 4.15833 19.525 4.475C19.8417 4.791 20 5.171 20 5.615V11.565C19.6707 11.4603 19.3403 11.3783 19.009 11.319C18.6777 11.2603 18.3413 11.231 18 11.231C17.6627 11.231 17.3347 11.2577 17.016 11.311C16.6973 11.3643 16.384 11.4397 16.076 11.537V11.5H8C7.858 11.5 7.73933 11.548 7.644 11.644C7.548 11.74 7.5 11.859 7.5 12.001C7.5 12.143 7.548 12.2617 7.644 12.357C7.74 12.4523 7.85867 12.5 8 12.5H14.087C13.5817 12.8473 13.1377 13.255 12.755 13.723C12.3723 14.191 12.0573 14.7063 11.81 15.269H8C7.858 15.269 7.73933 15.317 7.644 15.413C7.54867 15.509 7.50067 15.628 7.5 15.77C7.5 15.912 7.548 16.0307 7.644 16.126C7.73933 16.2213 7.858 16.269 8 16.269H11.46C11.388 16.551 11.3317 16.8353 11.291 17.122C11.251 17.4087 11.231 17.7013 11.231 18C11.231 18.3067 11.249 18.643 11.285 19.009C11.3203 19.375 11.399 19.7053 11.521 20ZM17.615 18.5V20.615C17.615 20.7177 17.6537 20.8077 17.731 20.885C17.8077 20.9617 17.8973 21 18 21C18.1027 21 18.1927 20.9617 18.27 20.885C18.3467 20.8077 18.385 20.7177 18.385 20.615V18.5H20.5C20.6027 18.5 20.6927 18.4617 20.77 18.385C20.8467 18.3077 20.885 18.2177 20.885 18.115C20.885 18.013 20.8463 17.9233 20.769 17.846C20.6923 17.7693 20.6027 17.731 20.5 17.731H18.385V15.615C18.385 15.513 18.3463 15.4233 18.269 15.346C18.1923 15.2693 18.1027 15.231 18 15.231C17.8973 15.231 17.8073 15.2693 17.73 15.346C17.6533 15.4233 17.615 15.5133 17.615 15.616V17.731H15.5C15.3973 17.731 15.3073 17.7693 15.23 17.846C15.1533 17.9233 15.115 18.0133 15.115 18.116C15.115 18.218 15.1537 18.3077 15.231 18.385C15.3077 18.4617 15.3973 18.5 15.5 18.5H17.615ZM8 8.73H16C16.142 8.73 16.2607 8.68233 16.356 8.587C16.4513 8.49167 16.4993 8.37267 16.5 8.23C16.5 8.088 16.452 7.96933 16.356 7.874C16.26 7.77867 16.1413 7.731 16 7.731H8C7.858 7.731 7.73933 7.779 7.644 7.875C7.548 7.971 7.5 8.08967 7.5 8.231C7.5 8.373 7.548 8.492 7.644 8.588C7.73933 8.68333 7.858 8.731 8 8.731V8.73Z" fill="#377DFF"/>
</svg>
