<!-- <svg width="24" height="25" viewBox="0 0 24 25" fill="none" xmlns="http://www.w3.org/2000/svg">
<g id="ic:baseline-delete">
<path id="Vector" d="M6 19.5C6 20.6 6.9 21.5 8 21.5H16C17.1 21.5 18 20.6 18 19.5V7.5H6V19.5ZM19 4.5H15.5L14.5 3.5H9.5L8.5 4.5H5V6.5H19V4.5Z" fill="#7D7D7D"/>
</g>
</svg> -->

<svg xmlns="http://www.w3.org/2000/svg" width="24" height="25" viewBox="0 0 16 16" fill="none">
                    <path d="M5.07668 13.3333C4.77001 13.3333 4.51401 13.2307 4.30868 13.0253C4.1029 12.8196 4.00001 12.5633 4.00001 12.2567V4H3.33334V3.33333H6.00001V2.82H10V3.33333H12.6667V4H12V12.2567C12 12.5633 11.8973 12.8193 11.692 13.0247C11.4862 13.2304 11.23 13.3333 10.9233 13.3333H5.07668ZM6.53868 11.3333H7.20534V5.33333H6.53868V11.3333ZM8.79468 11.3333H9.46134V5.33333H8.79468V11.3333Z" fill="#969696"/>
                    </svg>
