<svg xmlns="http://www.w3.org/2000/svg" width="24" height="24" viewBox="0 0 24 24" fill="none">
  <path d="M12 4.442C12.2167 4.442 12.3957 4.37133 12.537 4.23C12.6783 4.08867 12.7493 3.90933 12.75 3.692C12.75 3.47533 12.679 3.29633 12.537 3.155C12.395 3.01367 12.216 2.94267 12 2.942C11.7833 2.942 11.6043 3.013 11.463 3.155C11.3217 3.297 11.2507 3.476 11.25 3.692C11.25 3.90867 11.321 4.088 11.463 4.23C11.605 4.372 11.784 4.44267 12 4.442ZM11.521 20H5.615C5.171 20 4.791 19.8417 4.475 19.525C4.15833 19.209 4 18.829 4 18.385V5.615C4 5.171 4.15833 4.791 4.475 4.475C4.791 4.15833 5.171 4 5.615 4H10.315C10.2243 3.49 10.3467 3.029 10.682 2.617C11.0173 2.20567 11.46 2 12.01 2C12.56 2 13.0027 2.20567 13.338 2.617C13.6727 3.029 13.7883 3.49 13.685 4H18.385C18.829 4 19.209 4.15833 19.525 4.475C19.8417 4.791 20 5.171 20 5.615V11.565C19.6707 11.4603 19.3403 11.3783 19.009 11.319C18.6777 11.2603 18.3413 11.231 18 11.231C17.6627 11.231 17.3347 11.2577 17.016 11.311C16.6973 11.3643 16.384 11.4397 16.076 11.537V11.5H8C7.858 11.5 7.73933 11.548 7.644 11.644C7.548 11.74 7.5 11.859 7.5 12.001C7.5 12.143 7.548 12.2617 7.644 12.357C7.74 12.4523 7.85867 12.5 8 12.5H14.087C13.5817 12.8473 13.1377 13.255 12.755 13.723C12.3723 14.191 12.0573 14.7063 11.81 15.269H8C7.858 15.269 7.73933 15.317 7.644 15.413C7.54867 15.509 7.50067 15.628 7.5 15.77C7.5 15.912 7.548 16.0307 7.644 16.126C7.73933 16.2213 7.858 16.269 8 16.269H11.46C11.388 16.551 11.3317 16.8353 11.291 17.122C11.251 17.4087 11.231 17.7013 11.231 18C11.231 18.3067 11.249 18.643 11.285 19.009C11.3203 19.375 11.399 19.7053 11.521 20ZM8 8.73H16C16.142 8.73 16.2607 8.68233 16.356 8.587C16.4513 8.49167 16.4993 8.37267 16.5 8.23C16.5 8.088 16.452 7.96933 16.356 7.874C16.26 7.77867 16.1413 7.731 16 7.731H8C7.858 7.731 7.73933 7.779 7.644 7.875C7.548 7.971 7.5 8.08967 7.5 8.231C7.5 8.373 7.548 8.492 7.644 8.588C7.73933 8.68333 7.858 8.731 8 8.731V8.73Z" fill="#212529"/>
  <path d="M20.8498 15.1671C19.2899 13.611 16.7299 13.611 15.17 15.1671C13.61 16.7232 13.61 19.2768 15.17 20.8329C16.7299 22.389 19.2499 22.389 20.8098 20.8329C22.3698 19.2768 22.4098 16.7232 20.8498 15.1671ZM19.1299 19.6758L18.0099 18.5586L16.8899 19.6758L16.3299 19.1172L17.4499 18L16.3299 16.8828L16.8899 16.3242L18.0099 17.4414L19.1299 16.3242L19.6899 16.8828L18.5699 18L19.6899 19.1172L19.1299 19.6758Z" fill="#212529"/>
</svg>