<svg xmlns="http://www.w3.org/2000/svg" xmlns:xlink="http://www.w3.org/1999/xlink" width="30" height="40" viewBox="0 0 30 40">
    <defs>
        <path id="a" d="M.005 39.084h29.94V0H.005z"/>
    </defs>
    <g fill="none" fill-rule="evenodd">
        <g>
            <mask id="b" fill="#fff">
                <use xlink:href="#a"/>
            </mask>
            <path fill="#333" d="M28.721 30.68H23.46a1.92 1.92 0 0 0-1.918 1.917v5.263H1.917a.694.694 0 0 1-.693-.694V1.917c0-.382.311-.693.693-.693h26.11c.383 0 .694.311.694.693V30.68zm-5.956 6.315v-4.398c0-.382.311-.693.694-.693h4.397l-5.091 5.09zM28.028 0H1.918A1.92 1.92 0 0 0 0 1.917v35.25a1.92 1.92 0 0 0 1.917 1.917h20.236a.612.612 0 0 0 .433-.18l7.18-7.18a.612.612 0 0 0 .18-.432V1.917A1.92 1.92 0 0 0 28.027 0z" mask="url(#b)"/>
        </g>
        <path fill="#333" d="M5.834 6.446h2v5.916a.612.612 0 1 0 1.223 0V6.446h2a.612.612 0 0 0 0-1.224H5.833a.612.612 0 0 0 0 1.224M14.114 6.475a.041.041 0 0 1 .039-.029h.334c.018 0 .034.012.04.029l1.19 3.97h-2.794l1.19-3.97zm-2.58 6.473a.612.612 0 0 0 .761-.41l.26-.87h3.529l.26.87a.612.612 0 1 0 1.173-.352l-1.819-6.063a1.257 1.257 0 0 0-1.211-.9h-.334c-.563 0-1.05.361-1.212.9l-1.818 6.063a.612.612 0 0 0 .41.762zM23.96 12.01l-2.04-2.912 2.04-2.913a.612.612 0 1 0-1.003-.702l-1.783 2.548-1.783-2.548a.612.612 0 1 0-1.003.702l2.039 2.913-2.04 2.913a.612.612 0 0 0 1.003.702l1.784-2.548 1.783 2.548a.611.611 0 1 0 1.003-.702M4.529 17.543h1.305a.612.612 0 0 0 0-1.224H4.529a.612.612 0 1 0 0 1.224M4.529 20.154h1.305a.612.612 0 0 0 0-1.224H4.529a.612.612 0 0 0 0 1.224M4.529 22.765h1.305a.612.612 0 1 0 0-1.224H4.529a.612.612 0 1 0 0 1.224M25.417 16.319H24.11a.612.612 0 0 0 0 1.224h1.306a.612.612 0 1 0 0-1.224M25.417 18.93H24.11a.612.612 0 0 0 0 1.224h1.306a.612.612 0 0 0 0-1.224M25.417 21.541H24.11a.612.612 0 0 0 0 1.224h1.306a.612.612 0 1 0 0-1.224M16.278 16.319H8.445a.612.612 0 0 0 0 1.224h7.833a.612.612 0 1 0 0-1.224M8.445 20.154h5.222a.612.612 0 0 0 0-1.224H8.445a.612.612 0 0 0 0 1.224M16.89 22.153a.612.612 0 0 0-.612-.612H8.445a.612.612 0 0 0 0 1.224h7.833a.612.612 0 0 0 .612-.612M7.833 31.822c0 .276-.283.573-.734.721v-1.652c.61.299.734.56.734.931zm-1.958-2.74c-.61-.3-.735-.56-.735-.932 0-.276.284-.573.735-.72v1.651zm1.958-.932a.612.612 0 1 0 1.224 0c0-.976-.822-1.77-1.958-1.983v-.097a.612.612 0 0 0-1.224 0v.097c-1.136.212-1.958 1.007-1.958 1.983 0 1.364 1.088 1.937 1.958 2.267v2.126c-.451-.148-.735-.445-.735-.72a.612.612 0 1 0-1.223 0c0 .975.822 1.77 1.958 1.983v.097a.612.612 0 0 0 1.224 0v-.097c1.136-.213 1.958-1.008 1.958-1.984 0-1.363-1.089-1.937-1.958-2.266v-2.127c.45.148.734.445.734.721zM11.056 26.763a.612.612 0 0 0 0 1.224h4.57a.612.612 0 1 0 0-1.224h-4.57M13.667 31.985h-2.61a.612.612 0 0 0 0 1.224h2.61a.612.612 0 0 0 0-1.224M17.584 31.985h-1.306a.612.612 0 0 0 0 1.224h1.306a.612.612 0 0 0 0-1.224M19.542 29.374h-8.486a.612.612 0 1 0 0 1.224h8.486a.612.612 0 0 0 0-1.224M16.278 18.93a.612.612 0 1 1 0 1.224.612.612 0 0 1 0-1.224M18.89 18.93a.612.612 0 1 1 0 1.224.612.612 0 0 1 0-1.224M21.5 18.93a.612.612 0 1 1 0 1.224.612.612 0 0 1 0-1.224M18.89 16.319a.612.612 0 1 1 0 1.224.612.612 0 0 1 0-1.224M21.5 16.319a.612.612 0 1 1 0 1.224.612.612 0 0 1 0-1.224M18.89 21.541a.612.612 0 1 1 0 1.224.612.612 0 0 1 0-1.224M21.5 21.541a.612.612 0 1 1 0 1.224.612.612 0 0 1 0-1.224"/>
    </g>
</svg>
