<svg xmlns="http://www.w3.org/2000/svg" xmlns:xlink="http://www.w3.org/1999/xlink" width="30" height="32" viewBox="0 0 30 32">
    <defs>
        <path id="a" d="M.133 13.96H14V.133H.133z"/>
        <path id="c" d="M13.887 0H.04v30.401h27.695V0H13.887z"/>
    </defs>
    <g fill="none" fill-rule="evenodd">
        <g transform="translate(15.333 18)">
            <mask id="b" fill="#fff">
                <use xlink:href="#a"/>
            </mask>
            <path fill="#333" d="M13.568 5.927l-.771-.148a1.022 1.022 0 0 1-.779-.649 1.026 1.026 0 0 1 .13-1.005l.482-.659a.53.53 0 0 0-.052-.693L11.534 1.73a.536.536 0 0 0-.677-.065l-.649.44a1.023 1.023 0 0 1-1.01.094 1.036 1.036 0 0 1-.62-.805L8.453.586a.533.533 0 0 0-.526-.453H6.451a.533.533 0 0 0-.524.432l-.19.995c-.068.354-.3.635-.63.773a1.032 1.032 0 0 1-.992-.101l-.839-.568a.536.536 0 0 0-.677.065L1.555 2.773a.532.532 0 0 0-.052.693l.482.66c.218.296.265.663.13 1.004-.133.344-.417.58-.779.649l-.77.148a.535.535 0 0 0-.433.524V7.93c0 .263.192.487.453.526l.807.125c.365.054.656.281.805.617.146.339.112.705-.094 1.01l-.44.651a.532.532 0 0 0 .065.675l1.044 1.044c.186.187.48.209.693.055l.66-.484a1.031 1.031 0 0 1 1.004-.131c.344.135.58.42.649.779l.148.771c.05.25.268.432.524.432H7.93a.533.533 0 0 0 .526-.453l.085-.568c.058-.367.298-.669.639-.81a1.037 1.037 0 0 1 1.023.123l.464.34a.534.534 0 0 0 .692-.054l1.044-1.044a.532.532 0 0 0 .066-.677l-.44-.649a1.038 1.038 0 0 1-.094-1.01c.148-.336.44-.563.804-.62l.81-.122A.537.537 0 0 0 14 7.927V6.451a.535.535 0 0 0-.432-.524zm-.636 1.544l-.354.055a2.106 2.106 0 0 0-1.62 1.247c-.291.67-.221 1.43.188 2.034l.193.284-.409.409-.094-.068a2.11 2.11 0 0 0-2.065-.25c-.69.287-1.17.899-1.282 1.636l-.018.114h-.58l-.063-.335a2.111 2.111 0 0 0-1.307-1.574 2.116 2.116 0 0 0-2.026.264l-.292.213-.409-.409.193-.284c.409-.606.479-1.367.188-2.036a2.104 2.104 0 0 0-1.62-1.245L1.2 7.471v-.58l.336-.063a2.106 2.106 0 0 0 1.572-1.307 2.117 2.117 0 0 0-.262-2.026l-.214-.292.408-.409.474.32c.592.401 1.342.477 2 .204a2.114 2.114 0 0 0 1.269-1.555l.107-.562h.58l.055.354a2.108 2.108 0 0 0 1.247 1.62c.67.291 1.43.221 2.034-.188l.284-.193.409.41-.21.29a2.115 2.115 0 0 0 1.307 3.333l.338.064v.58h-.003z" mask="url(#b)"/>
        </g>
        <path fill="#333" d="M22.401 22.401a2.668 2.668 0 0 0-2.666 2.667 2.67 2.67 0 0 0 2.666 2.667 2.672 2.672 0 0 0 2.667-2.667 2.67 2.67 0 0 0-2.667-2.667zm0 4.266a1.603 1.603 0 0 1-1.602-1.599c0-.883.719-1.602 1.602-1.602.88 0 1.599.719 1.599 1.602 0 .88-.719 1.599-1.599 1.599z"/>
        <g>
            <mask id="d" fill="#fff">
                <use xlink:href="#c"/>
            </mask>
            <path fill="#333" d="M19.2 17.068H24v-5.867H3.735v15.466H14.4v-9.599h4.8zm0-1.068h3.732v-3.735h-3.731V16zM9.6 16h3.734v-3.735H9.6V16zm-4.8 0h3.735v-3.735H4.799V16zm0 4.8h3.735v-3.732H4.799v3.731zm0 4.799h3.735v-3.732H4.799V25.6zm4.8 0h3.734v-3.732H9.6V25.6zm0-4.8h3.734v-3.731H9.6v3.731zM14.4 16h3.732v-3.735H14.4V16z" mask="url(#d)"/>
            <path fill="#333" d="M13.867 29.333H1.068V8.534h25.599v9.065a.533.533 0 1 0 1.068 0V2.667a.535.535 0 0 0-.534-.534h-2.667V.534A.535.535 0 0 0 24 0h-3.735c-.294 0-.53.24-.53.534v1.599H8V.534A.534.534 0 0 0 7.466 0H3.735A.533.533 0 0 0 3.2.534v1.599H.534A.535.535 0 0 0 0 2.667v27.2c0 .294.24.534.534.534h13.333a.535.535 0 0 0 0-1.068zM20.8 4.265h2.667V1.068h-2.667v3.197zm-16.534 0h2.667V1.068H4.265v3.197zM1.068 3.201h2.133v1.598c0 .295.236.534.534.534h3.731c.295 0 .534-.239.534-.534V3.201h11.735v1.598c0 .295.236.534.53.534H24c.294 0 .534-.239.534-.534V3.201h2.133v4.265H1.068V3.201z" mask="url(#d)"/>
        </g>
    </g>
</svg>
