<svg xmlns="http://www.w3.org/2000/svg" width="72" height="72"  viewBox="0 0 72 72">
    <g fill="none" fill-rule="evenodd">
        <path  d="M-857-321H585v923H-857z"/>
        <g stroke="#2496FF" stroke-width="2">
            <path stroke-linejoin="round" d="M46 48v16l-9.5-5.17L27 64V48"/>
            <path d="M37.06 8l3.395 2.69 4.242-1.345L47 13.135l4.364.123.97 4.28 4 1.712-.607 4.402L59 26.587 56.94 30.5 59 34.413l-3.273 2.935.606 4.402-4 1.712-.97 4.28-4.363.122-2.303 3.79-4.242-1.344L37.06 53l-3.516-2.69-4.12 1.345-2.304-3.79-4.485-.123-.848-4.28-4.121-1.712.606-4.402L15 34.413l2.06-3.913L15 26.587l3.273-2.935-.606-4.402 4.12-1.712.85-4.28 4.484-.122 2.303-3.79 4.121 1.344zM38.2 30h-3.6"/>
            <path d="M39.4 25.2h-4.8v9.6h4.8M25 36V25.2h.84l4.32 9.6H31V24M49 24v10.8h-.96l-2.64-5.04-2.64 5.04h-.96V24M26 19.878C28.704 16.829 32.637 15 36.939 15c4.424 0 8.357 1.951 11.061 5M48 40c-2.689 3.049-6.6 5-11 5s-8.311-1.951-11-5"/>
        </g>
    </g>
</svg>
