<svg xmlns="http://www.w3.org/2000/svg" width="52" height="32" viewBox="0 0 52 32">
    <g fill="none" fill-rule="evenodd">
        <rect width="51.467" height="31.467" x=".267" y=".267" fill="#FFF" stroke="#E9E9E9" stroke-width=".533" rx="2.133"/>
        <g fill="#0072CE">
            <path d="M44.244 18.195h-1.908c-.19 0-.317.007-.424.078-.11.07-.153.174-.153.31 0 .163.093.274.229.322.11.038.23.049.403.049l.568.015c.572.014.954.11 1.187.347.043.033.068.07.098.107v-1.228zm0 2.844c-.255.366-.75.552-1.421.552h-2.022v-.925h2.014c.2 0 .34-.026.423-.107a.377.377 0 0 0 .124-.281.352.352 0 0 0-.128-.285c-.076-.066-.186-.096-.368-.096-.983-.033-2.21.03-2.21-1.335 0-.626.404-1.284 1.502-1.284h2.085v-.859h-1.937c-.585 0-1.01.138-1.31.353v-.353H38.13c-.458 0-.996.112-1.25.353v-.353h-5.117v.353c-.407-.29-1.095-.353-1.412-.353h-3.375v.353c-.322-.308-1.039-.353-1.475-.353h-3.778l-.864.922-.81-.922h-5.643v6.02h5.537l.89-.937.84.936 3.412.003v-1.416h.336c.453.007.987-.01 1.458-.211v1.624h2.815v-1.569h.136c.173 0 .19.007.19.178v1.39h8.551c.543 0 1.11-.136 1.425-.384v.385h2.712c.565 0 1.116-.078 1.536-.278v-1.12zm-4.176-1.723c.204.208.313.47.313.914 0 .928-.589 1.36-1.644 1.36h-2.04v-.924h2.031c.199 0 .34-.026.428-.107a.38.38 0 0 0 .124-.281.368.368 0 0 0-.128-.285c-.08-.066-.19-.096-.373-.096-.979-.033-2.205.03-2.205-1.335 0-.626.4-1.284 1.497-1.284h2.098v.918h-1.92c-.19 0-.314.007-.42.078-.114.07-.157.173-.157.31a.33.33 0 0 0 .23.321c.11.038.229.05.407.05l.563.014c.569.014.959.11 1.196.347zm-9.446-.266c-.14.081-.313.088-.517.088h-1.271v-.968h1.288c.187 0 .373.004.5.078.136.07.217.203.217.388a.463.463 0 0 1-.217.414zm.632.536c.233.085.424.237.513.363.148.21.17.407.174.787v.855H30.89v-.54c0-.26.025-.643-.17-.844-.153-.155-.386-.192-.768-.192h-1.118v1.576h-1.052v-4.314h2.417c.53 0 .916.024 1.26.204.33.197.537.466.537.958 0 .688-.466 1.04-.742 1.147zm1.323-2.309h3.493v.893h-2.45v.784h2.39v.88h-2.39v.858l2.45.004v.895h-3.493v-4.314zm-7.063 1.991h-1.353V18.17h1.365c.378 0 .64.151.64.529 0 .373-.25.57-.652.57zm-2.395 1.93l-1.608-1.756 1.608-1.702V21.2zm-4.151-.506h-2.574v-.858h2.298v-.88h-2.298v-.784h2.625l1.145 1.257-1.196 1.265zm8.322-1.993c0 1.198-.908 1.445-1.823 1.445h-1.306v1.447h-2.034l-1.29-1.428-1.339 1.428h-4.146v-4.314h4.21l1.288 1.414 1.331-1.414h3.345c.83 0 1.764.227 1.764 1.422zM10.357 12.307l-.716-1.72-.713 1.72h1.43zm15.784-.685c-.144.086-.314.089-.518.089h-1.271v-.958h1.289c.182 0 .372.008.496.078.136.063.22.196.22.381 0 .189-.08.34-.216.41zm9.072.685l-.724-1.72-.72 1.72h1.444zm-16.91 1.86h-1.074l-.004-3.377-1.518 3.377h-.919l-1.522-3.38v3.38h-2.129l-.402-.961h-2.18l-.406.961H7.012l1.875-4.312h1.555l1.78 4.083V9.855h1.709l1.37 2.926 1.258-2.926h1.743v4.312zm4.276 0h-3.496V9.855h3.496v.898h-2.45v.777h2.392v.884h-2.392v.862h2.45v.891zm4.931-3.15c0 .687-.466 1.042-.738 1.149.23.086.425.237.518.363.148.215.174.406.174.791v.847h-1.056l-.004-.543c0-.26.025-.633-.165-.84-.153-.152-.387-.185-.763-.185h-1.124v1.568h-1.047V9.855h2.408c.535 0 .929.014 1.267.207.332.192.53.473.53.954zm1.675 3.15h-1.068V9.855h1.068v4.312zm12.392 0h-1.484l-1.984-3.236v3.236h-2.132l-.407-.961h-2.175l-.395.961h-1.225c-.509 0-1.153-.11-1.518-.476-.368-.367-.559-.863-.559-1.647 0-.64.114-1.224.564-1.686.339-.344.869-.503 1.59-.503h1.014v.924h-.993c-.382 0-.597.056-.805.256-.179.181-.301.524-.301.976 0 .462.093.796.288 1.013.161.17.454.223.73.223h.47l1.475-3.392h1.568l1.773 4.08v-4.08h1.594l1.84 3.004V9.855h1.072v4.312zM7 15.015H8.79l.403-.958h.903l.402.958h3.52v-.733l.313.736h1.827l.314-.747v.744h8.746l-.004-1.573h.17c.118.004.152.015.152.208v1.365h4.524v-.367c.364.193.932.367 1.679.367h1.903l.407-.958h.903l.398.958h3.667v-.91l.555.91h2.939V9h-2.908v.71L39.194 9H36.21v.71L35.836 9h-4.03c-.675 0-1.268.093-1.747.351V9h-2.782v.351c-.305-.266-.72-.351-1.182-.351H15.932l-.682 1.553L14.55 9h-3.2v.71L10.997 9h-2.73L7 11.86v3.155z"/>
        </g>
    </g>
</svg>
