<svg xmlns="http://www.w3.org/2000/svg" xmlns:xlink="http://www.w3.org/1999/xlink" width="15" height="15" viewBox="0 0 15 15">
    <defs>
        <path id="a" d="M.002.016h4.494V15H.002z"/>
    </defs>
    <g fill="none" fill-rule="evenodd">
        <g transform="translate(0 .037)">
            <mask id="b" fill="#fff">
                <use xlink:href="#a"/>
            </mask>
            <path fill="#8F8F8F" d="M3.274.083l-2.362.945C.247 1.274 0 1.608 0 2.26v10.492c0 .652.247.987.906 1.231l2.373.95a.99.99 0 0 0 .35.066c.502 0 .867-.42.867-.998V1.012c0-.71-.567-1.176-1.222-.929zm.722 13.92c0 .297-.147.498-.367.498a.495.495 0 0 1-.17-.033l-2.373-.95c-.471-.175-.587-.325-.587-.765V2.261c0-.44.116-.59.593-.767L3.455.549a.497.497 0 0 1 .174-.035c.22 0 .367.2.367.498v12.99z" mask="url(#b)"/>
        </g>
        <path fill="#8F8F8F" d="M5.214 1.548H8.74a.75.75 0 0 1 .75.75v3.746a.25.25 0 1 0 .5 0V2.298a1.25 1.25 0 0 0-1.25-1.25H5.214a.25.25 0 0 0 0 .5zM9.74 8.791a.25.25 0 0 0-.25.25v3.746a.75.75 0 0 1-.749.75H5.245a.25.25 0 0 0 0 .499H8.74a1.25 1.25 0 0 0 1.25-1.249V9.041a.25.25 0 0 0-.25-.25z"/>
        <path fill="#8F8F8F" d="M14.966 7.447a.25.25 0 0 0-.054-.081l-2.497-2.498a.25.25 0 1 0-.354.353l2.072 2.072H5.744a.25.25 0 0 0 0 .5h8.389l-2.072 2.07a.25.25 0 1 0 .354.353l2.497-2.497a.251.251 0 0 0 .054-.272z"/>
    </g>
</svg>
