<svg xmlns="http://www.w3.org/2000/svg" width="8" height="15" viewBox="0 0 8 15">
    <path fill="#2296ff" fill-rule="evenodd" d="M6.746 3.086h1.029v7.553c0 1.05-.37 1.94-1.109 2.668-.74.729-1.634 1.093-2.684 1.093-1.05 0-1.94-.364-2.668-1.093C.586 12.58.221 11.69.221 10.64V2.732c0-.75.268-1.393.804-1.928A2.63 2.63 0 0 1 2.954 0c.75 0 1.398.268 1.944.804.547.535.82 1.178.82 1.928v7.907c0 .472-.166.873-.498 1.206a1.68 1.68 0 0 1-1.238.498c-.493 0-.9-.16-1.221-.482-.322-.322-.482-.729-.482-1.222V4.114h1.028v6.525c0 .193.064.354.193.482.129.129.29.193.482.193a.71.71 0 0 0 .498-.193.629.629 0 0 0 .21-.482V2.732c0-.471-.167-.873-.499-1.205a1.68 1.68 0 0 0-1.237-.498c-.493 0-.9.16-1.222.482-.321.321-.482.728-.482 1.221v7.907c0 .75.268 1.393.804 1.929a2.63 2.63 0 0 0 1.928.803c.75 0 1.398-.267 1.945-.803.546-.536.82-1.179.82-1.929V3.086z"/>
</svg>
