<svg xmlns="http://www.w3.org/2000/svg" width="528" height="257" viewBox="0 0 528 257">
    <g fill="none" fill-rule="evenodd">
        <path fill="#F6F6F6" d="M528 257a4 4 0 0 0-4-4H4a4 4 0 0 0-4 4V4a4 4 0 0 1 4-4h520a4 4 0 0 1 4 4v253z"/>
        <path fill="#D8D8D8" d="M269.259 85.563L311.004 8 393 160.348h-83.564c-.278 48.457-39.22 87.652-87.217 87.652-48.17 0-87.219-39.477-87.219-88.174 0-48.697 39.05-88.174 87.219-88.174a86.128 86.128 0 0 1 47.04 13.91zm0 0l-40.25 74.785h80.427l.001-.522c0-31.184-16.012-58.586-40.178-74.263z"/>
    </g>
</svg>
