<svg width="40" height="40" viewBox="0 0 40 40" fill="none" xmlns="http://www.w3.org/2000/svg">
    <circle cx="20" cy="20" r="20" fill="#EAFAF3"/>
    <path opacity=".3" fill-rule="evenodd" clip-rule="evenodd" d="M16.494 12.079a1.312 1.312 0 0 0 1.311 1.313h4.371c.724 0 1.312-.588 1.312-1.312v-.438h1.75c.966 0 1.75.783 1.75 1.75v13.985a1.75 1.75 0 0 1-1.75 1.75h-10.49a1.75 1.75 0 0 1-1.75-1.75V13.392c0-.967.783-1.75 1.75-1.75h1.746v.437z" fill="#2DCA8C"/>
    <path d="M19.794 26.546V21.09h.35v5.454h-.35zm1.008-3.71a.581.581 0 0 0-.252-.435c-.146-.103-.336-.155-.57-.155-.165 0-.307.025-.425.074a.628.628 0 0 0-.27.203.492.492 0 0 0-.034.528c.042.067.1.124.172.17.073.046.153.084.241.116.088.03.177.057.266.079l.41.102c.164.038.323.09.475.155.153.066.29.148.41.248.123.099.22.219.29.36.072.14.107.305.107.494 0 .256-.065.48-.196.675-.13.194-.32.345-.567.454-.245.108-.543.162-.892.162-.34 0-.635-.052-.885-.158a1.317 1.317 0 0 1-.583-.46 1.365 1.365 0 0 1-.226-.737h.777a.662.662 0 0 0 .141.38c.082.1.19.175.322.225.133.05.282.075.447.075.172 0 .323-.026.452-.077a.733.733 0 0 0 .307-.217.525.525 0 0 0 .113-.329.417.417 0 0 0-.1-.28.733.733 0 0 0-.275-.188 2.648 2.648 0 0 0-.41-.137l-.496-.128c-.36-.092-.643-.232-.852-.42-.208-.188-.311-.439-.311-.751 0-.258.07-.483.209-.676a1.38 1.38 0 0 1 .573-.45 1.99 1.99 0 0 1 .82-.161c.31 0 .581.054.814.162.234.106.418.255.552.445.133.189.202.406.206.652h-.76z" fill="#2DCA8C"/>
    <path fill-rule="evenodd" clip-rule="evenodd" d="M19.993 9.893c.483 0 .875.391.875.875h1.312c.241 0 .437.195.437.437v.874a.437.437 0 0 1-.437.437h-4.375a.437.437 0 0 1-.437-.437v-.874c0-.241.196-.437.437-.437h1.313c0-.484.392-.875.875-.875z" fill="#2DCA8C"/>
    <path opacity=".3" fill-rule="evenodd" clip-rule="evenodd" d="M18.72 17.22a.722.722 0 0 1 .53-.22h4c.207 0 .384.073.53.22.147.146.22.323.22.53a.722.722 0 0 1-.22.53.722.722 0 0 1-.53.22h-4a.722.722 0 0 1-.53-.22.722.722 0 0 1-.22-.53c0-.207.073-.384.22-.53zM16.22 17.22a.722.722 0 0 1 .53-.22c.207 0 .384.073.53.22.147.146.22.323.22.53a.722.722 0 0 1-.22.53.722.722 0 0 1-.53.22.722.722 0 0 1-.53-.22.722.722 0 0 1-.22-.53c0-.207.073-.384.22-.53z" fill="#2DCA8C"/>
</svg>
