<svg xmlns="http://www.w3.org/2000/svg" xmlns:xlink="http://www.w3.org/1999/xlink" width="85" height="12" viewBox="0 0 85 12">
    <defs>
        <path id="a" d="M0 11.823h84.84V0H0z"/>
    </defs>
    <g fill="none" fill-rule="evenodd">
        <path fill="#000" d="M2.77 10.036h1.987c1.533 0 2.3-.523 2.3-1.534 0-.993-.82-1.534-2.422-1.534H2.77v3.068zm0-7.4v2.852h1.743c1.306 0 1.986-.506 1.986-1.427 0-.938-.697-1.425-2.004-1.425H2.77zM0 11.57v-1.535h1.167v-7.4H0V1.1h4.67c2.143 0 3.45 1.029 3.45 2.816 0 1.173-.663 1.896-1.499 2.239 1.202.342 2.056 1.227 2.056 2.436 0 1.914-1.429 2.98-3.764 2.98H0zM17.145 6.12c-.174-.614-.61-.976-1.184-.976-1.342 0-2.614 1.03-2.614 2.907v1.985h2.579v1.535h-5.75v-1.535h1.638v-4.62h-1.29V3.88h2.805v1.3c.471-.903 1.43-1.553 2.701-1.553 1.429 0 2.318.849 2.579 2.058l-1.464.433zM24.986 8.466a5.898 5.898 0 0 0-1.899-.325c-.975 0-1.917.325-1.917 1.246 0 .685.593 1.01 1.412 1.01 1.132 0 2.404-.631 2.404-1.714v-.217zm0-1.372v-.433c0-1.083-.836-1.534-1.742-1.534-.854 0-1.586.36-2.178.92l-1.01-1.137c.696-.668 1.69-1.282 3.188-1.282 1.864 0 3.31 1.03 3.31 2.979v3.43h1.08v1.534h-2.648v-.812c-.4.667-1.48 1.064-2.544 1.064-1.533 0-2.857-.812-2.857-2.418 0-1.896 1.795-2.618 3.433-2.618.801 0 1.463.163 1.968.307z"/>
        <mask id="b" fill="#fff">
            <use xlink:href="#a"/>
        </mask>
        <path fill="#000" d="M32.357 2.347h1.725V0h-1.725v2.347zm4.583 7.69v1.534h-7.493v-1.535h3.102v-4.62h-2.37V3.88h3.903v6.155h2.858zM38.787 10.036h1.132v-4.62h-1.062V3.88h2.578v.993c.453-.758 1.394-1.246 2.544-1.246 1.655 0 2.84 1.083 2.84 2.834v3.574h1.133v1.535H44.1v-1.535h1.185v-3.14c0-1.336-.784-1.715-1.499-1.715-1.167 0-2.334.902-2.334 2.292v2.563h1.184v1.535h-3.85v-1.535zM50.06 5.415h-1.934V3.881h1.934V1.1h1.534v2.78H55.2v1.534h-3.606v3.231c0 1.192.801 1.68 1.725 1.68.87 0 1.603-.506 2.143-1.066l1.028 1.101c-.68.759-1.725 1.462-3.171 1.462-1.865 0-3.259-1.064-3.259-3.122V5.415zM64.853 6.12c-.174-.614-.61-.976-1.184-.976-1.342 0-2.614 1.03-2.614 2.907v1.985h2.579v1.535h-5.75v-1.535h1.638v-4.62h-1.29V3.88h2.806v1.3c.47-.903 1.428-1.553 2.7-1.553 1.43 0 2.318.849 2.579 2.058l-1.464.433zM68.983 6.932h4.565c-.226-1.101-1.167-1.842-2.213-1.842-1.184 0-2.09.758-2.352 1.842zm6.186 3.466c-.767.83-2.126 1.425-3.642 1.425-2.492 0-4.234-1.733-4.234-4.097 0-2.365 1.69-4.098 4.042-4.098 2.335 0 3.973 1.86 3.973 4.387v.27h-6.394c.26 1.282 1.289 2.058 2.63 2.058 1.116 0 2.074-.469 2.597-1.065l1.028 1.12zM78.514 6.932h4.565c-.226-1.101-1.167-1.842-2.212-1.842-1.185 0-2.091.758-2.353 1.842zm6.186 3.466c-.767.83-2.126 1.425-3.642 1.425-2.491 0-4.234-1.733-4.234-4.097 0-2.365 1.69-4.098 4.043-4.098 2.334 0 3.972 1.86 3.972 4.387v.27h-6.394c.261 1.282 1.289 2.058 2.63 2.058 1.116 0 2.074-.469 2.597-1.065l1.028 1.12z" mask="url(#b)"/>
    </g>
</svg>
