<svg width="40" height="40" viewBox="0 0 40 40" fill="none" xmlns="http://www.w3.org/2000/svg">
    <circle cx="20" cy="20" r="20" fill="#FFF2D8"/>
    <path opacity=".3" fill-rule="evenodd" clip-rule="evenodd" d="m25.458 11.796 1.83 3.2h-14.63l1.83-3.2h10.97z" fill="#FFBE3D"/>
    <path fill-rule="evenodd" clip-rule="evenodd" d="M25.458 13.625c1.01 0 1.83.819 1.83 1.829v10.971a1.829 1.829 0 0 1-1.83 1.831h-10.97a1.829 1.829 0 0 1-1.83-1.831V15.454c0-1.01.82-1.829 1.83-1.829h10.97zm-9.142 4.573c0 .505.41.914.915.914h5.486a.914.914 0 1 0 0-1.829h-5.486a.914.914 0 0 0-.915.915z" fill="#FFBE3D"/>
</svg>
