<svg xmlns="http://www.w3.org/2000/svg" xmlns:xlink="http://www.w3.org/1999/xlink" width="20" height="20" viewBox="0 0 20 20">
    <defs>
        <path id="a" d="M.003.035h19.962V19.95H.003z"/>
    </defs>
    <g fill="none" fill-rule="evenodd">
        <g>
            <mask id="b" fill="#fff">
                <use xlink:href="#a"/>
            </mask>
            <path fill="#2496FF" d="M.936.035h18.093c.515 0 .936.42.936.933v18.049a.938.938 0 0 1-.936.934H.936A.938.938 0 0 1 0 19.017V.968C0 .455.421.035.936.035z" mask="url(#b)"/>
        </g>
        <path fill="#58ACF9" d="M1.872 3.769h16.221c.344 0 .625.28.625.622v13.692c0 .343-.281.623-.625.623H1.872a.625.625 0 0 1-.624-.623V4.391c0-.342.28-.622.624-.622z"/>
        <path fill="#FFF" d="M2 1c-.55 0-1 .45-1 1s.45 1 1 1 1-.45 1-1-.45-1-1-1zm3 0c-.55 0-1 .45-1 1s.45 1 1 1 1-.45 1-1-.45-1-1-1zm3 0c-.55 0-1 .45-1 1s.45 1 1 1 1-.45 1-1-.45-1-1-1z"/>
    </g>
</svg>
