<?xml version="1.0" encoding="UTF-8"?>
<svg width="151px" height="50px" viewBox="0 0 151 50" version="1.1" xmlns="http://www.w3.org/2000/svg" xmlns:xlink="http://www.w3.org/1999/xlink">
    <!-- Generator: Sketch 63.1 (92452) - https://sketch.com -->
    <title>Bulbul-Full-Logo</title>
    <desc>Created with Sketch.</desc>
    <defs>
        <linearGradient x1="0.0629569418%" y1="47.0182906%" x2="539.586348%" y2="47.0182906%" id="linearGradient-1">
            <stop stop-color="#FC4B0E" offset="0%"></stop>
            <stop stop-color="#F84F11" offset="12%"></stop>
            <stop stop-color="#EC5A18" offset="25%"></stop>
            <stop stop-color="#D86C25" offset="37%"></stop>
            <stop stop-color="#BC8636" offset="50%"></stop>
            <stop stop-color="#98A74D" offset="62%"></stop>
            <stop stop-color="#83BA5A" offset="69%"></stop>
            <stop stop-color="#65A46E" offset="87%"></stop>
            <stop stop-color="#5B9C75" offset="92%"></stop>
        </linearGradient>
        <linearGradient x1="-125.519327%" y1="32.8321842%" x2="460.980766%" y2="32.8321842%" id="linearGradient-2">
            <stop stop-color="#FC4B0E" offset="0%"></stop>
            <stop stop-color="#F84F11" offset="12%"></stop>
            <stop stop-color="#EC5A18" offset="25%"></stop>
            <stop stop-color="#D86C25" offset="37%"></stop>
            <stop stop-color="#BC8636" offset="50%"></stop>
            <stop stop-color="#98A74D" offset="62%"></stop>
            <stop stop-color="#83BA5A" offset="69%"></stop>
            <stop stop-color="#65A46E" offset="87%"></stop>
            <stop stop-color="#5B9C75" offset="92%"></stop>
        </linearGradient>
        <linearGradient x1="-695.930669%" y1="50.6011752%" x2="951.877367%" y2="50.6011752%" id="linearGradient-3">
            <stop stop-color="#FC4B0E" offset="0%"></stop>
            <stop stop-color="#F84F11" offset="12%"></stop>
            <stop stop-color="#EC5A18" offset="25%"></stop>
            <stop stop-color="#D86C25" offset="37%"></stop>
            <stop stop-color="#BC8636" offset="50%"></stop>
            <stop stop-color="#98A74D" offset="62%"></stop>
            <stop stop-color="#83BA5A" offset="69%"></stop>
            <stop stop-color="#65A46E" offset="87%"></stop>
            <stop stop-color="#5B9C75" offset="92%"></stop>
        </linearGradient>
        <linearGradient x1="-290.034597%" y1="49.9937051%" x2="221.387026%" y2="49.9937051%" id="linearGradient-4">
            <stop stop-color="#FC4B0E" offset="0%"></stop>
            <stop stop-color="#F84F11" offset="12%"></stop>
            <stop stop-color="#EC5A18" offset="25%"></stop>
            <stop stop-color="#D86C25" offset="37%"></stop>
            <stop stop-color="#BC8636" offset="50%"></stop>
            <stop stop-color="#98A74D" offset="71.3312922%"></stop>
            <stop stop-color="#65A46E" offset="87%"></stop>
            <stop stop-color="#5B9C75" offset="100%"></stop>
        </linearGradient>
        <linearGradient x1="-428.435965%" y1="32.8318171%" x2="157.576523%" y2="32.8318171%" id="linearGradient-5">
            <stop stop-color="#FC4B0E" offset="0%"></stop>
            <stop stop-color="#F84F11" offset="12%"></stop>
            <stop stop-color="#EC5A18" offset="25%"></stop>
            <stop stop-color="#D86C25" offset="37%"></stop>
            <stop stop-color="#BC8636" offset="50%"></stop>
            <stop stop-color="#98A74D" offset="62%"></stop>
            <stop stop-color="#83BA5A" offset="69%"></stop>
            <stop stop-color="#65A46E" offset="87%"></stop>
            <stop stop-color="#5B9C75" offset="92%"></stop>
        </linearGradient>
        <linearGradient x1="-1547.92744%" y1="50.6013688%" x2="99.9615465%" y2="50.6013688%" id="linearGradient-6">
            <stop stop-color="#FC4B0E" offset="0%"></stop>
            <stop stop-color="#F84F11" offset="12%"></stop>
            <stop stop-color="#EC5A18" offset="25%"></stop>
            <stop stop-color="#D86C25" offset="37%"></stop>
            <stop stop-color="#BC8636" offset="50%"></stop>
            <stop stop-color="#98A74D" offset="62%"></stop>
            <stop stop-color="#83BA5A" offset="69%"></stop>
            <stop stop-color="#65A46E" offset="87%"></stop>
            <stop stop-color="#5B9C75" offset="92%"></stop>
        </linearGradient>
        <linearGradient x1="29.3388993%" y1="9.52971458%" x2="67.7228748%" y2="91.283219%" id="linearGradient-7">
            <stop stop-color="#FC4B0E" offset="0%"></stop>
            <stop stop-color="#F84F11" offset="12%"></stop>
            <stop stop-color="#EC5A18" offset="25%"></stop>
            <stop stop-color="#D86C25" offset="37%"></stop>
            <stop stop-color="#BC8636" offset="50%"></stop>
            <stop stop-color="#65A46E" offset="87%"></stop>
            <stop stop-color="#5B9C75" offset="100%"></stop>
        </linearGradient>
    </defs>
    <g id="Bulbul-Full-Logo" stroke="none" stroke-width="1" fill="none" fill-rule="evenodd">
        <g id="bulbul_full_1" transform="translate(10.000000, 3.500000)" fill-rule="nonzero">
            <path d="M53.8288333,31.6457105 C53.4896111,31.6457105 53.0906667,31.6336667 52.6343889,31.6145556 C52.1781111,31.5954444 51.7003333,31.5548333 51.2010556,31.4951111 C50.7017778,31.4353889 50.2263889,31.3589444 49.7462222,31.2705556 C49.295539,31.1886175 48.8539013,31.0630067 48.4275556,30.8955 C47.3286667,30.4750556 46.7792222,29.7456481 46.7792222,28.7072778 L46.7792222,14.7131667 C46.75648,14.3550029 46.8807016,14.0030416 47.1232222,13.7385 C47.395669,13.4837919 47.7224046,13.2942853 48.0787778,13.1842778 C48.9040131,12.9130831 49.7576596,12.7375445 50.6229444,12.6611111 C51.6679615,12.5499071 52.7181949,12.4948835 53.7691111,12.4962519 C56.3268148,12.4962519 58.2952593,12.9262778 59.6744444,13.7862778 C61.0536296,14.6462778 61.7424259,15.9745 61.7408333,17.7709444 C61.7601801,18.6121116 61.4846775,19.4335486 60.9620556,20.0929444 C60.4172985,20.7646642 59.6883524,21.262805 58.8646111,21.5262778 C59.8275279,21.7859043 60.6956474,22.3165599 61.3657778,23.0551667 C62.0465599,23.8208269 62.4066749,24.8190553 62.3715,25.843 C62.3715,27.821 61.6373148,29.2845926 60.1689444,30.2337778 C58.7005741,31.182963 56.5872037,31.6535741 53.8288333,31.6457105 Z M51.8818889,20.1072778 L54.0701111,20.1072778 C54.9277222,20.1072778 55.5536111,19.9472222 55.943,19.6295 C56.3469844,19.2766665 56.5626558,18.7551659 56.5258889,18.2200556 C56.5371515,17.7036907 56.2828435,17.2176196 55.8522222,16.9324444 C55.4031111,16.6139259 54.7286481,16.4546667 53.8288333,16.4546667 C53.5302222,16.4546667 53.1862222,16.4546667 52.7944444,16.4857222 C52.4887863,16.4972222 52.1840722,16.5267364 51.8818889,16.5741111 L51.8818889,20.1072778 Z M51.8818889,27.4196667 C52.2354464,27.5103399 52.5971592,27.5655571 52.9616667,27.5845 C53.3988333,27.6131667 53.8192778,27.6275 54.2182222,27.6275 C54.9164021,27.6535302 55.6077701,27.4821372 56.2129444,27.133 C56.7415363,26.8040856 57.0463188,26.211045 57.0060556,25.5897778 C57.0060556,24.9304444 56.7862778,24.4614259 56.3467222,24.1827222 C55.9071667,23.9040185 55.2382778,23.7638704 54.3400556,23.7622778 L51.8818889,23.7622778 L51.8818889,27.4196667 Z" id="Shape" fill="url(#linearGradient-1)"></path>
            <path d="M64.7986111,16.8106111 C65.1084866,16.7279748 65.4238066,16.6673056 65.7422222,16.6290556 C66.1839913,16.5689446 66.629384,16.5394114 67.0752222,16.5406667 C67.4751478,16.5364794 67.8747135,16.5660473 68.2696667,16.6290556 C68.5887521,16.6774327 68.8917351,16.8010825 69.1535556,16.9897778 C69.4003125,17.1805214 69.5916465,17.4337092 69.7077778,17.7231667 C69.8500471,18.1113922 69.9157578,18.5235032 69.9012778,18.9367222 L69.9012778,25.3867222 C69.9012778,26.2069074 70.1011481,26.7905926 70.5008889,27.1377778 C70.9022222,27.4889444 71.4803333,27.6633333 72.24,27.6633333 C72.6178457,27.6721403 72.9952416,27.6319918 73.3627778,27.5438889 C73.5954278,27.4866539 73.8218733,27.4066378 74.0388333,27.305 L74.0388333,16.8106111 C74.3487088,16.7279748 74.6640288,16.6673056 74.9824444,16.6290556 C75.4242135,16.5689446 75.8696063,16.5394114 76.3154444,16.5406667 C76.71537,16.5364794 77.1149358,16.5660473 77.5098889,16.6290556 C77.8289743,16.6774327 78.1319573,16.8010825 78.3937778,16.9897778 C78.6405347,17.1805214 78.8318688,17.4337092 78.948,17.7231667 C79.0902694,18.1113922 79.15598,18.5235032 79.1415,18.9367222 L79.1415,28.0479444 C79.1824309,28.9754493 78.6947805,29.8461875 77.8825556,30.2958889 C77.1098632,30.7659649 76.2647332,31.1049855 75.3813889,31.2992222 C74.344088,31.5369216 73.2826602,31.6531656 72.2185,31.6456111 C71.2073905,31.6584848 70.1988664,31.5404489 69.2180556,31.2944444 C68.3684984,31.0831422 67.568912,30.7064843 66.865,30.186 C66.2013256,29.6808398 65.6762073,29.0160187 65.3385,28.2533889 C64.9550592,27.3476021 64.7709322,26.3699365 64.7986111,25.3867222 L64.7986111,16.8106111 Z" id="Path" fill="url(#linearGradient-2)"></path>
            <path d="M87.4333333,31.1343889 C87.2135556,31.1742037 86.8886667,31.2291481 86.4586667,31.2992222 C86.0281921,31.369001 85.5928155,31.4041507 85.1567222,31.4043333 C84.7567934,31.4086232 84.357219,31.3790547 83.9622778,31.3159444 C83.643507,31.2664297 83.3407805,31.1428846 83.0783889,30.9552222 C82.8309605,30.7651438 82.6394747,30.5117552 82.5241667,30.2218333 C82.3809667,29.8337993 82.3144404,29.4216604 82.3282778,29.0082778 L82.3282778,11.6243333 L83.3029444,11.4595 C83.7342211,11.3897161 84.1703918,11.3545668 84.6072778,11.3543889 C85.0032957,11.3513456 85.3988647,11.3817125 85.7897778,11.4451667 C86.1093888,11.4916256 86.4128128,11.6154554 86.6736667,11.8058889 C86.922315,11.9953153 87.1147267,12.2488363 87.2302778,12.5392778 C87.3725471,12.9275033 87.4382578,13.3396143 87.4237778,13.7528333 L87.4333333,31.1343889 Z" id="Path" fill="url(#linearGradient-3)"></path>
            <path d="M90.6917778,11.6553889 C91.0062401,11.5716685 91.3252946,11.5062623 91.6473333,11.4595 C92.0930115,11.3893414 92.5435001,11.3541074 92.9946667,11.3543889 C93.3946654,11.3508201 93.794246,11.3811882 94.1891111,11.4451667 C94.508595,11.4920916 94.8119109,11.6158773 95.073,11.8058889 C95.3194001,11.9936861 95.5067705,12.2482114 95.6128889,12.5392778 C95.7449895,12.9297579 95.8056806,13.3408386 95.7920556,13.7528333 L95.7920556,16.6887778 C96.2543181,16.5008864 96.7345987,16.3608046 97.2253889,16.2707222 C97.7155082,16.1881132 98.2118664,16.1481487 98.7088889,16.1512778 C99.6422975,16.1463639 100.568122,16.319044 101.437,16.6601111 C102.283659,17.0006679 103.052452,17.509404 103.696889,18.1555556 C104.379851,18.8414307 104.910572,19.6635607 105.254444,20.5683333 C105.653377,21.6290901 105.847913,22.755775 105.827778,23.8888889 C105.852048,25.0498112 105.653365,26.2046096 105.2425,27.2906667 C104.888568,28.2088068 104.329703,29.0340307 103.6085,29.7034444 C102.869047,30.3634689 101.996574,30.857137 101.05,31.1511111 C99.9683352,31.4917041 98.8395015,31.6586102 97.7055556,31.6456111 C96.5689815,31.6719551 95.435607,31.514654 94.3491667,31.1797778 C93.5170867,30.9141247 92.7295509,30.5251883 92.0128333,30.0259444 C91.1313333,29.4072222 90.6941667,28.6069444 90.6941667,27.6370556 L90.6917778,11.6553889 Z M97.7055556,27.6275 C98.5336869,27.6705486 99.3325758,27.3154869 99.8555556,26.6719444 C100.363593,26.0428704 100.618407,25.1088148 100.620007,23.8697778 C100.621593,22.6307407 100.358815,21.6958889 99.8316667,21.0652222 C99.3144433,20.4469795 98.5396442,20.1037029 97.7342222,20.1359444 C97.3856706,20.130038 97.0378659,20.1702002 96.6998333,20.2553889 C96.3716496,20.3482773 96.0519753,20.4689544 95.7442778,20.6161111 L95.7442778,27.1497222 C95.9914178,27.3006108 96.2583462,27.416387 96.5373889,27.4937222 C96.918537,27.5930929 97.3118102,27.6381303 97.7055556,27.6275 L97.7055556,27.6275 Z" id="Shape" fill="url(#linearGradient-4)"></path>
            <path d="M108.312222,16.8106111 C108.626012,16.7274206 108.945343,16.6667478 109.267778,16.6290556 C109.709547,16.5689446 110.15494,16.5394114 110.600778,16.5406667 C111.000703,16.5364794 111.400269,16.5660473 111.795222,16.6290556 C112.114431,16.6769852 112.417516,16.8006766 112.679111,16.9897778 C112.92654,17.1798562 113.118025,17.4332448 113.233333,17.7231667 C113.376533,18.1112007 113.44306,18.5233396 113.429222,18.9367222 L113.429222,25.3867222 C113.429222,26.2061111 113.6275,26.789 114.028833,27.1377778 C114.430167,27.4865556 115.005889,27.6633333 115.765556,27.6633333 C116.144183,27.6719726 116.522347,27.6318278 116.890722,27.5438889 C117.122495,27.4862996 117.348114,27.4062929 117.564389,27.305 L117.564389,16.8106111 C117.874264,16.7279748 118.189584,16.6673056 118.508,16.6290556 C118.949769,16.5689446 119.395162,16.5394114 119.841,16.5406667 C120.240926,16.5364794 120.640491,16.5660473 121.035444,16.6290556 C121.35453,16.6774327 121.657513,16.8010825 121.919333,16.9897778 C122.16609,17.1805214 122.357424,17.4337092 122.473556,17.7231667 C122.615825,18.1113922 122.681536,18.5235032 122.667056,18.9367222 L122.667056,28.0479444 C122.707888,28.9747993 122.221391,29.8451301 121.4105,30.2958889 C120.636739,30.7655407 119.790897,31.1045232 118.906944,31.2992222 C117.870433,31.5368015 116.80981,31.6530451 115.746444,31.6456111 C114.730549,31.6596448 113.717138,31.5416008 112.731667,31.2944444 C111.882841,31.0831441 111.084037,30.7064721 110.381,30.186 C109.716597,29.680985 109.190669,29.0161794 108.852111,28.2533889 C108.46867,27.3476021 108.284543,26.3699365 108.312222,25.3867222 L108.312222,16.8106111 Z" id="Path" fill="url(#linearGradient-5)"></path>
            <path d="M130.937389,31.1343889 C130.717611,31.175 130.392722,31.2299444 129.965111,31.2992222 C129.533834,31.3690061 129.097664,31.4041554 128.660778,31.4043333 C128.260852,31.4085206 127.861286,31.3789527 127.466333,31.3159444 C127.147563,31.2664297 126.844836,31.1428846 126.582444,30.9552222 C126.335016,30.7651438 126.14353,30.5117552 126.028222,30.2218333 C125.885953,29.8336078 125.820242,29.4214968 125.834722,29.0082778 L125.834722,11.6243333 L126.807,11.4595 C127.238277,11.3897161 127.674447,11.3545668 128.111333,11.3543889 C128.511329,11.3509117 128.910902,11.3812793 129.305778,11.4451667 C129.625136,11.4925518 129.928346,11.6162941 130.189667,11.8058889 C130.436926,11.9961352 130.628373,12.2494729 130.743889,12.5392778 C130.886158,12.9275033 130.951869,13.3396143 130.937389,13.7528333 L130.937389,31.1343889 Z" id="Path" fill="url(#linearGradient-6)"></path>
            <path d="M34.2065,41.8557222 C34.0247955,41.6505361 33.8646927,41.4271926 33.7287222,41.1892222 C31.9466111,37.1926111 29.5242778,33.5447778 27.3384444,29.7822778 C26.918,29.0656111 25.7928333,28.2916111 26.4330556,27.5247778 C26.7340556,27.1640556 27.7182778,28.3417778 28.4015,28.8076111 C29.6102778,29.6365556 30.7067778,30.6446667 32.1162222,31.2920556 C32.2691111,30.5323889 31.8343333,30.2075 31.5691667,29.8587222 C26.8296111,23.4326111 22.4173333,16.7938889 17.7781111,10.3128333 C15.7666667,7.49155556 14.2783889,4.23311111 11.3543889,2.08072222 C11.8584444,1.22072222 12.9812222,1.10127778 13.5043889,0.289055556 C13.7432778,0.289055556 13.9630556,0.253222222 14.0729444,0 C13.846,0.0286666667 13.5951667,0.0262777778 13.4972222,0.284277778 C9.87327778,0.876722222 6.11555556,1.10605556 3.29905556,3.94405556 C2.40083333,4.84944444 1.03916667,4.56755556 0,5.1385 L0,5.42277778 C0.360722222,5.54461111 0.716666667,5.67361111 1.08216667,5.78827778 C4.90438889,6.99944444 5.80977778,8.90816667 4.23072222,12.4986667 C3.22336722,14.6336388 3.28806985,17.1198151 4.40511111,19.1995 C5.30391787,20.9316003 6.4951721,22.4954245 7.92633333,23.822 C12.0256667,27.6872222 17.0041111,29.4717222 22.6203889,29.5553333 C23.4660556,29.5696667 23.8936667,29.8539444 24.2543889,30.5825556 C25.5396111,33.1792778 26.8821667,35.7497222 28.2223333,38.3106111 C28.6595,39.1443333 29.2017778,39.9278889 29.9925,38.2508889 C30.7784444,40.3507222 32.0803889,41.7697222 33.6331667,42.9832778 C34.7726667,43.0836111 33.97,42.2116667 34.2065,41.8557222 Z M27.1998889,26.0603889 L27.1688333,26.0603889 L27.1688333,26.0173889 L27.1998889,26.0603889 Z" id="Shape" fill="url(#linearGradient-7)"></path>
        </g>
    </g>
</svg>