<?xml version="1.0" encoding="UTF-8" standalone="no"?>
<svg
   xmlns:dc="http://purl.org/dc/elements/1.1/"
   xmlns:cc="http://creativecommons.org/ns#"
   xmlns:rdf="http://www.w3.org/1999/02/22-rdf-syntax-ns#"
   xmlns:svg="http://www.w3.org/2000/svg"
   xmlns="http://www.w3.org/2000/svg"
   xmlns:sodipodi="http://sodipodi.sourceforge.net/DTD/sodipodi-0.dtd"
   xmlns:inkscape="http://www.inkscape.org/namespaces/inkscape"
   version="1.1"
   id="svg2"
   xml:space="preserve"
   width="607.08002"
   height="193.8"
   viewBox="0 0 607.08002 193.8"
   sodipodi:docname="burq-logo.ai"><metadata
     id="metadata8"><rdf:RDF><cc:Work
         rdf:about=""><dc:format>image/svg+xml</dc:format><dc:type
           rdf:resource="http://purl.org/dc/dcmitype/StillImage" /></cc:Work></rdf:RDF></metadata><defs
     id="defs6"><clipPath
       clipPathUnits="userSpaceOnUse"
       id="clipPath18"><path
         d="M 0,145.35 H 455.31 V 0 H 0 Z"
         id="path16" /></clipPath></defs><sodipodi:namedview
     pagecolor="#ffffff"
     bordercolor="#666666"
     borderopacity="1"
     objecttolerance="10"
     gridtolerance="10"
     guidetolerance="10"
     inkscape:pageopacity="0"
     inkscape:pageshadow="2"
     inkscape:window-width="640"
     inkscape:window-height="480"
     id="namedview4" /><g
     id="g10"
     inkscape:groupmode="layer"
     inkscape:label="burq-logo"
     transform="matrix(1.3333333,0,0,-1.3333333,0,193.8)"><g
       id="g12"><g
         id="g14"
         clip-path="url(#clipPath18)"><g
           id="g20"
           transform="translate(433.15,65.72)"><path
             d="m 0,0 c 0.101,6.738 -2.622,13.211 -7.51,17.85 -4.834,4.819 -11.416,7.471 -18.24,7.35 -6.85,0.115 -13.457,-2.535 -18.33,-7.35 -9.864,-9.463 -10.189,-25.131 -0.725,-34.994 10e-4,-0.002 0.003,-0.004 0.005,-0.006 0.24,-0.253 0.48,-0.493 0.72,-0.72 4.873,-4.815 11.48,-7.465 18.33,-7.35 6.822,-0.128 13.404,2.517 18.24,7.33 C -2.613,-13.241 0.111,-6.752 0,0 m 0,-39.6 -2.06,-1.16 c -7.229,-4.069 -15.395,-6.182 -23.69,-6.13 -13.29,0 -24.75,4.33 -34.21,13.52 -9.46,9.19 -13.9,20.39 -13.9,33.38 0,12.99 4.45,24.19 13.9,33.38 9.45,9.19 20.93,13.53 34.21,13.53 13.28,0 24.62,-4.42 34,-13.61 9.097,-8.656 14.14,-20.735 13.9,-33.29 V -65.72 H 0 Z"
             style="fill:#2e66ed;fill-opacity:1;fill-rule:evenodd;stroke:none"
             id="path22" /></g><g
           id="g24"
           transform="translate(345.21,90.93)"><path
             d="m 0,0 c -6.217,-0.32 -12.098,-2.919 -16.52,-7.3 -4.938,-4.592 -7.702,-11.058 -7.61,-17.8 V -69.39 H -46.3 v 44.29 c -0.234,12.556 4.852,24.626 14,33.23 8.6,8.513 20.161,13.368 32.26,13.55 H 0.43 V 0.02 Z"
             style="fill:#2e66ed;fill-opacity:1;fill-rule:evenodd;stroke:none"
             id="path26" /></g><g
           id="g28"
           transform="translate(284.9,112.62)"><path
             d="m 0,0 v -46.9 c 0,-13 -4.47,-24.24 -13.91,-33.48 -9.44,-9.24 -20.9,-13.61 -34.21,-13.61 -13.31,0 -24.69,4.49 -34.11,13.7 -9.136,8.679 -14.214,20.791 -14,33.39 V 0 h 22.17 v -46.9 c -0.087,-6.768 2.645,-13.266 7.54,-17.94 4.831,-4.878 11.446,-7.57 18.31,-7.45 6.884,-0.107 13.517,2.577 18.39,7.44 4.964,4.659 7.737,11.193 7.64,18 l 0,46.85 z"
             style="fill:#2e66ed;fill-opacity:1;fill-rule:evenodd;stroke:none"
             id="path30" /></g><g
           id="g32"
           transform="translate(122.94,115.67)"><path
             d="m 0,0 c 28.31,0 51.26,-22.46 51.26,-50.17 0,-27.71 -22.95,-50.16 -51.26,-50.16 h -63.82 c -5.545,0 -10.04,4.495 -10.04,10.04 0,5.545 4.495,10.04 10.04,10.04 h 14.81 l 0.18,0.06 h 0.14 l 0.18,0.06 0.16,0.06 0.15,0.06 0.16,0.07 0.16,0.08 0.15,0.07 0.34,0.18 0.15,0.1 0.16,0.1 0.16,0.11 0.15,0.1 0.14,0.11 0.14,0.1 0.14,0.11 0.14,0.12 0.13,0.13 0.13,0.13 0.27,0.27 0.12,0.13 0.12,0.13 0.09,0.11 0.11,0.14 0.1,0.14 0.1,0.14 0.1,0.14 0.1,0.15 0.07,0.11 c 0.722,1.231 1.102,2.633 1.1,4.06 -0.061,3.844 -2.741,7.148 -6.49,8 h -47.91 c -5.548,0 -10.045,4.497 -10.045,10.045 0,5.548 4.497,10.045 10.045,10.045 h 46.81 c 4.562,0 8.26,3.698 8.26,8.26 0,4.562 -3.698,8.26 -8.26,8.26 h -23.79 c -5.548,0 -10.045,4.497 -10.045,10.045 0,5.548 4.497,10.045 10.045,10.045 h 23.79 v 27.7 c 0.409,6.061 5.655,10.643 11.716,10.234 5.491,-0.371 9.863,-4.743 10.234,-10.234 V -9.01 C -20.676,-3.111 -10.456,0.03 0,0 m -93.51,-17.07 v 0 c -0.104,5.581 -4.678,10.039 -10.26,10 h -9.13 c -5.548,0 -10.045,-4.497 -10.045,-10.045 0,-5.548 4.497,-10.045 10.045,-10.045 h 9.13 c 5.618,-0.044 10.211,4.472 10.26,10.09 m 64.17,-34.32 v 0 2.9 c 0.89,15.09 13.67,27.06 29.31,27.06 16.22,0 29.37,-12.86 29.37,-28.73 0,-15.87 -13.15,-28.74 -29.37,-28.74 -15.77,0 -28.65,12.21 -29.31,27.51 m -21.9,-12.45 h 0.22 m 0.01,0 h 0.21 m 0,0 h 0.21 m 0,0 h 0.22 m 0,0 h 0.21 m 0,0 h 0.2 m -0.02,0 h 0.21 m 0.44,-0.1 v 0"
             style="fill:#2e66ed;fill-opacity:1;fill-rule:evenodd;stroke:none"
             id="path34" /></g></g></g></g></svg>
