<svg xmlns="http://www.w3.org/2000/svg" width="241" height="166" viewBox="0 0 241 166">
    <defs>
        <linearGradient id="a" x1="8.382%" x2="56.57%" y1="31.503%" y2="50%">
            <stop offset="0%" stop-color="#CFE49F"/>
            <stop offset="100%" stop-color="#A9D386"/>
        </linearGradient>
        <linearGradient id="b" x1="44.692%" x2="54.956%" y1="3.882%" y2="56.924%">
            <stop offset="0%" stop-color="#77D791"/>
            <stop offset="100%" stop-color="#4FA67E"/>
        </linearGradient>
        <linearGradient id="c" x1="4.766%" y1="41.213%" y2="60.508%">
            <stop offset="0%" stop-color="#6EAE7C"/>
            <stop offset="100%" stop-color="#0F575D"/>
        </linearGradient>
        <linearGradient id="d" x1="50%" x2="50%" y1="7.264%" y2="151.058%">
            <stop offset="0%" stop-color="#D0F6FF"/>
            <stop offset="100%" stop-color="#8BE2F7"/>
        </linearGradient>
        <linearGradient id="e" x1="50%" x2="50%" y1="7.264%" y2="151.058%">
            <stop offset="0%" stop-color="#D0F6FF"/>
            <stop offset="100%" stop-color="#8BE2F7"/>
        </linearGradient>
        <linearGradient id="f" x1="50%" x2="50%" y1="7.264%" y2="100%">
            <stop offset="0%" stop-color="#55D0FF"/>
            <stop offset="100%" stop-color="#32A2FE"/>
        </linearGradient>
        <linearGradient id="g" x1="50%" x2="50%" y1="0%" y2="100%">
            <stop offset="0%" stop-color="#FF9485"/>
            <stop offset="100%" stop-color="#FF676E"/>
        </linearGradient>
        <linearGradient id="h" x1="50%" x2="50%" y1="0%" y2="100%">
            <stop offset="0%" stop-color="#FF9485"/>
            <stop offset="100%" stop-color="#FF676E"/>
        </linearGradient>
        <linearGradient id="i" x1="50%" x2="50.356%" y1="114.015%" y2="25.902%">
            <stop offset="0%" stop-color="#2B3389"/>
            <stop offset="100%" stop-color="#444FB7"/>
        </linearGradient>
        <linearGradient id="j" x1="50%" x2="50%" y1="0%" y2="91.848%">
            <stop offset="0%" stop-color="#EAFCFF"/>
            <stop offset="100%" stop-color="#FFF"/>
        </linearGradient>
        <linearGradient id="k" x1="50%" x2="50%" y1="0%" y2="100%">
            <stop offset="0%" stop-color="#FF9485"/>
            <stop offset="100%" stop-color="#FF676E"/>
        </linearGradient>
        <linearGradient id="l" x1="50%" x2="50%" y1="0%" y2="69.62%">
            <stop offset="0%" stop-color="#4DBCFA"/>
            <stop offset="100%" stop-color="#1486DB"/>
        </linearGradient>
        <linearGradient id="m" x1="50%" x2="50%" y1="0%" y2="69.62%">
            <stop offset="0%" stop-color="#4DBCFA"/>
            <stop offset="100%" stop-color="#1486DB"/>
        </linearGradient>
        <linearGradient id="n" x1="50%" x2="50%" y1="0%" y2="100%">
            <stop offset="0%" stop-color="#4DBCFA"/>
            <stop offset="100%" stop-color="#1486DB"/>
        </linearGradient>
        <linearGradient id="o" x1="50%" y1="49.284%" y2="50.564%">
            <stop offset="0%" stop-color="#0F1752"/>
            <stop offset="100%" stop-color="#272884"/>
        </linearGradient>
        <linearGradient id="p" x1="50%" x2="50%" y1="0%" y2="100%">
            <stop offset="0%" stop-color="#052569"/>
            <stop offset="100%" stop-color="#021038"/>
        </linearGradient>
        <linearGradient id="q" x1="50%" x2="50%" y1="0%" y2="100%">
            <stop offset="0%" stop-color="#CD8E7C"/>
            <stop offset="100%" stop-color="#E6B18C"/>
        </linearGradient>
        <linearGradient id="r" x1="50%" x2="50%" y1="0%" y2="100%">
            <stop offset="0%" stop-color="#052569"/>
            <stop offset="100%" stop-color="#021038"/>
        </linearGradient>
        <linearGradient id="s" x1="50%" x2="58.474%" y1="0%" y2="89.368%">
            <stop offset="0%" stop-color="#0F1752"/>
            <stop offset="100%" stop-color="#272884"/>
        </linearGradient>
        <linearGradient id="t" x1="50%" x2="50%" y1="0%" y2="100%">
            <stop offset="0%" stop-color="#CD8E7C"/>
            <stop offset="100%" stop-color="#E6B18C"/>
        </linearGradient>
        <linearGradient id="u" x1="50%" x2="50%" y1="0%" y2="100%">
            <stop offset="0%" stop-color="#CD8E7C"/>
            <stop offset="100%" stop-color="#E6B18C"/>
        </linearGradient>
        <linearGradient id="v" x1="50%" x2="50%" y1="0%" y2="100%">
            <stop offset="0%" stop-color="#FF9485"/>
            <stop offset="100%" stop-color="#FF676E"/>
        </linearGradient>
        <linearGradient id="w" x1="50%" x2="50%" y1="0%" y2="100%">
            <stop offset="0%" stop-color="#FFF"/>
            <stop offset="100%" stop-color="#A587FF"/>
        </linearGradient>
        <linearGradient id="x" x1="50%" x2="50%" y1="0%" y2="100%">
            <stop offset="0%" stop-color="#48137B"/>
            <stop offset="100%" stop-color="#300C59"/>
        </linearGradient>
        <linearGradient id="y" x1="50%" x2="50%" y1="0%" y2="100%">
            <stop offset="0%" stop-color="#48137B"/>
            <stop offset="100%" stop-color="#300C59"/>
        </linearGradient>
    </defs>
    <g fill="none" fill-rule="nonzero">
        <path fill="url(#a)" d="M37.04 34.847c-10.476 4.697-18.85 4.637-25.125-.179C5.64 29.853 1.669 22.995 0 14.096c19.613-5.847 31.96 1.07 37.04 20.75z" transform="translate(.894 109.673)"/>
        <path fill="#FFF" d="M22.517 136.071a.2.2 0 0 1-.068-.038 3272.404 3272.404 0 0 0-7.545-4.237l-6.42 1.527a.211.211 0 1 1-.098-.411l5.974-1.421a6180.312 6180.312 0 0 0-11.52-6.431.211.211 0 1 1 .207-.37 4741.524 4741.524 0 0 1 19.292 10.795l-.664-6.488c-.029-.28.393-.324.422-.043l.694 6.786c6.863 3.868 11.376 6.457 13.54 7.767.1.06.132.19.071.29a.212.212 0 0 1-.291.071c-1.295-.784-3.434-2.028-6.418-3.73a.214.214 0 0 1-.024.01l-5.868 2.136a.211.211 0 1 1-.145-.397l5.558-2.023c-1.907-1.087-4.14-2.352-6.697-3.793z"/>
        <path fill="url(#b)" d="M34.75 40.782c-10.738-4.063-16.618-10.009-17.639-17.837C16.091 15.117 18.146 7.47 23.28 0c18.016 9.69 21.84 23.284 11.472 40.782z" transform="translate(.894 109.673)"/>
        <path fill="#FFF" d="M31.165 133.573c2.109 7.572 3.464 12.584 4.065 15.036a.212.212 0 0 1-.412.1c-.36-1.467-.99-3.854-1.892-7.162a.215.215 0 0 1-.025-.01l-5.664-2.625a.211.211 0 1 1 .178-.383l5.366 2.487c-.577-2.113-1.259-4.58-2.045-7.402a.198.198 0 0 1-.02-.075c-.696-2.495-1.473-5.267-2.33-8.314l-5.624-3.446a.211.211 0 0 1-.07-.291c.062-.1.192-.13.292-.07l5.233 3.207a6140.369 6140.369 0 0 0-3.584-12.667.212.212 0 0 1 .408-.115 4710.875 4710.875 0 0 1 5.985 21.231l4.133-5.056c.178-.219.507.048.328.267l-4.322 5.288z"/>
        <path fill="url(#c)" d="M45.415 48.052c-8.899 7.24-17.004 9.343-24.315 6.31C13.789 51.33 8.172 45.73 4.25 37.565c17.426-10.708 31.148-7.212 41.165 10.487z" transform="translate(.894 109.673)"/>
        <path fill="#FFF" d="M29.403 153.151c7.633 1.966 12.665 3.302 15.095 4.009a.211.211 0 1 1-.119.406c-1.454-.423-3.843-1.073-7.167-1.948a.214.214 0 0 1-.021.017l-5.114 3.577a.212.212 0 0 1-.295-.052.211.211 0 0 1 .052-.294l4.843-3.389c-2.124-.558-4.608-1.203-7.453-1.935a.2.2 0 0 1-.075-.02c-2.516-.647-5.312-1.363-8.388-2.146l-5.806 3.132a.211.211 0 1 1-.202-.372l5.403-2.914c-3.84-.977-8.105-2.056-12.797-3.24a.211.211 0 1 1 .104-.41c8.567 2.16 15.712 3.977 21.437 5.45l-2.326-6.096c-.1-.264.296-.414.396-.15l2.433 6.375z"/>
        <g>
            <path fill="url(#d)" d="M150.752 27.915h69.987V95.42h-69.987z" transform="translate(10.436 .6)"/>
            <path fill="url(#e)" d="M0 0h81.15c0 22.415-18.166 40.585-40.575 40.585C18.166 40.585 0 22.415 0 0z" transform="translate(10.436 .6)"/>
            <path fill="#8BE1F7" d="M15.412 105.729c0 .504-.41.913-.916.913a.915.915 0 0 1-.916-.913c0-.505.41-.914.916-.914s.916.41.916.914zm0-5.37c0 .504-.41.913-.916.913a.915.915 0 0 1-.916-.913c0-.505.41-.914.916-.914s.916.41.916.914zm0-5.37c0 .504-.41.913-.916.913a.915.915 0 0 1-.916-.913c0-.505.41-.914.916-.914s.916.41.916.914zm0-5.37c0 .504-.41.913-.916.913a.915.915 0 0 1-.916-.913c0-.505.41-.914.916-.914s.916.41.916.914zm0-5.37c0 .504-.41.913-.916.913a.915.915 0 0 1-.916-.913c0-.505.41-.914.916-.914s.916.41.916.914zm0-5.37c0 .505-.41.914-.916.914a.915.915 0 0 1-.916-.914c0-.505.41-.914.916-.914s.916.41.916.914zm5.385 26.85c0 .504-.41.913-.916.913a.915.915 0 0 1-.916-.913c0-.505.41-.914.916-.914s.916.41.916.914zm0-5.37c0 .504-.41.913-.916.913a.915.915 0 0 1-.916-.913c0-.505.41-.914.916-.914s.916.41.916.914zm0-5.37c0 .504-.41.913-.916.913a.915.915 0 0 1-.916-.913c0-.505.41-.914.916-.914s.916.41.916.914zm0-5.37c0 .504-.41.913-.916.913a.915.915 0 0 1-.916-.913c0-.505.41-.914.916-.914s.916.41.916.914zm0-5.37c0 .504-.41.913-.916.913a.915.915 0 0 1-.916-.913c0-.505.41-.914.916-.914s.916.41.916.914zm0-5.37c0 .505-.41.914-.916.914a.915.915 0 0 1-.916-.914c0-.505.41-.914.916-.914s.916.41.916.914zm5.385 26.85c0 .504-.41.913-.916.913a.915.915 0 0 1-.916-.913c0-.505.41-.914.916-.914s.916.41.916.914zm0-5.37c0 .504-.41.913-.916.913a.915.915 0 0 1-.916-.913c0-.505.41-.914.916-.914s.916.41.916.914zm0-5.37c0 .504-.41.913-.916.913a.915.915 0 0 1-.916-.913c0-.505.41-.914.916-.914s.916.41.916.914zm0-5.37c0 .504-.41.913-.916.913a.915.915 0 0 1-.916-.913c0-.505.41-.914.916-.914s.916.41.916.914zm0-5.37c0 .504-.41.913-.916.913a.915.915 0 0 1-.916-.913c0-.505.41-.914.916-.914s.916.41.916.914zm0-5.37c0 .505-.41.914-.916.914a.915.915 0 0 1-.916-.914c0-.505.41-.914.916-.914s.916.41.916.914zm5.385 26.85c0 .504-.41.913-.916.913a.915.915 0 0 1-.916-.913c0-.505.41-.914.916-.914s.916.41.916.914zm0-5.37c0 .504-.41.913-.916.913a.915.915 0 0 1-.916-.913c0-.505.41-.914.916-.914s.916.41.916.914zm0-5.37c0 .504-.41.913-.916.913a.915.915 0 0 1-.916-.913c0-.505.41-.914.916-.914s.916.41.916.914zm0-5.37c0 .504-.41.913-.916.913a.915.915 0 0 1-.916-.913c0-.505.41-.914.916-.914s.916.41.916.914zm0-5.37c0 .504-.41.913-.916.913a.915.915 0 0 1-.916-.913c0-.505.41-.914.916-.914s.916.41.916.914zm0-5.37c0 .505-.41.914-.916.914a.915.915 0 0 1-.916-.914c0-.505.41-.914.916-.914s.916.41.916.914zm5.386 26.85c0 .504-.41.913-.917.913a.915.915 0 0 1-.916-.913c0-.505.41-.914.916-.914s.917.41.917.914zm0-5.37c0 .504-.41.913-.917.913a.915.915 0 0 1-.916-.913c0-.505.41-.914.916-.914s.917.41.917.914zm0-5.37c0 .504-.41.913-.917.913a.915.915 0 0 1-.916-.913c0-.505.41-.914.916-.914s.917.41.917.914zm0-5.37c0 .504-.41.913-.917.913a.915.915 0 0 1-.916-.913c0-.505.41-.914.916-.914s.917.41.917.914zm0-5.37c0 .504-.41.913-.917.913a.915.915 0 0 1-.916-.913c0-.505.41-.914.916-.914s.917.41.917.914zm0-5.37c0 .505-.41.914-.917.914a.915.915 0 0 1-.916-.914c0-.505.41-.914.916-.914s.917.41.917.914zm5.385 26.85c0 .504-.41.913-.916.913a.915.915 0 0 1-.916-.913c0-.505.41-.914.916-.914s.916.41.916.914zm0-5.37c0 .504-.41.913-.916.913a.915.915 0 0 1-.916-.913c0-.505.41-.914.916-.914s.916.41.916.914zm0-5.37c0 .504-.41.913-.916.913a.915.915 0 0 1-.916-.913c0-.505.41-.914.916-.914s.916.41.916.914zm0-5.37c0 .504-.41.913-.916.913a.915.915 0 0 1-.916-.913c0-.505.41-.914.916-.914s.916.41.916.914zm0-5.37c0 .504-.41.913-.916.913a.915.915 0 0 1-.916-.913c0-.505.41-.914.916-.914s.916.41.916.914zm0-5.37c0 .505-.41.914-.916.914a.915.915 0 0 1-.916-.914c0-.505.41-.914.916-.914s.916.41.916.914z"/>
            <path fill="url(#f)" d="M51.152 124.08c-22.63 0-40.974 18.293-40.974 40.859H64.2L51.152 124.08z" transform="translate(10.436 .6)"/>
        </g>
        <g>
            <path fill="url(#g)" d="M50.679 0h30.535c5.856 0 10.603 4.732 10.603 10.57v12.26H61.28c-5.855 0-10.602-4.733-10.602-10.57V0z" transform="translate(125.789 12.015)"/>
            <path fill="#FFF" d="M187.91 24.962a2.033 2.033 0 0 1-2.036-2.03c0-1.121.911-2.03 2.036-2.03 1.124 0 2.036.909 2.036 2.03 0 1.122-.912 2.03-2.036 2.03zm9.162 0a2.033 2.033 0 0 1-2.036-2.03c0-1.121.911-2.03 2.036-2.03 1.124 0 2.036.909 2.036 2.03 0 1.122-.912 2.03-2.036 2.03zm9.161 0a2.033 2.033 0 0 1-2.035-2.03c0-1.121.911-2.03 2.035-2.03 1.125 0 2.036.909 2.036 2.03 0 1.122-.911 2.03-2.036 2.03z"/>
            <path fill="url(#h)" d="M83.758 36.569h22.058c4.684 0 8.482 3.785 8.482 8.455v8.493H92.24c-4.684 0-8.482-3.786-8.482-8.456V36.57z" transform="translate(125.789 12.015)"/>
            <path fill="#FFF" d="M162.97 126.3c-20.428 0-36.986-16.512-36.986-36.878 0-20.367 16.558-36.879 36.985-36.879s36.986 16.512 36.986 36.879c0 20.366-16.559 36.878-36.986 36.878zm0-16.91c11.056 0 20.02-8.94 20.02-19.968 0-11.029-8.964-19.968-20.02-19.968-11.058 0-20.023 8.94-20.023 19.968s8.965 19.967 20.022 19.967zM217.817 58.096c-.82 0-1.485-.663-1.485-1.48s.665-1.48 1.485-1.48c.82 0 1.484.663 1.484 1.48s-.665 1.48-1.484 1.48zm6.997 0c-.82 0-1.484-.663-1.484-1.48s.664-1.48 1.484-1.48 1.485.663 1.485 1.48-.665 1.48-1.485 1.48zm6.998 0c-.82 0-1.485-.663-1.485-1.48s.665-1.48 1.485-1.48c.82 0 1.484.663 1.484 1.48s-.665 1.48-1.484 1.48z"/>
        </g>
        <g>
            <path fill="url(#i)" d="M7.634 0h86.53c4.217 0 7.635 3.407 7.635 7.61v149.735c0 4.202-3.418 7.61-7.634 7.61H7.634c-4.216 0-7.634-3.408-7.634-7.61V7.61C0 3.407 3.418 0 7.634 0z" transform="translate(61.17 .6)"/>
            <path fill="url(#j)" d="M97.558 147.19H4.24V10.151h93.317V147.19zm-7.634 17.764h-78.05 78.05z" transform="translate(61.17 .6)"/>
            <path fill="#8FC8F0" d="M145.663 18.364c.563 0 1.018.455 1.018 1.015v3.046c0 .56-.455 1.015-1.018 1.015h-15.779a1.016 1.016 0 0 1-1.017-1.015V19.38c0-.56.455-1.015 1.017-1.015h15.78zm7.635 10.151c.563 0 1.018.455 1.018 1.015v3.046c0 .56-.455 1.015-1.018 1.015h-23.414a1.016 1.016 0 0 1-1.017-1.015V29.53c0-.56.455-1.015 1.017-1.015h23.414z"/>
            <path fill="url(#k)" d="M10.292 17.756H57.46c.562 0 1.018.454 1.018 1.015V52.27c0 .56-.456 1.015-1.018 1.015H10.292a1.016 1.016 0 0 1-1.018-1.015v-33.5c0-.56.456-1.014 1.018-1.014z" transform="translate(61.17 .6)"/>
            <path fill="#FFF" d="M98.768 28.93l.06-.85h-.847a2.966 2.966 0 0 1-2.939 2.536 2.966 2.966 0 0 1-2.939-2.536h-.884l-.017 1.107a9.921 9.921 0 0 1-1.673 5.363v9.172c0 .233.19.423.424.423h10.178c.234 0 .424-.19.424-.423v-9.149a8.038 8.038 0 0 1-1.787-5.643zm2.635 5.491v9.3c0 .701-.57 1.269-1.272 1.269H89.953a1.27 1.27 0 0 1-1.272-1.268V34.42c0-.085.026-.169.074-.24a9.078 9.078 0 0 0 1.599-5.007l.023-1.524a.423.423 0 0 1 .424-.416h1.696c.235 0 .425.19.425.423 0 1.167.949 2.114 2.12 2.114 1.171 0 2.12-.947 2.12-2.114 0-.234.19-.423.425-.423h1.696c.246 0 .44.208.423.452l-.092 1.303a7.195 7.195 0 0 0 1.69 5.16c.064.075.1.172.1.272z"/>
            <path fill="url(#l)" d="M10.292 63.414H57.46c.562 0 1.018.455 1.018 1.015v33.5c0 .56-.456 1.014-1.018 1.014H10.292a1.016 1.016 0 0 1-1.018-1.015V64.43c0-.56.456-1.015 1.018-1.015z" transform="translate(61.17 .6)"/>
            <path fill="#FFF" d="M99.495 75.8c.2.099.376.252.504.453l.66 1.036c.391.614.438 1.386.124 2.043l-1.11 2.325a4.637 4.637 0 0 0-.182 3.564l1.307 3.65a1.267 1.267 0 0 1-1.198 1.695h-8.904a1.27 1.27 0 0 1-1.198-1.695l1.307-3.65a4.637 4.637 0 0 0-.181-3.564l-1.111-2.325a2.108 2.108 0 0 1 .124-2.043l.66-1.036c.172-.27.43-.453.716-.537v-2.19a.423.423 0 0 1 .848 0v2.237c.064.026.127.059.188.097l3.099 1.946 3.099-1.946c.127-.08.262-.134.4-.165v-2.169a.423.423 0 0 1 .848 0V75.8zm.523 3.168c.188-.394.16-.857-.075-1.225l-.66-1.036a.425.425 0 0 0-.584-.132l-3.325 2.088a.425.425 0 0 1-.452 0l-3.325-2.088a.425.425 0 0 0-.584.132l-.66 1.036a1.265 1.265 0 0 0-.075 1.225l1.112 2.326a5.48 5.48 0 0 1 .214 4.212l-1.308 3.649a.422.422 0 0 0 .4.565H99.6a.422.422 0 0 0 .4-.565l-1.308-3.65a5.48 5.48 0 0 1 .214-4.211l1.112-2.326z"/>
            <path fill="url(#m)" d="M10.349 109.124h47.167c.562 0 1.018.454 1.018 1.014v28.424c0 .56-.456 1.015-1.018 1.015H10.35a1.016 1.016 0 0 1-1.018-1.015v-28.424c0-.56.456-1.014 1.018-1.014z" transform="translate(61.17 .6)"/>
            <path fill="#FFF" d="M101.273 130.76l2.015-.669-.816-10.573c-.777-1.392-2.313-2.14-4.28-2.227a2.966 2.966 0 0 1-2.938 2.528 2.966 2.966 0 0 1-2.937-2.528c-1.988.086-3.539.834-4.28 2.223l-.817 10.577 2.014.67.82-2.728a4.636 4.636 0 0 0 .127-2.136l-.683-3.891a.424.424 0 1 1 .836-.146l.682 3.892a5.48 5.48 0 0 1-.15 2.524l-1.106 3.682a.422.422 0 0 0 .406.544h10.175a.425.425 0 0 0 .407-.544l-1.107-3.682a5.48 5.48 0 0 1-.15-2.524l.683-3.892a.424.424 0 0 1 .835.146l-.682 3.891a4.636 4.636 0 0 0 .126 2.136l.82 2.728zm.244.811l.043.144a1.268 1.268 0 0 1-1.219 1.632H90.166a1.27 1.27 0 0 1-1.219-1.632l.043-.144-2.352-.782a.423.423 0 0 1-.289-.433l.849-10.992a.422.422 0 0 1 .044-.158c.938-1.857 2.967-2.77 5.468-2.77.234 0 .424.19.424.424 0 1.167.949 2.113 2.12 2.113 1.171 0 2.12-.946 2.12-2.113 0-.234.19-.423.425-.423 2.477 0 4.484.912 5.464 2.762a.422.422 0 0 1 .048.165l.848 10.992a.423.423 0 0 1-.289.433l-2.353.782z"/>
            <path fill="#8FC8F0" d="M145.663 64.044c.563 0 1.018.454 1.018 1.015v3.046c0 .56-.455 1.014-1.018 1.014h-15.779a1.016 1.016 0 0 1-1.017-1.014v-3.046c0-.56.455-1.015 1.017-1.015h15.78zm7.635 10.151c.563 0 1.018.454 1.018 1.015v3.046c0 .56-.455 1.015-1.018 1.015h-23.414a1.016 1.016 0 0 1-1.017-1.015V75.21c0-.56.455-1.015 1.017-1.015h23.414z"/>
            <path fill="#8FC8F0" d="M153.807 38.666c.281 0 .51.228.51.508v1.523c0 .28-.229.507-.51.507h-24.432a.508.508 0 0 1-.508-.507v-1.523c0-.28.227-.508.508-.508h24.432zm0 7.614c.281 0 .51.227.51.507v1.523c0 .28-.229.507-.51.507h-24.432a.508.508 0 0 1-.508-.507v-1.523c0-.28.227-.507.508-.507h24.432zM153.807 84.346c.281 0 .51.227.51.507v1.523c0 .28-.229.508-.51.508h-24.432a.508.508 0 0 1-.508-.508v-1.523c0-.28.227-.507.508-.507h24.432z" opacity=".5"/>
        </g>
        <g transform="translate(112.833 89.422)">
            <path fill="url(#n)" d="M2.545 0h122.159a2.54 2.54 0 0 1 2.544 2.537v71.06a2.54 2.54 0 0 1-2.544 2.536H2.544A2.54 2.54 0 0 1 0 73.596V2.536A2.54 2.54 0 0 1 2.545 0z"/>
            <path fill="url(#o)" d="M0 12.689h127.248v15.226H0z"/>
            <path fill="#FFF" d="M10.18 49.486h20.36v5.076H10.18v-5.076zm0 11.42h15.27v5.076H10.18v-5.076zm25.45-11.42h25.45v5.076H35.63v-5.076zm-5.09 11.42h17.814v5.076H30.54v-5.076z" opacity=".5"/>
            <ellipse cx="96.963" cy="58.115" fill="#23257B" rx="8.653" ry="8.628"/>
            <ellipse cx="105.616" cy="58.115" fill="#FFF" opacity=".5" rx="8.653" ry="8.628"/>
        </g>
        <g>
            <path fill="#FF686E" d="M40.795 61.66l-3.282 9.97-5.225 12.504 2.49 3.276-1.562 5.338-5.022-5.025a6.327 6.327 0 0 1-1.227-7.223l7.086-14.693 6.742-4.147z"/>
            <path fill="url(#p)" d="M27.547 118.421c1.11-.329 2.39-.395 3.838-.2 2.172.295 4.657.798 3.887 2.025-.77 1.226-4.303 1.278-6.054 1.01-1.75-.267-1.954-.113-3.622 0-1.669.114-1.963.01-1.963-.935v-2.635c0-.521.079-.975 1.296-.533.81.294 1.684.717 2.618 1.268z" transform="translate(26.34 44.226)"/>
            <path fill="url(#q)" d="M23.641 112.875h4.586v4.713l2.69.579a7.876 7.876 0 0 1-6.176.194l-1.1-.43v-5.056z" transform="translate(26.34 44.226)"/>
            <path fill="url(#r)" d="M14.188 118.421c1.11-.329 2.39-.395 3.838-.2 2.172.295 4.657.798 3.887 2.025-.77 1.226-4.303 1.278-6.054 1.01-1.75-.267-1.954-.113-3.622 0-1.669.114-1.962.01-1.962-.935v-2.635c0-.521.078-.975 1.295-.533.811.294 1.684.717 2.618 1.268z" transform="translate(26.34 44.226)"/>
            <path fill="url(#q)" d="M10.282 112.875h4.586v4.713l2.69.579a7.876 7.876 0 0 1-6.176.194l-1.1-.43v-5.056z" transform="translate(26.34 44.226)"/>
            <path fill="#0C1452" d="M41.89 159.877h-5.965l-2.66-61.127 15.023.37z"/>
            <path fill="url(#s)" d="M29.165 115.582h-6.308l-1.808-32.479L6.91 54.602l20.331.334 4.265 20.959c.48 2.361.621 4.78.418 7.18l-2.759 32.507z" transform="translate(26.34 44.226)"/>
            <path fill="url(#t)" d="M20.195 18.571l-5.65-1.343.504-2.367c-1.424-2.493-1.424-5.606 0-9.338 1.424-3.731 4.831-3.815 10.222-.25l.983 4.603c-.948.326-1.423.963-1.423 1.908 0 1.419-1.105 1.943-2.429 2.243-.882.2-1.617 1.714-2.207 4.544z" transform="translate(26.34 44.226)"/>
            <path fill="url(#u)" d="M30.264 21.524l14.582.843L61.613 9.435l-2.58 3.887c.334 1.224.194 2.218-.42 2.98-.613.76-1.367 1.108-2.263 1.04l-8.682 9.537a4.247 4.247 0 0 1-3.218 1.385l-13.386-.243-.8-6.497z" transform="translate(26.34 44.226)"/>
            <path fill="url(#v)" d="M18.256 16.954c1.918 0 10.678 1.731 26.28 5.194l7.688-6.026 2.738 3.293-6.112 7.333a6.37 6.37 0 0 1-4.893 2.288h-16.3c.483.834.724 2.15.724 3.946 0 1.796-.745 3.273-2.233 4.431l1.107 17.561H6.557V25.832c0-4.903 3.988-8.878 8.906-8.878h2.793z" transform="translate(26.34 44.226)"/>
            <path fill="url(#w)" d="M18.247 56.304l.2-.073.517 1.387-.199.073-.518-1.387zm1.257 3.368l.199-.073.517 1.387-.198.073-.518-1.387zm1.257 3.368l.199-.073.517 1.387-.199.073-.517-1.387zm1.257 3.368l.199-.073.517 1.387-.199.073-.517-1.387zm1.257 3.368l.198-.073.518 1.387-.199.073-.517-1.387zm1.256 3.368l.199-.073.518 1.387-.2.073-.517-1.387zm1.256 3.368l.2-.072c.168.467.32.94.455 1.417l-.204.057c-.134-.472-.285-.94-.451-1.402zm.923 3.456l.209-.037c.086.488.156.979.208 1.472l-.21.022a20.97 20.97 0 0 0-.207-1.457zm.323 3.56h.212c0 .229-.002.458-.008.687l-.022.798-.212-.006.022-.798c.006-.227.009-.454.008-.68zm-.088 3.592l.211.006-.04 1.48-.212-.006.04-1.48zm-.1 3.593l.212.005-.04 1.48-.212-.006.04-1.48zm-.099 3.592l.212.006-.04 1.479-.213-.006.041-1.48zm-.099 3.592l.212.006-.04 1.479-.213-.006.041-1.48zm-.1 3.592l.213.006-.041 1.479-.212-.006.04-1.479zm-.098 3.592l.212.006-.041 1.479-.212-.006.04-1.479zm-.1 3.592l.213.006-.041 1.48-.212-.007.04-1.479zm-.099 3.592l.212.006-.04 1.48-.212-.007.04-1.479z" transform="translate(26.34 44.226)"/>
            <path fill="url(#x)" d="M13.07 12.933c1.29 1.947 2.542 2.407 3.76 1.381 1.825-1.538 1.34-2.667.445-3.011-.896-.344-1.079-2.19 0-2.471 1.079-.28 1.743 1.196 2.05 0 .307-1.196-.198-2.428 1.201-2.428 1.4 0 4.66.527 5.307-1.614C26.478 2.65 24.779 0 21.027 0s-7.268 1.843-8.674 5.103c-.937 2.174-.698 4.784.717 7.83z" transform="translate(26.34 44.226)"/>
            <path fill="url(#y)" d="M13.693 4.987c-1.828-.295-2.69.463-2.588 2.274.154 2.717 3.012 5.321-2.085 7.955-5.097 2.634-3.436 7.652.105 8.82C2.29 22.107-.595 18.82.473 14.178c1.6-6.965 7.35-3.024 7.55-7.906.133-3.255 2.27-4.03 6.414-2.327l-.744 1.042z" transform="translate(26.34 44.226)"/>
        </g>
    </g>
</svg>
