<svg width="24" height="24" viewBox="0 0 24 24" fill="none" xmlns="http://www.w3.org/2000/svg">
<path d="M15.1305 15.2143C14.4233 17.7857 9.5762 17.7857 8.86907 15.2143H3V20.3571C3 20.5276 3.06773 20.6912 3.18826 20.8117C3.3088 20.9323 3.47238 21 3.64285 21H20.357C20.5275 21 20.6911 20.9323 20.8116 20.8117C20.9322 20.6912 20.9999 20.5276 20.9999 20.3571V15.2143H15.1305ZM14.5711 19.0714H9.42827C9.19854 19.0714 8.98632 18.9489 8.87153 18.75C8.75673 18.5511 8.75673 18.306 8.87153 18.1072C8.98632 17.9083 9.19855 17.7857 9.42827 17.7857H14.5711C14.8008 17.7857 15.0131 17.9083 15.1278 18.1072C15.2426 18.306 15.2426 18.5511 15.1278 18.75C15.0131 18.9489 14.8008 19.0714 14.5711 19.0714ZM10.0711 14.5715C10.0711 15.5871 11.3568 15.8572 11.9997 15.8572C12.6425 15.8572 13.9282 15.5871 13.9282 14.5715C13.9282 14.401 13.996 14.2374 14.1165 14.1169C14.237 13.9963 14.4006 13.9286 14.5711 13.9286H20.8644L18.4281 3.49529C18.3942 3.35137 18.3117 3.22366 18.1946 3.13354C18.0775 3.04329 17.9329 2.99622 17.7852 3.00024H6.21384C6.06619 2.99622 5.92155 3.04329 5.80444 3.13354C5.68735 3.22366 5.60484 3.35137 5.57097 3.49529L3.1346 13.9286H9.42794C9.59841 13.9286 9.762 13.9963 9.88253 14.1169C10.0031 14.2374 10.0708 14.401 10.0708 14.5715H10.0711ZM8.14257 5.57152H15.8568C16.0865 5.57152 16.2988 5.69407 16.4136 5.89295C16.5283 6.09184 16.5283 6.33692 16.4136 6.5358C16.2988 6.73468 16.0865 6.85723 15.8568 6.85723H8.14257C7.91283 6.85723 7.70062 6.73469 7.58582 6.5358C7.47103 6.33692 7.47103 6.09183 7.58582 5.89295C7.70062 5.69407 7.91284 5.57152 8.14257 5.57152ZM7.49972 8.14294H16.4997C16.7294 8.14294 16.9416 8.26548 17.0564 8.46436C17.1712 8.66325 17.1712 8.90834 17.0564 9.10722C16.9416 9.3061 16.7294 9.42864 16.4997 9.42864H7.49972C7.26998 9.42864 7.05776 9.3061 6.94297 9.10722C6.82817 8.90833 6.82817 8.66324 6.94297 8.46436C7.05776 8.26548 7.26999 8.14294 7.49972 8.14294ZM6.21401 11.3572C6.21401 11.1867 6.28174 11.0231 6.40227 10.9026C6.52281 10.7821 6.68639 10.7143 6.85686 10.7143H17.1425C17.3722 10.7143 17.5845 10.8369 17.6993 11.0358C17.8141 11.2347 17.8141 11.4797 17.6993 11.6786C17.5845 11.8775 17.3722 12.0001 17.1425 12.0001H6.85686C6.68639 12.0001 6.52281 11.9323 6.40227 11.8118C6.28174 11.6913 6.21401 11.5277 6.21401 11.3572Z" fill="#4F4F4F"/>
</svg>
