<svg xmlns="http://www.w3.org/2000/svg" width="498" height="341" viewBox="0 0 498 341">
    <g fill="none" fill-rule="evenodd">
        <path fill="#474747" d="M122.396 308.886c-7.873-1.596-102.464-15.971-95.501-121.992C33.858 80.873 42.598 48.988 79.373 37.324c36.776-11.665 126.171-66.863 196.32-14.379 18.209 13.624 36.764 26.806 54.49 41.066 24.355 19.595 49.398 42.225 61.37 71.874a91.635 91.635 0 0 1 6.181 43.918c-1.833 17.495-4.413 34.515-9.113 51.564l-4.796 17.41c-.963 3.484-1.929 6.987-3.44 10.27-9.727 21.154-21.996 35.032-42.557 46.295-17.84 9.774-39.95 9.516-59.659 8.439-78.372-4.276-118.338 2.692-155.773-4.895" opacity=".07"/>
        <path fill="#FEFEFE" d="M264.02 313.892c.04.046.046.103.063.156.028.086.048.173.09.255.01.018.02.049.053.042.033-.007.026-.036.027-.058a1.099 1.099 0 0 0-.123-.54 1.096 1.096 0 0 1-.102-.379c-.022-.2-.072-.397-.12-.594a1.937 1.937 0 0 0-.103-.336c-.005-.012-.03-.03 0-.041.022-.007.05-.005.062.017.016.027.03.057.042.086a10.934 10.934 0 0 1 .779 2.556c.043.264.08.53.103.797.023.266.03.532.046.797.014.243-.012.483-.01.724.001.09-.006.18-.028.272l-.038-.196a.826.826 0 0 0-.089-.242c-.02-.035-.041-.071-.084-.09-.107-.047-.114-.14-.134-.227a.388.388 0 0 0-.078-.177c-.037-.045-.04-.106-.044-.162-.009-.103-.039-.206-.01-.31a.245.245 0 0 1 .032-.069c.013-.019.033-.033.058-.028.026.005.025.027.025.046-.001.042.029.064.068.069.045.006.065.028.072.064.006.034.027.056.066.05.04-.004.047-.034.048-.065a5.39 5.39 0 0 0-.026-.697 2.915 2.915 0 0 0-.073-.486.833.833 0 0 0-.326-.476.517.517 0 0 1-.194-.338l-.07-.38c-.003-.015-.003-.03.017-.04M256.953 315.726c0-.11-.003-.24.073-.269.018-.006.026-.055.025-.102 0-.053-.012-.086-.032-.107-.161-.166-.293-.428-.425-.693a.621.621 0 0 1-.054-.185c-.032-.215-.056-.434-.097-.642a.37.37 0 0 1 .04-.242c.03-.06.064-.049.097-.012a.582.582 0 0 1 .102.203.53.53 0 0 0 .112.213c.047.047.08.142.12.217.046.09.095.163.158.177.04.01.054.084.054.163 0 .146.026.259.068.358.01.02.02.046.022.072.023.286.097.523.138.792.015.101.028.191.064.274.042.096.06.24.069.378.008.13-.046.24-.129.262-.071.019-.143.032-.207-.083a.14.14 0 0 0-.081-.067c-.077-.03-.098-.074-.105-.249-.007-.146-.008-.293-.012-.458M257.626 316.686a.2.2 0 0 0 .114.025c.095-.013.026-.1.119-.116.103.083.225.16.354.234.128.075.278.152.48.172.388.04.841.134 1.237.095.223-.023.434-.078.579-.16.02-.012.041-.024.07-.032.139-.034-.004.075-.024.087-.17.111-.322.228-.47.346-.118.095-.212.231-.43.105-.024.101-.148.16-.335.192a.456.456 0 0 1-.212-.001c-.054-.017-.114-.037-.021-.068.05-.016.057-.04.038-.069-.069-.105-.077-.226-.375-.246a.276.276 0 0 0-.083.004c-.102.027.013.109-.059.152a.185.185 0 0 1-.12.012c-.039-.01-.06-.033-.047-.052.007-.011.023-.02.028-.032.006-.016-.013-.032-.031-.046a1.1 1.1 0 0 0-.528-.248c-.031-.005-.063-.008-.09-.017a.283.283 0 0 1-.056-.025c-.068-.038-.265-.113-.276-.162-.013-.058.145-.09.138-.15M252.731 313.444c-.389-.002-.583-.174-.46-.412.144-.278.484-.45.825-.62.071-.035.115-.022.127.04.036.185.08.37.055.559-.005.037-.017.074-.019.112-.011.223-.173.322-.528.32M255.142 323.95c.206.002.288.125.222.316-.077.224-.195.41-.421.467-.066.016-.128.05-.158.12-.076.177-.211.163-.335.117-.144-.053-.119-.21-.099-.333.029-.181.08-.332.27-.415.13-.058.234-.208.39-.247.053-.013.104-.027.13-.025M253.285 316.735a.576.576 0 0 1-.206.374c-.2.189-.42.355-.658.497-.051.03-.106.06-.157.022-.054-.04-.019-.1-.009-.155.076-.413.248-.743.694-.865a.3.3 0 0 1 .261.042c.042.028.075.065.075.085"/>
        <path fill="#FDFDFD" d="M253.285 312.911c0 .137-.003.228-.058.317-.155.255-.31.282-.57.09a1.115 1.115 0 0 1-.295-.294c-.094-.152-.21-.305-.042-.465a.528.528 0 0 1 .452-.16c.257.04.42.173.495.368.022.06.016.124.018.144M254.717 325c-.595-.367-.414-.67.003-.974.053-.038.148-.085.397-.075.174.007.241.047.244.083.029.308.159.618-.644.966"/>
        <path fill="#FEFEFE" d="M47.895 206.466c.001-.109-.003-.24.074-.268.017-.007.025-.056.024-.103 0-.053-.011-.086-.031-.107-.162-.166-.294-.428-.425-.692a.621.621 0 0 1-.055-.186c-.031-.214-.056-.434-.097-.641a.37.37 0 0 1 .04-.243c.03-.06.065-.049.097-.012a.582.582 0 0 1 .103.203.53.53 0 0 0 .111.213c.047.047.08.143.12.217.046.09.095.163.158.178.04.009.054.084.054.163 0 .145.026.258.069.357.008.02.019.046.02.072.024.286.098.523.139.792.015.102.029.192.065.274.041.096.06.24.068.378.008.13-.046.24-.128.262-.072.02-.144.032-.208-.083a.14.14 0 0 0-.081-.066c-.077-.03-.098-.074-.105-.25-.007-.145-.008-.293-.012-.458M49.619 207.426a.2.2 0 0 0 .114.026c.095-.013.025-.1.118-.116.104.082.226.159.354.234.13.074.28.151.482.172.387.038.84.133 1.236.094.223-.022.434-.078.579-.16.02-.012.04-.024.07-.031.139-.035-.004.074-.024.086-.17.112-.322.228-.47.346-.118.095-.212.231-.431.106-.023.1-.147.159-.335.192a.456.456 0 0 1-.212-.002c-.053-.017-.113-.037-.02-.068.05-.016.056-.04.038-.068-.069-.105-.077-.227-.375-.247a.276.276 0 0 0-.083.005c-.102.026.013.108-.059.15a.185.185 0 0 1-.12.013c-.04-.01-.06-.033-.047-.052.007-.011.023-.02.028-.032.006-.016-.013-.031-.031-.046a1.1 1.1 0 0 0-.529-.248c-.03-.004-.062-.008-.09-.016a.283.283 0 0 1-.055-.026c-.068-.038-.265-.113-.276-.162-.013-.058.144-.09.138-.15"/>
        <path fill="#FDFDFD" d="M46.71 212.589c-.595-.367-.415-.671.002-.974.054-.039.149-.086.398-.076.174.007.24.047.244.084.028.307.159.618-.644.966"/>
        <path fill="#FEFEFE" d="M10.839 235.55c.04.028.047.062.064.093.027.052.048.105.09.153.01.012.02.03.053.026.033-.005.026-.022.027-.035a.458.458 0 0 0-.123-.324.471.471 0 0 1-.102-.228c-.022-.12-.073-.238-.12-.356a.866.866 0 0 0-.103-.201c-.006-.008-.03-.019 0-.025.021-.005.049-.003.062.01.016.016.029.034.042.051.213.289.391.583.532.883a4.008 4.008 0 0 1 .35 1.13c.023.159.03.319.045.478.015.145-.011.29-.009.434a.413.413 0 0 1-.029.163c-.012-.039-.024-.078-.038-.117a.397.397 0 0 0-.088-.146.163.163 0 0 0-.084-.053c-.107-.029-.115-.085-.135-.137a.205.205 0 0 0-.077-.106c-.038-.027-.04-.064-.045-.097-.009-.062-.038-.123-.009-.186a.133.133 0 0 1 .032-.041.074.074 0 0 1 .058-.017c.025.003.024.016.024.027 0 .025.03.038.068.042.046.004.066.017.072.038.007.02.027.033.066.03.041-.002.047-.02.049-.039a1.951 1.951 0 0 0-.026-.418 1.115 1.115 0 0 0-.074-.292c-.049-.114-.155-.21-.326-.285a.322.322 0 0 1-.193-.203c-.025-.076-.048-.152-.07-.228-.004-.009-.003-.018.017-.024M3.247 172.647c-.023-.005-.049-.007-.067-.016a.302.302 0 0 0-.198-.025.178.178 0 0 1-.096-.009c-.03-.011-.06-.021-.02-.046.038-.023.012-.04-.018-.055a.961.961 0 0 0-.206-.064c-.134-.03-.267-.06-.407-.08a.601.601 0 0 0-.089-.006c-.02 0-.048-.006-.06.009-.013.018.012.03.032.038.08.032.106.081.11.137.003.038.02.061.09.047.02-.004.044-.002.066 0 .033.002.043.02.052.036.01.018-.006.034-.025.047-.023.015-.046 0-.067-.005-.071-.02-.12-.06-.18-.09-.3-.143-.626-.26-.942-.387a6.41 6.41 0 0 1-.628-.3c-.083-.044-.178-.076-.239-.139-.052-.054-.161-.074-.25-.123.088.007.153.028.222.04.22.04.442.074.665.108.165.025.306.092.455.143.451.155.89.325 1.314.51.167.072.33.146.495.22l-.009.01"/>
        <path fill="#FDFDFD" d="M1.038 172.667c-.053-.036-.129-.082-.203-.139-.228-.174-.448-.41-.667-.649-.029-.03-.076-.062-.06-.187.016-.119.057-.068.09-.049.303.172.599.414.886.73.031.034.072.04.071.166 0 .08-.036.125-.117.128"/>
        <path fill="#E5E5E5" d="M59.33 264.93c-4.875-1.107-6.672-2.412-4.339-3.948 16.227-10.682 89.272-10.357 124.704-10.345 44.567.015 90.939-.267 131.08 2.334 16.798 1.088 54.856 2.09 61.386 5.703 17.121 9.495-104.31 12.107-123.964 12.236-32.764.216-161.024.34-188.867-5.98"/>
        <path fill="#E5E5E5" d="M351.074 260.448H68.022c-7.747 0-14.05-6.309-14.05-14.063v-.844c0-.455.37-.824.825-.824h309.522c.452 0 .823.369.823.824v.826c0 7.764-6.311 14.08-14.068 14.08"/>
        <path fill="#E5E5E5" d="M338.266 247.84V91.468c0-2.83-2.225-5.147-4.944-5.147H86.002c-2.719 0-4.943 2.316-4.943 5.147V247.84h257.207"/>
        <path fill="#FFF" d="M342.496 244.603V94.279c0-2.722-2.224-4.948-4.943-4.948H90.233c-2.718 0-4.943 2.226-4.943 4.948v150.324h257.206"/>
        <path fill="#2496FF" d="M343.393 244.525v-13.072-32.012-39.968-37.523-24.103c0-1.212.045-2.434 0-3.645-.139-3.733-3.133-5.483-6.503-5.483H95.454c-4.369 0-10.8-.644-11.06 5.649-.188 4.557 0 9.162 0 13.722V244.681c0 .452.435.534.807.534h246.75c3.327 0 6.703.167 10.026 0 .143-.007.288 0 .43 0 .985 0 1.387-1.224.179-1.224H89.276c-1.096 0-2.383-.188-3.466 0-.135.023-.293 0-.43 0l.806.534V231.67v-31.383-39.721-37.29-24.653c0-1.449-.053-2.909 0-4.356.09-2.402 1.565-4.183 4.03-4.325.307-.018.62 0 .926 0H331.803c3.741 0 9.559-.995 9.797 4.521.212 4.9 0 9.856 0 14.759v135.458c0 .886 1.793.59 1.793-.156"/>
        <path fill="#FFF" d="M355.41 260.448H72.358c-7.747 0-14.05-6.309-14.05-14.063v-.844c0-.455.37-.824.825-.824h309.523c.452 0 .823.369.823.824v.826c0 7.764-6.314 14.08-14.07 14.08"/>
        <path fill="#2496FF" d="M355.871 259.84H74.715c-1.83 0-3.603.026-5.399-.494-5.025-1.457-8.826-5.844-9.667-10.993-.072-.437.103-2.713-.186-2.99.002.003-.924.012-.759-.039.076-.023.192.003.27 0 3.654-.113 7.328 0 10.982 0h294.716c.772 0 2.631-.361 3.333 0 1.044.536.026 4.253-.246 5.178-1.57 5.322-6.297 9.237-11.888 9.338-.802.014-2.467 1.243-.922 1.216 4.69-.085 9.227-2.001 12.284-5.625a14.523 14.523 0 0 0 3.168-6.696c.235-1.304.886-4.07-.823-4.55-.772-.219-1.735-.076-2.521-.076H63.513c-1.21 0-2.432-.052-3.641 0-.945.04-2.155.219-2.6 1.175-.3.643-.128 1.773-.08 2.435.096 1.324.38 2.634.844 3.877a14.534 14.534 0 0 0 4.02 5.82c4.657 4.077 10.286 3.64 15.945 3.64H354.95c.806 0 2.469-1.216.922-1.216"/>
        <path fill="#2496FF" d="M177.24 244.959c1.029 4.768 5.517 4.46 9.27 4.46h53.19c4.179 0 9.69.553 10.846-4.81.064-.296-.328-.393-.542-.393h-71.531c-.67 0-1.884 1.01-.69 1.01h71.531l-.543-.394c-.531 2.464-2.352 3.576-4.66 3.576h-54.722c-3.78 0-9.307 1.02-10.374-3.925-.131-.612-1.913-.167-1.774.476"/>
        <path fill="#F9F9F9" d="M95.083 237.481h233.285V101.277H95.083z"/>
        <path fill="#2496FF" d="M328.71 100.763H124.163c-9.43 0-18.909-.274-28.337 0-.133.003-.268 0-.4 0-.286 0-1.232.167-1.232.622v130.59c0 1.636-.37 3.772 0 5.377.017.071 0 .163 0 .237 0 .3.273.406.546.406h204.547c9.431 0 18.909.274 28.337 0 .134-.003.268 0 .402 0 .285 0 1.23-.167 1.23-.622v-13.536-32.51-39.34-34.023-11.182c0-1.635.37-3.771 0-5.376-.016-.071 0-.163 0-.237 0-.751-1.776-.382-1.776.216v134.141c0 .49-.173 1.36 0 1.826.022.061 0 .169 0 .237l1.23-.622H98.917c-.938 0-2.173-.215-3.091 0-.12.028-.276 0-.4 0l.545.406v-13.536-32.51-39.34-34.023-11.182-3.55c0-.49.172-1.36 0-1.826-.023-.061 0-.169 0-.237l-1.23.622H299.286c9.437 0 18.902.215 28.337 0 .134-.003.268 0 .402 0 .68 0 1.879-1.028.684-1.028"/>
        <path fill="#E5E5E5" d="M105.492 133.715h-2.721c-5.315 0-9.624-4.313-9.624-9.633v-24.03h21.97v24.03c0 5.32-4.31 9.633-9.625 9.633M149.43 133.715h-2.72c-5.316 0-9.625-4.313-9.625-9.633v-24.03h21.97v24.03c0 5.32-4.31 9.633-9.624 9.633M193.369 133.715h-2.721c-5.316 0-9.624-4.313-9.624-9.633v-24.03h21.969v24.03c0 5.32-4.31 9.633-9.624 9.633M237.307 133.715h-2.72c-5.316 0-9.625-4.313-9.625-9.633v-24.03h21.97v24.03c0 5.32-4.31 9.633-9.625 9.633M281.246 133.715h-2.722c-5.315 0-9.624-4.313-9.624-9.633v-24.03h21.97v24.03c0 5.32-4.31 9.633-9.624 9.633M325.184 133.715h-2.721c-5.316 0-9.624-4.313-9.624-9.633v-24.03h21.969v24.03c0 5.32-4.31 9.633-9.624 9.633"/>
        <path fill="#FFF" d="M105.492 129.479h-2.721c-5.315 0-9.624-4.313-9.624-9.633v-19.793h21.97v19.793c0 5.32-4.31 9.633-9.625 9.633M149.43 129.479h-2.72c-5.316 0-9.625-4.313-9.625-9.633v-19.793h21.97v19.793c0 5.32-4.31 9.633-9.624 9.633M193.369 129.479h-2.721c-5.316 0-9.624-4.313-9.624-9.633v-19.793h21.969v19.793c0 5.32-4.31 9.633-9.624 9.633M237.307 129.479h-2.72c-5.316 0-9.625-4.313-9.625-9.633v-19.793h21.97v19.793c0 5.32-4.31 9.633-9.625 9.633M281.246 129.479h-2.722c-5.315 0-9.624-4.313-9.624-9.633v-19.793h21.97v19.793c0 5.32-4.31 9.633-9.624 9.633M325.184 129.479h-2.721c-5.316 0-9.624-4.313-9.624-9.633v-19.793h21.969v19.793c0 5.32-4.31 9.633-9.624 9.633"/>
        <path fill="#2496FF" d="M105.81 133.11c-3.685 0-7.117-.193-9.667-3.304-1.773-2.165-2.1-4.655-2.1-7.32v-17.137-5.376l-1.214.685h21.969l-.578-.525v16.512c0 2.419.023 4.839 0 7.258-.046 4.974-3.52 9.073-8.637 9.207-.975.026-1.395 1.242-.182 1.21 3.898-.102 7.583-2.157 9.436-5.65 1.058-1.994 1.175-4.093 1.175-6.283V105.35v-5.376c0-.312-.267-.525-.578-.525h-21.97c-.355 0-1.213.158-1.213.685v14.93c0 4.895-1.067 11.438 2.261 15.5 2.783 3.398 6.595 3.757 10.662 3.757.799 0 1.832-1.21.636-1.21M149.798 133.295c-3.725 0-7.146-.318-9.7-3.432-1.79-2.183-2.125-4.744-2.125-7.443v-17.07-5.535l-1.255.658h21.97l-.52-.182v16.166c0 2.486.027 4.974 0 7.46-.054 4.82-3.244 9.244-8.37 9.378-.556.014-1.915.871-.735.84 3.715-.096 7.337-1.794 9.358-5.001 1.315-2.086 1.521-4.335 1.521-6.714v-17.07-5.535c0-.19-.423-.183-.52-.183h-21.97c-.344 0-1.254.189-1.254.659v14.751c0 4.96-1.103 11.595 2.389 15.649 2.786 3.235 6.536 3.445 10.476 3.445.561 0 1.917-.841.735-.841M193.706 133.181c-3.708 0-7.12-.23-9.68-3.353-1.783-2.177-2.113-4.684-2.113-7.364v-17.137-5.376l-1.227.635h21.97l-.553-.431v16.34c0 2.446.018 4.893 0 7.34-.036 4.83-3.284 9.213-8.397 9.346-.7.019-1.866 1.099-.674 1.068 3.806-.1 7.441-1.859 9.435-5.201 1.23-2.064 1.416-4.263 1.416-6.584v-17.137-5.376c0-.303-.271-.432-.553-.432h-21.97c-.3 0-1.226.165-1.226.636v14.93c0 4.877-1.065 11.41 2.249 15.456 2.774 3.386 6.603 3.708 10.649 3.708.706 0 1.87-1.068.674-1.068M237.664 133.255c-3.716 0-7.145-.276-9.693-3.404-1.784-2.19-2.121-4.73-2.121-7.43v-17.072-5.534l-1.245.698h21.97l-.531-.222v16.166c0 2.486.03 4.975 0 7.46-.058 4.816-3.273 9.205-8.38 9.338-.605.016-1.9.951-.714.92 3.79-.1 7.445-1.859 9.443-5.17 1.243-2.06 1.425-4.261 1.425-6.585v-17.07-5.535c0-.202-.415-.222-.53-.222h-21.97c-.386 0-1.243.189-1.243.698v14.751c0 4.964-1.104 11.603 2.392 15.661 2.782 3.231 6.54 3.472 10.483 3.472.611 0 1.903-.92.714-.92M281.32 133.051c-3.766 0-7.275-.332-9.72-3.638-1.57-2.121-1.8-4.49-1.8-7.009v-17.038-5.377l-.975.728h21.97l-.826-.6v16.511c0 2.42.023 4.84 0 7.259-.046 4.97-3.551 9.03-8.648 9.164-1.02.026-1.358 1.36-.15 1.328 3.917-.102 7.573-2.17 9.427-5.677 1.058-2 1.172-4.104 1.172-6.298v-17.038-5.377c0-.464-.429-.6-.825-.6h-21.97c-.355 0-.975.306-.975.727v14.931c0 5.084-1.108 11.8 2.581 15.894 2.876 3.192 6.596 3.438 10.59 3.438 1.023 0 1.353-1.328.15-1.328M325.766 133.378c-3.839 0-7.445-.329-10.01-3.616-1.68-2.152-2.03-4.627-2.03-7.249V105.35v-5.534l-1.47.575h9.524c3.934 0 8.035.342 11.956 0 .67-.059.215.106.184-.07.062.353 0 .77 0 1.127v19.255c0 1.203.029 2.409 0 3.61-.106 4.54-3.339 8.94-8.154 9.066-.347.01-1.988.696-1.165.674 3.611-.094 7.208-1.575 9.334-4.602 1.482-2.11 1.76-4.454 1.76-6.937V105.35v-5.534c0-.097-.279-.1-.305-.1h-21.97c-.288 0-1.469.154-1.469.576v22.698c0 2.794.433 5.407 2.332 7.618 2.761 3.215 6.406 3.445 10.318 3.445.35 0 1.995-.674 1.165-.674"/>
        <path fill="#6EB6F9" d="M83.523 133.715h-2.721c-5.315 0-9.624-4.313-9.624-9.633v-24.03h21.969v24.03c0 5.32-4.309 9.633-9.624 9.633M127.461 133.715h-2.72c-5.316 0-9.625-4.313-9.625-9.633v-24.03h21.97v24.03c0 5.32-4.31 9.633-9.625 9.633M171.4 133.715h-2.721c-5.316 0-9.624-4.313-9.624-9.633v-24.03h21.969v24.03c0 5.32-4.309 9.633-9.624 9.633M215.338 133.715h-2.721c-5.315 0-9.624-4.313-9.624-9.633v-24.03h21.97v24.03c0 5.32-4.31 9.633-9.625 9.633M259.276 133.715h-2.72c-5.316 0-9.625-4.313-9.625-9.633v-24.03h21.97v24.03c0 5.32-4.31 9.633-9.625 9.633M303.215 133.715h-2.721c-5.316 0-9.624-4.313-9.624-9.633v-24.03h21.969v24.03c0 5.32-4.31 9.633-9.624 9.633M347.153 133.715h-2.721c-5.315 0-9.624-4.313-9.624-9.633v-24.03h21.97v24.03c0 5.32-4.31 9.633-9.625 9.633"/>
        <path fill="#2496FF" d="M84.258 129.479c-5.315 0-9.256-4.313-9.256-9.633v-19.793h18.145v19.793c0 5.32-3.574 9.633-8.889 9.633M127.461 129.479h-2.72c-5.316 0-9.625-4.313-9.625-9.633v-19.793h21.97v19.793c0 5.32-4.31 9.633-9.625 9.633M171.4 129.479h-2.721c-5.316 0-9.624-4.313-9.624-9.633v-19.793h21.969v19.793c0 5.32-4.309 9.633-9.624 9.633M215.338 129.479h-2.721c-5.315 0-9.624-4.313-9.624-9.633v-19.793h21.97v19.793c0 5.32-4.31 9.633-9.625 9.633M259.276 129.479h-2.72c-5.316 0-9.625-4.313-9.625-9.633v-19.793h21.97v19.793c0 5.32-4.31 9.633-9.625 9.633M303.215 129.479h-2.721c-5.316 0-9.624-4.313-9.624-9.633v-19.793h21.969v19.793c0 5.32-4.31 9.633-9.624 9.633M347.153 129.479h-2.721c-5.315 0-9.624-4.313-9.624-9.633v-19.793h21.97v19.793c0 5.32-4.31 9.633-9.625 9.633"/>
        <path fill="#2496FF" d="M84.097 133.346c-3.694 0-7.15-.252-9.751-3.282-1.876-2.185-2.28-4.795-2.28-7.55v-17.165-5.534l-1.462.607H87.518c1.488 0 3.085.167 4.566 0 .698-.079.192.1.176-.065.038.384 0 .793 0 1.177V120.971c0 1.115.026 2.234 0 3.349-.113 4.686-3.48 8.902-8.355 9.03-.49.013-1.932.761-.764.73 3.637-.094 7.22-1.729 9.27-4.818 1.397-2.107 1.624-4.406 1.624-6.842v-17.07-5.535c0-.107-.271-.132-.314-.132H71.75c-.326 0-1.46.128-1.46.608v22.698c0 2.661.375 5.136 2.081 7.316 2.72 3.474 6.524 3.78 10.577 3.78.387 0 2.011-.739 1.148-.739M127.787 133.14c-3.698 0-7.116-.206-9.672-3.325-1.776-2.168-2.106-4.669-2.106-7.339V105.34v-5.377l-1.22.665h21.97l-.567-.486v16.512c0 2.419.023 4.84 0 7.258-.047 4.974-3.506 9.098-8.63 9.232-.95.024-1.418 1.174-.2 1.143 3.884-.102 7.59-2.15 9.44-5.634 1.057-1.993 1.176-4.086 1.176-6.275V105.34v-5.377c0-.308-.268-.486-.567-.486h-21.969c-.332 0-1.22.161-1.22.665v14.931c0 4.888-1.067 11.424 2.257 15.481 2.778 3.39 6.6 3.736 10.656 3.736.76 0 1.849-1.15.652-1.15M171.969 133.33c-3.682 0-7.164-.229-9.749-3.272-1.868-2.2-2.278-4.782-2.278-7.545V105.35v-5.534l-1.457.624H175.4c1.48 0 3.094.183 4.566 0 .703-.088.189.113.171-.082.034.385 0 .792 0 1.177V120.971c0 1.114.033 2.235 0 3.349-.135 4.686-3.472 8.881-8.36 9.01-.514.013-1.926.802-.753.77 3.641-.094 7.224-1.73 9.265-4.831 1.393-2.115 1.623-4.41 1.623-6.849v-17.07-5.535c0-.11-.267-.148-.318-.148h-21.97c-.346 0-1.456.115-1.456.624v22.698c0 2.662.38 5.142 2.083 7.322 2.712 3.473 6.53 3.79 10.58 3.79.408 0 2.019-.772 1.139-.772M215.664 133.14c-3.698 0-7.117-.206-9.672-3.325-1.776-2.168-2.106-4.669-2.106-7.339V105.34v-5.377l-1.22.665h21.97l-.567-.486v16.512c0 2.419.023 4.84 0 7.258-.047 4.974-3.506 9.098-8.631 9.232-.95.024-1.417 1.175-.2 1.143 3.885-.102 7.592-2.15 9.44-5.634 1.057-1.993 1.177-4.086 1.177-6.275V105.34v-5.377c0-.308-.268-.486-.567-.486h-21.97c-.332 0-1.218.161-1.218.665v14.93c0 4.889-1.069 11.425 2.256 15.482 2.777 3.39 6.6 3.736 10.656 3.736.76 0 1.848-1.15.652-1.15M259.647 133.306c-3.728 0-7.148-.321-9.703-3.44-1.79-2.184-2.126-4.746-2.126-7.446v-17.07-5.535l-1.258.646h21.97l-.517-.17v16.166c0 2.487.015 4.974 0 7.46-.03 4.821-3.256 9.256-8.366 9.39-.542.014-1.92.847-.741.817 3.713-.097 7.335-1.795 9.36-4.995 1.318-2.085 1.522-4.33 1.522-6.709v-17.07-5.535c0-.186-.425-.17-.517-.17H247.3c-.332 0-1.257.189-1.257.646v14.751c0 4.96-1.103 11.593 2.387 15.646 2.785 3.232 6.537 3.436 10.475 3.436.546 0 1.92-.818.74-.818M303.589 133.319c-3.732 0-7.152-.328-9.706-3.449-1.789-2.186-2.126-4.749-2.126-7.45v-17.07-5.535l-1.262.634h21.97l-.514-.158v16.166c0 2.487.016 4.974 0 7.46-.03 4.82-3.246 9.268-8.362 9.402-.527.014-1.924.823-.748.792 3.644-.095 7.224-1.732 9.264-4.839 1.39-2.12 1.62-4.41 1.62-6.852v-17.07-5.535c0-.18-.426-.158-.513-.158h-21.969c-.319 0-1.26.19-1.26.634v14.751c0 4.958-1.104 11.59 2.386 15.642 2.784 3.232 6.537 3.427 10.472 3.427.53 0 1.925-.792.748-.792M347.522 133.3c-3.726 0-7.149-.32-9.702-3.436-1.79-2.183-2.125-4.745-2.125-7.444v-17.07-5.535l-1.256.653h21.97l-.52-.177v16.166c0 2.486.027 4.974 0 7.46-.052 4.82-3.24 9.248-8.367 9.382-.55.015-1.917.862-.738.832 3.714-.097 7.336-1.795 9.36-5 1.315-2.083 1.52-4.333 1.52-6.71v-17.072-5.534c0-.188-.423-.178-.518-.178h-21.97c-.34 0-1.256.189-1.256.654v14.751c0 4.96-1.103 11.594 2.389 15.648 2.786 3.235 6.535 3.44 10.475 3.44.555 0 1.919-.83.738-.83"/>
        <path fill="#FFF" d="M115.116 100.054l19.017-27.582H116.39l-23.243 27.582h21.97"/>
        <path fill="#6A79A8" d="M115.992 99.898L132.6 75.809l2.408-3.492c.114-.165-.23-.209-.3-.209h-11.915c-1.828 0-3.66-.04-5.488 0-.811.018-1.398.166-1.966.724-2.425 2.38-4.482 5.317-6.67 7.913L98.51 92.803l-6.166 7.316c-.17.203.011.299.229.299h21.97c.38 0 2.008-.729 1.15-.729h-21.97l.229.299 20.291-24.079 2.951-3.502-1.379.43h16.463c.254 0 1.012-.132 1.242 0-.485-.28-.175-.136-.55.21-.816.754-1.42 2.059-2.048 2.97l-3.414 4.95-8.274 12.002-4.992 7.24c-.122.178 1.45.124 1.75-.311"/>
        <path fill="#FFF" d="M159.055 100.054l10.564-27.582h-17.743l-14.79 27.582h21.969"/>
        <path fill="#6A79A8" d="M159.93 99.897l10.565-27.581c.067-.176-.188-.205-.3-.205h-17.743c-.405 0-1.23.106-1.451.518l-14.791 27.582c-.091.17.21.204.3.204h21.969c.378 0 2.007-.723 1.151-.723-7.231 0-14.552-.358-21.773 0-.33.016.004.246.198.029.264-.296.432-.806.619-1.154l2.423-4.52 6.974-13.004 4.68-8.727-1.45.518H166.732c.57 0 1.22.085 1.785 0 .804-.12.125.111.207-.155-.762 2.474-1.873 4.889-2.798 7.304l-4.753 12.41-2.995 7.818c-.117.306 1.576.143 1.75-.314"/>
        <path fill="#FFF" d="M202.993 100.054l2.113-27.582h-17.744l-6.338 27.582h21.969"/>
        <path fill="#6A79A8" d="M203.89 99.98l2.113-27.581c.035-.456-.464-.554-.813-.554h-17.743c-.406 0-.888.294-.982.701l-6.339 27.582c-.103.45.525.553.813.553h21.969c.997 0 1.377-1.255.17-1.255h-21.97l.813.554 6.339-27.581-.982.701h17.743l-.812-.554c-.705 9.194-1.41 18.388-2.113 27.582-.069.89 1.735.626 1.794-.148"/>
        <path fill="#FFF" d="M246.931 100.054l-6.339-27.582H222.85l2.113 27.582h21.97"/>
        <path fill="#6A79A8" d="M247.818 99.816l-6.338-27.582c-.053-.229-.356-.351-.566-.351h-17.743c-.486 0-1.257.207-1.21.827l2.114 27.582c.017.229.384.351.565.351h21.969c.778 0 1.84-1.179.645-1.179h-21.97l.566.352c-.705-9.194-1.41-18.388-2.113-27.582l-1.21.828h17.743l-.565-.352 6.339 27.582c.17.74 1.948.28 1.774-.476"/>
        <path fill="#FFF" d="M290.87 100.054l-14.791-27.582h-17.744l10.565 27.582h21.97"/>
        <path fill="#6A79A8" d="M291.757 99.816l-14.79-27.582c-.115-.213-.309-.316-.557-.316h-17.743c-.316 0-1.432.235-1.219.792l10.565 27.582c.084.22.333.316.556.316h21.969c.732 0 1.86-1.108.663-1.108h-21.97l.557.316-10.565-27.582-1.22.792h17.744l-.556-.316 14.791 27.582c.352.656 2.082.095 1.775-.476"/>
        <path fill="#FFF" d="M334.808 100.054l-23.243-27.582h-17.743l19.017 27.582h21.969"/>
        <path fill="#6A79A8" d="M335.64 99.737l-14.766-17.522-7.627-9.051c-.476-.566-.655-.95-1.349-1.095-1.357-.281-3.074 0-4.453 0h-13.25c-.143 0-1.49.308-1.26.641a948673.891 948673.891 0 0 0 17.47 25.339c.416.603.925 1.799 1.534 2.225.593.415 1.886.183 2.583.183h19.914c.54 0 1.922-.806.744-.806h-21.97l.516.165-16.608-24.089-2.409-3.493-1.26.641h11.217c1.948 0 3.913.074 5.86 0 .89-.033.39.157.235-.053.17.23.372.442.556.66l16.806 19.944 5.852 6.944c.313.37 1.997-.239 1.665-.633"/>
        <path fill="#6EB6F9" d="M116.39 72.472H98.646l-27.468 27.582h21.969l23.243-27.582"/>
        <path fill="#2496FF" d="M116.39 72.472H102.32l-27.468 27.582h18.294l23.243-27.582"/>
        <path fill="#2496FF" d="M116.961 72.095h-12.594c-2.151 0-5.388-.71-7.048.957L77.493 92.959l-7.121 7.151c-.197.198.036.32.234.32H90.291c.99 0 2.662.265 3.54-.336.639-.437 1.141-1.305 1.632-1.888l3.83-4.546 10.878-12.908 7.025-8.336c.371-.441-1.324-.23-1.613.113L95.292 96.608l-2.951 3.502 1.377-.434H71.75l.235.321 24.061-24.16 3.408-3.421-1.378.434h17.743c.396 0 2.015-.755 1.143-.755M137.085 100.054l14.791-27.582h-17.743l-19.017 27.582h21.97"/>
        <path fill="#2496FF" d="M137.93 100.14l14.79-27.581c.284-.527-.393-.708-.757-.708h-16.836c-.843 0-1.368-.004-1.945.689-1.948 2.343-3.532 5.123-5.26 7.63l-8.472 12.286-5.178 7.511c-.351.51.452.708.757.708H137c.991 0 1.38-1.243.173-1.243h-21.97l.759.708 16.608-24.088 2.408-3.493-.93.535h17.742l-.757-.708-14.791 27.581c-.46.857 1.335.832 1.689.173M181.024 100.054l6.338-27.582H169.62l-10.564 27.582h21.969"/>
        <path fill="#2496FF" d="M181.896 99.888l6.34-27.58c.039-.171-.165-.174-.291-.174H170.2c-.33 0-1.308.121-1.454.504l-10.565 27.581c-.065.169.189.174.29.174h21.97c.351 0 1.995-.678 1.163-.678h-16.913c-1.464 0-3.115-.217-4.566 0-.746.112-.108-.085-.18.123.104-.305.232-.604.347-.904l1.668-4.355 5.111-13.344 3.42-8.928-1.454.504h15.038c.65 0 1.313.04 1.962 0 .165-.01.34-.01.504 0 .444.026-.06-.026-.056-.158-.023.696-.342 1.488-.496 2.162l-1.096 4.763-2.89 12.576-1.853 8.065c-.074.32 1.65.086 1.745-.33M224.962 100.054l-2.113-27.582h-17.743l-2.113 27.582h21.97"/>
        <path fill="#2496FF" d="M225.85 99.816c-.705-9.194-1.41-18.388-2.113-27.582-.008-.1-.267-.11-.309-.11h-17.743c-.33 0-1.432.133-1.467.586l-2.113 27.582c-.007.099.285.11.309.11h21.969c.363 0 2-.697 1.158-.697h-21.065c-.158 0-.747.098-.872 0 .43.337.243-.173.319-.443.336-1.19.21-2.735.303-3.964l1.042-13.6.725-9.464-1.466.587h14.763c.56 0 2.497-.337 2.97 0-.53-.377-.178 1.457-.155 1.766l.363 4.738.974 12.708.633 8.259c.022.291 1.81-.016 1.775-.476M268.9 100.054l-10.565-27.582h-17.743l6.34 27.582H268.9"/>
        <path fill="#2496FF" d="M269.788 99.816l-10.565-27.582c-.13-.34-.482-.389-.802-.389h-17.744c-.403 0-1.086.37-.972.865l6.339 27.582c.08.346.522.389.802.389h21.97c.995 0 1.377-1.254.17-1.254h-21.97l.802.389-6.338-27.582-.973.865h17.743l-.802-.389 10.565 27.582c.296.773 2.06.27 1.775-.476M312.839 100.054l-19.017-27.582h-17.743l14.79 27.582h21.97"/>
        <path fill="#2496FF" d="M313.668 99.726L301.186 81.62c-2.037-2.954-3.989-5.994-6.123-8.879-.4-.54-.423-.646-1.117-.71-1.607-.148-3.299 0-4.91 0H276.44c-.19 0-1.47.267-1.25.678l14.791 27.582c.103.191.33.202.525.202h21.97c.586 0 1.91-.88.724-.88h-21.97l.526.202-14.79-27.582-1.25.679h16.462c.362 0 .888-.094 1.242 0-.74-.197-.309-.076-.14.307.46 1.038 1.405 2.037 2.048 2.97l3.414 4.95 8.274 12.001 4.992 7.241c.288.417 2.009-.149 1.659-.656M356.777 100.054L329.31 72.472h-17.744l23.243 27.582h21.97"/>
        <path fill="#2496FF" d="M357.592 99.674l-16.947-17.017-9.21-9.249c-.436-.437-1.003-1.273-1.606-1.505-1.07-.412-2.877-.041-3.991-.041h-14.183c-.38 0-1.321.497-.905.99l16.435 19.504 4.33 5.138c.723.859 1.472 2.114 2.366 2.808.615.477 1.306.362 2.08.362h20.726c.984 0 1.388-1.22.18-1.22h-21.97l.726.23a638537.76 638537.76 0 0 0-20.291-24.08l-2.951-3.502-.905.99h17.743l-.726-.23 24.062 24.161 3.407 3.421c.532.535 2.216-.173 1.63-.76"/>
        <path fill="#2496FF" d="M98.605 72.645h201.344c9.244 0 18.534.274 27.775 0 .124-.003.249 0 .373 0 .724 0 1.863-1.094.667-1.094H127.42c-9.243 0-18.534-.274-27.774 0-.125.003-.25 0-.374 0-.724 0-1.863 1.094-.667 1.094M70.641 100.47H344.606c3.698 0 7.412.098 11.11 0 .162-.004.324 0 .486 0 .558 0 1.918-.835.736-.835H82.974c-3.699 0-7.412-.098-11.11 0-.162.004-.324 0-.486 0-.558 0-1.918.836-.737.836M178.957 181.96l21.737-28.298c1.836-2.391 3.77-4.54 6.782-5.489 3.979-1.254 7.87-.11 11.088 2.354 4.98 3.814 9.942 7.652 14.913 11.477l14.312 11.013c.638.491 2.18-.412 1.364-1.04l-28.937-22.268c-2.598-2-5.45-3.336-8.796-3.391-4.411-.073-8.499 2.011-11.194 5.468-3.73 4.784-7.392 9.624-11.088 14.435l-11.671 15.196c-.689.896.984 1.203 1.49.543"/>
        <path fill="#F9AB98" d="M260.307 217.349l-82.387 10.778a2.056 2.056 0 0 1-2.306-1.775l-5.424-41.538a2.058 2.058 0 0 1 1.773-2.308l82.387-10.778a2.057 2.057 0 0 1 2.306 1.774l5.424 41.539a2.058 2.058 0 0 1-1.773 2.308"/>
        <path fill="#2496FF" d="M260.456 216.96l-17.34 2.267-35.172 4.602-27.018 3.534c-1.856.243-4.036 1.067-4.468-1.582-.609-3.727-.981-7.51-1.47-11.255l-2.333-17.864c-.502-3.85-1.182-7.723-1.513-11.593-.225-2.628 1.686-2.306 3.603-2.557l11.05-1.445c11.423-1.495 22.846-2.99 34.27-4.483l29.316-3.836 3.55-.464c.716-.094 1.31-.302 1.95.115 1.05.683.998 2.182 1.145 3.31l.766 5.867 4.144 31.734c.132 1.013.765 3.33-.72 3.7-1.047.262-.874.941.182.677 1.923-.48 2.702-1.71 2.48-3.568-.196-1.65-.43-3.295-.645-4.942l-2.286-17.507-2.04-15.626c-.119-.907-.15-1.886-.363-2.777-.414-1.726-1.878-2.053-3.425-1.879-7.513.845-15.006 1.963-22.503 2.944l-36.951 4.834c-7.399.968-14.857 1.735-22.227 2.908-1.659.263-3.2 1.066-3.135 2.978.029.857.227 1.74.338 2.589l2.041 15.635a287209.534 287209.534 0 0 0 2.941 22.524c.231 1.77 1.19 2.88 3.148 2.716 6.248-.523 12.504-1.635 18.72-2.449l36.573-4.784 25.774-3.372 1.32-.173c.772-.1 1.543-.942.298-.779"/>
        <path fill="#FFF" d="M194.313 202.816c-.178-1.364-.552-2.518-1.123-3.46-.571-.943-1.298-1.617-2.182-2.023-.884-.405-1.855-.539-2.913-.4a5.123 5.123 0 0 0-2.033.699 4.627 4.627 0 0 0-1.49 1.454c-.39.603-.664 1.344-.82 2.222-.157.878-.167 1.843-.03 2.893.139 1.06.397 2 .776 2.82.378.822.847 1.482 1.408 1.981.56.5 1.174.849 1.841 1.046a5.1 5.1 0 0 0 2.13.148 5.14 5.14 0 0 0 2.567-1.073c.745-.589 1.291-1.418 1.638-2.49.347-1.07.424-2.343.231-3.817zm-6.61-8.883c1.93-.253 3.639-.077 5.125.525a7.68 7.68 0 0 1 3.58 2.932c.9 1.352 1.477 3.002 1.73 4.951.189 1.44.165 2.776-.07 4.004-.236 1.229-.687 2.326-1.353 3.293a7.732 7.732 0 0 1-2.61 2.358c-1.076.606-2.345 1.005-3.81 1.197-1.456.19-2.79.125-4.003-.195s-2.26-.857-3.142-1.611c-.883-.756-1.6-1.71-2.15-2.861-.55-1.152-.917-2.427-1.1-3.825-.187-1.432-.153-2.772.101-4.021.255-1.249.717-2.343 1.386-3.284a7.79 7.79 0 0 1 2.593-2.297c1.06-.592 2.3-.98 3.723-1.166zM206.832 194.637l-2.539.331.743 5.695 2.54-.332c.89-.116 1.62-.307 2.192-.571.573-.265.988-.63 1.246-1.094.258-.465.342-1.04.252-1.727-.107-.822-.435-1.46-.986-1.913-.613-.48-1.763-.61-3.448-.39zm2.03 8.422l-3.454.451.689 5.275c.099.754-.005 1.35-.31 1.786a1.76 1.76 0 0 1-1.269.76c-.567.075-1.05-.058-1.447-.399-.398-.34-.645-.882-.742-1.628l-1.875-14.363c-.109-.83.004-1.449.338-1.854.335-.406.917-.663 1.747-.772l4.838-.633c1.43-.187 2.546-.22 3.345-.101a4.97 4.97 0 0 1 2.112.796c.619.42 1.118.966 1.5 1.64.38.674.629 1.456.745 2.346.248 1.898-.149 3.413-1.19 4.545-1.04 1.131-2.716 1.848-5.027 2.15zM230.145 191.664l-8.495 1.112.597 4.575 7.822-1.023c.576-.075 1.023-.002 1.34.22.317.22.504.543.56.967.055.423-.04.787-.285 1.09-.244.304-.658.494-1.243.57l-7.822 1.024.692 5.3 8.788-1.15c.592-.077 1.056.003 1.393.238.336.237.535.583.595 1.04.057.442-.047.82-.311 1.134-.265.315-.693.51-1.286.588l-10.248 1.341c-.821.107-1.435.002-1.843-.315-.407-.317-.664-.882-.77-1.696l-1.83-14.007c-.07-.543-.047-.996.069-1.36a1.51 1.51 0 0 1 .658-.849c.322-.201.75-.337 1.283-.407l9.956-1.303c.6-.078 1.065-.003 1.392.226.327.228.519.559.575.991.058.44-.042.814-.3 1.119-.257.305-.686.497-1.287.575M240.013 189.391l8.685 10.034-1.447-11.084c-.094-.72-.01-1.28.252-1.681s.655-.636 1.18-.704c.541-.07.993.053 1.353.372.36.32.587.84.681 1.56l1.914 14.655c.213 1.636-.357 2.542-1.711 2.719-.339.044-.65.035-.934-.027a2.342 2.342 0 0 1-.823-.364c-.264-.18-.516-.4-.757-.657-.24-.258-.481-.521-.723-.792l-8.49-9.929 1.425 10.918c.093.712-.002 1.272-.285 1.68-.282.407-.682.645-1.198.712-.533.07-.985-.058-1.355-.385s-.6-.841-.692-1.545l-1.877-14.375c-.08-.61-.075-1.098.016-1.463.11-.403.336-.75.677-1.04.341-.29.728-.463 1.16-.52a2.1 2.1 0 0 1 .89.052c.257.079.487.2.694.362.206.163.424.38.653.651.23.272.467.556.712.851"/>
        <path fill="#2496FF" d="M213.723 148.916a3.856 3.856 0 0 1-3.855 3.858 3.857 3.857 0 0 1-3.855-3.858 3.857 3.857 0 0 1 3.855-3.858 3.856 3.856 0 0 1 3.855 3.858"/>
        <g>
            <path fill="#FFF" d="M293.564 336.179c-2.426 0-4.393-1.496-4.393-3.341 0-1.845 1.967-3.341 4.393-3.341H274.4c2.426 0 4.392 1.496 4.392 3.34 0 1.846-1.966 3.342-4.392 3.342h19.164M299.771 310.134c-2.532 0-4.584-1.562-4.584-3.488 0-1.925 2.052-3.487 4.584-3.487h-20.003c2.532 0 4.584 1.562 4.584 3.487 0 1.926-2.052 3.488-4.584 3.488h20.003M425.246 295.253h-125.88c-6.847 0-12.398-5.534-12.398-12.36v-76.095c0-6.827 5.55-12.361 12.398-12.361h125.88c6.848 0 12.399 5.534 12.399 12.361v76.094c0 6.827-5.551 12.361-12.399 12.361"/>
            <path fill="#FFF" d="M428.125 298.124h-125.88c-6.847 0-12.398-5.535-12.398-12.361v-76.094c0-6.827 5.55-12.362 12.398-12.362h125.88c6.848 0 12.399 5.535 12.399 12.362v76.094c0 6.826-5.551 12.36-12.399 12.36"/>
            <path fill="#6A79A8" d="M299.366 195.011c-6.519 0-11.823 5.288-11.823 11.787v76.094c0 6.5 5.304 11.787 11.823 11.787h125.88c6.52 0 11.823-5.287 11.823-11.787v-76.094c0-6.5-5.304-11.787-11.823-11.787h-125.88zm125.88 100.817h-125.88c-7.154 0-12.974-5.803-12.974-12.936v-76.094c0-7.132 5.82-12.935 12.974-12.935h125.88c7.154 0 12.975 5.803 12.975 12.935v76.094c0 7.133-5.82 12.936-12.975 12.936z"/>
            <path fill="#BBDFF5" d="M290.209 248.171h150.677V220.34H290.209z"/>
            <path fill="#6A79A8" d="M287.543 244.366H437.07v-26.683H287.543v26.683zm150.102 1.148H286.968a.575.575 0 0 1-.576-.574v-27.831c0-.317.258-.575.576-.575h150.677c.318 0 .576.258.576.574v27.832a.575.575 0 0 1-.576.574z"/>
            <path fill="#6A79A8" d="M337.252 226.642c-.894 0-1.62-.696-1.62-1.552 0-.856.726-1.552 1.62-1.552.894 0 1.62.696 1.62 1.552 0 .856-.726 1.552-1.62 1.552M383.114 226.642c-.894 0-1.62-.696-1.62-1.552 0-.856.726-1.552 1.62-1.552.893 0 1.62.696 1.62 1.552 0 .856-.727 1.552-1.62 1.552"/>
            <path fill="#FF9C81" d="M343.164 232.381c0 2.14-1.306 3.876-2.916 3.876-1.61 0-2.916-1.735-2.916-3.876 0-2.14 1.306-3.876 2.916-3.876 1.61 0 2.916 1.735 2.916 3.876M383.27 232.381c0 2.14-1.306 3.876-2.917 3.876-1.61 0-2.915-1.735-2.915-3.876 0-2.14 1.305-3.876 2.915-3.876 1.611 0 2.916 1.735 2.916 3.876"/>
            <path fill="#6A79A8" d="M360.46 239.085c-4.74 0-9.321-1.7-12.902-4.787a.573.573 0 0 1-.06-.81.576.576 0 0 1 .813-.059 18.631 18.631 0 0 0 24.102.166.577.577 0 0 1 .812.07.573.573 0 0 1-.07.81 19.79 19.79 0 0 1-12.695 4.61"/>
            <path fill="#FFF" d="M446.117 285.051c0-15.383-12.508-27.853-27.937-27.853-15.43 0-27.938 12.47-27.938 27.853 0 15.383 12.508 27.854 27.938 27.854s27.937-12.47 27.937-27.854"/>
            <path fill="#BBF9BC" d="M448.997 287.922c0-15.383-12.509-27.854-27.938-27.854-15.43 0-27.938 12.47-27.938 27.854 0 15.383 12.508 27.853 27.938 27.853s27.938-12.47 27.938-27.853"/>
            <path fill="#6A79A8" d="M418.18 257.772c-15.088 0-27.362 12.238-27.362 27.28 0 15.04 12.274 27.278 27.362 27.278 15.087 0 27.362-12.237 27.362-27.279 0-15.041-12.275-27.279-27.362-27.279zm0 55.707c-15.723 0-28.514-12.753-28.514-28.428 0-15.674 12.79-28.427 28.514-28.427 15.722 0 28.513 12.753 28.513 28.427 0 15.675-12.79 28.428-28.513 28.428z"/>
            <path fill="#FFF" d="M416.62 294.07a.937.937 0 0 1-.664-.275l-8.447-8.42a.933.933 0 0 1 0-1.325.94.94 0 0 1 1.328 0l7.783 7.759 15.692-15.645a.941.941 0 0 1 1.328 0 .934.934 0 0 1 0 1.324l-16.356 16.307a.937.937 0 0 1-.664.274"/>
            <path fill="#6A79A8" d="M431.876 212.57a.575.575 0 0 1-.576-.574v-3.158c0-.31-.017-.62-.051-.923a.577.577 0 0 1 1.145-.126c.038.344.058.697.058 1.049v3.158a.575.575 0 0 1-.576.574M431.154 205.9a.576.576 0 0 1-.53-.348 8.326 8.326 0 0 0-.653-1.222.573.573 0 0 1 .171-.794.577.577 0 0 1 .796.17c.286.442.536.91.744 1.393a.573.573 0 0 1-.528.801M428.998 202.868c-.14 0-.28-.05-.39-.152a8.363 8.363 0 0 0-3.647-1.96.574.574 0 1 1 .276-1.114 9.517 9.517 0 0 1 4.15 2.23.573.573 0 0 1-.39.996M292.688 267.997a.575.575 0 0 1-.575-.574v-9.029a.575.575 0 0 1 1.151 0v9.029a.575.575 0 0 1-.576.574M292.688 273.929a.575.575 0 0 1-.575-.574v-2.296a.575.575 0 0 1 1.151 0v2.296a.575.575 0 0 1-.576.574M361.147 289.93h-9.5a.575.575 0 1 1 0-1.147h9.5a.575.575 0 1 1 0 1.148M348.095 289.93h-6.718a.575.575 0 1 1 0-1.147h6.718a.575.575 0 1 1 0 1.148M329.134 289.93h-12.637a.575.575 0 1 1 0-1.147h12.637a.575.575 0 1 1 0 1.148M490.477 202.757h1.727v-4.266h-1.727zM490.477 211.398h1.727v-4.266h-1.727zM484.843 205.778h4.278v-1.722h-4.278zM493.509 205.778h4.278v-1.722h-4.278zM484.005 332.098h1.727v-4.266h-1.727zM478.367 335.119h4.282v-1.723h-4.282zM487.036 335.119h4.279v-1.723h-4.279z"/>
            <path fill="#FF9C81" d="M266.973 128.334h1.727v-4.266h-1.727zM266.973 136.975h1.727v-4.266h-1.727zM261.337 131.356h4.279v-1.723h-4.28zM270.004 131.356h4.28v-1.723h-4.28zM222.886 253.953h1.727v-4.266h-1.727zM222.886 262.594h1.727v-4.266h-1.727zM217.25 256.975h4.28v-1.723h-4.28zM225.917 256.975h4.28v-1.723h-4.28zM461.565 139.108h1.727v-4.266h-1.727zM461.565 147.75h1.727v-4.267h-1.727zM455.93 142.13h4.279v-1.723h-4.278zM464.597 142.13h4.278v-1.723h-4.278z"/>
            <path fill="#6A79A8" d="M350.916 144.975h1.728v-4.266h-1.728zM350.916 153.616h1.728v-4.266h-1.728zM345.28 147.996h4.28v-1.722h-4.28zM353.947 147.996h4.28v-1.722h-4.28zM362.996 319.493h1.728v-4.266h-1.728zM362.996 328.134h1.728v-4.267h-1.728zM357.36 322.514h4.28v-1.722h-4.28zM366.028 322.514h4.28v-1.722h-4.28zM484.005 340.739h1.727v-4.267h-1.727z"/>
        </g>
    </g>
</svg>
