<svg width="254" height="75" viewBox="0 0 254 75" fill="none" xmlns="http://www.w3.org/2000/svg">
<g clip-path="url(#clip0_1020_4069)">
<mask id="path-1-inside-1_1020_4069" fill="white">
<path d="M248.681 44.7828C248.537 45.5051 248.284 46.1189 247.94 46.6603C247.596 47.2012 247.144 47.6352 246.566 47.9775C246.004 48.303 245.299 48.4828 244.466 48.4828C243.652 48.4828 242.946 48.3208 242.386 47.9775C241.827 47.6509 241.35 47.2002 240.993 46.6603C240.649 46.1194 240.395 45.5051 240.233 44.7828C240.073 44.0659 239.995 43.3335 239.998 42.5992C239.998 41.8412 240.071 41.0828 240.215 40.3799C240.36 39.6576 240.613 39.026 240.957 38.4846C241.3 37.9243 241.753 37.4918 242.331 37.1312C242.893 36.7879 243.598 36.6076 244.43 36.6076C245.244 36.6076 245.932 36.7879 246.492 37.1312C247.054 37.4779 247.531 37.9466 247.886 38.5024C248.248 39.0617 248.501 39.7111 248.664 40.4156C248.826 41.1373 248.899 41.8591 248.899 42.5992C248.899 43.3393 248.826 44.061 248.681 44.7828ZM253.494 38.9537C253.15 37.7445 252.644 36.6977 251.957 35.7773C251.25 34.8752 250.382 34.1346 249.333 33.5937C248.283 33.0522 247.017 32.7634 245.552 32.7634C244.394 32.7634 243.344 32.9983 242.386 33.4496C241.426 33.9008 240.63 34.6404 240.015 35.6332H239.943V33.2687H235.094V58.3012H240.196V49.5112H240.268C240.87 50.3943 241.693 51.104 242.657 51.569C243.634 52.0381 244.683 52.2729 245.841 52.2729C247.198 52.2729 248.392 52.0025 249.423 51.4788C250.419 50.9702 251.29 50.2492 251.974 49.367C252.662 48.4828 253.168 47.4717 253.494 46.317C253.839 45.1618 254.001 43.9714 254.001 42.7255C254.001 41.4083 253.839 40.1451 253.494 38.9354V38.9537ZM228.328 44.7828C228.184 45.5051 227.93 46.1189 227.586 46.6603C227.242 47.2017 226.79 47.6352 226.211 47.9775C225.65 48.303 224.945 48.4828 224.113 48.4828C223.298 48.4828 222.611 48.3208 222.032 47.9775C221.472 47.6506 220.996 47.2 220.638 46.6603C220.295 46.1194 220.042 45.5051 219.88 44.7828C219.72 44.066 219.641 43.3335 219.644 42.5992C219.644 41.8412 219.716 41.0828 219.861 40.3799C220.006 39.6576 220.258 39.026 220.603 38.4846C220.947 37.9243 221.399 37.4918 221.978 37.1312C222.538 36.7879 223.244 36.6076 224.076 36.6076C224.891 36.6076 225.577 36.7879 226.139 37.1312C226.701 37.4778 227.177 37.9466 227.532 38.5024C227.894 39.0617 228.147 39.7111 228.31 40.4156C228.473 41.1373 228.545 41.8591 228.545 42.5992C228.545 43.3393 228.473 44.061 228.328 44.7828ZM231.602 35.7773C230.915 34.8752 230.028 34.1346 228.979 33.5937C227.93 33.0522 226.663 32.7634 225.198 32.7634C224.039 32.7634 222.991 32.9983 222.031 33.4496C221.073 33.9008 220.277 34.6404 219.662 35.6332H219.589V33.2687H214.74V58.3012H219.842V49.5112H219.915C220.516 50.3943 221.34 51.104 222.303 51.569C223.28 52.0381 224.329 52.2729 225.487 52.2729C226.862 52.2729 228.038 52.0025 229.07 51.4788C230.065 50.9699 230.935 50.249 231.62 49.367C232.308 48.4828 232.815 47.4717 233.159 46.317C233.493 45.1488 233.663 43.9402 233.665 42.7255C233.665 41.4083 233.502 40.1451 233.159 38.9354C232.815 37.7266 232.308 36.6794 231.602 35.7595V35.7773ZM198.022 41.9136L201.369 32.5103H201.442L204.681 41.9136H198.022ZM198.565 26.1937L188.85 51.8033H194.531L196.54 46.1005H206.146L208.082 51.8033H213.944L204.337 26.1937H198.547H198.565ZM188.434 43.6821C188.09 43.1045 187.656 42.5992 187.095 42.2024C186.552 41.8056 185.918 41.4979 185.213 41.2458C184.498 41.0115 183.774 40.8069 183.042 40.6325C182.318 40.4695 181.612 40.3071 180.925 40.1629C180.237 40.0188 179.604 39.8558 179.079 39.6755C178.537 39.4951 178.103 39.2608 177.777 38.9715C177.433 38.6827 177.27 38.3221 177.27 37.853C177.27 37.474 177.361 37.1669 177.559 36.932C177.758 36.6977 177.994 36.5353 178.265 36.4089C178.537 36.2826 178.844 36.2103 179.188 36.1746C179.5 36.1401 179.814 36.1221 180.129 36.1206C181.033 36.1206 181.829 36.3009 182.499 36.6437C183.169 36.9865 183.549 37.6543 183.603 38.6287H188.452C188.361 37.4735 188.054 36.5353 187.565 35.7768C187.076 35.0184 186.462 34.4234 185.72 33.9722C184.978 33.5209 184.128 33.1964 183.187 32.9977C182.246 32.7991 181.269 32.7089 180.256 32.7089C179.243 32.7089 178.266 32.7996 177.307 32.9794C176.348 33.1597 175.48 33.4669 174.72 33.9182C173.943 34.3695 173.327 34.9654 172.875 35.7228C172.404 36.4807 172.169 37.474 172.169 38.6644C172.169 39.4768 172.332 40.1624 172.676 40.7217C173.002 41.282 173.453 41.7506 173.996 42.1295C174.557 42.4907 175.173 42.7978 175.878 43.0321C176.584 43.2664 177.308 43.4656 178.049 43.6276C179.877 44.0065 181.288 44.3855 182.319 44.7645C183.332 45.1434 183.839 45.721 183.839 46.479C183.839 46.9303 183.73 47.3092 183.513 47.6159C183.301 47.9155 183.022 48.1625 182.699 48.3376C182.373 48.5179 182.011 48.6448 181.613 48.7344C181.24 48.8192 180.857 48.8616 180.474 48.8607C179.967 48.8607 179.479 48.8073 179.026 48.6804C178.556 48.5541 178.14 48.3728 177.778 48.1206C177.416 47.868 177.127 47.543 176.892 47.1462C176.656 46.7494 176.548 46.2798 176.548 45.7384H171.699C171.753 46.9832 172.025 48.0121 172.55 48.8424C173.056 49.6732 173.726 50.3226 174.522 50.8279C175.318 51.3332 176.24 51.6938 177.272 51.9103C178.303 52.1273 179.352 52.2357 180.438 52.2357C181.487 52.2357 182.536 52.1273 183.55 51.9281C184.563 51.73 185.468 51.3688 186.264 50.8635C187.06 50.3582 187.693 49.6905 188.181 48.8781C188.67 48.0483 188.923 47.0377 188.923 45.8102C188.923 44.9443 188.76 44.2225 188.416 43.6444L188.434 43.6821ZM167.319 27.7101H162.217V33.2687H159.123V36.6794H162.217V47.6169C162.217 48.5556 162.38 49.2957 162.688 49.8728C162.996 50.451 163.43 50.8834 163.972 51.2089C164.515 51.5155 165.131 51.732 165.836 51.8405C166.579 51.9507 167.329 52.0049 168.08 52.0025C168.586 52.0025 169.093 51.9846 169.636 51.9668C170.115 51.9506 170.592 51.9023 171.065 51.8221V47.8695C170.815 47.9257 170.561 47.9618 170.306 47.9775C170.029 47.9991 169.751 48.0112 169.473 48.0137C168.605 48.0137 168.044 47.8695 167.755 47.5802C167.465 47.2919 167.32 46.7138 167.32 45.8662V36.6794H171.065V33.2687H167.32L167.319 27.7101ZM152.682 44.6387C152.682 44.927 152.647 45.3064 152.592 45.7939C152.531 46.2924 152.364 46.7724 152.103 47.2017C151.832 47.6714 151.434 48.0682 150.873 48.4115C150.331 48.7538 149.534 48.9168 148.54 48.9168C148.142 48.9168 147.743 48.8801 147.345 48.8083C146.966 48.7354 146.622 48.6091 146.332 48.4293C146.043 48.2485 145.826 48.0142 145.645 47.6892C145.482 47.3826 145.391 47.0036 145.391 46.534C145.391 46.0465 145.482 45.6676 145.645 45.3431C145.808 45.0354 146.042 44.7828 146.315 44.5668C146.586 44.3682 146.911 44.2062 147.291 44.0799C147.671 43.9536 148.033 43.8629 148.431 43.7906C148.84 43.7205 149.25 43.6603 149.661 43.6103C150.077 43.5563 150.458 43.5018 150.838 43.4299C151.217 43.3581 151.561 43.2675 151.887 43.1595C152.213 43.0515 152.484 42.9068 152.701 42.7082V44.6035L152.682 44.6387ZM157.784 47.6887V38.0328C157.784 36.9142 157.531 36.0116 157.025 35.326C156.519 34.6399 155.867 34.1168 155.089 33.7379C154.293 33.3589 153.424 33.1062 152.465 32.9621C151.524 32.8338 150.575 32.7674 149.625 32.7634C148.593 32.7634 147.562 32.8719 146.549 33.0706C145.537 33.2692 144.614 33.6115 143.799 34.0995C142.998 34.5753 142.312 35.2227 141.791 35.9948C141.267 36.7889 140.959 37.7811 140.887 38.9725H145.989C146.079 37.9625 146.423 37.2585 147.001 36.8251C147.581 36.3916 148.359 36.1756 149.372 36.1756C149.824 36.1756 150.258 36.2113 150.657 36.2658C151.027 36.3144 151.384 36.4372 151.706 36.6269C152.014 36.8072 152.249 37.0599 152.43 37.3849C152.611 37.7098 152.701 38.1423 152.701 38.7021C152.719 39.2252 152.575 39.623 152.23 39.9113C151.887 40.1818 151.434 40.3987 150.856 40.5429C150.277 40.687 149.626 40.7955 148.884 40.8679C148.142 40.9402 147.382 41.0303 146.622 41.1567C145.863 41.283 145.102 41.445 144.343 41.6436C143.583 41.8423 142.913 42.1489 142.334 42.5645C141.737 42.9792 141.267 43.5206 140.887 44.1884C140.507 44.8745 140.326 45.7409 140.326 46.7876C140.326 47.7442 140.488 48.5745 140.814 49.2601C141.12 49.9285 141.578 50.516 142.153 50.9751C142.751 51.4385 143.433 51.7818 144.161 51.9857C144.921 52.2021 145.753 52.3101 146.64 52.3101C147.798 52.3101 148.92 52.1481 150.023 51.8048C151.115 51.4725 152.104 50.8705 152.9 50.0547C152.918 50.3613 152.972 50.6674 153.027 50.9751C153.081 51.2634 153.171 51.5705 153.262 51.8593H158.436C158.201 51.4804 158.02 50.9022 157.93 50.1443C157.834 49.3478 157.786 48.5464 157.785 47.7442L157.784 47.6887ZM136.762 34.8747C136.255 34.2253 135.567 33.7017 134.699 33.3406C133.831 32.9616 132.709 32.7808 131.334 32.7808C130.375 32.7808 129.398 33.0334 128.385 33.5209C127.372 34.0083 126.558 34.8024 125.907 35.867H125.798V26.2116H120.696V51.8216H125.798V42.0939C125.798 40.1986 126.106 38.8452 126.739 38.0149C127.354 37.1847 128.367 36.7879 129.76 36.7879C130.972 36.7879 131.841 37.1669 132.311 37.9243C132.782 38.6822 133.035 39.8196 133.035 41.3533V51.8216H138.137V40.4156C138.137 39.2603 138.028 38.2141 137.829 37.2754C137.63 36.3366 137.268 35.5247 136.762 34.8747ZM109.786 43.8629H109.713L105.335 26.2121H100.052L95.6009 43.6464H95.5284L91.4573 26.2121H85.813L92.6153 51.8221H98.3326L102.602 34.3873H102.675L107.017 51.8221H112.626L115.701 40.4517L119.537 26.2121H114L109.786 43.8629Z"/>
</mask>
<path d="M248.681 44.7828C248.537 45.5051 248.284 46.1189 247.94 46.6603C247.596 47.2012 247.144 47.6352 246.566 47.9775C246.004 48.303 245.299 48.4828 244.466 48.4828C243.652 48.4828 242.946 48.3208 242.386 47.9775C241.827 47.6509 241.35 47.2002 240.993 46.6603C240.649 46.1194 240.395 45.5051 240.233 44.7828C240.073 44.0659 239.995 43.3335 239.998 42.5992C239.998 41.8412 240.071 41.0828 240.215 40.3799C240.36 39.6576 240.613 39.026 240.957 38.4846C241.3 37.9243 241.753 37.4918 242.331 37.1312C242.893 36.7879 243.598 36.6076 244.43 36.6076C245.244 36.6076 245.932 36.7879 246.492 37.1312C247.054 37.4779 247.531 37.9466 247.886 38.5024C248.248 39.0617 248.501 39.7111 248.664 40.4156C248.826 41.1373 248.899 41.8591 248.899 42.5992C248.899 43.3393 248.826 44.061 248.681 44.7828ZM253.494 38.9537C253.15 37.7445 252.644 36.6977 251.957 35.7773C251.25 34.8752 250.382 34.1346 249.333 33.5937C248.283 33.0522 247.017 32.7634 245.552 32.7634C244.394 32.7634 243.344 32.9983 242.386 33.4496C241.426 33.9008 240.63 34.6404 240.015 35.6332H239.943V33.2687H235.094V58.3012H240.196V49.5112H240.268C240.87 50.3943 241.693 51.104 242.657 51.569C243.634 52.0381 244.683 52.2729 245.841 52.2729C247.198 52.2729 248.392 52.0025 249.423 51.4788C250.419 50.9702 251.29 50.2492 251.974 49.367C252.662 48.4828 253.168 47.4717 253.494 46.317C253.839 45.1618 254.001 43.9714 254.001 42.7255C254.001 41.4083 253.839 40.1451 253.494 38.9354V38.9537ZM228.328 44.7828C228.184 45.5051 227.93 46.1189 227.586 46.6603C227.242 47.2017 226.79 47.6352 226.211 47.9775C225.65 48.303 224.945 48.4828 224.113 48.4828C223.298 48.4828 222.611 48.3208 222.032 47.9775C221.472 47.6506 220.996 47.2 220.638 46.6603C220.295 46.1194 220.042 45.5051 219.88 44.7828C219.72 44.066 219.641 43.3335 219.644 42.5992C219.644 41.8412 219.716 41.0828 219.861 40.3799C220.006 39.6576 220.258 39.026 220.603 38.4846C220.947 37.9243 221.399 37.4918 221.978 37.1312C222.538 36.7879 223.244 36.6076 224.076 36.6076C224.891 36.6076 225.577 36.7879 226.139 37.1312C226.701 37.4778 227.177 37.9466 227.532 38.5024C227.894 39.0617 228.147 39.7111 228.31 40.4156C228.473 41.1373 228.545 41.8591 228.545 42.5992C228.545 43.3393 228.473 44.061 228.328 44.7828ZM231.602 35.7773C230.915 34.8752 230.028 34.1346 228.979 33.5937C227.93 33.0522 226.663 32.7634 225.198 32.7634C224.039 32.7634 222.991 32.9983 222.031 33.4496C221.073 33.9008 220.277 34.6404 219.662 35.6332H219.589V33.2687H214.74V58.3012H219.842V49.5112H219.915C220.516 50.3943 221.34 51.104 222.303 51.569C223.28 52.0381 224.329 52.2729 225.487 52.2729C226.862 52.2729 228.038 52.0025 229.07 51.4788C230.065 50.9699 230.935 50.249 231.62 49.367C232.308 48.4828 232.815 47.4717 233.159 46.317C233.493 45.1488 233.663 43.9402 233.665 42.7255C233.665 41.4083 233.502 40.1451 233.159 38.9354C232.815 37.7266 232.308 36.6794 231.602 35.7595V35.7773ZM198.022 41.9136L201.369 32.5103H201.442L204.681 41.9136H198.022ZM198.565 26.1937L188.85 51.8033H194.531L196.54 46.1005H206.146L208.082 51.8033H213.944L204.337 26.1937H198.547H198.565ZM188.434 43.6821C188.09 43.1045 187.656 42.5992 187.095 42.2024C186.552 41.8056 185.918 41.4979 185.213 41.2458C184.498 41.0115 183.774 40.8069 183.042 40.6325C182.318 40.4695 181.612 40.3071 180.925 40.1629C180.237 40.0188 179.604 39.8558 179.079 39.6755C178.537 39.4951 178.103 39.2608 177.777 38.9715C177.433 38.6827 177.27 38.3221 177.27 37.853C177.27 37.474 177.361 37.1669 177.559 36.932C177.758 36.6977 177.994 36.5353 178.265 36.4089C178.537 36.2826 178.844 36.2103 179.188 36.1746C179.5 36.1401 179.814 36.1221 180.129 36.1206C181.033 36.1206 181.829 36.3009 182.499 36.6437C183.169 36.9865 183.549 37.6543 183.603 38.6287H188.452C188.361 37.4735 188.054 36.5353 187.565 35.7768C187.076 35.0184 186.462 34.4234 185.72 33.9722C184.978 33.5209 184.128 33.1964 183.187 32.9977C182.246 32.7991 181.269 32.7089 180.256 32.7089C179.243 32.7089 178.266 32.7996 177.307 32.9794C176.348 33.1597 175.48 33.4669 174.72 33.9182C173.943 34.3695 173.327 34.9654 172.875 35.7228C172.404 36.4807 172.169 37.474 172.169 38.6644C172.169 39.4768 172.332 40.1624 172.676 40.7217C173.002 41.282 173.453 41.7506 173.996 42.1295C174.557 42.4907 175.173 42.7978 175.878 43.0321C176.584 43.2664 177.308 43.4656 178.049 43.6276C179.877 44.0065 181.288 44.3855 182.319 44.7645C183.332 45.1434 183.839 45.721 183.839 46.479C183.839 46.9303 183.73 47.3092 183.513 47.6159C183.301 47.9155 183.022 48.1625 182.699 48.3376C182.373 48.5179 182.011 48.6448 181.613 48.7344C181.24 48.8192 180.857 48.8616 180.474 48.8607C179.967 48.8607 179.479 48.8073 179.026 48.6804C178.556 48.5541 178.14 48.3728 177.778 48.1206C177.416 47.868 177.127 47.543 176.892 47.1462C176.656 46.7494 176.548 46.2798 176.548 45.7384H171.699C171.753 46.9832 172.025 48.0121 172.55 48.8424C173.056 49.6732 173.726 50.3226 174.522 50.8279C175.318 51.3332 176.24 51.6938 177.272 51.9103C178.303 52.1273 179.352 52.2357 180.438 52.2357C181.487 52.2357 182.536 52.1273 183.55 51.9281C184.563 51.73 185.468 51.3688 186.264 50.8635C187.06 50.3582 187.693 49.6905 188.181 48.8781C188.67 48.0483 188.923 47.0377 188.923 45.8102C188.923 44.9443 188.76 44.2225 188.416 43.6444L188.434 43.6821ZM167.319 27.7101H162.217V33.2687H159.123V36.6794H162.217V47.6169C162.217 48.5556 162.38 49.2957 162.688 49.8728C162.996 50.451 163.43 50.8834 163.972 51.2089C164.515 51.5155 165.131 51.732 165.836 51.8405C166.579 51.9507 167.329 52.0049 168.08 52.0025C168.586 52.0025 169.093 51.9846 169.636 51.9668C170.115 51.9506 170.592 51.9023 171.065 51.8221V47.8695C170.815 47.9257 170.561 47.9618 170.306 47.9775C170.029 47.9991 169.751 48.0112 169.473 48.0137C168.605 48.0137 168.044 47.8695 167.755 47.5802C167.465 47.2919 167.32 46.7138 167.32 45.8662V36.6794H171.065V33.2687H167.32L167.319 27.7101ZM152.682 44.6387C152.682 44.927 152.647 45.3064 152.592 45.7939C152.531 46.2924 152.364 46.7724 152.103 47.2017C151.832 47.6714 151.434 48.0682 150.873 48.4115C150.331 48.7538 149.534 48.9168 148.54 48.9168C148.142 48.9168 147.743 48.8801 147.345 48.8083C146.966 48.7354 146.622 48.6091 146.332 48.4293C146.043 48.2485 145.826 48.0142 145.645 47.6892C145.482 47.3826 145.391 47.0036 145.391 46.534C145.391 46.0465 145.482 45.6676 145.645 45.3431C145.808 45.0354 146.042 44.7828 146.315 44.5668C146.586 44.3682 146.911 44.2062 147.291 44.0799C147.671 43.9536 148.033 43.8629 148.431 43.7906C148.84 43.7205 149.25 43.6603 149.661 43.6103C150.077 43.5563 150.458 43.5018 150.838 43.4299C151.217 43.3581 151.561 43.2675 151.887 43.1595C152.213 43.0515 152.484 42.9068 152.701 42.7082V44.6035L152.682 44.6387ZM157.784 47.6887V38.0328C157.784 36.9142 157.531 36.0116 157.025 35.326C156.519 34.6399 155.867 34.1168 155.089 33.7379C154.293 33.3589 153.424 33.1062 152.465 32.9621C151.524 32.8338 150.575 32.7674 149.625 32.7634C148.593 32.7634 147.562 32.8719 146.549 33.0706C145.537 33.2692 144.614 33.6115 143.799 34.0995C142.998 34.5753 142.312 35.2227 141.791 35.9948C141.267 36.7889 140.959 37.7811 140.887 38.9725H145.989C146.079 37.9625 146.423 37.2585 147.001 36.8251C147.581 36.3916 148.359 36.1756 149.372 36.1756C149.824 36.1756 150.258 36.2113 150.657 36.2658C151.027 36.3144 151.384 36.4372 151.706 36.6269C152.014 36.8072 152.249 37.0599 152.43 37.3849C152.611 37.7098 152.701 38.1423 152.701 38.7021C152.719 39.2252 152.575 39.623 152.23 39.9113C151.887 40.1818 151.434 40.3987 150.856 40.5429C150.277 40.687 149.626 40.7955 148.884 40.8679C148.142 40.9402 147.382 41.0303 146.622 41.1567C145.863 41.283 145.102 41.445 144.343 41.6436C143.583 41.8423 142.913 42.1489 142.334 42.5645C141.737 42.9792 141.267 43.5206 140.887 44.1884C140.507 44.8745 140.326 45.7409 140.326 46.7876C140.326 47.7442 140.488 48.5745 140.814 49.2601C141.12 49.9285 141.578 50.516 142.153 50.9751C142.751 51.4385 143.433 51.7818 144.161 51.9857C144.921 52.2021 145.753 52.3101 146.64 52.3101C147.798 52.3101 148.92 52.1481 150.023 51.8048C151.115 51.4725 152.104 50.8705 152.9 50.0547C152.918 50.3613 152.972 50.6674 153.027 50.9751C153.081 51.2634 153.171 51.5705 153.262 51.8593H158.436C158.201 51.4804 158.02 50.9022 157.93 50.1443C157.834 49.3478 157.786 48.5464 157.785 47.7442L157.784 47.6887ZM136.762 34.8747C136.255 34.2253 135.567 33.7017 134.699 33.3406C133.831 32.9616 132.709 32.7808 131.334 32.7808C130.375 32.7808 129.398 33.0334 128.385 33.5209C127.372 34.0083 126.558 34.8024 125.907 35.867H125.798V26.2116H120.696V51.8216H125.798V42.0939C125.798 40.1986 126.106 38.8452 126.739 38.0149C127.354 37.1847 128.367 36.7879 129.76 36.7879C130.972 36.7879 131.841 37.1669 132.311 37.9243C132.782 38.6822 133.035 39.8196 133.035 41.3533V51.8216H138.137V40.4156C138.137 39.2603 138.028 38.2141 137.829 37.2754C137.63 36.3366 137.268 35.5247 136.762 34.8747ZM109.786 43.8629H109.713L105.335 26.2121H100.052L95.6009 43.6464H95.5284L91.4573 26.2121H85.813L92.6153 51.8221H98.3326L102.602 34.3873H102.675L107.017 51.8221H112.626L115.701 40.4517L119.537 26.2121H114L109.786 43.8629Z" fill="#6EBF63" stroke="#FEFEFE" mask="url(#path-1-inside-1_1020_4069)"/>
<path d="M37.9587 67.2348C31.7165 67.2348 25.891 65.3578 21.0243 62.1637L9.19148 65.9349L13.0272 54.5289C9.3365 49.475 7.1659 43.2486 7.1659 36.5347C7.1659 19.6056 20.9702 5.83511 37.9408 5.83511C54.9114 5.83511 68.7158 19.6056 68.7158 36.5347C68.7158 53.4633 54.9114 67.2343 37.9408 67.2343H37.9587V67.2348ZM37.9587 0.0233154C17.7488 0.0233154 1.35772 16.3758 1.35772 36.5352C1.35772 43.4294 3.27557 49.8906 6.60423 55.3953L0.000518799 74.9776L20.2646 68.4986C25.6808 71.4862 31.7695 73.0512 37.9587 73.0466C58.1681 73.0466 74.5597 56.6952 74.5597 36.5352C74.5592 16.3758 58.1681 0.0233154 37.9587 0.0233154Z" fill="#FEFEFE"/>
<path d="M37.9587 5.83521C20.9881 5.83521 7.18376 19.6057 7.18376 36.5348C7.18376 43.2487 9.35487 49.4751 13.0456 54.529L9.20986 65.9351L21.0422 62.1638C25.9088 65.3763 31.7165 67.2349 37.9766 67.2349C54.9472 67.2349 68.7515 53.4639 68.7515 36.5353C68.7515 19.6063 54.9472 5.83571 37.9766 5.83571H37.9587V5.83521Z" fill="url(#paint0_linear_1020_4069)"/>
<path d="M29.3646 21.4292C28.7677 20.0035 28.3153 19.9495 27.411 19.9129C27.0677 19.8908 26.7237 19.8789 26.3796 19.8772C25.2032 19.8772 23.9731 20.22 23.2312 20.9779C22.3269 21.8983 20.0833 24.0458 20.0833 28.4497C20.0833 32.8536 23.3037 37.1129 23.7377 37.7089C24.1901 38.3038 30.0162 47.4723 39.0621 51.2089C46.1361 54.1326 48.2352 53.8617 49.8452 53.5189C52.197 53.0136 55.1463 51.2802 55.8882 49.1873C56.6301 47.0933 56.6301 45.3065 56.4126 44.9275C56.1956 44.5485 55.5982 44.3326 54.6939 43.8808C53.7896 43.4295 49.3928 41.2637 48.5605 40.9749C47.746 40.6682 46.9684 40.7767 46.3536 41.6432C45.4851 42.8524 44.6349 44.0799 43.9471 44.8195C43.4043 45.3971 42.5174 45.4695 41.776 45.1623C40.7808 44.7477 37.9949 43.7723 34.557 40.7222C31.8972 38.3583 30.0882 35.4167 29.5638 34.5325C29.0389 33.6304 29.5096 33.1063 29.9253 32.6193C30.3777 32.0596 30.8117 31.6628 31.2641 31.1391C31.7165 30.616 31.9698 30.345 32.2593 29.7313C32.5672 29.1358 32.3496 28.522 32.1326 28.0708C31.9156 27.6195 30.1065 23.2155 29.3646 21.4292V21.4292Z" fill="#FEFEFE"/>
</g>
<defs>
<linearGradient id="paint0_linear_1020_4069" x1="-224.145" y1="-97.0209" x2="-224.145" y2="-94.7682" gradientUnits="userSpaceOnUse">
<stop stop-color="#6EBF61"/>
<stop offset="0.231" stop-color="#50A557"/>
<stop offset="0.522" stop-color="#2A904F"/>
<stop offset="0.812" stop-color="#50A557"/>
<stop offset="1" stop-color="#6EBF63"/>
</linearGradient>
<clipPath id="clip0_1020_4069">
<rect width="254" height="75" fill="white"/>
</clipPath>
</defs>
</svg>
