<?xml version="1.0" encoding="UTF-8"?>
<svg width="100px" height="100px" viewBox="0 0 100 100" version="1.1" xmlns="http://www.w3.org/2000/svg" xmlns:xlink="http://www.w3.org/1999/xlink">
    <!-- Generator: Sketch 60 (88103) - https://sketch.com -->
    <title>cloudflare logo</title>
    <desc>Created with Sketch.</desc>
    <g id="cloudflare-logo" stroke="none" stroke-width="1" fill="none" fill-rule="evenodd">
        <g id="cloudflare-official-(2)" transform="translate(3.000000, 29.000000)" fill-rule="nonzero">
            <polygon id="Path" fill="#FFFFFF" points="24.4323577 41.9759675 85.899187 41.9759675 85.899187 24.9619675 74.2217886 18.2658049 72.2072846 17.3945854 24.433122 17.7209106"></polygon>
            <path d="M64.638374,39.7436585 C65.2100163,37.7834146 64.9922114,35.9867154 64.0392195,34.6539024 C63.168,33.4288455 61.6983902,32.7204065 59.9276748,32.6393984 L26.4178211,32.2037886 C26.2107052,32.2053678 26.0165236,32.1032575 25.900439,31.9317236 C25.7919187,31.7681789 25.7644065,31.5496098 25.8186667,31.3325691 C25.927187,31.0062439 26.2542764,30.7609268 26.6081138,30.7334146 L60.4175447,30.2978049 C64.4190407,30.106748 68.774374,26.8679512 70.2990081,22.892439 L72.2325041,17.8485366 C72.3148827,17.6307317 72.3410244,17.4129268 72.286,17.195122 C70.1102439,7.34957724 61.3170407,0 50.8096748,0 C41.1192683,0 32.8977073,6.26131707 29.9577236,14.9444715 C28.0525041,13.529122 25.6291382,12.7664228 23.0162439,13.0109756 C18.3620976,13.4740976 14.6326667,17.2027642 14.1695447,21.8576748 C14.0610244,23.0552195 14.1420325,24.2267805 14.4140976,25.3150407 C6.81920325,25.5328455 0.749707317,31.7391382 0.749707317,39.3882927 C0.749707317,40.0760976 0.803203252,40.7486179 0.885739837,41.4287805 C0.939235772,41.7551057 1.21206504,42.0004228 1.53915447,42.0004228 L63.3865691,42.0004228 C63.7404065,42.0004228 64.074374,41.7558699 64.1760163,41.4012683 L64.6391382,39.7406016 L64.638374,39.7436585 Z" id="Path" fill="#F38020"></path>
            <path d="M75.3092846,18.2115447 L74.3845691,18.2390569 C74.1667642,18.2390569 73.9764715,18.4026016 73.8954634,18.6211707 L72.5962764,23.1683252 C72.0246341,25.1285691 72.242439,26.9252683 73.1954309,28.2580813 C74.0666504,29.4831382 75.5362602,30.1915772 77.3069756,30.2725854 L84.438748,30.7081951 C84.6458639,30.706616 84.8400455,30.8087263 84.9561301,30.9802602 C85.0646504,31.1438049 85.0921626,31.3883577 85.0379024,31.5794146 C84.9293821,31.9057398 84.6022927,32.1510569 84.2484553,32.1785691 L76.8171057,32.6141789 C72.7880976,32.8052358 68.4602764,36.0440325 66.9356423,40.0195447 L66.3915122,41.4081463 C66.2829919,41.6802114 66.4732846,41.9522764 66.773626,41.9522764 L92.3064715,41.9522764 C92.6060488,41.9522764 92.8781138,41.7612195 92.9598862,41.4631707 C93.3954959,39.8842764 93.6476911,38.2228455 93.6476911,36.5086829 C93.6476911,26.4361626 85.4268943,18.2153659 75.327626,18.2153659" id="Path" fill="#FAAE40"></path>
        </g>
    </g>
</svg>