<svg xmlns="http://www.w3.org/2000/svg" xmlns:xlink="http://www.w3.org/1999/xlink" width="40" height="40" viewBox="0 0 40 40">
    <defs>
        <path id="a" d="M0 .035h17.206v21.222H0z"/>
        <path id="c" d="M.01.05h16.138v18.974H.01z"/>
    </defs>
    <g fill="none" fill-rule="evenodd">
        <g transform="translate(2 4.146)">
            <mask id="b" fill="#fff">
                <use xlink:href="#a"/>
            </mask>
            <path fill="#2496FF" d="M1.067 21.257H15.871c.737 0 1.335-.598 1.335-1.335V9.29c0-.737-.598-1.335-1.335-1.335h-2.45V1.102c0-.59-.478-1.067-1.068-1.067H1.067C.477.035 0 .513 0 1.102V20.19c0 .589.478 1.067 1.067 1.067zM7.74 3.003c0-.253.205-.457.457-.457h2.745c.253 0 .458.204.458.457v2.745a.458.458 0 0 1-.458.458H8.197a.458.458 0 0 1-.457-.458V3.003zm0 6.27c0-.252.205-.457.457-.457h2.745c.253 0 .458.205.458.457v2.745a.458.458 0 0 1-.458.458H8.197a.458.458 0 0 1-.457-.458V9.273zm0 6.27c0-.252.205-.457.457-.457h2.745c.253 0 .458.205.458.458v2.745a.458.458 0 0 1-.458.457H8.197a.457.457 0 0 1-.457-.457v-2.745zM2.02 3.004c0-.253.205-.457.457-.457h2.745c.253 0 .458.204.458.457v2.745a.457.457 0 0 1-.458.458H2.478a.457.457 0 0 1-.457-.458V3.003zm0 6.27c0-.252.205-.457.457-.457h2.745c.253 0 .458.205.458.457v2.745a.458.458 0 0 1-.458.458H2.478a.457.457 0 0 1-.457-.458V9.273zm0 6.27c0-.252.205-.457.457-.457h2.745c.253 0 .458.205.458.458v2.745a.457.457 0 0 1-.458.457H2.478a.457.457 0 0 1-.457-.457v-2.745z" mask="url(#b)"/>
        </g>
        <g transform="translate(20.951 20.098)">
            <mask id="d" fill="#fff">
                <use xlink:href="#c"/>
            </mask>
            <path fill="#2496FF" d="M15.035 14.676l-2.65-2.113a3.472 3.472 0 0 0-1.496-.692c-.93-.737-1.186-1.842-1.256-2.469.639-.537 1.17-1.352 1.52-2.208.02.016.041.031.065.041.25.106.626-.218.84-.723.157-.375.182-.744.081-.952.092-.461-.004-.86-.238-.927-.097-.028-.205.005-.31.086 0 0 .628-1.516 0-2.872C10.965.491 9.949.051 9.949.051s.677.881.542 1.322c-.136.44-.881-.816-1.017-.985-.135-.168-.339.578-.271.815S9.1.56 7.779.695C6.457.83 5.44 1.1 4.899 1.915c-.543.813-.34 1.118-.916 1.627-.393.346.27.008 1.117-.342a3.512 3.512 0 0 0-.534 1.519c-.104-.08-.212-.114-.31-.086-.233.067-.33.466-.238.927-.1.208-.076.577.082.952.214.505.59.829.84.723a.254.254 0 0 0 .065-.041c.35.856.88 1.671 1.52 2.208-.07.627-.327 1.732-1.256 2.469a3.474 3.474 0 0 0-1.496.692l-2.65 2.113c-.313.25-.54.589-.653.973l-.46 1.573 5.213 1.465a9.059 9.059 0 0 0 2.45.337h.812a9.06 9.06 0 0 0 2.45-.337l5.213-1.465-.46-1.573a1.94 1.94 0 0 0-.653-.973" mask="url(#d)"/>
        </g>
        <path fill="#2496FF" d="M30.146 13.58c.178-.205.267-.49.267-.856a.86.86 0 0 0-.267-.628 2.887 2.887 0 0 0-.676-.487v2.434c.273-.105.498-.26.676-.463M28.151 7.573c-.125.104-.23.243-.314.416a1.105 1.105 0 0 0-.125.479c0 .21.041.374.125.495.084.12.189.227.314.321V7.573z"/>
        <path fill="#2496FF" d="M28.764 17.726a6.863 6.863 0 1 0 0-13.726 6.863 6.863 0 0 0 0 13.726m-2.858-5.199a.773.773 0 0 1 .502-.196c.377 0 .618.194.723.581.157.534.497.906 1.02 1.115v-3.03a5.222 5.222 0 0 1-.73-.425 2.9 2.9 0 0 1-.589-.542 2.363 2.363 0 0 1-.393-.69 2.517 2.517 0 0 1-.14-.872c0-.325.049-.618.148-.88.1-.261.236-.492.409-.69a2.57 2.57 0 0 1 .589-.503c.22-.136.455-.236.706-.299v-.14c0-.503.215-.755.644-.755.45 0 .675.252.675.754v.141c.252.053.495.142.73.267.236.126.443.28.621.464.178.183.32.392.424.628.105.235.157.49.157.762a.76.76 0 0 1-.212.55.7.7 0 0 1-.526.22c-.22 0-.372-.056-.455-.166a1.267 1.267 0 0 1-.197-.385 6.933 6.933 0 0 0-.165-.455c-.062-.157-.188-.277-.377-.361V9.88c.325.147.634.312.927.495.293.183.547.387.762.612.214.226.385.48.51.762.126.283.189.597.189.942 0 .43-.066.812-.197 1.147-.13.335-.306.62-.526.856-.22.235-.474.426-.761.573a3.101 3.101 0 0 1-.904.298v.299c0 .44-.22.66-.66.66-.439 0-.659-.22-.659-.66v-.314a3.631 3.631 0 0 1-.99-.354 3.299 3.299 0 0 1-.784-.573c-.22-.22-.393-.46-.518-.722a1.831 1.831 0 0 1-.189-.801c0-.252.079-.443.236-.574M9.788 35.709h6.937v.421c0 .343.371.558.668.386l2.257-1.302a.446.446 0 0 0 0-.772l-2.257-1.303a.446.446 0 0 0-.668.386v.659H9.788a.572.572 0 0 1-.572-.572v-3.686h.54a.446.446 0 0 0 .386-.669l-.926-1.604v-.103h-.059L8.84 27a.446.446 0 0 0-.772 0l-.317.55h-.06v.103l-.926 1.604a.446.446 0 0 0 .386.669h.54v3.686a2.1 2.1 0 0 0 2.097 2.097"/>
    </g>
</svg>
