<svg xmlns="http://www.w3.org/2000/svg" width="71" height="81" viewBox="0 0 71 81">
    <path fill="#D7D7D7" fill-rule="nonzero" d="M66.5 28.934h-1.923v-9.281c0-.059-.01-.117-.017-.176a1.54 1.54 0 0 0-.372-1.017L48.744.82c-.005-.005-.01-.006-.012-.011a1.524 1.524 0 0 0-.416-.324 1.645 1.645 0 0 0-.31-.13c-.029-.008-.055-.02-.084-.027a1.579 1.579 0 0 0-.36-.045H9.606a3.144 3.144 0 0 0-3.14 3.141v25.509H4.541a4.49 4.49 0 0 0-4.49 4.489v23.346a4.49 4.49 0 0 0 4.49 4.49h1.923V77.24a3.144 3.144 0 0 0 3.141 3.141h51.83a3.145 3.145 0 0 0 3.141-3.14V61.258H66.5a4.49 4.49 0 0 0 4.49-4.49V33.423c0-2.48-2.011-4.49-4.49-4.49zM9.606 3.424h36.385v16.07c0 .868.704 1.571 1.57 1.571h13.875v7.869H9.606V3.424zm23.647 42.61c-3.898-1.357-6.437-3.513-6.437-6.922 0-4.004 3.34-7.066 8.872-7.066 2.645 0 4.594.556 5.985 1.184l-1.182 4.28a11.123 11.123 0 0 0-4.907-1.115c-2.296 0-3.41 1.045-3.41 2.263 0 1.496 1.322 2.157 4.351 3.306 4.14 1.53 6.09 3.687 6.09 6.994 0 3.93-3.028 7.273-9.466 7.273-2.68 0-5.325-.698-6.647-1.428l1.078-4.385c1.428.733 3.62 1.462 5.882 1.462 2.436 0 3.724-1.009 3.724-2.541 0-1.462-1.115-2.297-3.933-3.304zM5.62 44.503c0-8.002 5.708-12.456 12.805-12.456 2.75 0 4.838.556 5.778 1.044l-1.08 4.21c-1.078-.45-2.576-.868-4.455-.868-4.21 0-7.48 2.538-7.48 7.757 0 4.698 2.783 7.655 7.517 7.655 1.6 0 3.374-.347 4.418-.765l.801 4.14c-.975.489-3.166 1.012-6.02 1.012-8.108 0-12.284-5.048-12.284-11.729zM61.436 76.39H9.606v-15.13h51.83v15.13zM57.928 55.88h-6.195L44.217 32.43h5.813l2.852 9.918c.8 2.783 1.531 5.462 2.09 8.385h.103c.591-2.819 1.321-5.602 2.122-8.282L60.19 32.43h5.639L57.928 55.88z"/>
</svg>
