<svg xmlns="http://www.w3.org/2000/svg" width="72" height="72"  viewBox="0 0 72 72">
    <g fill="none" fill-rule="evenodd">
        <path  d="M-558-313H884v923H-558z"/>
        <g fill="#2496FF" fill-rule="nonzero">
            <path d="M39.8 47.186h-2.684v-9.971H39.8c2.647 0 4.786 2.239 4.786 5.004 0 2.747-2.14 4.967-4.786 4.967zm-4.098-11.42H33.2c-2.647 0-4.786-2.239-4.786-5.004 0-2.747 2.14-4.967 4.786-4.967h2.502v9.971zm4.098 0h-2.684v-9.971H39.8c2.647 0 4.786 2.22 4.786 4.967 0 .395.308.733.707.733.38 0 .707-.32.707-.733 0-3.537-2.774-6.435-6.2-6.435h-2.684v-3.593c0-.395-.308-.734-.707-.734-.38 0-.707.32-.707.734v3.593H33.2c-3.408 0-6.2 2.879-6.2 6.435 0 3.556 2.774 6.472 6.2 6.472h2.502v9.971H33.2c-2.647 0-4.786-2.22-4.786-4.967 0-.395-.308-.733-.707-.733-.38 0-.707.32-.707.733 0 3.537 2.774 6.435 6.2 6.435h2.502v3.593c0 .395.308.734.707.734.381 0 .707-.32.707-.734v-3.593H39.8c3.408 0 6.2-2.879 6.2-6.435 0-3.574-2.792-6.472-6.2-6.472z"/>
            <path d="M60.598 63.227l-5.715-5.675a.729.729 0 0 0-1.015 0l-1.428 1.419-4.55-10.006 9.324 4.182.752.336-1.429 1.418a.729.729 0 0 0 0 1.027l5.733 5.675-1.672 1.624zm-14.85-15.419l2.068 4.536a19.788 19.788 0 0 1-11.391 3.565c-10.94 0-19.831-8.829-19.831-19.693s8.89-19.693 19.83-19.693c10.94 0 19.831 8.829 19.831 19.693 0 4.704-1.691 9.221-4.755 12.787l-3.478-1.568-1.315-.579a.268.268 0 0 0-.113-.037.73.73 0 0 0-.714.186.702.702 0 0 0-.132.803zm-9.323 14.187c-14.324 0-25.959-11.574-25.959-25.779 0-14.224 11.654-25.779 25.959-25.779 14.323 0 25.958 11.574 25.958 25.779 0 5.6-1.767 10.901-5.113 15.363l-4.38-1.96a20.992 20.992 0 0 0 4.832-13.403c0-11.667-9.55-21.15-21.297-21.15-11.748 0-21.297 9.483-21.297 21.15 0 11.667 9.549 21.15 21.297 21.15 4.323 0 8.458-1.27 11.992-3.678l1.955 4.275a26.086 26.086 0 0 1-13.947 4.032zm27.368-.915l-5.733-5.675 1.654-1.642a.734.734 0 0 0 .207-.635.7.7 0 0 0-.414-.523l-.883-.392c3.42-4.666 5.225-10.173 5.225-15.978C63.85 21.227 51.556 9 36.425 9 21.312 9 9 21.208 9 36.235c0 15.008 12.293 27.234 27.425 27.234a27.487 27.487 0 0 0 14.549-4.144l.545 1.214c.094.224.3.373.526.41a.728.728 0 0 0 .639-.205l1.654-1.643 5.714 5.694a.729.729 0 0 0 1.015 0l2.688-2.67c.32-.298.32-.765.038-1.045z"/>
        </g>
    </g>
</svg>
