<svg xmlns="http://www.w3.org/2000/svg" xmlns:xlink="http://www.w3.org/1999/xlink" width="40" height="40" viewBox="0 0 40 40">
    <defs>
        <path id="a" d="M.003.011H36V25H.003z"/>
    </defs>
    <g fill="none" fill-rule="evenodd" transform="translate(2 10)">
        <mask id="b" fill="#fff">
            <use xlink:href="#a"/>
        </mask>
        <path fill="#2496FF" d="M1.263 16.66V1.534c0-.84.69-1.522 1.541-1.522h15.31c.85 0 1.54.681 1.54 1.522v15.128a.51.51 0 0 1-.514.507H1.777a.51.51 0 0 1-.514-.507zm12.362 5.183c0 1.744-1.43 3.157-3.196 3.157-1.765 0-3.196-1.413-3.196-3.157 0-1.743 1.43-3.157 3.196-3.157 1.765 0 3.196 1.414 3.196 3.157zm-1.598 0c0-.872-.715-1.578-1.598-1.578-.883 0-1.598.706-1.598 1.578 0 .872.715 1.579 1.598 1.579.883 0 1.598-.707 1.598-1.579zm-4.35-3.157H.513a.51.51 0 0 0-.514.508v1.539c0 .28.23.507.514.507h5.74a4.15 4.15 0 0 1 1.422-2.554zm22.672 3.157c0 1.744-1.43 3.157-3.196 3.157-1.765 0-3.196-1.413-3.196-3.157 0-1.743 1.43-3.157 3.196-3.157 1.765 0 3.196 1.414 3.196 3.157zm-1.598 0c0-.872-.715-1.578-1.598-1.578-.883 0-1.598.706-1.598 1.578 0 .872.715 1.579 1.598 1.579.883 0 1.598-.707 1.598-1.579zM36 19.193v1.54a.51.51 0 0 1-.514.507h-4.159c-.297-2.015-2.053-3.568-4.174-3.568-2.121 0-3.877 1.553-4.175 3.568h-8.374a4.152 4.152 0 0 0-1.422-2.554h7.941V4.174c0-.56.46-1.015 1.027-1.015H27c1.366 0 2.642.67 3.406 1.788l3.126 4.573c.459.671.704 1.462.704 2.272v6.894h1.25a.51.51 0 0 1 .514.508zm-5.211-9.555l-2.5-3.51a.516.516 0 0 0-.42-.214h-3.9a.51.51 0 0 0-.514.507V9.93c0 .28.23.507.514.507h6.4c.416 0 .66-.463.42-.8z" mask="url(#b)"/>
    </g>
</svg>
