<svg width="20" height="20" viewBox="0 0 24 24" fill="none" xmlns="http://www.w3.org/2000/svg">
<path fill-rule="evenodd" clip-rule="evenodd" d="M12.0006 1C11.8306 1 11.6662 1.05859 11.5379 1.16498L9.24613 3.06318C9.17479 3.12236 9.0917 3.16726 9.00181 3.1952C8.91192 3.22315 8.81707 3.23357 8.72287 3.22585L5.69856 2.97455C5.52923 2.96068 5.36035 3.00559 5.22296 3.10102C5.08556 3.19644 4.98889 3.33598 4.95071 3.49398L4.26636 6.31436C4.24509 6.4023 4.2055 6.48525 4.14995 6.5583C4.0944 6.63134 4.02402 6.69298 3.943 6.73955L1.34199 8.23164C1.19617 8.31528 1.08694 8.44639 1.03443 8.6008C0.981927 8.75521 0.989677 8.92253 1.05626 9.07192L2.24152 11.7375C2.27839 11.8205 2.29739 11.9098 2.29739 12C2.29739 12.0902 2.27839 12.1795 2.24152 12.2625L1.05626 14.9281C0.990003 15.0773 0.982426 15.2444 1.03492 15.3986C1.08741 15.5527 1.19644 15.6836 1.34199 15.7672L3.943 17.2593C4.02414 17.306 4.09459 17.3678 4.15015 17.4411C4.20571 17.5143 4.24523 17.5975 4.26636 17.6856L4.95071 20.506C4.98889 20.664 5.08556 20.8036 5.22296 20.899C5.36035 20.9944 5.52923 21.0393 5.69856 21.0254L8.72287 20.7741C8.81699 20.7663 8.9118 20.7765 9.00168 20.8043C9.09157 20.832 9.17469 20.8767 9.24613 20.9357L11.5367 22.835C11.6651 22.9414 11.8294 23 11.9994 23C12.1694 23 12.3338 22.9414 12.4621 22.835L14.7539 20.9357C14.8253 20.8767 14.9084 20.832 14.9983 20.8043C15.0882 20.7765 15.183 20.7663 15.2771 20.7741L18.3014 21.0254C18.4708 21.0393 18.6396 20.9944 18.777 20.899C18.9144 20.8036 19.0111 20.664 19.0493 20.506L19.7336 17.6856C19.7549 17.5977 19.7945 17.5147 19.8501 17.4417C19.9056 17.3687 19.976 17.307 20.057 17.2604L22.658 15.7684C22.8038 15.6847 22.9131 15.5536 22.9656 15.3992C23.0181 15.2448 23.0103 15.0775 22.9437 14.9281L21.7585 12.2625C21.7216 12.1795 21.7026 12.0902 21.7026 12C21.7026 11.9098 21.7216 11.8205 21.7585 11.7375L22.9437 9.07192C23.01 8.92266 23.0176 8.7556 22.9651 8.60144C22.9126 8.44728 22.8036 8.31637 22.658 8.23276L20.057 6.74067C19.9759 6.69397 19.9054 6.63216 19.8498 6.55892C19.7943 6.48567 19.7548 6.4025 19.7336 6.31436L19.0493 3.49398C19.0111 3.33598 18.9144 3.19644 18.777 3.10102C18.6396 3.00559 18.4708 2.96068 18.3014 2.97455L15.2771 3.22585C15.1829 3.23357 15.0881 3.22315 14.9982 3.1952C14.9083 3.16726 14.8252 3.12236 14.7539 3.06318L12.4633 1.16498C12.3349 1.05859 12.1706 1 12.0006 1ZM15.8303 10.3303C16.1232 10.0374 16.1232 9.56256 15.8303 9.26967C15.5374 8.97678 15.0626 8.97678 14.7697 9.26967L9.8 14.2393L8.13033 12.5697C7.83744 12.2768 7.36256 12.2768 7.06967 12.5697C6.77678 12.8626 6.77678 13.3374 7.06967 13.6303L9.26967 15.8303C9.56256 16.1232 10.0374 16.1232 10.3303 15.8303L15.8303 10.3303Z" fill="#2772F0"/>
</svg>
