<svg width="277" height="192" viewBox="0 0 277 192" fill="none" xmlns="http://www.w3.org/2000/svg">
<g clip-path="url(#clip0_79_428)">
<path d="M228.912 164.138C230.032 155.143 235.616 146.28 244.208 143.352C240.819 152.611 240.82 162.768 244.21 172.026C245.53 175.592 247.37 179.421 246.129 183.014C245.356 185.251 243.466 186.961 241.353 188.031C239.24 189.101 236.894 189.611 234.579 190.111L234.123 190.487C230.447 182.199 227.791 173.133 228.912 164.138Z" fill="#F0F0F0"/>
<path d="M244.293 143.522C239.29 149.12 236.18 156.15 235.405 163.613C235.21 165.216 235.269 166.841 235.58 168.426C235.934 169.961 236.692 171.373 237.777 172.515C238.766 173.601 239.905 174.598 240.613 175.905C240.966 176.58 241.172 177.321 241.217 178.08C241.263 178.84 241.147 179.6 240.877 180.312C240.252 182.103 239.02 183.563 237.765 184.948C236.371 186.487 234.899 188.063 234.307 190.102C234.235 190.349 233.856 190.224 233.927 189.977C234.958 186.428 238.408 184.413 240.053 181.217C240.821 179.725 241.143 177.994 240.423 176.42C239.794 175.043 238.621 174.015 237.609 172.924C236.534 171.824 235.746 170.479 235.312 169.005C234.921 167.441 234.799 165.821 234.952 164.216C235.239 160.597 236.094 157.046 237.486 153.692C239.053 149.855 241.266 146.314 244.028 143.223C244.199 143.032 244.463 143.332 244.293 143.522Z" fill="white"/>
<path d="M235.513 161.195C234.276 160.895 233.187 160.167 232.439 159.139C231.691 158.111 231.333 156.851 231.43 155.585C231.45 155.328 231.85 155.348 231.829 155.605C231.738 156.784 232.071 157.957 232.769 158.913C233.468 159.869 234.485 160.543 235.638 160.816C235.889 160.875 235.762 161.254 235.513 161.195Z" fill="white"/>
<path d="M237.202 172.031C239.435 170.7 241.084 168.577 241.819 166.086C241.891 165.839 242.271 165.964 242.199 166.211C241.429 168.802 239.709 171.007 237.382 172.388C237.16 172.519 236.981 172.162 237.202 172.031Z" fill="white"/>
<path d="M239.424 150.234C239.878 150.449 240.379 150.549 240.881 150.523C241.383 150.498 241.871 150.348 242.301 150.088C242.521 149.954 242.7 150.311 242.481 150.445C242.005 150.73 241.465 150.894 240.911 150.924C240.356 150.953 239.802 150.846 239.298 150.613C239.249 150.595 239.208 150.559 239.185 150.512C239.161 150.465 239.156 150.411 239.171 150.361C239.188 150.31 239.224 150.269 239.271 150.245C239.319 150.221 239.373 150.217 239.424 150.234Z" fill="white"/>
<path d="M270.398 159.419C270.263 159.507 270.128 159.594 269.993 159.685C268.183 160.874 266.473 162.206 264.88 163.671C264.755 163.782 264.63 163.897 264.508 164.011C260.707 167.581 257.603 171.824 255.353 176.524C254.46 178.396 253.71 180.332 253.111 182.317C252.284 185.058 251.605 188.096 249.967 190.338C249.799 190.574 249.616 190.8 249.42 191.013H234.618C234.585 190.996 234.551 190.982 234.517 190.966L233.926 190.993C233.95 190.888 233.977 190.78 234 190.676C234.014 190.615 234.031 190.554 234.044 190.494C234.054 190.453 234.065 190.413 234.071 190.376C234.075 190.362 234.078 190.349 234.081 190.338C234.088 190.301 234.098 190.268 234.105 190.234C234.254 189.63 234.407 189.027 234.564 188.423C234.564 188.42 234.564 188.42 234.568 188.417C235.78 183.821 237.387 179.286 239.633 175.138C239.701 175.014 239.768 174.886 239.843 174.761C240.865 172.897 242.039 171.12 243.351 169.447C244.073 168.533 244.841 167.656 245.651 166.82C247.75 164.664 250.175 162.85 252.837 161.446C258.146 158.647 264.292 157.575 269.966 159.284C270.111 159.328 270.253 159.372 270.398 159.419Z" fill="#F0F0F0"/>
<path d="M270.365 159.607C262.994 161.068 256.272 164.811 251.153 170.305C250.03 171.468 249.098 172.8 248.391 174.253C247.748 175.691 247.502 177.274 247.678 178.838C247.814 180.301 248.122 181.78 247.9 183.25C247.774 184.001 247.492 184.716 247.07 185.35C246.648 185.984 246.097 186.521 245.453 186.928C243.874 187.982 242.009 188.406 240.172 188.758C238.132 189.149 236.006 189.522 234.304 190.795C234.097 190.949 233.87 190.62 234.076 190.466C237.038 188.253 241.008 188.717 244.249 187.154C245.762 186.425 247.063 185.236 247.437 183.547C247.765 182.069 247.448 180.543 247.298 179.064C247.103 177.54 247.285 175.992 247.828 174.554C248.459 173.07 249.338 171.704 250.428 170.514C252.839 167.797 255.663 165.475 258.797 163.634C262.362 161.513 266.264 160.016 270.334 159.208C270.586 159.158 270.615 159.557 270.365 159.607Z" fill="white"/>
<path d="M252.697 168.439C251.891 167.457 251.461 166.22 251.483 164.95C251.506 163.679 251.98 162.459 252.82 161.505C252.991 161.313 253.298 161.569 253.127 161.761C252.343 162.648 251.901 163.785 251.883 164.968C251.864 166.151 252.27 167.301 253.026 168.212C253.19 168.41 252.861 168.636 252.697 168.439Z" fill="white"/>
<path d="M247.512 178.106C250.098 178.386 252.694 177.682 254.783 176.135C254.99 175.981 255.218 176.31 255.011 176.463C252.834 178.069 250.131 178.796 247.441 178.499C247.184 178.471 247.257 178.078 247.512 178.106Z" fill="white"/>
<path d="M262.43 162.038C262.663 162.483 263.002 162.864 263.419 163.145C263.835 163.427 264.315 163.601 264.815 163.651C265.072 163.676 264.999 164.069 264.744 164.044C264.191 163.986 263.662 163.793 263.201 163.483C262.74 163.173 262.363 162.755 262.101 162.265C262.072 162.221 262.062 162.168 262.071 162.117C262.081 162.065 262.109 162.019 262.152 161.988C262.195 161.958 262.249 161.946 262.301 161.956C262.353 161.965 262.4 161.995 262.43 162.038Z" fill="white"/>
<path d="M181.106 118.724C181.412 118.408 181.645 118.029 181.789 117.614C181.932 117.198 181.983 116.756 181.937 116.319C181.891 115.881 181.749 115.46 181.522 115.083C181.296 114.706 180.989 114.384 180.623 114.138L183.36 103.806L178.088 105.576L176.297 115.117C175.925 115.757 175.801 116.511 175.948 117.236C176.095 117.962 176.504 118.608 177.097 119.053C177.689 119.497 178.425 119.71 179.164 119.649C179.903 119.589 180.594 119.259 181.106 118.724Z" fill="#9E616A"/>
<path d="M205.498 188.124L201.825 188.124L200.078 173.981L205.498 173.982L205.498 188.124Z" fill="#9E616A"/>
<path d="M206.434 191.678L194.593 191.678V191.528C194.593 190.308 195.079 189.137 195.943 188.274C196.808 187.411 197.98 186.927 199.202 186.927L206.434 186.927L206.434 191.678Z" fill="#2F2E41"/>
<path d="M188.125 188.124L184.452 188.124L182.705 173.981L188.125 173.982L188.125 188.124Z" fill="#9E616A"/>
<path d="M189.061 191.678L177.22 191.678V191.528C177.22 190.308 177.706 189.137 178.57 188.274C179.434 187.411 180.607 186.927 181.829 186.927L189.061 186.927L189.061 191.678Z" fill="#2F2E41"/>
<path d="M186.082 102.913L184.673 103.302C184.673 103.302 180.99 127.137 180.691 139.698C180.391 152.259 181.589 183.961 181.589 183.961H189.377L195.667 130.128L198.663 183.961H207.05C207.05 183.961 213.04 113.38 210.345 107.698C207.649 102.016 186.082 102.913 186.082 102.913Z" fill="#2F2E41"/>
<path d="M197.317 60.8538C201.203 60.8538 204.354 57.7082 204.354 53.8278C204.354 49.9474 201.203 46.8018 197.317 46.8018C193.431 46.8018 190.28 49.9474 190.28 53.8278C190.28 57.7082 193.431 60.8538 197.317 60.8538Z" fill="#9E616A"/>
<path d="M215.137 70.015L204.215 62.8882L192.897 63.3332L181.889 69.4169L186.082 92.7444L184.285 106.203C184.285 106.203 200.46 104.408 204.054 107.1C206.153 108.697 208.629 109.727 211.243 110.09L210.644 87.062L215.137 70.015Z" fill="#3F3D56"/>
<path d="M183.985 69.118L182.854 68.8835L181.889 69.4171C181.889 69.4171 179.193 73.0059 179.193 76.2957C179.193 79.5855 175.898 111.287 175.898 111.287L181.889 113.979L186.681 89.1557L183.985 69.118Z" fill="#3F3D56"/>
<path d="M203.479 48.6764C203.479 48.6764 205.32 45.1634 201.271 44.8441C201.271 44.8441 197.819 41.7176 194.3 44.2725C194.3 44.2725 192.381 44.2725 191.332 46.4409C191.332 46.4409 189.822 45.8693 189.491 47.399C189.491 47.399 188.386 50.5926 189.491 53.4669C190.595 56.3412 190.962 56.6606 190.962 56.6606C190.962 56.6606 189.147 50.6345 193.565 50.3151C197.982 49.9957 202.926 47.2393 203.294 50.7523C203.662 54.2653 204.216 55.1309 204.216 55.1309C204.216 55.1309 207.713 50.1136 203.479 48.6764Z" fill="#2F2E41"/>
<path d="M112.546 90.0093H25.3813V24.812H112.546V90.0093Z" fill="white"/>
<path d="M112.546 90.0093H25.3813V24.812H112.546V90.0093ZM26.28 25.7092V89.1121H111.647V25.7092H26.28Z" fill="#E6E6E6"/>
<path d="M68.9364 74.1043C78.1027 74.1043 85.5334 66.6851 85.5334 57.5331C85.5334 48.3811 78.1027 40.9619 68.9364 40.9619C59.7702 40.9619 52.3395 48.3811 52.3395 57.5331C52.3395 66.6851 59.7702 74.1043 68.9364 74.1043Z" fill="#377DFF"/>
<path d="M75.8284 56.1416H70.1854V50.5074C70.1854 50.1558 70.0455 49.8186 69.7965 49.57C69.5475 49.3213 69.2098 49.1816 68.8576 49.1816C68.5054 49.1816 68.1677 49.3213 67.9187 49.57C67.6696 49.8186 67.5297 50.1558 67.5297 50.5074V56.1416H61.8868C61.5346 56.1416 61.1969 56.2813 60.9479 56.5299C60.6989 56.7786 60.559 57.1158 60.559 57.4674C60.559 57.819 60.6989 58.1562 60.9479 58.4049C61.1969 58.6535 61.5346 58.7932 61.8868 58.7932H67.5297V64.4273C67.5297 64.779 67.6696 65.1162 67.9187 65.3648C68.1677 65.6134 68.5054 65.7531 68.8576 65.7531C69.2098 65.7531 69.5475 65.6134 69.7965 65.3648C70.0455 65.1162 70.1854 64.779 70.1854 64.4273V58.7932H75.8284C76.1805 58.7932 76.5183 58.6535 76.7673 58.4049C77.0163 58.1562 77.1562 57.819 77.1562 57.4674C77.1562 57.1158 77.0163 56.7786 76.7673 56.5299C76.5183 56.2813 76.1805 56.1416 75.8284 56.1416Z" fill="white"/>
<path d="M32.5712 24.54H0V0H32.5712V24.54Z" fill="white"/>
<path d="M32.5712 24.54H0V0H32.5712V24.54ZM0.59907 23.9418H31.9721V0.598141H0.59907V23.9418Z" fill="#E6E6E6"/>
<path d="M28.2749 6.68359H4.2959V8.27973H28.2749V6.68359Z" fill="#E4E4E4"/>
<path d="M28.2749 11.4717H4.2959V13.0678H28.2749V11.4717Z" fill="#E4E4E4"/>
<path d="M28.2749 16.2603H4.2959V17.8564H28.2749V16.2603Z" fill="#E4E4E4"/>
<path d="M249.135 191.72H216.564V167.18H249.135V191.72Z" fill="white"/>
<path d="M249.135 191.72H216.564V167.18H249.135V191.72ZM217.163 191.122H248.536V167.779H217.163V191.122Z" fill="#E6E6E6"/>
<path d="M244.839 173.864H220.86V175.46H244.839V173.864Z" fill="#E4E4E4"/>
<path d="M244.839 178.652H220.86V180.248H244.839V178.652Z" fill="#E4E4E4"/>
<path d="M244.839 183.44H220.86V185.037H244.839V183.44Z" fill="#E4E4E4"/>
<path d="M229.354 147.687L205.026 126.065L221.368 107.735L245.696 129.358L229.354 147.687Z" fill="white"/>
<path d="M229.354 147.687L205.026 126.065L221.368 107.735L245.696 129.358L229.354 147.687ZM205.872 126.016L229.305 146.843L244.851 129.407L221.417 108.579L205.872 126.016Z" fill="#E6E6E6"/>
<path d="M220.126 115.579L219.063 116.771L236.974 132.69L238.036 131.498L220.126 115.579Z" fill="#E4E4E4"/>
<path d="M216.937 119.155L215.874 120.348L233.785 136.266L234.848 135.074L216.937 119.155Z" fill="#E4E4E4"/>
<path d="M213.748 122.732L212.686 123.924L230.596 139.843L231.659 138.651L213.748 122.732Z" fill="#E4E4E4"/>
<path d="M51.0128 38.8955H14.6772V11.5193H51.0128V38.8955Z" fill="white"/>
<path d="M51.0128 38.8955H14.6772V11.5193H51.0128V38.8955ZM15.3456 38.2282H50.3445V12.1865H15.3456V38.2282Z" fill="#E6E6E6"/>
<path d="M46.22 18.9753H19.4696V20.756H46.22V18.9753Z" fill="#377DFF"/>
<path d="M46.22 24.3167H19.4696V26.0973H46.22V24.3167Z" fill="#377DFF"/>
<path d="M46.22 29.6587H19.4696V31.4393H46.22V29.6587Z" fill="#377DFF"/>
<path d="M145.31 110.563H89.8606V68.7861H145.31V110.563Z" fill="white"/>
<path d="M145.31 110.563H89.8606V68.7861H145.31V110.563ZM90.8804 109.545H144.29V69.8044H90.8804V109.545Z" fill="#E6E6E6"/>
<path d="M137.996 80.1643H97.174V82.8816H137.996V80.1643Z" fill="#377DFF"/>
<path d="M137.996 88.3157H97.174V91.0329H137.996V88.3157Z" fill="#377DFF"/>
<path d="M137.996 96.4673H97.174V99.1845H137.996V96.4673Z" fill="#377DFF"/>
<path d="M276.643 192H132.778C132.684 192 132.594 191.962 132.527 191.895C132.46 191.829 132.423 191.738 132.423 191.644C132.423 191.55 132.46 191.459 132.527 191.393C132.594 191.326 132.684 191.288 132.778 191.288H276.643C276.738 191.288 276.829 191.325 276.896 191.392C276.963 191.459 277 191.549 277 191.644C277 191.738 276.963 191.829 276.896 191.896C276.829 191.963 276.738 192 276.643 192Z" fill="#CACACA"/>
<path d="M211.413 118.499C211.199 118.115 211.071 117.689 211.04 117.25C211.008 116.812 211.073 116.371 211.23 115.961C211.387 115.55 211.632 115.179 211.949 114.873C212.265 114.567 212.645 114.334 213.061 114.191L213.079 103.504L217.718 106.569L216.989 116.248C217.184 116.962 217.11 117.723 216.781 118.386C216.452 119.049 215.89 119.569 215.203 119.846C214.515 120.124 213.75 120.14 213.052 119.891C212.353 119.643 211.77 119.148 211.413 118.499Z" fill="#9E616A"/>
<path d="M211.842 71.2115L213.914 69.2173L215.437 70.3143C215.437 70.3143 216.934 72.1087 218.132 77.492C219.331 82.8752 218.132 112.483 218.132 112.483L211.543 111.586L212.441 96.0343L209.745 82.8752L211.842 71.2115Z" fill="#3F3D56"/>
</g>
<defs>
<clipPath id="clip0_79_428">
<rect width="277" height="192" fill="white"/>
</clipPath>
</defs>
</svg>
