<svg xmlns="http://www.w3.org/2000/svg" width="10" height="12" viewBox="0 0 10 12">
    <g fill="#2296ff" fill-rule="nonzero">
        <path d="M8.572 1.436h-1.92C6.555.629 5.848 0 4.991 0 4.138 0 3.43.629 3.335 1.436h-1.92c-.778 0-1.41.614-1.41 1.37v.07c0 .577.37 1.07.89 1.272v6.468c0 .755.633 1.37 1.41 1.37h5.377c.777 0 1.41-.615 1.41-1.37V4.148c.52-.202.89-.695.89-1.272v-.07c0-.756-.632-1.37-1.41-1.37zM4.992.649c.488 0 .894.34.984.787H4.01a.996.996 0 0 1 .983-.787zm3.43 9.967c0 .397-.332.72-.74.72H2.303a.732.732 0 0 1-.74-.72V4.245h6.858v6.371zm.89-7.74c0 .397-.332.72-.74.72H1.413a.732.732 0 0 1-.74-.72v-.07c0-.398.332-.72.74-.72h7.159c.408 0 .74.322.74.72v.07z"/>
        <path d="M3.2 10.506a.33.33 0 0 0 .335-.325V6.525a.33.33 0 0 0-.334-.324.33.33 0 0 0-.335.324v3.656c0 .18.15.325.335.325zM4.993 10.506a.33.33 0 0 0 .334-.325V6.525a.33.33 0 0 0-.334-.324.33.33 0 0 0-.335.324v3.656c0 .18.15.325.335.325zM6.785 10.506a.33.33 0 0 0 .334-.325V6.525a.33.33 0 0 0-.334-.324.33.33 0 0 0-.335.324v3.656c0 .18.15.325.335.325z"/>
    </g>
</svg>
