<svg width="73" height="28" viewBox="0 0 73 28" fill="none" xmlns="http://www.w3.org/2000/svg">
    <path fill-rule="evenodd" clip-rule="evenodd" d="M20.824 20.426a6.48 6.48 0 0 0-6.48 6.48l6.294-.03.186-6.45M18.63 1.883V6.66h3.67v20.859h38.692V6.658h3.521V1.884H18.63" fill="#D2DDF7"/>
    <path fill-rule="evenodd" clip-rule="evenodd" d="M36.71 26.232h6.59V12.144h-6.59v14.088zm-.643.643h7.876V11.5h-7.876v15.374z" fill="#fff"/>
    <path fill-rule="evenodd" clip-rule="evenodd" d="M70.38 26.875h2.25v-.643h-2.25v.643zM56.987 26.875h11.196v-.643H56.987v.643zM5.219 26.732h42.5v-.5h-42.5v.5zM0 26.875h3.165v-.643H0v.643z" fill="#4B80E4"/>
    <path fill-rule="evenodd" clip-rule="evenodd" d="M8.898 26.554h.643V10.908h-.643v15.646z" fill="#3DBC79"/>
    <path fill-rule="evenodd" clip-rule="evenodd" d="M59.706 26.554h-.643V6.016h-38.05v20.538h-.643V5.374h39.336v21.18" fill="#4B80E4"/>
    <path fill-rule="evenodd" clip-rule="evenodd" d="M17.344 5.373h45.24V1.241h-45.24v4.132zm-.643.643h46.527V.598H16.7v5.418zM47.322 18.942h7.644v-6.798h-7.644v6.798zm-.643.643h8.93V11.5h-8.93v8.084zM24.82 18.942h7.645v-6.798H24.82v6.798zm-.642.643h8.93V11.5h-8.93v8.084zM41.344 20.07h1.071v-.642h-1.071v.643z" fill="#4B80E4"/>
    <path fill-rule="evenodd" clip-rule="evenodd" d="M15.63 10.172c0 4.756-2.351 8.611-5.25 8.611-2.9 0-5.25-3.855-5.25-8.61 0-4.756 2.35-8.611 5.25-8.611 2.899 0 5.25 3.855 5.25 8.61" fill="#3DBC79"/>
    <path fill-rule="evenodd" clip-rule="evenodd" d="M64.335 26.523h-.643a4.368 4.368 0 0 0-4.363-4.363v-.643a5.012 5.012 0 0 1 5.006 5.006M9.094 1.24c-2.718 0-4.929 3.718-4.929 8.29 0 4.57 2.211 8.289 4.929 8.289 2.717 0 4.928-3.72 4.928-8.29 0-4.57-2.21-8.288-4.928-8.288zm0 17.222c-3.072 0-5.572-4.007-5.572-8.933 0-4.924 2.5-8.931 5.572-8.931s5.571 4.007 5.571 8.931c0 4.926-2.5 8.933-5.571 8.933zM13.347 26.584h-.643c0-4.508 3.583-8.175 7.988-8.175v.643c-4.05 0-7.345 3.38-7.345 7.532" fill="#4B80E4"/>
    <path fill-rule="evenodd" clip-rule="evenodd" d="M25.821 18.357h.643v-5.464h-.643v5.464zM48.415 18.357h.643v-5.464h-.643v5.464z" fill="#fff"/>
</svg>
