<svg xmlns="http://www.w3.org/2000/svg" xmlns:xlink="http://www.w3.org/1999/xlink" width="130" height="98" viewBox="0 0 130 98">
    <defs>
        <path id="a" d="M.005.124h95.15v56.181H.004z"/>
    </defs>
    <g fill="none" fill-rule="evenodd">
        <path fill="#FFF" d="M103.108 11.583c-1.153 0-2.089-.709-2.089-1.583 0-.875.936-1.583 2.09-1.583h-9.115c1.154 0 2.089.708 2.089 1.583 0 .874-.935 1.583-2.089 1.583h9.114M118.473 91.17V29.166c0-1.122-.925-2.04-2.054-2.04H13.635c-1.13 0-2.055.918-2.055 2.04v62.006h106.893"/>
        <path fill="#2496FF" d="M11.843 90.91H118.21V29.165c0-.981-.804-1.78-1.792-1.78H13.635c-.989 0-1.792.799-1.792 1.78V90.91zm106.63.522H11.58a.262.262 0 0 1-.262-.261V29.165a2.312 2.312 0 0 1 2.317-2.301h102.784a2.312 2.312 0 0 1 2.317 2.301v62.006c0 .144-.117.26-.263.26z"/>
        <path fill="#FFF" d="M123.84 97.707H6.206c-3.22 0-5.84-2.603-5.84-5.801v-.348c0-.188.154-.34.343-.34h128.635c.189 0 .342.152.342.34v.34c0 3.203-2.622 5.809-5.846 5.809"/>
        <path fill="#2496FF" d="M.71 91.478a.08.08 0 0 0-.08.08v.348c0 3.055 2.5 5.54 5.576 5.54H123.84c3.08 0 5.584-2.489 5.584-5.548v-.34a.08.08 0 0 0-.08-.08H.71zm123.13 6.49H6.206c-3.364 0-6.101-2.72-6.101-6.062v-.348c0-.331.271-.601.604-.601h128.635c.333 0 .605.27.605.6v.341c0 3.347-2.74 6.07-6.11 6.07z"/>
        <path fill="#2496FF" d="M50.5 91.48c.25.716.93 1.208 1.718 1.208h25.618c.787 0 1.467-.493 1.718-1.208H50.5zm27.336 1.73H52.218a2.333 2.333 0 0 1-2.314-1.948.26.26 0 0 1 .259-.303H79.89a.263.263 0 0 1 .258.303 2.333 2.333 0 0 1-2.313 1.947z"/>
        <path fill="#F0F9FC" d="M17.452 88.233h95.15V32.052h-95.15z"/>
        <g transform="translate(17.447 31.928)">
            <mask id="b" fill="#fff">
                <use xlink:href="#a"/>
            </mask>
            <path fill="#FFF" d="M-45.776 57.44l-14.287-6.605 150.171-69.43 14.287 6.606-150.17 69.43M-27.502 65.39l-7.143-3.303 150.17-69.43 7.145 3.303-150.172 69.43M-5.631 75.501l-12.043-5.568L132.498.503l12.042 5.568L-5.63 75.501" mask="url(#b)"/>
        </g>
        <path fill="#2496FF" d="M17.714 87.973h94.625v-55.66H17.714v55.66zm94.888.52h-95.15a.262.262 0 0 1-.262-.26V32.052c0-.144.117-.26.262-.26h95.15c.145 0 .262.116.262.26v56.181c0 .144-.117.26-.262.26z"/>
        <path fill="#2496FF" d="M73.088 36.307a.262.262 0 0 1-.262-.26c0-.547 0-1.09.002-1.626.014-8.471.026-15.787-3.64-19.437-1.724-1.715-4.18-2.549-7.505-2.549-3.463 0-5.99.843-7.725 2.575-3.504 3.5-3.469 10.374-3.427 18.335.004.887.01 1.788.01 2.702 0 .144-.118.26-.263.26a.262.262 0 0 1-.263-.26c0-.913-.004-1.814-.009-2.7-.042-8.076-.078-15.052 3.58-18.705 1.838-1.835 4.487-2.728 8.097-2.728 3.472 0 6.048.884 7.876 2.702 3.82 3.802 3.808 11.218 3.793 19.805l-.001 1.626c0 .144-.118.26-.263.26"/>
        <path fill="#FFF" d="M85.043 33.418v-4.171H39.947v53.714l2.803.989 1.098 2.587h45.441V35.108l-4.246-1.69"/>
        <path fill="#BBDFF5" d="M86.408 34.773v-4.17H41.312v53.713l2.803.99 1.098 2.587h45.44V36.464l-4.245-1.69"/>
        <path fill="#2496FF" d="M40.21 82.777l2.628.927c.07.025.125.077.154.144l.594 1.4v-50.14a.26.26 0 0 1 .036-.131l2.1-3.559-5.512-1.81v53.169zm3.638 4.021a.262.262 0 0 1-.242-.16l-1.053-2.481-2.694-.95a.26.26 0 0 1-.174-.246V29.247a.26.26 0 0 1 .109-.211.264.264 0 0 1 .236-.036l6.164 2.025a.261.261 0 0 1 .144.379l-2.228 3.775v51.358a.261.261 0 0 1-.262.261z"/>
        <path fill="#2496FF" d="M44.11 86.277h44.917V35.369H44.11v50.908zm45.18.521H43.847a.262.262 0 0 1-.262-.26v-51.43c0-.144.117-.26.262-.26h45.441c.145 0 .263.116.263.26v51.43c0 .143-.118.26-.263.26z"/>
        <path fill="#2496FF" d="M44.306 34.848h43.623l-9-3.584a.26.26 0 0 1 .024-.491l4.286-1.265H41.577l4.617 1.517a.261.261 0 0 1 .144.379l-2.032 3.444zm44.983.521H43.848a.262.262 0 0 1-.228-.131.259.259 0 0 1 .002-.261l2.1-3.559-5.857-1.924a.26.26 0 0 1 .082-.508h45.096a.26.26 0 1 1 .075.51l-5.293 1.563 9.562 3.807a.26.26 0 0 1-.098.503z"/>
        <path fill="#2496FF" d="M79.824 31.06l4.956 1.979v-3.443l-4.956 1.463zm5.219 2.625a.263.263 0 0 1-.098-.019l-6.015-2.402a.26.26 0 0 1 .023-.491l6.015-1.776a.264.264 0 0 1 .232.041.26.26 0 0 1 .105.209v4.177a.26.26 0 0 1-.262.26zM77.345 41.761a.262.262 0 0 1-.262-.26c0-.547 0-1.09.002-1.626.014-8.471.027-15.787-3.64-19.437-1.724-1.715-4.179-2.549-7.505-2.549-3.463 0-5.99.843-7.725 2.575-3.504 3.5-3.468 10.374-3.427 18.335.005.887.01 1.788.01 2.702 0 .144-.118.26-.263.26a.262.262 0 0 1-.262-.26c0-.913-.005-1.814-.01-2.7-.042-8.076-.078-15.052 3.58-18.705 1.839-1.835 4.487-2.728 8.097-2.728 3.472 0 6.049.884 7.876 2.702 3.82 3.802 3.808 11.218 3.793 19.805l-.001 1.626c0 .144-.118.26-.263.26"/>
        <path fill="#2496FF" d="M54.517 41.786a.762.762 0 0 0-.764.758c0 .418.343.759.764.759.42 0 .763-.34.763-.759a.762.762 0 0 0-.763-.758zm0 2.038c-.71 0-1.288-.574-1.288-1.28 0-.705.577-1.28 1.288-1.28.71 0 1.288.575 1.288 1.28 0 .706-.578 1.28-1.288 1.28zM77.35 41.786a.762.762 0 0 0-.765.758c0 .418.343.759.764.759s.763-.34.763-.759a.762.762 0 0 0-.763-.758zm0 2.038c-.711 0-1.29-.574-1.29-1.28 0-.705.579-1.28 1.29-1.28.71 0 1.287.575 1.287 1.28 0 .706-.578 1.28-1.288 1.28zM46.899 65.248a.261.261 0 0 1-.263-.26v-7.119c0-.144.118-.26.263-.26.145 0 .262.116.262.26v7.119c0 .144-.117.26-.262.26M46.899 71.414a.261.261 0 0 1-.263-.261v-2.582c0-.144.118-.26.263-.26.145 0 .262.116.262.26v2.582c0 .144-.117.26-.262.26M46.899 56a.261.261 0 0 1-.263-.26V40.984c0-.144.118-.26.263-.26.145 0 .262.116.262.26v14.754c0 .144-.117.261-.262.261M86.8 76.505a.262.262 0 0 1-.262-.26v-7.119c0-.144.118-.26.263-.26.144 0 .262.116.262.26v7.118c0 .144-.118.261-.262.261M84.435 84.165H77.27a.262.262 0 1 1 0-.524h7.165a.262.262 0 1 1 0 .524M86.8 82.67a.261.261 0 0 1-.262-.26v-2.582c0-.144.118-.261.263-.261.144 0 .262.117.262.26v2.583c0 .144-.118.26-.262.26M81.27 14.405a.26.26 0 0 1-.21-.417 33.826 33.826 0 0 1 6.68-6.68.263.263 0 0 1 .369.05.26.26 0 0 1-.051.366 33.307 33.307 0 0 0-6.578 6.577.262.262 0 0 1-.21.104M70.967 9.786c-.011 0-.023 0-.034-.002a.261.261 0 0 1-.227-.292A33.545 33.545 0 0 1 73.227.414a.263.263 0 0 1 .345-.135.26.26 0 0 1 .136.342 33.017 33.017 0 0 0-2.481 8.938.262.262 0 0 1-.26.227M55.167 9.601a.262.262 0 0 1-.26-.227A33.031 33.031 0 0 0 52.426.437a.26.26 0 0 1 .136-.343.263.263 0 0 1 .345.135 33.55 33.55 0 0 1 2.52 9.078.261.261 0 0 1-.26.294M40.803 14.883a.263.263 0 0 1-.235-.143 33.194 33.194 0 0 0-5.309-7.625.26.26 0 0 1 .015-.369.263.263 0 0 1 .37.015 33.712 33.712 0 0 1 5.393 7.745.26.26 0 0 1-.234.377M65.177 69.471a.392.392 0 0 1-.393-.39v-4.224c0-.216.176-.391.393-.391.218 0 .394.175.394.39v4.224a.392.392 0 0 1-.394.391M65.177 59.449a.392.392 0 0 1-.393-.391v-4.179c0-.216.176-.39.393-.39.218 0 .394.174.394.39v4.179a.392.392 0 0 1-.394.39"/>
        <path fill="#6A79A8" d="M70.231 67.392a.393.393 0 0 1-.278-.115l-3.006-2.986a.39.39 0 0 1 0-.553.395.395 0 0 1 .556 0l3.007 2.986c.153.153.153.4 0 .553a.394.394 0 0 1-.279.115"/>
        <path fill="#2496FF" d="M63.13 60.337a.393.393 0 0 1-.278-.114l-3.007-2.987a.389.389 0 0 1 0-.553.395.395 0 0 1 .557 0l3.007 2.987a.39.39 0 0 1 0 .553.393.393 0 0 1-.279.114M72.325 62.37h-4.252a.392.392 0 0 1-.394-.39c0-.216.177-.391.394-.391h4.252c.217 0 .393.175.393.39a.392.392 0 0 1-.393.392M62.282 62.37H58.03a.392.392 0 0 1-.394-.39c0-.216.177-.391.394-.391h4.252c.217 0 .393.175.393.39a.392.392 0 0 1-.393.392M67.225 60.337a.39.39 0 0 1-.278-.667l3.006-2.987a.395.395 0 0 1 .557 0c.153.152.153.4 0 .553l-3.007 2.986a.393.393 0 0 1-.278.115M60.123 67.392a.394.394 0 0 1-.278-.115.389.389 0 0 1 0-.553l3.007-2.987a.395.395 0 0 1 .556 0c.154.153.154.4 0 .553l-3.006 2.987a.393.393 0 0 1-.279.115"/>
        <path fill="#FFF" d="M78.664 72.48l-4.869-4.838 2.877-2.858-10.513-2.2-.055.056 2.213 10.444 2.877-2.858 4.87 4.837 2.6-2.584"/>
        <path fill="#2496FF" d="M70.242 69.334c.067 0 .134.026.186.077l4.683 4.653 2.23-2.216-4.684-4.652a.26.26 0 0 1 0-.369l2.535-2.518-9.716-2.032 2.046 9.652 2.535-2.518a.262.262 0 0 1 .185-.077zm4.87 5.359a.263.263 0 0 1-.186-.076l-4.684-4.653-2.692 2.674a.264.264 0 0 1-.442-.13l-2.213-10.445a.26.26 0 0 1 .071-.238l.056-.055a.263.263 0 0 1 .239-.07l10.513 2.198a.26.26 0 1 1 .131.44l-2.691 2.673 4.684 4.653a.26.26 0 0 1 0 .369l-2.601 2.584a.263.263 0 0 1-.186.076zM71.697 47.785a.26.26 0 0 1-.235-.375l3.63-7.364a3.03 3.03 0 0 1 4.035-1.374l7.413 3.606a.26.26 0 0 1 .12.35.263.263 0 0 1-.351.119l-7.412-3.607a2.502 2.502 0 0 0-3.334 1.135l-3.63 7.363a.263.263 0 0 1-.236.147"/>
        <path fill="#FFF" d="M90.406 48.68L72.28 54.848l-2.321-6.733 18.124-6.167 2.322 6.732"/>
        <path fill="#2496FF" d="M70.293 48.277l2.151 6.24 17.628-5.999-2.15-6.24-17.63 6zm1.988 6.831a.262.262 0 0 1-.248-.176L69.71 48.2a.262.262 0 0 1 .163-.331L88 41.701a.264.264 0 0 1 .334.162l2.32 6.733a.26.26 0 0 1-.162.331l-18.125 6.167a.261.261 0 0 1-.085.014z"/>
        <path fill="#FF9C81" d="M75.455 51.295c.084-.017.18-.05.319-.097.368-.125.646-.374.516-.75-.124-.36-.5-.393-.905-.255l-.277.094.347 1.008zm-.546-1.586l.266-.09c.427-.146.596-.399.505-.664-.093-.27-.35-.342-.719-.217a2.34 2.34 0 0 0-.34.14l.288.831zm-1.278-1.093c.2-.115.62-.294 1.026-.432.496-.169.817-.225 1.131-.16.297.047.562.23.674.553.11.318.025.678-.33.965l.004.01c.45-.028.86.176 1.019.637a1 1 0 0 1-.112.885c-.19.296-.588.561-1.303.805-.4.136-.708.211-.899.246l-1.21-3.51zM78.716 46.832l.71 2.057c.212.615.554.848.97.706.427-.145.56-.522.342-1.153l-.709-2.056.811-.276.691 2.003c.38 1.103 0 1.819-.938 2.138-.908.309-1.613-.008-2.006-1.148L77.9 47.11l.816-.278M84.676 48.796l-.504-1.463-1.864-1.723.928-.316.665.734c.201.221.342.387.513.59l.01-.004c.004-.25.018-.486.037-.777l.067-.982.912-.31-.466 2.486.514 1.49-.812.275"/>
    </g>
</svg>
