<svg xmlns="http://www.w3.org/2000/svg" width="18" height="14" viewBox="0 0 18 14">
    <path fill="#2296FF" fill-rule="nonzero" stroke="#2296FF" stroke-width=".2" d="M15.465 1H2.514C1.694 1 1 1.665 1 2.496v9.08c0 .811.673 1.497 1.514 1.497h12.972c.82 0 1.514-.665 1.514-1.496v-9.08A1.53 1.53 0 0 0 15.465 1zM1.42 3.41l4.941 3.574-4.94 3.658V3.41zm15.138 8.146c0 .582-.483 1.08-1.093 1.08H2.514a1.093 1.093 0 0 1-1.094-1.08v-.395L6.72 7.234l1.535 1.101c.21.166.483.229.735.229.253 0 .526-.083.736-.25l1.64-1.226-.21.291 5.32 3.844.105-.124v.457h-.022zm0-.748l-5.15-3.72 5.15-3.823v7.543zm0-7.876l-.105-.124-6.98 5.195a.828.828 0 0 1-.967 0L1.42 2.89v-.395c0-.582.484-1.08 1.094-1.08h12.972c.589 0 1.094.478 1.094 1.08v.436h-.022z"/>
</svg>
