<svg width="14" height="14" viewBox="0 0 14 14" fill="none" xmlns="http://www.w3.org/2000/svg">
    <path d="m5.081 4.498 1.336-1.342V8.75a.583.583 0 1 0 1.167 0V3.156l1.335 1.342a.583.583 0 0 0 .957-.19.583.583 0 0 0-.128-.638L7.414 1.336a.583.583 0 0 0-.192-.122.583.583 0 0 0-.443 0 .583.583 0 0 0-.193.122L4.253 3.67a.586.586 0 1 0 .828.828zm7.17 3.669a.583.583 0 0 0-.584.583v2.334a.583.583 0 0 1-.583.583H2.917a.583.583 0 0 1-.583-.583V8.75a.583.583 0 1 0-1.167 0v2.334a1.75 1.75 0 0 0 1.75 1.75h8.167a1.75 1.75 0 0 0 1.75-1.75V8.75a.583.583 0 0 0-.584-.583z" fill="#8A94A6"/>
</svg>
