<svg width="24" height="24" viewBox="0 0 24 24" fill="none" xmlns="http://www.w3.org/2000/svg">
<path d="M9.60003 5.99999C9.6003 6.85094 9.29913 7.67448 8.74995 8.32449C8.20077 8.9745 7.43908 9.40896 6.60003 9.55079V14.4492C7.49007 14.5996 8.29111 15.0789 8.84442 15.7922C9.39772 16.5054 9.66291 17.4004 9.58742 18.2999C9.51193 19.1994 9.10129 20.0377 8.43685 20.6487C7.77242 21.2597 6.9027 21.5988 6.00003 21.5988C5.09737 21.5988 4.22764 21.2597 3.56321 20.6487C2.89878 20.0377 2.48813 19.1994 2.41264 18.2999C2.33716 17.4004 2.60234 16.5054 3.15564 15.7922C3.70895 15.0789 4.50999 14.5996 5.40003 14.4492V9.55199C4.72337 9.43761 4.09349 9.13221 3.58463 8.67176C3.07576 8.21132 2.7091 7.61502 2.52785 6.95312C2.34661 6.29122 2.35833 5.59131 2.56163 4.93586C2.76493 4.2804 3.15135 3.69671 3.67534 3.25355C4.19934 2.8104 4.83909 2.52626 5.5192 2.4346C6.19931 2.34294 6.89146 2.44758 7.51408 2.7362C8.1367 3.02482 8.66385 3.48539 9.03342 4.06364C9.40299 4.64189 9.59958 5.31373 9.60003 5.99999ZM14.2248 8.22479C14.1691 8.28066 14.1029 8.325 14.03 8.35524C13.9571 8.38549 13.879 8.40106 13.8 8.40106C13.7211 8.40106 13.643 8.38549 13.5701 8.35524C13.4972 8.325 13.431 8.28066 13.3752 8.22479L10.9752 5.82479C10.9194 5.76905 10.875 5.70284 10.8448 5.62995C10.8145 5.55706 10.799 5.47891 10.799 5.39999C10.799 5.32107 10.8145 5.24292 10.8448 5.17003C10.875 5.09713 10.9194 5.03092 10.9752 4.97519L13.3752 2.57519C13.4879 2.46252 13.6407 2.39923 13.8 2.39923C13.9594 2.39923 14.1122 2.46252 14.2248 2.57519C14.3375 2.68785 14.4008 2.84066 14.4008 2.99999C14.4008 3.15932 14.3375 3.31213 14.2248 3.42479L12.8484 4.79999H15C16.1139 4.79999 17.1822 5.24249 17.9699 6.03014C18.7575 6.81779 19.2 7.88608 19.2 8.99999V14.604C20.0512 14.9033 20.7589 15.5113 21.1832 16.3075C21.6076 17.1037 21.7176 18.0302 21.4915 18.9036C21.2654 19.7771 20.7196 20.5338 19.9623 21.0242C19.2049 21.5145 18.2911 21.7027 17.4016 21.5515C16.5122 21.4002 15.7118 20.9207 15.1591 20.2076C14.6063 19.4946 14.3413 18.6 14.4165 17.7009C14.4917 16.8018 14.9017 15.9637 15.5653 15.3525C16.2289 14.7412 17.0978 14.4013 18 14.4V8.99999C18 8.20434 17.684 7.44128 17.1214 6.87867C16.5587 6.31606 15.7957 5.99999 15 5.99999H12.8484L14.2248 7.37519C14.2807 7.43092 14.325 7.49713 14.3553 7.57003C14.3855 7.64292 14.4011 7.72107 14.4011 7.79999C14.4011 7.87891 14.3855 7.95706 14.3553 8.02995C14.325 8.10284 14.2807 8.16905 14.2248 8.22479Z" fill="black"/>
</svg>
