<svg xmlns="http://www.w3.org/2000/svg" xmlns:xlink="http://www.w3.org/1999/xlink" width="24" height="24" viewBox="0 0 24 24">
    <defs>
        <path id="a" d="M.016.059h23.96v23.683H.015z"/>
    </defs>
    <g fill="none" fill-rule="evenodd">
        <mask id="b" fill="#fff">
            <use xlink:href="#a"/>
        </mask>
        <path fill="#2396FF" d="M23.873.715C23.68.278 23.346.06 22.869.06H1.106C.63.059.295.278.102.715c-.193.46-.113.852.238 1.177l8.383 8.293v8.174c0 .292.108.544.323.757l4.353 4.306c.204.213.459.32.765.32.136 0 .277-.028.425-.084.443-.19.664-.521.664-.992V10.185l8.382-8.293c.352-.325.43-.717.238-1.177z" mask="url(#b)"/>
    </g>
</svg>
