<svg width="14" height="14" viewBox="0 0 14 14" fill="none" xmlns="http://www.w3.org/2000/svg">
    <path fill="#fff" d="M0 0h14v14H0z"/>
    <path fill-rule="evenodd" clip-rule="evenodd" d="M2.49 1.75a.583.583 0 0 0-.447.956L6.01 7.468c.262.315.405.711.405 1.12v2.495c0 .184.087.357.234.467l.933.7V8.589c0-.41.144-.806.406-1.12l3.968-4.763a.583.583 0 0 0-.448-.956H2.49zM1.147 3.453c-.95-1.14-.14-2.87 1.345-2.87h9.018c1.484 0 2.294 1.73 1.344 2.87L8.885 8.215a.584.584 0 0 0-.135.374v3.66c0 .962-1.098 1.51-1.867.934l-.933-.7c-.44-.33-.7-.85-.7-1.4V8.589a.583.583 0 0 0-.135-.374L1.146 3.453z" fill="#8A94A6"/>
</svg>
