<svg xmlns="http://www.w3.org/2000/svg" width="20" height="20" viewBox="0 0 20 20">
    <g fill="#474747" fill-rule="evenodd">
        <path d="M19.546.02H4.575a.411.411 0 0 0-.416.406v10.17H.416a.411.411 0 0 0-.416.406v8.543c0 .224.186.406.416.406h8.733c.23 0 .416-.182.416-.406v-4.068h9.981c.23 0 .416-.182.416-.407V.426a.411.411 0 0 0-.416-.407zM8.733 19.137H.832v-7.729h3.327v3.661c0 .225.186.407.416.407h4.158v3.66zM4.99 14.663h3.743V11.41H4.99v3.254zm14.14 0H9.565v-3.66a.411.411 0 0 0-.416-.407H4.99V.833h14.14v13.83z"/>
        <path d="M17.051 2.053h-3.743a.411.411 0 0 0-.416.407c0 .225.187.407.416.407h2.74l-4.373 4.276.588.575 4.372-4.276v2.679c0 .225.186.407.416.407.23 0 .416-.182.416-.407v-3.66a.411.411 0 0 0-.416-.408z"/>
    </g>
</svg>
