<svg width="40" height="40" viewBox="0 0 40 40" fill="none" xmlns="http://www.w3.org/2000/svg">
    <circle cx="20" cy="20" r="20" fill="#E5F1FF"/>
    <g clip-path="url(#dpyjgmg3na)">
        <path d="M18.933 18.333v2.133H12v-2.133h6.933zm2.134 0v2.133H28v-2.133h-6.933zm-8 3.2v4.8a1.6 1.6 0 0 0 1.6 1.6h4.266v-6.4h-5.866zm8 0v6.4h4.266a1.6 1.6 0 0 0 1.6-1.6v-4.8h-5.866zM23.2 13a3.2 3.2 0 0 0-3.2 2.4 3.2 3.2 0 0 0-3.2-2.4 2.07 2.07 0 0 0-2.133 2.133 1.845 1.845 0 0 0 2.037 2.133h6.539a1.867 1.867 0 0 0 2.133-2.133A2.133 2.133 0 0 0 23.2 13zm-6.4 3.2a.981.981 0 0 1-1.067-1.067.981.981 0 0 1 1.067-1.067c1.178 0 2.133.955 2.133 2.134H16.8zm6.4 0h-2.133c0-1.179.955-2.134 2.133-2.134.59 0 1.067.478 1.067 1.067A.981.981 0 0 1 23.2 16.2z" fill="#377DFF"/>
    </g>
    <defs>
        <clipPath id="dpyjgmg3na">
            <path fill="#fff" transform="translate(12 13)" d="M0 0h16v16H0z"/>
        </clipPath>
    </defs>
</svg>
