<?xml version="1.0" encoding="UTF-8"?>
<svg width="50px" height="36px" viewBox="0 0 50 36" version="1.1" xmlns="http://www.w3.org/2000/svg" xmlns:xlink="http://www.w3.org/1999/xlink">
    <!-- Generator: Sketch 60 (88103) - https://sketch.com -->
    <title>giftcard</title>
    <desc>Created with Sketch.</desc>
    <g id="Web" stroke="none" stroke-width="1" fill="none" fill-rule="evenodd">
        <g id="giftcard" fill="#16449B" fill-rule="nonzero">
            <path d="M45.1171875,0 L4.8828125,0 C2.19042969,0 0,2.19042969 0,4.8828125 L0,30.6640625 C0,33.3564453 2.19042969,35.546875 4.8828125,35.546875 L20.0195312,35.546875 C20.5588867,35.546875 20.9960938,35.109668 20.9960938,34.5703125 C20.9960938,34.030957 20.5588867,33.59375 20.0195312,33.59375 L4.8828125,33.59375 C3.26738281,33.59375 1.953125,32.2794922 1.953125,30.6640625 L1.953125,18.75 L23.1776367,18.75 C23.3341797,19.5425781 23.805957,20.2410156 24.5056641,20.684668 C24.7334961,20.8291016 24.9758789,20.9388672 25.2256836,21.0162109 L23.5063477,23.9730469 C23.3074219,24.3150391 23.3345703,24.7432617 23.575,25.0574219 C23.8154297,25.371582 24.2216797,25.5095703 24.6037109,25.4071289 L26.9421875,24.7794922 L27.5678711,27.118457 C27.6699219,27.5000977 27.9918945,27.7826172 28.3835937,27.8342773 C28.4264648,27.8399414 28.4691406,27.8426758 28.5116211,27.8426758 C28.8571289,27.8426758 29.1811523,27.659082 29.3570312,27.3543945 L33.809375,19.6426758 L39.3874023,29.5600586 C39.5618164,29.8701172 39.8887695,30.0579102 40.2382812,30.0579102 C40.2789062,30.0579102 40.3197266,30.0553711 40.3607422,30.0501953 C40.7546875,30.0004883 41.0792969,29.7172852 41.1819336,29.3336914 L41.8077148,26.9946289 L44.1461914,27.6222656 C44.5264648,27.7242187 44.9308594,27.5880859 45.1717773,27.2765625 C45.4126953,26.9651367 45.4429687,26.5395508 45.2487305,26.1970703 L42.3769531,21.1364258 C42.4676758,21.1448242 42.5585938,21.15 42.6495117,21.15 C43.2045898,21.15 43.7568359,20.9935547 44.2443359,20.6845703 C44.944043,20.2410156 45.415918,19.5424805 45.5723633,18.7499023 L48.046875,18.7499023 L48.046875,30.6639648 C48.046875,32.2793945 46.7326172,33.5936523 45.1171875,33.5936523 L35.3515625,33.5936523 L35.3515625,28.3202148 C35.3515625,27.7808594 34.9143555,27.3436523 34.375,27.3436523 C33.8356445,27.3436523 33.3984375,27.7808594 33.3984375,28.3202148 L33.3984375,33.5936523 L28.3237305,33.5936523 C27.784375,33.5936523 27.347168,34.0308594 27.347168,34.5702148 C27.347168,35.1095703 27.784375,35.546875 28.3237305,35.546875 L45.1171875,35.546875 C47.8095703,35.546875 50,33.3563477 50,30.6639648 L50,4.8828125 C50,2.19042969 47.8095703,0 45.1171875,0 Z M25.5514648,19.0349609 C25.2476562,18.8423828 25.0734375,18.5256836 25.0734375,18.165918 L25.0734375,11.3238281 L25.0733398,11.3238281 C25.0733398,10.9640625 25.2475586,10.6473633 25.5513672,10.4547852 C25.8551758,10.2621094 26.2160156,10.2397461 26.5413086,10.3932617 L31.3327148,12.6539063 C31.2144531,12.974707 31.1498047,13.3211914 31.1498047,13.6825195 L31.1498047,15.7714844 C31.1498047,16.1443359 31.2191406,16.5010742 31.3447266,16.8302734 L26.5414063,19.0964844 C26.2161133,19.2498047 25.8553711,19.2275391 25.5514648,19.0349609 Z M28.8451172,24.3348633 L28.5764648,23.3305664 C28.5094727,23.0802734 28.3458008,22.8666992 28.1213867,22.737207 C27.8969727,22.6075195 27.6302734,22.5725586 27.3799805,22.6397461 L26.3858398,22.906543 L27.6495117,20.7333008 L32.1505859,18.609668 L28.8451172,24.3348633 Z M27.3748047,8.62675781 C26.4457031,8.18847656 25.3732422,8.25517578 24.5057617,8.80507812 C23.6382812,9.35498047 23.1203125,10.296582 23.1203125,11.3237305 L23.1203125,16.796875 L1.953125,16.796875 L1.953125,4.8828125 C1.953125,3.26738281 3.26738281,1.953125 4.8828125,1.953125 L33.3984375,1.953125 L33.3984375,10.319043 C33.3984375,10.4805664 33.4382813,10.6324219 33.5077148,10.7666016 C33.1946289,10.8335938 32.8999023,10.95 32.6314453,11.1069336 L27.3748047,8.62675781 Z M34.6332031,16.8003906 L34.1318359,16.8003906 C33.5644531,16.8003906 33.102832,16.3387695 33.102832,15.7714844 L33.102832,13.6824219 C33.102832,13.1150391 33.5644531,12.6535156 34.1318359,12.6535156 L34.6332031,12.6535156 C35.2005859,12.6535156 35.662207,13.1150391 35.662207,13.6824219 L35.662207,15.7714844 C35.662207,16.3388672 35.2005859,16.8003906 34.6332031,16.8003906 Z M42.3979492,25.1307617 L41.3700195,24.8548828 C41.1197266,24.7876953 40.8530273,24.8228516 40.6286133,24.9523437 C40.4041992,25.0819336 40.2404297,25.2954102 40.1735352,25.5457031 L39.9146484,26.5132813 L35.4807617,18.6300781 C35.6958008,18.5662109 35.9006836,18.4787109 36.0925781,18.3705078 L39.4644531,19.9614258 L42.3979492,25.1307617 Z M43.1986328,19.0350586 C42.8947266,19.2277344 42.5339844,19.2500977 42.2086914,19.096582 L37.4180664,16.8363281 C37.5450195,16.5053711 37.615332,16.146582 37.615332,15.7714844 L37.615332,13.6824219 C37.615332,13.3188477 37.549707,12.9703125 37.4300781,12.6478516 L42.2086914,10.3932617 C42.534082,10.2398438 42.8947266,10.262207 43.1986328,10.4547852 C43.5024414,10.6473633 43.6766602,10.9641602 43.6766602,11.3238281 L43.6766602,18.1660156 L43.6766602,18.1660156 C43.6766602,18.5256836 43.5024414,18.8424805 43.1986328,19.0350586 Z M48.0469727,16.796875 L45.6297852,16.796875 L45.6297852,11.3238281 C45.6297852,10.2966797 45.1118164,9.35507813 44.2443359,8.80517578 C43.3767578,8.25527344 42.3041992,8.18867188 41.375293,8.62685547 L36.1269531,11.1030273 C35.8564453,10.9458008 35.5594727,10.8293945 35.2439453,10.7634766 C35.3123047,10.6300781 35.3516602,10.4792969 35.3516602,10.319043 L35.3516602,1.953125 L45.1172852,1.953125 C46.7327148,1.953125 48.0469727,3.26738281 48.0469727,4.8828125 L48.0469727,16.796875 Z" id="Shape"></path>
            <path d="M24.7871094,33.8798828 C24.6054687,33.6982422 24.3535156,33.59375 24.0966797,33.59375 C23.8398438,33.59375 23.5878906,33.6982422 23.40625,33.8798828 C23.2246094,34.0615234 23.1201172,34.3134766 23.1201172,34.5703125 C23.1201172,34.8271484 23.2246094,35.0791016 23.40625,35.2607422 C23.5878906,35.4423828 23.8398438,35.546875 24.0966797,35.546875 C24.3535156,35.546875 24.6054688,35.4423828 24.7871094,35.2607422 C24.9697266,35.0791016 25.0732422,34.8271484 25.0732422,34.5703125 C25.0732422,34.3134766 24.9697266,34.0615234 24.7871094,33.8798828 Z" id="Path"></path>
            <path d="M20.6542969,5.2734375 L6.25,5.2734375 C5.71064453,5.2734375 5.2734375,5.71064453 5.2734375,6.25 C5.2734375,6.78935547 5.71064453,7.2265625 6.25,7.2265625 L20.6542969,7.2265625 C21.1936523,7.2265625 21.6308594,6.78935547 21.6308594,6.25 C21.6308594,5.71064453 21.1936523,5.2734375 20.6542969,5.2734375 Z" id="Path"></path>
            <path d="M20.6542969,27.34375 L6.25,27.34375 C5.71064453,27.34375 5.2734375,27.780957 5.2734375,28.3203125 C5.2734375,28.859668 5.71064453,29.296875 6.25,29.296875 L20.6542969,29.296875 C21.1936523,29.296875 21.6308594,28.859668 21.6308594,28.3203125 C21.6308594,27.780957 21.1936523,27.34375 20.6542969,27.34375 Z" id="Path"></path>
            <path d="M12.3046875,10.546875 L6.25,10.546875 C5.71064453,10.546875 5.2734375,10.984082 5.2734375,11.5234375 C5.2734375,12.062793 5.71064453,12.5 6.25,12.5 L12.3046875,12.5 C12.844043,12.5 13.28125,12.062793 13.28125,11.5234375 C13.28125,10.984082 12.844043,10.546875 12.3046875,10.546875 Z" id="Path"></path>
            <path d="M16.7734375,10.8330078 C16.5917969,10.6513672 16.3398438,10.546875 16.0830078,10.546875 C15.8251953,10.546875 15.5742188,10.6513672 15.3925781,10.8330078 C15.2109375,11.0146484 15.1064453,11.2666016 15.1064453,11.5234375 C15.1064453,11.7802734 15.2109375,12.0322266 15.3925781,12.2138672 C15.5742188,12.3955078 15.8251953,12.5 16.0830078,12.5 C16.3398438,12.5 16.5917969,12.3955078 16.7734375,12.2138672 C16.9550781,12.0322266 17.0595703,11.7802734 17.0595703,11.5234375 C17.0595703,11.2666016 16.9550781,11.0146484 16.7734375,10.8330078 Z" id="Path"></path>
        </g>
    </g>
</svg>