<?xml version="1.0" encoding="UTF-8"?>
<svg width="100px" height="100px" viewBox="0 0 100 100" version="1.1" xmlns="http://www.w3.org/2000/svg" xmlns:xlink="http://www.w3.org/1999/xlink">
    <!-- Generator: Sketch 60 (88103) - https://sketch.com -->
    <title>godaddy logo</title>
    <desc>Created with Sketch.</desc>
    <defs>
        <polygon id="path-1" points="0 0.803246377 41.0397681 0.803246377 41.0397681 27.6767536 0 27.6767536"></polygon>
    </defs>
    <g id="godaddy-logo" stroke="none" stroke-width="1" fill="none" fill-rule="evenodd">
        <g id="GoDaddy-logo" transform="translate(18.000000, 2.000000)">
            <path d="M26.7770435,10.0229565 C26.7547826,9.88289855 26.7473623,9.72985507 26.7473623,9.57681159 C26.7037681,7.36185507 28.8046377,4.9382029 28.8704928,2.47652174 L28.8825507,2.46724638 L28.8825507,2.40973913 C28.8621449,1.97472464 28.556058,1.68997101 28.2527536,1.55547826 C27.9411014,1.41449275 27.5784348,1.35791304 27.1786667,1.35791304 C26.2186667,1.36997101 25.0202899,1.71501449 24.3802899,2.69634783 C23.3414493,4.86307246 21.6941449,7.14202899 21.6793043,9.4924058 C21.6718841,10.2353623 21.8601739,10.9894493 22.2988986,11.7036522 C23.2069565,13.708058 24.435942,15.5046957 25.3848116,17.6547246 C25.5526957,18.0452174 25.6268986,18.3967536 25.6268986,18.7251014 C25.6268986,19.3669565 25.3375072,19.9633623 24.8255072,20.5412174 C24.6696812,20.7536232 23.6336232,20.710029 23.1058551,21.5726377 L23.0808116,21.6255072 L23.0733913,21.6876522 L23.0381449,22.0104348 C23.0455652,22.912 23.7477101,23.4796522 24.5027246,23.7708986 C24.947942,23.9406377 25.3681159,24.0083478 25.7864348,24.0083478 C27.378087,23.9990725 28.7183768,23.0112464 29.4177391,21.8898551 C29.9417971,21.005913 30.1588406,20.1266087 30.1588406,19.264 C30.1041159,15.9211594 27.1341449,12.9929275 26.7770435,10.0229565" id="Fill-20" fill="#E06E2D"></path>
            <g id="Group-24">
                <mask id="mask-2" fill="white">
                    <use xlink:href="#path-1"></use>
                </mask>
                <g id="Clip-22"></g>
                <path d="M38.9787826,14.0929855 C37.2646957,11.6275942 37.0003478,11.2575072 36.0709565,9.38852174 C35.8557681,8.94144928 35.4355942,8.27362319 35.4355942,7.50469565 C35.4485797,6.91756522 35.6563478,6.24973913 36.5050435,5.48823188 C36.9873623,5.05043478 37.1654493,4.37889855 37.1654493,3.69901449 C37.1654493,2.88185507 36.889971,2.00718841 36.2230725,1.44510145 C35.5830725,1.0137971 35.0182029,0.803246377 34.4765217,0.803246377 C33.3328696,0.811594203 32.6056812,1.69831884 32.0825507,2.7417971 C31.5408696,3.81588406 31.1383188,5.16637681 30.7311304,6.42968116 C30.5715942,6.94910145 30.4918261,7.45924638 30.4918261,7.96382609 C30.5511884,11.7815652 34.6416232,14.7543188 35.5394783,18.2975072 C35.6433623,18.6555362 35.6943768,19.0126377 35.6943768,19.3493333 C35.6943768,20.185971 35.4086957,21.0402319 35.0515942,22.0085797 C34.9514203,22.2747826 34.8966957,22.5474783 34.8966957,22.7932754 C34.905971,23.9564058 35.9457391,24.5695072 36.8797681,24.5695072 L36.889971,24.5695072 C37.4121739,24.5695072 37.9668406,24.3812174 38.3703188,23.961971 C40.3014493,21.9686957 41.0397681,20.2796522 41.0397681,18.7770435 C41.0351304,16.8663188 39.9035362,15.4249275 38.9787826,14.0929855" id="Fill-21" fill="#E06E2D" mask="url(#mask-2)"></path>
                <path d="M5.32869565,13.7627826 C4.98736232,13.0856812 4.88255072,12.2870725 4.88255072,11.4291014 C4.88255072,10.2835942 5.08011594,9.04069565 5.08011594,7.8515942 C5.08011594,7.17449275 5.0226087,6.5177971 4.80278261,5.90376812 C4.60428986,5.4066087 4.11455072,5.27582609 3.71014493,5.27582609 C2.61565217,5.31385507 1.0342029,6.08 0.628869565,7.54272464 C0.442434783,9.20857971 0.00927536232,11.0117101 -1.31155786e-05,12.6961159 C-0.0027826087,14.1913043 0.436869565,15.5742609 1.63895652,16.7197681 C3.49031884,18.4876522 5.44649275,19.8826667 6.54376812,21.4344348 C6.99269565,22.067942 7.24869565,22.5548986 7.25518841,23.1132754 C7.25518841,23.4898551 7.16057971,23.8822029 6.98527536,24.3097971 C6.68382609,24.8171594 5.9084058,25.9691594 5.77391304,26.777971 L5.76371014,26.8382609 L5.77391304,26.9004058 C5.77391304,27.2825507 6.15142029,27.6767536 6.49646377,27.6767536 L6.56324638,27.6702609 C6.98527536,27.648 7.28765217,27.4968116 7.64011594,27.4968116 L7.69762319,27.5005217 L7.90724638,27.5005217 C10.034087,27.4968116 11.4207536,25.7882899 11.7806377,24.2198261 C11.8585507,23.8497391 11.8826667,23.5074783 11.8826667,23.1735652 C11.8028986,18.9282319 6.85078261,16.9182609 5.32869565,13.7627826" id="Fill-23" fill="#E06E2D" mask="url(#mask-2)"></path>
            </g>
            <path d="M17.7521159,12.9623188 C16.1771594,10.3513043 14.0104348,7.99536232 13.7831884,5.43443478 L13.875942,5.36023188 C14.195942,5.09031884 15.2746667,4.97437681 15.9962899,4.68034783 C16.4387246,4.56069565 17.0342029,4.3186087 17.5564058,4.00510145 C18.0535652,3.68324638 18.5748406,3.35582609 18.6147246,2.67408696 C18.6221449,2.36428986 18.432,2.06191304 18.1657971,1.8764058 C17.3208116,1.3746087 16.396058,1.16034783 15.4675942,1.16034783 C12.6738551,1.16776812 9.74098551,3.03675362 9.02585507,5.71176812 C8.9266087,6.13472464 8.86817391,6.5484058 8.86817391,6.95188406 C8.94144928,10.9235942 13.389913,13.7117681 14.5224348,17.2846377 L14.5317101,17.3068986 C14.6856812,17.741913 14.7468986,18.1491014 14.7524638,18.5711304 C14.7524638,19.3382029 14.5317101,20.1358841 14.2673623,21.0383768 C14.195942,21.2201739 14.1746087,21.4233043 14.1746087,21.6069565 C14.1597681,22.1013333 14.4296812,22.5196522 14.7923478,22.733913 C15.1448116,22.9537391 15.5696232,23.0418551 16.0037101,23.0418551 C16.8329275,23.0344348 17.7326377,22.7515362 18.2845217,22.1495652 C19.2176232,20.9502609 19.5867826,19.6684058 19.5840156,18.4190145 C19.5812174,16.4285217 18.7028406,14.5168696 17.7521159,12.9623188" id="Fill-25" fill="#E06E2D"></path>
            <line x1="48.4062609" y1="82.1834203" x2="48.2337391" y2="82.1750725" id="Fill-26" fill="#1D1D1B"></line>
            <path d="M59.9086377,45.3518841 C58.0257391,44.3733333 55.565913,43.8205217 52.8556522,43.8205217 L52.7564058,43.8242319 C50.2502029,37.5448116 47.0798841,32.8607536 43.2946087,29.900058 C38.4825507,26.163942 32.2856812,24.1901449 25.3727536,24.1901449 C21.9390145,24.1901449 18.3921159,24.7142029 14.8563478,25.6296812 C14.6022029,24.96 14.3545507,24.2828986 14.0558841,23.6633043 C13.9065507,23.3562899 13.4121739,23.1763478 13.0717681,23.4657391 C12.7675362,23.7514203 12.5124638,24.2856812 12.6525217,24.882087 C12.7452754,25.3337971 12.7471304,25.7845797 12.722087,26.2362899 C10.7584928,26.8438261 8.80417391,27.5385507 6.88602899,28.4132174 L5.90191304,28.8723478 C5.58191304,29.0216812 5.41124638,29.3741449 5.49194203,29.7173333 L6.72927536,34.9393623 C6.19130435,35.4253913 5.65426087,35.9327536 5.07918841,36.365913 C4.56533333,36.7406377 4.49669565,37.849971 4.928,37.9770435 C5.81194203,38.2042899 6.67547826,38.2942609 7.52788406,38.3072464 L8.80695652,43.7064348 L8.75223188,43.8576232 C8.60753623,44.2137971 8.38585507,44.5829565 8.26342029,44.8677101 C7.96568116,45.529971 8.54075362,46.2970435 8.88765217,46.0976232 C9.03513043,46.0095072 9.16034783,45.8926377 9.3004058,45.7952464 L10.7056232,51.724058 C9.45530435,52.5801739 8.63443478,53.4873043 8.04823188,54.2701449 C7.15872464,55.4536812 6.79142029,56.9507246 6.77936232,58.3615072 C6.77936232,59.174029 6.90921739,59.955942 7.23385507,60.6655072 L7.29785507,60.7554783 C6.96301449,61.6505507 6.80904348,62.5929275 6.81182609,63.5482899 C6.81182609,63.9230145 6.83594203,64.3107246 6.86655072,64.7058551 C7.02886957,66.8215652 8.32742029,68.428058 9.99976812,69.3648696 C11.5005217,70.2024348 13.3175652,70.6068406 15.2004638,70.6949565 L20.9354203,94.8971594 C20.9901449,95.1225507 21.1468986,95.3117681 21.3593043,95.4054493 L21.6616812,95.4694493 L22.0187826,95.3794783 L23.5334493,94.5502609 C24.9581449,93.7683478 27.2482319,92.4289855 30.0568116,90.4755942 C31.065971,89.7790145 31.9452754,89.4914783 33.2095072,89.4803478 C34.2149565,89.4803478 35.3567536,89.7790145 36.6775652,90.1286957 C38.3777391,90.5794783 40.306087,91.0905507 42.5525797,91.1091014 C43.5107246,91.1091014 44.4781449,91.0024348 45.4251594,90.790029 C47.872,90.2557681 49.8773333,88.7967536 50.9226667,86.7923478 C51.6146087,85.4752464 51.9707826,83.9661449 51.9809855,82.3002899 C51.9809855,81.8355942 51.9457391,81.4803478 51.9244058,81.254029 C51.8733913,78.8823188 50.6193623,76.3816812 49.408,73.9598841 L49.0212174,73.1826087 C46.9398261,69.1775072 46.5372754,67.6888116 46.5651014,67.1350725 L46.5567536,67.0246957 C47.001971,66.6824348 48.8653913,65.9904928 51.2946087,65.4061449 C52.3983768,65.1334493 53.4511304,64.8607536 54.3146667,64.5806377 C54.7468986,64.4285217 55.1698551,64.2708406 55.5668406,64.0315362 C55.8506667,63.8812754 56.0890435,63.693913 56.3385507,63.4286377 C56.7308986,62.9769275 56.9488696,62.4166957 56.9488696,61.8453333 C56.9414493,60.5727536 56.6891594,58.2390725 56.1215072,55.3414493 C57.5285797,55.0835942 58.8224928,54.6801159 59.9086377,54.1226667 C61.7451594,53.1673043 63.1763478,51.6888116 63.2051014,49.7372754 C63.1763478,47.7783188 61.7451594,46.3174493 59.9086377,45.3518841 M8.98504348,58.2928696 C8.99431884,57.3273043 9.31431884,56.2114783 9.79385507,55.6067246 C10.1769275,55.1318261 10.6369855,54.5975652 11.2602899,54.0623768 L11.8028986,56.3552464 C10.6295652,56.9358841 9.72892754,57.5823768 8.98504348,58.2928696" id="Fill-27" fill="#1D1D1B"></path>
            <path d="M11.8288696,43.5988406 C12.2768696,43.0543768 12.748058,42.4477681 13.2674783,41.7437681 L13.3834203,41.5897971 C13.8694493,40.946087 14.4194783,40.2170435 14.9676522,40.2170435 L15.0223768,40.2207536 C16.6010435,40.3904928 17.7224348,41.164058 19.020058,42.0582029 C19.3734493,42.3021449 19.7370435,42.5544348 20.1293913,42.8067246 C20.3705507,42.9644058 20.6089275,43.1424928 20.8389565,43.3150145 C21.5253333,43.8288696 22.2330435,44.3612754 23.0696812,44.3612754 L23.4073043,44.3315942 L23.410087,44.3315942 C23.666087,44.3315942 23.8117101,44.0588986 23.9666087,43.7695072 C24.0463768,43.6211014 24.1289275,43.4652754 24.2309565,43.340058 L24.243942,43.3242899 L24.2532174,43.3048116 C24.3914203,42.9996522 24.2031304,42.6852174 24.0890435,42.4978551 L24.0361739,42.4051014 C23.9211594,42.1732174 23.8191304,41.9561739 23.7217391,41.7502609 C23.3841159,41.036058 23.091942,40.4192464 22.5177971,39.6762899 C21.8657391,38.8322319 21.2526377,38.002087 20.6590145,37.1988406 C20.3232464,36.7434203 19.9846957,36.2861449 19.6368696,35.8214493 C20.4262029,35.2037101 21.2813913,34.9152464 22.1848116,34.611942 C22.6031304,34.4718841 23.0353623,34.3271884 23.4592464,34.1453913 C23.8163478,34.0127536 24.0584348,33.3977971 23.9582609,32.8561159 C23.8942609,32.5453913 23.6697971,32.3070145 23.4815072,32.1892174 L23.4490435,32.1706667 L23.410087,32.166029 C22.4742029,32.0881159 21.5986087,31.8608696 20.4892754,31.4091594 C19.9485217,31.2895072 19.4374493,31.283942 18.944,31.2765217 C18.2297971,31.2663188 17.5554783,31.2570435 16.8783768,30.9546667 C16.5602319,30.8016232 16.448,30.2794203 16.3487536,29.8184348 L16.2643478,29.4576232 C16.1984928,29.209971 16.1233623,28.9706667 16.0482319,28.7313623 L15.9489855,28.4113623 C19.2621449,27.5821449 22.4315362,27.161971 25.3708986,27.161971 C31.6271304,27.161971 37.1932754,28.9215072 41.4636522,32.2504348 C44.5885217,34.6768696 47.3126957,38.6105507 49.5656812,43.9438841 C48.0816232,44.1887536 46.7997681,44.5755362 45.7553623,45.0958841 C44.466087,45.7210435 43.481971,46.6281739 42.9031884,47.7226667 C42.7028406,47.6966957 42.5108406,47.6874203 42.3327536,47.6837101 C41.7734493,47.6911304 41.2336232,47.7792464 40.8366377,47.8571594 C39.961971,44.1256812 36.0691014,41.4274783 31.5111884,41.4209855 C26.6471884,41.4274783 22.6244638,44.4781449 22.0874203,48.5361159 C18.6295652,48.6808116 15.7792464,49.216 13.3862029,50.1722899 L11.8288696,43.5988406" id="Fill-28" fill="#FFFFFE"></path>
            <path d="M8.80046377,30.8090435 C9.80034783,30.3758841 10.8150725,30.0011594 11.7787826,29.6616812 C11.6498551,30.0707246 11.5292754,30.4612174 11.4272464,30.8535652 C11.3317101,31.0251594 11.1443478,31.1782029 10.9625507,31.3256812 L10.7770435,31.4833623 L10.7770435,31.8794203 C10.3485217,32.2346667 9.88753623,32.5722899 9.30597101,32.9497971 L8.80046377,30.8090435" id="Fill-29" fill="#FFFFFE"></path>
            <path d="M13.9677681,52.6274783 C16.0445217,51.7453913 18.7427246,51.225971 22.2052174,51.0423188 C23.1253333,54.707942 27.0144928,57.3616232 31.5102609,57.3718261 C36.2750145,57.3616232 40.2968116,54.3712464 40.9173333,50.4004638 L40.9191884,50.4004638 C41.4608696,50.2761739 41.9867826,50.2028986 42.3290435,50.2028986 L42.418087,50.2056812 C42.6110145,51.9392464 43.7917681,53.4195942 45.7544348,54.386087 C47.628058,55.3173333 50.0841739,55.808 52.8565797,55.808 L53.1042319,55.7968696 L53.1617391,55.7931594 C53.6190145,58.0804638 53.913971,60.2045217 53.9594203,61.5308986 C53.4158841,61.7961739 51.9782029,62.1690435 50.9152464,62.4454493 L50.867942,62.4565797 C48.4767536,63.0752464 45.7766957,63.7708986 44.5068986,64.8774493 C42.4134493,66.7204638 44.3102609,70.4537971 46.3202319,74.4069565 C47.2570435,76.2555362 48.0742029,77.913971 48.5518841,79.3878261 C44.1405217,78.7357681 41.2085797,77.5976812 38.7533913,75.5886377 C36.3891014,73.6584348 34.4486957,70.8582029 32.204058,67.6173913 C31.9304348,67.2204058 31.4777971,66.9838841 30.9945507,66.9838841 C30.6912464,66.9838841 30.4009275,67.0757101 30.1514203,67.2463768 C29.8286377,67.4652754 29.6106667,67.8001159 29.5383188,68.1906087 C29.465971,68.582029 29.5531594,68.9762319 29.7804058,69.2990145 L29.9176812,69.4975072 C32.2086957,72.8051014 34.188058,75.6609855 36.8834783,77.8842899 C39.7848116,80.2624928 43.3845797,81.6751304 48.2124058,82.3308986 C48.5277681,82.3744928 48.7791304,82.4041739 49.0193623,82.4338551 C49.0137971,84.1785507 48.4266667,87.0706087 44.7786667,87.9035362 C44.1275362,88.050087 43.4226087,88.1233623 42.6852174,88.1233623 C40.972058,88.1233623 39.245913,87.7310145 37.6357101,87.3062029 C36.0728116,86.8962319 34.6202899,86.514087 33.0861449,86.514087 C31.3507246,86.514087 29.8277101,87.0168116 28.2917101,88.0927536 C27.4346667,88.6845217 25.4803478,90.0275942 23.1448116,91.3753043 L13.9677681,52.6274783" id="Fill-30" fill="#FFFFFE"></path>
            <path d="M14.4556522,68.2351304 C13.1496812,68.0941449 12.0227246,67.7602319 11.1823768,67.2677101 C9.95802899,66.5627826 9.36162319,65.7085217 9.2493913,64.4971594 C9.21971014,64.1038841 9.20486957,63.8005797 9.20486957,63.5482899 C9.21692754,62.1013333 9.52208696,61.1932754 10.2965797,60.3028406 C10.7436522,59.7991884 11.3910725,59.302029 12.2267826,58.8252754 L14.4556522,68.2351304" id="Fill-31" fill="#FFFFFE"></path>
            <path d="M52.8445217,53.3073623 C50.5052754,53.299942 48.3422609,52.8732754 46.8786087,52.1377391 C45.5392464,51.4532174 44.8593623,50.6462609 44.8593623,49.7363478 C44.8593623,48.8357101 45.5392464,48.0306087 46.8786087,47.3433043 C47.8348986,46.8656232 49.1343768,46.5122319 50.637913,46.3257971 C51.4504348,46.2246957 52.1433043,46.1773913 52.8194783,46.1773913 L52.864,46.1773913 C53.0142609,46.1773913 53.1589565,46.1885217 53.3036522,46.1987246 L53.5809855,46.2163478 C55.5751884,46.3016812 57.4822029,46.7487536 58.816,47.4416232 C60.3445797,48.2383768 60.8667826,49.1473623 60.8463768,49.7298551 C60.8667826,50.3234783 60.3445797,51.2306087 58.8150725,52.0329275 C57.9812174,52.4651594 56.882087,52.8129855 55.6336232,53.042087 C54.6513623,53.2201739 53.7433043,53.3073623 52.8565797,53.3073623 L52.8445217,53.3073623" id="Fill-32" fill="#009D49"></path>
            <path d="M31.5102609,54.848 C29.6162319,54.848 27.7704348,54.2358261 26.4486957,53.1691594 C25.1918841,52.1414493 24.5008696,50.7974493 24.5008696,49.3885217 C24.5008696,47.9897971 25.1918841,46.6457971 26.4505507,45.6078841 C27.7815652,44.5421449 29.6255072,43.929971 31.5102609,43.929971 C33.3931594,43.929971 35.2398841,44.5421449 36.5764638,45.6088116 C37.836058,46.6476522 38.5307826,47.9916522 38.5307826,49.3885217 C38.5307826,50.7974493 37.836058,52.1395942 36.5746087,53.1710145 C35.2324638,54.2525217 33.433971,54.848 31.5102609,54.848" id="Fill-33" fill="#009D49"></path>
            <path d="M10.6026667,42.4514783 C10.8057971,41.7001739 10.9430725,40.9729855 11.0497391,40.3589565 C11.0951884,40.0908986 11.1406377,39.8191304 11.1870145,39.5417971 C11.2445217,39.1986087 11.3029565,38.8452174 11.3678841,38.4769855 C11.4272464,38.2321159 11.5478261,37.9974493 11.6767536,37.7497971 C11.7648696,37.5772754 11.8576232,37.3982609 11.9392464,37.197913 C12.1126957,36.748058 12.083942,36.2982029 11.8576232,35.9930435 L11.8455652,35.9744928 L11.8297971,35.9615072 C11.6795362,35.8418551 11.4949565,35.7834203 11.2806957,35.7834203 C10.9133913,35.7834203 10.5497971,35.9633623 10.3652174,36.0691014 L10.1277681,36.1284638 L9.89588406,36.1766957 C9.46457971,36.313971 9.024,36.3853913 8.58249275,36.3853913 C8.25692754,36.3853913 7.92672464,36.3464348 7.60023188,36.2713043 C7.82284058,36.0041739 8.10944928,35.8492754 8.38863768,35.6990145 L8.76428986,35.481971 C9.06573913,35.3298551 9.37182609,35.1749565 9.67698551,34.9950145 C9.90886957,34.8595942 10.2103188,34.6694493 10.4885797,34.4097391 L10.7584928,34.278029 C10.905971,34.2223768 11.0729275,34.1593043 11.1545507,34.0081159 L11.4430145,33.7224348 C11.7175652,33.4608696 12.0023188,33.1928116 12.2147246,32.7577971 C12.8185507,31.7987246 13.0921739,30.6624928 13.3593043,29.5633623 C13.4056812,29.3750725 13.4492754,29.1877101 13.4965797,29.0003478 C13.6013913,28.5875942 13.7182609,28.1535072 13.8666667,27.725913 C14.0057971,28.0190145 14.1384348,28.3427246 14.2775652,28.7183768 C14.5177971,29.3695072 14.7153623,30.0345507 14.9249855,30.7376232 C15.168,31.5584928 15.4202899,32.4081159 15.7467826,33.2373333 C15.7606957,33.3031884 15.8302609,33.4478841 16.0491594,33.4478841 L16.1669565,33.4395362 L16.2671304,33.4321159 L16.3877101,33.5128116 L16.4674783,33.7122319 L16.6344348,33.5795942 C17.0471884,33.2475362 17.5091014,33.2030145 17.907942,33.2030145 C18.0637681,33.2030145 18.2233043,33.2104348 18.3809855,33.2178551 C18.5433043,33.2271304 18.7056232,33.2345507 18.866087,33.2345507 L19.1406377,33.2197101 L19.4253913,33.2030145 C19.6108986,33.2030145 19.8233043,33.2308406 20.019942,33.408 C19.7982609,33.5248696 19.5793623,33.6445217 19.3623188,33.7651014 C18.7427246,34.1055072 18.1565217,34.4292174 17.5406377,34.624 L17.5183768,34.6314203 L17.4988986,34.6444058 C17.2883478,34.790029 17.0286377,35.1638261 16.9618551,35.5710145 C16.9191884,35.8409275 16.9674203,36.0857971 17.1065507,36.2815072 C17.2011594,36.5282319 17.4061449,36.6664348 17.5870145,36.7907246 L17.8838261,37.0355942 C19.0849855,38.1977971 20.1618551,39.5668406 21.1849275,41.228058 L21.1496812,41.2326957 C21.0161159,41.2326957 20.8575072,41.0675942 20.7044638,40.908058 L20.6024348,40.8032464 C19.8752464,40.205913 19.1378551,39.7913043 18.4255072,39.3915362 C17.625971,38.9444638 16.7995362,38.4816232 15.9990725,37.7674203 C15.7950145,37.5874783 15.5798261,37.4956522 15.3581449,37.4956522 C14.7886377,37.4956522 14.3155942,38.08 13.8165797,38.6977391 C13.5633623,39.0112464 13.3008696,39.3358841 13.0374493,39.5584928 C12.4447536,40.0769855 11.9596522,40.7114203 11.4893913,41.3235942 C11.3706667,41.4775652 11.2547246,41.6306087 11.1350725,41.7817971 L10.9708986,41.9932754 C10.8484638,42.1555942 10.7297391,42.3123478 10.6026667,42.4542609 L10.6026667,42.4514783" id="Fill-34" fill="#FADA1C"></path>
        </g>
    </g>
</svg>