<svg width="123" height="38" viewBox="0 0 123 38" fill="none" xmlns="http://www.w3.org/2000/svg">
<path d="M0 2C0 0.89543 0.895431 0 2 0H100.456C100.928 0 101.384 0.166313 101.744 0.469624L121.242 16.8747C122.171 17.6563 122.195 19.0787 121.293 19.8912L101.756 37.4861C101.389 37.8169 100.912 38 100.418 38H2C0.895432 38 0 37.1046 0 36V2Z" fill="#377DFF"/>
<path d="M12.9375 15.9205C12.8769 15.3826 12.6269 14.9659 12.1875 14.6705C11.7481 14.3712 11.1951 14.2216 10.5284 14.2216C10.0511 14.2216 9.63826 14.2973 9.28977 14.4489C8.94129 14.5966 8.67045 14.8011 8.47727 15.0625C8.28788 15.3201 8.19318 15.6136 8.19318 15.9432C8.19318 16.2197 8.25758 16.4583 8.38636 16.6591C8.51894 16.8598 8.69129 17.0284 8.90341 17.1648C9.11932 17.2973 9.35038 17.4091 9.59659 17.5C9.8428 17.5871 10.0795 17.6591 10.3068 17.7159L11.4432 18.0114C11.8144 18.1023 12.1951 18.2254 12.5852 18.3807C12.9754 18.536 13.3371 18.7405 13.6705 18.9943C14.0038 19.2481 14.2727 19.5625 14.4773 19.9375C14.6856 20.3125 14.7898 20.7614 14.7898 21.2841C14.7898 21.9432 14.6193 22.5284 14.2784 23.0398C13.9413 23.5511 13.4508 23.9545 12.8068 24.25C12.1667 24.5455 11.392 24.6932 10.483 24.6932C9.61174 24.6932 8.85795 24.5549 8.22159 24.2784C7.58523 24.0019 7.08712 23.6098 6.72727 23.1023C6.36742 22.5909 6.16856 21.9848 6.13068 21.2841H7.89205C7.92614 21.7045 8.0625 22.0549 8.30114 22.3352C8.54356 22.6117 8.85227 22.8182 9.22727 22.9545C9.60606 23.0871 10.0208 23.1534 10.4716 23.1534C10.9678 23.1534 11.4091 23.0758 11.7955 22.9205C12.1856 22.7614 12.4924 22.5417 12.7159 22.2614C12.9394 21.9773 13.0511 21.6458 13.0511 21.267C13.0511 20.9223 12.9527 20.6402 12.7557 20.4205C12.5625 20.2008 12.2992 20.0189 11.9659 19.875C11.6364 19.7311 11.2633 19.6042 10.8466 19.4943L9.47159 19.1193C8.53977 18.8655 7.80114 18.4924 7.25568 18C6.71402 17.5076 6.44318 16.8561 6.44318 16.0455C6.44318 15.375 6.625 14.7898 6.98864 14.2898C7.35227 13.7898 7.8447 13.4015 8.46591 13.125C9.08712 12.8447 9.78788 12.7045 10.5682 12.7045C11.3561 12.7045 12.0511 12.8428 12.6534 13.1193C13.2595 13.3958 13.7367 13.7765 14.0852 14.2614C14.4337 14.7424 14.6155 15.2955 14.6307 15.9205H12.9375ZM18.3139 21.5398L18.3026 19.4659H18.598L22.0753 15.7727H24.1094L20.1435 19.9773H19.8764L18.3139 21.5398ZM16.7514 24.5V12.8636H18.4503V24.5H16.7514ZM22.2628 24.5L19.1378 20.3523L20.3082 19.1648L24.348 24.5H22.2628ZM25.6577 24.5V15.7727H27.3565V24.5H25.6577ZM26.5156 14.4261C26.2202 14.4261 25.9664 14.3277 25.7543 14.1307C25.5459 13.9299 25.4418 13.6913 25.4418 13.4148C25.4418 13.1345 25.5459 12.8958 25.7543 12.6989C25.9664 12.4981 26.2202 12.3977 26.5156 12.3977C26.8111 12.3977 27.063 12.4981 27.2713 12.6989C27.4834 12.8958 27.5895 13.1345 27.5895 13.4148C27.5895 13.6913 27.4834 13.9299 27.2713 14.1307C27.063 14.3277 26.8111 14.4261 26.5156 14.4261ZM29.642 27.7727V15.7727H31.3011V17.1875H31.4432C31.5417 17.0057 31.6837 16.7955 31.8693 16.5568C32.0549 16.3182 32.3125 16.1098 32.642 15.9318C32.9716 15.75 33.4072 15.6591 33.9489 15.6591C34.6534 15.6591 35.2822 15.8371 35.8352 16.1932C36.3883 16.5492 36.822 17.0625 37.1364 17.733C37.4545 18.4034 37.6136 19.2102 37.6136 20.1534C37.6136 21.0966 37.4564 21.9053 37.142 22.5795C36.8277 23.25 36.3958 23.767 35.8466 24.1307C35.2973 24.4905 34.6705 24.6705 33.9659 24.6705C33.4356 24.6705 33.0019 24.5814 32.6648 24.4034C32.3314 24.2254 32.0701 24.017 31.8807 23.7784C31.6913 23.5398 31.5455 23.3277 31.4432 23.142H31.3409V27.7727H29.642ZM31.3068 20.1364C31.3068 20.75 31.3958 21.2879 31.5739 21.75C31.7519 22.2121 32.0095 22.5739 32.3466 22.8352C32.6837 23.0928 33.0966 23.2216 33.5852 23.2216C34.0928 23.2216 34.517 23.0871 34.858 22.8182C35.1989 22.5455 35.4564 22.1761 35.6307 21.7102C35.8087 21.2443 35.8977 20.7197 35.8977 20.1364C35.8977 19.5606 35.8106 19.0436 35.6364 18.5852C35.4659 18.1269 35.2083 17.7652 34.8636 17.5C34.5227 17.2348 34.0966 17.1023 33.5852 17.1023C33.0928 17.1023 32.6761 17.2292 32.3352 17.483C31.9981 17.7367 31.7424 18.0909 31.5682 18.5455C31.3939 19 31.3068 19.5303 31.3068 20.1364ZM43.3139 14.375V12.8636H52.3196V14.375H48.6889V24.5H46.9389V14.375H43.3139ZM56.5838 24.6761C55.7656 24.6761 55.0516 24.4886 54.4418 24.1136C53.8319 23.7386 53.3584 23.214 53.0213 22.5398C52.6842 21.8655 52.5156 21.0777 52.5156 20.1761C52.5156 19.2708 52.6842 18.4792 53.0213 17.8011C53.3584 17.1231 53.8319 16.5966 54.4418 16.2216C55.0516 15.8466 55.7656 15.6591 56.5838 15.6591C57.402 15.6591 58.116 15.8466 58.7259 16.2216C59.3357 16.5966 59.8092 17.1231 60.1463 17.8011C60.4834 18.4792 60.652 19.2708 60.652 20.1761C60.652 21.0777 60.4834 21.8655 60.1463 22.5398C59.8092 23.214 59.3357 23.7386 58.7259 24.1136C58.116 24.4886 57.402 24.6761 56.5838 24.6761ZM56.5895 23.25C57.1198 23.25 57.5592 23.1098 57.9077 22.8295C58.2562 22.5492 58.5137 22.1761 58.6804 21.7102C58.8509 21.2443 58.9361 20.7311 58.9361 20.1705C58.9361 19.6136 58.8509 19.1023 58.6804 18.6364C58.5137 18.1667 58.2562 17.7898 57.9077 17.5057C57.5592 17.2216 57.1198 17.0795 56.5895 17.0795C56.0554 17.0795 55.6122 17.2216 55.2599 17.5057C54.9115 17.7898 54.652 18.1667 54.4815 18.6364C54.3149 19.1023 54.2315 19.6136 54.2315 20.1705C54.2315 20.7311 54.3149 21.2443 54.4815 21.7102C54.652 22.1761 54.9115 22.5492 55.2599 22.8295C55.6122 23.1098 56.0554 23.25 56.5895 23.25ZM66.919 24.5V12.8636H68.6747V17.9205H74.4759V12.8636H76.2372V24.5H74.4759V19.4261H68.6747V24.5H66.919ZM82.3338 24.6761C81.5156 24.6761 80.8016 24.4886 80.1918 24.1136C79.5819 23.7386 79.1084 23.214 78.7713 22.5398C78.4342 21.8655 78.2656 21.0777 78.2656 20.1761C78.2656 19.2708 78.4342 18.4792 78.7713 17.8011C79.1084 17.1231 79.5819 16.5966 80.1918 16.2216C80.8016 15.8466 81.5156 15.6591 82.3338 15.6591C83.152 15.6591 83.866 15.8466 84.4759 16.2216C85.0857 16.5966 85.5592 17.1231 85.8963 17.8011C86.2334 18.4792 86.402 19.2708 86.402 20.1761C86.402 21.0777 86.2334 21.8655 85.8963 22.5398C85.5592 23.214 85.0857 23.7386 84.4759 24.1136C83.866 24.4886 83.152 24.6761 82.3338 24.6761ZM82.3395 23.25C82.8698 23.25 83.3092 23.1098 83.6577 22.8295C84.0062 22.5492 84.2637 22.1761 84.4304 21.7102C84.6009 21.2443 84.6861 20.7311 84.6861 20.1705C84.6861 19.6136 84.6009 19.1023 84.4304 18.6364C84.2637 18.1667 84.0062 17.7898 83.6577 17.5057C83.3092 17.2216 82.8698 17.0795 82.3395 17.0795C81.8054 17.0795 81.3622 17.2216 81.0099 17.5057C80.6615 17.7898 80.402 18.1667 80.2315 18.6364C80.0649 19.1023 79.9815 19.6136 79.9815 20.1705C79.9815 20.7311 80.0649 21.2443 80.2315 21.7102C80.402 22.1761 80.6615 22.5492 81.0099 22.8295C81.3622 23.1098 81.8054 23.25 82.3395 23.25ZM88.2983 24.5V15.7727H89.929V17.1932H90.0369C90.2188 16.7121 90.5161 16.3371 90.929 16.0682C91.3419 15.7955 91.8362 15.6591 92.4119 15.6591C92.9953 15.6591 93.4839 15.7955 93.8778 16.0682C94.2756 16.3409 94.5691 16.7159 94.7585 17.1932H94.8494C95.0578 16.7273 95.3892 16.3561 95.8438 16.0795C96.2983 15.7992 96.84 15.6591 97.4688 15.6591C98.2604 15.6591 98.9062 15.9072 99.4062 16.4034C99.91 16.8996 100.162 17.6477 100.162 18.6477V24.5H98.4631V18.8068C98.4631 18.2159 98.3021 17.7879 97.9801 17.5227C97.6581 17.2576 97.2737 17.125 96.8267 17.125C96.2737 17.125 95.8438 17.2955 95.5369 17.6364C95.2301 17.9735 95.0767 18.4072 95.0767 18.9375V24.5H93.3835V18.6989C93.3835 18.2254 93.2358 17.8447 92.9403 17.5568C92.6449 17.2689 92.2604 17.125 91.7869 17.125C91.465 17.125 91.1676 17.2102 90.8949 17.3807C90.6259 17.5473 90.4081 17.7803 90.2415 18.0795C90.0786 18.3788 89.9972 18.7254 89.9972 19.1193V24.5H88.2983ZM106.2 24.6761C105.34 24.6761 104.6 24.4924 103.979 24.125C103.361 23.7538 102.884 23.233 102.547 22.5625C102.214 21.8883 102.047 21.0985 102.047 20.1932C102.047 19.2992 102.214 18.5114 102.547 17.8295C102.884 17.1477 103.354 16.6155 103.956 16.233C104.562 15.8504 105.27 15.6591 106.081 15.6591C106.573 15.6591 107.051 15.7405 107.513 15.9034C107.975 16.0663 108.39 16.322 108.757 16.6705C109.125 17.0189 109.414 17.4716 109.626 18.0284C109.839 18.5814 109.945 19.2538 109.945 20.0455V20.6477H103.007V19.375H108.28C108.28 18.928 108.189 18.5322 108.007 18.1875C107.825 17.839 107.57 17.5644 107.24 17.3636C106.914 17.1629 106.532 17.0625 106.092 17.0625C105.615 17.0625 105.198 17.1799 104.842 17.4148C104.49 17.6458 104.217 17.9489 104.024 18.3239C103.835 18.6951 103.74 19.0985 103.74 19.5341V20.5284C103.74 21.1117 103.842 21.608 104.047 22.017C104.255 22.4261 104.545 22.7386 104.916 22.9545C105.287 23.1667 105.721 23.2727 106.217 23.2727C106.539 23.2727 106.833 23.2273 107.098 23.1364C107.363 23.0417 107.592 22.9015 107.786 22.7159C107.979 22.5303 108.126 22.3011 108.229 22.0284L109.837 22.3182C109.708 22.7917 109.477 23.2064 109.143 23.5625C108.814 23.9148 108.399 24.1894 107.899 24.3864C107.403 24.5795 106.837 24.6761 106.2 24.6761Z" fill="white"/>
</svg>
