<svg xmlns="http://www.w3.org/2000/svg" width="26" height="26" viewBox="0 0 26 26">
    <defs>
        <linearGradient id="a" x1="34.115%" x2="64.833%" y1="3.882%" y2="56.924%">
            <stop offset="0%" stop-color="#77D791"/>
            <stop offset="100%" stop-color="#4FA67E"/>
        </linearGradient>
    </defs>
    <path fill="url(#a)" fill-rule="nonzero" d="M12.88 0C5.778 0 0 5.778 0 12.88c0 7.102 5.778 12.88 12.88 12.88 7.102 0 12.88-5.778 12.88-12.88C25.76 5.778 19.982 0 12.88 0zm7.396 10.704l-8.092 8.092a1.81 1.81 0 0 1-1.288.534 1.81 1.81 0 0 1-1.288-.534l-4.124-4.124a1.81 1.81 0 0 1-.533-1.288c0-.486.189-.944.533-1.288a1.809 1.809 0 0 1 1.288-.533c.487 0 .944.189 1.288.533l2.836 2.836L17.7 8.128a1.81 1.81 0 0 1 1.288-.533 1.823 1.823 0 0 1 1.288 3.11z"/>
</svg>
