<svg xmlns="http://www.w3.org/2000/svg" width="80" height="45" viewBox="0 0 80 45">
    <g fill="none" fill-rule="nonzero">
        <path fill="#2496FF" d="M24.972 44.316L75.783 3.24l-45.36 24.779-5.45 16.297"/>
        <path fill="#0063B0" d="M30.784 28.318l-4.925 14.721L71.757 5.935 30.784 28.318zM24.972 44.75a.437.437 0 0 1-.413-.573l5.451-16.296a.436.436 0 0 1 .204-.244l45.36-24.78a.437.437 0 0 1 .703.324.434.434 0 0 1-.22.396l-50.81 41.075a.438.438 0 0 1-.275.098z"/>
        <path fill="#D1E9FF" d="M21.7 23.673l8.724 4.346 11.79 13.652c2.209 2.558 6.241 2.368 8.198-.387L79.272.64 2.725 15.513c-2.34.455-2.357 3.784-.022 4.263L21.7 23.673z"/>
        <path fill="#0063B0" d="M2.791 19.35l18.998 3.897.107.038 8.723 4.346a.43.43 0 0 1 .135.104l11.79 13.653a4.748 4.748 0 0 0 3.843 1.648 4.748 4.748 0 0 0 3.67-2.003L78.287 1.274 2.808 15.94c-1.036.2-1.407 1.04-1.411 1.697-.004.658.36 1.5 1.393 1.713h.001zm43.364 24.56a5.615 5.615 0 0 1-4.272-1.955L30.15 28.369l-8.594-4.281-18.942-3.886c-1.452-.298-2.096-1.505-2.09-2.568.006-1.064.663-2.264 2.116-2.546L79.19.214a.433.433 0 1 1 .439.678l-28.86 40.643a5.616 5.616 0 0 1-4.614 2.376z"/>
        <path fill="#2496FF" d="M24.972 44.316l-3.27-20.643L72.397 4.168l-41.974 23.85-5.452 16.298"/>
        <path fill="#0063B0" d="M22.187 23.952l2.937 18.536 4.886-14.606a.435.435 0 0 1 .198-.241L67.133 6.659 22.186 23.952h.001zm2.785 20.799l-.036-.002a.436.436 0 0 1-.395-.365l-3.27-20.643a.434.434 0 0 1 .274-.473L72.24 3.762a.434.434 0 1 1 .373.783L30.786 28.314l-5.4 16.14a.436.436 0 0 1-.412.297h-.002z"/>
    </g>
</svg>
