<svg xmlns="http://www.w3.org/2000/svg" width="308" height="189" viewBox="0 0 308 189">
    <defs>
        <linearGradient id="a" x1="50%" x2="50%" y1="7.264%" y2="151.058%">
            <stop offset="0%" stop-color="#D0F6FF"/>
            <stop offset="100%" stop-color="#8BE2F7"/>
        </linearGradient>
        <linearGradient id="b" x1="4.766%" y1="37.179%" y2="65.332%">
            <stop offset="0%" stop-color="#6EAE7C"/>
            <stop offset="100%" stop-color="#0F575D"/>
        </linearGradient>
        <linearGradient id="c" x1="36.155%" x2="52.186%" y1="13.138%" y2="50%">
            <stop offset="0%" stop-color="#CFE49F"/>
            <stop offset="100%" stop-color="#A9D386"/>
        </linearGradient>
        <linearGradient id="d" x1="34.115%" x2="64.833%" y1="33.998%" y2="52.403%">
            <stop offset="0%" stop-color="#77D791"/>
            <stop offset="100%" stop-color="#4FA67E"/>
        </linearGradient>
        <linearGradient id="e" x1="8.382%" x2="56.57%" y1="13.188%" y2="50%">
            <stop offset="0%" stop-color="#CFE49F"/>
            <stop offset="100%" stop-color="#A9D386"/>
        </linearGradient>
        <linearGradient id="f" x1="50%" x2="50.935%" y1="78.399%" y2="39.309%">
            <stop offset="0%" stop-color="#2B3389"/>
            <stop offset="100%" stop-color="#444FB7"/>
        </linearGradient>
        <linearGradient id="g" x1="50%" x2="50%" y1="7.264%" y2="151.058%">
            <stop offset="0%" stop-color="#D0F6FF"/>
            <stop offset="100%" stop-color="#8BE2F7"/>
        </linearGradient>
        <linearGradient id="h" x1="50%" x2="50%" y1="0%" y2="100%">
            <stop offset="0%" stop-color="#4DBCFA"/>
            <stop offset="100%" stop-color="#1486DB"/>
        </linearGradient>
        <linearGradient id="i" x1="50%" x2="50%" y1="0%" y2="100%">
            <stop offset="0%" stop-color="#FF9485"/>
            <stop offset="100%" stop-color="#FF676E"/>
        </linearGradient>
        <linearGradient id="j" x1="82.577%" x2="82.577%" y1="-52.951%" y2="186.665%">
            <stop offset="0%" stop-color="#1533B6"/>
            <stop offset="100%" stop-color="#356BE9"/>
        </linearGradient>
        <linearGradient id="k" x1="50%" x2="50%" y1="0%" y2="100%">
            <stop offset="0%" stop-color="#FF9485"/>
            <stop offset="100%" stop-color="#FF676E"/>
        </linearGradient>
        <linearGradient id="l" x1="50%" x2="50%" y1="0%" y2="100%">
            <stop offset="0%" stop-color="#4DBCFA"/>
            <stop offset="100%" stop-color="#1486DB"/>
        </linearGradient>
        <linearGradient id="m" x1="50%" y1="49.284%" y2="50.564%">
            <stop offset="0%" stop-color="#0F1752"/>
            <stop offset="100%" stop-color="#272884"/>
        </linearGradient>
        <linearGradient id="n" x1="50%" x2="50%" y1="0%" y2="100%">
            <stop offset="0%" stop-color="#1D2A78"/>
            <stop offset="100%" stop-color="#12033B"/>
        </linearGradient>
        <linearGradient id="o" x1="50%" x2="50%" y1="0%" y2="100%">
            <stop offset="0%" stop-color="#FF9485"/>
            <stop offset="100%" stop-color="#FF676E"/>
        </linearGradient>
        <linearGradient id="p" x1="82.577%" x2="82.577%" y1="-52.951%" y2="186.665%">
            <stop offset="0%" stop-color="#1533B6"/>
            <stop offset="100%" stop-color="#356BE9"/>
        </linearGradient>
        <linearGradient id="q" x1="50%" x2="50%" y1="-27.364%" y2="100%">
            <stop offset="0%" stop-color="#C0E4FD"/>
            <stop offset="100%" stop-color="#72B9FE"/>
        </linearGradient>
        <linearGradient id="r" x1="50%" x2="50%" y1="-27.364%" y2="100%">
            <stop offset="0%" stop-color="#C0E4FD"/>
            <stop offset="100%" stop-color="#72B9FE"/>
        </linearGradient>
        <linearGradient id="s" x1="50%" x2="50%" y1="0%" y2="100%">
            <stop offset="0%" stop-color="#1D2A78"/>
            <stop offset="100%" stop-color="#12033B"/>
        </linearGradient>
    </defs>
    <g fill="none" fill-rule="nonzero">
        <path fill="url(#a)" d="M23.633 7.337h55.235V18.42c0 13.025-10.568 23.583-23.605 23.583H.028V30.92c0-13.025 10.568-23.583 23.605-23.583z" transform="translate(141.706 9.447)"/>
        <path fill="url(#b)" d="M9.323 38.878c5.656-21.957 19.4-29.674 41.233-23.151-1.858 9.928-6.28 17.579-13.264 22.952-6.984 5.372-16.307 5.439-27.969.199z" transform="translate(224.35 9.473)"/>
        <path fill="#FFF" d="M250.53 38.556l.773-7.572c.032-.312.501-.264.47.048l-.74 7.24c5.73-3.235 12.888-7.25 21.476-12.044a.236.236 0 0 1 .23.412 6875.475 6875.475 0 0 0-12.824 7.175l6.652 1.586a.236.236 0 1 1-.11.458l-7.148-1.704c-3.081 1.73-5.881 3.306-8.399 4.728a.222.222 0 0 1-.075.042 1755.408 1755.408 0 0 0-7.455 4.231l6.188 2.258a.236.236 0 1 1-.162.443l-6.532-2.383a.238.238 0 0 1-.028-.012c-3.32 1.9-5.702 3.287-7.144 4.162a.236.236 0 0 1-.245-.403c2.41-1.462 7.433-4.35 15.072-8.665z"/>
        <path fill="url(#c)" d="M11.871 45.5C.331 25.977 4.587 10.81 24.641 0c5.714 8.333 8.003 16.866 6.866 25.6-1.136 8.733-7.681 15.366-19.636 19.9z" transform="translate(224.35 9.473)"/>
        <path fill="#FFF" d="M241.208 36.138l-4.812-5.9c-.199-.244.167-.542.366-.298l4.6 5.641a5264.933 5264.933 0 0 1 6.663-23.687.236.236 0 0 1 .454.128c-1.467 5.18-2.797 9.89-3.99 14.133l5.826-3.578a.236.236 0 0 1 .247.402l-6.26 3.845c-.955 3.4-1.82 6.492-2.593 9.276a.222.222 0 0 1-.024.084c-.875 3.148-1.634 5.9-2.276 8.258l5.973-2.775a.236.236 0 0 1 .199.428l-6.306 2.93a.238.238 0 0 1-.028.01c-1.003 3.69-1.705 6.353-2.105 7.99a.236.236 0 0 1-.459-.112c.669-2.735 2.177-8.327 4.525-16.775z"/>
        <path fill="url(#d)" d="M0 53.61c11.15-19.746 26.426-23.646 45.825-11.7-4.367 9.11-10.62 15.357-18.758 18.74C18.93 64.034 9.907 61.687 0 53.61z" transform="translate(224.35 9.473)"/>
        <path fill="#FFF" d="M243.169 57.98l2.708-7.113c.112-.293.553-.126.442.168l-2.59 6.801c6.373-1.643 14.327-3.669 23.864-6.079a.236.236 0 0 1 .116.457c-5.223 1.32-9.972 2.525-14.246 3.615l6.014 3.251a.236.236 0 1 1-.225.415L252.79 56a3642.15 3642.15 0 0 0-9.337 2.394.222.222 0 0 1-.084.022c-3.166.817-5.932 1.536-8.296 2.159l5.392 3.78a.236.236 0 1 1-.272.387L234.5 60.75a.238.238 0 0 1-.023-.018c-3.7.976-6.36 1.7-7.979 2.173a.236.236 0 0 1-.132-.453c2.705-.789 8.306-2.28 16.803-4.472z"/>
        <path fill="#4BC4FC" d="M207.827 188.116h70.404c0-20.384-15.76-36.908-35.202-36.908s-35.202 16.524-35.202 36.908z"/>
        <path fill="#CDCBDF" d="M242.719 137.666a1.04 1.04 0 1 1-2.08 0 1.04 1.04 0 0 1 2.08 0zm0-4.158a1.04 1.04 0 1 1-2.08-.001 1.04 1.04 0 0 1 2.08 0zm0-4.16a1.04 1.04 0 1 1-2.08 0 1.04 1.04 0 0 1 2.08 0zm0-4.158a1.04 1.04 0 1 1-2.08 0 1.04 1.04 0 0 1 2.08 0zm0-4.158a1.04 1.04 0 1 1-2.08-.001 1.04 1.04 0 0 1 2.08 0zm0-4.16a1.04 1.04 0 1 1-2.08 0 1.04 1.04 0 0 1 2.08 0zm4.162 20.794a1.04 1.04 0 1 1-2.08 0 1.04 1.04 0 0 1 2.08 0zm0-4.158a1.04 1.04 0 1 1-2.08-.001 1.04 1.04 0 0 1 2.08 0zm0-4.16a1.04 1.04 0 1 1-2.08 0 1.04 1.04 0 0 1 2.08 0zm0-4.158a1.04 1.04 0 1 1-2.08 0 1.04 1.04 0 0 1 2.08 0zm0-4.158a1.04 1.04 0 1 1-2.08-.001 1.04 1.04 0 0 1 2.08 0zm0-4.16a1.04 1.04 0 1 1-2.08 0 1.04 1.04 0 0 1 2.08 0zm4.163 20.794a1.04 1.04 0 1 1-2.08 0 1.04 1.04 0 0 1 2.08 0zm0-4.158a1.04 1.04 0 1 1-2.08-.001 1.04 1.04 0 0 1 2.08 0zm0-4.16a1.04 1.04 0 1 1-2.08 0 1.04 1.04 0 0 1 2.08 0zm0-4.158a1.04 1.04 0 1 1-2.08 0 1.04 1.04 0 0 1 2.08 0zm0-4.158a1.04 1.04 0 1 1-2.08-.001 1.04 1.04 0 0 1 2.08 0zm0-4.16a1.04 1.04 0 1 1-2.08 0 1.04 1.04 0 0 1 2.08 0zm4.163 20.794a1.04 1.04 0 1 1-2.08 0 1.04 1.04 0 0 1 2.08 0zm0-4.158a1.04 1.04 0 1 1-2.08-.001 1.04 1.04 0 0 1 2.08 0zm0-4.16a1.04 1.04 0 1 1-2.08 0 1.04 1.04 0 0 1 2.08 0zm0-4.158a1.04 1.04 0 1 1-2.08 0 1.04 1.04 0 0 1 2.08 0zm0-4.158a1.04 1.04 0 1 1-2.08-.001 1.04 1.04 0 0 1 2.08 0zm0-4.16a1.04 1.04 0 1 1-2.08 0 1.04 1.04 0 0 1 2.08 0zm4.163 20.794a1.04 1.04 0 1 1-2.08 0 1.04 1.04 0 0 1 2.08 0zm0-4.158a1.04 1.04 0 1 1-2.08-.001 1.04 1.04 0 0 1 2.08 0zm0-4.16a1.04 1.04 0 1 1-2.08 0 1.04 1.04 0 0 1 2.08 0zm0-4.158a1.04 1.04 0 1 1-2.08 0 1.04 1.04 0 0 1 2.08 0zm0-4.158a1.04 1.04 0 1 1-2.08-.001 1.04 1.04 0 0 1 2.08 0zm0-4.16a1.04 1.04 0 1 1-2.08 0 1.04 1.04 0 0 1 2.08 0zm4.163 20.794a1.04 1.04 0 1 1-2.08 0 1.04 1.04 0 0 1 2.08 0zm0-4.158a1.04 1.04 0 1 1-2.08-.001 1.04 1.04 0 0 1 2.08 0zm0-4.16a1.04 1.04 0 1 1-2.08 0 1.04 1.04 0 0 1 2.08 0zm0-4.158a1.04 1.04 0 1 1-2.08 0 1.04 1.04 0 0 1 2.08 0zm0-4.158a1.04 1.04 0 1 1-2.08-.001 1.04 1.04 0 0 1 2.08 0zm0-4.16a1.04 1.04 0 1 1-2.08 0 1.04 1.04 0 0 1 2.08 0z"/>
        <g>
            <path fill="#1056BF" d="M14.504 178.564H250.55c0 5.215-3.593 9.442-8.025 9.442H22.529c-4.432 0-8.025-4.227-8.025-9.442z"/>
            <path fill="url(#e)" d="M40.02 79.945C17.996 79.945.145 62.105.145 40.098.146 18.092 17.997.252 40.019.252c22.023 0 39.874 17.84 39.874 39.846 0 22.006-17.851 39.847-39.874 39.847zm0-18.866c11.591 0 20.99-9.393 20.99-20.98 0-11.588-9.399-20.98-20.99-20.98-11.592 0-20.99 9.392-20.99 20.98 0 11.587 9.398 20.98 20.99 20.98z" transform="translate(.431 .325)"/>
            <path fill="url(#f)" d="M30.596 32.967h203.001a4.719 4.719 0 0 1 4.72 4.716v136.783H25.876V37.683a4.719 4.719 0 0 1 4.721-4.716z" transform="translate(.431 .325)"/>
            <path fill="#FEF3F4" d="M35.493 42.706h44.2c.119 0 .216.423.216.944v12.644c0 .521-.097.944-.217.944H35.493c-.12 0-.217-.423-.217-.944V43.65c0-.521.097-.944.217-.944zM85.2 42.74h105.397c.286 0 .518.422.518.942v12.645c0 .521-.232.944-.518.944H85.2c-.286 0-.518-.423-.518-.944V43.682c0-.52.232-.943.518-.943z"/>
            <path fill="#373737" d="M89.37 52.358l.769-2.43.769 2.43h.755l1.03-3.316h-.748l-.7 2.41-.79-2.41h-.632l-.79 2.41-.7-2.41h-.749l1.03 3.316h.756zm5.263 0l.769-2.43.77 2.43h.754l1.03-3.316h-.748l-.7 2.41-.79-2.41h-.632l-.79 2.41-.7-2.41h-.748l1.03 3.316h.755zm5.263 0l.77-2.43.768 2.43h.756l1.03-3.316h-.749l-.7 2.41-.79-2.41h-.632l-.79 2.41-.7-2.41h-.748l1.03 3.316h.755zm4.007.076a.463.463 0 0 0 .34-.14.463.463 0 0 0 .14-.34.463.463 0 0 0-.14-.34.463.463 0 0 0-.34-.141.463.463 0 0 0-.34.14.463.463 0 0 0-.14.34c0 .133.046.246.14.34.094.094.207.14.34.14zm1.28 1.27c.262-.004.488-.06.68-.165.193-.105.346-.3.46-.583l1.6-3.914h-.776l-.968 2.485-.968-2.485h-.769l1.36 3.358-.165.377a.466.466 0 0 1-.189.227.59.59 0 0 1-.285.062.831.831 0 0 1-.14-.014.486.486 0 0 1-.135-.041l-.11.645a1.985 1.985 0 0 0 .405.048zm4.776-1.263c.266 0 .504-.046.715-.138.21-.091.39-.216.539-.374.148-.158.262-.343.34-.556.077-.213.116-.438.116-.676 0-.238-.039-.463-.117-.673a1.611 1.611 0 0 0-.34-.553 1.615 1.615 0 0 0-.538-.374 1.774 1.774 0 0 0-.715-.138c-.26 0-.496.046-.707.138-.21.091-.39.216-.539.374a1.611 1.611 0 0 0-.34.553c-.078.21-.117.435-.117.673 0 .238.04.463.117.676.078.213.191.398.34.556.149.158.329.283.54.374.21.092.445.138.706.138zm0-.639a.894.894 0 0 1-.707-.33 1.023 1.023 0 0 1-.185-.353 1.44 1.44 0 0 1 0-.841c.04-.133.103-.25.185-.35a.894.894 0 0 1 .707-.33.91.91 0 0 1 .412.09c.12.059.22.139.303.24.082.1.144.217.185.35a1.44 1.44 0 0 1 0 .841 1.023 1.023 0 0 1-.186.354.913.913 0 0 1-.302.24.91.91 0 0 1-.412.09zm3.588.639c.261 0 .492-.054.694-.162.201-.107.361-.227.48-.36v.44h.721v-3.317h-.72v2.328a1.19 1.19 0 0 1-.354.302.968.968 0 0 1-.498.13c-.201 0-.363-.048-.484-.144-.121-.096-.182-.272-.182-.529v-2.087h-.721v2.348c0 .343.088.604.264.783.176.178.443.268.8.268zm3.636-.083V50.1a.684.684 0 0 1 .151-.168 1.284 1.284 0 0 1 .46-.237.896.896 0 0 1 .24-.034c.088 0 .163.007.227.02v-.714c-.22 0-.423.054-.611.162a1.563 1.563 0 0 0-.467.401v-.487h-.72v3.316h.72zm2.469 0v-2.314a1.28 1.28 0 0 1 .319-.305.76.76 0 0 1 .443-.141c.197 0 .337.055.422.165a.69.69 0 0 1 .127.432v2.163h.721v-2.32c.073-.106.18-.205.32-.3.14-.093.289-.14.45-.14.192 0 .33.055.415.165a.69.69 0 0 1 .127.432v2.163h.72v-2.396c0-.339-.082-.59-.246-.755-.165-.165-.401-.248-.708-.248-.123 0-.242.017-.357.052-.114.034-.22.081-.32.14-.098.06-.186.126-.263.2-.078.073-.14.146-.186.22a.836.836 0 0 0-.309-.443c-.15-.113-.35-.169-.597-.169-.124 0-.244.019-.36.055a1.53 1.53 0 0 0-.564.313.825.825 0 0 0-.154.168v-.453h-.721v3.316h.72zm6.039.083c.22 0 .422-.038.608-.114.185-.075.34-.184.463-.326v.357h.721v-2.197c0-.224-.038-.413-.113-.567a1.01 1.01 0 0 0-.302-.37 1.211 1.211 0 0 0-.44-.203 2.187 2.187 0 0 0-.525-.062c-.266 0-.516.044-.752.13-.236.088-.45.223-.642.406l.295.501a1.36 1.36 0 0 1 .982-.419c.234 0 .421.055.563.165.142.11.213.261.213.453v.495a1.094 1.094 0 0 0-.457-.32 1.707 1.707 0 0 0-.614-.106c-.137 0-.275.02-.412.062-.137.041-.261.105-.37.192a.99.99 0 0 0-.372.824c0 .183.035.343.103.48.069.138.158.253.268.344.11.092.234.16.37.206.138.046.276.069.413.069zm.281-.495a.781.781 0 0 1-.508-.161.525.525 0 0 1-.199-.43c0-.182.067-.328.2-.435a.781.781 0 0 1 .507-.162c.16 0 .312.029.454.086a.748.748 0 0 1 .336.258v.501a.748.748 0 0 1-.336.257 1.2 1.2 0 0 1-.454.086zm3.252.412V50.1a.684.684 0 0 1 .15-.168 1.284 1.284 0 0 1 .46-.237.896.896 0 0 1 .241-.034c.087 0 .163.007.227.02v-.714c-.22 0-.424.054-.611.162a1.563 1.563 0 0 0-.467.401v-.487h-.721v3.316h.72zm2.468 0v-.892l.46-.474 1.017 1.366h.906l-1.408-1.812 1.38-1.504h-.892l-1.463 1.6v-2.864h-.72v4.58h.72zm4.474.083c.266 0 .515-.04.748-.12.234-.08.433-.2.598-.36l-.33-.475a1.16 1.16 0 0 1-.44.271 1.495 1.495 0 0 1-.5.093c-.156 0-.297-.024-.423-.072a.932.932 0 0 1-.536-.488 1.117 1.117 0 0 1-.099-.353h2.561v-.172c0-.26-.039-.501-.116-.72a1.75 1.75 0 0 0-.33-.574 1.46 1.46 0 0 0-.515-.378 1.643 1.643 0 0 0-.673-.134 1.655 1.655 0 0 0-1.212.508c-.149.156-.264.34-.347.553a1.857 1.857 0 0 0-.123.677c0 .26.043.499.13.714.087.215.208.4.364.552a1.6 1.6 0 0 0 .553.354c.213.083.443.124.69.124zm.879-2.012h-1.868c.01-.1.035-.204.076-.31.04-.104.1-.2.175-.284a.863.863 0 0 1 .683-.285c.165 0 .304.027.419.082.114.055.21.125.285.21.075.084.132.18.168.285.037.105.057.206.062.302zm2.496 2.012c.17 0 .309-.02.419-.059a.687.687 0 0 0 .26-.154l-.17-.543a.32.32 0 0 1-.131.083.531.531 0 0 1-.193.034c-.105 0-.184-.036-.237-.11a.47.47 0 0 1-.079-.281v-1.738h.673v-.631h-.673v-.907h-.72v.907h-.55v.631h.55v1.916c0 .275.072.486.216.632.144.146.356.22.635.22zm2.002 1.18v-1.723a1.302 1.302 0 0 0 1.064.542c.215 0 .412-.04.59-.12a1.34 1.34 0 0 0 .464-.343c.13-.149.232-.33.306-.546.073-.215.11-.46.11-.734 0-.275-.037-.52-.11-.735a1.598 1.598 0 0 0-.306-.546 1.302 1.302 0 0 0-.464-.34 1.462 1.462 0 0 0-.59-.117c-.22 0-.421.048-.604.145a1.356 1.356 0 0 0-.46.39v-.452h-.721v4.58h.72zm.851-1.819a.958.958 0 0 1-.25-.034 1.098 1.098 0 0 1-.601-.412v-1.312a1.105 1.105 0 0 1 .6-.412.958.958 0 0 1 .251-.034.877.877 0 0 1 .68.309.994.994 0 0 1 .189.347c.043.135.065.282.065.443 0 .325-.084.59-.25.796-.168.206-.396.31-.684.31zm3.203.556v-4.58h-.72v4.58h.72zm1.975.083c.22 0 .422-.038.607-.114.186-.075.34-.184.464-.326v.357h.72v-2.197c0-.224-.037-.413-.113-.567a1.01 1.01 0 0 0-.302-.37 1.211 1.211 0 0 0-.44-.203 2.187 2.187 0 0 0-.524-.062c-.266 0-.517.044-.752.13-.236.088-.45.223-.642.406l.295.501a1.36 1.36 0 0 1 .982-.419c.233 0 .421.055.563.165.142.11.213.261.213.453v.495a1.094 1.094 0 0 0-.457-.32 1.707 1.707 0 0 0-.614-.106c-.138 0-.275.02-.412.062-.138.041-.261.105-.371.192a.99.99 0 0 0-.371.824c0 .183.034.343.103.48.069.138.158.253.268.344.11.092.233.16.37.206.138.046.275.069.413.069zm.281-.495a.781.781 0 0 1-.508-.161.525.525 0 0 1-.2-.43c0-.182.067-.328.2-.435a.781.781 0 0 1 .508-.162c.16 0 .311.029.453.086a.748.748 0 0 1 .337.258v.501a.748.748 0 0 1-.337.257 1.2 1.2 0 0 1-.453.086zm4.041.495c.325 0 .588-.059.79-.175.201-.117.361-.256.48-.416l-.473-.44a.902.902 0 0 1-.763.392c-.15 0-.288-.027-.412-.082a.908.908 0 0 1-.315-.23 1.058 1.058 0 0 1-.203-.35 1.312 1.312 0 0 1-.072-.443c0-.16.024-.308.072-.443a1.02 1.02 0 0 1 .203-.347.929.929 0 0 1 .315-.227c.124-.055.261-.082.412-.082.32 0 .575.13.763.391l.473-.44a1.564 1.564 0 0 0-.48-.415c-.202-.116-.465-.175-.79-.175a1.8 1.8 0 0 0-.693.13c-.211.088-.392.21-.543.365a1.679 1.679 0 0 0-.354.55c-.084.21-.127.44-.127.693 0 .251.043.484.127.697.085.212.203.397.354.552.151.156.332.277.543.364.21.087.441.13.693.13zm3.52 0c.265 0 .514-.04.748-.12.233-.08.432-.2.597-.36l-.33-.475a1.16 1.16 0 0 1-.439.271 1.495 1.495 0 0 1-.501.093c-.156 0-.297-.024-.423-.072a.932.932 0 0 1-.536-.488 1.117 1.117 0 0 1-.099-.353h2.562v-.172c0-.26-.04-.501-.117-.72a1.75 1.75 0 0 0-.33-.574 1.46 1.46 0 0 0-.515-.378 1.643 1.643 0 0 0-.673-.134 1.655 1.655 0 0 0-1.212.508c-.148.156-.264.34-.346.553a1.857 1.857 0 0 0-.124.677c0 .26.043.499.13.714.087.215.209.4.364.552a1.6 1.6 0 0 0 .553.354c.213.083.443.124.69.124zm.878-2.012h-1.868c.01-.1.035-.204.076-.31.041-.104.1-.2.175-.284a.863.863 0 0 1 .683-.285c.165 0 .305.027.42.082.114.055.209.125.284.21.076.084.132.18.168.285.037.105.058.206.062.302zm1.837 2.005a.463.463 0 0 0 .34-.14.463.463 0 0 0 .14-.34.463.463 0 0 0-.14-.34.463.463 0 0 0-.34-.141.463.463 0 0 0-.34.14.463.463 0 0 0-.14.34c0 .133.046.246.14.34.094.094.207.14.34.14zm2.874.007c.325 0 .588-.059.79-.175.2-.117.361-.256.48-.416l-.474-.44a.902.902 0 0 1-.762.392c-.151 0-.288-.027-.412-.082a.908.908 0 0 1-.316-.23 1.058 1.058 0 0 1-.202-.35 1.312 1.312 0 0 1-.072-.443c0-.16.024-.308.072-.443a1.02 1.02 0 0 1 .202-.347.929.929 0 0 1 .316-.227c.124-.055.261-.082.412-.082.32 0 .575.13.762.391l.474-.44a1.564 1.564 0 0 0-.48-.415c-.202-.116-.465-.175-.79-.175a1.8 1.8 0 0 0-.694.13c-.21.088-.391.21-.542.365a1.679 1.679 0 0 0-.354.55c-.085.21-.127.44-.127.693 0 .251.042.484.127.697.085.212.203.397.354.552.15.156.332.277.542.364.21.087.442.13.694.13zm3.485 0c.265 0 .503-.046.714-.138.21-.091.39-.216.539-.374.149-.158.262-.343.34-.556.077-.213.116-.438.116-.676 0-.238-.039-.463-.116-.673a1.611 1.611 0 0 0-.34-.553 1.615 1.615 0 0 0-.54-.374 1.774 1.774 0 0 0-.713-.138c-.261 0-.497.046-.708.138-.21.091-.39.216-.539.374a1.611 1.611 0 0 0-.34.553c-.077.21-.116.435-.116.673 0 .238.039.463.116.676.078.213.191.398.34.556.149.158.329.283.54.374.21.092.446.138.707.138zm0-.639a.894.894 0 0 1-.708-.33 1.023 1.023 0 0 1-.185-.353 1.44 1.44 0 0 1 0-.841c.041-.133.103-.25.185-.35a.894.894 0 0 1 .707-.33.91.91 0 0 1 .413.09c.119.059.22.139.302.24.082.1.144.217.185.35a1.44 1.44 0 0 1 0 .841 1.023 1.023 0 0 1-.185.354.913.913 0 0 1-.302.24.91.91 0 0 1-.412.09zm3.244.556v-2.314a1.28 1.28 0 0 1 .32-.305.76.76 0 0 1 .442-.141c.197 0 .338.055.423.165a.69.69 0 0 1 .127.432v2.163h.72v-2.32c.074-.106.18-.205.32-.3.14-.093.29-.14.45-.14.192 0 .33.055.415.165a.69.69 0 0 1 .127.432v2.163h.721v-2.396c0-.339-.082-.59-.247-.755-.165-.165-.4-.248-.707-.248-.124 0-.243.017-.357.052-.115.034-.221.081-.32.14-.098.06-.186.126-.264.2-.078.073-.14.146-.185.22a.836.836 0 0 0-.31-.443c-.15-.113-.35-.169-.597-.169-.123 0-.244.019-.36.055a1.53 1.53 0 0 0-.563.313.825.825 0 0 0-.155.168v-.453h-.72v3.316h.72z"/>
            <path fill="#D64F53" d="M195.436 42.384h33.149c.09 0 .163.422.163.943v12.645c0 .52-.073.943-.163.943h-33.15c-.09 0-.162-.422-.162-.943V43.327c0-.521.073-.943.163-.943z"/>
            <path fill="#FFF" d="M208.165 51.65c.24 0 .453-.033.638-.1s.341-.16.47-.28a1.14 1.14 0 0 0 .288-.425c.064-.164.096-.343.096-.537a1.263 1.263 0 0 0-.289-.813c-.09-.11-.195-.2-.315-.272a1.036 1.036 0 0 0-.388-.138c.117-.025.23-.069.338-.13.108-.063.203-.143.285-.24.082-.096.147-.21.196-.339a1.22 1.22 0 0 0 .073-.433 1.27 1.27 0 0 0-.096-.492 1.143 1.143 0 0 0-.281-.403 1.347 1.347 0 0 0-.458-.272 1.805 1.805 0 0 0-.627-.1h-2.522v4.975h2.592zm-.254-2.916h-1.438v-1.29h1.438c.23 0 .409.06.534.182a.621.621 0 0 1 .189.467.61.61 0 0 1-.189.462c-.125.12-.303.18-.534.18zm.038 2.148h-1.476v-1.38h1.476c.262 0 .458.068.589.202a.67.67 0 0 1 .196.485c0 .219-.07.389-.208.51-.138.123-.33.183-.577.183zm3.873.858c.292 0 .551-.058.777-.175a1.94 1.94 0 0 0 .538-.392v.478h.808v-3.603h-.808v2.529c-.097.124-.23.233-.396.328a1.11 1.11 0 0 1-.558.142c-.225 0-.406-.053-.542-.157-.136-.105-.204-.296-.204-.574v-2.268h-.807v2.551c0 .373.098.656.296.85.197.194.496.291.896.291zm3.557 1.373c.292-.005.546-.065.761-.18.216-.114.387-.325.516-.633l1.792-4.252h-.87l-1.084 2.7-1.084-2.7h-.862l1.523 3.648-.184.41a.511.511 0 0 1-.212.246.678.678 0 0 1-.32.067.96.96 0 0 1-.157-.015.557.557 0 0 1-.15-.045l-.123.702a2.291 2.291 0 0 0 .454.052z"/>
            <path fill="#00ADFF" d="M43.538 53.574a3.54 3.54 0 0 1-3.541-3.538 3.54 3.54 0 0 1 3.54-3.537 3.54 3.54 0 0 1 3.541 3.537 3.54 3.54 0 0 1-3.54 3.538zm14.162 0a3.54 3.54 0 0 1-3.54-3.538A3.54 3.54 0 0 1 57.7 46.5a3.54 3.54 0 0 1 3.541 3.537 3.54 3.54 0 0 1-3.54 3.538zm14.163 0a3.54 3.54 0 0 1-3.54-3.538 3.54 3.54 0 0 1 3.54-3.537 3.54 3.54 0 0 1 3.541 3.537 3.54 3.54 0 0 1-3.54 3.538z"/>
            <path fill="#FFF" d="M36.22 61.573h192.143c.521 0 .944.422.944.943v108.738a.944.944 0 0 1-.944.943H36.22a.944.944 0 0 1-.944-.943V62.516c0-.52.423-.943.944-.943z"/>
            <path fill="url(#g)" d="M141.066 120.856h78.132v37.102h-78.132v-37.102zm0-50.156h78.132v35.61h-78.132V70.7zm-96.78 0h87.338v35.61H44.287V70.7z" transform="translate(.431 .325)"/>
            <path fill="#FFF" d="M158.257 98.853c-5.476 0-9.914-4.434-9.914-9.905 0-5.47 4.438-9.905 9.914-9.905 5.475 0 9.914 4.435 9.914 9.905s-4.439 9.905-9.914 9.905zm19.356-19.81H199.8v4.245h-22.188v-4.245zm0 15.565H199.8v4.245h-22.188v-4.245zm0-7.782H199.8v4.245h-22.188v-4.245zM177.613 128.964H199.8v4.245h-22.188v-4.245zm0 15.565H199.8v4.245h-22.188v-4.245zm0-7.783H199.8v4.245h-22.188v-4.245zm-19.356 12.104c-5.476 0-9.914-4.435-9.914-9.905s4.438-9.905 9.914-9.905c5.475 0 9.914 4.434 9.914 9.905 0 5.47-4.439 9.905-9.914 9.905z"/>
            <path fill="#00ADFF" d="M160.028 86.656a.945.945 0 0 1 1.384 1.283l-2.847 3.066a.945.945 0 0 1-1.25.12l-1.977-1.447a.943.943 0 1 1 1.116-1.522l1.298.95 2.276-2.45z"/>
            <path fill="#1E1539" d="M155.824 178.564a5.903 5.903 0 0 1-5.593 4.01H115.06a5.903 5.903 0 0 1-5.593-4.01H14.504v-3.773H250.55v3.773h-94.727z"/>
        </g>
        <g>
            <path fill="url(#h)" d="M67.038 0v48.345H9.442V0z" transform="translate(62.421 87.533)"/>
            <path fill="#00ADFF" d="M106.09 87.533v48.346H62.421V87.533z"/>
            <path fill="#FFF" d="M87.915 87.533v15.565h-8.026V87.533z"/>
        </g>
        <g>
            <path fill="#D64F53" d="M113.172 122.672v52.12H46.134v-52.12z"/>
            <path fill="url(#i)" d="M51.93 0v52.119H0V0z" transform="translate(35.984 122.672)"/>
            <path fill="#FFF" d="M63.602 122.672v16.744h-8.498v-16.744z"/>
        </g>
        <g>
            <path fill="#F4B696" d="M206.97 178.63h5.106v5.098h-5.106z"/>
            <path fill="#021038" d="M206.773 183.347h5.362l3.397 1.133c1.711.605 3.153.853 3.153 2.75 0 .487-.323.882-.722.882h-10.057a1.133 1.133 0 0 1-1.133-1.132v-3.633z"/>
            <path fill="#F4B696" d="M191.35 178.63h5.105v5.098h-5.105z"/>
            <path fill="#211D41" d="M212.979 181.738h-6.64l-7.683-68.197 16.724.413z"/>
            <path fill="#021038" d="M191.153 183.347h5.362l3.396 1.133c1.712.605 3.154.853 3.154 2.75 0 .487-.324.882-.722.882h-10.057a1.133 1.133 0 0 1-1.133-1.132v-3.633z"/>
            <path fill="url(#j)" d="M6.64 128.39H0l2.272-68.198 16.724.414z" transform="translate(190.719 53.348)"/>
            <path fill="#F4B696" d="M216.01 107.087c-.475-1.116-.293-2.825-.498-3.614-.683-2.637-2.134-8.001-4.352-16.092-.35-1.35-.389-3.38.054-4.657l-.78-5.226 6.608-.505.933 8.614c.119 7.321 1.609 13.178 2.124 17.005.774.732 1.356 1.328 1.745 1.788.584.69.498 1.778.434 2.3-.113.916-.52.484-1.225-1.298.352 1.16.593 1.958.723 2.395.196.656-.556 1.703-2.447 1.876-1.26.116-2.367-.746-3.32-2.586z"/>
            <path fill="url(#k)" d="M18.363 18.7c6.653.581 9.645 4.701 8.974 12.36l-2.632 31.798-22.952-2.006L4.558 27.47l.003-.034c.477-5.45 5.286-9.481 10.74-9.004l3.062.267z" transform="translate(190.719 53.348)"/>
            <g transform="rotate(-14 496.409 -911.668)">
                <path fill="url(#l)" d="M.457 0h21.951c.253 0 .457.204.457.456v12.768a.457.457 0 0 1-.457.456H.458A.457.457 0 0 1 0 13.224V.456C0 .204.205 0 .457 0z"/>
                <path fill="url(#m)" d="M0 2.28h22.865v2.736H0z"/>
                <path fill="#FFF" d="M1.83 8.892h3.658v.912H1.829v-.912zm0 2.052h2.743v.912H1.829v-.912zm4.572-2.052h4.573v.912H6.402v-.912zm-.914 2.052h3.2v.912h-3.2v-.912z" opacity=".5"/>
                <ellipse cx="17.423" cy="10.443" fill="#23257B" rx="1.555" ry="1.55"/>
                <ellipse cx="18.978" cy="10.443" fill="#FFF" opacity=".5" rx="1.555" ry="1.55"/>
            </g>
            <path fill="#F4B696" d="M235.784 104.177c-1.209.085-2.766-.643-3.579-.707-2.716-.212-8.26-.586-16.632-1.123-1.391-.109-3.323-.734-4.385-1.567l-7.271-5.707 5.834-7.014 6.363 7.267c6.962 2.27 12.984 2.769 16.77 3.527.944-.493 1.697-.85 2.26-1.068.296-.115.749-.115 1.36 0l.232 1c-.375.04-.676.065-.903.075 1.21.045 2.044.077 2.5.096.684.028 1.429 1.08.978 2.924-.301 1.23-1.477 1.996-3.527 2.297zM212.4 74c-.523 1.783-1.586 2.324-3.189 1.623-1.603-.702-2.622-1.817-3.058-3.345l.654-2.62c-.972-2.794-1.198-6.228.532-10.334s5.393-4.405 10.991-.897c-.449 2.506-.19 4.224.775 5.153 1.448 1.394.746 2.183.083 2.319-.663.135-1.168.521-1.347 1.994-.18 1.474-1.123 1.54-2.623 1.765-1 .151-1.94 1.598-2.818 4.342z"/>
            <path fill="url(#n)" d="M15.405 16.248c-.591-.297-.905-.72-.94-1.267-.055-.821.454-1.146-.959-2.972s-2.456-4.153-1.042-7.863C13.878.436 16.203.367 18.509.414c2.307.046 3.207.41 6.457-.285 3.25-.696 4.615 1.513 3.598 4.559-1.016 3.045-5.726 2.429-6.543 2.225-.818-.203-.54 1.085-.593 2.374-.053 1.288-.902 1.478-1.182 1.265-.28-.213-.894-.492-1.548.151-.655.643-.21 1.826.24 1.938.448.112 1.069.045 1.034.566-.034.52-.481 2.086-1.105 2.871-.416.524-1.57.58-3.462.17z" transform="translate(190.719 53.348)"/>
            <path fill="url(#o)" d="M21.516 36.77l-8.13 7.242c-5.96-6.23-7.79-10.643-5.491-13.24 3.45-3.897 6.411-2.026 8.564.23 1.435 1.503 3.12 3.426 5.057 5.768z" transform="translate(190.719 53.348)"/>
            <path fill="#A587FF" d="M194.314 180.05l-.234-.025.182-1.641.234.026-.182 1.64zm.442-3.984l-.234-.026.182-1.641.234.026-.182 1.64zm.442-3.985l-.234-.026.182-1.64.235.025-.183 1.641zm.443-3.985l-.235-.026.182-1.64.235.026-.182 1.64zm.442-3.984l-.235-.026.182-1.641.235.026-.182 1.64zm.442-3.985l-.235-.026.182-1.64.235.025-.182 1.64zm.442-3.985l-.235-.026.183-1.64.234.025-.182 1.641zm.442-3.985l-.234-.026.182-1.64.234.026-.182 1.64zm.442-3.984l-.234-.026.182-1.641.234.026-.182 1.64zm.443-3.985l-.235-.026.182-1.64.235.025-.182 1.641zm.442-3.985l-.235-.026.182-1.64.235.025-.182 1.641zm.442-3.984l-.235-.026.182-1.641.235.026-.182 1.64zm.442-3.985l-.235-.026.183-1.641.234.026-.182 1.64zm.442-3.985l-.234-.026.182-1.64.234.025-.182 1.641zm.442-3.985l-.234-.026.182-1.64.234.026-.182 1.64zm.534-4.808l-.091.824-.235-.026.091-.824.235.026zm-.585 3.135l.234.026-.182 1.64-.234-.026.182-1.64zm-.443 3.984l.235.026-.182 1.641-.235-.026.182-1.64zm-.442 3.985l.235.026-.182 1.64-.235-.025.182-1.64zm-.442 3.985l.235.026-.182 1.64-.235-.025.182-1.641zm-.442 3.985l.235.026-.182 1.64-.235-.026.182-1.64zm-.442 3.984l.234.026-.182 1.641-.234-.026.182-1.64zm-.442 3.985l.234.026-.182 1.64-.234-.025.182-1.64zm-.443 3.985l.235.026-.182 1.64-.235-.025.182-1.641zm-.442 3.985l.235.026-.182 1.64-.235-.026.182-1.64zm-.442 3.984l.235.026-.182 1.641-.235-.026.182-1.64zm-.442 3.985l.235.026-.182 1.64-.235-.025.182-1.641zm-.442 3.985l.234.026-.182 1.64-.234-.026.182-1.64zm-.442 3.984l.234.026-.182 1.641-.234-.026.182-1.64zm-.442 3.985l.234.026-.182 1.64-.235-.025.183-1.64zm-.443 3.985l.235.026-.182 1.64-.235-.025.182-1.641z"/>
        </g>
        <g>
            <path fill="url(#p)" d="M54.055 0v38.912H7.548V0z" transform="translate(113.172 135.879)"/>
            <path fill="#0737A3" d="M148.357 135.879v38.912h-35.185V135.88z"/>
            <path fill="#FFF" d="M133.735 135.879v12.467h-6.415v-12.467z"/>
        </g>
        <g>
            <path fill="#F4B696" d="M291.443 178.35v5.098h-5.105v-5.098z"/>
            <path fill="#021038" d="M291.64 183.067v3.633c0 .625-.507 1.132-1.132 1.132H280.45c-.4 0-.722-.395-.722-.882 0-1.898 1.441-2.145 3.153-2.75l3.397-1.133h5.362z"/>
            <path fill="#F4B696" d="M307.063 178.35v5.098h-5.105v-5.098z"/>
            <path fill="#211D41" d="M285.435 181.458l-2.402-67.784 16.725-.413-7.684 68.197z"/>
            <path fill="#021038" d="M307.261 183.067v3.633c0 .625-.507 1.132-1.133 1.132H296.07c-.399 0-.722-.395-.722-.882 0-1.898 1.441-2.145 3.153-2.75l3.397-1.133h5.362z"/>
            <path fill="url(#j)" d="M46.758 129.23L34.4 61.446l16.724-.413 2.272 68.197z" transform="translate(254.297 52.228)"/>
            <path fill="#74BCFF" d="M281.885 110.248c.455-1.123.243-2.83.434-3.622.19-.792.446-.48.765-1.762.5-2.003-.561-8.87-3.18-20.598.006 5.736-1.179 14.798-1.779 19.63-.166 1.336-.31 1.118-.407 1.95-.761.745-1.332 1.35-1.714 1.818-.572.7-.466 1.786-.393 2.307.128.914.529.474 1.202-1.32a622.375 622.375 0 0 0-.681 2.408c-.185.66.586 1.693 2.48 1.833 1.262.094 2.353-.787 3.273-2.644z"/>
            <path fill="#F4B696" d="M281.885 110.248c.455-1.123.243-2.83.434-3.622.127-.528.382-1.115.765-1.762l-4.959-.968a13.19 13.19 0 0 0-.407 1.95c-.761.745-1.332 1.35-1.714 1.818-.572.7-.466 1.786-.393 2.307.128.914.529.474 1.202-1.32a622.375 622.375 0 0 0-.681 2.408c-.185.66.586 1.693 2.48 1.833 1.262.094 2.353-.787 3.273-2.644z"/>
            <path fill="url(#q)" d="M35.034 19.54l3.062-.268c5.455-.477 10.263 3.555 10.74 9.004a9.9 9.9 0 0 1 .004.035l2.805 33.381-22.953 2.006-1.672-24.755s-1.829-3.786-1.327-7.457c.377-2.76 3.484-11.434 9.341-11.946z" transform="translate(254.297 52.228)"/>
            <path fill="#F4B696" d="M286.013 73.72c-.878-2.744-1.817-4.191-2.818-4.342-1.5-.226-2.443-.291-2.622-1.765-.18-1.473-.684-1.859-1.347-1.994-.663-.136-1.365-.925.083-2.319.965-.93 1.223-2.647.774-5.153 5.599-3.508 9.262-3.209 10.992.897 1.73 4.106 1.504 7.54.532 10.334l.653 2.62c-.435 1.528-1.455 2.643-3.058 3.344-1.603.702-2.666.161-3.189-1.622zM287.247 85.772l7.802 4.735-4.3 6.654a5.667 5.667 0 0 1-5.21 2.572 448.338 448.338 0 0 0-22.73-1.226c-.576.37-1.535.613-2.877.727-3.349-.08-5.208-.857-5.578-2.33-.37-1.474 1.067-2.296 4.31-2.465l-.114-.655a1.001 1.001 0 0 1 .919-1.17l.709 1.565c.893.42 1.934.587 3.123.504 4.862-.267 11.96-1.004 21.292-2.21l2.654-6.7z"/>
            <path fill="url(#r)" d="M34.063 29.852l10.57 3.572-8.159 11.688a5.667 5.667 0 0 1-5.098 2.404A448.295 448.295 0 0 0 8.512 46.28l.492-3.824c4.862-.267 11.959-1.004 21.291-2.21l3.768-10.393z" transform="translate(254.297 52.228)"/>
            <path fill="#A587FF" d="M304.602 179.957l-.235.024-.167-1.642.235-.024.167 1.642zm-.406-3.988l-.235.024-.167-1.643.235-.023.167 1.642zm-.406-3.989l-.235.024-.167-1.642.235-.024.167 1.642zm-.406-3.988l-.235.024-.167-1.643.235-.024.167 1.643zm-.406-3.989l-.235.024-.167-1.642.235-.024.167 1.642zm-.406-3.988l-.235.024-.167-1.643.234-.024.168 1.643zm-.406-3.989l-.235.024-.168-1.642.235-.024.168 1.642zm-.407-3.988l-.234.023-.168-1.642.235-.024.167 1.643zm-.406-3.989l-.235.024-.167-1.642.235-.024.167 1.642zm-.406-3.989l-.235.024-.167-1.642.235-.024.167 1.642zm-.406-3.988l-.235.024-.167-1.643.235-.023.167 1.642zm-.406-3.989l-.235.024-.167-1.642.235-.024.167 1.642zm-.406-3.988l-.235.024-.167-1.643.235-.024.167 1.643zm-.406-3.989l-.235.024-.167-1.642.234-.024.168 1.642zm-.406-3.988l-.235.024-.167-1.643.234-.024.168 1.643zm-.407-3.989l-.234.024-.168-1.642.235-.024.167 1.642zm-.437-4.296l.136 1.336-.235.024-.136-1.336.235-.024zm0 0l.031.308-.234.023-.032-.307.235-.024zm.14 3.706l.235-.024.167 1.642-.235.024-.167-1.642zm.406 3.988l.235-.023.167 1.642-.235.024-.167-1.643zm.406 3.989l.235-.024.167 1.642-.234.024-.168-1.642zm.406 3.988l.235-.023.168 1.642-.235.024-.168-1.643zm.407 3.989l.234-.024.168 1.643-.235.023-.167-1.642zm.406 3.989l.235-.024.167 1.642-.235.024-.167-1.642zm.406 3.988l.235-.024.167 1.643-.235.024-.167-1.643zm.406 3.989l.235-.024.167 1.642-.235.024-.167-1.642zm.406 3.988l.235-.024.167 1.643-.235.024-.167-1.643zm.406 3.989l.235-.024.167 1.642-.235.024-.167-1.642zm.406 3.988l.235-.024.167 1.643-.235.024-.167-1.643zm.406 3.989l.235-.024.167 1.642-.234.024-.168-1.642zm.407 3.988l.234-.023.168 1.642-.235.024-.167-1.643zm.406 3.989l.234-.024.168 1.643-.235.023-.167-1.642zm.406 3.989l.235-.024.167 1.642-.235.024-.167-1.642zm.406 3.988l.235-.024.062.614-.235.024-.062-.614z"/>
            <path fill="url(#s)" d="M25.593 2.28c-1.439 3.123-.39 4.919 3.148 5.388 5.305.704 2.117 7.339 5.896 9 3.778 1.662-.815 6.127 6.137 6.127 4.635 0 7.39 2.468 8.262 7.406-.146-6.643-1.797-11.153-4.95-13.532C39.353 13.1 41.715 4.59 38.487 2.28 35.26-.03 31.806 0 29.444 0c-1.575 0-2.858.76-3.851 2.28z" transform="translate(254.297 52.228)"/>
        </g>
    </g>
</svg>
