<svg xmlns="http://www.w3.org/2000/svg" width="33" height="70" viewBox="0 0 33 70">
    <g fill="none" fill-rule="nonzero">
        <path fill="#D1E9FF" d="M16.452 60.736h-4.028l-10.03 8.428S-.494 61.822.636 54.352s11.642-13.294 11.642-13.294h4.174v19.679"/>
        <path fill="#0063B0" d="M12.377 41.438a36.383 36.383 0 0 0-5.262 3.763c-2.474 2.137-5.542 5.469-6.107 9.208-.936 6.186.95 12.354 1.555 14.117l9.62-8.081a.374.374 0 0 1 .242-.089h3.65V41.438h-3.698zM2.394 69.544l-.093-.012a.38.38 0 0 1-.258-.227c-.029-.075-2.912-7.526-1.78-15.01.483-3.19 2.627-6.448 6.372-9.68 2.768-2.387 5.435-3.875 5.462-3.89a.376.376 0 0 1 .181-.047h4.174c.208 0 .377.17.377.38v19.678c0 .21-.169.38-.377.38H12.56l-9.927 8.34a.374.374 0 0 1-.24.088z"/>
        <path fill="#D1E9FF" d="M16.452 60.736h4.029l10.028 8.428s2.892-7.342 1.759-14.812c-1.129-7.47-11.641-13.294-11.641-13.294h-4.175v19.679"/>
        <path fill="#0063B0" d="M16.829 60.356h3.652c.086 0 .171.031.24.089l9.62 8.081c.605-1.764 2.489-7.937 1.554-14.117-.567-3.743-3.64-7.078-6.115-9.217a36.242 36.242 0 0 0-5.252-3.754H16.83v18.918h-.001zm13.68 9.188a.375.375 0 0 1-.24-.088l-9.926-8.34h-3.891a.379.379 0 0 1-.377-.38V41.06c0-.21.17-.38.377-.38h4.175c.063 0 .125.016.18.047.026.015 2.694 1.502 5.462 3.89 3.746 3.232 5.887 6.488 6.372 9.679 1.133 7.484-1.75 14.935-1.78 15.01a.378.378 0 0 1-.258.228l-.094.012v-.001z"/>
        <path fill="#A9D6FF" d="M16.452.375S4.502 13.078 4.905 24.473c.403 11.394 7.52 36.263 7.52 36.263h8.056s7.114-24.869 7.517-36.263C28.402 13.078 16.452.375 16.452.375"/>
        <path fill="#2496FF" d="M16.452.375s-5.907 6.28-9.275 13.97h18.551C22.36 6.655 16.452.375 16.452.375m6.101 26.452c0 3.398-2.731 6.151-6.101 6.151s-6.102-2.753-6.102-6.15c0-3.399 2.732-6.153 6.102-6.153s6.101 2.754 6.101 6.152"/>
        <path fill="#0063B0" d="M16.452 21.055c-3.156 0-5.725 2.59-5.725 5.772 0 3.182 2.57 5.772 5.725 5.772 3.157 0 5.724-2.59 5.724-5.772 0-3.183-2.567-5.772-5.724-5.772zm0 12.304c-3.572 0-6.478-2.93-6.478-6.532s2.906-6.532 6.478-6.532c3.574 0 6.479 2.93 6.479 6.532 0 3.6-2.905 6.532-6.48 6.532h.001z"/>
        <path fill="#D1E9FF" d="M27.998 24.473c.12-3.402-.858-6.92-2.295-10.182l-3.527.053s1.398 6.774 1.424 13.737c.03 6.964-4.168 18.212-4.168 18.212l-2.603-2.365v16.809h3.652s7.114-24.87 7.517-36.264"/>
        <path fill="#0063B0" d="M12.709 60.356h7.488c.773-2.75 7.051-25.32 7.424-35.897.206-5.787-2.91-11.95-5.561-16.103-2.376-3.72-4.807-6.528-5.608-7.42a60.15 60.15 0 0 0-5.615 7.432C8.19 12.517 5.077 18.676 5.282 24.46c.373 10.577 6.651 33.148 7.427 35.897zm7.772.76h-8.057a.377.377 0 0 1-.362-.274c-.017-.063-1.802-6.313-3.612-13.875-1.674-6.99-3.712-16.563-3.921-22.48C4.126 13.064 15.686.637 16.179.113a.385.385 0 0 1 .546 0c.492.523 12.055 12.951 11.651 24.374-.21 5.918-2.248 15.49-3.922 22.48-1.81 7.562-3.596 13.812-3.613 13.875a.376.376 0 0 1-.36.274z"/>
        <path fill="#0063B0" d="M16.075 60.548v-16.62a.379.379 0 0 1 .377-.365c.203 0 .369.161.377.365V60.55c0 .21-.169.38-.377.38a.38.38 0 0 1-.377-.38z"/>
        <path fill="#26ABEF" d="M22.176 14.345s-.88-3.19-2.41-6.983C18.237 3.57 16.453.936 16.453.936l3.23 3.154 4.592 7.285 1.429 2.916-3.527.053"/>
        <path fill="#0063B0" d="M7.76 13.965h17.384C22.231 7.591 17.617 2.236 16.452.935c-1.165 1.301-5.78 6.66-8.692 13.03zm17.968.76H7.178a.375.375 0 0 1-.317-.173.382.382 0 0 1-.028-.361C10.188 6.53 16.119.176 16.179.113a.386.386 0 0 1 .546 0c.06.063 5.991 6.417 9.346 14.078.05.117.04.252-.03.36a.378.378 0 0 1-.313.174z"/>
        <path fill="#DCF5FC" d="M19.03 23.521l-5.856 5.904c.192.247.41.472.652.67l5.868-5.917a4.207 4.207 0 0 0-.665-.657m-6.217 5.362l5.68-5.727a4.117 4.117 0 0 0-1.792-.525l-4.41 4.446c.04.653.222 1.266.522 1.806"/>
        <path fill="#0063B0" d="M16.452 22.998c-2.096.002-3.795 1.715-3.797 3.83.002 2.112 1.7 3.825 3.797 3.827 2.096-.002 3.795-1.714 3.797-3.828-.002-2.114-1.7-3.827-3.797-3.829zm0 8.417c-2.509 0-4.55-2.059-4.55-4.588 0-2.53 2.041-4.588 4.55-4.588 2.51 0 4.552 2.058 4.552 4.588 0 2.53-2.042 4.588-4.552 4.588z"/>
    </g>
</svg>
