<svg width="38" height="36" viewBox="0 0 38 36" fill="none" xmlns="http://www.w3.org/2000/svg">
<path d="M18.95 21C19.3 21 19.596 20.879 19.838 20.637C20.08 20.395 20.2007 20.0993 20.2 19.75C20.2 19.4 20.0793 19.104 19.838 18.862C19.5967 18.62 19.3007 18.4993 18.95 18.5C18.6 18.5 18.3043 18.621 18.063 18.863C17.8217 19.105 17.7007 19.4007 17.7 19.75C17.7 20.1 17.821 20.396 18.063 20.638C18.305 20.88 18.6007 21.0007 18.95 21ZM18.05 17.15H19.9C19.9 16.6 19.9627 16.1667 20.088 15.85C20.2133 15.5333 20.5673 15.1 21.15 14.55C21.5833 14.1167 21.925 13.704 22.175 13.312C22.425 12.92 22.55 12.4493 22.55 11.9C22.55 10.9667 22.2083 10.25 21.525 9.75C20.8417 9.25 20.0333 9 19.1 9C18.15 9 17.379 9.25 16.787 9.75C16.195 10.25 15.7827 10.85 15.55 11.55L17.2 12.2C17.2833 11.9 17.471 11.575 17.763 11.225C18.055 10.875 18.5007 10.7 19.1 10.7C19.6333 10.7 20.0333 10.846 20.3 11.138C20.5667 11.43 20.7 11.7507 20.7 12.1C20.7 12.4333 20.6 12.746 20.4 13.038C20.2 13.33 19.95 13.6007 19.65 13.85C18.9167 14.5 18.4667 14.9917 18.3 15.325C18.1333 15.6583 18.05 16.2667 18.05 17.15ZM19 25C17.6167 25 16.3167 24.7373 15.1 24.212C13.8833 23.6867 12 23.5 8.5 24.212C9 22.5 10.3127 20.1167 9.788 18.9C9.26333 17.6833 9.00066 16.3833 9 15C9 13.6167 9.26266 12.3167 9.788 11.1C10.3133 9.88333 11.0257 8.825 11.925 7.925C12.825 7.025 13.8833 6.31267 15.1 5.788C16.3167 5.26333 17.6167 5.00067 19 5C20.3833 5 21.6833 5.26267 22.9 5.788C24.1167 6.31333 25.175 7.02567 26.075 7.925C26.975 8.825 27.6877 9.88333 28.213 11.1C28.7383 12.3167 29.0007 13.6167 29 15C29 16.3833 28.7373 17.6833 28.212 18.9C27.6867 20.1167 26.9743 21.175 26.075 22.075C25.175 22.975 24.1167 23.6877 22.9 24.213C21.6833 24.7383 20.3833 25.0007 19 25Z" fill="#377dff"/>
<path d="M11 32V27H12.0569V29.063H14.2023V27H15.2567V32H14.2023V29.9346H12.0569V32H11Z" fill="#377dff"/>
<path d="M16.1281 32V27H19.4963V27.8716H17.1849V29.063H19.323V29.9346H17.1849V31.1284H19.5061V32H16.1281Z" fill="#377dff"/>
<path d="M20.3366 32V27H21.3934V31.1284H23.5364V32H20.3366Z" fill="#377dff"/>
<path d="M24.2363 32V27H26.2085C26.5876 27 26.9106 27.0724 27.1775 27.2173C27.4443 27.3605 27.6477 27.5599 27.7877 27.8154C27.9292 28.0693 28 28.3623 28 28.6943C28 29.0264 27.9284 29.3193 27.7852 29.5732C27.642 29.8271 27.4346 30.0249 27.1628 30.1665C26.8927 30.3081 26.5656 30.3789 26.1816 30.3789H24.9246V29.5317H26.0108C26.2142 29.5317 26.3818 29.4967 26.5136 29.4268C26.647 29.3551 26.7463 29.2567 26.8113 29.1313C26.8781 29.0044 26.9114 28.8587 26.9114 28.6943C26.9114 28.5283 26.8781 28.3835 26.8113 28.2598C26.7463 28.1344 26.647 28.0376 26.5136 27.9692C26.3801 27.8993 26.2109 27.8643 26.0059 27.8643H25.2932V32H24.2363Z" fill="#377dff"/>
</svg>
