<svg width="21" height="21" viewBox="0 0 21 21" fill="none" xmlns="http://www.w3.org/2000/svg">
<rect width="21" height="21" fill="white"/>
<path fill-rule="evenodd" clip-rule="evenodd" d="M2.23549 12.4049L1.04053 16L5.50657 15.0352C6.73694 15.5882 8.12599 15.8793 9.53557 15.8798C14.1787 15.8798 17.9577 12.7677 17.9598 8.94283C17.9605 7.089 17.085 5.346 15.4948 4.03467C13.9039 2.72333 11.7888 2.00058 9.53557 2C4.89244 2 1.11349 5.11208 1.11136 8.93642C1.11065 10.1597 1.49811 11.3526 2.23549 12.4049ZM9.53273 14.7079C8.0339 14.7073 6.90057 14.3597 5.7134 13.7793L3.06282 14.3515L3.77044 12.2235C2.99482 11.2067 2.53299 10.2349 2.53369 8.937C2.53511 5.75783 5.67657 3.17133 9.5384 3.17133C13.4102 3.1725 16.5389 5.7555 16.5374 8.94167C16.5353 12.1214 13.3917 14.7079 9.53273 14.7079Z" fill="#377DFB"/>
<path fill-rule="evenodd" clip-rule="evenodd" d="M10.3682 16.498C15.0625 16.498 18.8682 13.3643 18.8682 9.49805C18.8682 8.22363 18.4546 7.0293 17.7324 6C19.5786 7.18262 20.7554 8.95801 20.7568 10.939C20.7573 12.0747 20.3696 13.1826 19.6323 14.1597L20.8276 17.498L16.3613 16.6021C15.998 16.7534 15.6211 16.8838 15.2339 16.9922C14.3096 17.2515 13.3262 17.3857 12.3325 17.3862C10.311 17.3862 8.45361 16.8384 7 15.9268C8.03271 16.2944 9.17139 16.498 10.3682 16.498Z" fill="#377DFB"/>
</svg>
