<svg xmlns="http://www.w3.org/2000/svg" width="130" height="81" viewBox="0 0 130 81">
    <g fill="none" fill-rule="evenodd">
        <path fill="#E5E5E5" d="M2.733 77.913c-1.968-.445-2.693-.97-1.75-1.586 6.548-4.293 36.026-4.162 50.325-4.158 17.985.007 36.7-.107 52.898.938 6.78.438 22.138.84 24.774 2.292 6.91 3.816-42.096 4.865-50.027 4.917-13.223.087-64.984.137-76.22-2.403"/>
        <path fill="#E5E5E5" d="M120.47 76.112H6.24c-3.125 0-5.669-2.535-5.669-5.651v-.34c0-.182.149-.33.333-.33h124.911c.182 0 .332.148.332.33v.332c0 3.12-2.547 5.659-5.677 5.659"/>
        <path fill="#E5E5E5" d="M115.3 71.045V8.205c0-1.137-.897-2.068-1.994-2.068H13.497c-1.097 0-1.995.93-1.995 2.068v62.84h103.799"/>
        <path fill="#FFF" d="M117.008 69.744V9.334a1.998 1.998 0 0 0-1.995-1.988H15.204a1.998 1.998 0 0 0-1.995 1.989v60.41h103.8"/>
        <path fill="#6A79A8" d="M117.37 69.713V64.46 51.596 35.534 20.455v-9.686c0-.487.018-.978 0-1.465-.056-1.5-1.264-2.204-2.624-2.204H17.31c-1.763 0-4.359-.258-4.463 2.27-.076 1.832 0 3.683 0 5.515V69.776c0 .182.176.214.326.214H112.753c1.342 0 2.704.068 4.046 0 .057-.002.116 0 .173 0 .398 0 .56-.492.072-.492H14.818c-.442 0-.962-.075-1.399 0-.054.01-.118 0-.174 0l.326.215v-5.166-12.611-15.962-14.986-9.907c0-.582-.022-1.169 0-1.75.036-.966.632-1.682 1.627-1.739.123-.007.25 0 .373 0h97.121c1.51 0 3.858-.4 3.955 1.817.085 1.97 0 3.961 0 5.931v54.436c0 .356.723.237.723-.063"/>
        <path fill="#FFF" d="M122.22 76.112H7.99c-3.126 0-5.67-2.535-5.67-5.651v-.34c0-.182.15-.33.333-.33h124.912c.182 0 .332.148.332.33v.332c0 3.12-2.548 5.659-5.678 5.659"/>
        <path fill="#6A79A8" d="M122.406 75.868H8.942c-.739 0-1.454.01-2.179-.199-2.028-.585-3.562-2.348-3.901-4.417-.03-.176.042-1.09-.076-1.202.001.001-.372.005-.306-.016.031-.009.078.001.11 0 1.474-.045 2.957 0 4.431 0H125.957c.312 0 1.062-.145 1.346 0 .42.216.01 1.71-.1 2.081-.633 2.139-2.54 3.712-4.797 3.753-.324.005-.996.5-.373.488 1.893-.034 3.724-.804 4.958-2.26a5.826 5.826 0 0 0 1.278-2.69c.095-.525.358-1.636-.332-1.83-.311-.087-.7-.03-1.017-.03H4.42c-.488 0-.981-.02-1.47 0-.38.016-.87.088-1.049.472-.12.259-.051.713-.032.979.039.532.154 1.058.34 1.558.336.896.901 1.71 1.623 2.338 1.88 1.64 4.151 1.463 6.435 1.463h111.765c.326 0 .997-.488.373-.488"/>
        <path fill="#6A79A8" d="M50.317 69.888c.415 1.916 2.226 1.792 3.74 1.792h21.467c1.686 0 3.91.222 4.377-1.933.026-.119-.133-.158-.22-.158H50.815c-.27 0-.76.406-.278.406H79.403l-.219-.158c-.214.99-.949 1.436-1.88 1.436H55.22c-1.526 0-3.756.41-4.187-1.577-.053-.246-.772-.067-.716.192"/>
        <path fill="#F9F9F9" d="M17.161 66.882h94.145V12.147H17.161z"/>
        <path fill="#6A79A8" d="M111.445 11.94H28.897c-3.806 0-7.63-.11-11.436 0-.053.002-.108 0-.161 0-.116 0-.497.068-.497.25v52.48c0 .657-.15 1.516 0 2.16.007.03 0 .066 0 .096 0 .12.11.163.22.163H99.57c3.807 0 7.631.11 11.436 0h.162c.115 0 .497-.067.497-.25v-5.44-13.064-15.81-13.672-4.494c0-.657.15-1.515 0-2.16-.007-.029 0-.065 0-.095 0-.302-.717-.154-.717.087v53.906c0 .197-.07.546 0 .734.01.024 0 .067 0 .095l.497-.25H18.709c-.379 0-.877-.086-1.248 0-.048.011-.111 0-.161 0l.22.163v-5.44-13.064-15.81-13.672-4.494-1.426c0-.197.07-.547 0-.734-.01-.025 0-.068 0-.095l-.497.25H99.57c3.809 0 7.629.086 11.436 0h.162c.275 0 .759-.414.277-.414"/>
        <path fill="#E5E5E5" d="M21.362 25.183h-1.098a3.877 3.877 0 0 1-3.884-3.871v-9.657h8.866v9.657a3.877 3.877 0 0 1-3.884 3.87M39.094 25.183h-1.098a3.877 3.877 0 0 1-3.884-3.871v-9.657h8.866v9.657a3.877 3.877 0 0 1-3.884 3.87M56.826 25.183h-1.098a3.877 3.877 0 0 1-3.884-3.871v-9.657h8.866v9.657a3.878 3.878 0 0 1-3.884 3.87M74.558 25.183H73.46a3.877 3.877 0 0 1-3.884-3.871v-9.657h8.866v9.657a3.878 3.878 0 0 1-3.884 3.87M92.29 25.183h-1.098a3.877 3.877 0 0 1-3.884-3.871v-9.657h8.866v9.657a3.878 3.878 0 0 1-3.884 3.87M110.022 25.183h-1.099a3.877 3.877 0 0 1-3.884-3.871v-9.657h8.866v9.657a3.878 3.878 0 0 1-3.883 3.87"/>
        <path fill="#FFF" d="M21.362 23.48h-1.098a3.877 3.877 0 0 1-3.884-3.87v-7.955h8.866v7.954a3.877 3.877 0 0 1-3.884 3.871M39.094 23.48h-1.098a3.877 3.877 0 0 1-3.884-3.87v-7.955h8.866v7.954a3.877 3.877 0 0 1-3.884 3.871M56.826 23.48h-1.098a3.877 3.877 0 0 1-3.884-3.87v-7.955h8.866v7.954a3.878 3.878 0 0 1-3.884 3.871M74.558 23.48H73.46a3.877 3.877 0 0 1-3.884-3.87v-7.955h8.866v7.954a3.878 3.878 0 0 1-3.884 3.871M92.29 23.48h-1.098a3.877 3.877 0 0 1-3.884-3.87v-7.955h8.866v7.954a3.878 3.878 0 0 1-3.884 3.871M110.022 23.48h-1.099a3.877 3.877 0 0 1-3.884-3.87v-7.955h8.866v7.954a3.878 3.878 0 0 1-3.883 3.871"/>
        <path fill="#6A79A8" d="M21.49 24.94c-1.487 0-2.872-.078-3.9-1.328-.716-.87-.848-1.87-.848-2.942v-6.886-2.161l-.49.275h8.866l-.233-.21v6.635c0 .972.009 1.945 0 2.917-.02 1.998-1.42 3.646-3.486 3.7-.394.01-.563.499-.073.486 1.573-.041 3.06-.867 3.807-2.27.427-.802.475-1.645.475-2.525v-6.847-2.161c0-.125-.108-.211-.234-.211H16.51c-.144 0-.49.064-.49.275v6c0 1.967-.431 4.597.912 6.23 1.123 1.364 2.661 1.51 4.303 1.51.322 0 .739-.487.257-.487M39.242 25.014c-1.503 0-2.884-.128-3.914-1.38-.723-.876-.858-1.906-.858-2.99v-6.86-2.224l-.506.264h8.866l-.21-.073v6.496c0 1 .011 2 0 2.999-.022 1.936-1.309 3.714-3.378 3.768-.224.006-.772.35-.296.338 1.499-.04 2.96-.721 3.777-2.01.53-.838.613-1.742.613-2.698v-6.86-2.224c0-.077-.17-.074-.21-.074H34.26c-.139 0-.506.076-.506.265v5.928c0 1.993-.445 4.66.964 6.289 1.124 1.3 2.638 1.384 4.228 1.384.226 0 .773-.338.296-.338M56.962 24.968c-1.497 0-2.874-.092-3.906-1.347-.72-.875-.853-1.883-.853-2.96v-6.886-2.16l-.495.255h8.866l-.223-.174v6.567c0 .983.007 1.966 0 2.949-.015 1.942-1.326 3.703-3.389 3.756-.282.008-.753.442-.272.43 1.536-.04 3.003-.748 3.808-2.09.496-.83.57-1.714.57-2.647v-6.886-2.16c0-.123-.108-.174-.222-.174H51.98c-.121 0-.495.066-.495.255v6c0 1.96-.43 4.586.908 6.211 1.119 1.361 2.664 1.49 4.297 1.49.285 0 .754-.429.272-.429M74.702 24.998c-1.5 0-2.884-.111-3.912-1.368-.72-.88-.856-1.9-.856-2.986v-6.86-2.224l-.502.28h8.866l-.214-.09v6.497c0 1 .012 2 0 2.999-.024 1.935-1.321 3.698-3.382 3.752-.244.006-.767.382-.288.37 1.529-.04 3.004-.747 3.81-2.078.502-.828.576-1.712.576-2.646v-6.86-2.224c0-.081-.168-.09-.214-.09H69.72c-.156 0-.502.076-.502.28v5.929c0 1.995-.446 4.663.965 6.293 1.123 1.299 2.64 1.396 4.23 1.396.247 0 .769-.37.289-.37M92.32 24.916c-1.52 0-2.936-.134-3.923-1.462-.633-.852-.726-1.805-.726-2.817V13.79v-2.16l-.394.292h8.866l-.333-.241v6.635c0 .972.01 1.945 0 2.917-.019 1.997-1.433 3.63-3.49 3.683-.411.01-.548.546-.06.534 1.58-.041 3.056-.872 3.804-2.282.427-.804.473-1.649.473-2.53V13.79v-2.16c0-.187-.173-.242-.333-.242h-8.866c-.143 0-.394.123-.394.293v6c0 2.043-.447 4.742 1.042 6.387 1.16 1.283 2.662 1.382 4.273 1.382.413 0 .547-.534.06-.534M110.256 25.047c-1.549 0-3.004-.132-4.04-1.453-.677-.865-.819-1.859-.819-2.913v-6.897-2.224l-.593.23h3.844c1.587 0 3.243.138 4.825 0 .27-.023.087.043.074-.027.025.141 0 .31 0 .453V19.954c0 .483.012.967 0 1.45-.043 1.825-1.347 3.593-3.29 3.643-.14.004-.803.28-.47.271 1.457-.038 2.908-.633 3.766-1.85.598-.847.71-1.79.71-2.787v-6.897-2.224c0-.04-.112-.04-.123-.04h-8.866c-.116 0-.593.061-.593.23v9.122c0 1.123.175 2.173.941 3.062 1.115 1.292 2.585 1.384 4.164 1.384.141 0 .805-.27.47-.27"/>
        <path fill="#9FCDED" d="M12.496 25.183h-1.098a3.877 3.877 0 0 1-3.884-3.871v-9.657h8.866v9.657a3.877 3.877 0 0 1-3.884 3.87M30.228 25.183H29.13a3.877 3.877 0 0 1-3.884-3.871v-9.657h8.866v9.657a3.877 3.877 0 0 1-3.884 3.87M47.96 25.183h-1.098a3.877 3.877 0 0 1-3.884-3.871v-9.657h8.866v9.657a3.877 3.877 0 0 1-3.884 3.87M65.692 25.183h-1.098a3.877 3.877 0 0 1-3.884-3.871v-9.657h8.866v9.657a3.878 3.878 0 0 1-3.884 3.87M83.424 25.183h-1.098a3.877 3.877 0 0 1-3.884-3.871v-9.657h8.866v9.657a3.878 3.878 0 0 1-3.884 3.87M101.156 25.183h-1.099a3.877 3.877 0 0 1-3.883-3.871v-9.657h8.865v9.657a3.878 3.878 0 0 1-3.883 3.87M118.887 25.183h-1.098a3.877 3.877 0 0 1-3.884-3.871v-9.657h8.866v9.657a3.878 3.878 0 0 1-3.884 3.87"/>
        <path fill="#BBDFF5" d="M12.793 23.48c-2.145 0-3.736-1.733-3.736-3.87v-7.955h7.323v7.954c0 2.138-1.442 3.871-3.587 3.871M30.228 23.48H29.13a3.877 3.877 0 0 1-3.884-3.87v-7.955h8.866v7.954a3.877 3.877 0 0 1-3.884 3.871M47.96 23.48h-1.098a3.877 3.877 0 0 1-3.884-3.87v-7.955h8.866v7.954a3.877 3.877 0 0 1-3.884 3.871M65.692 23.48h-1.098a3.877 3.877 0 0 1-3.884-3.87v-7.955h8.866v7.954a3.878 3.878 0 0 1-3.884 3.871M83.424 23.48h-1.098a3.877 3.877 0 0 1-3.884-3.87v-7.955h8.866v7.954a3.878 3.878 0 0 1-3.884 3.871M101.156 23.48h-1.099a3.877 3.877 0 0 1-3.883-3.87v-7.955h8.865v7.954a3.878 3.878 0 0 1-3.883 3.871M118.887 23.48h-1.098a3.877 3.877 0 0 1-3.884-3.87v-7.955h8.866v7.954a3.878 3.878 0 0 1-3.884 3.871"/>
        <path fill="#6A79A8" d="M12.728 25.034c-1.49 0-2.886-.1-3.935-1.318-.757-.878-.92-1.927-.92-3.035v-6.897-2.224c-.197.08-.394.162-.59.244h6.825c.6 0 1.246.067 1.843 0 .282-.032.078.04.071-.027.016.155 0 .32 0 .474V20.06c0 .448.011.898 0 1.346-.045 1.883-1.404 3.578-3.371 3.629-.198.005-.78.306-.309.294 1.468-.038 2.914-.695 3.74-1.937.565-.846.656-1.77.656-2.75v-6.86-2.223c0-.043-.109-.053-.126-.053H7.746c-.132 0-.59.05-.59.244v9.121c0 1.07.152 2.065.84 2.94 1.098 1.396 2.633 1.52 4.269 1.52.156 0 .811-.298.463-.298M30.36 24.952c-1.493 0-2.872-.083-3.904-1.337-.716-.87-.85-1.876-.85-2.949V13.78v-2.16l-.491.266h8.865l-.228-.195v6.636c0 .972.009 1.944 0 2.916-.02 2-1.415 3.656-3.483 3.71-.383.01-.572.472-.081.46 1.568-.041 3.064-.864 3.81-2.264.426-.801.474-1.643.474-2.522V13.78v-2.16c0-.125-.108-.196-.228-.196h-8.866c-.134 0-.492.065-.492.267v6c0 1.965-.431 4.591.91 6.222 1.121 1.362 2.664 1.5 4.3 1.5.307 0 .747-.461.264-.461M48.19 25.028c-1.486 0-2.891-.092-3.934-1.315-.754-.884-.92-1.921-.92-3.032v-6.897-2.224l-.588.25H49.574c.597 0 1.249.074 1.843 0 .283-.035.076.046.069-.033.014.155 0 .319 0 .474V20.06c0 .448.013.899 0 1.346-.055 1.883-1.401 3.57-3.374 3.62-.207.006-.777.323-.304.31 1.47-.037 2.915-.695 3.74-1.94.561-.851.654-1.773.654-2.753v-6.86-2.224c0-.045-.108-.06-.128-.06h-8.866c-.14 0-.588.046-.588.25v9.122c0 1.07.154 2.067.84 2.943 1.095 1.396 2.636 1.523 4.27 1.523.165 0 .815-.31.46-.31M65.823 24.952c-1.492 0-2.872-.083-3.903-1.337-.717-.87-.85-1.876-.85-2.949V13.78v-2.16l-.492.266h8.866l-.229-.195v6.636c0 .972.01 1.944 0 2.916-.019 2-1.415 3.656-3.483 3.71-.383.01-.572.472-.08.46 1.567-.041 3.063-.864 3.81-2.264.426-.801.474-1.643.474-2.522V13.78v-2.16c0-.125-.108-.196-.229-.196h-8.866c-.134 0-.492.065-.492.267v6c0 1.965-.43 4.591.91 6.222 1.122 1.362 2.664 1.5 4.301 1.5.307 0 .746-.461.263-.461M83.573 25.019c-1.504 0-2.884-.13-3.916-1.383-.722-.878-.857-1.907-.857-2.992v-6.86-2.224l-.508.26h8.866l-.209-.07v6.497c0 1 .007 2 0 2.999-.012 1.937-1.313 3.719-3.376 3.773-.218.005-.774.34-.299.328 1.499-.039 2.96-.721 3.778-2.007.531-.838.614-1.74.614-2.696v-6.86-2.224c0-.075-.172-.069-.209-.069h-8.866c-.134 0-.507.076-.507.26v5.928c0 1.993-.446 4.658.963 6.287 1.124 1.3 2.638 1.381 4.227 1.381.22 0 .775-.328.3-.328M101.306 25.024c-1.505 0-2.886-.132-3.916-1.386-.722-.879-.858-1.909-.858-2.994v-6.86-2.224l-.51.254h8.866l-.207-.063v6.496c0 1 .007 2 0 2.999-.012 1.937-1.31 3.724-3.375 3.778-.212.005-.776.33-.301.318 1.47-.038 2.915-.696 3.738-1.945.561-.851.654-1.772.654-2.753v-6.86-2.224c0-.073-.172-.064-.207-.064h-8.866c-.129 0-.509.076-.509.255v5.928c0 1.992-.445 4.657.963 6.286 1.124 1.299 2.639 1.377 4.227 1.377.214 0 .776-.318.301-.318M119.036 25.016c-1.503 0-2.885-.129-3.915-1.38-.722-.878-.858-1.908-.858-2.992v-6.86-2.224l-.507.262h8.866l-.209-.071v6.496c0 1 .011 2 0 2.999-.021 1.936-1.308 3.716-3.377 3.77-.222.005-.773.346-.297.334 1.498-.04 2.96-.721 3.776-2.009.531-.838.614-1.742.614-2.697v-6.86-2.224c0-.076-.17-.072-.209-.072h-8.866c-.137 0-.507.076-.507.263v5.928c0 1.993-.445 4.66.964 6.288 1.124 1.3 2.638 1.383 4.228 1.383.224 0 .774-.334.297-.334"/>
        <path fill="#FFF" d="M25.246 11.656L32.921.572h-7.16l-9.38 11.084h8.865"/>
        <path fill="#6A79A8" d="M25.6 11.593l6.702-9.68.972-1.404c.046-.066-.093-.084-.121-.084h-4.809c-.737 0-1.477-.016-2.215 0-.327.008-.564.067-.793.291-.979.957-1.808 2.137-2.691 3.18l-4.1 4.846-2.49 2.94c-.068.081.005.12.093.12h8.866c.154 0 .81-.293.464-.293h-8.866l.093.12 8.188-9.676L26.084.545l-.556.173h6.644c.102 0 .408-.053.5 0-.195-.112-.07-.055-.221.085-.33.303-.573.827-.826 1.193l-1.378 1.99-3.34 4.823-2.014 2.91c-.05.07.585.049.706-.126"/>
        <path fill="#FFF" d="M42.978 11.656L47.242.572h-7.16l-5.97 11.084h8.866"/>
        <path fill="#6A79A8" d="M43.331 11.593L47.595.509c.027-.07-.076-.083-.121-.083h-7.16c-.164 0-.497.043-.586.209l-5.97 11.084c-.036.068.086.082.122.082h8.866c.152 0 .81-.29.464-.29-2.918 0-5.872-.145-8.787 0-.133.006.002.098.08.01.107-.118.175-.323.25-.463l.978-1.816 2.815-5.226L40.434.509l-.585.208h6.228c.23 0 .492.034.72 0 .325-.048.05.045.084-.062-.308.994-.756 1.964-1.13 2.935l-1.918 4.987-1.208 3.142c-.048.123.636.057.706-.126"/>
        <path fill="#FFF" d="M60.71 11.656L61.563.572h-7.161l-2.558 11.084h8.866"/>
        <path fill="#6A79A8" d="M61.072 11.626L61.925.542c.014-.183-.188-.223-.328-.223h-7.16c-.165 0-.36.119-.397.282l-2.558 11.084c-.042.181.211.223.328.223h8.866c.402 0 .555-.505.068-.505h-8.866l.328.223L54.764.542l-.396.282h7.16L61.2.6l-.852 11.084c-.028.358.7.252.724-.06"/>
        <path fill="#FFF" d="M78.442 11.656L75.884.572h-7.16l.852 11.084h8.866"/>
        <path fill="#6A79A8" d="M78.8 11.56L76.242.476c-.022-.092-.144-.141-.228-.141h-7.16c-.197 0-.508.083-.49.332l.854 11.084c.007.092.155.142.228.142h8.866c.314 0 .742-.474.26-.474h-8.866l.228.141L69.08.476c-.163.11-.325.222-.488.333h7.16a504.14 504.14 0 0 1-.228-.142l2.559 11.084c.068.297.786.113.716-.191"/>
        <path fill="#FFF" d="M96.174 11.656L90.204.572h-7.16l4.264 11.084h8.866"/>
        <path fill="#6A79A8" d="M96.532 11.56L90.562.476a.238.238 0 0 0-.224-.127h-7.16c-.128 0-.578.094-.492.318l4.263 11.084c.034.089.135.127.225.127h8.866c.295 0 .75-.445.267-.445h-8.866l.225.127L83.402.476l-.492.318h7.16l-.224-.127 5.97 11.084c.141.264.84.039.716-.191"/>
        <path fill="#FFF" d="M113.905 11.656L104.525.572h-7.16l7.674 11.084h8.866"/>
        <path fill="#6A79A8" d="M114.241 11.528l-5.959-7.041-3.078-3.638c-.192-.227-.264-.381-.544-.44-.548-.112-1.24 0-1.797 0h-5.348c-.057 0-.6.124-.508.258l5.584 8.066 1.466 2.117c.168.242.373.723.62.894.238.167.76.074 1.042.074h8.036c.218 0 .776-.324.3-.324h-8.865l.207.066-6.702-9.68-.972-1.404-.508.258h4.526c.787 0 1.58.029 2.365 0 .36-.014.158.063.095-.022.068.093.15.178.225.266 2.26 2.671 4.52 5.343 6.782 8.014l2.361 2.79c.126.15.806-.095.672-.254"/>
        <path fill="#9FCDED" d="M25.76.572H18.6L7.514 11.656h8.866L25.76.572"/>
        <path fill="#BBDFF5" d="M25.76.572h-5.677L8.997 11.656h7.383L25.76.572"/>
        <path fill="#6A79A8" d="M25.99.42h-5.082c-.868 0-2.174-.285-2.844.385l-8.001 8-2.874 2.873c-.08.08.015.13.095.13h7.944c.399 0 1.074.105 1.428-.136.258-.176.46-.525.659-.759l1.546-1.827L23.25 3.9l2.834-3.35c.15-.177-.534-.092-.65.045l-8.19 9.677-1.19 1.407.556-.174H7.745l.095.129 9.71-9.71L18.925.55l-.556.174h7.16c.16 0 .813-.303.462-.303"/>
        <path fill="#BBDFF5" d="M34.112 11.656L40.082.572H32.92l-7.675 11.084h8.866"/>
        <path fill="#6A79A8" d="M34.453 11.69L40.422.606c.114-.211-.159-.284-.306-.284H33.322c-.34 0-.552-.002-.785.277-.786.942-1.426 2.059-2.123 3.066l-3.419 4.937-2.09 3.019c-.141.204.183.284.306.284h8.866c.4 0 .557-.5.07-.5h-8.866l.306.285 6.702-9.68.972-1.404-.375.215h7.16L39.74.537 33.771 11.62c-.185.344.54.334.682.07"/>
        <path fill="#BBDFF5" d="M51.844 11.656L54.402.572h-7.16l-4.264 11.084h8.866"/>
        <path fill="#6A79A8" d="M52.196 11.59L54.754.504c.016-.068-.066-.07-.117-.07h-7.16c-.134 0-.529.05-.588.203-1.42 3.695-2.842 7.39-4.263 11.084-.026.068.076.07.117.07h8.866c.142 0 .805-.273.47-.273H45.253c-.59 0-1.257-.087-1.843 0-.3.045-.043-.034-.072.05.042-.123.093-.243.14-.363l.673-1.75 2.063-5.363 1.38-3.588-.587.203h6.069c.262 0 .53.016.792 0 .066-.004.136-.004.203 0 .179.01-.024-.01-.023-.064-.009.28-.138.598-.2.869l-.442 1.914-1.166 5.054-.748 3.241c-.03.128.666.034.704-.133"/>
        <path fill="#BBDFF5" d="M69.576 11.656L68.723.572h-7.16l-.853 11.084h8.866"/>
        <path fill="#6A79A8" d="M69.934 11.56L69.08.476c-.003-.04-.107-.045-.124-.045h-7.16c-.134 0-.579.054-.593.236l-.852 11.084c-.003.04.115.045.124.045h8.866c.147 0 .808-.28.468-.28h-8.501c-.064 0-.302.039-.353 0 .174.135.098-.07.13-.178.135-.479.084-1.1.122-1.593l.42-5.466.293-3.803-.592.236h5.958c.226 0 1.007-.136 1.198 0-.213-.152-.072.585-.062.71l.146 1.903.393 5.108.256 3.318c.009.117.73-.006.716-.191"/>
        <path fill="#BBDFF5" d="M87.308 11.656L83.044.572h-7.16l2.558 11.084h8.866"/>
        <path fill="#6A79A8" d="M87.666 11.56L83.402.476C83.35.339 83.208.32 83.078.32h-7.16c-.163 0-.439.148-.393.347l2.559 11.084c.032.14.21.157.323.157h8.866c.402 0 .556-.504.069-.504h-8.866l.324.156L76.242.476l-.393.348h7.16l-.323-.157 4.263 11.084c.12.311.832.11.717-.191"/>
        <path fill="#BBDFF5" d="M105.04 11.656L97.364.572h-7.16l5.969 11.084h8.865"/>
        <path fill="#6A79A8" d="M105.374 11.524l-5.037-7.276c-.822-1.187-1.61-2.409-2.471-3.568-.162-.217-.17-.26-.451-.285-.649-.06-1.331 0-1.982 0h-5.082c-.077 0-.594.107-.505.272l5.97 11.084c.04.077.132.082.211.082h8.866c.237 0 .771-.354.293-.354H96.32l.212.081L90.562.476l-.504.273h6.644c.146 0 .358-.038.501 0-.299-.08-.124-.03-.056.123.186.417.567.819.826 1.193l1.378 1.99 3.34 4.823c.67.97 1.342 1.94 2.014 2.91.116.167.81-.06.669-.264"/>
        <path fill="#BBDFF5" d="M122.771 11.656L111.686.572h-7.16l9.38 11.084h8.865"/>
        <path fill="#6A79A8" d="M123.1 11.503l-6.839-6.839-3.717-3.716c-.176-.176-.404-.512-.648-.605-.432-.166-1.161-.017-1.61-.017h-5.724c-.154 0-.533.2-.365.399l6.632 7.837 1.747 2.065c.292.345.595.85.955 1.128.248.192.527.146.84.146h8.364c.397 0 .56-.49.072-.49h-8.866c.098.03.196.06.293.092l-8.188-9.677L104.855.42l-.366.398h7.16l-.292-.092 9.71 9.709 1.375 1.374c.215.215.894-.069.658-.305"/>
        <path fill="#6A79A8" d="M18.583.643h81.255c3.73 0 7.48.11 11.208 0h.151c.292 0 .752-.441.27-.441H30.211c-3.73 0-7.48-.11-11.21 0h-.15c-.292 0-.752.441-.27.441M7.298 11.823H117.86c1.492 0 2.99.039 4.483 0 .065-.002.13 0 .196 0 .225 0 .774-.336.297-.336H12.275c-1.493 0-2.992-.039-4.484 0-.065.002-.13 0-.196 0-.225 0-.774.336-.297.336M51.01 44.57L59.782 33.2c.741-.961 1.522-1.825 2.737-2.206 1.606-.504 3.176-.044 4.475.946 2.01 1.532 4.012 3.075 6.018 4.612l5.776 4.426c.257.197.88-.166.55-.418L67.66 31.61c-1.048-.803-2.199-1.34-3.55-1.363-1.78-.029-3.429.809-4.517 2.198-1.505 1.923-2.983 3.867-4.474 5.8l-4.71 6.107c-.278.36.397.484.601.219"/>
        <path fill="#F9AB98" d="M83.84 58.792L50.59 63.123a.83.83 0 0 1-.93-.713l-2.19-16.693a.828.828 0 0 1 .716-.927l33.249-4.331a.83.83 0 0 1 .93.713l2.19 16.693a.828.828 0 0 1-.716.927"/>
        <path fill="#6A79A8" d="M83.9 58.635a130190.87 130190.87 0 0 1-21.192 2.761l-10.904 1.42c-.749.098-1.628.429-1.803-.635-.245-1.498-.396-3.018-.593-4.523l-.941-7.18c-.203-1.546-.477-3.103-.611-4.658-.09-1.056.68-.927 1.454-1.027l4.46-.581L67.6 42.41l11.83-1.541 1.433-.187c.289-.037.528-.121.787.047.423.274.403.876.462 1.33l.31 2.357 1.671 12.753c.054.407.31 1.338-.29 1.487-.422.105-.353.378.073.272.776-.193 1.09-.687 1.001-1.434-.08-.663-.173-1.324-.26-1.986l-.923-7.035-.823-6.28c-.048-.364-.06-.758-.146-1.116-.167-.693-.758-.825-1.383-.755-3.032.34-6.056.79-9.08 1.183l-14.913 1.943c-2.986.389-5.996.697-8.97 1.168-.67.106-1.292.429-1.265 1.197.012.345.092.7.136 1.04l.824 6.284.925 7.056.262 1.995c.093.712.48 1.158 1.27 1.092 2.522-.21 5.046-.657 7.555-.984l14.76-1.923 10.4-1.355.534-.07c.311-.04.622-.378.12-.313"/>
        <path fill="#FFF" d="M57.207 52.952c-.072-.548-.223-1.012-.453-1.39-.23-.38-.524-.65-.88-.813a2.117 2.117 0 0 0-1.176-.161c-.305.04-.578.133-.821.28a1.864 1.864 0 0 0-.601.585c-.158.242-.268.54-.331.893s-.067.74-.012 1.162c.056.426.16.804.313 1.134.153.33.342.595.568.796a1.93 1.93 0 0 0 1.603.48c.39-.051.735-.195 1.036-.431.3-.237.52-.57.66-1 .14-.431.172-.943.094-1.535zm-2.668-3.57c.78-.101 1.469-.031 2.069.211.6.242 1.081.635 1.444 1.178.363.544.596 1.207.699 1.99a5.03 5.03 0 0 1-.029 1.609 3.44 3.44 0 0 1-.546 1.323c-.268.388-.62.704-1.053.948-.434.243-.946.404-1.537.48-.588.077-1.127.051-1.616-.077a3.162 3.162 0 0 1-1.268-.648 3.444 3.444 0 0 1-.868-1.15 5.04 5.04 0 0 1-.444-1.536 4.867 4.867 0 0 1 .041-1.617c.103-.501.29-.941.56-1.32a3.14 3.14 0 0 1 1.046-.922c.428-.238.928-.394 1.502-.47zM62.26 49.665l-1.025.133.3 2.289 1.024-.134c.36-.047.654-.123.885-.23.231-.106.399-.252.503-.439.104-.187.138-.418.102-.694-.044-.33-.176-.586-.398-.769-.248-.193-.712-.245-1.392-.156zm.819 3.384l-1.394.182.278 2.12c.04.303-.002.542-.125.717a.71.71 0 0 1-.513.306.717.717 0 0 1-.584-.16c-.16-.137-.26-.355-.3-.655l-.756-5.772c-.044-.334.002-.582.137-.745.135-.163.37-.266.705-.31l1.952-.254c.577-.075 1.027-.089 1.35-.041a1.932 1.932 0 0 1 1.458.98c.153.27.254.584.3.942.1.763-.06 1.371-.48 1.826-.42.455-1.096.743-2.028.864zM71.667 48.47l-3.428.447.241 1.839 3.157-.411c.232-.03.412-.001.54.088a.534.534 0 0 1 .226.389.553.553 0 0 1-.114.438c-.099.122-.266.198-.502.229l-3.157.411.28 2.13 3.546-.462c.239-.031.426.001.562.096a.576.576 0 0 1 .24.418.562.562 0 0 1-.125.455c-.107.127-.28.205-.52.237l-4.135.538c-.331.044-.58.001-.744-.126-.164-.128-.268-.355-.31-.682l-.739-5.629c-.028-.218-.019-.4.028-.546a.607.607 0 0 1 .265-.341c.13-.081.303-.136.518-.164l4.018-.523c.243-.032.43-.002.562.09.132.092.21.225.232.399a.552.552 0 0 1-.121.449c-.104.123-.277.2-.52.231M75.65 47.557l3.505 4.032-.584-4.454c-.038-.29-.005-.515.101-.676a.636.636 0 0 1 .477-.283c.218-.028.4.022.546.15.145.128.237.337.275.627l.772 5.89c.086.656-.144 1.02-.69 1.092a.947.947 0 0 1-.709-.157 1.843 1.843 0 0 1-.306-.264c-.097-.104-.194-.21-.292-.318l-3.426-3.99.575 4.387c.037.286 0 .511-.115.675a.667.667 0 0 1-.484.286.66.66 0 0 1-.546-.154c-.15-.132-.243-.339-.28-.621l-.757-5.777c-.032-.246-.03-.442.006-.588a.828.828 0 0 1 .274-.418.889.889 0 0 1 .468-.209.851.851 0 0 1 .36.02c.102.032.195.081.279.146.083.066.171.153.264.262l.287.342"/>
        <path fill="#6A79A8" d="M65.04 31.291c0 .857-.696 1.55-1.556 1.55-.859 0-1.555-.693-1.555-1.55 0-.856.696-1.55 1.555-1.55.86 0 1.556.694 1.556 1.55"/>
    </g>
</svg>
