<svg xmlns="http://www.w3.org/2000/svg" width="22" height="22" viewBox="0 0 22 22">
    <g fill="#7C7C7C" fill-rule="evenodd">
        <path d="M21.206 20.241H.966a.764.764 0 0 0-.76.762c0 .41.352.762.76.762h20.258a.764.764 0 0 0 .759-.762.78.78 0 0 0-.777-.762zM.207 13.494l-.019 3.624c0 .205.074.41.222.558a.74.74 0 0 0 .537.223l3.589-.018a.74.74 0 0 0 .537-.224L17.468 5.204a.788.788 0 0 0 0-1.097L13.916.501a.78.78 0 0 0-1.091 0l-2.48 2.51L.43 12.954a.83.83 0 0 0-.222.539zM13.38 2.137l2.497 2.509-1.406 1.413-2.498-2.51 1.407-1.412zM1.742 13.828l9.14-9.182 2.498 2.51-9.14 9.163-2.516.019.018-2.51z"/>
    </g>
</svg>
