<svg width="25" height="14" viewBox="0 0 25 14" fill="none" xmlns="http://www.w3.org/2000/svg">
    <path fill-rule="evenodd" clip-rule="evenodd" d="m21.232 7.79-4.107 3.868a.742.742 0 0 0-.252.553c0 .208.091.408.252.552a.835.835 0 0 0 .587.237.836.836 0 0 0 .587-.237l5.449-5.131a.917.917 0 0 0 0-1.264l-5.45-5.131A.836.836 0 0 0 17.71 1a.835.835 0 0 0-.587.237.742.742 0 0 0-.252.552c0 .21.091.409.252.553l4.108 3.868H1.84a.82.82 0 0 0-.608.217.722.722 0 0 0-.23.573.722.722 0 0 0 .23.572.82.82 0 0 0 .608.217h19.392z" fill="#377DFF" stroke="#377DFF" stroke-width=".5"/>
</svg>
