<svg xmlns="http://www.w3.org/2000/svg" width="582" height="457" viewBox="0 0 582 457">
    <g fill="none" fill-rule="evenodd">
        <path fill="#474747" d="M228.396 440.886c-7.873-1.596-102.464-15.971-95.501-121.992 6.963-106.021 15.703-137.906 52.478-149.57 36.776-11.665 126.171-66.863 196.32-14.379 18.209 13.624 36.764 26.806 54.49 41.066 24.355 19.595 49.398 42.225 61.37 71.874a91.635 91.635 0 0 1 6.181 43.918c-1.833 17.495-4.413 34.515-9.113 51.564l-4.796 17.41c-.963 3.484-1.929 6.987-3.44 10.27-9.727 21.154-21.996 35.032-42.557 46.295-17.84 9.774-39.95 9.516-59.659 8.439-78.372-4.276-118.338 2.692-155.773-4.895" opacity=".07"/>
        <path fill="#FEFEFE" d="M370.02 445.892c.04.046.046.103.063.156.028.086.048.173.09.255.01.018.02.049.053.042.033-.007.026-.036.027-.058a1.099 1.099 0 0 0-.123-.54 1.096 1.096 0 0 1-.102-.379c-.022-.2-.072-.397-.12-.594a1.937 1.937 0 0 0-.103-.336c-.005-.012-.03-.03 0-.041.022-.007.05-.005.062.017.016.027.03.057.042.086a10.934 10.934 0 0 1 .779 2.556c.043.264.08.53.103.797.023.266.03.532.046.797.014.243-.012.483-.01.724.001.09-.006.18-.028.272l-.038-.196a.826.826 0 0 0-.089-.242c-.02-.035-.041-.071-.084-.09-.107-.047-.114-.14-.134-.227a.388.388 0 0 0-.078-.177c-.037-.045-.04-.106-.044-.162-.009-.103-.039-.206-.01-.31a.245.245 0 0 1 .032-.069c.013-.019.033-.033.058-.028.026.005.025.027.025.046-.001.042.029.064.068.069.045.006.065.028.072.064.006.034.027.056.066.05.04-.004.047-.034.048-.065a5.39 5.39 0 0 0-.026-.697 2.915 2.915 0 0 0-.073-.486.833.833 0 0 0-.326-.476.517.517 0 0 1-.194-.338l-.07-.38c-.003-.015-.003-.03.017-.04M362.953 447.726c0-.11-.003-.24.073-.269.018-.006.026-.055.025-.102 0-.053-.012-.086-.032-.107-.161-.166-.293-.428-.425-.693a.621.621 0 0 1-.054-.185c-.032-.215-.056-.434-.097-.642a.37.37 0 0 1 .04-.242c.03-.06.064-.049.097-.012a.582.582 0 0 1 .102.203.53.53 0 0 0 .112.213c.047.047.08.142.12.217.046.09.095.163.158.177.04.01.054.084.054.163 0 .146.026.259.068.358.01.02.02.046.022.072.023.286.097.523.138.792.015.101.028.191.064.274.042.096.06.24.069.378.008.13-.046.24-.129.262-.071.019-.143.032-.207-.083a.14.14 0 0 0-.081-.067c-.077-.03-.098-.074-.105-.249-.007-.146-.008-.293-.012-.458M363.626 448.686a.2.2 0 0 0 .114.025c.095-.013.026-.1.119-.116.103.083.225.16.354.234.128.075.278.152.48.172.388.04.841.134 1.237.095.223-.023.434-.078.579-.16.02-.012.041-.024.07-.032.139-.034-.004.075-.024.087-.17.111-.322.228-.47.346-.118.095-.212.231-.43.105-.024.101-.148.16-.335.192a.456.456 0 0 1-.212-.001c-.054-.017-.114-.037-.021-.068.05-.016.057-.04.038-.069-.069-.105-.077-.226-.375-.246a.276.276 0 0 0-.083.004c-.102.027.013.109-.059.152a.185.185 0 0 1-.12.012c-.039-.01-.06-.033-.047-.052.007-.011.023-.02.028-.032.006-.016-.013-.032-.031-.046a1.1 1.1 0 0 0-.528-.248c-.031-.005-.063-.008-.09-.017a.283.283 0 0 1-.056-.025c-.068-.038-.265-.113-.276-.162-.013-.058.145-.09.138-.15M358.731 445.444c-.389-.002-.583-.174-.46-.412.144-.278.484-.45.825-.62.071-.035.115-.022.127.04.036.185.08.37.055.559-.005.037-.017.074-.019.112-.011.223-.173.322-.528.32M361.142 455.95c.206.002.288.125.222.316-.077.224-.195.41-.421.467-.066.016-.128.05-.158.12-.076.177-.211.163-.335.117-.144-.053-.119-.21-.099-.333.029-.181.08-.332.27-.415.13-.058.234-.208.39-.247.053-.013.104-.027.13-.025M359.285 448.735a.576.576 0 0 1-.206.374c-.2.189-.42.355-.658.497-.051.03-.106.06-.157.022-.054-.04-.019-.1-.009-.155.076-.413.248-.743.694-.865a.3.3 0 0 1 .261.042c.042.028.075.065.075.085"/>
        <path fill="#FDFDFD" d="M359.285 444.911c0 .137-.003.228-.058.317-.155.255-.31.282-.57.09a1.115 1.115 0 0 1-.295-.294c-.094-.152-.21-.305-.042-.465a.528.528 0 0 1 .452-.16c.257.04.42.173.495.368.022.06.016.124.018.144M360.717 457c-.595-.367-.414-.67.003-.974.053-.038.148-.085.397-.075.174.007.241.047.244.083.029.308.159.618-.644.966"/>
        <path fill="#FEFEFE" d="M153.895 338.466c.001-.109-.003-.24.074-.268.017-.007.025-.056.024-.103 0-.053-.011-.086-.031-.107-.162-.166-.294-.428-.425-.692a.621.621 0 0 1-.055-.186c-.031-.214-.056-.434-.097-.641a.37.37 0 0 1 .04-.243c.03-.06.065-.049.097-.012a.582.582 0 0 1 .103.203.53.53 0 0 0 .111.213c.047.047.08.143.12.217.046.09.095.163.158.178.04.009.054.084.054.163 0 .145.026.258.069.357.008.02.019.046.02.072.024.286.098.523.139.792.015.102.029.192.065.274.041.096.06.24.068.378.008.13-.046.24-.128.262-.072.02-.144.032-.208-.083a.14.14 0 0 0-.081-.066c-.077-.03-.098-.074-.105-.25-.007-.145-.008-.293-.012-.458M155.619 339.426a.2.2 0 0 0 .114.026c.095-.013.025-.1.118-.116.104.082.226.159.354.234.13.074.28.151.482.172.387.038.84.133 1.236.094.223-.022.434-.078.579-.16.02-.012.04-.024.07-.031.139-.035-.004.074-.024.086-.17.112-.322.228-.47.346-.118.095-.212.231-.431.106-.023.1-.147.159-.335.192a.456.456 0 0 1-.212-.002c-.053-.017-.113-.037-.02-.068.05-.016.056-.04.038-.068-.069-.105-.077-.227-.375-.247a.276.276 0 0 0-.083.005c-.102.026.013.108-.059.15a.185.185 0 0 1-.12.013c-.04-.01-.06-.033-.047-.052.007-.011.023-.02.028-.032.006-.016-.013-.031-.031-.046a1.1 1.1 0 0 0-.529-.248c-.03-.004-.062-.008-.09-.016a.283.283 0 0 1-.055-.026c-.068-.038-.265-.113-.276-.162-.013-.058.144-.09.138-.15"/>
        <path fill="#FDFDFD" d="M152.71 344.589c-.595-.367-.415-.671.002-.974.054-.039.149-.086.398-.076.174.007.24.047.244.084.028.307.159.618-.644.966"/>
        <path fill="#FEFEFE" d="M116.839 367.55c.04.028.047.062.064.093.027.052.048.105.09.153.01.012.02.03.053.026.033-.005.026-.022.027-.035a.458.458 0 0 0-.123-.324.471.471 0 0 1-.102-.228c-.022-.12-.073-.238-.12-.356a.866.866 0 0 0-.103-.201c-.006-.008-.03-.019 0-.025.021-.005.049-.003.062.01.016.016.029.034.042.051.213.289.391.583.532.883a4.008 4.008 0 0 1 .35 1.13c.023.159.03.319.045.478.015.145-.011.29-.009.434a.413.413 0 0 1-.029.163c-.012-.039-.024-.078-.038-.117a.397.397 0 0 0-.088-.146.163.163 0 0 0-.084-.053c-.107-.029-.115-.085-.135-.137a.205.205 0 0 0-.077-.106c-.038-.027-.04-.064-.045-.097-.009-.062-.038-.123-.009-.186a.133.133 0 0 1 .032-.041.074.074 0 0 1 .058-.017c.025.003.024.016.024.027 0 .025.03.038.068.042.046.004.066.017.072.038.007.02.027.033.066.03.041-.002.047-.02.049-.039a1.951 1.951 0 0 0-.026-.418 1.115 1.115 0 0 0-.074-.292c-.049-.114-.155-.21-.326-.285a.322.322 0 0 1-.193-.203c-.025-.076-.048-.152-.07-.228-.004-.009-.003-.018.017-.024M109.247 304.647c-.023-.005-.049-.007-.067-.016a.302.302 0 0 0-.198-.025.178.178 0 0 1-.096-.009c-.03-.011-.06-.021-.02-.046.038-.023.012-.04-.018-.055a.961.961 0 0 0-.206-.064c-.134-.03-.267-.06-.407-.08a.601.601 0 0 0-.089-.006c-.02 0-.048-.006-.06.009-.013.018.012.03.032.038.08.032.106.081.11.137.003.038.02.061.09.047.02-.004.044-.002.066 0 .033.002.043.02.052.036.01.018-.006.034-.025.047-.023.015-.046 0-.067-.005-.071-.02-.12-.06-.18-.09-.3-.143-.626-.26-.942-.387a6.41 6.41 0 0 1-.628-.3c-.083-.044-.178-.076-.239-.139-.052-.054-.161-.074-.25-.123.088.007.153.028.222.04.22.04.442.074.665.108.165.025.306.092.455.143.451.155.89.325 1.314.51.167.072.33.146.495.22a1.422 1.422 0 0 1-.009.01"/>
        <path fill="#FDFDFD" d="M107.038 304.667c-.053-.036-.129-.082-.203-.139-.228-.174-.448-.41-.667-.649-.029-.03-.076-.062-.06-.187.016-.119.057-.068.09-.049.303.172.599.414.886.73.031.034.072.04.071.166 0 .08-.036.125-.117.128"/>
        <path fill="#E5E5E5" d="M165.33 396.93c-4.875-1.107-6.672-2.412-4.339-3.948 16.227-10.682 89.272-10.357 124.704-10.345 44.567.015 90.939-.267 131.08 2.334 16.798 1.088 54.856 2.09 61.386 5.703 17.121 9.495-104.31 12.107-123.964 12.236-32.764.216-161.024.34-188.867-5.98"/>
        <path fill="#E5E5E5" d="M457.074 392.448H174.022c-7.747 0-14.05-6.309-14.05-14.063v-.844c0-.455.37-.824.825-.824h309.522c.452 0 .823.369.823.824v.826c0 7.764-6.311 14.08-14.068 14.08"/>
        <path fill="#E5E5E5" d="M444.266 379.84V223.468c0-2.83-2.225-5.147-4.944-5.147h-247.32c-2.719 0-4.943 2.316-4.943 5.147V379.84h257.207"/>
        <path fill="#FFF" d="M448.496 376.603V226.279c0-2.722-2.224-4.948-4.943-4.948h-247.32c-2.718 0-4.943 2.226-4.943 4.948v150.324h257.206"/>
        <path fill="#2496FF" d="M449.393 376.525v-13.072-32.012-39.968-37.523-24.103c0-1.212.045-2.434 0-3.645-.139-3.733-3.133-5.483-6.503-5.483H201.454c-4.369 0-10.8-.644-11.06 5.649-.188 4.557 0 9.162 0 13.722V376.681c0 .452.435.534.807.534h246.75c3.327 0 6.703.167 10.026 0 .143-.007.288 0 .43 0 .985 0 1.387-1.224.179-1.224h-253.31c-1.096 0-2.383-.188-3.466 0-.135.023-.293 0-.43 0l.806.534V363.67v-31.383-39.721-37.29-24.653c0-1.449-.053-2.909 0-4.356.09-2.402 1.565-4.183 4.03-4.325.307-.018.62 0 .926 0H437.803c3.741 0 9.559-.995 9.797 4.521.212 4.9 0 9.856 0 14.759v135.458c0 .886 1.793.59 1.793-.156"/>
        <path fill="#FFF" d="M461.41 392.448H178.358c-7.747 0-14.05-6.309-14.05-14.063v-.844c0-.455.37-.824.825-.824h309.523c.452 0 .823.369.823.824v.826c0 7.764-6.314 14.08-14.07 14.08"/>
        <path fill="#2496FF" d="M461.871 391.84H180.715c-1.83 0-3.603.026-5.399-.494-5.025-1.457-8.826-5.844-9.667-10.993-.072-.437.103-2.713-.186-2.99.002.003-.924.012-.759-.039.076-.023.192.003.27 0 3.654-.113 7.328 0 10.982 0h294.716c.772 0 2.631-.361 3.333 0 1.044.536.026 4.253-.246 5.178-1.57 5.322-6.297 9.237-11.888 9.338-.802.014-2.467 1.243-.922 1.216 4.69-.085 9.227-2.001 12.284-5.625a14.523 14.523 0 0 0 3.168-6.696c.235-1.304.886-4.07-.823-4.55-.772-.219-1.735-.076-2.521-.076H169.513c-1.21 0-2.432-.052-3.641 0-.945.04-2.155.219-2.6 1.175-.3.643-.128 1.773-.08 2.435.096 1.324.38 2.634.844 3.877a14.534 14.534 0 0 0 4.02 5.82c4.657 4.077 10.286 3.64 15.945 3.64H460.95c.806 0 2.469-1.216.922-1.216"/>
        <path fill="#2496FF" d="M283.24 376.959c1.029 4.768 5.517 4.46 9.27 4.46h53.19c4.179 0 9.69.553 10.846-4.81.064-.296-.328-.393-.542-.393h-71.531c-.67 0-1.884 1.01-.69 1.01h71.531l-.543-.394c-.531 2.464-2.352 3.576-4.66 3.576h-54.722c-3.78 0-9.307 1.02-10.374-3.925-.131-.612-1.913-.167-1.774.476"/>
        <path fill="#F9F9F9" d="M201.083 369.481h233.285V233.277H201.083z"/>
        <path fill="#2496FF" d="M434.71 232.763H230.163c-9.43 0-18.909-.274-28.337 0-.133.003-.268 0-.4 0-.286 0-1.232.167-1.232.622v130.59c0 1.636-.37 3.772 0 5.377.017.071 0 .163 0 .237 0 .3.273.406.546.406h204.547c9.431 0 18.909.274 28.337 0 .134-.003.268 0 .402 0 .285 0 1.23-.167 1.23-.622v-13.536-32.51-39.34-34.023-11.182c0-1.635.37-3.771 0-5.376-.016-.071 0-.163 0-.237 0-.751-1.776-.382-1.776.216v134.141c0 .49-.173 1.36 0 1.826.022.061 0 .169 0 .237l1.23-.622H204.917c-.938 0-2.173-.215-3.091 0-.12.028-.276 0-.4 0l.545.406v-13.536-32.51-39.34-34.023-11.182-3.55c0-.49.172-1.36 0-1.826-.023-.061 0-.169 0-.237l-1.23.622H405.286c9.437 0 18.902.215 28.337 0 .134-.003.268 0 .402 0 .68 0 1.879-1.028.684-1.028"/>
        <path fill="#E5E5E5" d="M211.492 265.715h-2.721c-5.315 0-9.624-4.313-9.624-9.633v-24.03h21.97v24.03c0 5.32-4.31 9.633-9.625 9.633M255.43 265.715h-2.72c-5.316 0-9.625-4.313-9.625-9.633v-24.03h21.97v24.03c0 5.32-4.31 9.633-9.624 9.633M299.369 265.715h-2.721c-5.316 0-9.624-4.313-9.624-9.633v-24.03h21.969v24.03c0 5.32-4.31 9.633-9.624 9.633M343.307 265.715h-2.72c-5.316 0-9.625-4.313-9.625-9.633v-24.03h21.97v24.03c0 5.32-4.31 9.633-9.625 9.633M387.246 265.715h-2.722c-5.315 0-9.624-4.313-9.624-9.633v-24.03h21.97v24.03c0 5.32-4.31 9.633-9.624 9.633M431.184 265.715h-2.721c-5.316 0-9.624-4.313-9.624-9.633v-24.03h21.969v24.03c0 5.32-4.31 9.633-9.624 9.633"/>
        <path fill="#FFF" d="M211.492 261.479h-2.721c-5.315 0-9.624-4.313-9.624-9.633v-19.793h21.97v19.793c0 5.32-4.31 9.633-9.625 9.633M255.43 261.479h-2.72c-5.316 0-9.625-4.313-9.625-9.633v-19.793h21.97v19.793c0 5.32-4.31 9.633-9.624 9.633M299.369 261.479h-2.721c-5.316 0-9.624-4.313-9.624-9.633v-19.793h21.969v19.793c0 5.32-4.31 9.633-9.624 9.633M343.307 261.479h-2.72c-5.316 0-9.625-4.313-9.625-9.633v-19.793h21.97v19.793c0 5.32-4.31 9.633-9.625 9.633M387.246 261.479h-2.722c-5.315 0-9.624-4.313-9.624-9.633v-19.793h21.97v19.793c0 5.32-4.31 9.633-9.624 9.633M431.184 261.479h-2.721c-5.316 0-9.624-4.313-9.624-9.633v-19.793h21.969v19.793c0 5.32-4.31 9.633-9.624 9.633"/>
        <path fill="#2496FF" d="M211.81 265.11c-3.685 0-7.117-.193-9.667-3.304-1.773-2.165-2.1-4.655-2.1-7.32v-17.137-5.376l-1.214.685h21.969l-.578-.525v16.512c0 2.419.023 4.839 0 7.258-.046 4.974-3.52 9.073-8.637 9.207-.975.026-1.395 1.242-.182 1.21 3.898-.102 7.583-2.157 9.436-5.65 1.058-1.994 1.175-4.093 1.175-6.283V237.35v-5.376c0-.312-.267-.525-.578-.525h-21.97c-.355 0-1.213.158-1.213.685v14.93c0 4.895-1.067 11.438 2.261 15.5 2.783 3.398 6.595 3.757 10.662 3.757.799 0 1.832-1.21.636-1.21M255.798 265.295c-3.725 0-7.146-.318-9.7-3.432-1.79-2.183-2.125-4.744-2.125-7.443v-17.07-5.535l-1.255.658h21.97l-.52-.182v16.166c0 2.486.027 4.974 0 7.46-.054 4.82-3.244 9.244-8.37 9.378-.556.014-1.915.871-.735.84 3.715-.096 7.337-1.794 9.358-5.001 1.315-2.086 1.521-4.335 1.521-6.714v-17.07-5.535c0-.19-.423-.183-.52-.183h-21.97c-.344 0-1.254.189-1.254.659v14.751c0 4.96-1.103 11.595 2.389 15.649 2.786 3.235 6.536 3.445 10.476 3.445.561 0 1.917-.841.735-.841M299.706 265.181c-3.708 0-7.12-.23-9.68-3.353-1.783-2.177-2.113-4.684-2.113-7.364v-17.137-5.376l-1.227.635h21.97l-.553-.431v16.34c0 2.446.018 4.893 0 7.34-.036 4.83-3.284 9.213-8.397 9.346-.7.019-1.866 1.099-.674 1.068 3.806-.1 7.441-1.859 9.435-5.201 1.23-2.064 1.416-4.263 1.416-6.584v-17.137-5.376c0-.303-.271-.432-.553-.432h-21.97c-.3 0-1.226.165-1.226.636v14.93c0 4.877-1.065 11.41 2.249 15.456 2.774 3.386 6.603 3.708 10.649 3.708.706 0 1.87-1.068.674-1.068M343.664 265.255c-3.716 0-7.145-.276-9.693-3.404-1.784-2.19-2.121-4.73-2.121-7.43v-17.072-5.534l-1.245.698h21.969l-.53-.222v16.166c0 2.486.03 4.975 0 7.46-.058 4.816-3.273 9.205-8.38 9.338-.605.016-1.9.951-.714.92 3.79-.1 7.445-1.859 9.443-5.17 1.243-2.06 1.425-4.261 1.425-6.585v-17.07-5.535c0-.202-.415-.222-.53-.222h-21.97c-.386 0-1.243.189-1.243.698v14.751c0 4.964-1.104 11.603 2.392 15.661 2.782 3.231 6.54 3.472 10.483 3.472.611 0 1.903-.92.714-.92M387.32 265.051c-3.766 0-7.275-.332-9.72-3.638-1.57-2.121-1.8-4.49-1.8-7.009v-17.038-5.377l-.975.728h21.97l-.826-.6v16.511c0 2.42.023 4.84 0 7.259-.046 4.97-3.551 9.03-8.648 9.164-1.02.026-1.358 1.36-.15 1.328 3.917-.102 7.573-2.17 9.427-5.677 1.058-2 1.172-4.104 1.172-6.298v-17.038-5.377c0-.464-.429-.6-.825-.6h-21.97c-.355 0-.975.306-.975.727v14.931c0 5.084-1.108 11.8 2.581 15.894 2.876 3.192 6.596 3.438 10.59 3.438 1.023 0 1.353-1.328.15-1.328M431.766 265.378c-3.839 0-7.445-.329-10.01-3.616-1.68-2.152-2.03-4.627-2.03-7.249V237.35v-5.534l-1.47.575h9.524c3.934 0 8.035.342 11.956 0 .67-.059.215.106.184-.07.062.353 0 .77 0 1.127v19.255c0 1.203.029 2.409 0 3.61-.106 4.54-3.339 8.94-8.154 9.066-.347.01-1.988.696-1.165.674 3.611-.094 7.208-1.575 9.334-4.602 1.482-2.11 1.76-4.454 1.76-6.937V237.35v-5.534c0-.097-.279-.1-.305-.1h-21.97c-.288 0-1.469.154-1.469.576v22.698c0 2.794.433 5.407 2.332 7.618 2.761 3.215 6.406 3.445 10.318 3.445.35 0 1.995-.674 1.165-.674"/>
        <path fill="#6EB6F9" d="M189.523 265.715h-2.721c-5.315 0-9.624-4.313-9.624-9.633v-24.03h21.969v24.03c0 5.32-4.309 9.633-9.624 9.633M233.461 265.715h-2.72c-5.316 0-9.625-4.313-9.625-9.633v-24.03h21.97v24.03c0 5.32-4.31 9.633-9.625 9.633M277.4 265.715h-2.721c-5.316 0-9.624-4.313-9.624-9.633v-24.03h21.969v24.03c0 5.32-4.309 9.633-9.624 9.633M321.338 265.715h-2.721c-5.315 0-9.624-4.313-9.624-9.633v-24.03h21.97v24.03c0 5.32-4.31 9.633-9.625 9.633M365.276 265.715h-2.72c-5.316 0-9.625-4.313-9.625-9.633v-24.03h21.97v24.03c0 5.32-4.31 9.633-9.625 9.633M409.215 265.715h-2.721c-5.316 0-9.624-4.313-9.624-9.633v-24.03h21.969v24.03c0 5.32-4.31 9.633-9.624 9.633M453.153 265.715h-2.721c-5.315 0-9.624-4.313-9.624-9.633v-24.03h21.97v24.03c0 5.32-4.31 9.633-9.625 9.633"/>
        <path fill="#2496FF" d="M190.258 261.479c-5.315 0-9.256-4.313-9.256-9.633v-19.793h18.145v19.793c0 5.32-3.574 9.633-8.889 9.633M233.461 261.479h-2.72c-5.316 0-9.625-4.313-9.625-9.633v-19.793h21.97v19.793c0 5.32-4.31 9.633-9.625 9.633M277.4 261.479h-2.721c-5.316 0-9.624-4.313-9.624-9.633v-19.793h21.969v19.793c0 5.32-4.309 9.633-9.624 9.633M321.338 261.479h-2.721c-5.315 0-9.624-4.313-9.624-9.633v-19.793h21.97v19.793c0 5.32-4.31 9.633-9.625 9.633M365.276 261.479h-2.72c-5.316 0-9.625-4.313-9.625-9.633v-19.793h21.97v19.793c0 5.32-4.31 9.633-9.625 9.633M409.215 261.479h-2.721c-5.316 0-9.624-4.313-9.624-9.633v-19.793h21.969v19.793c0 5.32-4.31 9.633-9.624 9.633M453.153 261.479h-2.721c-5.315 0-9.624-4.313-9.624-9.633v-19.793h21.97v19.793c0 5.32-4.31 9.633-9.625 9.633"/>
        <path fill="#2496FF" d="M190.097 265.346c-3.694 0-7.15-.252-9.751-3.282-1.876-2.185-2.28-4.795-2.28-7.55v-17.165-5.534l-1.462.607H193.518c1.488 0 3.085.167 4.566 0 .698-.079.192.1.176-.065.038.384 0 .793 0 1.177V252.971c0 1.115.026 2.234 0 3.349-.113 4.686-3.48 8.902-8.355 9.03-.49.013-1.932.761-.764.73 3.637-.094 7.22-1.729 9.27-4.818 1.397-2.107 1.624-4.406 1.624-6.842v-17.07-5.535c0-.107-.271-.132-.314-.132h-21.97c-.326 0-1.46.128-1.46.608v22.698c0 2.661.375 5.136 2.081 7.316 2.72 3.474 6.524 3.78 10.577 3.78.387 0 2.011-.739 1.148-.739M233.787 265.14c-3.698 0-7.116-.206-9.672-3.325-1.776-2.168-2.106-4.669-2.106-7.339V237.34v-5.377l-1.22.665h21.97l-.567-.486v16.512c0 2.419.023 4.84 0 7.258-.047 4.974-3.506 9.098-8.63 9.232-.95.024-1.418 1.174-.2 1.143 3.884-.102 7.59-2.15 9.44-5.634 1.057-1.993 1.176-4.086 1.176-6.275V237.34v-5.377c0-.308-.268-.486-.567-.486h-21.969c-.332 0-1.22.161-1.22.665v14.931c0 4.888-1.067 11.424 2.257 15.481 2.778 3.39 6.6 3.736 10.656 3.736.76 0 1.849-1.15.652-1.15M277.969 265.33c-3.682 0-7.164-.229-9.749-3.272-1.868-2.2-2.278-4.782-2.278-7.545V237.35v-5.534l-1.457.624H281.4c1.48 0 3.094.183 4.566 0 .703-.088.189.113.171-.082.034.385 0 .792 0 1.177V252.971c0 1.114.033 2.235 0 3.349-.135 4.686-3.472 8.881-8.36 9.01-.514.013-1.926.802-.753.77 3.641-.094 7.224-1.73 9.265-4.831 1.393-2.115 1.623-4.41 1.623-6.849v-17.07-5.535c0-.11-.267-.148-.318-.148h-21.97c-.346 0-1.456.115-1.456.624v22.698c0 2.662.38 5.142 2.083 7.322 2.712 3.473 6.53 3.79 10.58 3.79.408 0 2.019-.772 1.139-.772M321.664 265.14c-3.698 0-7.117-.206-9.672-3.325-1.776-2.168-2.106-4.669-2.106-7.339V237.34v-5.377l-1.22.665h21.97l-.567-.486v16.512c0 2.419.023 4.84 0 7.258-.047 4.974-3.506 9.098-8.631 9.232-.95.024-1.417 1.175-.2 1.143 3.885-.102 7.592-2.15 9.44-5.634 1.057-1.993 1.177-4.086 1.177-6.275V237.34v-5.377c0-.308-.268-.486-.567-.486h-21.97c-.332 0-1.218.161-1.218.665v14.93c0 4.889-1.069 11.425 2.256 15.482 2.777 3.39 6.6 3.736 10.656 3.736.76 0 1.848-1.15.652-1.15M365.647 265.306c-3.728 0-7.148-.321-9.703-3.44-1.79-2.184-2.126-4.746-2.126-7.446v-17.07-5.535l-1.258.646h21.97l-.517-.17v16.166c0 2.487.015 4.974 0 7.46-.03 4.821-3.256 9.256-8.366 9.39-.542.014-1.92.847-.741.817 3.713-.097 7.335-1.795 9.36-4.995 1.318-2.085 1.522-4.33 1.522-6.709v-17.07-5.535c0-.186-.425-.17-.517-.17H353.3c-.332 0-1.257.189-1.257.646v14.751c0 4.96-1.103 11.593 2.387 15.646 2.785 3.232 6.537 3.436 10.475 3.436.546 0 1.92-.818.74-.818M409.589 265.319c-3.732 0-7.152-.328-9.706-3.449-1.789-2.186-2.126-4.749-2.126-7.45v-17.07-5.535l-1.262.634h21.97l-.514-.158v16.166c0 2.487.016 4.974 0 7.46-.03 4.82-3.246 9.268-8.362 9.402-.527.014-1.924.823-.748.792 3.644-.095 7.224-1.732 9.264-4.839 1.39-2.12 1.62-4.41 1.62-6.852v-17.07-5.535c0-.18-.426-.158-.513-.158h-21.969c-.319 0-1.26.19-1.26.634v14.751c0 4.958-1.104 11.59 2.386 15.642 2.784 3.232 6.537 3.427 10.472 3.427.53 0 1.925-.792.748-.792M453.522 265.3c-3.726 0-7.149-.32-9.702-3.436-1.79-2.183-2.125-4.745-2.125-7.444v-17.07-5.535l-1.256.653h21.97l-.52-.177v16.166c0 2.486.027 4.974 0 7.46-.052 4.82-3.24 9.248-8.367 9.382-.55.015-1.917.862-.738.832 3.714-.097 7.336-1.795 9.36-5 1.315-2.083 1.52-4.333 1.52-6.71v-17.072-5.534c0-.188-.423-.178-.518-.178h-21.97c-.34 0-1.256.189-1.256.654v14.751c0 4.96-1.103 11.594 2.389 15.648 2.786 3.235 6.535 3.44 10.475 3.44.555 0 1.919-.83.738-.83"/>
        <path fill="#FFF" d="M221.116 232.054l19.017-27.582H222.39l-23.243 27.582h21.97"/>
        <path fill="#6A79A8" d="M221.992 231.898l16.608-24.089 2.408-3.492c.114-.165-.23-.209-.3-.209h-11.915c-1.828 0-3.66-.04-5.488 0-.811.018-1.398.166-1.966.724-2.425 2.38-4.482 5.317-6.67 7.913l-10.16 12.058-6.166 7.316c-.17.203.011.299.229.299h21.97c.38 0 2.008-.729 1.15-.729h-21.97l.229.299 20.291-24.079 2.951-3.502-1.379.43h16.463c.254 0 1.012-.132 1.242 0-.485-.28-.175-.136-.55.21-.816.754-1.42 2.059-2.048 2.97l-3.414 4.95-8.274 12.002-4.992 7.24c-.122.178 1.45.124 1.75-.311"/>
        <path fill="#FFF" d="M265.055 232.054l10.564-27.582h-17.743l-14.79 27.582h21.969"/>
        <path fill="#6A79A8" d="M265.93 231.897l10.565-27.581c.067-.176-.188-.205-.3-.205h-17.743c-.405 0-1.23.106-1.451.518l-14.791 27.582c-.091.17.21.204.3.204h21.969c.378 0 2.007-.723 1.151-.723-7.231 0-14.552-.358-21.773 0-.33.016.004.246.198.029.264-.296.432-.806.619-1.154l2.423-4.52 6.974-13.004 4.68-8.727-1.45.518H272.732c.57 0 1.22.085 1.785 0 .804-.12.125.111.207-.155-.762 2.474-1.873 4.889-2.798 7.304l-4.753 12.41-2.995 7.818c-.117.306 1.576.143 1.75-.314"/>
        <path fill="#FFF" d="M308.993 232.054l2.113-27.582h-17.744l-6.338 27.582h21.969"/>
        <path fill="#6A79A8" d="M309.89 231.98l2.113-27.581c.035-.456-.464-.554-.813-.554h-17.743c-.406 0-.888.294-.982.701l-6.339 27.582c-.103.45.525.553.813.553h21.969c.997 0 1.377-1.255.17-1.255h-21.97l.813.554 6.339-27.581-.982.701h17.743l-.812-.554c-.705 9.194-1.41 18.388-2.113 27.582-.069.89 1.735.626 1.794-.148"/>
        <path fill="#FFF" d="M352.931 232.054l-6.339-27.582H328.85l2.113 27.582h21.97"/>
        <path fill="#6A79A8" d="M353.818 231.816l-6.338-27.582c-.053-.229-.356-.351-.566-.351h-17.743c-.486 0-1.257.207-1.21.827l2.114 27.582c.017.229.384.351.565.351h21.969c.778 0 1.84-1.179.645-1.179h-21.97l.566.352c-.705-9.194-1.41-18.388-2.113-27.582l-1.21.828h17.743l-.565-.352 6.339 27.582c.17.74 1.948.28 1.774-.476"/>
        <path fill="#FFF" d="M396.87 232.054l-14.791-27.582h-17.744l10.565 27.582h21.97"/>
        <path fill="#6A79A8" d="M397.757 231.816l-14.79-27.582c-.115-.213-.309-.316-.557-.316h-17.743c-.316 0-1.432.235-1.219.792l10.565 27.582c.084.22.333.316.556.316h21.969c.732 0 1.86-1.108.663-1.108h-21.97l.557.316-10.565-27.582-1.22.792h17.744l-.556-.316 14.791 27.582c.352.656 2.082.095 1.775-.476"/>
        <path fill="#FFF" d="M440.808 232.054l-23.243-27.582h-17.743l19.017 27.582h21.969"/>
        <path fill="#6A79A8" d="M441.64 231.737l-14.766-17.522-7.627-9.051c-.476-.566-.655-.95-1.349-1.095-1.357-.281-3.074 0-4.453 0h-13.25c-.143 0-1.49.308-1.26.641a948673.891 948673.891 0 0 0 17.47 25.339c.416.603.925 1.799 1.534 2.225.593.415 1.886.183 2.583.183h19.914c.54 0 1.922-.806.744-.806h-21.97l.516.165-16.608-24.089-2.409-3.493-1.26.641h11.217c1.948 0 3.913.074 5.86 0 .89-.033.39.157.235-.053.17.23.372.442.556.66l16.806 19.944 5.852 6.944c.313.37 1.997-.239 1.665-.633"/>
        <path fill="#6EB6F9" d="M222.39 204.472h-17.744l-27.468 27.582h21.969l23.243-27.582"/>
        <path fill="#2496FF" d="M222.39 204.472H208.32l-27.468 27.582h18.294l23.243-27.582"/>
        <path fill="#2496FF" d="M222.961 204.095h-12.594c-2.151 0-5.388-.71-7.048.957l-19.826 19.907-7.121 7.151c-.197.198.036.32.234.32H196.291c.99 0 2.662.265 3.54-.336.639-.437 1.141-1.305 1.632-1.888l3.83-4.546 10.878-12.908 7.025-8.336c.371-.441-1.324-.23-1.613.113l-20.291 24.079-2.951 3.502 1.377-.434H177.75l.235.321 24.061-24.16 3.408-3.421-1.378.434h17.743c.396 0 2.015-.755 1.143-.755M243.085 232.054l14.791-27.582h-17.743l-19.017 27.582h21.97"/>
        <path fill="#2496FF" d="M243.93 232.14l14.79-27.581c.284-.527-.393-.708-.757-.708h-16.836c-.843 0-1.368-.004-1.945.689-1.948 2.343-3.532 5.123-5.26 7.63l-8.472 12.286-5.178 7.511c-.351.51.452.708.757.708H243c.991 0 1.38-1.243.173-1.243h-21.97l.759.708 16.608-24.088 2.408-3.493-.93.535h17.742l-.757-.708-14.791 27.581c-.46.857 1.335.832 1.689.173M287.024 232.054l6.338-27.582H275.62l-10.564 27.582h21.969"/>
        <path fill="#2496FF" d="M287.896 231.888l6.34-27.58c.039-.171-.165-.174-.291-.174H276.2c-.33 0-1.308.121-1.454.504l-10.565 27.581c-.065.169.189.174.29.174h21.97c.351 0 1.995-.678 1.163-.678h-16.913c-1.464 0-3.115-.217-4.566 0-.746.112-.108-.085-.18.123.104-.305.232-.604.347-.904l1.668-4.355 5.111-13.344 3.42-8.928-1.454.504h15.038c.65 0 1.313.04 1.962 0 .165-.01.34-.01.504 0 .444.026-.06-.026-.056-.158-.023.696-.342 1.488-.496 2.162l-1.096 4.763-2.89 12.576-1.853 8.065c-.074.32 1.65.086 1.745-.33M330.962 232.054l-2.113-27.582h-17.743l-2.113 27.582h21.97"/>
        <path fill="#2496FF" d="M331.85 231.816c-.705-9.194-1.41-18.388-2.113-27.582-.008-.1-.267-.11-.309-.11h-17.743c-.33 0-1.432.133-1.467.586l-2.113 27.582c-.007.099.285.11.309.11h21.969c.363 0 2-.697 1.158-.697h-21.065c-.158 0-.747.098-.872 0 .43.337.243-.173.319-.443.336-1.19.21-2.735.303-3.964l1.042-13.6.725-9.464-1.466.587h14.763c.56 0 2.497-.337 2.97 0-.53-.377-.178 1.457-.155 1.766l.363 4.738.974 12.708.633 8.259c.022.291 1.81-.016 1.775-.476M374.9 232.054l-10.565-27.582h-17.743l6.34 27.582H374.9"/>
        <path fill="#2496FF" d="M375.788 231.816l-10.565-27.582c-.13-.34-.482-.389-.802-.389h-17.744c-.403 0-1.086.37-.972.865l6.339 27.582c.08.346.522.389.802.389h21.97c.995 0 1.377-1.254.17-1.254h-21.97l.802.389-6.338-27.582-.973.865h17.743l-.802-.389 10.565 27.582c.296.773 2.06.27 1.775-.476M418.839 232.054l-19.017-27.582h-17.743l14.79 27.582h21.97"/>
        <path fill="#2496FF" d="M419.668 231.726l-12.482-18.105c-2.037-2.954-3.989-5.994-6.123-8.879-.4-.54-.423-.646-1.117-.71-1.607-.148-3.299 0-4.91 0H382.44c-.19 0-1.47.267-1.25.678l14.791 27.582c.103.191.33.202.525.202h21.97c.586 0 1.91-.88.724-.88h-21.97l.526.202-14.79-27.582-1.25.679h16.462c.362 0 .888-.094 1.242 0-.74-.197-.309-.076-.14.307.46 1.038 1.405 2.037 2.048 2.97l3.414 4.95 8.274 12.001 4.992 7.241c.288.417 2.009-.149 1.659-.656M462.777 232.054l-27.468-27.582h-17.744l23.243 27.582h21.97"/>
        <path fill="#2496FF" d="M463.592 231.674l-16.947-17.017-9.21-9.249c-.436-.437-1.003-1.273-1.606-1.505-1.07-.412-2.877-.041-3.991-.041h-14.183c-.38 0-1.321.497-.905.99l16.435 19.504 4.33 5.138c.723.859 1.472 2.114 2.366 2.808.615.477 1.306.362 2.08.362h20.726c.984 0 1.388-1.22.18-1.22h-21.97l.726.23a638537.76 638537.76 0 0 0-20.291-24.08l-2.951-3.502-.905.99h17.743l-.726-.23 24.062 24.161 3.407 3.421c.532.535 2.216-.173 1.63-.76"/>
        <path fill="#2496FF" d="M204.605 204.645h201.344c9.244 0 18.534.274 27.775 0 .124-.003.249 0 .373 0 .724 0 1.863-1.094.667-1.094H233.42c-9.243 0-18.534-.274-27.774 0-.125.003-.25 0-.374 0-.724 0-1.863 1.094-.667 1.094M176.641 232.47H450.606c3.698 0 7.412.098 11.11 0 .162-.004.324 0 .486 0 .558 0 1.918-.835.736-.835H188.974c-3.699 0-7.412-.098-11.11 0-.162.004-.324 0-.486 0-.558 0-1.918.836-.737.836M284.957 313.96l21.737-28.298c1.836-2.391 3.77-4.54 6.782-5.489 3.979-1.254 7.87-.11 11.088 2.354 4.98 3.814 9.942 7.652 14.913 11.477l14.312 11.013c.638.491 2.18-.412 1.364-1.04l-28.937-22.268c-2.598-2-5.45-3.336-8.796-3.391-4.411-.073-8.499 2.011-11.194 5.468-3.73 4.784-7.392 9.624-11.088 14.435l-11.671 15.196c-.689.896.984 1.203 1.49.543"/>
        <path fill="#F9AB98" d="M366.307 349.349l-82.387 10.778a2.056 2.056 0 0 1-2.306-1.775l-5.424-41.538a2.058 2.058 0 0 1 1.773-2.308l82.387-10.778a2.057 2.057 0 0 1 2.306 1.774l5.424 41.539a2.058 2.058 0 0 1-1.773 2.308"/>
        <path fill="#2496FF" d="M366.456 348.96l-17.34 2.267-35.172 4.602-27.018 3.534c-1.856.243-4.036 1.067-4.468-1.582-.609-3.727-.981-7.51-1.47-11.255l-2.333-17.864c-.502-3.85-1.182-7.723-1.513-11.593-.225-2.628 1.686-2.306 3.603-2.557l11.05-1.445c11.423-1.495 22.846-2.99 34.27-4.483l29.316-3.836 3.55-.464c.716-.094 1.31-.302 1.95.115 1.05.683.998 2.182 1.145 3.31l.766 5.867 4.144 31.734c.132 1.013.765 3.33-.72 3.7-1.047.262-.874.941.182.677 1.923-.48 2.702-1.71 2.48-3.568-.196-1.65-.43-3.295-.645-4.942l-2.286-17.507-2.04-15.626c-.119-.907-.15-1.886-.363-2.777-.414-1.726-1.878-2.053-3.425-1.879-7.513.845-15.006 1.963-22.503 2.944l-36.951 4.834c-7.399.968-14.857 1.735-22.227 2.908-1.659.263-3.2 1.066-3.135 2.978.029.857.227 1.74.338 2.589l2.041 15.635a287209.534 287209.534 0 0 0 2.941 22.524c.231 1.77 1.19 2.88 3.148 2.716 6.248-.523 12.504-1.635 18.72-2.449l36.573-4.784 25.774-3.372 1.32-.173c.772-.1 1.543-.942.298-.779"/>
        <path fill="#FFF" d="M300.313 334.816c-.178-1.364-.552-2.518-1.123-3.46-.571-.943-1.298-1.617-2.182-2.023-.884-.405-1.855-.539-2.913-.4a5.123 5.123 0 0 0-2.033.699 4.627 4.627 0 0 0-1.49 1.454c-.39.603-.664 1.344-.82 2.222-.157.878-.167 1.843-.03 2.893.139 1.06.397 2 .776 2.82.378.822.847 1.482 1.408 1.981.56.5 1.174.849 1.841 1.046a5.1 5.1 0 0 0 2.13.148 5.14 5.14 0 0 0 2.567-1.073c.745-.589 1.291-1.418 1.638-2.49.347-1.07.424-2.343.231-3.817zm-6.61-8.883c1.93-.253 3.639-.077 5.125.525a7.68 7.68 0 0 1 3.58 2.932c.9 1.352 1.477 3.002 1.73 4.951.189 1.44.165 2.776-.07 4.004-.236 1.229-.687 2.326-1.353 3.293a7.732 7.732 0 0 1-2.61 2.358c-1.076.606-2.345 1.005-3.81 1.197-1.456.19-2.79.125-4.003-.195s-2.26-.857-3.142-1.611c-.883-.756-1.6-1.71-2.15-2.861-.55-1.152-.917-2.427-1.1-3.825-.187-1.432-.153-2.772.101-4.021.255-1.249.717-2.343 1.386-3.284a7.79 7.79 0 0 1 2.593-2.297c1.06-.592 2.3-.98 3.723-1.166zM312.832 326.637l-2.539.331.743 5.695 2.54-.332c.89-.116 1.62-.307 2.192-.571.573-.265.988-.63 1.246-1.094.258-.465.342-1.04.252-1.727-.107-.822-.435-1.46-.986-1.913-.613-.48-1.763-.61-3.448-.39zm2.03 8.422l-3.454.451.689 5.275c.099.754-.005 1.35-.31 1.786a1.76 1.76 0 0 1-1.269.76c-.567.075-1.05-.058-1.447-.399-.398-.34-.645-.882-.742-1.628l-1.875-14.363c-.109-.83.004-1.449.338-1.854.335-.406.917-.663 1.747-.772l4.838-.633c1.43-.187 2.546-.22 3.345-.101a4.97 4.97 0 0 1 2.112.796c.619.42 1.118.966 1.5 1.64.38.674.629 1.456.745 2.346.248 1.898-.149 3.413-1.19 4.545-1.04 1.131-2.716 1.848-5.027 2.15zM336.145 323.664l-8.495 1.112.597 4.575 7.822-1.023c.576-.075 1.023-.002 1.34.22.317.22.504.543.56.967.055.423-.04.787-.285 1.09-.244.304-.658.494-1.243.57l-7.822 1.024.692 5.3 8.788-1.15c.592-.077 1.056.003 1.393.238.336.237.535.583.595 1.04.057.442-.047.82-.311 1.134-.265.315-.693.51-1.286.588l-10.248 1.341c-.821.107-1.435.002-1.843-.315-.407-.317-.664-.882-.77-1.696l-1.83-14.007c-.07-.543-.047-.996.069-1.36a1.51 1.51 0 0 1 .658-.849c.322-.201.75-.337 1.283-.407l9.956-1.303c.6-.078 1.065-.003 1.392.226.327.228.519.559.575.991.058.44-.042.814-.3 1.119-.257.305-.686.497-1.287.575M346.013 321.391l8.685 10.034-1.447-11.084c-.094-.72-.01-1.28.252-1.681s.655-.636 1.18-.704c.541-.07.993.053 1.353.372.36.32.587.84.681 1.56l1.914 14.655c.213 1.636-.357 2.542-1.711 2.719-.339.044-.65.035-.934-.027a2.342 2.342 0 0 1-.823-.364c-.264-.18-.516-.4-.757-.657-.24-.258-.481-.521-.723-.792l-8.49-9.929 1.425 10.918c.093.712-.002 1.272-.285 1.68-.282.407-.682.645-1.198.712-.533.07-.985-.058-1.355-.385s-.6-.841-.692-1.545l-1.877-14.375c-.08-.61-.075-1.098.016-1.463.11-.403.336-.75.677-1.04.341-.29.728-.463 1.16-.52a2.1 2.1 0 0 1 .89.052c.257.079.487.2.694.362.206.163.424.38.653.651.23.272.467.556.712.851"/>
        <path fill="#2496FF" d="M319.723 280.916a3.856 3.856 0 0 1-3.855 3.858 3.857 3.857 0 0 1-3.855-3.858 3.857 3.857 0 0 1 3.855-3.858 3.856 3.856 0 0 1 3.855 3.858"/>
        <g>
            <path fill="#A0D0FD" d="M462.451 207.963l65.885-8.09-3.812-31.044-65.885 8.09z"/>
            <path fill="#FFF" d="M455.64 203.295l65.884-8.09-3.812-31.044-65.884 8.09z"/>
            <path fill="#2496FF" fill-opacity=".265" d="M522.848 194.699l-3.812-31.045a1.029 1.029 0 0 0-1.149-.89l-65.884 8.09c-.566.069-.969.58-.9 1.142l3.812 31.044c.069.561.583.96 1.15.891l65.884-8.09c.565-.069.968-.58.9-1.142m-65.885 8.09l-3.812-31.045a1.029 1.029 0 0 1-.9 1.142l65.885-8.09c-.565.07-1.08-.329-1.15-.89l3.813 31.045a1.029 1.029 0 0 1 .899-1.143l-65.884 8.09c.565-.07 1.08.33 1.149.89"/>
            <path fill="#2496FF" fill-opacity=".265" d="M512.16 169.659l1.756-.216c-.566.07-1.08-.33-1.15-.89l2.781 22.645a1.029 1.029 0 0 1 .9-1.143l-1.755.216c-.566.07-.969.581-.9 1.142.069.561.584.96 1.15.891l1.754-.215c.566-.07.968-.582.9-1.143l-2.78-22.645a1.029 1.029 0 0 0-1.15-.891l-1.755.215c-.565.07-.968.582-.9 1.143.07.561.584.96 1.15.89M459.037 174.117l-1.755.216c-.565.07-.968.581-.9 1.142l2.781 22.646c.07.561.584.96 1.15.89l1.754-.215c.566-.07.969-.581.9-1.142a1.029 1.029 0 0 0-1.15-.891l-1.754.215c.565-.07 1.08.33 1.149.891l-2.78-22.645a1.029 1.029 0 0 1-.9 1.142l1.755-.215c.565-.07.968-.581.9-1.143a1.029 1.029 0 0 0-1.15-.89"/>
            <path fill="#2496FF" d="M494.154 182.937c.51 4.15-2.465 7.93-6.645 8.444-4.182.513-7.984-2.435-8.494-6.585-.51-4.15 2.467-7.93 6.649-8.444 4.18-.513 7.98 2.435 8.49 6.585"/>
            <path fill="#2496FF" fill-opacity=".265" d="M485.839 174.955c-4.74.582-8.126 4.882-7.549 9.586.578 4.703 4.904 8.057 9.644 7.475a8.631 8.631 0 0 0 5.768-3.244 8.509 8.509 0 0 0 1.776-6.342 8.507 8.507 0 0 0-3.257-5.722 8.631 8.631 0 0 0-6.382-1.753m7.59 7.727a6.48 6.48 0 0 1-1.352 4.83 6.57 6.57 0 0 1-4.393 2.471c-3.61.443-6.905-2.111-7.345-5.694-.44-3.583 2.14-6.858 5.75-7.301a6.57 6.57 0 0 1 4.86 1.335 6.478 6.478 0 0 1 2.48 4.359M499.235 182.942l7.188-.883c.566-.07.969-.581.9-1.142a1.029 1.029 0 0 0-1.15-.891l-7.187.882c-.566.07-.969.582-.9 1.143.07.561.584.96 1.15.89M499.135 187.77l3.464-.425c.565-.07.968-.581.899-1.143a1.029 1.029 0 0 0-1.15-.89l-3.463.425c-.565.07-.968.581-.9 1.142.07.561.585.96 1.15.891M498.053 178.959l3.464-.425c.565-.07.968-.582.9-1.143a1.029 1.029 0 0 0-1.15-.89l-3.464.425c-.565.069-.968.58-.899 1.142.069.561.584.96 1.15.89M474.079 183.967l-7.188.882c-.565.07-.968.581-.9 1.143.07.56.584.96 1.15.89l7.188-.882c.565-.07.968-.581.9-1.143a1.029 1.029 0 0 0-1.15-.89M474.636 179.77l-3.464.425c-.565.07-.968.582-.9 1.143.07.561.584.96 1.15.89l3.464-.424c.565-.07.968-.582.9-1.143a1.029 1.029 0 0 0-1.15-.89M475.718 188.581l-3.464.426c-.566.07-.969.58-.9 1.142.07.561.584.96 1.15.891l3.464-.425c.565-.07.968-.582.9-1.143a1.029 1.029 0 0 0-1.15-.89"/>
        </g>
        <g>
            <path fill="#FFF" d="M302.38 143.33l-16.038-6.827h65.86l16.04 6.826H302.38"/>
            <path fill="#2496FF" d="M302.467 142.909h63.714l-14.065-5.985h-63.713l14.064 5.985zm65.774.84h-65.86a.421.421 0 0 1-.165-.033l-16.04-6.826a.42.42 0 0 1 .166-.807h65.86c.057 0 .113.012.165.034l16.04 6.826a.42.42 0 0 1-.166.807z"/>
            <path fill="#FFF" d="M286.342 136.503h65.86V91.6h-65.86z"/>
            <path fill="#2496FF" d="M286.763 136.083h65.018V92.02h-65.018v44.064zm65.439.84h-65.86a.42.42 0 0 1-.422-.42V91.6a.42.42 0 0 1 .422-.42h65.86a.42.42 0 0 1 .421.42v44.904a.42.42 0 0 1-.421.42z"/>
            <path fill="#FFF" d="M352.202 136.503l16.13 6.807V98.36l-16.13-6.76v44.903"/>
            <path fill="#2496FF" d="M352.623 136.225l15.287 6.451V98.64l-15.287-6.408v43.993zm15.708 7.505a.417.417 0 0 1-.164-.033l-16.129-6.806a.42.42 0 0 1-.257-.388V91.6a.42.42 0 0 1 .584-.387l16.13 6.76a.42.42 0 0 1 .257.388v44.95a.42.42 0 0 1-.42.42z"/>
            <path fill="#BBDFF5" d="M292.548 131.601h19.16v-8.29h-19.16z"/>
            <path fill="#2496FF" d="M306.371 125.234h-12.384a.42.42 0 1 1 0-.84h12.384a.42.42 0 1 1 0 .84M295.584 127.328h-1.597a.42.42 0 1 1 0-.84h1.597a.42.42 0 1 1 0 .84M298.382 127.328h-1.597a.42.42 0 1 1 0-.84h1.597a.42.42 0 1 1 0 .84M301.18 127.328h-1.597a.42.42 0 1 1 0-.84h1.596a.42.42 0 1 1 0 .84"/>
            <path fill="#2496FF" d="M292.036 130.25h18.318v-7.449h-18.318v7.45zm18.74.84h-19.161a.42.42 0 0 1-.421-.42v-8.289a.42.42 0 0 1 .421-.42h19.16a.42.42 0 0 1 .422.42v8.29a.42.42 0 0 1-.422.42zM365.012 126.345a.42.42 0 0 1-.421-.42v-7.63a.42.42 0 0 1 .842 0v7.63a.42.42 0 0 1-.421.42M365.012 129.16a.42.42 0 0 1-.421-.42v-1.204a.42.42 0 0 1 .842 0v1.203a.42.42 0 0 1-.421.42M365.012 133.695a.42.42 0 0 1-.421-.42v-3.134a.42.42 0 0 1 .842 0v3.134a.42.42 0 0 1-.421.42"/>
            <path fill="#FF9C81" d="M303.242 113.184c0 1.855-1.13 3.36-2.525 3.36s-2.525-1.505-2.525-3.36 1.13-3.36 2.525-3.36c1.394 0 2.525 1.505 2.525 3.36M340.352 113.184c0 1.855-1.13 3.36-2.525 3.36s-2.525-1.505-2.525-3.36 1.13-3.36 2.525-3.36 2.525 1.505 2.525 3.36"/>
            <path fill="#2496FF" d="M314.426 106.99h-.022a.42.42 0 0 1-.399-.442 2.006 2.006 0 0 0-.517-1.459 2.015 2.015 0 0 0-1.4-.666 2.016 2.016 0 0 0-1.46.517c-.403.361-.64.857-.668 1.396a.422.422 0 0 1-.842-.044 2.84 2.84 0 0 1 .945-1.977 2.851 2.851 0 0 1 2.07-.73c.764.04 1.468.374 1.98.942.513.568.774 1.301.733 2.065a.42.42 0 0 1-.42.398M329.967 107.25h-.022a.42.42 0 0 1-.398-.441 2.005 2.005 0 0 0-.518-1.458 2.013 2.013 0 0 0-1.4-.666 2.014 2.014 0 0 0-1.46.516c-.403.361-.64.857-.668 1.396a.42.42 0 1 1-.841-.044 2.84 2.84 0 0 1 .945-1.977 2.85 2.85 0 0 1 2.069-.73c.765.04 1.469.374 1.981.942a2.84 2.84 0 0 1 .733 2.064.42.42 0 0 1-.42.399M319.885 117.977c-8.048 0-12.814-4.721-13.013-4.922a.422.422 0 0 1 .599-.59c.047.046 4.732 4.672 12.414 4.672 7.69 0 12.302-4.23 12.347-4.273a.422.422 0 0 1 .596.02.419.419 0 0 1-.019.593c-.195.183-4.885 4.5-12.924 4.5"/>
            <path fill="#FFF" d="M279.918 45.4c0-24.763 20.12-44.838 44.94-44.838 24.82 0 44.94 20.075 44.94 44.838 0-4.907-6.057-8.41-13.53-8.41-7.473 0-13.53 3.978-13.53 8.885-.63-5.315-8.233-8.885-17.694-8.885-9.557 0-17.362 3.541-17.851 8.932 0-4.907-6.271-8.932-13.744-8.932s-13.53 3.482-13.53 8.39v.02"/>
            <path fill="#C6E3FD" d="M280.85 46.33c0-24.763 20.121-44.838 44.941-44.838 24.82 0 44.94 20.075 44.94 44.839 0-4.907-6.058-8.41-13.53-8.41-7.473 0-13.531 3.977-13.531 8.884-.63-5.315-8.233-8.885-17.694-8.885-9.556 0-17.361 3.542-17.85 8.932 0-4.907-6.272-8.932-13.744-8.932-7.473 0-13.531 3.483-13.531 8.39v.02"/>
            <path fill="#2496FF" d="M293.45 36.57c6.768 0 12.442 3.15 13.836 7.346.84-1.91 2.643-3.593 5.248-4.86 3.298-1.603 7.741-2.487 12.51-2.487 8.802 0 15.62 2.938 17.583 7.347 1.352-4.194 6.955-7.347 13.64-7.347 6.059 0 10.982 2.202 12.985 5.476C367.527 19.115 348.275.982 324.859.982c-23.413 0-42.662 18.123-44.393 41.048 2.004-3.265 6.927-5.46 12.983-5.46zm13.743 9.772h-.02a.42.42 0 0 1-.401-.42c0-4.614-6.101-8.512-13.323-8.512-7.468 0-13.1 3.42-13.11 7.958v.032a.42.42 0 0 1-.842 0v-.02-.013c.009-12.076 4.726-23.43 13.286-31.97C301.351 4.85 312.743.143 324.86.143s23.507 4.707 32.075 13.256c8.568 8.548 13.286 19.913 13.286 32.002a.42.42 0 0 1-.842 0c0-4.555-5.636-7.99-13.11-7.99-7.229 0-13.11 3.797-13.11 8.465a.42.42 0 0 1-.84.049c-.583-4.934-7.848-8.514-17.274-8.514-9.65 0-16.982 3.596-17.432 8.55a.42.42 0 0 1-.419.382z"/>
            <path fill="#2496FF" d="M326.13.618zm16.624 45.235a.42.42 0 0 1-.421-.42c0-20.105-5.382-34.755-15.997-43.543-.68-.564-.936-.774-1.013-1.03a.422.422 0 1 1 .792-.282c.08.104.425.39.76.665 1.749 1.45 5.846 4.842 9.486 11.708 4.521 8.53 6.814 19.458 6.814 32.481a.42.42 0 0 1-.421.42zM323.896.618zm-16.79 45.352a.42.42 0 0 1-.42-.42c0-13.023 2.315-23.967 6.88-32.529 3.676-6.892 7.812-10.311 9.578-11.772.337-.279.686-.567.766-.672a.422.422 0 0 1 .792.282c-.077.257-.334.47-1.02 1.037-10.719 8.863-16.154 23.55-16.154 43.654a.42.42 0 0 1-.421.42zM325.655 91.716a.42.42 0 0 1-.304-.71l44.144-45.897a.422.422 0 0 1 .595-.012.42.42 0 0 1 .013.594l-44.145 45.896a.42.42 0 0 1-.303.13"/>
            <path fill="#2496FF" d="M325.285 91.717a.42.42 0 0 1-.393-.57l17.452-45.423a.422.422 0 0 1 .786.3L325.68 91.448a.421.421 0 0 1-.394.27"/>
            <path fill="#2496FF" d="M325.069 91.717a.422.422 0 0 1-.392-.267L306.8 46.075a.422.422 0 0 1 .784-.307l17.876 45.374a.42.42 0 0 1-.392.575"/>
            <path fill="#2496FF" d="M324.576 91.716a.42.42 0 0 1-.302-.127l-44.658-45.896a.42.42 0 0 1 .009-.594.422.422 0 0 1 .595.008l44.658 45.896a.42.42 0 0 1-.302.713"/>
        </g>
        <g>
            <path fill="#2496FF" d="M55.75 300.004c.001-7.302.31-14.76-.901-21.992-.875-5.219-2.888-10.646-7.791-13.313-2.643-1.437-5.67-1.95-8.65-2.012-3.078-.063-6.238.27-9.096 1.479-4.975 2.104-7.51 6.77-8.609 11.841-1.698 7.83-1.1 16.123-1.097 24.076 0 .527 1.027.374 1.027-.079-.002-6.877-.33-13.843.53-20.684.628-5.007 2.086-10.503 6.533-13.463 2.436-1.622 5.392-2.236 8.275-2.395 3.1-.171 6.337.078 9.222 1.301 4.978 2.11 7.315 7.01 8.363 12.038 1.583 7.595 1.168 15.572 1.166 23.282 0 .527 1.028.374 1.028-.079"/>
            <path fill="#DBDBDB" d="M4.216 372.746v-83.24h9.49v9.083l-3.485 79.7-1.69-4.01-4.315-1.533"/>
            <path fill="#EFEFEF" d="M5.897 368.912v-75.405a4.001 4.001 0 0 1 4.001-4.001h3.809v8.847l-3.289 77.625-.97-3.906-2.015-.847a2.509 2.509 0 0 1-1.536-2.313"/>
            <path fill="#2496FF" d="M4.723 372.61v-8.258-19.839-24.12-20.767-6.85-2.136c0-.32.096-.817 0-1.124-.012-.04 0-.103 0-.146l-.84.327h8.084c.345 0 .7.025 1.043 0 .068-.004.205-.025.269 0 .209.083-.114-.185-.08-.03.124.558 0 1.281 0 1.85v3.397c0 1.275.029 2.554 0 3.83-.096 4.118-.361 8.24-.541 12.356l-1.147 26.217-1.172 26.799-.414 9.467-.133 3.042c-.021.489-.152 1.107-.07 1.592.012.063-.006.143-.008.208l1.014-.272-.884-2.099c-.212-.502-.426-1.564-.834-1.942-.415-.385-1.532-.544-2.059-.732l-2.255-.8c-.276-.099-1.01.315-.96.333l2.06.732 1.467.521c.199.07.617.131.776.276.345.313.625 1.494.83 1.978l.845 2.005c.084.2 1.005-.058 1.014-.272l.423-9.674.983-22.46 1.11-25.396.809-18.489c.167-3.824.16-7.63.16-11.46v-1.304c0-.055-.159-.056-.173-.056H4.55c-.165 0-.841.088-.841.328V371.612c0 .285-.114.857 0 1.124.015.035 0 .106 0 .146 0 .127 1.014-.005 1.014-.272M38.818 395.615v-17.148c0-.557-1.032-.428-1.032.064v17.147c0 .557 1.032.429 1.032-.063M52.61 394.91V378.71c0-.533-1.029-.384-1.029.076v16.198c0 .533 1.029.384 1.029-.076"/>
            <path fill="#E3E3E3" d="M10.22 298.59c27.372 5.978 71.773 1.269 69.957 0v79.7s-23.238 3.489-69.956 0v-79.7"/>
            <path fill="#FFF" d="M15.804 299.034c38.936 4.486 64.373-.44 64.373-.44v75.126c0 1.474-1.13 2.7-2.599 2.817-8.39.67-35.62 2.506-59.91.344a6.026 6.026 0 0 1-5.482-6.007v-68.621c0-1.94 1.692-3.441 3.618-3.22"/>
            <path fill="#2496FF" d="M9.902 298.833c12.365 1.807 24.944 2.215 37.426 2.18 9.61-.028 19.32-.206 28.88-1.293 1.143-.13 2.317-.246 3.433-.538.165-.044 1.476-.424 1.01-.78-.218-.166-.982-.007-.982.323V377.215c0 .274-.106.81 0 1.068.015.034 0 .102 0 .142l.589-.373c-6.384.956-12.931 1.167-19.37 1.367-8.08.25-16.167.216-24.247-.01a533.678 533.678 0 0 1-16.034-.695c-2.94-.17-5.88-.363-8.817-.577-.21-.015-1.005.06-1.062-.043-.03-.055.015-.168 0-.23-.18-.739 0-1.753 0-2.509v-4.726-14.331-35.8-14.326c0-2.434.175-4.941 0-7.37-.008-.115 0-.233 0-.349 0-.243-1.014-.075-1.014.272V377.215c0 .293-.098.787 0 1.068.013.037 0 .1 0 .142 0 .07.148.105.188.108 14.647 1.089 29.343 1.71 44.033 1.525 7.592-.096 15.2-.375 22.757-1.134 1.135-.114 2.275-.229 3.404-.398.177-.026.588-.13.588-.373v-7.916-19.013-23.012-19.91-6.572-2.067c0-.302.092-.776 0-1.067-.012-.04 0-.1 0-.143l-.982.323c-.02-.016.218-.078.055-.075-.059.001-.492.125-.706.167-1.09.21-2.202.33-3.305.446-3.826.406-7.673.626-11.514.804-11.368.53-22.78.572-34.147.017-6.535-.32-13.069-.843-19.545-1.79-.272-.04-1.18.409-.638.488"/>
            <path fill="#E3E3E3" d="M80.177 298.59l-15.798-6.333 9.26-2.751s-29.446-1.929-69.423 0l9.49 3.138-3.485 5.945c39.715 5.237 69.956 0 69.956 0"/>
            <path fill="#2496FF" d="M80.58 298.34l-15.798-6.332-.333.51 9.26-2.75c.326-.097.688-.52.126-.557-4.131-.27-8.274-.412-12.411-.54a707.107 707.107 0 0 0-32.69-.229c-8.155.125-16.305.385-24.45.775-.268.013-.883.402-.377.57l9.49 3.138-.164-.296-3.485 5.946c-.083.14.007.275.164.295a276.25 276.25 0 0 0 41.013 2.294c8.329-.155 16.67-.65 24.94-1.684 1.417-.177 2.837-.36 4.245-.602.486-.084.833-.698.134-.577-4.112.71-8.296 1.1-12.452 1.448-10.82.903-21.703 1.085-32.55.657a272.931 272.931 0 0 1-24.712-2.098l.165.296 3.485-5.945c.095-.162-.02-.249-.164-.296l-9.49-3.138-.377.57a742.918 742.918 0 0 1 40.857-.833c8.14.058 16.284.237 24.417.622 1.34.064 2.682.129 4.021.216l.126-.556-9.26 2.751c-.132.04-.704.363-.333.511l15.797 6.332c.312.125 1.233-.327.806-.498"/>
            <path fill="#EFEFEF" d="M73.64 289.506l-9.26 2.751 9.26 3.722v-6.473"/>
            <path fill="#2496FF" d="M73.556 289.193l-9.26 2.752c-.297.088-.65.455-.216.63l9.26 3.721c.221.09.811-.054.811-.365v-6.473c0-.492-1.023-.313-1.023.096v6.473l.811-.365-9.26-3.722-.216.63 9.26-2.752c.612-.181.453-.809-.167-.625M32.791 333.505a2.149 2.149 0 1 1-4.298 0 2.149 2.149 0 0 1 4.298 0M61.905 332.355a2.149 2.149 0 1 1-4.298 0 2.149 2.149 0 0 1 4.298 0M52.01 344.342c1.685 0 2.916 1.66 2.353 3.247a9.724 9.724 0 0 1-18.328 0c-.563-1.588.668-3.247 2.353-3.247H52.01M80.277 335.264c3.26.077 6.58.502 9.748 1.266 3.637.876 9.716 2.851 8.947 7.694-.397 2.493-2.252 4.549-4.483 5.613-1.396.666-3.71.37-3.71 2.465 0 .508 1.026.34 1.026-.088 0-1.168.928-1.087 1.854-1.325 1.075-.276 2.133-.893 3.016-1.552 1.54-1.148 2.724-2.76 3.202-4.633.535-2.094-.181-4.055-1.772-5.473-3.462-3.087-8.925-3.865-13.363-4.362-1.362-.153-2.734-.275-4.105-.307-.467-.011-1.045.686-.36.702M62.297 308.36c.002-7.345.327-14.86-.934-22.128-.91-5.24-3.004-10.613-8.017-13.146-2.702-1.366-5.787-1.791-8.785-1.792-2.975 0-6.008.38-8.764 1.554-4.995 2.129-7.5 6.763-8.573 11.877-1.632 7.79-1.06 16.002-1.058 23.906 0 .162 1.015.019 1.015-.272-.003-6.876-.33-13.842.53-20.684.631-5.032 2.125-10.6 6.591-13.58 2.533-1.69 5.592-2.265 8.59-2.37 3.12-.11 6.38.214 9.227 1.574 4.814 2.297 7.031 7.194 8.037 12.178 1.526 7.564 1.128 15.484 1.126 23.154 0 .162 1.015.02 1.015-.272"/>
            <path fill="#2496FF" d="M27.715 310.17c-.031.591-.388 1.334-1.102 1.192-.619-.122-1.031-.741-1.03-1.346.003-.652.488-1.337 1.205-1.119.602.183.897.76.93 1.352.019.36 1.036.144 1.014-.272-.135-2.499-4.176-2.144-4.174.232.002 2.526 4.05 2.198 4.176-.154.024-.444-.999-.255-1.019.115M62.868 310.179c-.033.601-.377 1.344-1.1 1.208-.623-.119-1.035-.776-1.036-1.375 0-.652.474-1.373 1.2-1.135.602.197.903.773.935 1.372.017.31 1.035.108 1.015-.272-.134-2.477-4.165-2.098-4.173.237-.008 2.503 4.048 2.142 4.172-.168.022-.4-.996-.195-1.013.133M19.509 355.243a46.17 46.17 0 0 1-10.322-3.025c-4.278-1.824-10.018-5.484-7.49-10.919 1.205-2.587 3.99-4.303 6.836-4.39.562-.017.794-.725.1-.703-5.052.154-10.565 5.399-7.96 10.596 1.18 2.352 3.575 3.933 5.846 5.101 2.49 1.282 5.159 2.208 7.855 2.95 1.57.432 3.166.82 4.774 1.092.477.081 1.039-.587.36-.702M93.547 362.397c2.245-2.33 4.633-4.593 7.194-6.575 2.468-1.91 5.093-3.628 7.7-5.34.428-.28-.584-.19-.785-.057-2.671 1.754-5.372 3.51-7.887 5.485-2.535 1.99-4.911 4.224-7.146 6.543-.227.236.742.133.924-.056"/>
            <path fill="#2496FF" d="M98.653 348.18c-1.976-2.235-6.257-1.228-6.69 1.866-.497 3.548 3.737 4.673 6.13 2.888l-.868.15 2.254 2.78c.166.204 1.13-.139.953-.357l-2.254-2.78c-.15-.185-.73.045-.869.15-1.887 1.406-4.313-.385-4.367-2.507-.029-1.138.565-2.282 1.613-2.77 1.154-.537 2.365.054 3.145.937.179.202 1.133-.153.953-.357"/>
            <path fill="#B2DAFF" d="M88.194 366.277c.018-.047.039-.093.063-.138.13-.243.345-.419.556-.59l4.468-3.622c.23-.186.466-.376.755-.46.344-.1.727-.038 1.097.024 2.5.418 4.998.825 7.498 1.23l2.367.382c.96.157 1.114.362 1.396-.55.877-2.832.284-6.014.421-8.935.023-.485.088-.973.086-1.458-.01-2.238 3.039-3.751 4.539-5.023.355-.3.719-.607 1.155-.767.683-.251 1.443-.111 2.149.065 3.273.82 6.632 1.206 9.98 1.568 2.97.32 6.174.32 8.984 1.428.692.273-.13 8.36-.493 11.877a1.449 1.449 0 0 1-1.654 1.283c-1.502-.219-3.767-.546-5.062-.762a.358.358 0 0 0-.337.579c3.9 4.8 7.8 9.598 11.688 14.406a.892.892 0 0 1-.13 1.256c-3.5 2.84-19.264 15.64-23.3 18.917a1.062 1.062 0 0 1-1.496-.159c-3.664-4.515-7.326-9.033-10.994-13.545-.422-.52-1.27-.25-1.31.418a218.097 218.097 0 0 0-.233 4.844.703.703 0 0 1-.816.675c-2.426-.394-9.76-1.575-11.921-1.924a.778.778 0 0 1-.654-.777c.005-.905.265-2.36.284-2.77.265-5.54.527-11.082.787-16.624.013-.29.03-.588.127-.848"/>
            <path fill="#2496FF" d="M88.7 366.207c.367-.81 1.599-1.468 2.27-2.013.787-.638 1.553-1.38 2.394-1.94 1.136-.759 2.368-.35 3.625-.143l2.96.485c1.78.29 3.609.74 5.405.89.812.067 1.289-.231 1.546-1.003 1.087-3.258.532-6.931.51-10.293-.005-.646-.015-1.165.449-1.679.285-.316.693-.56 1.024-.83.84-.684 1.668-1.382 2.495-2.082.66-.56 1.415-1.039 2.332-1.055.385-.008.807.178 1.182.267.875.209 1.75.173 2.636.302 3.935.573 7.82 1.293 11.776 1.71.91.097 1.821.216 2.71.435.537.133 1.142.164 1.363.668.299.685.093 1.9.066 2.61-.1 2.552-.355 5.1-.61 7.64-.048.466-.03 1.018-.176 1.466-.341 1.053-2.087.5-2.904.38a229.6 229.6 0 0 1-2.173-.33c-.478-.074-1.025-.234-1.495-.018-.264.121-.531.344-.51.664.02.314.47.7.635.902l1.04 1.28a14372.393 14372.393 0 0 1 7.793 9.603c.605.747 1.22 1.488 1.815 2.243.424.536.984 1.06.386 1.697-.095.1-.224.181-.331.268l-9.535 7.74-11.154 9.057c-.587.477-1.162 1.05-1.797 1.46-.093.06-.214.231-.324.263-.625.179-1.182-.802-1.491-1.183l-1.963-2.42c-2.617-3.225-5.233-6.45-7.853-9.674-.61-.75-1.605-1.25-2.417-.36-.413.453-.303 1.2-.333 1.766-.058 1.073-.049 2.162-.15 3.23-.016.172.042.42-.082.566-.19.223-.034.091-.296.124-.183.024-.427-.069-.608-.098a4929.481 4929.481 0 0 0-5.618-.906l-3.658-.59c-.412-.066-.861-.093-1.263-.204-.431-.118-.736-.26-.867-.718-.133-.464.012-1.167.022-1.644.095-4.255.455-8.497.75-12.74.066-.962.13-1.925.187-2.888.056-.949-.013-1.984.237-2.905.09-.33-.923-.184-1.011.14-.251.92-.182 1.956-.237 2.905a300.93 300.93 0 0 1-.231 3.507c-.16 2.274-.335 4.547-.473 6.822a133.22 133.22 0 0 0-.251 6.253c-.01.771-.069 1.417.746 1.697.39.134.86.149 1.266.214 2.682.432 5.364.864 8.046 1.298.96.155 2.149.557 3.122.438 1.672-.206 1.259-2.194 1.318-3.43.023-.47.048-.941.073-1.412.013-.242-.047-.586.046-.806.144-.342.16-.36.474-.196.345.178.8.984 1.048 1.29l1.178 1.45 4.189 5.16c1.434 1.769 2.809 3.617 4.318 5.322.782.885 1.802.718 2.676.055 3.606-2.74 7.05-5.726 10.565-8.58 3.799-3.085 7.598-6.17 11.397-9.253.481-.39 1.41-.909 1.568-1.547.172-.693-.462-1.231-.852-1.714l-2.206-2.723a7344.02 7344.02 0 0 0-4.285-5.282c-1.41-1.737-2.73-3.676-4.289-5.28-.254-.261-.701-.306-.217-.366.14-.017.44.07.558.088l1.08.164c.884.132 1.77.281 2.658.39 1.019.126 2.23-.1 2.646-1.187.418-1.092.327-2.594.434-3.751.13-1.387.248-2.776.333-4.167.067-1.095.14-2.205.083-3.302-.042-.808-.067-1.125-.865-1.39-1.835-.609-3.774-.71-5.683-.901-2.117-.212-4.213-.607-6.309-.963a151.698 151.698 0 0 0-3.251-.526c-.947-.14-1.91-.11-2.84-.332-1.579-.376-2.88-.492-4.216.554-.837.655-1.626 1.376-2.444 2.055-.667.554-1.547 1.071-2.09 1.755-.457.573-.386 1.28-.376 1.971.015.982.056 1.962.085 2.944.059 2.027.088 4.089-.34 6.082-.087.404-.178.827-.334 1.211-.069.168.544-.014-.008.07-.102.016-.418-.079-.486-.09-1.05-.185-2.105-.34-3.156-.511-2.172-.352-4.34-.72-6.511-1.069-1.846-.297-2.656.505-4.044 1.63l-2.394 1.941c-.545.442-1.22.85-1.52 1.512-.124.275.871.172 1.012-.14M108.857 397.53c-.783 1.475-1.684 2.71-3.114 3.612-.577.365.244.785.685.507 1.558-.983 2.554-2.372 3.406-3.977.277-.52-.751-.567-.977-.142M117.064 398.428c-.631 1.542-1.388 2.876-2.719 3.918-.54.424.265.836.685.507 1.454-1.139 2.32-2.594 3.01-4.284.228-.555-.792-.591-.976-.141M112.051 399.52c-1.125 2.397-2.388 4.616-4.53 6.243-.547.416.261.83.685.508 2.267-1.723 3.63-4.07 4.822-6.61.253-.539-.771-.58-.977-.141M88.412 395.015c1.607-1.075 3.061-2.488 3.942-4.228.113-.223-.861-.138-1.008.152-.83 1.64-2.218 2.965-3.73 3.976-.203.136-.072.23.079.292.2.082.554-.083.717-.192"/>
            <path fill="#FFF" d="M116.99 378.66c-2.929 2.764-7.542 1.602-9.532-1.712-1.736-2.89-.829-6.191 1.66-8.294 2.278-1.924 5.938-2.884 8.393-.724 1.507 1.326 2.11 3.427.994 5.188-1.177 1.858-3.647 3.088-5.778 2.34-1.464-.515-3.352-2.373-1.612-3.755 1.05-.834 3.615-1.192 3.517.757-.008.167.999.04 1.015-.272.155-3.078-7.451-1.404-6.072 1.841.718 1.69 3.212 2.37 4.872 2.075 2.219-.396 4.914-1.928 5.545-4.241.604-2.215-1.043-4.417-3.051-5.201-1.719-.672-3.691-.444-5.397.149-3.773 1.31-7.196 5.09-5.643 9.28 1.831 4.943 8.331 5.978 12.01 2.504.223-.21-.734-.113-.921.064"/>
        </g>
        <g>
            <path fill="#2496FF" d="M518.59 308.114c-2.653-5.49-10.584-7.577-16.17-6.456-2.353.472-4.772 1.598-6.319 3.476-2.05 2.487-1.463 5.4.756 7.531.278.267 1.653-.3 1.435-.51-4.716-4.527.238-9.859 5.531-10.182 4.76-.29 11.067 2.037 13.247 6.547.172.356 1.635-.168 1.52-.406"/>
            <path fill="#70B9FC" d="M515 314.708a4.553 4.553 0 0 1-.783-6.411 4.602 4.602 0 0 1 6.44-.78 4.553 4.553 0 0 1 .784 6.412 4.603 4.603 0 0 1-6.441.78zm-5.603 18.835l42.212 32.905c1.461 1.14 3.633.807 4.852-.742l23.875-30.345c1.22-1.55 1.022-3.728-.439-4.867l-42.212-32.906c-.804-.627-1.868-.832-2.894-.558l-19.168 5.12c-4.046 1.08-6.981 4.81-7.065 8.98l-.4 19.75c-.02 1.056.435 2.036 1.239 2.663z"/>
            <path fill="#C4DCF2" d="M515 314.708a4.553 4.553 0 0 1-.783-6.411 4.602 4.602 0 0 1 6.44-.78 4.553 4.553 0 0 1 .784 6.412 4.603 4.603 0 0 1-6.441.78zm-5.603 18.835l40.637 31.82c1.461 1.139 3.634.807 4.852-.742l23.876-30.346c1.218-1.549 1.022-3.728-.44-4.867l-40.637-31.82c-.804-.627-1.868-.832-2.894-.558l-19.168 5.12c-4.046 1.08-6.981 4.81-7.065 8.98l-.4 19.75c-.02 1.056.435 2.036 1.239 2.663z"/>
            <path fill="#2496FF" d="M508.801 333.944l35.43 27.619 6.249 4.871c2.223 1.733 4.995 1.42 6.806-.81 4.87-5.994 9.556-12.145 14.33-18.214l7.448-9.466c1.638-2.082 4.355-4.876 1.849-7.485-1.156-1.202-2.711-2.153-4.02-3.172l-9.065-7.068-22.387-17.45-6.428-5.011c-.698-.544-1.33-1.05-2.24-1.247-1.312-.285-2.65.216-3.907.552l-13.096 3.498c-3.673.98-7.403 1.666-9.883 4.868-2.542 3.283-2.127 7.377-2.205 11.27l-.265 13.097c-.031 1.543.011 2.925 1.279 4.062.45.404 1.885-.197 1.402-.63-1.363-1.222-1.169-2.672-1.137-4.283l.122-6.002c.076-3.797.138-7.595.23-11.392.059-2.446.77-4.733 2.48-6.552 1.406-1.497 3.155-2.188 5.077-2.701l11.87-3.17 5.193-1.388c1.151-.307 2.134-.49 3.264.333 1.56 1.135 3.05 2.378 4.572 3.564l20.364 15.874 16.363 12.756c.446.348.944.677 1.284 1.135 1.125 1.514.438 3.144-.571 4.426l-5.57 7.08-15.793 20.072c-1.416 1.8-3.085 4.83-5.735 2.994-1.529-1.06-2.958-2.306-4.424-3.449l-36.813-28.697-.882-.687c-.457-.356-1.83.304-1.19.803"/>
            <path fill="#2496FF" d="M515.701 314.393c-1.47-1.249-2.144-3.208-1.365-5.047.97-2.29 3.705-2.976 5.663-1.457 3.901 3.025-.031 9.537-4.404 6.417-.472-.337-1.847.336-1.19.804 2.263 1.615 5.477 1.324 7.402-.707 1.971-2.08 1.768-5.467-.501-7.244-2.088-1.635-5.252-1.389-7.178.391-2.238 2.07-2.133 5.514.171 7.473.46.391 1.89-.215 1.402-.63"/>
            <path fill="#2496FF" d="M496.857 312.665c3.807 3.283 9.407 5.032 14.392 4.056 4.035-.79 9.127-3.849 7.341-8.607-.129-.343-1.626.124-1.52.406 1.807 4.815-3.523 7.87-7.732 7.87-3.936.001-8.086-1.681-11.046-4.234-.301-.26-1.649.325-1.435.51"/>
            <path fill="#FFF" d="M550.265 357.158L536.03 346.14a3.93 3.93 0 0 1-.695-5.531l14.018-17.946a3.972 3.972 0 0 1 5.557-.693l14.236 11.018a3.93 3.93 0 0 1 .695 5.53l-14.019 17.947a3.972 3.972 0 0 1-5.557.693"/>
            <path fill="#99C6EF" d="M549.164 349.109l12.993-16.227c.308-.384-1.143-.194-1.38.101l-12.993 16.226c-.308.385 1.144.194 1.38-.1M545.514 346.216l12.993-16.226c.317-.396-1.141-.21-1.382.092l-12.994 16.226c-.317.396 1.142.209 1.383-.092M541.924 343.431l12.993-16.226c.443-.552-1.092-.486-1.425-.07l-12.994 16.227c-.442.552 1.092.486 1.426.07M551.941 351.356l2.884-3.602c.228-.284-.194-.41-.405-.418-.344-.015-.784.13-1.005.406l-2.885 3.602c-.226.284.196.41.406.419.344.014.784-.13 1.005-.407M556.928 345.266l2.884-3.602c.601-.75-.837-1.003-1.275-.456l-2.884 3.602c-.602.751.836 1.004 1.275.456M561.977 338.933l2.884-3.602c.594-.742-.85-.93-1.264-.414l-2.884 3.602c-.594.743.85.93 1.264.414"/>
        </g>
        <g>
            <path fill="#AAD6FF" d="M176.61 125.58c-6.546-17.933-26.397-27.161-44.34-20.612-17.943 6.549-27.183 26.395-20.639 44.327 6.545 17.933 51.005 38.876 51.005 38.876s20.518-44.659 13.973-62.591"/>
            <path fill="#CFE8FF" d="M177.07 126.151c-6.439-17.642-25.1-27.04-41.68-20.988s-24.802 25.26-18.363 42.903c6.439 17.643 46.296 39.666 46.296 39.666s20.186-43.938 13.747-61.58"/>
            <path fill="#2496FF" d="M177.035 125.27c-4.8-12.986-17.138-22.103-31.011-22.709-13.459-.587-26.468 6.921-32.811 18.781-5.682 10.625-5.884 24.91 1.72 34.65 3.364 4.309 7.576 7.941 11.888 11.266 4.715 3.636 9.695 6.924 14.78 10.015a249.857 249.857 0 0 0 13.08 7.405c2.378 1.256 4.764 2.58 7.228 3.664.115.05.227.109.341.163.221.104.719-.353.802-.535 2.451-5.34 4.603-10.833 6.615-16.35 3.7-10.148 7.05-20.692 8.288-31.46.563-4.897.772-10.178-.92-14.89-.052-.145-.951.343-.852.62 1.494 4.16 1.455 8.78 1.07 13.129-.476 5.37-1.61 10.678-2.98 15.886-2.498 9.487-5.846 18.758-9.61 27.812a168.85 168.85 0 0 1-2.443 5.656l.802-.535c-5.547-2.614-10.956-5.562-16.261-8.63-9.677-5.598-19.448-11.781-27.354-19.76-3.307-3.338-6.258-7.068-7.736-11.58a34.502 34.502 0 0 1-.461-19.85c1.795-6.493 5.518-12.435 10.646-16.817 5.372-4.59 12.214-7.343 19.248-7.9 13.412-1.06 26.578 6.116 32.982 17.93a35.846 35.846 0 0 1 2.097 4.658c.054.147.954-.345.852-.619"/>
            <path fill="#AAD6FF" d="M159.018 132.259c-3.495-9.577-14.096-14.505-23.679-11.007-9.582 3.497-14.517 14.096-11.021 23.672 3.495 9.577 14.096 14.505 23.678 11.008 9.583-3.498 14.517-14.096 11.022-23.673"/>
            <path fill="#F9F9F9" d="M160.365 131.509c-3.273-8.967-13.198-13.58-22.17-10.306-8.971 3.274-13.591 13.197-10.32 22.164 3.273 8.966 13.199 13.58 22.17 10.305 8.972-3.274 13.592-13.197 10.32-22.163"/>
            <path fill="#2496FF" d="M160.791 131.2c-2.65-7.077-9.65-11.754-17.228-11.356-7.12.373-13.66 5.214-16.107 11.903-2.583 7.059-.226 15.222 5.777 19.769 5.906 4.474 14.075 4.62 20.267.622 6.942-4.48 10.074-13.112 7.291-20.939-.045-.127-.947.353-.853.62 2.344 6.59.533 14.296-4.912 18.834-5.554 4.628-13.79 4.881-19.815 1.028-5.791-3.704-8.887-10.719-7.69-17.494 1.284-7.265 7.182-12.876 14.553-13.622 7.784-.787 15.144 3.988 17.864 11.253.05.131.951-.357.853-.619"/>
        </g>
    </g>
</svg>
