<svg xmlns="http://www.w3.org/2000/svg" width="24" height="24" viewBox="0 0 24 24">
    <g fill="none" fill-rule="nonzero">
        <path fill="#4FAAFF" d="M12 24C5.383 24 0 18.617 0 12S5.383 0 12 0s12 5.383 12 12-5.383 12-12 12z"/>
        <path fill="#2496FF" d="M17.6 20c-6.617 0-12-5.383-12-12 0-2.77.952-5.316 2.535-7.35C3.41 2.266 0 6.738 0 12c0 6.617 5.383 12 12 12 3.847 0 7.268-1.827 9.465-4.65-1.214.414-2.511.65-3.865.65z"/>
        <path fill="#FFF" d="M14.79 18.273l-.22.914c-.665.265-1.196.466-1.59.605-.396.139-.855.208-1.379.208-.804 0-1.43-.199-1.875-.594a1.93 1.93 0 0 1-.67-1.509c0-.236.017-.479.05-.726.034-.248.088-.527.162-.838l.83-2.967c.074-.284.137-.553.187-.808.051-.253.076-.486.076-.695 0-.379-.078-.644-.233-.793-.154-.148-.45-.224-.887-.224-.215 0-.435.035-.66.102a9.144 9.144 0 0 0-.581.193l.222-.915a20.64 20.64 0 0 1 1.56-.574c.498-.159.967-.239 1.412-.239.798 0 1.414.195 1.847.585.432.39.649.896.649 1.519 0 .129-.015.356-.045.68-.03.326-.085.624-.166.895l-.827 2.955a7.915 7.915 0 0 0-.181.814 4.23 4.23 0 0 0-.081.69c0 .393.086.66.26.803.175.142.476.213.904.213.201 0 .43-.036.684-.107.253-.07.438-.132.552-.187zM15 5.868c0 .515-.192.955-.578 1.316-.385.363-.85.545-1.392.545a1.98 1.98 0 0 1-1.4-.545 1.733 1.733 0 0 1-.583-1.316c0-.513.195-.954.584-1.32A1.97 1.97 0 0 1 13.03 4c.543 0 1.007.183 1.392.548.386.366.578.807.578 1.32z"/>
    </g>
</svg>
