<?xml version="1.0" encoding="utf-8"?>
<!-- Generator: Adobe Illustrator 22.1.0, SVG Export Plug-In . SVG Version: 6.00 Build 0)  -->
<svg version="1.1" id="Layer_1" xmlns="http://www.w3.org/2000/svg" xmlns:xlink="http://www.w3.org/1999/xlink" x="0px" y="0px"
	 viewBox="0 0 297.9 141.9" style="enable-background:new 0 0 297.9 141.9;" xml:space="preserve">
<style type="text/css">
	.st0{fill:#2496FF;}
	.st1{fill:none;}
</style>
<g>
	<path class="st0" d="M139.6,114.2c-4,0-7.9-0.6-11.5-1.8c-3.6-1.2-6.9-3.2-9.7-5.9l7.4-12.9c1.6,1.5,3.4,2.8,5.4,4
		c2,1.1,4.4,1.7,7.2,1.7c3.8,0,6.8-1.1,9-3.4c2.2-2.3,3.3-5.4,3.3-9.2V33.7h16.8v53.1c0,4.7-0.7,8.7-2.1,12.2
		c-1.4,3.4-3.3,6.3-5.8,8.5c-2.5,2.3-5.4,3.9-8.8,5C147.4,113.6,143.6,114.2,139.6,114.2z"/>
	<path class="st0" d="M190.2,49.3c-2.5,0-4.6-0.9-6.3-2.6c-1.8-1.7-2.7-3.9-2.7-6.4c0-2.5,0.9-4.6,2.7-6.3c1.8-1.7,3.9-2.5,6.3-2.5
		c2.5,0,4.7,0.9,6.4,2.5c1.7,1.7,2.6,3.8,2.6,6.3c0,2.5-0.9,4.7-2.6,6.4C194.9,48.5,192.8,49.3,190.2,49.3z M182.8,112.8V55.5h15.1
		v57.3H182.8z"/>
	<path class="st0" d="M251.4,112.8V78.1c0-4-0.9-6.8-2.8-8.4c-1.9-1.5-4.5-2.3-7.7-2.3c-3,0-5.6,0.7-7.8,2.1c-2.2,1.4-4,2.9-5.2,4.7
		v38.5h-15.1V55.5h15.1V63c1.8-2.2,4.4-4.2,7.8-6.1c3.4-1.9,7.5-2.8,12.2-2.8c6.3,0,11,1.6,14,4.9c3,3.3,4.6,7.7,4.6,13.3v40.4
		H251.4z"/>
	<path class="st0" d="M288.9,49.3c-2.5,0-4.6-0.9-6.3-2.6c-1.8-1.7-2.7-3.9-2.7-6.4c0-2.5,0.9-4.6,2.7-6.3c1.8-1.7,3.9-2.5,6.3-2.5
		c2.5,0,4.7,0.9,6.4,2.5c1.7,1.7,2.6,3.8,2.6,6.3c0,2.5-0.9,4.7-2.6,6.4C293.6,48.5,291.4,49.3,288.9,49.3z M281.4,112.8V55.5h15.1
		v57.3H281.4z"/>
</g>
<g>
	<g>
		<path class="st1" d="M66.1,44.3c-1.1-0.2-1.8-1.2-1.8-2.2V18.7c0-1.3,1-2.3,2.3-2.3c1.3,0,2.3,1,2.3,2.3v21.6
			c4.5,1.3,8.5,3.6,11.8,6.8c2.8-4.4,4.3-9.5,4.3-14.8c0-7.3-2.8-14.1-7.9-19.3c-4.5-4.6-10.4-7.5-16.8-8.1v35.5
			c0,1.3-1,2.3-2.3,2.3H31.6c-1.3,0-2.3-1-2.3-2.3V4.7C22.9,5.4,17,8.2,12.5,12.9c-5.1,5.2-7.9,12.1-7.9,19.3
			c0,5.3,1.5,10.4,4.3,14.9c3.3-3.2,7.3-5.5,11.8-6.8V18.7c0-1.3,1-2.3,2.3-2.3c1.3,0,2.3,1,2.3,2.3v23.4c0,1.1-0.8,2-1.8,2.2
			c-6.4,1.4-11.4,4.9-14.9,10.4c-2.2,3.4-3.1,6.5-3.3,7.5c-0.4,1.7-0.5,3.4-0.5,5.1v29c0,3.2,0.6,6.4,1.8,9.4
			c0.4-0.6,0.8-1.1,1.2-1.6c0-0.3,0.1-0.6,0.3-0.9c0.1-0.2,3.1-5,9-9.7c3.5-2.8,7.3-5,11.3-6.6c5-2,10.4-1.2,15.9-1.2
			c5.6,0,10.9-0.8,15.9,1.2c4,1.6,7.8,3.8,11.3,6.6c3.5,2.8,6,5.6,7.4,7.5l0,0l0,0c1,1.3,1.5,2.2,1.6,2.2c0,0,0,0.1,0.1,0.1
			c0.9,1,1.6,2,2.3,3.1c1.4-3.1,2.1-6.5,2.1-10v-29c0-1.5-0.1-2.9-0.4-4.3c-0.1-0.1-0.1-0.3-0.1-0.4c0-0.1-0.8-3.9-3.5-8
			C77.4,49.2,72.4,45.7,66.1,44.3z M30.1,82.4c-3.9,0-7.1-3.2-7.1-7.1s3.2-7.1,7.1-7.1c3.9,0,7.1,3.2,7.1,7.1S34,82.4,30.1,82.4z
			 M59.5,82.4c-3.9,0-7.1-3.2-7.1-7.1s3.2-7.1,7.1-7.1c3.9,0,7.1,3.2,7.1,7.1S63.5,82.4,59.5,82.4z"/>
		<path class="st0" d="M29.7,62.4c-4.5,0-8.1,3.6-8.1,8.1c0,4.5,3.6,8.1,8.1,8.1c4.5,0,8.1-3.6,8.1-8.1
			C37.8,66.1,34.2,62.4,29.7,62.4z"/>
		
			<ellipse transform="matrix(1.514617e-02 -0.9999 0.9999 1.514617e-02 -11.4709 129.4445)" class="st0" cx="60" cy="70.5" rx="8.1" ry="8.1"/>
		<path class="st0" d="M89.6,32.3c0-8.5-3.3-16.5-9.2-22.6c-5.9-6-13.9-9.5-22.3-9.6c-0.6,0-1.2,0.2-1.7,0.7c-0.4,0.4-0.7,1-0.7,1.6
			V38H33.9V2.3c0-0.6-0.2-1.2-0.7-1.6c-0.4-0.4-1-0.7-1.7-0.7C23.1,0.2,15.2,3.6,9.2,9.6C3.3,15.7,0,23.7,0,32.2
			C0,38.7,1.9,45,5.6,50.3c-2.3,3.2-3.9,6.9-4.8,10.8c-0.1,0.3-0.1,0.5-0.1,0.6c0,0.1,0,0.1,0,0.2c-0.3,1.8-0.5,3.6-0.5,5.5v29
			c0,4.5,1,8.9,3,12.9c-1.3,4-1.4,8.3-0.5,12.4c1,4.3,3.2,8.3,6.3,11.4c0.4,0.4,0.7,0.7,1.1,1c3.9,3.6,9.2,5.9,15,5.9
			c0.1,0,0.2,0,0.3,0c0.1,0,0.2,0,0.3,0c2.1,0,4.2-0.3,6.1-0.8c3,1.5,6.3,2.4,9.7,2.8c0.4-1.2,0.8-2.3,0.9-3.6
			c0-0.3,0.1-16.6,0.3-16.8v-8.2c-5.2-1.6-9.7-8.3-9.7-13.7c0-6.1,5.9-7.2,12-7.2c6.1,0,12,1.1,12,7.2c0,5.3-4.5,12-9.7,13.7V140
			c0.2,0.7,0.4,1.3,0.6,1.9c3.4-0.4,6.7-1.4,9.8-2.9c1.5,0.4,3.1,0.7,4.7,0.8c0.1,0,0.2,0,0.4,0c0.1,0,0.3,0,0.4,0c0,0,0.1,0,0.1,0
			c0.3,0,0.6,0,0.9,0c0,0,0,0,0,0c0,0,0,0,0,0c4.1,0,8.1-1,11.5-3l0,0l0,0c1.9-1,3.6-2.3,5.1-3.9c3.1-3.1,5.3-7.1,6.3-11.4
			c0.9-4.1,0.8-8.3-0.5-12.3c2-4,3-8.4,3-13v-29c0-6.1-1.9-12.1-5.5-17.1C87.7,45,89.6,38.8,89.6,32.3z M84.5,62.6
			c0,0.2,0.1,0.3,0.1,0.4c0.3,1.4,0.4,2.9,0.4,4.3v29c0,3.5-0.7,6.9-2.1,10c-0.7-1.1-1.4-2.1-2.3-3.1c0,0,0-0.1-0.1-0.1
			c-0.1-0.1-0.6-0.9-1.6-2.2l0,0l0,0c-1.5-1.9-3.9-4.7-7.4-7.5c-3.5-2.8-7.3-5-11.3-6.6c-5-2-10.4-3-15.9-3c-5.6,0-10.9,1-15.9,3
			c-4,1.6-7.8,3.8-11.3,6.6c-5.9,4.8-8.9,9.5-9,9.7c-0.2,0.3-0.3,0.6-0.3,0.9c-0.4,0.5-0.8,1.1-1.2,1.6c-1.2-3-1.8-6.1-1.8-9.4v-29
			c0-1.7,0.2-3.4,0.5-5.1c0.2-1,1.1-4.1,3.3-7.5c3.5-5.5,8.6-9,14.9-10.4c1.1-0.2,1.8-1.2,1.8-2.2V30.7c0-1.3-1-2.3-2.3-2.3
			c-1.3,0-2.3,1-2.3,2.3v9.6c-4.5,1.3-8.5,3.6-11.8,6.8c-2.8-4.4-4.3-9.5-4.3-14.9c0-7.3,2.8-14.1,7.9-19.3
			C17,8.2,22.9,5.4,29.3,4.7v35.6c0,1.3,1,2.3,2.3,2.3H58c1.3,0,2.3-1,2.3-2.3V4.8c6.4,0.7,12.3,3.5,16.8,8.1
			C82.2,18.1,85,25,85,32.3c0,5.3-1.5,10.4-4.3,14.8c-3.3-3.2-7.3-5.5-11.8-6.8v-9.6c0-1.3-1-2.3-2.3-2.3c-1.3,0-2.3,1-2.3,2.3v11.4
			c0,1.1,0.8,2,1.8,2.2c6.3,1.4,11.3,4.8,14.8,10.2C83.6,58.7,84.4,62.5,84.5,62.6z"/>
	</g>
</g>
</svg>
