<svg width="40" height="40" viewBox="0 0 40 40" fill="none" xmlns="http://www.w3.org/2000/svg">
    <circle cx="20" cy="20" r="20" fill="#EAFAF3"/>
    <path fill-rule="evenodd" clip-rule="evenodd" d="m15.687 13.632 6.03 12.512h-1.709l-1.533-3.241h-5.577l-1.53 3.24h-1.71l6.029-12.511zm-2.091 7.807h4.182l-2.091-4.427-2.091 4.427z" fill="#2DCA8C"/>
    <path opacity=".3" fill-rule="evenodd" clip-rule="evenodd" d="M28.094 25.27a4.079 4.079 0 0 1-2.77 1.011 4.376 4.376 0 0 1-4.444-4.496 4.377 4.377 0 0 1 4.443-4.494 4.078 4.078 0 0 1 2.77 1.01v-.87h1.5v8.712h-1.5v-.872zm0-1.81v-3.346a3.137 3.137 0 0 0-2.736-1.412 2.94 2.94 0 0 0-2.928 3.085 2.939 2.939 0 0 0 2.928 3.084 3.136 3.136 0 0 0 2.736-1.412z" fill="#2DCA8C"/>
</svg>
