<svg xmlns="http://www.w3.org/2000/svg" xmlns:xlink="http://www.w3.org/1999/xlink" width="28" height="20" viewBox="0 0 28 20">
    <defs>
        <path id="a" d="M.006.028h27.9v19.867H.006z"/>
    </defs>
    <g fill="none" fill-rule="evenodd">
        <mask id="b" fill="#fff">
            <use xlink:href="#a"/>
        </mask>
        <path fill="#474747" d="M25.815 15.366V2.193A2.168 2.168 0 0 0 23.65.028H4.256a2.167 2.167 0 0 0-2.165 2.165v13.173H0v2.442c0 1.152.936 2.087 2.086 2.087H25.82c1.151 0 2.087-.936 2.087-2.087v-2.442h-2.091zM3.173 2.193c0-.598.486-1.083 1.083-1.083H23.65c.597 0 1.082.485 1.082 1.083v13.173H3.173V2.193zm23.65 15.615c0 .554-.45 1.005-1.004 1.005H2.086c-.553 0-1.004-.451-1.004-1.005V16.45H8.85c.188.522.683.897 1.269.897h7.667c.587 0 1.08-.375 1.269-.897h7.768v1.36z" mask="url(#b)"/>
    </g>
</svg>
