<svg xmlns="http://www.w3.org/2000/svg" width="14" height="14" viewBox="0 0 14 14">
    <path fill="#000000" fill-rule="nonzero" d="M13.983 6.533A6.998 6.998 0 0 0 7.467.016V0h-.934v.016A6.999 6.999 0 0 0 .016 6.533H0v.934h.016a6.998 6.998 0 0 0 6.517 6.516V14h.934v-.017a6.997 6.997 0 0 0 6.516-6.516H14v-.934h-.017zM4.382 1.526c-.45.6-.825 1.35-1.098 2.207H1.886a6.099 6.099 0 0 1 2.496-2.207zm-2.984 3.14h1.64c-.124.59-.203 1.217-.229 1.867H.951c.05-.657.204-1.285.447-1.866zm-.447 2.8H2.81c.026.651.105 1.277.23 1.867h-1.64A6.014 6.014 0 0 1 .95 7.467zm.935 2.8h1.397c.273.857.647 1.609 1.099 2.208a6.092 6.092 0 0 1-2.496-2.207zm4.647 2.74c-.96-.256-1.785-1.286-2.286-2.74h2.286v2.74zm0-3.673H3.984a10.431 10.431 0 0 1-.241-1.866h2.79v1.866zm0-2.8h-2.79c.027-.657.11-1.285.241-1.866h2.55v1.866zm0-2.8H4.247C4.747 2.28 5.574 1.25 6.533.994v2.74zm5.58 0h-1.396c-.273-.856-.646-1.608-1.099-2.207a6.104 6.104 0 0 1 2.496 2.207zM7.468.994c.958.256 1.785 1.286 2.286 2.74H7.467V.993zm0 3.673h2.548c.132.581.213 1.21.242 1.866h-2.79V4.667zm0 2.8h2.79c-.027.657-.11 1.285-.242 1.866H7.467V7.467zm0 5.54v-2.74h2.286c-.5 1.453-1.328 2.483-2.286 2.74zm2.151-.533c.45-.6.826-1.35 1.1-2.207h1.396a6.098 6.098 0 0 1-2.496 2.207zm2.984-3.14h-1.64c.124-.59.203-1.217.229-1.867h1.857a5.987 5.987 0 0 1-.446 1.866zm-1.411-2.8a11.084 11.084 0 0 0-.23-1.867h1.64c.244.581.398 1.21.448 1.866H11.19z"/>
</svg>