<svg width="40" height="40" viewBox="0 0 40 40" fill="none" xmlns="http://www.w3.org/2000/svg">
    <circle cx="20" cy="20" r="20" fill="#FFF2D8"/>
    <path opacity=".3" fill-rule="evenodd" clip-rule="evenodd" d="M23.302 14.543a2.157 2.157 0 1 1 2.156 2.157 2.157 2.157 0 0 1-2.156-2.157zm0 11.214a2.157 2.157 0 1 1 2.155 2.157h.001a2.157 2.157 0 0 1-2.156-2.157zm-11.05.825a2.156 2.156 0 1 1 1.992 1.332 2.157 2.157 0 0 1-1.992-1.332z" fill="#FFBE3D"/>
    <path fill-rule="evenodd" clip-rule="evenodd" d="M12.088 14.543a2.157 2.157 0 1 1 2.156 2.157 2.157 2.157 0 0 1-2.156-2.157zm8.626-1.293a.862.862 0 0 1 0 1.725h-1.726a.862.862 0 0 1 0-1.726h1.726zm0 12.076a.862.862 0 0 1 0 1.725h-1.726a.862.862 0 1 1 0-1.725h1.726zm-6.038-6.04v1.726a.863.863 0 0 1-1.725 0v-1.725a.863.863 0 0 1 1.725 0zm12.076 0v1.726a.862.862 0 1 1-1.725 0v-1.725c0-.475.386-.86.86-.862h.002c.477 0 .863.386.863.862z" fill="#FFBE3D"/>
</svg>
