<svg xmlns="http://www.w3.org/2000/svg" width="21" height="19" viewBox="0 0 21 19">
    <g fill="#2396FF" fill-rule="evenodd">
        <path stroke="#2396FF" stroke-width=".2" d="M9.873 18.27C4.98 18.27 1 14.197 1 9.19 1 4.185 4.981.112 9.873.112c4.893 0 8.876 4.073 8.876 9.076 0 .29-.23.52-.508.52a.512.512 0 0 1-.508-.52c0-4.432-3.527-8.04-7.86-8.04-4.334 0-7.86 3.608-7.86 8.04 0 4.437 3.526 8.042 7.86 8.042 2.773 0 5.37-1.522 6.777-3.968a.502.502 0 0 1 .695-.182c.243.145.32.462.181.71-1.59 2.76-4.522 4.479-7.653 4.479z"/>
        <path d="M18.24 10.709a.497.497 0 0 1-.256-.07l-3.178-1.922a.521.521 0 0 1-.179-.708.5.5 0 0 1 .695-.183l2.77 1.673 1.787-2.615a.502.502 0 0 1 .705-.128.53.53 0 0 1 .126.722l-2.054 3.009a.501.501 0 0 1-.415.222z"/>
    </g>
</svg>
