<svg xmlns="http://www.w3.org/2000/svg" width="15" height="22" viewBox="0 0 15 22">
    <g fill="#333" fill-rule="evenodd">
        <path d="M7.492 5.224a2.713 2.713 0 0 0-2.71 2.709 2.713 2.713 0 0 0 2.71 2.71 2.713 2.713 0 0 0 2.709-2.71 2.712 2.712 0 0 0-2.709-2.71zm0 4.644a1.937 1.937 0 0 1-1.935-1.935c0-1.067.867-1.936 1.935-1.936 1.067 0 1.936.87 1.936 1.936a1.938 1.938 0 0 1-1.936 1.935z"/>
        <path d="M12.673 2.752A7.38 7.38 0 0 0 7.425.578a7.382 7.382 0 0 0-5.251 2.174C-.42 5.347-.743 10.227 1.476 13.185l5.949 8.589 5.936-8.577c2.229-2.97 1.906-7.85-.688-10.445zm.06 9.993l-5.308 7.67-5.321-7.682C.092 10.05.38 5.641 2.722 3.3a6.613 6.613 0 0 1 4.703-1.947c1.774 0 3.443.692 4.7 1.947 2.342 2.341 2.631 6.75.609 9.445z"/>
    </g>
</svg>
