<svg xmlns="http://www.w3.org/2000/svg" xmlns:xlink="http://www.w3.org/1999/xlink" width="104" height="106" viewBox="0 0 104 106">
    <defs>
        <path id="a" d="M37.503 26.879H1.191c-.62 0-1.122-.498-1.122-1.113V1.134C.069.519.57.02 1.19.02h36.312c.62 0 1.123.498 1.123 1.113v24.632c0 .615-.502 1.113-1.123 1.113"/>
        <path id="c" d="M11.752 7.728H.002V.007h1.824c3.943 0 7.514 2.306 9.106 5.882l.82 1.84"/>
    </defs>
    <g fill="none" fill-rule="evenodd">
        <path fill="#FAFAFA" d="M-1227-307H213v900h-1440z"/>
        <path fill="#6A79A8" d="M43.22 105.475h-5.198a.289.289 0 0 1-.29-.288c0-.159.13-.288.29-.288h5.198c.16 0 .29.129.29.288 0 .159-.13.288-.29.288M59.256 105.475H45.944a.289.289 0 0 1-.29-.288c0-.159.13-.288.29-.288h13.312c.16 0 .29.129.29.288 0 .159-.13.288-.29.288M64.453 105.475h-2.812a.289.289 0 0 1-.29-.288c0-.159.13-.288.29-.288h2.812c.16 0 .29.129.29.288 0 .159-.13.288-.29.288"/>
        <path fill="#FFF" d="M80.504 97.467H44.192c-.62 0-1.123-.499-1.123-1.114V71.721c0-.615.502-1.113 1.123-1.113h36.312c.62 0 1.122.498 1.122 1.113v24.632c0 .615-.502 1.114-1.122 1.114"/>
        <path fill="#BBDFF5" d="M81.215 98.172H44.903c-.62 0-1.123-.498-1.123-1.113V72.427c0-.615.503-1.114 1.123-1.114h36.312c.62 0 1.123.499 1.123 1.114v24.632c0 .615-.503 1.113-1.123 1.113"/>
        <g transform="translate(43.737 71.318)">
            <mask id="b" fill="#fff">
                <use xlink:href="#a"/>
            </mask>
            <path fill="#DEF3F9" d="M-2.662 24.893l-3.373-5.171L36.458-7.52l3.373 5.17-42.493 27.243M.93 30.398l-1.687-2.586L41.736.57l1.687 2.585L.93 30.398M3.165 34.702l-1.687-2.585L43.971 4.874l1.687 2.586L3.165 34.702" mask="url(#b)"/>
        </g>
        <path fill="#6A79A8" d="M44.192 70.895a.83.83 0 0 0-.834.826v24.632a.83.83 0 0 0 .834.826h36.312a.83.83 0 0 0 .833-.826V71.721a.83.83 0 0 0-.833-.826H44.192zm36.312 26.859H44.192a1.408 1.408 0 0 1-1.413-1.4V71.72c0-.772.634-1.4 1.413-1.4h36.312c.778 0 1.412.628 1.412 1.4v24.632c0 .773-.633 1.4-1.412 1.4z"/>
        <path fill="#6A79A8" d="M65.021 95.8h-1.085a.289.289 0 0 1-.29-.287c0-.16.13-.288.29-.288h1.085c.16 0 .29.129.29.288 0 .159-.13.288-.29.288M69.818 95.8h-4.15a.289.289 0 0 1-.29-.287c0-.16.13-.288.29-.288h4.15c.16 0 .29.129.29.288 0 .159-.13.288-.29.288M71.823 95.8h-1.284a.289.289 0 0 1-.29-.287c0-.16.13-.288.29-.288h1.284c.16 0 .29.129.29.288 0 .159-.13.288-.29.288"/>
        <path fill="#6A79A8" d="M72.952 95.8h-.587a.289.289 0 0 1-.29-.287c0-.16.13-.288.29-.288h.587c.16 0 .29.129.29.288 0 .159-.13.288-.29.288M45.163 93.282a.289.289 0 0 1-.29-.288v-1.657c0-.159.13-.287.29-.287.16 0 .29.128.29.287v1.657c0 .159-.13.288-.29.288"/>
        <path fill="#6A79A8" d="M45.163 91.154a.288.288 0 0 1-.29-.287v-.394c0-.159.13-.287.29-.287.16 0 .29.128.29.287v.394c0 .158-.13.287-.29.287M45.163 94.193a.289.289 0 0 1-.29-.287v-.47c0-.16.13-.288.29-.288.16 0 .29.129.29.287v.47c0 .16-.13.288-.29.288"/>
        <path fill="#6A79A8" d="M46.752 95.8h-1.038a.838.838 0 0 1-.841-.834v-.631c0-.159.13-.287.29-.287.16 0 .29.128.29.287v.63c0 .144.117.26.261.26h1.038c.16 0 .29.129.29.287 0 .159-.13.287-.29.287"/>
        <path fill="#6A79A8" d="M47.872 95.8h-.604a.289.289 0 0 1-.29-.287c0-.16.13-.288.29-.288h.604c.16 0 .29.129.29.288 0 .159-.13.288-.29.288M79.691 77.006a.289.289 0 0 1-.29-.287V75.06c0-.159.13-.287.29-.287.16 0 .29.128.29.287v1.658c0 .158-.13.287-.29.287"/>
        <path fill="#6A79A8" d="M79.691 77.87a.289.289 0 0 1-.29-.288v-.393c0-.16.13-.288.29-.288.16 0 .29.129.29.288v.393c0 .16-.13.288-.29.288M79.691 74.907a.289.289 0 0 1-.29-.287v-.47c0-.159.13-.287.29-.287.16 0 .29.128.29.287v.47c0 .159-.13.287-.29.287"/>
        <path fill="#6A79A8" d="M79.691 74.008a.289.289 0 0 1-.29-.288v-.63a.26.26 0 0 0-.261-.26h-1.038a.288.288 0 0 1-.29-.287c0-.159.13-.287.29-.287h1.038c.464 0 .841.374.841.834v.63c0 .16-.13.288-.29.288"/>
        <path fill="#6A79A8" d="M77.586 72.831h-.605a.289.289 0 0 1-.29-.287c0-.16.13-.288.29-.288h.605c.16 0 .29.129.29.288 0 .159-.13.287-.29.287"/>
        <path fill="#6A79A8" d="M76.478 72.831h-2.349a.289.289 0 0 1-.29-.287c0-.16.13-.288.29-.288h2.349c.16 0 .29.129.29.288 0 .159-.13.287-.29.287"/>
        <path fill="#FFF" d="M102.587 97.467H82.674a1.043 1.043 0 0 1-1.048-1.04V76.69c0-.574.47-1.04 1.048-1.04h2.81c4.345 0 8.283 2.54 10.045 6.477l1.244 2.782c.168.375.544.617.958.617h2.158c2.069 0 3.745 1.663 3.745 3.714v7.189c0 .574-.468 1.039-1.047 1.039"/>
        <path fill="#6A79A8" d="M82.674 75.937a.756.756 0 0 0-.758.752v19.739c0 .414.34.751.758.751h19.913a.755.755 0 0 0 .758-.751v-7.19c0-1.889-1.55-3.426-3.456-3.426H97.73a1.34 1.34 0 0 1-1.223-.788l-1.244-2.781c-1.714-3.83-5.553-6.306-9.78-6.306h-2.81zm19.913 21.817H82.674a1.333 1.333 0 0 1-1.337-1.326v-19.74c0-.73.6-1.325 1.337-1.325h2.81c4.456 0 8.503 2.609 10.31 6.647l1.244 2.781a.76.76 0 0 0 .693.447h2.158c2.225 0 4.035 1.795 4.035 4v7.19c0 .73-.6 1.326-1.337 1.326z"/>
        <path fill="#6A79A8" d="M83.294 94.552a.289.289 0 0 1-.29-.288v-4.608c0-.159.13-.288.29-.288.16 0 .29.129.29.288v4.608c0 .159-.13.288-.29.288M83.294 88.979a.289.289 0 0 1-.29-.287v-1.659c0-.159.13-.287.29-.287.16 0 .29.128.29.287v1.659c0 .158-.13.287-.29.287M99.467 96.233h-1.459a.289.289 0 0 1-.29-.288c0-.159.13-.288.29-.288h1.46c.16 0 .289.129.289.288 0 .159-.13.288-.29.288M101.36 96.233h-.947a.289.289 0 0 1-.29-.288c0-.159.13-.288.29-.288h.946c.16 0 .29.129.29.288 0 .159-.13.288-.29.288"/>
        <path fill="#F0F9FC" d="M95.043 85.51h-11.75v-7.723h1.825c3.943 0 7.514 2.307 9.106 5.883l.82 1.84"/>
        <g transform="translate(83.292 77.78)">
            <mask id="d" fill="#fff">
                <use xlink:href="#c"/>
            </mask>
            <path fill="#FFF" d="M13.65 1.01l-.662 3.882-16.365 11.186.662-3.881L13.651 1.01M14.356-3.121l-.331 1.94L-2.34 10.005l.331-1.94L14.356-3.121M15.03-6.264l-.331 1.94L-1.666 6.864l.331-1.941L15.03-6.264" mask="url(#d)"/>
        </g>
        <path fill="#6A79A8" d="M83.584 85.222h11.015l-.64-1.436c-1.545-3.47-5.015-5.711-8.841-5.711h-1.534v7.147zm11.46.575h-11.75a.289.289 0 0 1-.29-.288v-7.721c0-.16.13-.288.29-.288h1.824c4.055 0 7.734 2.376 9.371 6.054l.82 1.84a.285.285 0 0 1-.023.272.29.29 0 0 1-.243.13z"/>
        <path fill="#FF9C81" d="M94.373 88.258c0 .652-.4 1.18-.893 1.18-.494 0-.893-.528-.893-1.18 0-.651.4-1.18.893-1.18s.893.529.893 1.18"/>
        <path fill="#6A79A8" d="M100.877 91.727l-.133-.001c-1.99-.03-2.706-1.193-2.736-1.242a.286.286 0 0 1 .102-.394.292.292 0 0 1 .396.1c.026.042.602.937 2.247.961 1.75.031 2.73-.508 2.74-.513a.292.292 0 0 1 .395.11.286.286 0 0 1-.112.39c-.043.025-1.076.589-2.9.589M91.03 84.39l-.075-.001a1.402 1.402 0 0 1-1.333-1.468.288.288 0 0 1 .304-.272c.16.009.283.144.274.302a.826.826 0 0 0 .785.864.827.827 0 0 0 .872-.778.289.289 0 0 1 .304-.271c.16.008.283.143.274.301a1.405 1.405 0 0 1-1.406 1.324"/>
        <path fill="#FFF" d="M97.346 99.157c0-3.175-2.596-5.748-5.798-5.748s-5.798 2.573-5.798 5.748c0 3.174 2.596 5.747 5.798 5.747s5.798-2.573 5.798-5.747"/>
        <path fill="#6A79A8" d="M91.548 93.696c-3.037 0-5.508 2.45-5.508 5.46 0 3.012 2.47 5.461 5.508 5.461 3.037 0 5.509-2.45 5.509-5.46 0-3.012-2.472-5.461-5.509-5.461zm0 11.496c-3.357 0-6.088-2.708-6.088-6.035 0-3.328 2.731-6.036 6.088-6.036s6.088 2.708 6.088 6.036c0 3.327-2.73 6.035-6.088 6.035z"/>
        <path fill="#F0F9FC" d="M94.913 99.157c0-1.843-1.506-3.337-3.365-3.337-1.859 0-3.365 1.494-3.365 3.337 0 1.842 1.506 3.336 3.365 3.336 1.859 0 3.365-1.494 3.365-3.336"/>
        <path fill="#6A79A8" d="M91.548 96.108c-1.696 0-3.075 1.367-3.075 3.049 0 1.68 1.38 3.048 3.075 3.048 1.696 0 3.076-1.367 3.076-3.048 0-1.682-1.38-3.05-3.076-3.05zm0 6.672c-2.015 0-3.655-1.626-3.655-3.623 0-1.998 1.64-3.624 3.655-3.624 2.016 0 3.655 1.626 3.655 3.624 0 1.997-1.64 3.623-3.655 3.623z"/>
        <path fill="#FFF" d="M61.814 99.157c0-3.175-2.596-5.748-5.799-5.748-3.202 0-5.798 2.573-5.798 5.748 0 3.174 2.596 5.747 5.798 5.747 3.203 0 5.799-2.573 5.799-5.747"/>
        <path fill="#6A79A8" d="M56.015 93.696c-3.037 0-5.508 2.45-5.508 5.46 0 3.012 2.47 5.461 5.508 5.461s5.509-2.45 5.509-5.46c0-3.012-2.471-5.461-5.509-5.461zm0 11.496c-3.357 0-6.088-2.708-6.088-6.035 0-3.328 2.731-6.036 6.088-6.036s6.089 2.708 6.089 6.036c0 3.327-2.732 6.035-6.089 6.035z"/>
        <path fill="#F0F9FC" d="M59.38 99.157c0-1.843-1.506-3.337-3.365-3.337-1.858 0-3.365 1.494-3.365 3.337 0 1.842 1.507 3.336 3.365 3.336 1.859 0 3.366-1.494 3.366-3.336"/>
        <path fill="#6A79A8" d="M56.015 96.108c-1.696 0-3.075 1.367-3.075 3.049 0 1.68 1.38 3.048 3.075 3.048 1.696 0 3.076-1.367 3.076-3.048 0-1.682-1.38-3.05-3.076-3.05zm0 6.672c-2.015 0-3.655-1.626-3.655-3.623 0-1.998 1.64-3.624 3.655-3.624 2.016 0 3.656 1.626 3.656 3.624 0 1.997-1.64 3.623-3.656 3.623zM78.314 105.475h-7.909a.289.289 0 0 1-.29-.288c0-.159.13-.288.29-.288h7.909c.16 0 .29.129.29.288 0 .159-.13.288-.29.288M102.707 105.475h-20.25a.289.289 0 0 1-.29-.288c0-.159.13-.288.29-.288h20.25a.288.288 0 1 1 0 .576M34.136 94.15c-1.459 0-2.946-.524-4.146-1.489-3.55-2.856-4.527-7.954-4.285-11.452.677-9.791 10.153-14.608 18.513-18.859 1.986-1.01 3.86-1.963 5.546-2.946 2.274-1.327 5.116-3.197 6.92-5.902 1.84-2.756 2.235-6.017 1.033-8.51-1.772-3.676-6.023-6.231-12.635-7.597a103.263 103.263 0 0 0-3.788-.683c-2.361-.395-4.803-.804-7.134-1.525-2.933-.907-6.885-2.743-9.054-6.339-3.126-5.183-.067-11.429 4.57-14.92 3.843-2.893 8.276-4.93 13.178-6.051a38.045 38.045 0 0 1 14.552-.444c4.32.713 8.48 2.18 12.364 4.362 2.906 1.632 5.158 4.133 7.336 6.552 3.225 3.582 6.272 6.965 11.212 7.626.159.022.27.166.249.324a.29.29 0 0 1-.326.246c-5.153-.69-8.414-4.311-11.567-7.814-2.147-2.384-4.367-4.849-7.19-6.434A37.157 37.157 0 0 0 57.311 8c-9.8-1.618-19.746.71-27.284 6.385-4.432 3.337-7.375 9.275-4.423 14.168 2.075 3.44 5.892 5.208 8.728 6.085 2.295.71 4.716 1.115 7.058 1.508 1.252.21 2.545.426 3.81.687 6.798 1.404 11.186 4.065 13.04 7.91 1.29 2.675.878 6.153-1.072 9.076-1.87 2.803-4.782 4.722-7.11 6.08-1.7.992-3.582 1.95-5.575 2.963-8.224 4.18-17.545 8.92-18.2 18.387-.232 3.36.695 8.249 4.073 10.966 1.386 1.116 3.188 1.585 4.82 1.259a.288.288 0 0 1 .115.563 5.87 5.87 0 0 1-1.155.113"/>
        <path fill="#FFF" d="M97.259 9.552c0-4.836-3.955-8.756-8.833-8.756-4.877 0-8.832 3.92-8.832 8.756 0 4.835 8.832 13.68 8.832 13.68s8.833-8.845 8.833-13.68"/>
        <path fill="#BBDFF5" d="M98.087 10.373c0-4.836-3.954-8.756-8.832-8.756s-8.833 3.92-8.833 8.756c0 4.835 8.833 13.68 8.833 13.68s8.832-8.845 8.832-13.68"/>
        <path fill="#6A79A8" d="M88.426 1.084c-4.71 0-8.542 3.798-8.542 8.468 0 4.258 7.22 11.903 8.542 13.267 1.323-1.364 8.543-9.01 8.543-13.267 0-4.67-3.832-8.468-8.543-8.468zm0 22.435a.29.29 0 0 1-.205-.085c-.364-.365-8.917-8.985-8.917-13.882 0-4.986 4.093-9.043 9.122-9.043 5.03 0 9.122 4.057 9.122 9.043 0 4.897-8.552 13.517-8.916 13.882a.29.29 0 0 1-.206.085z"/>
        <path fill="#FFF" d="M93.67 10.373c0-2.418-1.977-4.378-4.415-4.378-2.44 0-4.417 1.96-4.417 4.378 0 2.417 1.978 4.377 4.417 4.377 2.438 0 4.416-1.96 4.416-4.377"/>
        <path fill="#6A79A8" d="M88.426 5.461c-2.275 0-4.126 1.835-4.126 4.09 0 2.256 1.851 4.091 4.126 4.091 2.276 0 4.127-1.835 4.127-4.09 0-2.256-1.851-4.09-4.127-4.09zm0 8.756c-2.594 0-4.705-2.093-4.705-4.665 0-2.573 2.11-4.665 4.705-4.665s4.706 2.092 4.706 4.665c0 2.572-2.11 4.665-4.706 4.665z"/>
        <path fill="#FFF" d="M73.012 18.533v8.405c0 1.536-1.045 2.782-2.334 2.782H40.72c-2.074 0-5.863 1.015-5.863 1.015s1.644-2.2 1.9-2.71c.244-.489.451-.903.49-1.41.071-.921 0-1.86 0-2.781v-5.301c0-1.537 1.045-2.782 2.334-2.782h31.096c1.289 0 2.334 1.245 2.334 2.782"/>
        <path fill="#6A79A8" d="M38.322 14.936c-1.127 0-2.044 1.119-2.044 2.495v5.3c0 .304.008.616.015.918.016.617.032 1.256-.016 1.885-.044.565-.275 1.027-.52 1.516-.175.35-.936 1.407-1.449 2.106 1.232-.298 3.623-.826 5.153-.826h29.956c1.128 0 2.045-1.119 2.045-2.495v-8.404c0-1.376-.917-2.495-2.045-2.495H38.322zM33.597 29.92a.29.29 0 0 1-.24-.126.285.285 0 0 1 .008-.332c.453-.607 1.672-2.268 1.873-2.667.238-.476.426-.851.46-1.305.047-.6.031-1.224.016-1.827a36.602 36.602 0 0 1-.016-.932v-5.3c0-1.693 1.177-3.07 2.624-3.07h31.095c1.447 0 2.624 1.377 2.624 3.07v8.404c0 1.693-1.177 3.07-2.624 3.07H39.461c-2.013 0-5.75.995-5.788 1.005a.29.29 0 0 1-.076.01z"/>
        <path fill="#6A79A8" d="M58.118 24.842H41.57a.289.289 0 0 1-.29-.288c0-.159.13-.288.29-.288h16.548c.16 0 .29.13.29.288 0 .159-.13.288-.29.288M66.878 20.016H41.25a.289.289 0 0 1-.29-.288c0-.159.13-.288.29-.288h25.627c.16 0 .29.13.29.288 0 .16-.13.288-.29.288"/>
        <path fill="#FFF" d="M103.432 51.895V60.3c0 1.536-1.046 2.782-2.335 2.782H71.14c-2.074 0-5.863 1.015-5.863 1.015s1.644-2.2 1.9-2.71c.245-.489.451-.903.49-1.41.072-.921 0-1.86 0-2.781v-5.301c0-1.537 1.046-2.782 2.335-2.782h31.095c1.29 0 2.335 1.245 2.335 2.782"/>
        <path fill="#6A79A8" d="M68.741 48.298c-1.127 0-2.044 1.119-2.044 2.495v5.3c0 .304.008.616.016.918.015.617.032 1.256-.017 1.885-.044.566-.275 1.027-.52 1.516-.175.35-.936 1.407-1.448 2.106 1.231-.298 3.622-.825 5.152-.825h29.957c1.127 0 2.044-1.12 2.044-2.495v-8.405c0-1.376-.917-2.495-2.044-2.495H68.74zm-4.724 14.984a.29.29 0 0 1-.24-.125.285.285 0 0 1 .007-.333c.453-.607 1.673-2.268 1.873-2.667.238-.475.426-.85.461-1.305.047-.6.03-1.223.015-1.827a36.613 36.613 0 0 1-.016-.932v-5.3c0-1.693 1.178-3.07 2.624-3.07h31.096c1.447 0 2.624 1.377 2.624 3.07v8.405c0 1.692-1.177 3.069-2.624 3.069H69.88c-2.012 0-5.75.995-5.788 1.005a.29.29 0 0 1-.075.01z"/>
        <path fill="#6A79A8" d="M88.537 58.204H71.99a.289.289 0 0 1-.29-.288c0-.159.13-.288.29-.288h16.547c.16 0 .29.13.29.288 0 .159-.13.288-.29.288M97.297 53.378H71.67a.289.289 0 0 1-.29-.288c0-.159.13-.288.29-.288h25.627c.16 0 .29.13.29.288 0 .16-.13.288-.29.288"/>
        <path fill="#FFF" d="M1.154 42.448v8.405c0 1.536 1.045 2.782 2.334 2.782h29.957c2.074 0 5.863 1.015 5.863 1.015s-1.644-2.2-1.9-2.71c-.245-.489-.451-.903-.49-1.41-.072-.921 0-1.86 0-2.781v-5.301c0-1.537-1.046-2.782-2.335-2.782H3.488c-1.29 0-2.334 1.245-2.334 2.782"/>
        <path fill="#DEF3F9" d="M2.32 43.604v8.405c0 1.536 1.045 2.782 2.334 2.782h29.957c2.074 0 5.863 1.015 5.863 1.015s-1.644-2.2-1.9-2.71c-.244-.488-.451-.903-.49-1.41-.071-.921 0-1.86 0-2.781v-5.301c0-1.537-1.045-2.782-2.334-2.782H4.654c-1.289 0-2.334 1.245-2.334 2.782"/>
        <path fill="#6A79A8" d="M3.249 39.842c-1.127 0-2.044 1.119-2.044 2.495v8.404c0 1.376.917 2.495 2.044 2.495h29.957c1.53 0 3.92.528 5.152.826-.512-.699-1.273-1.757-1.448-2.106-.245-.489-.477-.95-.52-1.516-.049-.629-.033-1.268-.017-1.885.008-.302.016-.614.016-.918v-5.3c0-1.376-.917-2.495-2.045-2.495H3.25zm35.82 14.984a.29.29 0 0 1-.076-.01c-.037-.01-3.776-1.005-5.787-1.005H3.249c-1.447 0-2.624-1.377-2.624-3.07v-8.404c0-1.693 1.177-3.07 2.624-3.07h31.095c1.447 0 2.624 1.377 2.624 3.07v5.3c0 .31-.008.627-.016.932-.015.604-.031 1.227.015 1.827.035.454.224.83.462 1.304.2.4 1.42 2.061 1.873 2.668a.285.285 0 0 1 .006.332.29.29 0 0 1-.239.126z"/>
        <path fill="#6A79A8" d="M21.207 44.922H5.469a.289.289 0 0 1-.29-.288c0-.159.13-.288.29-.288h15.738c.16 0 .29.13.29.288 0 .159-.13.288-.29.288M31.096 49.748H5.469a.289.289 0 0 1-.29-.288c0-.159.13-.288.29-.288h25.627c.16 0 .29.129.29.288 0 .159-.13.288-.29.288"/>
    </g>
</svg>
