<svg width="140px" height="50px" viewBox="0 0 140 50" version="1.1" xmlns="http://www.w3.org/2000/svg" xmlns:xlink="http://www.w3.org/1999/xlink">
    <!-- Generator: Sketch 63.1 (92452) - https://sketch.com -->
    <title>Yelo-Full-Logo</title>
    <desc>Created with Sketch.</desc>
    <defs>
        <linearGradient x1="56.327825%" y1="-106.764286%" x2="48.3229703%" y2="71.5535714%" id="linearGradient-1">
            <stop stop-color="#FDC660" offset="0%"></stop>
            <stop stop-color="#FC7228" offset="100%"></stop>
        </linearGradient>
        <linearGradient x1="48.9967295%" y1="84.7024684%" x2="51.4223954%" y2="38.7551392%" id="linearGradient-2">
            <stop stop-color="#FDC660" offset="0%"></stop>
            <stop stop-color="#FC7228" offset="100%"></stop>
        </linearGradient>
        <linearGradient x1="51.6208672%" y1="-44.4461778%" x2="48.4499271%" y2="85.374415%" id="linearGradient-3">
            <stop stop-color="#FDC660" offset="0%"></stop>
            <stop stop-color="#FC7228" offset="100%"></stop>
        </linearGradient>
        <linearGradient x1="0.0145602727%" y1="46.6371792%" x2="347.61195%" y2="46.6371792%" id="linearGradient-4">
            <stop stop-color="#FDC660" offset="11%"></stop>
            <stop stop-color="#FDAB4E" offset="36%"></stop>
            <stop stop-color="#FC8233" offset="78%"></stop>
            <stop stop-color="#FC7228" offset="100%"></stop>
        </linearGradient>
        <linearGradient x1="-112.829281%" y1="34.5221746%" x2="277.37977%" y2="34.5221746%" id="linearGradient-5">
            <stop stop-color="#FDC660" offset="11%"></stop>
            <stop stop-color="#FDAB4E" offset="36%"></stop>
            <stop stop-color="#FC8233" offset="78%"></stop>
            <stop stop-color="#FC7228" offset="100%"></stop>
        </linearGradient>
        <linearGradient x1="-659.900278%" y1="50.6014036%" x2="458.411071%" y2="50.6014036%" id="linearGradient-6">
            <stop stop-color="#FDC660" offset="11%"></stop>
            <stop stop-color="#FDAB4E" offset="36%"></stop>
            <stop stop-color="#FC8233" offset="78%"></stop>
            <stop stop-color="#FC7228" offset="100%"></stop>
        </linearGradient>
        <linearGradient x1="-263.150525%" y1="34.4762135%" x2="99.9913945%" y2="34.4762135%" id="linearGradient-7">
            <stop stop-color="#FDC660" offset="11%"></stop>
            <stop stop-color="#FDAB4E" offset="36%"></stop>
            <stop stop-color="#FC8233" offset="78%"></stop>
            <stop stop-color="#FC7228" offset="100%"></stop>
        </linearGradient>
    </defs>
    <g id="Yelo-Full-Logo" stroke="none" stroke-width="1" fill="none" fill-rule="evenodd">
        <g id="yelo_full" transform="translate(9.500000, 1.500000)" fill-rule="nonzero">
            <g id="Group" transform="translate(0.008056, 0.010387)">
                <path d="M24.0655549,33.9717385 C22.3049927,33.0398243 20.6451779,32.1507278 18.882097,31.2213323 C16.821811,33.991888 14.2804558,36.4602013 10.8852656,37.9966004 C12.5853794,40.4321708 14.2552689,42.8072926 15.9679761,45.2730872 L15.8596725,45.2730872 L15.8596725,45.3259797 L21.5418305,45.3259797 L21.5418305,45.3259797 L16.0762796,45.2881994 L21.5418305,45.2881994 C21.4604791,45.2696407 21.3872142,45.2255052 21.3327795,45.162265 C20.8290421,44.4469579 20.1112163,44.1950892 19.3178298,44.0414493 C19.1010459,43.9971449 18.9107662,43.8684796 18.7889056,43.6837957 C18.0861919,42.3287421 17.4187398,40.9585763 16.7386943,39.5909293 C18.0181873,38.6967954 19.3153111,37.8555539 20.539393,36.921121 C21.7634749,35.9866881 22.9119962,34.941433 24.0655549,33.9717385 Z" id="Path" fill="url(#linearGradient-1)"></path>
                <path d="M46.3660099,10.7343319 L46.5473553,10.5781734 C47.3583726,11.1020603 48.1744272,11.6259472 49.0660424,12.2027265 C48.3885156,11.1952517 47.7865494,10.1726647 47.0737609,9.24075054 C45.9404213,7.69380406 44.5127132,6.38592762 42.872591,5.39219675 C42.3581071,4.83649731 41.7639289,4.36030591 41.10951,3.97921333 L42.7542127,3.36969106 C41.76185,2.9163274 40.7896368,2.46044505 39.8048302,2.02471219 C38.8200235,1.58897933 37.8805533,1.19606415 36.9234522,0.790555543 L38.1827957,0.538686839 C38.1827957,0.417789862 38.1827957,0.286818136 38.2029452,0.173477219 C36.8504103,0.140734288 35.4323895,-0.171582904 34.173046,0.13065954 C31.7601438,0.70743887 29.0147749,0.772924733 27.5715672,3.4402143 C27.2894743,3.95654514 26.5640924,4.21596991 26.0805045,4.65170276 C25.859164,4.91055073 25.6775142,5.200851 25.5415055,5.51309373 C25.2644499,6.01683114 25.0755484,6.59361047 24.7027827,7.00163777 C24.2771246,7.46255749 23.6953079,7.75724388 23.1210473,8.17534592 C23.8086488,10.283487 25.151109,11.1977704 27.3776283,10.8930092 L26.2291071,11.5982416 C26.5968354,12.5578614 26.4104525,13.7794246 27.8662536,14.2378256 C28.3523602,13.0691548 28.7880931,11.8979654 29.3296108,10.7771496 C29.4908068,10.4446829 29.9441704,10.2532627 30.2640437,9.99383796 C30.3093802,10.4224985 30.3093802,10.8547452 30.2640437,11.2834057 C30.1542492,11.6083709 29.9832594,11.909313 29.7603063,12.1699836 C28.8166664,13.5278684 28.4216609,15.1924701 28.6546027,16.8295546 L28.6394905,16.8522228 C28.9669199,17.0763859 30.9466079,16.9025965 30.9466079,16.9025965 C29.029887,18.7941305 25.8613787,19.0384431 23.3653599,19.474176 C21.8768159,19.7260447 20.3958279,20.0433992 18.9349894,20.4287583 C16.0145337,21.1693444 13.2058152,22.2958811 10.5830232,23.7786121 C10.4027288,23.8905603 10.1880209,23.9335019 9.97853832,23.8995091 C8.00640637,23.2698373 6.93848307,22.1364281 7.01656237,19.8696098 C7.04426792,19.1140037 7.34399168,18.4541077 8.01144374,18.1493466 C8.82078995,17.7425893 9.68967369,17.4671311 10.5855419,17.333292 C12.6004915,17.1192036 14.6154411,17.1015728 16.6455029,16.9328207 C17.3951206,16.8849362 18.1310678,16.7094673 18.8216485,16.4139712 C19.871941,15.9354207 20.2547814,14.9858757 20.1666274,13.8499478 C20.0860294,12.8601038 19.5470304,12.182577 18.4463641,11.900484 C17.7235009,11.7166199 16.9553014,11.7141012 16.2122887,11.6007603 C15.9892479,11.5859099 15.7774797,11.4973039 15.6103225,11.3488916 C13.9127275,9.26845609 11.1900268,9.27349347 8.86779734,11.8274421 C9.24056302,12.1246472 9.60073526,12.4420018 9.98609438,12.71402 C12.081642,14.1849332 14.1872643,13.9003215 15.6078038,12.1473154 C15.7352218,12.0033204 15.9192947,11.9223283 16.1115412,11.9256709 C16.877168,12.0102684 17.6350581,12.1542676 18.3783596,12.3563664 C19.1109679,12.5244551 19.6121486,13.2008887 19.5596238,13.9506953 C19.5986571,14.7335787 19.1302674,15.4529278 18.3985091,15.7339257 C18.0131427,15.8930333 17.6013577,15.9784659 17.1845019,15.9857944 C15.4995003,15.9857944 13.81198,15.940458 12.121941,15.9555702 C11.1112368,15.9350483 10.100516,15.9956915 9.09951654,16.1369156 C7.38177199,16.4290833 5.93856432,17.2375819 5.42223348,19.023331 C4.85301021,20.9853882 5.32148599,23.481407 7.33139825,24.9296521 C7.59837907,25.123591 7.86284121,25.3200486 7.99129425,25.4157587 C7.48755684,26.5491678 6.92085226,27.5767921 6.57831082,28.6900518 C5.77351954,31.3268317 4.15477402,33.6412146 1.95400143,35.3016053 C1.50608527,35.621302 1.23313259,36.1318073 1.21602613,36.6818458 C1.03971804,38.7219823 0.734956907,40.7394506 0.00957504146,42.6738022 C-0.0214432384,42.8726263 0.0235158256,43.0758412 0.135509393,43.2430255 C0.510793761,43.9029215 0.913783686,44.5502241 1.38225947,45.3259797 L6.12242847,45.3259797 L6.12242847,45.2529377 C5.77736835,44.0263371 4.75981879,43.5326745 3.57603588,43.1347219 C3.93620813,41.5303183 4.29386168,39.9334707 4.64647787,38.3492166 C11.0766859,38.313955 15.2854119,34.6946017 18.7007515,29.9166524 C20.1263284,30.7377444 21.5141249,31.6041727 22.9648887,32.3522228 C24.4156524,33.1002728 26.0553176,33.4705198 27.8889218,33.6342345 C27.7226885,34.5611113 27.5463804,35.4426517 27.4154086,36.3317483 C27.3508197,36.6456866 27.3681681,36.9709684 27.4657824,37.2762559 C28.2365006,39.1300096 28.9089901,41.0139875 29.1583401,43.021381 C29.2036764,43.3689598 29.2893118,43.7946179 29.1381906,44.0641175 C28.8415913,44.5083935 28.4904314,44.9137082 28.0929355,45.2705685 L28.0929355,45.2705685 L28.0929355,45.3083488 L32.5459741,45.3083488 L32.5459741,45.2730872 L32.4754509,45.2730872 C32.7273196,44.7290508 33.0748984,44.2656124 33.1303095,43.761875 C33.1857206,43.2581376 32.9313332,42.7292133 32.8305858,42.2078451 C32.3444792,39.7521253 32.3646287,37.3467791 33.6189348,35.0900356 C33.7711229,34.8470233 33.9908004,34.6536021 34.2511253,34.5334057 C35.1125162,34.1228597 36.0142062,33.8055052 36.8630037,33.3748097 C40.2178948,31.6772146 43.2252072,29.5287746 45.3635724,26.3728597 C46.131772,25.2344132 46.7009953,23.9649949 47.4188211,22.6477216 C47.6207939,23.2430779 47.7889743,23.8493682 47.9225585,24.463695 C47.9910917,25.0783336 48.0230513,25.6965008 48.0182686,26.3149299 C50.9651324,20.7712998 50.1843394,15.6054727 46.3660099,10.7343319 Z" id="Path" fill="url(#linearGradient-2)"></path>
                <path d="M42.6761334,33.5712673 C43.4317395,32.430302 44.2477941,31.3245984 44.9681386,30.1634837 C45.7936291,28.8549402 46.4145022,27.4280361 46.8092988,25.9320895 C44.4064714,29.7756059 40.933202,32.3698536 36.9587138,34.3696911 C37.0267184,34.523331 37.0670174,34.6215598 37.109835,34.7021578 C38.3816155,37.226541 38.7274491,40.1171032 38.0870856,42.8702598 C38.0677561,43.0973402 38.1104103,43.3254098 38.2105013,43.5301558 C38.429627,44.1044164 38.6789771,44.6686023 38.9308458,45.2756059 L38.8351357,45.2756059 L38.8351357,45.3058302 L45.3283108,45.3058302 C45.059037,45.2561772 44.808313,45.1342974 44.602929,44.953214 C44.0085188,44.542668 43.459445,44.0490053 42.839848,43.6938705 C42.5350869,43.5225997 42.3134424,43.4142962 42.2958116,43.0415305 C42.2958116,42.8047739 42.2252884,42.570536 42.2026202,42.3362981 C41.9356394,39.633747 42.1421717,36.9387518 42.3738909,34.2487941 C42.4195936,34.0022132 42.5231811,33.7700045 42.6761334,33.5712673 Z" id="Path" fill="url(#linearGradient-3)"></path>
            </g>
            <path d="M72.0697108,32.7429314 C71.715392,32.8277074 71.3562319,32.8907917 70.9942314,32.931833 C70.5224377,32.9943778 70.0470931,33.0263479 69.5711732,33.0275431 C68.6039974,33.0275431 67.8760968,32.8638284 67.3925089,32.5238057 C66.908921,32.1837829 66.6646084,31.5163308 66.6646084,30.4534449 L66.6646084,26.1943451 C66.1373632,25.4135522 65.5689795,24.5496425 64.9594573,23.6026162 C64.349935,22.6555899 63.7496479,21.6867349 63.158596,20.6960513 C62.5692233,19.7070469 62.0218286,18.732315 61.5164121,17.7718557 C61.0576683,16.9157853 60.6456781,16.0354714 60.2822554,15.1347904 C60.5904807,14.7220672 60.971102,14.3687551 61.4055899,14.0920539 C61.932383,13.7607124 62.5467569,13.5957091 63.1686708,13.6185408 C63.8752136,13.5849528 64.5760064,13.760151 65.1836204,14.1222782 C65.6991117,14.4581031 66.1894161,15.089454 66.6545336,16.0163308 L69.2764868,21.3055736 L69.4653884,21.3055736 C69.7609143,20.6523941 70.0194995,20.0571444 70.241144,19.5198245 C70.4627884,18.9833442 70.6768768,18.4468638 70.8884465,17.9103835 C71.1000162,17.3739032 71.319142,16.8147546 71.5508612,16.2354566 C71.7825804,15.6561586 72.0545986,14.9761131 72.341729,14.220507 C72.7425061,14.0240685 73.1652694,13.8761013 73.6010725,13.7797368 C74.0361627,13.6771864 74.4814176,13.6239586 74.9284205,13.6210595 C75.6023796,13.6008017 76.2637596,13.8064856 76.8073611,14.2053949 C77.3245315,14.5949518 77.5822771,15.1826454 77.5806061,15.9684758 C77.5708127,16.2797895 77.5182678,16.5882792 77.4244394,16.8852779 C77.2293192,17.4476661 76.9857725,17.9920648 76.6965388,18.5123497 C76.3187358,19.2410898 75.7663038,20.2258964 75.0392428,21.4667696 C74.3121818,22.7076427 73.3223378,24.3246398 72.0697108,26.3177608 L72.0697108,32.7429314 Z" id="Path" fill="url(#linearGradient-4)"></path>
            <path d="M86.448895,33.3650471 C85.2750033,33.3756493 84.1068823,33.199666 82.988219,32.8436789 C81.9676284,32.5168677 81.0247512,31.9845707 80.2176633,31.2795743 C79.406244,30.556657 78.7690378,29.6594017 78.3538349,28.6551024 C77.8775087,27.4818589 77.646088,26.2236159 77.6737894,24.9576698 C77.6426133,23.7281734 77.8744697,22.5062044 78.3538349,21.3735782 C79.1481161,19.5124932 80.7173122,18.0923939 82.6481963,17.4872441 C83.5868315,17.1821902 84.5678002,17.0274794 85.5547611,17.028843 C86.5931741,17.0162017 87.6256851,17.1867237 88.6048911,17.5325804 C89.4751699,17.843174 90.2791995,18.3148258 90.9749756,18.9228957 C91.6353043,19.5108956 92.1625383,20.2330517 92.5214495,21.0411115 C92.8961052,21.8861379 93.0850628,22.8017233 93.0755606,23.7260318 C93.1160418,24.334187 92.8984274,24.9312552 92.4761131,25.3707345 C92.0059005,25.7793616 91.4209086,26.0327115 90.8011862,26.0961163 L82.9932564,27.2647871 C83.2270155,27.9628022 83.7434309,28.5304023 84.4163146,28.8288918 C85.1868357,29.1884578 86.029463,29.3668053 86.8795905,29.35026 C87.707027,29.3547991 88.5310423,29.2437435 89.3277543,29.020312 C89.9860656,28.844917 90.6185903,28.584117 91.2092135,28.2445564 C91.5577155,28.470035 91.8498243,28.7724839 92.0630484,29.1286155 C92.2877997,29.4892299 92.4081196,29.905118 92.4106272,30.3300292 C92.4326467,31.2383004 91.910238,32.0719734 91.0832792,32.448245 C90.3742253,32.8167164 89.6077057,33.0620026 88.8164608,33.1736269 C88.033073,33.2957353 87.2417244,33.3597166 86.448895,33.3650471 Z M85.5623172,20.9454014 C85.1126823,20.9338352 84.665874,21.0197599 84.2525999,21.1972701 C83.9092086,21.3460794 83.6017297,21.5668115 83.35091,21.8445726 C83.1219919,22.1030661 82.9449811,22.4032149 82.8295418,22.7286318 C82.7140517,23.053068 82.6453574,23.3922991 82.6255281,23.7361066 L88.0281118,22.8520474 C87.9298198,22.3713526 87.687322,21.9320449 87.3329542,21.5927039 C86.9333225,21.162848 86.3431102,20.9470805 85.5623172,20.9454014 Z" id="Shape" fill="url(#linearGradient-5)"></path>
            <path d="M101.140396,32.8260481 C100.908677,32.8680262 100.566136,32.925956 100.112772,32.9998375 C99.6580625,33.0734131 99.1981928,33.1104722 98.7375691,33.1106597 C98.3201075,33.1146175 97.9030532,33.0834438 97.490819,33.0174683 C97.154576,32.965812 96.8352779,32.8355039 96.5589048,32.6371466 C96.2973089,32.4374595 96.0952532,32.1700841 95.9745694,31.8639097 C95.8223923,31.4551072 95.7522129,31.0203374 95.768037,30.5844166 L95.768037,12.2559311 L96.7956614,12.0821417 C97.2503711,12.0085661 97.7102407,11.971507 98.1708645,11.9713195 C98.5883997,11.9681108 99.0054616,12.0001277 99.4176146,12.0670296 C99.7544573,12.1165042 100.074254,12.2470156 100.349529,12.4473513 C100.611678,12.646487 100.813862,12.9140319 100.933864,13.2205882 C101.086041,13.6293907 101.156221,14.0641605 101.140396,14.5000812 L101.140396,32.8260481 Z" id="Path" fill="url(#linearGradient-6)"></path>
            <path d="M120.41339,25.1868703 C120.43401,26.3786002 120.230671,27.5636054 119.813942,28.6802892 C119.445535,29.6515474 118.868643,30.5302125 118.123903,31.2543874 C117.37759,31.9607655 116.488735,32.499231 115.517062,32.8336042 C114.429288,33.204458 113.286151,33.3867466 112.136984,33.3726032 C110.984433,33.3873356 109.838638,33.1945213 108.754387,32.8033799 C107.782237,32.447203 106.894576,31.8931654 106.147546,31.1763081 C105.406536,30.4480836 104.830243,29.5694723 104.457507,28.5996913 C104.043228,27.5103496 103.839801,26.3521854 103.85806,25.1868703 C103.841752,24.0323609 104.045183,22.885285 104.457507,21.8067923 C104.830909,20.8380906 105.407138,19.9604354 106.147546,19.2326942 C106.893799,18.5142324 107.781632,17.9592296 108.754387,17.6031037 C109.838796,17.2128198 110.984586,17.0208594 112.136984,17.0363991 C113.290127,17.0203554 114.436231,17.2184896 115.517062,17.6207345 C116.488146,17.986159 117.374984,18.5448245 118.123903,19.2629184 C118.864913,19.9911429 119.441207,20.8697542 119.813942,21.8395353 C120.224491,22.9071285 120.427932,24.0431509 120.41339,25.1868703 L120.41339,25.1868703 Z M109.346279,25.1868703 C109.346279,26.4730798 109.59311,27.4578865 110.086773,28.1412902 C110.557261,28.8135905 111.337173,29.2007001 112.157134,29.1689145 C112.972586,29.2044685 113.746601,28.8083716 114.194751,28.1261781 C114.668265,27.4310205 114.905861,26.4512512 114.907548,25.1868703 C114.909219,23.9224894 114.666585,22.9485971 114.179639,22.2651934 C113.694988,21.6183304 112.933931,21.2375685 112.12565,21.2375685 C111.317369,21.2375685 110.556312,21.6183304 110.071661,22.2651934 C109.588073,22.9452389 109.346279,23.9191312 109.346279,25.1868703 Z" id="Shape" fill="url(#linearGradient-7)"></path>
        </g>
    </g>
</svg>