<svg xmlns="http://www.w3.org/2000/svg" xmlns:xlink="http://www.w3.org/1999/xlink" width="25" height="25" viewBox="0 0 25 25">
    <defs>
        <path id="a" d="M.003 0h24.996v25H.003z"/>
    </defs>
    <g fill="none" fill-rule="evenodd">
        <mask id="b" fill="#fff">
            <use xlink:href="#a"/>
        </mask>
        <path fill="#2496FF" d="M24.92 11.856a1.043 1.043 0 0 0-.226-1.135L21.57 7.597a1.042 1.042 0 0 0-1.473 1.473l1.347 1.346h-5.819a1.041 1.041 0 1 0 0 2.084h5.819l-1.347 1.347a1.04 1.04 0 1 0 1.473 1.473l3.124-3.124c.097-.096.173-.212.226-.34" mask="url(#b)"/>
        <path fill="#2496FF" d="M17.708 14.583c-.576 0-1.041.467-1.041 1.042v5.208H12.5V4.167c0-.46-.302-.866-.743-.998L8.14 2.083h8.527v5.209a1.041 1.041 0 1 0 2.083 0v-6.25C18.75.467 18.284 0 17.708 0H1.042C1.004 0 .97.016.934.02a1.052 1.052 0 0 0-.441.154C.47.189.442.19.42.206.41.213.408.224.4.23.286.32.192.43.123.56.108.586.105.617.093.646.06.726.025.803.012.89.006.92.016.95.015.98c-.001.021-.015.04-.015.06v20.834c0 .497.351.924.838 1.02l10.416 2.084a1.04 1.04 0 0 0 1.246-1.02v-1.042h5.208c.576 0 1.042-.467 1.042-1.042v-6.25c0-.575-.466-1.042-1.042-1.042" mask="url(#b)"/>
    </g>
</svg>
