<svg width="24" height="24" viewBox="0 0 24 24" fill="none" xmlns="http://www.w3.org/2000/svg">
<path fill-rule="evenodd" clip-rule="evenodd" d="M11.0366 7.33325H2.66667C1.75 7.33325 1.00833 8.08325 1.00833 8.99992L1 18.9999C1 19.9166 1.75 20.6666 2.66667 20.6666H16C16.9167 20.6666 17.6667 19.9166 17.6667 18.9999V13.9634C17.4478 13.9876 17.2253 14 17 14C15.4853 14 14.1018 13.4388 13.0459 12.5129L9.33333 14.8333L2.66667 10.6666V8.99992L9.33333 13.1666L12.0872 11.4454C11.4022 10.4704 11 9.28215 11 8C11 7.77463 11.0124 7.55217 11.0366 7.33325Z" fill="#377DFF"/>
<path d="M22 8C22 8.65661 21.8707 9.30679 21.6194 9.91342C21.3681 10.52 20.9998 11.0712 20.5355 11.5355C20.0712 11.9998 19.52 12.3681 18.9134 12.6194C18.3068 12.8707 17.6566 13 17 13C16.3434 13 15.6932 12.8707 15.0866 12.6194C14.48 12.3681 13.9288 11.9998 13.4645 11.5355C13.0002 11.0712 12.6319 10.52 12.3806 9.91342C12.1293 9.30679 12 8.65661 12 8C12 6.67392 12.5268 5.40215 13.4645 4.46447C14.4021 3.52678 15.6739 3 17 3C18.3261 3 19.5979 3.52678 20.5355 4.46447C21.4732 5.40215 22 6.67392 22 8ZM19.6156 5.94C19.5639 5.88826 19.5026 5.84722 19.4351 5.81921C19.3677 5.7912 19.2953 5.77678 19.2222 5.77678C19.1491 5.77678 19.0768 5.7912 19.0093 5.81921C18.9418 5.84722 18.8805 5.88826 18.8289 5.94L15.8889 8.88111L15.1711 8.16222C15.1195 8.11057 15.0581 8.06959 14.9906 8.04164C14.9232 8.01369 14.8508 7.9993 14.7778 7.9993C14.7047 7.9993 14.6324 8.01369 14.5649 8.04164C14.4974 8.06959 14.4361 8.11057 14.3844 8.16222C14.3328 8.21388 14.2918 8.2752 14.2639 8.34268C14.2359 8.41017 14.2215 8.48251 14.2215 8.55556C14.2215 8.6286 14.2359 8.70094 14.2639 8.76843C14.2918 8.83591 14.3328 8.89724 14.3844 8.94889L15.4956 10.06C15.5472 10.1117 15.6085 10.1528 15.676 10.1808C15.7435 10.2088 15.8158 10.2232 15.8889 10.2232C15.962 10.2232 16.0343 10.2088 16.1018 10.1808C16.1693 10.1528 16.2306 10.1117 16.2822 10.06L19.6156 6.72667C19.6673 6.67506 19.7083 6.61375 19.7363 6.54626C19.7644 6.47877 19.7788 6.40641 19.7788 6.33333C19.7788 6.26026 19.7644 6.1879 19.7363 6.12041C19.7083 6.05291 19.6673 5.99161 19.6156 5.94Z" fill="#00AA25"/>
</svg>
