<svg width="24" height="24" viewBox="0 0 24 24" fill="none" xmlns="http://www.w3.org/2000/svg">
<path fill-rule="evenodd" clip-rule="evenodd" d="M11.0366 7.33325H2.66667C1.75 7.33325 1.00833 8.08325 1.00833 8.99992L1 18.9999C1 19.9166 1.75 20.6666 2.66667 20.6666H16C16.9167 20.6666 17.6667 19.9166 17.6667 18.9999V13.9634C17.4478 13.9876 17.2253 14 17 14C15.4853 14 14.1018 13.4388 13.0459 12.5129L9.33333 14.8333L2.66667 10.6666V8.99992L9.33333 13.1666L12.0872 11.4454C11.4022 10.4704 11 9.28215 11 8C11 7.77463 11.0124 7.55217 11.0366 7.33325Z" fill="#377DFF"/>
<path fill-rule="evenodd" clip-rule="evenodd" d="M21.6996 9.97106C21.953 9.35937 22.0834 8.70377 22.0834 8.04169C22.0834 6.70455 21.5522 5.42218 20.6067 4.47668C19.6612 3.53118 18.3788 3 17.0417 3C15.7045 3 14.4222 3.53118 13.4767 4.47668C12.5312 5.42218 12 6.70455 12 8.04169C12 8.70377 12.1304 9.35937 12.3838 9.97106C12.6371 10.5827 13.0085 11.1385 13.4767 11.6067C13.9448 12.0749 14.5006 12.4462 15.1123 12.6996C15.724 12.953 16.3796 13.0834 17.0417 13.0834C17.7038 13.0834 18.3594 12.953 18.9711 12.6996C19.5827 12.4462 20.1385 12.0749 20.6067 11.6067C21.0749 11.1385 21.4462 10.5827 21.6996 9.97106ZM17.8143 9.41538L18 4H16L16.1858 9.41538H17.8143ZM16.2893 11.6885C16.4869 11.8962 16.7238 12 17 12C17.1762 12 17.3393 11.9526 17.4893 11.8577C17.6393 11.7603 17.7607 11.6308 17.8536 11.4692C17.9488 11.3051 17.9976 11.1231 18 10.9231C17.9976 10.6308 17.8952 10.3808 17.6929 10.1731C17.4929 9.96538 17.2619 9.86154 17 9.86154C16.7238 9.86154 16.4869 9.96538 16.2893 10.1731C16.0941 10.3808 15.9977 10.6308 16 10.9231C15.9977 11.2231 16.0941 11.4782 16.2893 11.6885Z" fill="#E4C000"/>
</svg>
