<svg width="21" height="16" viewBox="0 0 21 16" fill="none" xmlns="http://www.w3.org/2000/svg">
<path d="M1.55518 11.499L4.14169 11.2233L4.4836 14.4307C4.55974 15.1449 4.04245 15.7857 3.32821 15.8618V15.8618C2.61396 15.938 1.97323 15.4207 1.89709 14.7064L1.55518 11.499Z" fill="#BDBFC4"/>
<path d="M0 4.44824C0 3.34367 0.895431 2.44824 2 2.44824H3.87768V10.5819H2C0.895431 10.5819 0 9.68648 0 8.58191L0 4.44824Z" fill="#BDBFC4"/>
<rect x="19.7983" y="1.78711" width="0.945775" height="3.20543" rx="0.472888" transform="rotate(63.5176 19.7983 1.78711)" fill="#BDBFC4"/>
<rect x="20.3242" y="6.04199" width="0.945775" height="3.20543" rx="0.472888" transform="rotate(90 20.3242 6.04199)" fill="#BDBFC4"/>
<rect width="0.945775" height="3.20543" rx="0.472888" transform="matrix(0.445924 -0.895071 -0.895071 -0.445924 19.7983 11.25)" fill="#BDBFC4"/>
<rect x="4.91797" y="2.44824" width="10.1198" height="7.84993" fill="#BDBFC4"/>
<path fill-rule="evenodd" clip-rule="evenodd" d="M7.31982 2.44853H15.0377C15.0377 1.47824 14.6202 0.605463 13.9551 0C12.0189 1.30798 9.75857 2.17269 7.31982 2.44853Z" fill="#BDBFC4"/>
<path fill-rule="evenodd" clip-rule="evenodd" d="M7.31982 10.3005H15.0377C15.0377 11.2708 14.6202 12.1436 13.9551 12.749C12.0189 11.441 9.75857 10.5763 7.31982 10.3005Z" fill="#BDBFC4"/>
</svg>
