<svg width="24" height="24" viewBox="0 0 24 24" fill="none" xmlns="http://www.w3.org/2000/svg">
<path d="M4.8718 8.92061L6.70373 15.8185L10.6455 14.7717L8.65663 7.28275L4.71484 8.32959L4.8718 8.92061ZM6.51306 9.53964L7.69552 9.22561C7.80433 9.19671 7.91604 9.26153 7.94494 9.37035C7.97384 9.47917 7.90902 9.59087 7.8002 9.61977L6.61774 9.9338C6.50892 9.9627 6.39721 9.89788 6.36831 9.78906C6.33942 9.68024 6.40424 9.56854 6.51306 9.53964V9.53964ZM7.03646 11.5105L8.21892 11.1964C8.32774 11.1675 8.43944 11.2323 8.46834 11.3412C8.49724 11.45 8.43242 11.5617 8.3236 11.5906L7.14114 11.9046C7.03232 11.9335 6.92062 11.8687 6.89172 11.7599C6.86282 11.6511 6.92764 11.5394 7.03646 11.5105V11.5105ZM7.55986 13.4813L8.74232 13.1672C8.85114 13.1383 8.96285 13.2032 8.99175 13.312C9.02065 13.4208 8.95582 13.5325 8.847 13.5614L7.66454 13.8754C7.55573 13.9043 7.44402 13.8395 7.41512 13.7307C7.38622 13.6219 7.45104 13.5102 7.55986 13.4813V13.4813Z" fill="#4F4F4F"/>
<path d="M7.63477 15.9932L10.1489 21.414C10.3076 21.756 10.6871 21.9341 11.0514 21.8373L11.8882 21.6151C12.1103 21.5561 12.2938 21.4029 12.3913 21.1948C12.4889 20.9867 12.4894 20.7477 12.3928 20.5394L9.9936 15.3669L7.63477 15.9932Z" fill="#4F4F4F"/>
<path d="M2.48001 11.0334L3.31745 14.1867C3.49062 14.8387 4.16192 15.2283 4.81394 15.0551L5.99641 14.7411L4.53094 9.22301L3.34848 9.53704C2.69642 9.71021 2.30689 10.3815 2.48005 11.0335L2.48001 11.0334Z" fill="#4F4F4F"/>
<path d="M12.0752 17.7684C12.4012 17.6818 12.596 17.3461 12.5094 17.0201C12.4228 16.6941 12.0872 16.4993 11.7612 16.5859L11.0918 16.7637L11.6145 17.8907L12.0752 17.7684Z" fill="#4F4F4F"/>
<path d="M16.9776 1.27541C16.4342 1.41972 16.1096 1.97915 16.2539 2.52252L19.6036 15.1357C19.7479 15.679 20.3074 16.0037 20.8507 15.8594C21.3941 15.7151 21.7188 15.1556 21.5745 14.6122L18.2247 1.99912C18.0804 1.45574 17.521 1.1311 16.9776 1.27541Z" fill="#4F4F4F"/>
<path d="M10.9495 14.3302L19.1346 14.9625L15.9323 2.90467L9.13947 7.51471L10.9495 14.3302Z" fill="#4F4F4F"/>
</svg>
