<svg width="503" height="336" viewBox="0 0 503 336" fill="none" xmlns="http://www.w3.org/2000/svg">
    <path d="m99.362 177.347-.343 1.642 89.165 18.61.342-1.642-89.164-18.61z" fill="url(#9yxox4lwoa)"/>
    <path d="m175.789 81.412 18.922 22.376-1.296 1.066-18.275-22.91.649-.532z" fill="url(#npe9mpxx0b)"/>
    <path d="m367.387 97.86-63.776 37.921.857 1.441 63.776-37.92-.857-1.441z" fill="url(#yc2j7wu1uc)"/>
    <path d="m299.336 194.202 123.44 1.988-.012.839-123.448-1.15.02-1.677z" fill="url(#blq3t85b8d)"/>
    <path d="M348.426 46.228 183.383 61.684l-.079-.836L348.263 44.56l.163 1.668z" fill="url(#1cxwh570qe)"/>
    <path d="M154.534 70.135 93.82 130.038l-1.157-1.215 61.294-59.298.577.609z" fill="url(#hxpdh1xx3f)"/>
    <path d="m413.333 106.201 16.372 61.025-.284.706-16.656-60.319.568-1.412z" fill="url(#6eld4x3c7g)"/>
    <path fill-rule="evenodd" clip-rule="evenodd" d="m.335 320.325 79.764-6.85 352.062 1.722 53.395 6.896L.335 320.325z" fill="#922A88" style="mix-blend-mode:multiply" opacity=".3"/>
    <path fill-rule="evenodd" clip-rule="evenodd" d="m21.015 295.442 82.516-15.683 84.431 23.542 36.929-24.436 9.179 24.436 95.052-28.088c38.663 17.589 67.955 25.925 103.53 27.257l31.584-3.146-52.446-12.605-58.689-25.373-40.527-17.838-67.54 16.93-4.834-13.897-24.216 21.973-56.363-18.185-56.087 15.15-82.517 29.963h-.002z" fill="url(#dzclll2kwh)"/>
    <path fill-rule="evenodd" clip-rule="evenodd" d="m329.122 275.213-16.548-31.705 101.228 44.112 18.85 14.85c-36.9-1.687-63.624-9.301-103.53-27.257zM245.034 260.438l-10.964 42.863-9.179-24.439 15.309-32.321 4.834 13.897zM215.984 268.514l-28.022 34.787-84.431-23.542 56.088-29.43 56.365 18.185z" fill="#AEA1CF" style="mix-blend-mode:multiply" opacity=".63"/>
    <path fill-rule="evenodd" clip-rule="evenodd" d="m464.233 299.324-1.499 2.7-31.814 2.573c-39.253-4.447-64.304-10.964-102.814-26.367l-95.052 27.057-8.164-24.307-36.931 24.005-84.426-23.255c-33.103 3.527-51.011 7.507-80.732 16.806l-1.784-3.094c31.605-8.055 50.633-12.116 82.516-15.684l84.431 23.543 36.929-24.436 9.179 24.436 95.052-28.088c34.945 15.037 57.784 24.672 103.53 27.257l31.584-3.146h-.005z" fill="#9E89B1"/>
    <g style="mix-blend-mode:multiply" opacity=".3" fill-rule="evenodd" clip-rule="evenodd" fill="#D1B5CF">
        <path d="m114.073 278.23 16.131-5.202 16.39 5.202-5.059 7.875-27.462-7.875zM64.73 279.567l46.423-8.338-16.603 8.338-62.073 11.714 32.252-11.714zM115.621 262.213l-12.09 5.564 29.673-5.564 9.321-7.267-26.904 7.267zM157.666 251.354l-11.072 5.808-1.389 6.414 27.002 7.653 13.216-11.153-27.757-8.722zM189.21 261.267l-12.564 11.761 19.815 5.202 7.249-1.416 6.048-9.038-20.548-6.509zM161.896 291.947l12.124-13.717 19.183 4.852 5.105 7.375 13.45-9.203-2.771 6.033-18.486 12.864-28.605-8.204z"/>
        <path d="m197.033 279.567 4.199 6.538 5.776-7.875-9.975 1.337zM205.209 283.231l13.163-8.753 6.518-14.045-9.706 8.995-9.975 13.803zM211.758 285.358l2-5.791 11.927-7.734-1.65 4.981-12.277 8.544zM228.513 257.481l-4.516 10.296 8.583-5.147 7.237-15.281-11.304 10.132zM232.771 264.777l-1.912 12.84 8.957 3.21 4.202-16.422-3.735-15.743-7.512 16.115zM235.248 298.085l-4.389-15.918 8.325 1.135-3.936 14.783zM237.438 299.02l3.097-15.789 13.276-1.977 9.711 4.104 14.214.748-40.298 12.914zM281.749 284.821l-14.696-1.591 3.071-3.663 17.101-3.649 10.916 3.649-16.392 5.254zM266.073 282.167l-5.768-.913 7.648-2.66-1.88 3.573zM241.429 280.382l11.256-.815 2.59-8.338-11.908 1.799-1.938 7.354zM257.588 268.96l10.938-13.786-20.403 6.189-2.512 2.626-1.593 7.24 13.57-2.269zM145.205 287.16l4.501-8.93 23.89-1.416-11.699 12.375-5.191.937-11.501-2.966zM130.334 271.229l17.832 5.585 23.967-1.6-35.779-8.973h-6.02l-14.713 8.237 14.713-3.249zM78.747 274.478l20.033-3.699 4.751-5.3-24.784 8.999zM256.273 278.594l1.316-7.068 15.486-3.421-6.022 7.701-10.78 2.788zM259.66 269.748l11.163-15.161L287 251.354l-12.938 14.887-14.402 3.507z"/>
        <path d="m267.953 278.594 7.908-10.489 10.013 6.373-14.062 3.752-3.859.364zM277.736 266.241l6.72-6.752 31.308-4.315 9.029 15.851-22.477 7.205-24.58-11.989zM285.874 257.563l4.583-7.989 18.797-4.801 4.525 1.049 3.598 6.891-31.503 4.85zM319.665 253.674l40.503 18.159 6.448 7.734-2.398.803-36.111-9.532-8.442-17.164zM317.377 245.602l1.837 5.566 8.892 4.907 29.51 12.902 3.344-4.231-43.583-19.144zM367.974 267.776l-5.258 1.201 47.006 24.014 18.129.643-59.877-25.858zM366.616 281.292l12.301-1.773 23.643 11.529-35.944-9.756z"/>
    </g>
    <path style="mix-blend-mode:hard-light" fill-rule="evenodd" clip-rule="evenodd" d="m68.414 278.23 45.66-9.177 20.256-5.402 11.702 2.59 33.189 10.573 17.24 4.44 3.46 6.366 21.714-14.592 1.237-3.28 8.36-4.269-1.723 13.115 9.966 3.572 14.674-1.796 2.125-9.141 18.352-3.453 17.664 9.079 4.053-1.05-21.21-9.349-19.408 3.891-2.251 9.452-13.163 1.455-9.843-3.705 1.842-14.346-10.037 6.15-1.239 3.582-19.801 13.17-3.684-5.735-16.747-4.452-34.827-11.592-9.843-1.799-62.695 13.88-5.023 1.823z" fill="url(#42kubma2li)"/>
    <path fill-rule="evenodd" clip-rule="evenodd" d="M299.358 275.304c.178.947-1.983 2.145-4.822 2.674-2.841.53-5.287.192-5.461-.754-.178-.947 1.983-2.145 4.822-2.674 2.841-.53 5.287-.192 5.461.754z" fill="#F94852"/>
    <path opacity=".5" fill-rule="evenodd" clip-rule="evenodd" d="M304.787 274.291c.364 1.945-4.075 4.408-9.913 5.496-5.837 1.09-10.865.396-11.227-1.552-.364-1.946 4.075-4.409 9.912-5.497 5.838-1.09 10.866-.395 11.228 1.553z" fill="#F94852"/>
    <path fill-rule="evenodd" clip-rule="evenodd" d="m155.034 252.735-1.746 5.846 56.011 18.233 27.95-21.64 5.601 13.803 75.812-13.803 13.814 3.987 3.704-5.157-23.608-10.496-67.537 16.93-4.835-13.897-24.215 21.973-56.366-18.185-4.585 2.406zM55.759 282.825l29.797-1.559 43.03-17.069-37.446 5.781-35.381 12.847zM441.123 294.242l-13.271 4.777-18.527-.934-44.709-16.367 38.838 2.787 37.669 9.737z" fill="#8D3C67" style="mix-blend-mode:multiply" opacity=".5"/>
    <path d="M356.946 269.485c3.479 0 6.3-.765 6.3-1.709 0-.943-2.821-1.708-6.3-1.708-3.48 0-6.3.765-6.3 1.708 0 .944 2.82 1.709 6.3 1.709z" fill="#8D3C67" style="mix-blend-mode:multiply" opacity=".5"/>
    <path fill-rule="evenodd" clip-rule="evenodd" d="M50.076 286.762c.113.458-2.536 1.5-5.914 2.329-3.38.827-6.209 1.126-6.322.668-.112-.457 2.537-1.499 5.915-2.328 3.38-.827 6.209-1.126 6.321-.669z" fill="#8D3C67" style="mix-blend-mode:multiply" opacity=".5"/>
    <path fill-rule="evenodd" clip-rule="evenodd" d="m183.287 232.312-31.649 7.065 182.69-4.784-29.158-7.093-121.883 4.812z" fill="url(#3gz0yghbij)"/>
    <path fill-rule="evenodd" clip-rule="evenodd" d="m151.638 239.377 2.486 3.524 177.045-2.944 3.159-5.365-182.69 4.785z" fill="url(#kkxr604a0k)"/>
    <path fill-rule="evenodd" clip-rule="evenodd" d="m306.203 240.374 2.312-5.027 12.336-.359-2.338 5.024-12.31.362z" fill="#540041" style="mix-blend-mode:multiply" opacity=".3"/>
    <path fill-rule="evenodd" clip-rule="evenodd" d="m176.797 103.831 2.946 41.723 124.471 1.68 2.293-43.803-129.71.4z" fill="url(#jb4rwbufyl)"/>
    <path fill-rule="evenodd" clip-rule="evenodd" d="m176.797 103.831 3.121 24.005 125.183-2.504-.611 16.638-125.025-.367-2.668-37.772z" fill="#B01734" style="mix-blend-mode:multiply" opacity=".2"/>
    <path fill-rule="evenodd" clip-rule="evenodd" d="m185.647 227.903-3.687-86.642 119.795-.381-3.924 87.467-112.184-.444z" fill="url(#q266h8pcjm)"/>
    <path fill-rule="evenodd" clip-rule="evenodd" d="m182.91 227.01.436 4.135h115.792l.302-4.478-45.051 1.236-71.479-.893z" fill="url(#lxxhebem1n)"/>
    <path fill-rule="evenodd" clip-rule="evenodd" d="m186.71 219.376 14.703-.573-.009 5.159h-14.677l-.017-4.586zM247.014 214.529l14.705-.572-.012 5.16H247.03l-.016-4.588zM211.148 224.659l14.704-.57-.007 3.457-14.687-.184-.01-2.703zM279.716 189.788l14.703-.572-.012 5.161h-14.674l-.017-4.589zM255.272 166.656l14.704-.573-.012 5.161h-14.677l-.015-4.588zM191.448 214.215l14.706-.572-.012 5.16h-14.677l-.017-4.588z" fill="#FF9F57" style="mix-blend-mode:soft-light"/>
    <path fill-rule="evenodd" clip-rule="evenodd" d="m189.975 196.916 14.703-.572-.012 5.161h-14.677l-.014-4.589zM238.938 220.049l13.094-.51-.009 4.593h-13.07l-.015-4.083zM194.936 165.831l13.093-.51-.009 4.595h-13.07l-.014-4.085zM247.82 172.662l13.092-.51-.01 4.595h-13.067l-.015-4.085zM285.873 195.563l13.453-.522-.369 4.607h-13.07l-.014-4.085zM261.719 172.434l13.45-.524-.369 4.609h-13.067l-.014-4.085z" fill="#811734" style="mix-blend-mode:multiply" opacity=".2"/>
    <path fill-rule="evenodd" clip-rule="evenodd" d="m186.969 191.796 16.128.163v4.236l-16.128.149v-4.548z" fill="#FFBF57" style="mix-blend-mode:soft-light"/>
    <path fill-rule="evenodd" clip-rule="evenodd" d="m190.349 173.767-12.181-24.71h3.79l10.068 24.71s-.901 1.011-1.679 0h.002z" fill="url(#tudk19rplo)"/>
    <path fill-rule="evenodd" clip-rule="evenodd" d="m291.866 173.767 12.181-24.71h-3.789l-10.069 24.71s.901 1.011 1.68 0h-.003z" fill="url(#89xt71yuap)"/>
    <path fill-rule="evenodd" clip-rule="evenodd" d="m196.922 219.038-1.026-47.969h48.202l-1.114 47.409-46.062.56z" fill="#FFD1B3"/>
    <path fill-rule="evenodd" clip-rule="evenodd" d="m198.888 216.537 41.842-.438.968-42.651-43.406.019.596 43.07z" fill="url(#r7uewjob8q)"/>
    <path fill-rule="evenodd" clip-rule="evenodd" d="M244.098 171.069h.788l-.788 47.409h-1.114l1.114-47.409zM198.888 216.537l-.596-43.07 1.044-.019v43.089h-.448z" fill="#FF8D90"/>
    <path fill-rule="evenodd" clip-rule="evenodd" d="m254.367 230.891.357-49.979 32.344.436-2.41 49.797-30.291-.254z" fill="#FFD1B3"/>
    <path fill-rule="evenodd" clip-rule="evenodd" d="m256.616 231.145.863-47.497h27.095l-2.113 47.497h-25.845z" fill="url(#eknmfe0cfr)"/>
    <path fill-rule="evenodd" clip-rule="evenodd" d="M284.574 183.648h-1.159l-1.876 47.488.922.009 2.113-47.497z" fill="#FF8D90"/>
    <path fill-rule="evenodd" clip-rule="evenodd" d="M259.714 221.554v-35.541h21.847l-1.881 35.541h-19.966z" fill="url(#izj7rlk2fs)"/>
    <path fill-rule="evenodd" clip-rule="evenodd" d="m300.01 179.749 1.167-26.027-118.547 3.314.822 19.318 116.558 3.395z" fill="#811734" style="mix-blend-mode:multiply" opacity=".5"/>
    <path fill-rule="evenodd" clip-rule="evenodd" d="m184.264 137.931-.917-5.252h116.609l-1.473 4.586-114.219.666z" fill="url(#osnqw0dxat)"/>
    <path fill-rule="evenodd" clip-rule="evenodd" d="M179.169 164.169c-3.447 0-6.511-2.861-6.842-6.388l-.936-9.998h12.775l.761 9.998c.269 3.529-2.309 6.388-5.756 6.388h-.002z" fill="url(#1a4bgopttu)"/>
    <path fill-rule="evenodd" clip-rule="evenodd" d="M191.657 164.169c-3.447 0-6.461-2.861-6.729-6.388l-.762-9.998h12.775l.585 9.998c.206 3.529-2.422 6.388-5.869 6.388z" fill="url(#rt387vkxov)"/>
    <path fill-rule="evenodd" clip-rule="evenodd" d="M204.141 164.169c-3.447 0-6.41-2.861-6.616-6.388l-.585-9.998h12.775l.41 9.998c.144 3.529-2.534 6.388-5.981 6.388h-.003z" fill="url(#sl7t1i19xw)"/>
    <path fill-rule="evenodd" clip-rule="evenodd" d="M216.629 164.169c-3.447 0-6.36-2.861-6.504-6.388l-.409-9.998h12.775l.232 9.998c.082 3.529-2.647 6.388-6.094 6.388z" fill="url(#8nhy5ztlox)"/>
    <path fill-rule="evenodd" clip-rule="evenodd" d="M229.115 164.169c-3.447 0-6.31-2.861-6.391-6.388l-.233-9.998h12.775l.058 9.998c.019 3.529-2.76 6.388-6.207 6.388h-.002z" fill="url(#st64pftmvy)"/>
    <path fill-rule="evenodd" clip-rule="evenodd" d="M241.6 164.169c-3.447 0-6.26-2.861-6.279-6.388l-.057-9.998h12.775l-.12 9.998c-.043 3.529-2.872 6.388-6.319 6.388z" fill="url(#88mjjntijz)"/>
    <path fill-rule="evenodd" clip-rule="evenodd" d="M254.087 164.169c-3.447 0-6.209-2.861-6.166-6.388l.12-9.998h12.775l-.294 9.998c-.103 3.529-2.985 6.388-6.432 6.388h-.003z" fill="url(#qksmu01ppA)"/>
    <path fill-rule="evenodd" clip-rule="evenodd" d="M266.572 164.169c-3.447 0-6.159-2.861-6.053-6.388l.294-9.998h12.775l-.472 9.998c-.165 3.529-3.097 6.388-6.544 6.388z" fill="url(#76prihvxjB)"/>
    <path fill-rule="evenodd" clip-rule="evenodd" d="M279.06 164.169c-3.447 0-6.109-2.861-5.941-6.388l.472-9.998h12.775l-.647 9.998c-.228 3.529-3.21 6.388-6.657 6.388h-.002z" fill="url(#h88c026qtC)"/>
    <path fill-rule="evenodd" clip-rule="evenodd" d="M291.545 164.169c-3.447 0-6.059-2.861-5.831-6.388l.647-9.998h12.775l-.824 9.998c-.29 3.529-3.32 6.388-6.77 6.388h.003z" fill="url(#pq9bxsvp9D)"/>
    <path fill-rule="evenodd" clip-rule="evenodd" d="M304.03 164.169c-3.447 0-6.007-2.861-5.718-6.388l.824-9.998h12.775l-.998 9.998c-.353 3.529-3.433 6.388-6.883 6.388z" fill="url(#6w9ioye2fE)"/>
    <path fill-rule="evenodd" clip-rule="evenodd" d="m184.264 137.931-12.873 9.852c51.998 2.954 87.211 3.079 140.52 0l-13.429-10.518-114.218.666z" fill="url(#swbt4va0lF)"/>
    <path fill-rule="evenodd" clip-rule="evenodd" d="m184.219 148.471 9.366-10.552 7.898-.089-4.542 11.225-12.722-.584z" fill="url(#j6yjaa15bG)"/>
    <path fill-rule="evenodd" clip-rule="evenodd" d="m184.219 148.471 9.366-10.552 7.898-.089-4.542 11.225-12.722-.584z" fill="url(#a2s0a9cc4H)"/>
    <path fill-rule="evenodd" clip-rule="evenodd" d="m209.785 149.527 2.674-11.771 10.93-.053-1.085 12.145-12.519-.321z" fill="url(#yo634n69iI)"/>
    <path fill-rule="evenodd" clip-rule="evenodd" d="m209.785 149.527 2.674-11.771 10.93-.053-1.085 12.145-12.519-.321z" fill="url(#p47mpqxjkJ)"/>
    <path fill-rule="evenodd" clip-rule="evenodd" d="m235.338 150.044-.4-12.274 11.874-.055 1.107 12.329h-12.581z" fill="url(#5zelr1az1K)"/>
    <path fill-rule="evenodd" clip-rule="evenodd" d="m235.338 150.044-.4-12.274 11.874-.055 1.107 12.329h-12.581z" fill="url(#09cnsfjmgL)"/>
    <path fill-rule="evenodd" clip-rule="evenodd" d="m260.751 149.86-3.052-12.358 10.653-.063 5.251 12.095-12.852.326z" fill="url(#ge7vm4bmyM)"/>
    <path fill-rule="evenodd" clip-rule="evenodd" d="m260.751 149.86-3.052-12.358 10.653-.063 5.251 12.095-12.852.326z" fill="url(#n4jgpmi66N)"/>
    <path fill-rule="evenodd" clip-rule="evenodd" d="m286.363 149.067-5.066-11.702 9.258-.1 8.526 11.215-12.718.587z" fill="url(#uxbwzv2nuO)"/>
    <path fill-rule="evenodd" clip-rule="evenodd" d="m286.363 149.067-5.066-11.702 9.258-.1 8.526 11.215-12.718.587z" fill="url(#hdke0elxuP)"/>
    <path fill-rule="evenodd" clip-rule="evenodd" d="m193.765 218.478.098 1.837h50.451v-2.456l-50.549.619z" fill="#FFDEC8"/>
    <path fill-rule="evenodd" clip-rule="evenodd" d="m196.94 220.315 1.859 3.817 43.104-.043 2.032-3.774H196.94z" fill="#811734" style="mix-blend-mode:multiply" opacity=".5"/>
    <path fill-rule="evenodd" clip-rule="evenodd" d="m244.313 217.859 1.541.288-.015 2.168h-1.526v-2.456z" fill="#FF8D90"/>
    <path style="mix-blend-mode:screen" fill-rule="evenodd" clip-rule="evenodd" d="m205.109 179.749 1.905 24.034h8.856l.572 9.325h1.756l-.771-7.207h10.403l.487 7.207h2.048l.292-11.795 10.451-1.941.544-19.886-36.543.263z" fill="url(#ukq21xs42Q)"/>
    <path style="mix-blend-mode:screen" fill-rule="evenodd" clip-rule="evenodd" d="m261.719 187.103.905 17.691h4.427v7.251h1.809l-.415-4.931h4.856l-.05 4.931h4.144l2.321 3.256 1.059-28.627-19.056.429z" fill="url(#tur9p2chyR)"/>
    <path fill-rule="evenodd" clip-rule="evenodd" d="m203.097 132.678 22.754-35.39 90.511-6.627-2.175 30.167-53.671 11.85h-57.419z" fill="url(#exnb6b0a6S)"/>
    <path fill-rule="evenodd" clip-rule="evenodd" d="m314.187 120.828-9.086 6.608v-2.103l-38.05 7.346h-6.534l53.67-11.851z" fill="url(#4jusfoc9zT)"/>
    <path fill-rule="evenodd" clip-rule="evenodd" d="m260.516 132.678-51.134-9.778-6.285 9.778h57.419z" fill="#FFB657" style="mix-blend-mode:soft-light"/>
    <path fill-rule="evenodd" clip-rule="evenodd" d="m225.852 97.288 34.665 35.391-42.896-22.592 8.231-12.799zM243.936 95.963l16.581 36.715-2.817-37.721-13.764 1.006zM277.036 93.54l-16.519 39.139 31.902-40.264-15.383 1.126z" fill="#FFB657" style="mix-blend-mode:soft-light"/>
    <path fill-rule="evenodd" clip-rule="evenodd" d="m316.362 90.66-55.845 42.018 53.67-21.01 2.175-21.007z" fill="#FFB657" style="mix-blend-mode:soft-light"/>
    <path fill-rule="evenodd" clip-rule="evenodd" d="m188.087 232.123-7.129 3.742 118.18-4.72h-84.533l-26.518.978z" fill="#AC2A41" style="mix-blend-mode:multiply" opacity=".5"/>
    <path fill-rule="evenodd" clip-rule="evenodd" d="m154.701 81.654-8.262 2.415 48.317-4.406-7.847-1.378-32.208 3.369z" fill="url(#p3owjo5kkU)"/>
    <path fill-rule="evenodd" clip-rule="evenodd" d="m146.439 84.069.719.889 46.853-3.82.745-1.475-48.317 4.406z" fill="url(#jls7vu6i4V)"/>
    <path fill-rule="evenodd" clip-rule="evenodd" d="m187.404 81.678.527-1.37 3.261-.31-.532 1.373-3.256.307z" fill="#540041" style="mix-blend-mode:multiply" opacity=".3"/>
    <path fill-rule="evenodd" clip-rule="evenodd" d="m148.133 45.89 2.326 10.858 32.779-4.186-1.025-11.599-34.08 4.926z" fill="url(#dibycsyvmW)"/>
    <path fill-rule="evenodd" clip-rule="evenodd" d="m148.133 45.89 1.713 6.193 32.813-5.312.457 4.397-32.878 4.552-2.105-9.83z" fill="#B01734" style="mix-blend-mode:multiply" opacity=".2"/>
    <path fill-rule="evenodd" clip-rule="evenodd" d="m155.071 78.175-4.19-22.64 31.476-4.552 2.219 23.138-29.505 4.054z" fill="url(#ekr3ct4o8X)"/>
    <path fill-rule="evenodd" clip-rule="evenodd" d="m154.318 78.041.269 1.071 30.436-4.303-.086-1.188-11.797 1.998-18.822 2.422z" fill="url(#suxhlbcbuY)"/>
    <path fill-rule="evenodd" clip-rule="evenodd" d="m155.032 75.894 3.845-.697.189 1.356-3.859.546-.175-1.205zM170.703 72.377l3.845-.697.189 1.358-3.859.544-.175-1.205zM161.653 76.374l3.843-.698.127.91-3.867.5-.103-.712zM178.381 64.66l3.845-.698.189 1.356-3.859.547-.175-1.205zM171.096 59.487l3.844-.697.187 1.356-3.856.546-.175-1.205zM156.086 74.36l3.845-.696.189 1.356-3.859.546-.175-1.205z" fill="#FF9F57" style="mix-blend-mode:soft-light"/>
    <path fill-rule="evenodd" clip-rule="evenodd" d="m155.056 69.868 3.844-.697.187 1.356-3.856.546-.175-1.205zM168.787 74.128l3.423-.62.168 1.207-3.435.487-.156-1.074zM155.204 61.514l3.423-.62.168 1.207-3.435.484-.156-1.071zM169.359 61.341l3.424-.62.167 1.21-3.435.484-.156-1.074zM180.213 65.948l3.516-.637.075 1.224-3.435.487-.156-1.074zM173.005 60.766l3.516-.637.075 1.224-3.435.487-.156-1.074z" fill="#811734" style="mix-blend-mode:multiply" opacity=".2"/>
    <path fill-rule="evenodd" clip-rule="evenodd" d="m154.076 68.635 4.245-.556.158 1.111-4.235.64-.168-1.195z" fill="#FFBF57" style="mix-blend-mode:soft-light"/>
    <path fill-rule="evenodd" clip-rule="evenodd" d="m154.294 63.768-4.12-6.042.996-.142 3.565 6.122s-.199.3-.441.062z" fill="url(#xjg82utiaZ)"/>
    <path fill-rule="evenodd" clip-rule="evenodd" d="m180.98 59.995 2.283-6.949-.997.142-1.727 6.869s.276.232.441-.062z" fill="url(#e3an5f07maa)"/>
    <path fill-rule="evenodd" clip-rule="evenodd" d="m157.703 75.425-2.051-12.572 12.67-1.792 1.468 12.505-12.087 1.859z" fill="#FFD1B3"/>
    <path fill-rule="evenodd" clip-rule="evenodd" d="m158.127 74.694 10.983-1.67-1.329-11.247-11.41 1.618 1.756 11.299z" fill="url(#wy13bvn7zab)"/>
    <path fill-rule="evenodd" clip-rule="evenodd" d="m168.322 61.061.209-.029 1.554 12.493-.294.04-1.469-12.504zM158.127 74.694l-1.756-11.3.273-.042 1.603 11.325-.12.017z" fill="#FF8D90"/>
    <path fill-rule="evenodd" clip-rule="evenodd" d="m173.245 76.405-1.764-13.15 8.519-1.09 1.217 13.18-7.972 1.06z" fill="#FFD1B3"/>
    <path fill-rule="evenodd" clip-rule="evenodd" d="m173.846 76.388-1.538-12.517 7.121-1.006 1.21 12.562-6.793.961z" fill="url(#1tbqzowufac)"/>
    <path fill-rule="evenodd" clip-rule="evenodd" d="m179.429 62.865-.304.043 1.272 12.553.242-.034-1.21-12.562z" fill="#FF8D90"/>
    <path fill-rule="evenodd" clip-rule="evenodd" d="m174.303 73.752-1.32-9.342 5.742-.812.827 9.411-5.249.743z" fill="url(#tr3zwxtynad)"/>
    <path fill-rule="evenodd" clip-rule="evenodd" d="m183.342 61.264-.659-6.883-31.04 5.278.934 5.046 30.765-3.44z" fill="#811734" style="mix-blend-mode:multiply" opacity=".5"/>
    <path fill-rule="evenodd" clip-rule="evenodd" d="m151.362 54.575-.436-1.347 30.652-4.334-.215 1.26-30.001 4.42z" fill="url(#xtf2z0iuaae)"/>
    <path fill-rule="evenodd" clip-rule="evenodd" d="M150.998 61.662c-.906.127-1.818-.51-2.036-1.425l-.618-2.593 3.358-.474.573 2.6c.201.917-.369 1.765-1.277 1.892z" fill="url(#arz1ecia6af)"/>
    <path fill-rule="evenodd" clip-rule="evenodd" d="M154.282 61.197c-.905.127-1.804-.513-2.007-1.43l-.573-2.6 3.359-.474.524 2.607c.185.92-.4 1.768-1.305 1.897h.002z" fill="url(#3uuiadlsyag)"/>
    <path fill-rule="evenodd" clip-rule="evenodd" d="M157.564 60.732c-.905.13-1.791-.513-1.976-1.432l-.525-2.607 3.359-.475.479 2.612c.17.922-.429 1.773-1.334 1.902h-.003z" fill="url(#nmvuynlvuah)"/>
    <path fill-rule="evenodd" clip-rule="evenodd" d="M160.846 60.27c-.906.127-1.778-.515-1.948-1.437l-.479-2.612 3.358-.474.434 2.618c.153.925-.458 1.778-1.365 1.905z" fill="url(#z6seyj2njai)"/>
    <path fill-rule="evenodd" clip-rule="evenodd" d="M164.128 59.805c-.906.127-1.766-.517-1.919-1.442l-.434-2.62 3.359-.474.386 2.627c.136.927-.489 1.782-1.395 1.91h.003z" fill="url(#j76dhf9cwaj)"/>
    <path fill-rule="evenodd" clip-rule="evenodd" d="M167.409 59.34c-.905.13-1.751-.52-1.888-1.444l-.385-2.626 3.358-.475.34 2.634c.12.93-.517 1.785-1.423 1.914l-.002-.003z" fill="url(#vil4klt44ak)"/>
    <path fill-rule="evenodd" clip-rule="evenodd" d="M170.691 58.878c-.905.127-1.739-.52-1.859-1.45l-.34-2.633 3.359-.474.294 2.638c.103.932-.546 1.79-1.454 1.919z" fill="url(#4p380qwftal)"/>
    <path fill-rule="evenodd" clip-rule="evenodd" d="M173.973 58.413c-.906.127-1.725-.522-1.828-1.454l-.294-2.638 3.358-.474.247 2.645c.086.934-.578 1.794-1.483 1.921z" fill="url(#n9a7yk083am)"/>
    <path fill-rule="evenodd" clip-rule="evenodd" d="M177.257 57.948c-.906.13-1.713-.524-1.799-1.459l-.247-2.645 3.358-.474.202 2.652c.071.937-.606 1.8-1.512 1.926h-.002z" fill="url(#f46dfc810an)"/>
    <path fill-rule="evenodd" clip-rule="evenodd" d="M180.539 57.484c-.906.127-1.699-.527-1.77-1.462l-.202-2.652 3.359-.474.156 2.659c.055.94-.635 1.802-1.543 1.931v-.002z" fill="url(#mibhr3faaao)"/>
    <path fill-rule="evenodd" clip-rule="evenodd" d="M183.821 57.021c-.906.127-1.687-.53-1.74-1.466l-.155-2.66 3.358-.474.108 2.664c.038.942-.666 1.807-1.571 1.936z" fill="url(#ys6xm1trlap)"/>
    <path fill-rule="evenodd" clip-rule="evenodd" d="m151.362 54.575-3.018 3.069c13.778-1.157 23.039-2.432 36.938-5.223l-3.921-2.267-29.999 4.42z" fill="url(#f3lx97e5jaq)"/>
    <path fill-rule="evenodd" clip-rule="evenodd" d="m156.853 75.396.095.479 13.262-1.876-.091-.644-13.266 2.04z" fill="#FFDEC8"/>
    <path fill-rule="evenodd" clip-rule="evenodd" d="m157.756 75.76.632.934 11.328-1.615.393-1.066-12.353 1.747z" fill="#811734" style="mix-blend-mode:multiply" opacity=".5"/>
    <path fill-rule="evenodd" clip-rule="evenodd" d="m170.119 73.355.414.016.076.57-.399.058-.091-.644z" fill="#FF8D90"/>
    <path style="mix-blend-mode:screen" fill-rule="evenodd" clip-rule="evenodd" d="m158.396 64.794 1.394 6.246 2.328-.328.498 2.43.46-.066-.469-1.866 2.733-.388.398 1.878.536-.076-.362-3.113 2.676-.898-.596-5.247-9.596 1.428z" fill="url(#6hssw365mar)"/>
    <path style="mix-blend-mode:screen" fill-rule="evenodd" clip-rule="evenodd" d="m173.552 64.621.893 4.617 1.164-.163.271 1.905.474-.067-.292-1.282 1.277-.18.17 1.299 1.09-.156.731.772-.786-7.567-4.992.822z" fill="url(#zabr0sdfjas)"/>
    <path fill-rule="evenodd" clip-rule="evenodd" d="m158.479 69.19 1.064 2.902 6.35-1.524-.162-3.172-7.252 1.794z" fill="#816090" style="mix-blend-mode:multiply" opacity=".5"/>
    <path fill-rule="evenodd" clip-rule="evenodd" d="m158.479 69.19 7.252-1.794.675 2.779-7.122 1.706-.805-2.69z" fill="url(#hin1r83kxat)"/>
    <path fill-rule="evenodd" clip-rule="evenodd" d="m165.731 67.396-2.834-1.17-4.418 2.964.262-.07 4.163-2.795 2.678 1.107.149-.036z" fill="url(#hkaa84i75au)"/>
    <path d="M160.41 69.792a.545.545 0 0 1 .151-.247.545.545 0 0 1 .786.024.55.55 0 0 1 .139.251.555.555 0 0 1-.163.532.563.563 0 0 1-.252.137.53.53 0 0 1-.287-.01.548.548 0 0 1-.371-.69l-.003.003zm.292.395a.35.35 0 0 0 .329.1.33.33 0 0 0 .153-.083.356.356 0 0 0 .086-.149.364.364 0 0 0 0-.18.347.347 0 0 0-.23-.258.31.31 0 0 0-.175-.005.33.33 0 0 0-.242.235.373.373 0 0 0-.002.182.331.331 0 0 0 .084.158h-.003zM162.211 69.188a.342.342 0 0 1 .168.235.453.453 0 0 1 .005.187.333.333 0 0 1-.087.165.37.37 0 0 1-.201.103l-.151.036.079.335-.208.05-.252-1.06.321-.077a.452.452 0 0 1 .324.024l.002.002zm-.074.438a.163.163 0 0 0 .038-.146.19.19 0 0 0-.06-.1c-.031-.031-.076-.039-.141-.024l-.151.036.077.318.148-.036c.039-.01.07-.024.089-.05v.002zM163.203 68.848l.048.2-.515.123.055.225.455-.108.048.202-.455.108.055.23.534-.127.048.2-.743.178-.254-1.061.724-.173v.003zM164.396 68.565l.264 1.105h-.007l-.901-.492.153.626-.213.05-.263-1.102h.009l.903.5-.155-.637.21-.05z" fill="#fff"/>
    <path fill-rule="evenodd" clip-rule="evenodd" d="m156.117 52.495 4.669-10.149 23.545-5.106.549 8.01-13.669 5.11-15.094 2.135z" fill="url(#60t95k7aaav)"/>
    <path fill-rule="evenodd" clip-rule="evenodd" d="m184.879 45.25-2.141 2.075-.079-.554-9.728 3.345-1.72.245 13.668-5.111z" fill="url(#22dxswqfnaw)"/>
    <path fill-rule="evenodd" clip-rule="evenodd" d="m171.211 50.36-13.803-.67-1.291 2.805 15.094-2.135z" fill="#FFB657" style="mix-blend-mode:soft-light"/>
    <path fill-rule="evenodd" clip-rule="evenodd" d="m160.785 42.346 10.426 8.015-12.114-4.344 1.688-3.67zM165.488 41.325l5.723 9.035-2.141-9.811-3.582.776z" fill="#FFB657" style="mix-blend-mode:soft-light"/>
    <path fill-rule="evenodd" clip-rule="evenodd" d="m174.1 39.46-2.889 10.9 6.892-11.77-4.003.87zM184.331 37.24l-13.12 13.12 13.328-7.518-.208-5.602z" fill="#FFB657" style="mix-blend-mode:soft-light"/>
    <path fill-rule="evenodd" clip-rule="evenodd" d="m152.663 82.25 6.47-.254 27.776-3.71-32.207 3.368-2.039.597z" fill="#AC2A41" style="mix-blend-mode:multiply" opacity=".5"/>
    <path d="M160.41 69.792a.545.545 0 0 1 .151-.247.545.545 0 0 1 .786.024.55.55 0 0 1 .139.251.555.555 0 0 1-.163.532.563.563 0 0 1-.252.137.53.53 0 0 1-.287-.01.548.548 0 0 1-.371-.69l-.003.003zm.292.395a.35.35 0 0 0 .329.1.33.33 0 0 0 .153-.083.356.356 0 0 0 .086-.149.364.364 0 0 0 0-.18.347.347 0 0 0-.23-.258.31.31 0 0 0-.175-.005.33.33 0 0 0-.242.235.373.373 0 0 0-.002.182.331.331 0 0 0 .084.158h-.003zM162.211 69.188a.342.342 0 0 1 .168.235.453.453 0 0 1 .005.187.333.333 0 0 1-.087.165.37.37 0 0 1-.201.103l-.151.036.079.335-.208.05-.252-1.06.321-.077a.452.452 0 0 1 .324.024l.002.002zm-.074.438a.163.163 0 0 0 .038-.146.19.19 0 0 0-.06-.1c-.031-.031-.076-.039-.141-.024l-.151.036.077.318.148-.036c.039-.01.07-.024.089-.05v.002zM163.203 68.848l.048.2-.515.123.055.225.455-.108.048.202-.455.108.055.23.534-.127.048.2-.743.178-.254-1.061.724-.173v.003zM164.396 68.565l.264 1.105h-.007l-.901-.492.153.626-.213.05-.263-1.102h.009l.903.5-.155-.637.21-.05z" fill="#fff"/>
    <path style="mix-blend-mode:screen" opacity=".69" fill-rule="evenodd" clip-rule="evenodd" d="m186.909 78.285-32.208 3.369-8.262 2.415.719.889 46.853-3.82.745-1.475-7.847-1.378z" fill="url(#cbz2uz7z0ax)"/>
    <path d="m469.308 180.572-71.466-9.656-5.809 43.014 71.467 9.656 5.808-43.014z" fill="#F2A25C"/>
    <path d="m477.861 225.661-37.49-5.065s-2.267-1.056 1.841-.425c4.107.63 30.114 3.306 32.162 3.849 2.047.543 4.235.061 3.486 1.639l.001.002z" fill="#9AB0C1" style="mix-blend-mode:multiply" opacity=".46"/>
    <path d="m466.545 213.899-74.879-10.116-1.339 9.917 74.879 10.116 1.339-9.917z" fill="#A64F3C"/>
    <path d="m393.562 202.613-1.896 1.17 74.879 10.115-1.517-1.631-71.466-9.654z" fill="#F76757"/>
    <path d="m443.12 182.944-20.657-2.791-5.025 37.21 20.657 2.791 5.025-37.21z" fill="#4B5266"/>
    <path d="m460.355 187.218-12.48-1.686-2.383 17.649 12.479 1.686 2.384-17.649zM402.329 197.349l12.48 1.686 2.383-17.649-12.48-1.686-2.383 17.649zM439.323 185.338l-13.834-1.869-1.564 11.581 13.834 1.869 1.564-11.581zM437.523 198.667l-13.835-1.869-2.456 18.189 13.834 1.869 2.457-18.189z" fill="#DFE9F2"/>
    <path d="m396.836 174.803-6.999-.946c9.396-3.694 20.307-9.643 21.22-18.619 1.335.179 2.669.355 4.004.531-1.212 8.477-9.583 14.652-18.225 19.034z" fill="#F76757"/>
    <path d="m403.601 175.717-6.767-.915c8.641-4.382 17.013-10.556 18.225-19.033l3.918.513c-1.242 8.05-7.787 14.42-15.376 19.433v.002z" fill="#FFE7C7"/>
    <path d="m410.204 176.609-6.604-.892c7.59-5.015 14.135-11.383 15.377-19.433l3.847.502c-1.222 7.712-6.247 14.199-12.62 19.824v-.001z" fill="#F76757"/>
    <path d="m416.715 177.489-6.511-.88c6.373-5.625 11.4-12.112 12.62-19.825l3.787.495c-1.165 7.441-4.911 14.033-9.897 20.209l.001.001z" fill="#FFE7C7"/>
    <path d="m423.201 178.365-6.488-.877c4.986-6.177 8.733-12.768 9.898-20.21l3.74.491c-1.084 7.225-3.707 13.973-7.15 20.596z" fill="#F76757"/>
    <path d="m429.735 179.248-6.534-.883c3.443-6.624 6.067-13.372 7.15-20.596 1.235.163 2.472.327 3.706.492-.995 7.081-2.527 14.047-4.322 20.988v-.001z" fill="#FFE7C7"/>
    <path d="m436.373 180.144-6.639-.897c1.795-6.941 3.328-13.906 4.323-20.988l3.751.507c-.96 7.092-1.342 14.202-1.437 21.376l.002.002z" fill="#F76757"/>
    <path d="m443.074 181.049-6.702-.905c.094-7.174.477-14.284 1.438-21.376 1.269.174 2.537.351 3.807.529a57.146 57.146 0 0 0-.418 10.892c.205 3.639 1.045 7.245 1.875 10.86z" fill="#FFE7C7"/>
    <path d="m449.796 181.958-6.723-.909c-.83-3.615-1.67-7.22-1.875-10.86a57.16 57.16 0 0 1 .418-10.893c1.268.179 2.534.36 3.801.542-.488 3.616-.385 7.274.288 10.94.702 3.823 2.374 7.511 4.092 11.18h-.001z" fill="#F76757"/>
    <path d="m456.509 182.864-6.713-.907c-1.719-3.668-3.391-7.356-4.092-11.18-.672-3.665-.778-7.324-.288-10.94l3.801.55c-.493 3.636-.141 7.327.992 10.971 1.254 4.036 3.717 7.82 6.298 11.506h.002z" fill="#FFE7C7"/>
    <path d="m463.177 183.765-6.668-.901c-2.581-3.685-5.046-7.471-6.298-11.506-1.132-3.644-1.486-7.333-.992-10.97 1.27.184 2.547.329 3.816.515-1.144 8.316 3.771 15.961 10.142 22.862zM476.247 185.531l-6.48-.876c-7.386-6.508-14.12-14.604-12.898-23.234 1.284.19 2.592.34 3.876.528-1.488 8.821 7.51 17.589 15.502 23.581v.001z" fill="#F76757"/>
    <path d="m469.767 184.656-6.591-.891c-6.37-6.901-11.285-14.547-10.141-22.862 1.275.188 2.558.33 3.833.518-1.222 8.628 5.511 16.726 12.898 23.234l.001.001z" fill="#FFE7C7"/>
    <path d="m402.328 197.35-.697.515-.115.854 13.754 1.858.144-1.068-.606-.473-12.48-1.686zM445.471 203.179l-.698.514-.116.854 13.756 1.858.144-1.068-.606-.472-12.48-1.686z" fill="#4B5266"/>
    <path d="m410.205 176.609-.407 3.008a3.27 3.27 0 0 0 2.803 3.678l.03.004a3.269 3.269 0 0 0 3.677-2.802l.406-3.008-6.511-.88h.002z" fill="#F2D3AD"/>
    <path d="m416.715 177.488-.406 3.009a3.27 3.27 0 0 0 2.802 3.678h.007a3.269 3.269 0 0 0 3.678-2.802l.406-3.008-6.488-.877h.001zM403.601 175.717l-.406 3.008a3.27 3.27 0 0 0 2.802 3.678l.123.017a3.27 3.27 0 0 0 3.677-2.803l.406-3.008-6.603-.892h.001z" fill="#A64F3C"/>
    <path d="m423.201 178.365-.406 3.008a3.27 3.27 0 0 0 2.802 3.678l.055.007a3.269 3.269 0 0 0 3.677-2.802l.406-3.008-6.534-.883zM396.835 174.803l-.406 3.008a3.27 3.27 0 0 0 2.802 3.678l.286.039a3.27 3.27 0 0 0 3.678-2.803l.406-3.008-6.767-.914h.001z" fill="#F2D3AD"/>
    <path d="m389.837 173.857-.406 3.009a3.268 3.268 0 0 0 2.802 3.677l.519.071a3.27 3.27 0 0 0 3.677-2.803l.406-3.008-6.998-.946zM476.247 185.531l-6.479-.876-.407 3.009a3.27 3.27 0 0 0 6.48.875l.406-3.008zM456.508 182.864l-.406 3.009a3.268 3.268 0 0 0 2.802 3.677l.188.026a3.269 3.269 0 0 0 3.677-2.803l.406-3.008-6.668-.901h.001z" fill="#A64F3C"/>
    <path d="m449.795 181.958-.406 3.008a3.27 3.27 0 0 0 2.802 3.678l.232.031a3.268 3.268 0 0 0 3.677-2.802l.406-3.009-6.712-.906h.001zM463.176 183.765l-.406 3.008a3.27 3.27 0 0 0 2.802 3.678l.11.015a3.27 3.27 0 0 0 3.678-2.803l.406-3.008-6.591-.89h.001z" fill="#F2D3AD"/>
    <path d="m429.735 179.247-.406 3.009a3.268 3.268 0 0 0 2.802 3.677l.157.022a3.27 3.27 0 0 0 3.677-2.803l.407-3.008-6.639-.897h.002zM443.073 181.049l-.406 3.009a3.268 3.268 0 0 0 2.802 3.677l.243.033a3.27 3.27 0 0 0 3.678-2.802l.406-3.008-6.723-.909z" fill="#A64F3C"/>
    <path d="m436.373 180.144-.406 3.008a3.27 3.27 0 0 0 2.802 3.678l.222.03a3.269 3.269 0 0 0 3.677-2.802l.406-3.009-6.701-.905z" fill="#F2D3AD"/>
    <path d="m459.135 150.053-43.369-5.86a3.188 3.188 0 0 0-3.586 2.733l-1.123 8.311 49.689 6.713 1.122-8.311a3.188 3.188 0 0 0-2.733-3.586z" fill="#A64F3C"/>
    <path opacity=".2" d="M69.67 211.662c27.9-4.669 50.091-11.009 49.564-14.159-.527-3.151-23.572-1.919-51.472 2.75-27.9 4.669-50.09 11.008-49.563 14.159.527 3.15 23.572 1.919 51.472-2.75z" fill="#231F20"/>
    <path d="m94.634 125.167-76.719 12.842 11.704 69.975 76.719-12.842-11.704-69.975z" fill="#F65D31"/>
    <path opacity=".2" d="m94.632 125.167-76.717 12.841 5.235 31.298c1.275-1.241 1.947-2.831 1.69-4.439.529 3.029 4.15 4.939 8.118 4.275 3.966-.664 6.759-3.648 6.28-6.674.534 3.022 4.155 4.927 8.117 4.264 3.96-.663 6.769-3.655 6.284-6.686.524 3.03 4.151 4.939 8.113 4.276 3.96-.663 6.769-3.655 6.284-6.686.53 3.029 4.151 4.939 8.118 4.275 3.967-.663 6.77-3.655 6.285-6.685.529 3.029 4.151 4.939 8.112 4.276 3.962-.663 6.78-3.663 6.282-6.703.275 1.611 1.429 2.901 3.04 3.665l-5.236-31.298-.005.001z" fill="#231F20"/>
    <path d="m27.127 128.836-2.75 33.288 14.397-2.41-.484-32.747-11.163 1.869z" fill="#FFCB21"/>
    <path d="m38.29 126.968.483 32.747 14.403-2.411-3.724-32.205-11.163 1.869zM15.971 130.703l-5.991 33.83 14.398-2.41 2.75-33.288-11.157 1.868zM60.613 123.232l6.959 31.663 14.398-2.41-10.199-31.121-11.158 1.868z" fill="#F65D31"/>
    <path d="m71.77 121.365 10.2 31.12 14.403-2.411-13.44-30.578-11.163 1.869zM49.452 125.1l3.724 32.204 14.398-2.41-6.958-31.663-11.164 1.869z" fill="#FFCB21"/>
    <path d="m96.373 150.075 14.397-2.41-16.673-30.036-11.163 1.868 13.439 30.578z" fill="#F65D31"/>
    <path d="M18.104 168.836c3.977-.666 6.788-3.675 6.279-6.719L9.98 164.528c.51 3.043 4.146 4.974 8.124 4.308z" fill="#EFE4E5"/>
    <path d="M32.5 166.427c3.978-.666 6.788-3.675 6.28-6.719l-14.403 2.411c.51 3.043 4.146 4.973 8.123 4.308z" fill="#BF3D4D"/>
    <path d="M46.897 164.018c3.977-.666 6.788-3.676 6.279-6.719l-14.403 2.41c.51 3.044 4.146 4.974 8.124 4.309z" fill="#EFE4E5"/>
    <path d="M61.294 161.608c3.978-.666 6.788-3.675 6.28-6.719L53.17 157.3c.509 3.043 4.146 4.974 8.123 4.308z" fill="#BF3D4D"/>
    <path d="M75.69 159.199c3.978-.666 6.789-3.675 6.28-6.719l-14.403 2.411c.51 3.043 4.146 4.973 8.124 4.308zM104.496 154.378c3.977-.665 6.788-3.675 6.278-6.718l-14.402 2.41c.51 3.044 4.146 4.974 8.124 4.308z" fill="#EFE4E5"/>
    <path d="M90.093 156.789c3.978-.666 6.788-3.676 6.28-6.719l-14.403 2.41c.509 3.044 4.146 4.974 8.123 4.309z" fill="#BF3D4D"/>
    <path d="m93.27 112.194-78.207 13.089.907 5.425 78.207-13.089-.907-5.425z" fill="#FFCB21"/>
    <path d="m75.183 166.941-25.281 4.231c-3.874.649-6.456 4.485-5.774 8.567l4.201 25.114 39.307-6.579-4.2-25.114c-.685-4.088-4.38-6.868-8.248-6.22l-.005.001z" fill="#70D1EF"/>
    <path d="M65.229 189.863 47.33 202.267l-.504-3.016 17.898-12.404.505 3.016zM63.088 177.07l-17.897 12.41-.506-3.021 17.899-12.405.504 3.016zM86.29 186.338l-17.892 12.404-.505-3.016 17.893-12.404.505 3.016zM84.151 173.545l-17.892 12.41-.505-3.022 17.892-12.404.505 3.016z" fill="#95E8FC"/>
    <path d="m63.996 166.549-3.64.609 6.044 36.126 3.64-.609-6.044-36.126zM70.619 187.006a.935.935 0 0 1-.757 1.082.934.934 0 0 1-1.068-.777l-.474-2.836a.934.934 0 0 1 .757-1.081.934.934 0 0 1 1.067.776l.475 2.836zM62.298 188.398a.934.934 0 0 1-.758 1.082.93.93 0 0 1-1.067-.776l-.475-2.836a.934.934 0 0 1 .757-1.082.934.934 0 0 1 1.068.776l.475 2.836z" fill="#EF7382"/>
    <path d="m76.216 164.218-28.177 4.716c-4.316.722-7.222 4.871-6.488 9.265l4.521 27.026 2.251-.377-4.2-25.114c-.684-4.087 1.9-7.918 5.773-8.566l25.281-4.232c3.874-.648 7.564 2.138 8.247 6.22l4.2 25.114 2.252-.377-4.521-27.026c-.736-4.399-4.828-7.371-9.15-6.647l.011-.002z" fill="#EF7382"/>
    <path d="M110.167 195.966c.289 1.727-.767 3.336-2.352 3.601l-78.147 13.077c-1.59.266-3.107-.912-3.396-2.638-.288-1.722.762-3.335 2.352-3.601l78.147-13.078c1.585-.265 3.108.918 3.396 2.639z" fill="#FFCB21"/>
    <path d="M26.299 210.13c.338 1.651 1.822 2.767 3.368 2.508l78.147-13.078c1.546-.259 2.586-1.798 2.369-3.469L26.299 210.13z" fill="#BF3D4D"/>
    <path opacity=".2" d="M389.742 113.985c28.099 1.479 51.013.107 51.18-3.066.167-3.173-22.477-6.945-50.576-8.425-28.099-1.48-51.013-.107-51.18 3.066-.167 3.173 22.477 6.945 50.576 8.425z" fill="#231F20"/>
    <path d="m432.616 35.372-77.264-4.07-3.709 70.476 77.264 4.07 3.709-70.476z" fill="#A46334"/>
    <path opacity=".2" d="m432.616 35.372-77.263-4.07-1.659 31.523c1.505-.931 2.501-2.33 2.597-3.947-.139 3.055 2.967 5.69 6.962 5.901 3.995.21 7.349-2.085 7.537-5.127-.133 3.05 2.973 5.681 6.962 5.891 3.99.21 7.361-2.09 7.544-5.138-.145 3.056 2.967 5.692 6.956 5.902 3.99.21 7.361-2.09 7.543-5.138-.139 3.056 2.967 5.692 6.962 5.902 3.995.21 7.361-2.09 7.543-5.138-.138 3.056 2.968 5.692 6.957 5.902 3.989.21 7.372-2.095 7.544-5.154-.08 1.623.762 3.125 2.162 4.214l1.659-31.523h-.006z" fill="#231F20"/>
    <path d="m366.272 24.383-9.841 31.731 14.501.765 6.583-31.903-11.243-.593z" fill="#FFCE21"/>
    <path d="m377.513 24.975-6.583 31.903 14.507.765 3.32-32.075-11.244-.593zM355.036 23.792 341.932 55.35l14.501.765 9.841-31.73-11.238-.593zM399.996 26.158l-.061 32.247 14.502.765-3.203-32.42-11.238-.592z" fill="#A46334"/>
    <path d="m411.233 26.75 3.203 32.419 14.507.765-6.466-32.591-11.244-.593zM388.755 25.566l-3.32 32.076 14.503.764.061-32.247-11.244-.593z" fill="#FFCE21"/>
    <path d="m428.941 59.932 14.501.765-9.723-32.762-11.243-.593 6.465 32.59z" fill="#A46334"/>
    <path d="M348.893 61.281c4.006.211 7.384-2.105 7.545-5.17l-14.505-.764c-.162 3.065 2.954 5.723 6.96 5.934z" fill="#EFE4E5"/>
    <path d="M363.392 62.044c4.006.212 7.384-2.104 7.545-5.17l-14.505-.764c-.162 3.065 2.954 5.723 6.96 5.934z" fill="#593318"/>
    <path d="M377.891 62.808c4.006.211 7.384-2.105 7.545-5.17l-14.505-.764c-.162 3.065 2.954 5.723 6.96 5.934z" fill="#EFE4E5"/>
    <path d="M392.391 63.572c4.006.21 7.384-2.105 7.545-5.17l-14.505-.765c-.162 3.065 2.954 5.724 6.96 5.935z" fill="#593318"/>
    <path d="M406.892 64.335c4.006.212 7.384-2.104 7.545-5.17l-14.505-.764c-.162 3.065 2.954 5.723 6.96 5.934zM435.901 65.863c4.006.21 7.384-2.105 7.545-5.17l-14.506-.765c-.161 3.065 2.955 5.724 6.961 5.935z" fill="#EFE4E5"/>
    <path d="M421.396 65.1c4.006.21 7.384-2.106 7.545-5.17l-14.505-.765c-.162 3.065 2.954 5.723 6.96 5.934z" fill="#593318"/>
    <path d="m434.09 22.483-78.766-4.152-.287 5.46 78.766 4.153.287-5.46z" fill="#FFCE21"/>
    <path d="m404.728 71.744-25.461-1.34c-3.901-.206-7.235 2.962-7.452 7.073l-1.331 25.294 39.587 2.085 1.331-25.293c.216-4.117-2.772-7.613-6.668-7.819h-.006z" fill="#70D1EF"/>
    <path d="m390.123 91.859-20.053 8.187.16-3.038 20.053-8.187-.16 3.038zM390.801 78.974l-20.053 8.193.16-3.043 20.053-8.188-.16 3.038zM411.336 92.975l-20.047 8.188.159-3.038 20.048-8.187-.16 3.037zM412.015 80.092l-20.048 8.193.16-3.043 20.047-8.188-.159 3.038z" fill="#95E8FC"/>
    <path d="m393.95 68.953-3.665-.193-1.915 36.383 3.665.193 1.915-36.383zM395.975 90.246a.929.929 0 0 1-.968.887.93.93 0 0 1-.87-.984l.151-2.856a.929.929 0 0 1 .968-.888.93.93 0 0 1 .87.984l-.151 2.857zM387.593 89.804a.928.928 0 0 1-.968.887.924.924 0 0 1-.869-.984l.15-2.856a.929.929 0 0 1 .968-.887.93.93 0 0 1 .87.984l-.151 2.856z" fill="#EF7382"/>
    <path d="m406.319 69.323-28.377-1.495c-4.347-.23-8.063 3.173-8.296 7.598l-1.433 27.22 2.267.119 1.331-25.293c.217-4.117 3.551-7.28 7.452-7.075l25.461 1.341c3.902.206 6.885 3.707 6.669 7.819l-1.332 25.293 2.268.12 1.432-27.22c.233-4.43-3.1-8.199-7.453-8.428h.011z" fill="#EF7382"/>
    <path d="M432.447 107.47c-.091 1.739-1.464 3.074-3.059 2.99l-78.705-4.145c-1.601-.085-2.821-1.556-2.729-3.295.091-1.733 1.458-3.074 3.06-2.99l78.704 4.145c1.596.085 2.821 1.562 2.729 3.295z" fill="#FFCE21"/>
    <path d="M347.952 103.147c-.027 1.676 1.173 3.08 2.731 3.162l78.704 4.143c1.558.082 2.899-1.189 3.048-2.858l-84.483-4.447z" fill="#593318"/>
    <defs>
        <radialGradient id="9yxox4lwoa" cx="0" cy="0" r="1" gradientUnits="userSpaceOnUse" gradientTransform="matrix(31.7874 -5.0701 4.6876 29.38931 143.776 187.467)">
            <stop stop-color="#EBD7E3"/>
            <stop offset=".98" stop-color="#FFE485" stop-opacity=".51"/>
        </radialGradient>
        <radialGradient id="npe9mpxx0b" cx="0" cy="0" r="1" gradientUnits="userSpaceOnUse" gradientTransform="matrix(10.9401 0 0 10.9423 184.762 92.999)">
            <stop stop-color="#EBD7E3"/>
            <stop offset=".98" stop-color="#FFE485"/>
        </radialGradient>
        <radialGradient id="yc2j7wu1uc" cx="0" cy="0" r="1" gradientUnits="userSpaceOnUse" gradientTransform="matrix(25.05257 -3.18804 2.65283 20.84669 335.914 117.571)">
            <stop stop-color="#EBD7E3"/>
            <stop offset=".98" stop-color="#FFE485"/>
        </radialGradient>
        <radialGradient id="blq3t85b8d" cx="0" cy="0" r="1" gradientUnits="userSpaceOnUse" gradientTransform="matrix(43.6574 0 0 43.6662 361.045 195.826)">
            <stop stop-color="#EBD7E3"/>
            <stop offset=".98" stop-color="#FFE485"/>
        </radialGradient>
        <radialGradient id="1cxwh570qe" cx="0" cy="0" r="1" gradientUnits="userSpaceOnUse" gradientTransform="matrix(58.677 0 0 58.6889 265.864 53.33)">
            <stop stop-color="#EBD7E3"/>
            <stop offset=".98" stop-color="#FFE485"/>
        </radialGradient>
        <radialGradient id="hxpdh1xx3f" cx="0" cy="0" r="1" gradientUnits="userSpaceOnUse" gradientTransform="matrix(24.1942 0 0 24.1991 130.079 92.86)">
            <stop stop-color="#EBD7E3"/>
            <stop offset=".98" stop-color="#FFE485"/>
        </radialGradient>
        <radialGradient id="6eld4x3c7g" cx="0" cy="0" r="1" gradientUnits="userSpaceOnUse" gradientTransform="matrix(9.4403 0 0 28.5584 421.306 137.243)">
            <stop stop-color="#EBD7E3"/>
            <stop offset=".98" stop-color="#FFE485"/>
        </radialGradient>
        <radialGradient id="dzclll2kwh" cx="0" cy="0" r="1" gradientUnits="userSpaceOnUse" gradientTransform="matrix(158.12 0 0 158.152 242.624 273.405)">
            <stop stop-color="#FFE6EE"/>
            <stop offset=".38" stop-color="#F8E3ED"/>
            <stop offset=".92" stop-color="#E4DCEB"/>
            <stop offset=".98" stop-color="#E2DCEB"/>
        </radialGradient>
        <radialGradient id="3gz0yghbij" cx="0" cy="0" r="1" gradientUnits="userSpaceOnUse" gradientTransform="matrix(64.52977 -1.88177 1.69562 58.14658 242.333 233.325)">
            <stop stop-color="#7C65E0"/>
            <stop offset=".99" stop-color="#954CB8"/>
        </radialGradient>
        <radialGradient id="lxxhebem1n" cx="0" cy="0" r="1" gradientUnits="userSpaceOnUse" gradientTransform="matrix(41.2308 0 0 41.2391 241.175 228.907)">
            <stop stop-color="#FFD1A9"/>
            <stop offset=".99" stop-color="#F9B7A0"/>
        </radialGradient>
        <radialGradient id="tudk19rplo" cx="0" cy="0" r="1" gradientUnits="userSpaceOnUse" gradientTransform="matrix(10.1544 0 0 10.1564 185.098 161.636)">
            <stop stop-color="#EBD7E3"/>
            <stop offset=".98" stop-color="#BDAFD2"/>
        </radialGradient>
        <radialGradient id="89xt71yuap" cx="0" cy="0" r="1" gradientUnits="userSpaceOnUse" gradientTransform="matrix(-10.1544 0 0 -10.1564 297.117 161.636)">
            <stop stop-color="#EBD7E3"/>
            <stop offset=".98" stop-color="#BDAFD2"/>
        </radialGradient>
        <radialGradient id="r7uewjob8q" cx="0" cy="0" r="1" gradientUnits="userSpaceOnUse" gradientTransform="matrix(36.9214 0 0 36.9288 219.013 214.486)">
            <stop stop-color="#0FF"/>
            <stop offset=".99" stop-color="#26A9FF"/>
        </radialGradient>
        <radialGradient id="izj7rlk2fs" cx="0" cy="0" r="1" gradientUnits="userSpaceOnUse" gradientTransform="matrix(22.2683 0 0 22.2728 270.378 215.325)">
            <stop stop-color="#0FF"/>
            <stop offset=".99" stop-color="#26A9FF"/>
        </radialGradient>
        <radialGradient id="osnqw0dxat" cx="0" cy="0" r="1" gradientUnits="userSpaceOnUse" gradientTransform="matrix(41.2691 0 0 41.2775 241.652 135.305)">
            <stop stop-color="#6D47D3"/>
            <stop offset=".99" stop-color="#713592"/>
        </radialGradient>
        <radialGradient id="1a4bgopttu" cx="0" cy="0" r="1" gradientUnits="userSpaceOnUse" gradientTransform="matrix(9.68052 0 0 12.2893 178.207 164.565)">
            <stop stop-color="#6D47D3"/>
            <stop offset=".99" stop-color="#713592"/>
        </radialGradient>
        <radialGradient id="rt387vkxov" cx="0" cy="0" r="1" gradientUnits="userSpaceOnUse" gradientTransform="matrix(9.5516 0 0 12.1256 190.892 164.565)">
            <stop stop-color="#FFD1A9"/>
            <stop offset=".99" stop-color="#F99B98"/>
        </radialGradient>
        <radialGradient id="sl7t1i19xw" cx="0" cy="0" r="1" gradientUnits="userSpaceOnUse" gradientTransform="matrix(9.42268 0 0 11.962 203.579 164.565)">
            <stop stop-color="#6D47D3"/>
            <stop offset=".99" stop-color="#713592"/>
        </radialGradient>
        <radialGradient id="8nhy5ztlox" cx="0" cy="0" r="1" gradientUnits="userSpaceOnUse" gradientTransform="matrix(9.29748 0 0 11.803 216.268 -479.714)">
            <stop stop-color="#FFD1A9"/>
            <stop offset=".99" stop-color="#F99B98"/>
        </radialGradient>
        <radialGradient id="st64pftmvy" cx="0" cy="0" r="1" gradientUnits="userSpaceOnUse" gradientTransform="matrix(9.17229 0 0 11.6441 228.957 164.565)">
            <stop stop-color="#6D47D3"/>
            <stop offset=".99" stop-color="#713592"/>
        </radialGradient>
        <radialGradient id="88mjjntijz" cx="0" cy="0" r="1" gradientUnits="userSpaceOnUse" gradientTransform="matrix(9.13121 0 0 11.5919 241.707 -479.714)">
            <stop stop-color="#FFD1A9"/>
            <stop offset=".99" stop-color="#F99B98"/>
        </radialGradient>
        <radialGradient id="qksmu01ppA" cx="0" cy="0" r="1" gradientUnits="userSpaceOnUse" gradientTransform="matrix(9.21527 0 0 11.6987 254.424 164.565)">
            <stop stop-color="#6D47D3"/>
            <stop offset=".99" stop-color="#713592"/>
        </radialGradient>
        <radialGradient id="76prihvxjB" cx="0" cy="0" r="1" gradientUnits="userSpaceOnUse" gradientTransform="matrix(9.34232 0 0 11.86 267.112 -479.714)">
            <stop stop-color="#FFD1A9"/>
            <stop offset=".99" stop-color="#F99B98"/>
        </radialGradient>
        <radialGradient id="h88c026qtC" cx="0" cy="0" r="1" gradientUnits="userSpaceOnUse" gradientTransform="matrix(9.46939 0 0 12.0213 279.801 164.565)">
            <stop stop-color="#6D47D3"/>
            <stop offset=".99" stop-color="#713592"/>
        </radialGradient>
        <radialGradient id="pq9bxsvp9D" cx="0" cy="0" r="1" gradientUnits="userSpaceOnUse" gradientTransform="matrix(9.59831 0 0 12.1849 292.488 -479.714)">
            <stop stop-color="#FFD1A9"/>
            <stop offset=".99" stop-color="#F99B98"/>
        </radialGradient>
        <radialGradient id="6w9ioye2fE" cx="0" cy="0" r="1" gradientUnits="userSpaceOnUse" gradientTransform="matrix(9.72722 0 0 12.3486 305.173 164.565)">
            <stop stop-color="#6D47D3"/>
            <stop offset=".99" stop-color="#713592"/>
        </radialGradient>
        <radialGradient id="swbt4va0lF" cx="0" cy="0" r="1" gradientUnits="userSpaceOnUse" gradientTransform="matrix(49.7235 0 0 57.165 241.146 143.655)">
            <stop stop-color="#7C65E0"/>
            <stop offset=".99" stop-color="#954CB8"/>
        </radialGradient>
        <radialGradient id="j6yjaa15bG" cx="0" cy="0" r="1" gradientUnits="userSpaceOnUse" gradientTransform="matrix(88.8609 .82217 -.64965 70.2143 241.53 146.761)">
            <stop stop-color="#FFECC0"/>
            <stop offset=".99" stop-color="#F9C78C"/>
        </radialGradient>
        <radialGradient id="a2s0a9cc4H" cx="0" cy="0" r="1" gradientUnits="userSpaceOnUse" gradientTransform="matrix(88.8609 .82217 -.64965 70.2143 241.53 146.761)">
            <stop stop-color="#FFECC0"/>
            <stop offset=".99" stop-color="#F9C78C"/>
        </radialGradient>
        <radialGradient id="yo634n69iI" cx="0" cy="0" r="1" gradientUnits="userSpaceOnUse" gradientTransform="matrix(88.9424 .82293 -.65024 70.2787 241.631 147.15)">
            <stop stop-color="#FFECC0"/>
            <stop offset=".99" stop-color="#F9C78C"/>
        </radialGradient>
        <radialGradient id="p47mpqxjkJ" cx="0" cy="0" r="1" gradientUnits="userSpaceOnUse" gradientTransform="matrix(88.9424 .82293 -.65024 70.2787 241.631 147.15)">
            <stop stop-color="#FFECC0"/>
            <stop offset=".99" stop-color="#F9C78C"/>
        </radialGradient>
        <radialGradient id="5zelr1az1K" cx="0" cy="0" r="1" gradientUnits="userSpaceOnUse" gradientTransform="matrix(91.2253 .84405 -.66693 72.08241 241.873 147.162)">
            <stop stop-color="#FFECC0"/>
            <stop offset=".99" stop-color="#F9C78C"/>
        </radialGradient>
        <radialGradient id="09cnsfjmgL" cx="0" cy="0" r="1" gradientUnits="userSpaceOnUse" gradientTransform="matrix(91.2253 .84405 -.66693 72.08241 241.873 147.162)">
            <stop stop-color="#FFECC0"/>
            <stop offset=".99" stop-color="#F9C78C"/>
        </radialGradient>
        <radialGradient id="ge7vm4bmyM" cx="0" cy="0" r="1" gradientUnits="userSpaceOnUse" gradientTransform="matrix(89.20108 .82532 -.65214 70.48308 241.768 146.805)">
            <stop stop-color="#FFECC0"/>
            <stop offset=".99" stop-color="#F9C78C"/>
        </radialGradient>
        <radialGradient id="n4jgpmi66N" cx="0" cy="0" r="1" gradientUnits="userSpaceOnUse" gradientTransform="matrix(89.20108 .82532 -.65214 70.48308 241.768 146.805)">
            <stop stop-color="#FFECC0"/>
            <stop offset=".99" stop-color="#F9C78C"/>
        </radialGradient>
        <radialGradient id="uxbwzv2nuO" cx="0" cy="0" r="1" gradientUnits="userSpaceOnUse" gradientTransform="matrix(88.8274 .82186 -.6494 70.1878 241.783 145.967)">
            <stop stop-color="#FFECC0"/>
            <stop offset=".99" stop-color="#F9C78C"/>
        </radialGradient>
        <radialGradient id="hdke0elxuP" cx="0" cy="0" r="1" gradientUnits="userSpaceOnUse" gradientTransform="matrix(88.8274 .82186 -.6494 70.1878 241.783 145.967)">
            <stop stop-color="#FFECC0"/>
            <stop offset=".99" stop-color="#F9C78C"/>
        </radialGradient>
        <radialGradient id="p3owjo5kkU" cx="0" cy="0" r="1" gradientUnits="userSpaceOnUse" gradientTransform="rotate(-5.381 946.11 -1769.485) scale(17.1371 15.4419)">
            <stop stop-color="#7C65E0"/>
            <stop offset=".99" stop-color="#954CB8"/>
        </radialGradient>
        <radialGradient id="suxhlbcbuY" cx="0" cy="0" r="1" gradientUnits="userSpaceOnUse" gradientTransform="matrix(10.837 -1.533 1.5333 10.83919 169.696 76.364)">
            <stop stop-color="#FFD1A9"/>
            <stop offset=".99" stop-color="#F9B7A0"/>
        </radialGradient>
        <radialGradient id="xjg82utiaZ" cx="0" cy="0" r="1" gradientUnits="userSpaceOnUse" gradientTransform="matrix(2.66834 -.37746 .37754 2.66887 152.454 60.766)">
            <stop stop-color="#EBD7E3"/>
            <stop offset=".98" stop-color="#BDAFD2"/>
        </radialGradient>
        <radialGradient id="e3an5f07maa" cx="0" cy="0" r="1" gradientUnits="userSpaceOnUse" gradientTransform="rotate(171.948 88.967 34.71) scale(2.69491 2.69544)">
            <stop stop-color="#EBD7E3"/>
            <stop offset=".98" stop-color="#BDAFD2"/>
        </radialGradient>
        <radialGradient id="wy13bvn7zab" cx="0" cy="0" r="1" gradientUnits="userSpaceOnUse" gradientTransform="matrix(9.70567 -1.37296 1.37323 9.70755 163.335 73.397)">
            <stop stop-color="#0FF"/>
            <stop offset=".99" stop-color="#26A9FF"/>
        </radialGradient>
        <radialGradient id="tr3zwxtynad" cx="0" cy="0" r="1" gradientUnits="userSpaceOnUse" gradientTransform="matrix(5.85377 -.82807 .82823 5.8549 176.866 71.707)">
            <stop stop-color="#0FF"/>
            <stop offset=".99" stop-color="#26A9FF"/>
        </radialGradient>
        <radialGradient id="xtf2z0iuaae" cx="0" cy="0" r="1" gradientUnits="userSpaceOnUse" gradientTransform="rotate(-8.052 450.765 -1155.888) scale(10.9545 10.9566)">
            <stop stop-color="#6D47D3"/>
            <stop offset=".99" stop-color="#713592"/>
        </radialGradient>
        <radialGradient id="arz1ecia6af" cx="0" cy="0" r="1" gradientUnits="userSpaceOnUse" gradientTransform="matrix(2.54568 -.3601 .45715 3.23168 150.974 62.767)">
            <stop stop-color="#6D47D3"/>
            <stop offset=".99" stop-color="#713592"/>
        </radialGradient>
        <radialGradient id="3uuiadlsyag" cx="0" cy="0" r="1" gradientUnits="userSpaceOnUse" gradientTransform="matrix(2.51052 -.35514 .45084 3.18705 154.308 62.295)">
            <stop stop-color="#FFD1A9"/>
            <stop offset=".99" stop-color="#F99B98"/>
        </radialGradient>
        <radialGradient id="nmvuynlvuah" cx="0" cy="0" r="1" gradientUnits="userSpaceOnUse" gradientTransform="matrix(2.47723 -.35043 .44486 3.14478 157.644 61.823)">
            <stop stop-color="#6D47D3"/>
            <stop offset=".99" stop-color="#713592"/>
        </radialGradient>
        <radialGradient id="z6seyj2njai" cx="0" cy="0" r="1" gradientUnits="userSpaceOnUse" gradientTransform="matrix(2.44393 -.34572 .43888 3.1025 160.98 61.354)">
            <stop stop-color="#FFD1A9"/>
            <stop offset=".99" stop-color="#F99B98"/>
        </radialGradient>
        <radialGradient id="j76dhf9cwaj" cx="0" cy="0" r="1" gradientUnits="userSpaceOnUse" gradientTransform="matrix(2.41062 -.341 .4329 3.06023 164.316 60.882)">
            <stop stop-color="#6D47D3"/>
            <stop offset=".99" stop-color="#713592"/>
        </radialGradient>
        <radialGradient id="vil4klt44ak" cx="0" cy="0" r="1" gradientUnits="userSpaceOnUse" gradientTransform="matrix(2.39952 -.33944 .4309 3.04613 167.666 60.408)">
            <stop stop-color="#FFD1A9"/>
            <stop offset=".99" stop-color="#F99B98"/>
        </radialGradient>
        <radialGradient id="4p380qwftal" cx="0" cy="0" r="1" gradientUnits="userSpaceOnUse" gradientTransform="matrix(2.42172 -.34257 .4349 3.07432 171.009 59.935)">
            <stop stop-color="#6D47D3"/>
            <stop offset=".99" stop-color="#713592"/>
        </radialGradient>
        <radialGradient id="n9a7yk083am" cx="0" cy="0" r="1" gradientUnits="userSpaceOnUse" gradientTransform="matrix(2.45502 -.34729 .44087 3.1166 174.345 59.463)">
            <stop stop-color="#FFD1A9"/>
            <stop offset=".99" stop-color="#F99B98"/>
        </radialGradient>
        <radialGradient id="f46dfc810an" cx="0" cy="0" r="1" gradientUnits="userSpaceOnUse" gradientTransform="matrix(2.48832 -.352 .44685 3.15887 177.68 58.991)">
            <stop stop-color="#6D47D3"/>
            <stop offset=".99" stop-color="#713592"/>
        </radialGradient>
        <radialGradient id="mibhr3faaao" cx="0" cy="0" r="1" gradientUnits="userSpaceOnUse" gradientTransform="matrix(2.52349 -.35697 .45316 3.2035 181.016 58.52)">
            <stop stop-color="#FFD1A9"/>
            <stop offset=".99" stop-color="#F99B98"/>
        </radialGradient>
        <radialGradient id="ys6xm1trlap" cx="0" cy="0" r="1" gradientUnits="userSpaceOnUse" gradientTransform="matrix(2.55679 -.36168 .45914 3.24577 184.35 58.048)">
            <stop stop-color="#6D47D3"/>
            <stop offset=".99" stop-color="#713592"/>
        </radialGradient>
        <radialGradient id="f3lx97e5jaq" cx="0" cy="0" r="1" gradientUnits="userSpaceOnUse" gradientTransform="matrix(13.07037 -1.84893 2.12561 15.0263 166.307 53.993)">
            <stop stop-color="#7C65E0"/>
            <stop offset=".99" stop-color="#954CB8"/>
        </radialGradient>
        <radialGradient id="hin1r83kxat" cx="0" cy="0" r="1" gradientUnits="userSpaceOnUse" gradientTransform="matrix(2.96958 -.42007 .42016 2.97015 162.431 69.638)">
            <stop stop-color="#7C65E0"/>
            <stop offset=".99" stop-color="#954CB8"/>
        </radialGradient>
        <radialGradient id="hkaa84i75au" cx="0" cy="0" r="1" gradientUnits="userSpaceOnUse" gradientTransform="matrix(2.72528 -.38552 .38559 2.7258 161.988 67.513)">
            <stop stop-color="#7C65E0"/>
            <stop offset=".99" stop-color="#954CB8"/>
        </radialGradient>
        <linearGradient id="42kubma2li" x1="68.414" y1="275.072" x2="296.343" y2="275.072" gradientUnits="userSpaceOnUse">
            <stop stop-color="#E03347"/>
            <stop offset="1" stop-color="#FF6E27"/>
        </linearGradient>
        <linearGradient id="kkxr604a0k" x1="151.705" y1="242.293" x2="334.376" y2="236.968" gradientUnits="userSpaceOnUse">
            <stop stop-color="#603082"/>
            <stop offset=".99" stop-color="#2A0E51"/>
        </linearGradient>
        <linearGradient id="jb4rwbufyl" x1="241.652" y1="147.234" x2="241.652" y2="103.431" gradientUnits="userSpaceOnUse">
            <stop stop-color="#FFA700"/>
            <stop offset="1" stop-color="#FFD328"/>
        </linearGradient>
        <linearGradient id="q266h8pcjm" x1="241.856" y1="228.347" x2="241.856" y2="140.88" gradientUnits="userSpaceOnUse">
            <stop stop-color="#FF6E27"/>
            <stop offset="1" stop-color="#E03347"/>
        </linearGradient>
        <linearGradient id="eknmfe0cfr" x1="270.594" y1="231.559" x2="270.594" y2="183.951" gradientUnits="userSpaceOnUse">
            <stop stop-color="#6D47D3"/>
            <stop offset=".99" stop-color="#713592"/>
        </linearGradient>
        <linearGradient id="ukq21xs42Q" x1="223.38" y1="213.108" x2="223.38" y2="179.486" gradientUnits="userSpaceOnUse">
            <stop stop-color="#953D5E"/>
            <stop offset="1" stop-color="#86CCD9"/>
        </linearGradient>
        <linearGradient id="tur9p2chyR" x1="271.246" y1="215.301" x2="271.246" y2="186.674" gradientUnits="userSpaceOnUse">
            <stop stop-color="#953D5E"/>
            <stop offset="1" stop-color="#86CCD9"/>
        </linearGradient>
        <linearGradient id="exnb6b0a6S" x1="203.097" y1="111.668" x2="316.362" y2="111.668" gradientUnits="userSpaceOnUse">
            <stop stop-color="#FF6E27"/>
            <stop offset="1" stop-color="#E03347"/>
        </linearGradient>
        <linearGradient id="4jusfoc9zT" x1="260.517" y1="126.753" x2="314.187" y2="126.753" gradientUnits="userSpaceOnUse">
            <stop stop-color="#C73E27"/>
            <stop offset="1" stop-color="#A4152C"/>
        </linearGradient>
        <linearGradient id="jls7vu6i4V" x1="146.509" y1="84.844" x2="194.811" y2="80.296" gradientUnits="userSpaceOnUse">
            <stop stop-color="#603082"/>
            <stop offset=".99" stop-color="#2A0E51"/>
        </linearGradient>
        <linearGradient id="dibycsyvmW" x1="166.786" y1="54.878" x2="165.158" y2="43.365" gradientUnits="userSpaceOnUse">
            <stop stop-color="#FFA700"/>
            <stop offset="1" stop-color="#FFD328"/>
        </linearGradient>
        <linearGradient id="ekr3ct4o8X" x1="169.854" y1="76.191" x2="166.601" y2="53.201" gradientUnits="userSpaceOnUse">
            <stop stop-color="#FF6E27"/>
            <stop offset="1" stop-color="#E03347"/>
        </linearGradient>
        <linearGradient id="1tbqzowufac" x1="177.528" y1="75.97" x2="175.758" y2="63.456" gradientUnits="userSpaceOnUse">
            <stop stop-color="#6D47D3"/>
            <stop offset=".99" stop-color="#713592"/>
        </linearGradient>
        <linearGradient id="6hssw365mar" x1="164.432" y1="72.874" x2="163.182" y2="64.034" gradientUnits="userSpaceOnUse">
            <stop stop-color="#953D5E"/>
            <stop offset="1" stop-color="#86CCD9"/>
        </linearGradient>
        <linearGradient id="zabr0sdfjas" x1="177.094" y1="71.668" x2="176.03" y2="64.145" gradientUnits="userSpaceOnUse">
            <stop stop-color="#953D5E"/>
            <stop offset="1" stop-color="#86CCD9"/>
        </linearGradient>
        <linearGradient id="60t95k7aaav" x1="155.329" y1="46.963" x2="185.101" y2="42.753" gradientUnits="userSpaceOnUse">
            <stop stop-color="#FF6E27"/>
            <stop offset="1" stop-color="#E03347"/>
        </linearGradient>
        <linearGradient id="22dxswqfnaw" x1="170.982" y1="48.794" x2="185.09" y2="46.799" gradientUnits="userSpaceOnUse">
            <stop stop-color="#C73E27"/>
            <stop offset="1" stop-color="#A4152C"/>
        </linearGradient>
        <linearGradient id="cbz2uz7z0ax" x1="170.598" y1="84.958" x2="170.598" y2="78.285" gradientUnits="userSpaceOnUse">
            <stop stop-color="#C3D3FB"/>
            <stop offset=".39" stop-color="#898AB1"/>
            <stop offset=".81" stop-color="#514168"/>
            <stop offset="1" stop-color="#3B254C"/>
        </linearGradient>
    </defs>
</svg>
