<svg xmlns="http://www.w3.org/2000/svg" width="52" height="32" viewBox="0 0 52 32">
    <g fill="none" fill-rule="evenodd">
        <rect width="51.467" height="31.467" x=".267" y=".267" fill="#FFF" stroke="#E9E9E9" stroke-width=".533" rx="2.133"/>
        <path fill="#C00" d="M29.076 16.408c0 5.749-4.718 10.408-10.538 10.408S8 22.156 8 16.408C8 10.66 12.718 6 18.538 6s10.538 4.66 10.538 10.408"/>
        <path fill="#F90" d="M32.686 6a10.575 10.575 0 0 0-8.138 3.796h2.13c.29.35.558.717.803 1.102h-3.737c-.223.354-.426.722-.607 1.103h4.95c.17.356.318.724.447 1.101H22.69c-.122.36-.224.727-.306 1.102h6.454a10.36 10.36 0 0 1-.305 5.51H22.69c.128.378.277.746.446 1.103h4.95c-.18.38-.383.748-.607 1.102h-3.736c.244.384.513.752.804 1.101h2.128c-.327.393-.682.761-1.064 1.103a10.573 10.573 0 0 0 7.074 2.693c5.82 0 10.538-4.66 10.538-10.408C43.224 10.66 38.506 6 32.686 6"/>
        <path fill="#006" d="M16.077 17.548a1.992 1.992 0 0 0-.255-.018c-.648 0-.976.22-.976.654 0 .267.16.437.41.437.466 0 .801-.438.821-1.073zm.833 1.913h-.949l.022-.445c-.289.351-.675.519-1.199.519-.62 0-1.045-.478-1.045-1.173 0-1.045.74-1.655 2.009-1.655.13 0 .296.012.466.033.035-.142.045-.202.045-.278 0-.285-.2-.391-.734-.391a3.858 3.858 0 0 0-1.211.193l.159-.965c.57-.166.946-.228 1.369-.228.982 0 1.503.436 1.502 1.26.002.22-.035.492-.093.85-.1.622-.312 1.955-.341 2.28zM13.26 19.46h-1.144l.656-4.057-1.464 4.058h-.78l-.096-4.036-.689 4.036h-1.07l.894-5.28h1.645l.1 2.955 1.003-2.955h1.83l-.885 5.28M34.1 17.548a1.983 1.983 0 0 0-.255-.018c-.649 0-.976.22-.976.654 0 .267.16.437.41.437.465 0 .801-.438.821-1.073zm.833 1.913h-.948l.021-.445c-.289.351-.675.519-1.198.519-.621 0-1.046-.478-1.046-1.173 0-1.045.74-1.655 2.009-1.655.13 0 .296.012.466.033.035-.142.045-.202.045-.278 0-.285-.2-.391-.734-.391a3.866 3.866 0 0 0-1.212.193c.013-.071.16-.965.16-.965.57-.166.946-.228 1.369-.228.983 0 1.502.436 1.501 1.26.002.22-.034.492-.092.85-.099.622-.313 1.955-.341 2.28zM21.994 19.395c-.313.098-.557.14-.822.14-.585 0-.904-.332-.904-.943-.008-.19.084-.69.157-1.145.066-.4.496-2.93.496-2.93h1.137l-.133.65h.687l-.155 1.032h-.69c-.131.817-.32 1.834-.322 1.969 0 .22.12.318.392.318.13 0 .231-.014.309-.04l-.152.95M25.48 19.36c-.39.119-.767.176-1.166.175-1.273-.002-1.937-.658-1.937-1.915 0-1.468.844-2.549 1.99-2.549.938 0 1.537.605 1.537 1.554 0 .315-.041.622-.14 1.056h-2.265c-.076.623.327.882.989.882.406 0 .774-.083 1.182-.27l-.19 1.068zm-.639-2.544c.007-.09.12-.767-.53-.767-.36 0-.62.273-.725.767h1.255zM17.596 16.525c0 .542.266.917.87 1.198.464.216.536.28.536.474 0 .267-.204.389-.657.389a3.25 3.25 0 0 1-1.025-.17l-.157.992c.26.055.491.107 1.19.127 1.207 0 1.765-.454 1.765-1.435 0-.59-.233-.936-.807-1.197-.479-.217-.534-.266-.534-.466 0-.232.19-.35.56-.35.224 0 .53.023.822.064l.162-.996a7.818 7.818 0 0 0-1.007-.084c-1.28 0-1.722.66-1.718 1.454M31.045 15.185c.317 0 .614.081 1.022.285l.187-1.146c-.168-.065-.757-.447-1.257-.447-.765 0-1.413.376-1.868.994-.664-.217-.938.222-1.272.66l-.297.068c.022-.144.043-.287.036-.432h-1.05c-.144 1.33-.398 2.675-.597 4.005l-.053.289h1.145c.191-1.226.295-2.011.36-2.543l.43-.236c.065-.237.266-.316.67-.306-.053.28-.081.574-.081.88 0 1.404.768 2.279 2 2.279.316 0 .589-.041 1.01-.155l.201-1.203c-.38.184-.69.271-.971.271-.665 0-1.068-.485-1.068-1.286 0-1.163.598-1.977 1.453-1.977M40.73 14.181l-.254 1.526c-.312-.407-.648-.701-1.092-.701-.577 0-1.102.432-1.446 1.069a9.507 9.507 0 0 1-.974-.266v.005a6.28 6.28 0 0 0 .05-.647h-1.051c-.143 1.33-.398 2.675-.597 4.005l-.052.289h1.145c.154-.991.272-1.815.36-2.467.39-.35.587-.653.981-.634a3.64 3.64 0 0 0-.277 1.394c0 1.072.55 1.78 1.381 1.78.42 0 .741-.142 1.055-.473l-.054.4h1.083l.871-5.28h-1.128zM39.3 18.47c-.39 0-.586-.285-.586-.847 0-.843.368-1.442.887-1.442.393 0 .606.296.606.841 0 .851-.375 1.448-.907 1.448z"/>
        <path fill="#FFF" d="M13.59 19.147h-1.144l.655-4.058-1.463 4.058h-.78l-.096-4.034-.69 4.034h-1.07l.894-5.278h1.646l.046 3.267 1.11-3.267h1.776l-.885 5.278M16.407 17.235a1.925 1.925 0 0 0-.256-.018c-.648 0-.976.22-.976.654 0 .266.16.437.41.437.466 0 .802-.438.822-1.073zm.832 1.912h-.948l.022-.444c-.29.35-.675.519-1.2.519-.62 0-1.044-.479-1.044-1.173 0-1.046.739-1.655 2.008-1.655.13 0 .296.012.466.034.036-.143.045-.203.045-.28 0-.284-.2-.39-.734-.39a3.843 3.843 0 0 0-1.21.193l.158-.965c.57-.166.946-.228 1.37-.228.982 0 1.502.436 1.501 1.26.002.22-.035.493-.093.85-.099.621-.312 1.955-.341 2.28zM32.584 14.01l-.188 1.146c-.408-.203-.704-.285-1.022-.285-.854 0-1.453.816-1.453 1.979 0 .8.403 1.285 1.068 1.285.282 0 .593-.086.971-.27l-.2 1.202c-.422.113-.694.155-1.012.155-1.231 0-1.999-.875-1.999-2.28 0-1.887 1.061-3.206 2.577-3.206.5 0 1.09.21 1.258.275M34.43 17.235a1.911 1.911 0 0 0-.256-.018c-.648 0-.976.22-.976.654 0 .266.16.437.41.437.466 0 .802-.438.821-1.073zm.832 1.912h-.948l.021-.444c-.289.35-.675.519-1.198.519-.62 0-1.045-.479-1.045-1.173 0-1.046.738-1.655 2.008-1.655.13 0 .296.012.466.034.035-.143.045-.203.045-.28 0-.284-.2-.39-.734-.39a3.845 3.845 0 0 0-1.21.193l.158-.965c.57-.166.946-.228 1.369-.228.982 0 1.503.436 1.502 1.26.002.22-.035.493-.093.85-.099.621-.312 1.955-.341 2.28zM22.323 19.082c-.313.098-.557.14-.822.14-.584 0-.904-.332-.904-.943-.008-.19.085-.689.157-1.145.066-.401.496-2.93.496-2.93h1.138l-.134.65h.584l-.155 1.032h-.586c-.132.817-.32 1.834-.323 1.968 0 .222.12.318.392.318.13 0 .232-.012.309-.04l-.152.95M25.81 19.048a3.94 3.94 0 0 1-1.167.174c-1.273-.001-1.936-.658-1.936-1.915 0-1.468.844-2.549 1.989-2.549.938 0 1.537.605 1.537 1.555 0 .314-.041.621-.14 1.055h-2.265c-.076.623.327.883.989.883.407 0 .774-.083 1.183-.271l-.19 1.068zm-.639-2.546c.006-.09.12-.766-.53-.766-.361 0-.62.273-.726.766h1.256zM17.925 16.211c0 .544.267.918.871 1.2.463.215.535.278.535.473 0 .268-.204.389-.657.389a3.26 3.26 0 0 1-1.025-.17l-.157.991c.26.057.492.108 1.19.128 1.208 0 1.765-.454 1.765-1.435 0-.59-.233-.936-.806-1.196-.48-.218-.535-.266-.535-.467 0-.232.19-.351.56-.351.224 0 .531.024.822.065l.163-.996a7.883 7.883 0 0 0-1.007-.084c-1.28 0-1.723.66-1.72 1.453M41.317 19.147h-1.082l.053-.4c-.313.332-.635.475-1.054.475-.832 0-1.382-.708-1.382-1.782 0-1.428.853-2.631 1.862-2.631.443 0 .78.179 1.092.585l.254-1.525h1.128l-.871 5.278zm-1.688-.992c.533 0 .907-.596.907-1.446 0-.546-.213-.842-.606-.842-.519 0-.887.598-.887 1.442 0 .562.197.846.586.846zM36.292 14.854c-.143 1.33-.397 2.675-.596 4.005l-.052.288h1.144c.41-2.625.508-3.137 1.15-3.073.102-.538.292-1.008.434-1.246-.48-.098-.747.17-1.098.677.028-.22.079-.433.07-.65h-1.052M26.875 14.854c-.144 1.33-.399 2.675-.597 4.005l-.052.288h1.144c.41-2.625.508-3.137 1.149-3.073.103-.538.293-1.008.435-1.246-.479-.098-.747.17-1.097.677.028-.22.078-.433.069-.65h-1.051"/>
    </g>
</svg>
