<svg xmlns="http://www.w3.org/2000/svg" xmlns:xlink="http://www.w3.org/1999/xlink" width="15" height="15" viewBox="0 0 15 15">
    <defs>
        <path id="a" d="M.033.346h14.633v6.745H.033z"/>
    </defs>
    <g fill="none" fill-rule="evenodd">
        <g transform="translate(0 .556)">
            <mask id="b" fill="#fff">
                <use xlink:href="#a"/>
            </mask>
            <path fill="#8D8D8D" d="M13.023 7.091a1.65 1.65 0 0 1-1.424-.818 1.645 1.645 0 0 1-2.843 0 1.645 1.645 0 0 1-2.845 0 1.647 1.647 0 0 1-2.844 0 1.65 1.65 0 0 1-1.422.818A1.646 1.646 0 0 1 0 5.448v-2.19c0-.025.004-.054.015-.08l1.05-2.69a.222.222 0 0 1 .207-.142h12.122c.091 0 .174.057.206.141l1.05 2.691a.206.206 0 0 1 .016.08v2.19c0 .905-.738 1.643-1.643 1.643zm-1.424-1.867c.124 0 .224.1.224.224a1.2 1.2 0 0 0 2.4 0V3.302l-.98-2.51H1.422l-.978 2.51v2.146a1.2 1.2 0 0 0 2.4 0 .222.222 0 1 1 .443 0 1.201 1.201 0 1 0 2.402 0 .222.222 0 0 1 .443 0 1.2 1.2 0 0 0 2.4 0 .223.223 0 0 1 .445 0 1.2 1.2 0 0 0 2.4 0c0-.124.1-.224.221-.224z" mask="url(#b)"/>
        </g>
        <path fill="#8D8D8D" d="M12.617 14.999H2.05a.966.966 0 0 1-.966-.966V9.35a.222.222 0 0 1 .445 0v4.683c0 .289.234.523.52.523h10.57a.523.523 0 0 0 .522-.523V9.35a.222.222 0 0 1 .445 0v4.683a.967.967 0 0 1-.968.966z"/>
        <path fill="#8D8D8D" d="M6.415 14.91H3.197a.223.223 0 0 1-.222-.221v-5.49c0-.125.1-.225.222-.225h3.218c.122 0 .221.1.221.224v5.49c0 .122-.1.222-.221.222zm-2.995-.445h2.772V9.419H3.42v5.046zM11.47 12.343H7.662a.223.223 0 0 1-.224-.224V9.2c0-.125.1-.222.224-.222h3.806c.122 0 .222.097.222.221v2.921c0 .124-.1.224-.222.224zm-3.586-.445h3.362V9.419H7.884v2.479z"/>
    </g>
</svg>
