<svg width="129" height="158" viewBox="0 0 129 158" fill="none" xmlns="http://www.w3.org/2000/svg">
<path d="M86.0007 85.417C92.6532 85.417 99.0332 87.9368 103.737 92.422C108.441 96.9073 111.084 102.991 111.084 109.334C111.084 115.677 108.441 121.76 103.737 126.245C99.0332 130.731 92.6532 133.25 86.0007 133.25C79.3481 133.25 72.9681 130.731 68.2641 126.245C63.56 121.76 60.9173 115.677 60.9173 109.334C60.9173 102.991 63.56 96.9073 68.2641 92.422C72.9681 87.9368 79.3481 85.417 86.0007 85.417ZM96.7507 109.334C96.7507 106.615 95.6181 104.008 93.6021 102.086C91.586 100.164 88.8517 99.0837 86.0007 99.0837C83.1496 99.0837 80.4153 100.164 78.3993 102.086C76.3832 104.008 75.2507 106.615 75.2507 109.334C75.2507 112.052 76.3832 114.659 78.3993 116.581C80.4153 118.504 83.1496 119.584 86.0007 119.584C88.8517 119.584 91.586 118.504 93.6021 116.581C95.6181 114.659 96.7507 112.052 96.7507 109.334Z" fill="#1877F2" fill-opacity="0.1"/>
<path d="M46.397 34.9591L69.1798 4.50293L152.951 68.3126L157.595 68.2648V68.3331H161.25V150.333H10.75V68.3331H17.6443L31.3613 30.0733L46.397 34.9591ZM32.7875 68.3331H104.655L51.127 50.9354L40.2193 47.6076L32.7875 68.3331ZM60.5583 39.5648L115.813 57.5228L72.0537 24.1898L60.5583 39.5648ZM146.917 124.155V94.4979C143.893 93.4763 141.147 91.8242 138.878 89.662C136.609 87.4999 134.875 84.8822 133.802 81.9998H38.1983C37.1257 84.8832 35.3917 87.502 33.1229 89.6654C30.854 91.8287 28.1074 93.482 25.0833 94.5048V124.161C28.1074 125.184 30.854 126.837 33.1229 129.001C35.3917 131.164 37.1257 133.783 38.1983 136.666H133.787C134.861 133.781 136.597 131.16 138.868 128.995C141.14 126.83 143.889 125.177 146.917 124.155Z" fill="#1877F2" fill-opacity="0.1"/>
</svg>
