<svg xmlns="http://www.w3.org/2000/svg" width="20" height="20" viewBox="0 0 20 20">
    <path fill="#2396FF" fill-rule="evenodd" d="M1.249 10c.404 0 .8-.195 1.041-.557l.269-.403c.134.546.604.96 1.19.96C4.442 10 5 9.44 5 8.75a1.25 1.25 0 1 0 2.5 0 1.25 1.25 0 1 0 2.5 0 1.25 1.25 0 1 0 2.5 0 1.25 1.25 0 1 0 2.5 0c0 .691.559 1.25 1.25 1.25.588 0 1.057-.414 1.191-.96l.269.403a1.248 1.248 0 0 0 1.733.347 1.25 1.25 0 0 0 .347-1.733L17.5 5h-5V3.75h1.25c.69 0 1.25-.56 1.25-1.25V1.25C15 .56 14.44 0 13.75 0h-7.5A1.25 1.25 0 0 0 5 1.25V2.5c0 .691.559 1.25 1.25 1.25H7.5V5h-5L.21 8.057A1.25 1.25 0 0 0 1.249 10zm7.5-5h2.5V3.75h-2.5V5zM20 20H0c0-1.035.84-1.875 1.875-1.875h16.25c1.035 0 1.875.84 1.875 1.875zM3.75 10.625H2.5V17.5h15v-6.875H3.75zm0 5.625H7.5v-4.375H3.75v4.375zm5 0h7.5v-4.375h-7.5v4.375zm-3.124-2.5a.625.625 0 1 1-1.25 0 .625.625 0 0 1 1.25 0z"/>
</svg>
