<svg 
width="16" 
height="17" 
viewBox="0 0 16 17" 
fill="none" 
xmlns="http://www.w3.org/2000/svg">
<path d="M2.00669 7.6465C1.96157 8.45365 2.21219 9.24957 2.71164 9.88523C3.21109 10.5209 3.92512 10.9527 4.72002 11.0998L4.19336 10.5732C4.13163 10.5114 4.08267 10.4382 4.04927 10.3575C4.01587 10.2769 3.99868 10.1905 3.99868 10.1032C3.99868 9.92689 4.0687 9.75782 4.19336 9.63317C4.31801 9.50852 4.48707 9.43849 4.66336 9.43849C4.83964 9.43849 5.0087 9.50852 5.13336 9.63317L6.86002 11.3598C7.12002 11.6198 7.12002 12.0398 6.86002 12.2998L5.14002 14.0332C5.0783 14.0949 5.00503 14.1439 4.92439 14.1773C4.84374 14.2107 4.75731 14.2279 4.67002 14.2279C4.58274 14.2279 4.4963 14.2107 4.41566 14.1773C4.33502 14.1439 4.26174 14.0949 4.20002 14.0332C4.1383 13.9714 4.08934 13.8982 4.05594 13.8175C4.02253 13.7369 4.00534 13.6505 4.00534 13.5632C4.00534 13.4759 4.02253 13.3895 4.05594 13.3088C4.08934 13.2282 4.1383 13.1549 4.20002 13.0932L4.78669 12.5065V12.4665C3.59324 12.3247 2.50063 11.7276 1.73674 10.7998C0.972853 9.87191 0.596682 8.68497 0.686689 7.4865C0.860022 5.01984 3.03336 3.1665 5.50669 3.1665H6.66669C7.03336 3.1665 7.33336 3.4665 7.33336 3.83317C7.33336 4.19984 7.03336 4.49984 6.66669 4.49984H5.48002C3.68002 4.49984 2.10002 5.85984 2.00669 7.6465ZM10 7.83317H13.3334C14.0667 7.83317 14.6667 7.23317 14.6667 6.49984V4.49984C14.6667 3.7665 14.0667 3.1665 13.3334 3.1665H10C9.26669 3.1665 8.66669 3.7665 8.66669 4.49984V6.49984C8.66669 7.23317 9.26669 7.83317 10 7.83317ZM13.3334 6.49984H10V4.49984H13.3334V6.49984ZM13.3334 13.8332H10C9.26669 13.8332 8.66669 13.2332 8.66669 12.4998V10.4998C8.66669 9.7665 9.26669 9.1665 10 9.1665H13.3334C14.0667 9.1665 14.6667 9.7665 14.6667 10.4998V12.4998C14.6667 13.2332 14.0667 13.8332 13.3334 13.8332Z" fill="#606060"/>
</svg>