<?xml version="1.0" encoding="UTF-8"?>
<svg width="100px" height="100px" viewBox="0 0 100 100" version="1.1" xmlns="http://www.w3.org/2000/svg" xmlns:xlink="http://www.w3.org/1999/xlink">
    <!-- Generator: Sketch 60 (88103) - https://sketch.com -->
    <title>namecheap logo</title>
    <desc>Created with Sketch.</desc>
    <defs>
        <linearGradient x1="13.3220455%" y1="94.9449067%" x2="82.6195455%" y2="1.13156385%" id="linearGradient-1">
            <stop stop-color="#D4202C" offset="0%"></stop>
            <stop stop-color="#D82D2B" stop-opacity="0.9583" offset="4.166156%"></stop>
            <stop stop-color="#E25226" stop-opacity="0.824" offset="17.6%"></stop>
            <stop stop-color="#EB7123" stop-opacity="0.6833" offset="31.67%"></stop>
            <stop stop-color="#F28920" stop-opacity="0.5365" offset="46.35%"></stop>
            <stop stop-color="#F69A1E" stop-opacity="0.3812" offset="61.88%"></stop>
            <stop stop-color="#F9A41D" stop-opacity="0.2114" offset="78.86%"></stop>
            <stop stop-color="#FAA71D" stop-opacity="0" offset="100%"></stop>
        </linearGradient>
        <linearGradient x1="86.6243182%" y1="5.04045911%" x2="17.3261364%" y2="98.8545194%" id="linearGradient-2">
            <stop stop-color="#D4202C" offset="0%"></stop>
            <stop stop-color="#D82D2B" stop-opacity="0.9583" offset="4.166156%"></stop>
            <stop stop-color="#E25226" stop-opacity="0.824" offset="17.6%"></stop>
            <stop stop-color="#EB7123" stop-opacity="0.6833" offset="31.67%"></stop>
            <stop stop-color="#F28920" stop-opacity="0.5365" offset="46.35%"></stop>
            <stop stop-color="#F69A1E" stop-opacity="0.3812" offset="61.88%"></stop>
            <stop stop-color="#F9A41D" stop-opacity="0.2114" offset="78.86%"></stop>
            <stop stop-color="#FAA71D" stop-opacity="0" offset="100%"></stop>
        </linearGradient>
    </defs>
    <g id="namecheap-logo" stroke="none" stroke-width="1" fill="none" fill-rule="evenodd">
        <rect fill="#FFFFFF" x="0" y="0" width="100" height="100"></rect>
        <g id="namecheap-seeklogo.com" transform="translate(3.000000, 24.000000)" fill-rule="nonzero">
            <path d="M85.1875,0 C81.8828125,0 79.01875,1.8359375 77.5132812,4.51640625 L77.3296875,4.88359375 L70.4265625,18.4695312 L61.6875,35.690625 L67.415625,46.9632812 L67.7460938,47.5875 C68.6273438,49.1296875 69.9492188,50.4148437 71.5648437,51.1859375 C73.1804688,50.378125 74.5023437,49.1296875 75.3835938,47.5875 L75.7140625,46.9632812 L92.8617187,13.1820312 L93.265625,12.3742187 C93.7429688,11.2726562 94,10.0976562 94,8.8125 C94,3.92890625 90.0710938,0 85.1875,0 L85.1875,0 Z" id="Path" fill="#FF5000"></path>
            <path d="M32.2757812,16.3765625 L26.584375,5.140625 L26.2539062,4.51640625 C25.3726562,2.97421875 24.0507812,1.6890625 22.4351562,0.91796875 C20.8195312,1.72578125 19.4976562,2.97421875 18.6164062,4.51640625 L18.3226562,5.140625 L1.175,38.921875 L0.77109375,39.7296875 C0.29375,40.83125 0.03671875,42.00625 0.03671875,43.2914062 C0.03671875,48.1382812 3.965625,52.1039062 8.84921875,52.1039062 C12.1539062,52.1039062 15.0179687,50.2679687 16.5234375,47.5875 L16.7070312,47.2203125 L23.6101562,33.634375 L32.3125,16.4132812 L32.2757812,16.3765625 L32.2757812,16.3765625 Z" id="Path" fill="#FF5000"></path>
            <path d="M85.1875,0 C81.8828125,0 78.9820313,1.8359375 77.5132812,4.51640625 L77.3296875,4.88359375 L70.4265625,18.4695312 L61.6875,35.690625 L67.415625,46.9632812 L67.7460938,47.5875 C68.6273438,49.1296875 69.9492188,50.4148437 71.5648437,51.1859375 C73.1804688,50.378125 74.5023437,49.1296875 75.3835938,47.5875 L75.7140625,46.9632812 L92.8617187,13.1820312 L93.265625,12.3742187 C93.7429688,11.2726562 94,10.0976562 94,8.8125 C94,3.92890625 90.034375,0 85.1875,0 L85.1875,0 Z" id="Path" fill="url(#linearGradient-1)"></path>
            <path d="M8.8125,52.1039062 C12.1171875,52.1039062 15.0179687,50.2679687 16.4867188,47.5875 L16.6703125,47.2203125 L23.5734375,33.634375 L32.3125,16.4132812 L26.584375,5.140625 L26.2539062,4.51640625 C25.3726562,2.97421875 24.0507812,1.6890625 22.4351563,0.91796875 C20.8195313,1.72578125 19.4976562,2.97421875 18.6164063,4.51640625 L18.3226562,5.140625 L1.175,38.921875 L0.734375,39.7664062 C0.25703125,40.8679687 0,42.0429688 0,43.328125 C0,48.175 3.92890625,52.1039062 8.8125,52.1039062 L8.8125,52.1039062 Z" id="Path" fill="url(#linearGradient-2)"></path>
            <path d="M32.2757812,16.3765625 L26.584375,5.140625 L26.2539062,4.51640625 C25.3726562,2.97421875 24.0507812,1.6890625 22.4351562,0.91796875 C22.9492187,0.6609375 23.5367187,0.440625 24.0875,0.29375 C24.7851562,0.11015625 25.55625,0 26.290625,0 L26.290625,0 L38.1875,0 L38.2609375,0 L38.334375,0 C41.6390625,0.03671875 44.503125,1.8359375 46.0085937,4.51640625 L46.265625,5.140625 L61.7242187,35.7273437 L67.415625,46.9632812 L67.7460938,47.5875 C68.6273437,49.1296875 69.9492188,50.4148437 71.5648437,51.1859375 C71.0507812,51.4429687 70.4632812,51.6632812 69.9125,51.8101562 C69.2148438,51.99375 68.44375,52.1039062 67.6726563,52.1039062 L67.6726563,52.1039062 L55.8492187,52.1039062 L55.7757812,52.1039062 L55.7023437,52.1039062 C52.3976562,52.0671875 49.5335937,50.2679687 48.028125,47.5875 L47.6976563,46.9632812 L32.2757812,16.3765625 L32.2757812,16.3765625 Z" id="Path" fill="#FF8C44"></path>
        </g>
    </g>
</svg>