<svg xmlns="http://www.w3.org/2000/svg" xmlns:xlink="http://www.w3.org/1999/xlink" width="100" height="100" viewBox="0 0 100 100">
    <defs>
        <path id="a" d="M0 .072h99.936v99.916H0z"/>
    </defs>
    <g fill="none" fill-rule="evenodd">
        <g>
            <mask id="b" fill="#fff">
                <use xlink:href="#a"/>
            </mask>
            <path fill="#EF8F7F" d="M94.253 42.652c-1.538-1.134-3.476-2.55-3.71-3.476.099-1.791.61-3.535 1.494-5.096 1.356-3.111 2.755-6.335 1.2-9.016-1.556-2.68-5.093-3.115-8.495-3.476a11.578 11.578 0 0 1-5.079-1.212 11.57 11.57 0 0 1-1.208-5.097c-.382-3.402-.777-6.921-3.476-8.494-2.698-1.573-5.926-.195-9.037 1.178a11.664 11.664 0 0 1-5.1 1.494c-.94-.252-2.351-2.172-3.477-3.71-1.972-2.66-4.192-5.675-7.399-5.675s-5.427 3.016-7.386 5.675c-1.139 1.542-2.55 3.476-3.476 3.715a11.917 11.917 0 0 1-5.1-1.495c-3.13-1.377-6.353-2.75-9.025-1.204-2.672 1.547-3.12 5.093-3.502 8.516a11.626 11.626 0 0 1-1.208 5.08 11.61 11.61 0 0 1-5.062 1.19c-3.406.382-6.93.778-8.498 3.476-1.57 2.698-.192 5.922 1.181 9.037a11.627 11.627 0 0 1 1.495 5.114c-.252.939-2.173 2.355-3.71 3.476C3.014 44.607 0 46.832 0 50.038c0 3.207 3.015 5.431 5.679 7.387 1.538 1.134 3.476 2.55 3.71 3.476a11.637 11.637 0 0 1-1.494 5.096c-1.356 3.11-2.755 6.335-1.2 9.016 1.556 2.68 5.093 3.115 8.495 3.476 1.763.011 3.5.426 5.079 1.212a11.57 11.57 0 0 1 1.208 5.096c.382 3.402.777 6.922 3.476 8.495 2.698 1.572 5.9.156 9.015-1.2a11.934 11.934 0 0 1 5.136-1.477c.938.252 2.35 2.173 3.476 3.71 1.96 2.66 4.18 5.675 7.386 5.675 3.207 0 5.427-3.015 7.386-5.674 1.139-1.543 2.55-3.476 3.476-3.715a11.73 11.73 0 0 1 5.101 1.494c3.111 1.356 6.335 2.746 9.011 1.204 2.677-1.542 3.12-5.092 3.502-8.499.013-1.762.426-3.5 1.208-5.079a11.608 11.608 0 0 1 5.075-1.203c3.406-.383 6.93-.778 8.499-3.476 1.568-2.698.152-5.9-1.2-9.016a11.626 11.626 0 0 1-1.477-5.135c.252-.939 2.173-2.355 3.71-3.476 2.66-1.96 5.68-4.184 5.68-7.387 0-3.202-3.02-5.43-5.684-7.386" mask="url(#b)"/>
        </g>
        <path fill="#F8F6F4" d="M36.931 60.9a2.172 2.172 0 0 1-1.738-.868L26.07 47.866v10.862a2.173 2.173 0 0 1-4.345 0v-17.38a2.172 2.172 0 0 1 3.91-1.303l9.125 12.166V41.349a2.172 2.172 0 1 1 4.345 0v17.38A2.172 2.172 0 0 1 36.93 60.9M54.311 60.9h-8.69c-1.2 0-2.172-.972-2.172-2.172v-17.38c0-1.2.972-2.172 2.172-2.172h8.69a2.172 2.172 0 0 1 0 4.345h-6.517v13.035h6.517a2.172 2.172 0 0 1 0 4.345"/>
        <path fill="#F8F6F4" d="M54.311 52.21h-8.69a2.173 2.173 0 0 1 0-4.344h8.69a2.172 2.172 0 1 1 0 4.345M76.035 60.9a2.173 2.173 0 0 1-2.064-1.485l-2.28-6.852-2.282 6.852a2.077 2.077 0 0 1-2.146 1.481 2.172 2.172 0 0 1-2.025-1.642l-4.345-17.38a2.174 2.174 0 1 1 4.22-1.051l2.532 10.14 1.986-5.956a2.264 2.264 0 0 1 4.123 0l1.986 5.957 2.533-10.141a2.174 2.174 0 0 1 4.219 1.051l-4.345 17.38a2.172 2.172 0 0 1-2.025 1.642l-.087.005"/>
    </g>
</svg>
