<svg xmlns="http://www.w3.org/2000/svg" xmlns:xlink="http://www.w3.org/1999/xlink" width="22" height="22" viewBox="0 0 22 22">
    <defs>
        <path id="a" d="M0 .016h21.986v21.981H0z"/>
    </defs>
    <g fill="none" fill-rule="evenodd">
        <g>
            <mask id="b" fill="#fff">
                <use xlink:href="#a"/>
            </mask>
            <path fill="#EF8F7F" d="M20.736 9.383c-.339-.249-.765-.56-.817-.764a2.56 2.56 0 0 1 .33-1.121c.297-.685.605-1.394.263-1.984-.342-.59-1.12-.685-1.869-.765a2.547 2.547 0 0 1-1.117-.266 2.545 2.545 0 0 1-.266-1.122c-.084-.748-.17-1.522-.765-1.868-.593-.346-1.303-.043-1.988.259a2.566 2.566 0 0 1-1.122.329c-.206-.056-.517-.478-.765-.817C12.186.68 11.698.016 10.993.016c-.706 0-1.194.663-1.625 1.248-.25.34-.562.765-.765.818a2.622 2.622 0 0 1-1.122-.33c-.689-.302-1.398-.604-1.986-.264-.588.34-.686 1.12-.77 1.873-.003.388-.094.77-.266 1.118-.346.17-.727.26-1.113.262-.75.084-1.525.17-1.87.764-.345.594-.042 1.303.26 1.989.195.344.308.73.329 1.125-.056.206-.478.518-.817.764-.585.43-1.248.92-1.248 1.625 0 .706.663 1.195 1.25 1.625.338.25.764.562.816.765a2.56 2.56 0 0 1-.33 1.121c-.297.685-.605 1.394-.263 1.984.342.59 1.12.685 1.869.764.388.003.77.094 1.117.267.173.349.264.732.266 1.121.084.749.171 1.523.765 1.87.593.345 1.298.034 1.983-.265a2.626 2.626 0 0 1 1.13-.325c.206.056.517.478.765.817.43.585.92 1.248 1.625 1.248s1.193-.663 1.625-1.248c.25-.34.56-.765.764-.818a2.58 2.58 0 0 1 1.122.33c.685.297 1.394.603 1.983.264.589-.34.686-1.12.77-1.87.003-.388.094-.77.266-1.117a2.554 2.554 0 0 1 1.117-.265c.749-.084 1.524-.171 1.87-.765.344-.593.033-1.298-.265-1.983a2.558 2.558 0 0 1-.325-1.13c.056-.206.478-.518.817-.765.585-.43 1.249-.92 1.249-1.625 0-.704-.664-1.194-1.25-1.625" mask="url(#b)"/>
        </g>
        <path fill="#F8F6F4" d="M8.125 13.398a.478.478 0 0 1-.382-.191L5.735 10.53v2.39a.478.478 0 0 1-.956 0V9.096a.478.478 0 0 1 .86-.287l2.008 2.676v-2.39a.478.478 0 1 1 .956 0v3.824a.478.478 0 0 1-.478.478M11.948 13.398h-1.911a.478.478 0 0 1-.478-.478V9.097c0-.264.214-.478.478-.478h1.911a.478.478 0 0 1 0 .956h-1.433v2.867h1.433a.478.478 0 0 1 0 .956"/>
        <path fill="#F8F6F4" d="M11.948 11.486h-1.911a.478.478 0 0 1 0-.955h1.911a.478.478 0 1 1 0 .955M16.728 13.398a.478.478 0 0 1-.454-.327l-.502-1.507-.502 1.507a.457.457 0 0 1-.472.326.478.478 0 0 1-.446-.361l-.955-3.824a.478.478 0 1 1 .928-.231l.557 2.231.437-1.31a.498.498 0 0 1 .907 0l.437 1.31.557-2.231a.478.478 0 0 1 .928.231l-.956 3.824a.478.478 0 0 1-.445.361l-.02.001"/>
    </g>
</svg>
