<svg xmlns="http://www.w3.org/2000/svg" xmlns:xlink="http://www.w3.org/1999/xlink" width="16" height="16" viewBox="0 0 20 20">
    <defs>
        <path id="a" d="M0 0h20v19.997H0z"/>
    </defs>
    <g fill="none" fill-rule="evenodd">
        <mask id="b" fill="#fff">
            <use xlink:href="#a"/>
        </mask>
        <path fill="#2396FF" d="M19.48 0h-5.193a.52.52 0 1 0 0 1.042h3.943L8.099 11.27a.52.52 0 1 0 .74.733l10.12-10.216v3.926a.52.52 0 1 0 1.041 0V.521A.52.52 0 0 0 19.48 0z" mask="url(#b)"/>
        <path fill="#2396FF" d="M16.882 11.171a.52.52 0 0 0-.52.521v5.704a1.564 1.564 0 0 1-1.563 1.562H2.604a1.564 1.564 0 0 1-1.562-1.562V5.2c0-.862.7-1.561 1.562-1.562h5.704a.52.52 0 1 0 0-1.042H2.604A2.607 2.607 0 0 0 0 5.201v12.195A2.607 2.607 0 0 0 2.604 20H14.8a2.607 2.607 0 0 0 2.604-2.604v-5.704a.52.52 0 0 0-.52-.52z" mask="url(#b)"/>
    </g>
</svg>
