<svg xmlns="http://www.w3.org/2000/svg" xmlns:xlink="http://www.w3.org/1999/xlink" width="18" height="22" viewBox="0 0 18 22">
    <defs>
        <path id="a" d="M.003 0h17.91v22H.004z"/>
    </defs>
    <g fill="none" fill-rule="evenodd">
        <mask id="b" fill="#fff">
            <use xlink:href="#a"/>
        </mask>
        <path fill="#2496FF" d="M8.957 22a4.81 4.81 0 0 0 4.392-2.853H4.565A4.81 4.81 0 0 0 8.957 22M16.529 12.967v-2.253c-.431.097-.88.149-1.34.149-3.36 0-6.094-2.726-6.094-6.076 0-1.774.766-3.372 1.986-4.484A7.61 7.61 0 0 0 8.957 0C4.782 0 1.385 3.386 1.385 7.548v5.419L.033 17.009a.643.643 0 0 0 .614.849h16.62a.647.647 0 0 0 .614-.849l-1.352-4.042" mask="url(#b)"/>
        <path fill="#2496FF" d="M16.529 12.967v-2.253c-.431.097-.88.149-1.34.149-3.36 0-6.094-2.726-6.094-6.076 0-1.774.766-3.372 1.986-4.484A7.61 7.61 0 0 0 8.957 0C4.782 0 1.385 3.386 1.385 7.548v5.419L.033 17.009a.643.643 0 0 0 .614.849h16.62a.647.647 0 0 0 .614-.849l-1.352-4.042" mask="url(#b)" transform="matrix(-1 0 0 1 17.914 0)"/>
    </g>
</svg>
