<svg width="40" height="40" viewBox="0 0 40 40" fill="none" xmlns="http://www.w3.org/2000/svg">
    <circle cx="20" cy="20" r="20" fill="#E5F1FF"/>
    <path fill-rule="evenodd" clip-rule="evenodd" d="M18.208 20.492a6.883 6.883 0 0 0-5.542-1.272v-3.804c0-1.013.82-1.834 1.833-1.834h12.835c1.012 0 1.832.821 1.832 1.833v8.25c0 1.013-.82 1.834-1.834 1.834h-6.43a6.883 6.883 0 0 0-2.694-5.007zm2.708-2.19-5.632-3.033a.687.687 0 1 0-.65 1.21l5.958 3.209a.688.688 0 0 0 .65 0l5.959-3.209a.687.687 0 1 0-.65-1.21l-5.635 3.033z" fill="#377DFF"/>
    <path opacity=".3" fill-rule="evenodd" clip-rule="evenodd" d="M17.25 25.498v2.75a.917.917 0 0 1-.916.918h-4.583a.917.917 0 0 1-.917-.917v-2.75a.917.917 0 0 1 .917-.917v-.459a2.292 2.292 0 0 1 4.583 0v.459c.506 0 .916.41.916.916zm-4.583-1.374v.458h2.75v-.458a1.375 1.375 0 1 0-2.75 0z" fill="#377DFF"/>
</svg>
