<svg xmlns="http://www.w3.org/2000/svg" width="17" height="20" viewBox="0 0 17 20">
    <g fill="#FFF" fill-rule="nonzero">
        <path d="M16.913 16.87l-1.455-2.386a7 7 0 0 1-1.027-3.645V8.75c0-3.216-2.661-5.833-5.931-5.833S2.569 5.534 2.569 8.75v2.09a7 7 0 0 1-1.027 3.644L.087 16.87a.41.41 0 0 0-.006.42c.075.13.217.211.37.211H16.55c.152 0 .294-.08.37-.212a.41.41 0 0 0-.007-.419zm-15.715-.203l1.07-1.755a7.817 7.817 0 0 0 1.148-4.073V8.75c0-2.758 2.28-5 5.084-5s5.084 2.242 5.084 5v2.09c0 1.434.397 2.842 1.147 4.072l1.07 1.755H1.199z"/>
        <path d="M8.5 0c-.935 0-1.695.748-1.695 1.667v1.666c0 .23.19.417.424.417a.42.42 0 0 0 .424-.417V1.667c0-.46.38-.834.847-.834a.84.84 0 0 1 .847.834v1.666c0 .23.19.417.424.417a.42.42 0 0 0 .424-.417V1.667C10.195.747 9.435 0 8.5 0zM10.334 16.872a.43.43 0 0 0-.58-.149.413.413 0 0 0-.152.571c.11.184.17.405.17.623 0 .689-.57 1.25-1.271 1.25-.7 0-1.271-.561-1.271-1.25 0-.218.06-.439.17-.623a.414.414 0 0 0-.152-.57.43.43 0 0 0-.58.148 2.043 2.043 0 0 0-.286 1.045c0 1.149.95 2.083 2.118 2.083 1.169 0 2.118-.934 2.12-2.083 0-.369-.1-.73-.286-1.045z"/>
    </g>
</svg>
