<svg width="251" height="251" viewBox="0 0 251 251" fill="none" xmlns="http://www.w3.org/2000/svg">
    <rect width="251" height="251" rx="20" fill="#2C0D9B"/>
    <g clip-path="url(#gvqjeo1uka)">
        <path d="m237.001 122.086-.011 2.851-33.191 19.45.006-2.845 33.196-19.456z" fill="url(#7a9stw24fb)"/>
        <path d="m203.804 141.542-.006 2.845-71.387-41.562.006-2.844 71.387 41.561z" fill="url(#bxxxhemftc)"/>
        <path d="m237.001 124.937-.011 2.844-33.191 19.451.006-2.845 33.196-19.45z" fill="url(#bc4n7tnx7d)"/>
        <path d="m203.804 144.387-.006 2.845-71.387-41.562.006-2.845 71.387 41.562z" fill="url(#9qdum9bx3e)"/>
        <path d="m237.001 127.782-.011 2.845-33.191 19.45.006-2.845 33.196-19.45z" fill="url(#9zpq2i56gf)"/>
        <path d="m203.804 147.231-.006 2.845-71.387-41.555.006-2.851 71.387 41.561z" fill="url(#s2fqqm6bsg)"/>
        <path d="m237.001 130.627-.011 2.845-33.191 19.45.006-2.845 33.196-19.45z" fill="url(#9uwex8bhrh)"/>
        <path d="m203.804 150.076-.006 2.845-71.387-41.556.006-2.844 71.387 41.555z" fill="url(#w0mr40olni)"/>
        <path d="m237 122.086-33.197 19.456-71.387-41.562 33.197-19.45L237 122.086z" fill="url(#ib1wscn8cj)"/>
        <path d="M173.355 117.687c-6.308-3.671-6.348-9.631-.08-13.307 6.274-3.677 16.473-3.671 22.782 0 6.308 3.671 6.348 9.63.073 13.307-6.268 3.671-16.473 3.671-22.781 0m55.165 2.317-59.306-34.53c-1.962 1.153-5.165 1.153-7.139 0l-21.194 12.419c1.974 1.153 1.985 3.017.023 4.17l59.305 34.529c1.963-1.153 5.165-1.153 7.139 0l21.194-12.418c-1.974-1.153-1.985-3.017-.022-4.17z" fill="url(#7xr55xtd2k)"/>
        <path d="m184.606 111.848-3.811 2.237c1.621.717 2.935.78 3.942.189.472-.275.705-.585.705-.923 0-.338-.284-.843-.83-1.503m4.545-4.152c-.757-.316-1.451-.482-2.093-.5-.637-.017-1.184.104-1.633.368-.495.292-.751.608-.756.957 0 .35.227.815.688 1.394l3.794-2.225m-9.733 5.701 4.312-2.524c-.921-1.032-1.371-1.869-1.354-2.518.017-.648.472-1.227 1.36-1.749.859-.505 1.888-.723 3.105-.654 1.218.069 2.435.384 3.652.958l1.781-1.044 1.274.74-1.763 1.032c1.177.729 2.104 1.549 2.775 2.461l-1.797.453c-.597-.797-1.365-1.508-2.304-2.139l-4.255 2.489c.7.792 1.161 1.428 1.36 1.91.199.482.227.912.068 1.285-.159.378-.529.734-1.103 1.073-.888.521-1.951.757-3.203.705-1.251-.052-2.554-.384-3.908-.998l-2.275 1.331-1.274-.74 2.19-1.279a15.373 15.373 0 0 1-1.968-1.348c-.575-.471-.984-.889-1.218-1.262l1.531-.895c.301.459.733.941 1.296 1.446.558.504 1.132.929 1.718 1.267m16.638-9.017c-6.308-3.67-16.513-3.676-22.781 0-6.268 3.671-6.229 9.631.08 13.308 6.308 3.67 16.513 3.676 22.781 0 6.274-3.677 6.234-9.637-.074-13.308" fill="url(#sq2wfqn7fl)"/>
        <path d="m180.795 114.085 3.811-2.237c.552.659.831 1.158.831 1.503 0 .338-.233.648-.705.923-1.007.591-2.321.528-3.942-.189m4.562-4.164c-.461-.58-.689-1.05-.689-1.394.006-.35.262-.671.757-.958.449-.264.995-.384 1.632-.367.637.017 1.337.183 2.094.499l-3.794 2.225m8.191-3.315-1.275-.74-1.78 1.044c-1.217-.568-2.435-.889-3.652-.958-1.217-.069-2.252.149-3.106.654-.887.522-1.342 1.101-1.359 1.749-.017.649.432 1.48 1.354 2.518l-4.312 2.524a10.133 10.133 0 0 1-1.718-1.267c-.563-.505-.995-.987-1.297-1.446l-1.53.895c.233.373.643.797 1.217 1.262.575.47 1.235.918 1.969 1.348l-2.19 1.279 1.274.74 2.275-1.331c1.354.614 2.656.946 3.908.998 1.246.052 2.315-.183 3.202-.705.575-.339.945-.694 1.104-1.073.153-.379.131-.803-.068-1.285-.199-.482-.66-1.118-1.36-1.91l4.255-2.489c.938.631 1.706 1.348 2.304 2.139l1.797-.453c-.677-.918-1.598-1.738-2.776-2.461l1.764-1.032" fill="url(#070vuy5nim)"/>
        <path d="M90.147 139.305c-.279.459-.591.9-.916 1.307.347-.413.649-.848.916-1.307zM88.15 141.731c-.267.218-.517.425-.796.608.28-.172.54-.361.797-.608z" fill="#2E77C3"/>
        <path d="M71.621 115.519a33.843 33.843 0 0 0-1.627 1.749c-3.259 3.734-5.99 8.202-7.89 12.86-.17.424-.335.86-.494 1.284l7.048-4.112c.779-5.093 1.95-9.086 2.957-11.781h.006zm-3.185 13.565-.984.568-6.547 3.808c-.865 2.742-1.394 5.495-1.565 8.151-.023.338-.034.677-.045 1.021l8.578-4.985c.022-3.12.239-5.971.563-8.563zm8.48-4.95-7.058 4.112c-.034.327-.074.654-.12.993-.011.16-.034.327-.045.499-.012.155-.034.315-.046.487v.075a31.567 31.567 0 0 0-.142 1.686c-.023.184-.034.379-.045.568-.046.642-.074 1.308-.108 1.979-.012.424-.023.849-.023 1.285-.012.132-.012.281-.012.424-.011.184-.011.379-.011.568l8.504-4.95-.023-8.225-.853.499h-.017zm-8.543 22.174-.034-.378-.011-.063c-.086-.585-.143-1.199-.205-1.841-.034-.362-.063-.752-.097-1.142l-.023-.338c0-.172-.011-.339-.022-.522-.012-.172-.023-.362-.034-.545l-.035-1.044a38.17 38.17 0 0 1-.022-1.153l-.83.488-7.77 4.525c.01.425.033.838.084 1.239l.023.27c.023.292.063.567.108.837l.023.218c.023.155.063.315.085.47.097.471.205.935.325 1.371.034.144.085.293.119.436l.13.425c.046.143.098.281.154.413.046.131.097.269.143.401.045.12.096.229.142.35l.011.023c.12.269.24.522.376.774l7.497-4.365c-.046-.281-.086-.556-.131-.849h-.006zm20.74-22.031c.01.316.022.643.022.981l2.452-1.434-.023-8.225-3.043 1.772c.301 1.979.517 4.256.591 6.9v.006zm-.831-8.397 3.27-1.916-.01-5.351c-1.793-.947-3.897-1.325-6.258-1.01.939 1.417 2.031 3.734 2.816 7.388.063.292.12.585.182.883v.006zm-17.19 5.351c-.062.253-.12.522-.182.786-.074.304-.13.62-.205.935-.13.631-.25 1.285-.375 1.95-.023.155-.063.316-.074.476l-.023.132c-.045.281-.097.585-.142.872l-.011.086 7.684-4.474-.034-11.477-.29.184c-.193.12-.387.24-.563.378l-.023.012c-.267.183-.529.361-.796.556-.455.327-.916.677-1.36 1.044-.443.361-.904.74-1.336 1.13-.131.338-.262.705-.41 1.09-.13.39-.278.803-.42 1.227-.132.379-.251.774-.388 1.199-.062.206-.13.413-.193.631-.063.218-.13.436-.193.665l-.046.155-.074.229c-.142.534-.29 1.09-.42 1.664-.046.183-.097.361-.132.545l.006.005zm18.043 5.679a78.883 78.883 0 0 1-.444 7.508c-.045.361-.085.717-.13 1.067l3.054-1.784-.022-8.225-2.452 1.434h-.006zm-9.926 4.124 8.504-4.95c-.045-3.069-.279-5.667-.614-7.887l-.723.425-7.195 4.187.023 7.233v.992h.005zm.034 11.512.012 4.548 6.655-3.883c.358-1.554.7-3.252.984-5.122l-1.024.596-6.627 3.861zm7.606-14.317-7.64 4.451.023 7.244v.981l7.907-4.6c.324-2.61.54-5.449.563-8.575l-.853.499zm1.478 9.028a53.72 53.72 0 0 1-.66 3.637c-.096.499-.204.969-.312 1.445.278-.183.529-.39.796-.608l.228-.206.142-.132a15.4 15.4 0 0 0 .71-.775c.325-.413.638-.848.917-1.307.187-.31.352-.626.506-.952.455-.964.768-1.985.887-2.966l-1.046.608-2.168 1.262v-.006zm-20.261 11.805-6.377 3.711a9.581 9.581 0 0 0 2.89 2.862l5.16-3.012a30.085 30.085 0 0 1-1.013-3.951l-.66.39zm9.721-15.55-.842.487-7.65 4.463c0 .47.022.946.034 1.405.011.459.034.912.062 1.337.012.183.012.349.023.521.063.901.142 1.733.228 2.536.022.269.062.533.085.785l.034.27.023.109v.063c.034.293.085.568.12.849l7.906-4.6-.023-8.225zm1.394-12.338 7.673-4.462c-.876-4.646-2.264-7.302-3.333-8.759a6.05 6.05 0 0 0-.421.121c-1.274.349-2.588.883-3.959 1.611l.034 10.491v.992l.006.006zm-2.213 22.708-6.797 3.952a30.31 30.31 0 0 0 1.012 3.952l6.655-3.872-.011-4.537-.853.499-.006.006z" fill="url(#ymmmofi17n)"/>
        <path d="M38.657 128.28h-.011l-.108-.023-.142-.022c-.484-.064-1.024.022-1.599.292-.153.075-.313.143-.466.241-.723.413-1.405 1.044-1.997 1.772-1.177 1.492-1.985 3.459-1.974 5.168 0 .172.012.339.023.499l.046.27c.074.499.239.923.483 1.25l.046.063.153.172.012.012.13.12.131.098.012.011.045.035.063.034.096.046.302.132h.011c.131.046.28.075.433.086.591.046 1.274-.12 1.996-.545 2.202-1.273 3.97-4.382 3.97-6.917 0-.488-.073-.912-.193-1.274-.034-.12-.085-.229-.13-.338a2.4 2.4 0 0 0-.302-.499 1.795 1.795 0 0 0-.29-.293l-.216-.16-.034-.023-.154-.086a2.184 2.184 0 0 0-.324-.121h-.012z" fill="url(#epjgywspto)"/>
        <path d="m33.908 138.444-.301-.131-.097-.046-.063-.035-.045-.034-.011-.012-.131-.097-.131-.121-.011-.011-.154-.172-.046-.063c-.239-.327-.41-.752-.483-1.251l-.046-.269a6.996 6.996 0 0 1-.022-.499c-.012-1.709.796-3.677 1.974-5.168-.41-.035-.865.034-1.371.241-.205.074-.41.183-.626.304-.723.424-1.394 1.044-1.985 1.772-1.178 1.491-1.986 3.459-1.974 5.168 0 .172.011.338.023.499l.045.27c.074.499.239.923.484 1.25l.034.034.011.023.142.172.012.012h.011l.25.218h.012l.011.011.108.086c.25.144.53.23.842.253.592.063 1.263-.109 1.997-.534.722-.424 1.405-1.044 1.985-1.783a1.454 1.454 0 0 1-.432-.087h-.012z" fill="url(#q3knmriuwp)"/>
        <path d="m29.42 140.509-.011-.011h-.012l-.25-.218h-.011l-.012-.011-.142-.172-.011-.023-.035-.035c-.238-.327-.41-.751-.483-1.25l-.046-.27a6.836 6.836 0 0 1-.022-.499c-.012-1.709.796-3.676 1.974-5.168-.421-.034-.876.035-1.371.241-.205.075-.41.184-.615.304-2.201 1.273-3.981 4.382-3.981 6.94 0 .218.011.413.045.608l.011.075c.012.143.035.281.086.413.034.183.097.35.182.51l.142.27.182.252.154.161h.011l.097.109.034.023c.108.097.239.172.375.229.131.075.279.109.421.144.154.034.302.046.467.046.54 0 1.154-.172 1.791-.545.723-.425 1.405-1.044 1.986-1.784a1.96 1.96 0 0 1-.842-.252l-.108-.087h-.006z" fill="url(#1eb5piuh1q)"/>
        <path d="m54.032 143.859-29.595 17.213v.981l.01.992 30.439-17.723v-1.968l-.854.5v.005zm-14.806 13.829-14.772 8.604.011.992v.993l15.614-9.086-.011-1.99-.842.487z" fill="url(#dxwbsxi35r)"/>
        <path d="m91.615 133.701-3.055 1.784c.046-.35.086-.705.131-1.067.25-2.317.41-4.806.444-7.508l2.451-1.434v-1.652l-2.451 1.434c0-.338-.011-.665-.023-.981-.074-2.644-.29-4.927-.591-6.9l3.043-1.772-.012-1.635-3.27 1.916c-.063-.304-.12-.597-.182-.883-.78-3.654-1.877-5.971-2.816-7.388 2.36-.316 4.465.063 6.257 1.009l-.034-12.934c-.012-1.445-.518-2.472-1.337-2.96l-.045-.022-.131-.075-.097-.034-.267-.086a1.87 1.87 0 0 0-.347-.075 3.07 3.07 0 0 0-.325-.023c-.625 0-1.325.206-2.059.631l-65.915 38.378c-2.537 1.469-4.596 5.059-4.585 7.996l.108 38.866c0 .676.12 1.273.313 1.749l.108.207c.086.183.182.326.302.47l.142.172.182.172.25.184.035.023c.83.499 1.985.424 3.27-.316l43.464-25.306a9.646 9.646 0 0 1-2.89-2.862l6.377-3.712.66-.39c.29 1.526.637 2.84 1.012 3.952l1.445-.837a30.564 30.564 0 0 1-1.012-3.952l6.797-3.952.853-.499.012 4.537 1.422-.826-.012-4.548 6.627-3.861 1.024-.596a70.63 70.63 0 0 1-.984 5.116l1.12-.654.325-.218c.108-.47.216-.946.313-1.445.25-1.141.466-2.34.66-3.637l2.167-1.261 1.046-.608c-.12.98-.432 2.001-.887 2.965.603-1.245.967-2.57.961-3.791v-.861h.006zm-21.826 11.782v-.063l-.023-.109-.034-.27c-.022-.252-.062-.522-.085-.786a58.228 58.228 0 0 1-.228-2.535c-.01-.172-.01-.338-.022-.522a78.772 78.772 0 0 1-.063-1.336c-.011-.459-.034-.935-.034-1.406l7.65-4.462.843-.488.022 8.225-7.906 4.601c-.035-.282-.086-.557-.12-.849zm-9.152 5.265-.012-.023c-.045-.12-.096-.229-.142-.35-.045-.132-.096-.269-.142-.401a3.278 3.278 0 0 1-.154-.413l-.13-.425c-.035-.143-.086-.292-.12-.436-.12-.436-.227-.9-.324-1.37-.023-.155-.063-.316-.085-.471l-.023-.218a9.255 9.255 0 0 1-.108-.837l-.023-.27a14.419 14.419 0 0 1-.085-1.239l7.77-4.525.83-.488c0 .39.012.775.023 1.153l.034 1.044.034.545c.012.183.023.35.023.522l.023.338c.034.39.062.775.097 1.142.062.642.119 1.262.204 1.841l.012.063.034.379c.045.292.085.567.13.848l-7.496 4.365c-.131-.252-.25-.51-.376-.774h.006zm-1.297-9.137c.17-2.656.7-5.409 1.564-8.151l6.547-3.808.984-.568a73.267 73.267 0 0 0-.563 8.564l-8.578 4.984c.012-.338.023-.677.046-1.021zm2.764-11.489c1.9-4.657 4.63-9.12 7.89-12.859a31.521 31.521 0 0 1 1.627-1.75c-1.013 2.696-2.179 6.682-2.958 11.781l-7.048 4.113c.154-.424.324-.86.495-1.285h-.006zm7.185 6.682c0-.195 0-.39.011-.567 0-.144 0-.293.011-.425 0-.436.012-.86.023-1.285.034-.665.063-1.336.108-1.979.012-.195.023-.39.046-.567.034-.568.085-1.142.142-1.687v-.074c.011-.172.034-.327.045-.488.012-.172.035-.338.046-.499.045-.338.085-.665.12-.992l7.059-4.113.853-.499.022 8.225-8.504 4.95h.018zm8.48-14.809-7.684 4.473.011-.086c.046-.292.097-.596.142-.871l.023-.132c.012-.161.046-.316.074-.476.12-.666.24-1.325.376-1.951.074-.315.13-.631.204-.935.063-.269.12-.533.182-.785.035-.184.086-.362.131-.545.131-.568.279-1.13.421-1.664l.074-.229.046-.155c.062-.229.13-.447.193-.665.063-.218.13-.425.194-.631.13-.425.25-.826.386-1.199.142-.424.29-.837.421-1.227.142-.39.279-.752.41-1.09.432-.39.893-.763 1.337-1.13.443-.362.904-.717 1.359-1.044.267-.195.529-.379.796-.556l.023-.012c.182-.132.375-.252.563-.379l.29-.183.034 11.477-.005-.005zm-38.617 6.487.035.023.216.16c.108.086.204.184.29.293.12.143.216.315.301.499.046.109.097.218.131.338.12.362.194.786.194 1.274 0 2.535-1.77 5.638-3.97 6.917-.723.424-1.406.596-1.997.545-.58.74-1.263 1.359-1.986 1.784-.733.424-1.405.596-1.996.533-.58.74-1.263 1.359-1.985 1.784-.638.378-1.252.545-1.792.545-.17 0-.313-.012-.467-.046a1.844 1.844 0 0 1-.42-.143 1.59 1.59 0 0 1-.376-.23l-.034-.023-.097-.109h-.011l-.154-.16-.182-.253-.142-.269a1.874 1.874 0 0 1-.182-.511 1.661 1.661 0 0 1-.085-.413l-.012-.074a3.473 3.473 0 0 1-.045-.608c0-2.559 1.78-5.667 3.982-6.941.204-.12.409-.229.614-.304.495-.206.95-.281 1.37-.241.592-.728 1.264-1.348 1.986-1.772.216-.12.42-.229.626-.304.506-.206.96-.281 1.37-.241.592-.728 1.275-1.359 1.997-1.772.154-.098.313-.172.466-.241.58-.27 1.121-.35 1.599-.293l.142.023.108.023h.023c.12.035.227.075.324.121l.154.086h.005zm-14.687 39.789v-.992l-.011-.993 14.772-8.603.842-.488.012 1.99-15.615 9.086zm30.427-22.949-30.438 17.724-.011-.993v-.98l29.595-17.214.854-.499v1.968-.006zm24.323-14.288v-.992l-.023-7.233 7.195-4.187.723-.425c.335 2.22.563 4.819.614 7.887l-8.504 4.95h-.005zm7.65-14.328-7.673 4.463v-.993l-.034-10.49c1.37-.729 2.684-1.262 3.959-1.612a6.05 6.05 0 0 1 .42-.121c1.07 1.457 2.452 4.113 3.334 8.759l-.006-.006zm-7.628 24.199v-.98l-.022-7.245 7.639-4.451.853-.499a73.323 73.323 0 0 1-.563 8.575l-7.907 4.6z" fill="url(#s6gzeqfqss)"/>
        <path d="M90.654 138.358z" fill="#2E77C3"/>
        <path d="m17.378 180.878-.142-.172a2.196 2.196 0 0 1-.302-.47l-.108-.207c-.193-.47-.313-1.067-.313-1.749l-.108-38.866-.842-.499.109 38.866c0 1.468.506 2.501 1.336 2.971l.808.47-.25-.183-.182-.172-.006.011z" fill="url(#d2e3s0zw2t)"/>
        <path d="M20.984 131.424 86.9 93.04c.734-.424 1.434-.63 2.06-.63.108 0 .216.01.324.022.12.012.227.035.347.075l.267.086.097.034-.671-.401c-.83-.5-1.997-.425-3.271.315L20.13 130.925c-2.537 1.468-4.585 5.059-4.573 7.996l.841.499c-.01-2.937 2.048-6.528 4.585-7.996z" fill="url(#478tsbnatu)"/>
        <path d="M156.233 26.5c-.791-.43-1.877-.35-3.066.338l-4.687 2.724-41.189 23.982c-2.44 1.416-4.437 4.904-4.437 7.743V176.41c0 1.365.467 2.346 1.218 2.834l.108.063c.802.453 1.9.384 3.111-.316l22.935-13.353 18.248-10.622 4.693-2.731c2.44-1.416 4.431-4.904 4.431-7.743V29.419c0-1.457-.523-2.466-1.365-2.92zm-3.197 37.592v72.334l-9.141 5.317-4.545 2.644-18.253 10.629-4.551 2.655-9.13 5.312V69.432l6.86-3.998 2.287-1.33 18.248-10.618 18.219-10.61v21.216h.006z" fill="url(#955xy7750v)"/>
        <path d="m150.841 23.367 5.398 3.132c-.791-.43-1.877-.35-3.066.338l-4.687 2.725-41.188 23.981c-2.441 1.417-4.437 4.904-4.437 7.744V176.41c0 1.365.466 2.346 1.217 2.833l-5.262-3.063c-.932-.401-1.524-1.451-1.524-3V58.052c0-2.84 1.997-6.321 4.431-7.744l45.876-26.7c1.251-.728 2.389-.78 3.196-.264l.046.029v-.006z" fill="url(#69gnnicv5w)"/>
        <path d="m143.912 147.048-18.242 10.623-4.567-2.656 4.567-2.656 9.124-5.311 4.562-2.661 4.556 2.661z" fill="#BFBCB4"/>
        <path d="M135.351 41.71v.04c0 .396-.278.89-.62 1.084l-8.993 5.237c-.341.201-.62.035-.62-.361v-.046c0-.396.279-.883.62-1.084l8.999-5.237c.341-.2.62-.034.62.362l-.006.005z" fill="url(#zjugatklcx)"/>
        <path d="M144.992 27.164c.308.178.456.413.456.642 0 .23-.148.47-.456.643l-.028.017-6.871 4.003c-.609.356-1.61.356-2.219 0l-.057-.034c-.301-.178-.455-.413-.455-.648 0-.235.154-.465.455-.642l6.906-4.021c.603-.35 1.604-.35 2.213 0l.062.04h-.006z" fill="url(#ahpou31poy)"/>
        <path d="M144.993 28.455c.307-.178.455-.407.455-.642v1.33c0 .235-.148.47-.455.643l-6.905 4.02c-.609.356-1.61.356-2.219 0l-.057-.034c-.301-.178-.455-.413-.455-.642v-1.331c0 .235.154.47.455.648l.057.034c.609.356 1.61.356 2.219 0l6.871-4.003.029-.017.005-.006z" fill="url(#n93s19blxz)"/>
        <path d="m104.078 179.237.109.064c-.04-.017-.074-.041-.109-.064z" fill="#000"/>
        <path d="M99.129 65.176c.608.35 1.109 1.227 1.109 1.933v5.168c0 .35-.119.59-.313.711l-.074.04c-.193.086-.45.058-.722-.103l-.063-.034c-.608-.356-1.109-1.228-1.109-1.933V65.79c0-.367.13-.62.341-.729l.029-.011c.193-.092.455-.07.74.091l.028.018.034.023v-.006z" fill="url(#02bxlfg3vA)"/>
        <path d="m101.011 72.362-1.08.626c.193-.115.312-.362.312-.712v-5.168c0-.71-.5-1.583-1.109-1.933l-.034-.022-.028-.018c-.285-.16-.547-.189-.74-.091l1.064-.62c.199-.143.495-.138.813.052l.063.034c.608.356 1.109 1.228 1.109 1.933v5.174c0 .373-.137.625-.358.74h-.012v.005z" fill="url(#l2wv5uuolB)"/>
        <path d="M98.72 81.752c1.25.729 2.28 2.524 2.28 3.98 0 .087 0 .167-.011.247 0 .04-.006.08-.011.12-.006.041-.006.075-.017.11-.012.034-.017.069-.023.097a2.269 2.269 0 0 1-.057.19c-.028.074-.051.143-.085.206a1.24 1.24 0 0 1-.399.47l-.153.092c-.404.19-.944.138-1.525-.2-1.25-.729-2.28-2.524-2.28-3.981 0-.711.244-1.228.648-1.469l.108-.063c.176-.08.381-.12.597-.109.074 0 .142.012.222.023.074.012.148.035.228.063.04.012.08.03.12.04.119.04.244.104.363.178l-.005.006z" fill="url(#qxa7nva3kC)"/>
        <path d="M98.72 90.895c1.25.728 2.28 2.523 2.28 3.98 0 .087 0 .167-.011.247 0 .04-.006.08-.011.12-.006.04-.006.075-.017.11-.012.034-.017.068-.023.097a2.269 2.269 0 0 1-.057.19c-.028.074-.051.143-.085.206a1.24 1.24 0 0 1-.399.47l-.153.092c-.404.19-.944.138-1.525-.2-1.25-.73-2.28-2.525-2.28-3.981 0-.712.244-1.228.648-1.469l.108-.057c.176-.08.381-.12.597-.11.074 0 .142.012.222.03.074.01.148.034.228.057a1.767 1.767 0 0 1 .483.218h-.005z" fill="url(#bselgkhnxD)"/>
        <path d="M98.35 80.88c.404-.184.933-.132 1.513.206 1.252.729 2.281 2.518 2.281 3.981 0 .757-.273 1.28-.711 1.503l-.04.023-.989.573c.159-.109.295-.27.398-.47.034-.063.057-.132.085-.206.029-.063.04-.127.057-.19.006-.028.017-.063.023-.097l.017-.11a.752.752 0 0 0 .011-.12c.006-.08.012-.16.012-.246 0-1.457-1.03-3.252-2.281-3.981a2.36 2.36 0 0 0-.364-.178c-.04-.017-.08-.034-.12-.04-.08-.029-.154-.046-.227-.063a1.405 1.405 0 0 0-.217-.029 1.278 1.278 0 0 0-.597.11l.984-.574.165-.092z" fill="url(#6kqazk8yxE)"/>
        <path d="M98.35 90.022c.404-.183.933-.131 1.513.207 1.252.728 2.281 2.518 2.281 3.98 0 .758-.273 1.28-.711 1.503l-.04.023-.989.574c.159-.109.295-.27.398-.47.034-.064.057-.132.085-.207.029-.063.04-.126.057-.19.006-.028.017-.062.023-.097l.017-.109a.818.818 0 0 0 .011-.12c.006-.08.012-.16.012-.247 0-1.457-1.03-3.252-2.281-3.98a2.36 2.36 0 0 0-.364-.178c-.04-.017-.08-.035-.12-.04a1.202 1.202 0 0 0-.227-.058.933.933 0 0 0-.217-.028 1.28 1.28 0 0 0-.597.109l.984-.574.165-.092v-.006z" fill="url(#q7g8mhy7qF)"/>
        <path d="M133.52 156.598c-1.365.798-2.48 2.742-2.48 4.331 0 1.589 1.115 2.237 2.48 1.445 1.365-.797 2.48-2.741 2.48-4.33s-1.115-2.237-2.48-1.446z" fill="#2A323D" stroke="#3A4D57" stroke-miterlimit="10"/>
        <path d="m104.351 63.318 51.757-30.136V142.07l-51.757 30.153V63.317z" fill="url(#4l7q8msssG)"/>
        <path d="M63.19 184.497v1.084l83.202-48.445-.028-10.399-83.196 48.445.023 9.315z" fill="url(#5pnyd6qsfH)"/>
        <path d="M144.248 121.513a2.958 2.958 0 0 0-.347-.069c-.119-.012-.239-.029-.358-.029-.694 0-1.468.229-2.293.711l-73.02 42.508c-2.81 1.641-5.079 5.604-5.062 8.856v1.692l83.196-48.444-.011-1.681c0-1.68-.598-2.833-1.57-3.344-.029-.011-.069-.04-.091-.051-.04-.012-.08-.029-.12-.04-.108-.041-.21-.081-.318-.109h-.006z" fill="url(#2o5nkrarkI)"/>
        <path d="m126.626 163.291.13-.08.427-.252.091-.052c.029-.16.051-.321.08-.482 0-.04.011-.08.011-.109.04-.212.08-.418.12-.619.278-1.463.637-2.633.961-3.493-.347.35-.677.728-.984 1.113-.256.309-.495.619-.734.952a17.847 17.847 0 0 0-1.638 2.822h-.012c-.13.281-.267.579-.375.872-.091.189-.159.39-.239.59l1.718-1.009.438-.258.006.005zm-.228 4.061.199-.109.359-.218v-.011c0-.149 0-.298.011-.442v-.172c0-.172.011-.338.028-.482.029-.82.091-1.583.171-2.3l-.478.281-.557.322-1.946 1.141a12.925 12.925 0 0 0-.546 2.501c-.039.241-.068.47-.068.7-.028.16-.04.309-.04.459l2.492-1.452.375-.212v-.006zm8.783-8.397c.091.62.159 1.302.199 2.071.011.201.028.419.028.642.012.132.012.281.012.43l2.372-1.382.415-.229.574-.339c-.051-1.141-.295-2.111-.677-2.891l-.597.35-2.321 1.342-.005.006zm-8.447 12.137.278-.16.2-.109c0-.041-.012-.081-.012-.121-.011-.092-.028-.189-.04-.298-.011-.092-.028-.201-.039-.298-.012-.109-.029-.201-.029-.31a22.85 22.85 0 0 1-.131-2.111l-.335.189-.575.339-2.52 1.462c.029.74.148 1.4.347 1.991.04.189.108.361.199.539.04.12.091.241.148.35l2.213-1.291.296-.172zm8.265-13.118c.028.121.051.258.079.39l2.242-1.29.227-.132.267-.161c-.091-.132-.199-.269-.295-.401a2.87 2.87 0 0 0-.296-.298 1.293 1.293 0 0 0-.131-.121 3.41 3.41 0 0 0-.597-.442c-.04-.011-.08-.04-.108-.051a3.278 3.278 0 0 0-.308-.132c-.011-.012-.028-.012-.028-.012l-.011-.011a1.649 1.649 0 0 0-.228-.069c-.574-.201-1.229-.258-1.917-.16.336.481.694 1.221.973 2.34.051.172.091.361.131.562v-.012zm-4.466 3.694-.574.321-2.213 1.302a24.79 24.79 0 0 0-.187 2.301c-.012.212-.029.43-.029.659-.011.149-.011.298-.011.459l2.451-1.422.376-.23.199-.109.358-.218v-1.101l-.011-2.18-.359.212v.006zm.012 3.935-.575.321-2.44 1.423c.011.791.051 1.491.12 2.122.011.218.039.419.068.602.011.149.028.281.051.419l2.213-1.291.387-.212.17-.109.376-.212v-1.101l-.012-2.18-.358.212v.006zm-2.628-3.505c-.029.161-.051.322-.08.482l2.122-1.239.387-.212.187-.109.359-.212v-1.09l-.012-3.493c-.119.08-.238.161-.358.258a8.434 8.434 0 0 0-.574.402c-.268.2-.535.43-.802.659-.347.872-.763 2.163-1.093 3.814-.039.241-.091.482-.13.74h-.006zm7.184 4.784a24.168 24.168 0 0 1-1.172 4.68c1.678-1.732 3.055-3.951 3.902-6.274l-1.547.9-1.183.7v-.006zm-.574.321-.575.339-.574.338-1.895 1.101.012 3.362v1.21a12.212 12.212 0 0 0 1.718-1.319c.108-.259.216-.551.318-.889.148-.431.307-.93.438-1.48.211-.769.398-1.669.546-2.662h.012zm-3.038 1.13 2.025-1.181.467-.27.108-.069.455-.269.079-.041c.012-.149.04-.309.051-.47.012-.051.012-.109.029-.16.011-.173.028-.35.04-.54.068-.711.108-1.451.108-2.242l-.398.229-.558.321-2.412 1.411.012 2.18v1.101h-.006zm3.931-5.575c-.012.809-.052 1.56-.12 2.26-.011.241-.028.47-.051.682-.011.161-.04.322-.051.471l1.467-.849v-.012l.615-.349.824-.482c.387-1.222.626-2.472.666-3.671l-1.041.602-2.304 1.342-.005.006zm-3.959-2.283 2.264-1.319.335-.189.239-.132v-.012l.211-.12c-.012-.052-.012-.109-.029-.149-.011-.081-.04-.161-.051-.241-.029-.121-.051-.253-.08-.362-.028-.08-.04-.149-.051-.212a9.925 9.925 0 0 0-.637-1.732c-.011-.029-.028-.052-.028-.069a6.495 6.495 0 0 0-.438-.728 6.57 6.57 0 0 0-.507.149 9.995 9.995 0 0 0-1.24.55l.012 3.482v1.09-.006zm.011 3.923 2.44-1.422.376-.218.187-.109.376-.229h.011c0-.15-.011-.299-.011-.431v-.229c-.012-.132-.012-.27-.029-.402a17.98 17.98 0 0 0-.21-2.07l-.239.149-.574.321-2.333 1.371.012 2.162v1.102l-.006.005zm-.933 5.134-.557.321-2.122 1.239c.239 1.279.586 2.18.904 2.793.16.299.319.522.455.7a7.825 7.825 0 0 0 1.707-.7v-1.141l-.011-3.424-.376.212zm-3.236 1.893-.148.08-.575.339-2.093 1.21c.108.149.21.298.318.43l.029.029c.131.16.279.298.438.43h.011c.08.08.171.149.268.201.091.068.199.131.307.189.267.149.546.258.842.321.108.04.238.069.358.08.455.081.944.081 1.45 0-.238-.338-.494-.82-.733-1.491a12.562 12.562 0 0 1-.478-1.812l.006-.006z" fill="url(#ddf0s3ewyJ)"/>
        <path d="m105.772 172.509-.932.551-32.782 19.083v2.191l33.714-19.634v-2.191zm-.011-4.835-.933.55-32.781 19.072v2.191l33.714-19.634v-2.179zM92.689 189.82l-20.602 11.999v2.191l21.547-12.538-.012-2.191-.933.539zm12.168-11.919-32.782 19.083v2.191l33.714-19.634v-2.191l-.932.551z" fill="url(#cro3xhqftK)"/>
        <path d="m146.392 137.137-83.196 48.444.091 30.974c0 .212.012.43.04.63.012.161.029.31.068.459.052.362.16.683.296.97.051.132.12.258.2.378.05.092.119.172.187.241.051.08.12.149.188.212.13.149.295.27.455.362.011.011.028.028.05.04.922.539 2.202.459 3.624-.361l73.02-42.503c2.81-1.64 5.08-5.604 5.08-8.856l-.091-30.99h-.012zm-9.903 18.371c.211.121.415.27.597.442.052.04.091.08.131.121.108.091.199.189.296.298.091.132.199.269.296.401l-.268.161-.227.132-2.241 1.29c-.029-.132-.051-.269-.08-.39a6.5 6.5 0 0 0-.131-.562c-.278-1.112-.637-1.852-.972-2.34.694-.092 1.348-.04 1.917.161.079.011.147.04.227.069l.011.011s.012 0 .029.011c.108.041.199.081.307.132.028.012.068.041.108.052v.011zm-1.638 6.247v.229c0 .132.011.281.011.43h-.011l-.376.23-.187.109-.376.212-2.44 1.422v-1.101l-.011-2.162 2.332-1.371.574-.321.239-.149c.108.602.171 1.29.216 2.07.012.132.012.27.029.402zm-.148 4.112c-.011.052-.011.109-.028.161-.012.161-.04.321-.052.47l-.079.04-.455.27-.108.069-.467.269-2.025 1.182v-1.101l-.011-2.18 2.412-1.411.557-.321.398-.23c0 .792-.04 1.532-.108 2.243-.011.189-.028.362-.04.539h.006zm-4.329 3.121-.387.218-2.212 1.29a2.964 2.964 0 0 1-.051-.419 8.414 8.414 0 0 1-.069-.602 22.801 22.801 0 0 1-.119-2.122l2.44-1.423.575-.321.358-.212.011 2.18v1.101l-.375.212-.171.109v-.011zm-3.157 1.829-.199.109-.279.161-.295.172-2.213 1.291c-.051-.109-.108-.23-.148-.35a2.052 2.052 0 0 1-.199-.54 7.026 7.026 0 0 1-.347-1.99l2.52-1.462.574-.339.336-.189c.011.78.068 1.48.131 2.111 0 .109.011.2.028.309.012.092.029.201.04.299.011.109.029.2.04.298 0 .04.011.08.011.12zm-2.116-7.726a18.404 18.404 0 0 1 1.638-2.822c.239-.338.478-.642.734-.952.307-.39.637-.769.984-1.113a22.48 22.48 0 0 0-.961 3.493c-.04.201-.08.402-.119.62 0 .029-.012.069-.012.109-.028.16-.051.321-.079.482l-.091.051-.427.253-.131.08-.438.258-1.718 1.01c.08-.201.148-.402.239-.591.108-.298.239-.591.376-.872h.011l-.006-.006zm4.852-6.206c.188-.149.387-.281.575-.401.119-.092.239-.173.358-.259l.012 3.494v1.089l-.359.213-.187.109-.387.212-2.122 1.239c.028-.161.051-.322.08-.482.039-.258.091-.499.13-.74.336-1.652.746-2.942 1.093-3.814.267-.23.534-.459.802-.66h.005zm.962 7.176v.671l-.359.218-.199.109-.375.229-2.452 1.422c0-.16 0-.309.012-.458 0-.23.011-.442.028-.66.028-.82.091-1.583.188-2.3l2.212-1.302.575-.321.358-.213.012 2.18v.43-.005zm-6.718 1.302 1.945-1.142.558-.321.477-.281c-.079.711-.147 1.48-.17 2.3-.012.149-.029.31-.029.482v.172c-.011.149-.011.298-.011.441v.012l-.358.218-.199.109-.376.212-2.491 1.451c0-.149.011-.298.04-.459 0-.229.028-.458.068-.699.091-.821.278-1.669.546-2.501v.006zm10.33-6.665-.211.12v.011l-.239.132-.335.19-2.264 1.319v-1.09l-.012-3.482a9.995 9.995 0 0 1 1.24-.55c.171-.052.347-.109.507-.149.131.189.278.418.438.728 0 .012.011.04.028.069.211.43.438 1.01.637 1.732.012.069.029.132.051.218.029.109.052.241.08.362.011.08.04.16.051.24.012.041.012.092.029.15zM105.778 174.7l-33.714 19.634v-2.191l32.781-19.083.933-.551v2.191zm-.011-4.852-33.714 19.634v-2.191l32.781-19.072.933-.551v2.18zM72.093 204.01v-2.191l20.602-11.999.933-.539.012 2.191-21.547 12.538zm33.702-24.469-33.714 19.634v-2.191l32.782-19.083.932-.551v2.191zm21.286-4.812a1.414 1.414 0 0 1-.359-.08 3.204 3.204 0 0 1-.841-.321 2.106 2.106 0 0 1-.308-.19 1.25 1.25 0 0 1-.267-.2h-.011a3.077 3.077 0 0 1-.438-.431l-.029-.028c-.108-.132-.21-.281-.318-.43l2.093-1.211.574-.338.148-.08c.131.711.308 1.319.478 1.812.239.671.495 1.153.734 1.491a4.359 4.359 0 0 1-1.451 0l-.005.006zm3.862-.849a7.888 7.888 0 0 1-1.706.7 5.09 5.09 0 0 1-.455-.7c-.319-.619-.666-1.52-.905-2.793l2.122-1.239.557-.321.376-.218.011 3.424v1.147zm2.292-1.652c-.546.511-1.132.941-1.717 1.32v-1.211l-.012-3.361 1.894-1.101.575-.339.574-.338a22.78 22.78 0 0 1-.546 2.661c-.13.551-.295 1.05-.438 1.48-.108.339-.21.631-.318.889h-.012zm.706-.671c.256-.682.534-1.571.785-2.65.148-.602.278-1.29.387-2.03l1.183-.7 1.547-.9c-.853 2.323-2.224 4.542-3.902 6.274v.006zm4.169-7.083-.825.481-.614.35v.012l-1.467.849c.011-.15.039-.31.051-.471.028-.212.04-.441.051-.682.068-.7.108-1.451.119-2.26l2.304-1.342 1.041-.603c-.04 1.199-.279 2.444-.665 3.671l.005-.005zm.108-3.993-.415.23-2.372 1.382c0-.149 0-.298-.011-.43 0-.229-.012-.442-.029-.642a22.112 22.112 0 0 0-.199-2.071l2.321-1.342.597-.35c.387.78.626 1.749.677 2.891l-.574.338.005-.006z" fill="url(#s5bcyb586L)"/>
        <path d="M64.072 219.233a1.349 1.349 0 0 1-.187-.241 1.854 1.854 0 0 1-.2-.379 3.58 3.58 0 0 1-.295-.969c-.04-.149-.051-.298-.069-.459a4.594 4.594 0 0 1-.04-.631l-.09-30.973-.933-.551.08 30.974c0 1.611.574 2.753 1.478 3.292l.893.51a1.899 1.899 0 0 1-.455-.361c-.068-.069-.13-.132-.187-.212h.005z" fill="url(#98dcefbefM)"/>
        <path d="m63.19 184.497-.022-9.315-.95-.55.04 10.399.932.55v-1.084z" fill="url(#b498mdpasN)"/>
        <path d="m68.23 164.634 73.02-42.502c.825-.482 1.598-.712 2.292-.712.12 0 .239.012.359.029.119.012.239.04.347.069.108.029.216.069.318.109.04.011.08.029.12.04l-.745-.442c-.933-.539-2.213-.458-3.624.362l-73.02 42.496c-2.827 1.641-5.09 5.604-5.08 8.856l.945.551c-.011-3.252 2.253-7.216 5.063-8.856h.005z" fill="url(#w4yycyydsO)"/>
        <path d="M63.168 174.081v-.591l-.95-.551v1.693l.95.55v-1.101z" fill="url(#h9a942hhjP)"/>
        <path d="m169.959 131.447-6.035-3.539c8.191.47 17.548-2.266 26.632-7.554l6.035 3.539c-9.078 5.288-18.435 8.024-26.632 7.554z" fill="url(#hpw7ejbo1Q)"/>
        <path d="m143.44 182.541-.08-27.658-6.035-3.539.08 27.658c.028 11.012 3.868 19.083 10.318 22.863l6.035 3.539c-6.45-3.78-10.29-11.851-10.324-22.863h.006z" fill="url(#qpahowk2iR)"/>
        <path d="m143.36 154.883-6.035-3.539c9.079-5.289 18.424-13.434 26.598-23.437l6.036 3.539c-8.174 10.003-17.514 18.148-26.599 23.437z" fill="url(#s99ss8hneS)"/>
        <path d="M169.959 131.447c8.191.47 17.548-2.266 26.632-7.554l.08 27.658c.045 16.639-8.607 36.697-21.9 50.738l-4.596 4.853-4.619.516c-13.322 1.451-22.065-8.472-22.11-25.117l-.08-27.658c9.079-5.288 18.424-13.433 26.598-23.436h-.005z" fill="url(#an786mxr1T)"/>
        <path d="M163.024 204.865c-10.25 0-16.638-8.558-16.678-22.335l-.074-25.983c8.732-5.346 17.327-12.946 25.006-22.123h.518c6.865 0 14.362-1.945 21.905-5.667l.062 22.794c.046 16.008-8.236 35.126-21.091 48.703l-3.868 4.078-3.567.395c-.745.081-1.49.121-2.207.121l-.006.017z" fill="url(#qr7pekv5gU)"/>
        <path d="m178.366 157.694-.216.126v-3.292c0-5.231-3.64-7.348-8.134-4.732-4.494 2.615-8.134 8.971-8.134 14.202v3.292l-.216.126c-1.098.643-1.991 2.197-1.991 3.482v13.399c0 1.279.893 1.801 1.991 1.158l16.7-9.722c1.098-.642 1.991-2.197 1.991-3.481v-13.399c0-1.279-.893-1.801-1.991-1.159zm-7.787 11.959v4.205l-1.126.659v-4.204c-.626.097-1.075-.339-1.075-1.159 0-1.055.734-2.334 1.638-2.862.904-.528 1.638-.097 1.638.952 0 .82-.449 1.778-1.075 2.409zm4.579-10.095-10.29 5.994v-3.292c0-1.658.575-3.482 1.508-5.117.938-1.629 2.212-3.04 3.64-3.871 1.428-.832 2.702-.906 3.64-.362.933.545 1.508 1.698 1.508 3.362v3.292l-.006-.006z" fill="url(#rvqv1lx2pV)"/>
        <path d="m149.811 87.19-34.784 20.247v-4.038l34.784-20.254v4.044z" fill="url(#g0ttrvnqlW)"/>
        <path d="m149.811 87.19-10.808 6.286v-4.038l10.808-6.293v4.044z" fill="url(#c273gdvinX)"/>
    </g>
    <defs>
        <linearGradient id="7a9stw24fb" x1="203.799" y1="133.236" x2="237.001" y2="133.236" gradientUnits="userSpaceOnUse">
            <stop stop-color="#00A5FF"/>
            <stop offset=".15" stop-color="#03A0FF"/>
            <stop offset=".33" stop-color="#0C91FF"/>
            <stop offset=".52" stop-color="#1B7AFF"/>
            <stop offset=".72" stop-color="#3159FF"/>
            <stop offset=".93" stop-color="#4C2EFF"/>
            <stop offset="1" stop-color="#571FFF"/>
        </linearGradient>
        <linearGradient id="bxxxhemftc" x1="132.411" y1="122.184" x2="203.804" y2="122.184" gradientUnits="userSpaceOnUse">
            <stop stop-color="#00A5FF"/>
            <stop offset=".15" stop-color="#03A0FF"/>
            <stop offset=".33" stop-color="#0C91FF"/>
            <stop offset=".52" stop-color="#1B7AFF"/>
            <stop offset=".72" stop-color="#3159FF"/>
            <stop offset=".93" stop-color="#4C2EFF"/>
            <stop offset="1" stop-color="#571FFF"/>
        </linearGradient>
        <linearGradient id="bc4n7tnx7d" x1="211.154" y1="136.081" x2="244.356" y2="136.081" gradientUnits="userSpaceOnUse">
            <stop stop-color="#00A5FF"/>
            <stop offset=".15" stop-color="#03A0FF"/>
            <stop offset=".33" stop-color="#0C91FF"/>
            <stop offset=".52" stop-color="#1B7AFF"/>
            <stop offset=".72" stop-color="#3159FF"/>
            <stop offset=".93" stop-color="#4C2EFF"/>
            <stop offset="1" stop-color="#571FFF"/>
        </linearGradient>
        <linearGradient id="9qdum9bx3e" x1="123.355" y1="125.028" x2="194.754" y2="125.028" gradientUnits="userSpaceOnUse">
            <stop stop-color="#00A5FF"/>
            <stop offset=".15" stop-color="#03A0FF"/>
            <stop offset=".33" stop-color="#0C91FF"/>
            <stop offset=".52" stop-color="#1B7AFF"/>
            <stop offset=".72" stop-color="#3159FF"/>
            <stop offset=".93" stop-color="#4C2EFF"/>
            <stop offset="1" stop-color="#571FFF"/>
        </linearGradient>
        <linearGradient id="9zpq2i56gf" x1=".001" y1="138.933" x2=".57" y2="138.933" gradientUnits="userSpaceOnUse">
            <stop stop-color="#00A5FF"/>
            <stop offset=".15" stop-color="#03A0FF"/>
            <stop offset=".33" stop-color="#0C91FF"/>
            <stop offset=".52" stop-color="#1B7AFF"/>
            <stop offset=".72" stop-color="#3159FF"/>
            <stop offset=".93" stop-color="#4C2EFF"/>
            <stop offset="1" stop-color="#571FFF"/>
        </linearGradient>
        <linearGradient id="s2fqqm6bsg" x1="132.411" y1="127.873" x2="203.804" y2="127.873" gradientUnits="userSpaceOnUse">
            <stop stop-color="#00A5FF"/>
            <stop offset=".15" stop-color="#03A0FF"/>
            <stop offset=".33" stop-color="#0C91FF"/>
            <stop offset=".52" stop-color="#1B7AFF"/>
            <stop offset=".72" stop-color="#3159FF"/>
            <stop offset=".93" stop-color="#4C2EFF"/>
            <stop offset="1" stop-color="#571FFF"/>
        </linearGradient>
        <linearGradient id="9uwex8bhrh" x1="213.992" y1="141.777" x2="247.194" y2="141.777" gradientUnits="userSpaceOnUse">
            <stop stop-color="#00A5FF"/>
            <stop offset=".15" stop-color="#03A0FF"/>
            <stop offset=".33" stop-color="#0C91FF"/>
            <stop offset=".52" stop-color="#1B7AFF"/>
            <stop offset=".72" stop-color="#3159FF"/>
            <stop offset=".93" stop-color="#4C2EFF"/>
            <stop offset="1" stop-color="#571FFF"/>
        </linearGradient>
        <linearGradient id="w0mr40olni" x1="117.94" y1="130.724" x2="189.333" y2="130.724" gradientUnits="userSpaceOnUse">
            <stop stop-color="#00A5FF"/>
            <stop offset=".15" stop-color="#03A0FF"/>
            <stop offset=".33" stop-color="#0C91FF"/>
            <stop offset=".52" stop-color="#1B7AFF"/>
            <stop offset=".72" stop-color="#3159FF"/>
            <stop offset=".93" stop-color="#4C2EFF"/>
            <stop offset="1" stop-color="#571FFF"/>
        </linearGradient>
        <linearGradient id="ib1wscn8cj" x1="132.416" y1="111.033" x2="237" y2="111.033" gradientUnits="userSpaceOnUse">
            <stop stop-color="#C6DFF2"/>
            <stop offset="1" stop-color="#9BB7FC"/>
        </linearGradient>
        <linearGradient id="7xr55xtd2k" x1="140.875" y1="111.033" x2="228.542" y2="111.033" gradientUnits="userSpaceOnUse">
            <stop stop-color="#00A5FF"/>
            <stop offset=".15" stop-color="#03A0FF"/>
            <stop offset=".33" stop-color="#0C91FF"/>
            <stop offset=".52" stop-color="#1B7AFF"/>
            <stop offset=".72" stop-color="#3159FF"/>
            <stop offset=".93" stop-color="#4C2EFF"/>
            <stop offset="1" stop-color="#571FFF"/>
        </linearGradient>
        <linearGradient id="sq2wfqn7fl" x1="168.6" y1="111.034" x2="200.818" y2="111.034" gradientUnits="userSpaceOnUse">
            <stop stop-color="#C6DFF2"/>
            <stop offset="1" stop-color="#9BB7FC"/>
        </linearGradient>
        <linearGradient id="070vuy5nim" x1="174.885" y1="111.039" x2="194.566" y2="111.039" gradientUnits="userSpaceOnUse">
            <stop stop-color="#00A5FF"/>
            <stop offset=".15" stop-color="#03A0FF"/>
            <stop offset=".33" stop-color="#0C91FF"/>
            <stop offset=".52" stop-color="#1B7AFF"/>
            <stop offset=".72" stop-color="#3159FF"/>
            <stop offset=".93" stop-color="#4C2EFF"/>
            <stop offset="1" stop-color="#571FFF"/>
        </linearGradient>
        <linearGradient id="ymmmofi17n" x1="68.231" y1="116.041" x2="84.525" y2="144.028" gradientUnits="userSpaceOnUse">
            <stop stop-color="#00A5FF"/>
            <stop offset=".15" stop-color="#03A0FF"/>
            <stop offset=".33" stop-color="#0C91FF"/>
            <stop offset=".52" stop-color="#1B7AFF"/>
            <stop offset=".72" stop-color="#3159FF"/>
            <stop offset=".93" stop-color="#4C2EFF"/>
            <stop offset="1" stop-color="#571FFF"/>
        </linearGradient>
        <linearGradient id="epjgywspto" x1="34.346" y1="129.915" x2="38.36" y2="136.815" gradientUnits="userSpaceOnUse">
            <stop stop-color="#F5DD34"/>
            <stop offset="1" stop-color="#FFAE49"/>
        </linearGradient>
        <linearGradient id="q3knmriuwp" x1="31.36" y1="130.529" x2="31.36" y2="140.859" gradientUnits="userSpaceOnUse">
            <stop stop-color="#C6DFF2"/>
            <stop offset=".22" stop-color="#C7E0F2"/>
            <stop offset=".29" stop-color="#CEE3F3"/>
            <stop offset=".35" stop-color="#DAEAF6"/>
            <stop offset=".39" stop-color="#EBF3F9"/>
            <stop offset=".42" stop-color="#F9FBFC"/>
            <stop offset=".53" stop-color="#F3F7FC"/>
            <stop offset=".65" stop-color="#E5ECFC"/>
            <stop offset=".79" stop-color="#CDDBFC"/>
            <stop offset=".94" stop-color="#ABC3FC"/>
            <stop offset="1" stop-color="#9BB7FC"/>
        </linearGradient>
        <linearGradient id="1eb5piuh1q" x1="24.375" y1="138.009" x2="30.37" y2="138.009" gradientUnits="userSpaceOnUse">
            <stop stop-color="#550081"/>
            <stop offset="1" stop-color="#286FB3"/>
        </linearGradient>
        <linearGradient id="dxwbsxi35r" x1="24.436" y1="155.818" x2="54.886" y2="155.818" gradientUnits="userSpaceOnUse">
            <stop stop-color="#C6DFF2"/>
            <stop offset="1" stop-color="#9BB7FC"/>
        </linearGradient>
        <linearGradient id="s6gzeqfqss" x1="54.01" y1="92.409" x2="54.01" y2="181.572" gradientUnits="userSpaceOnUse">
            <stop stop-color="#00A5FF"/>
            <stop offset=".15" stop-color="#03A0FF"/>
            <stop offset=".33" stop-color="#0C91FF"/>
            <stop offset=".52" stop-color="#1B7AFF"/>
            <stop offset=".72" stop-color="#3159FF"/>
            <stop offset=".93" stop-color="#4C2EFF"/>
            <stop offset="1" stop-color="#571FFF"/>
        </linearGradient>
        <linearGradient id="d2e3s0zw2t" x1="15.558" y1="160.074" x2="17.81" y2="160.074" gradientUnits="userSpaceOnUse">
            <stop stop-color="#C6DFF2"/>
            <stop offset=".22" stop-color="#C7E0F2"/>
            <stop offset=".29" stop-color="#CEE3F3"/>
            <stop offset=".35" stop-color="#DAEAF6"/>
            <stop offset=".39" stop-color="#EBF3F9"/>
            <stop offset=".42" stop-color="#F9FBFC"/>
            <stop offset=".53" stop-color="#F3F7FC"/>
            <stop offset=".65" stop-color="#E5ECFC"/>
            <stop offset=".79" stop-color="#CDDBFC"/>
            <stop offset=".94" stop-color="#ABC3FC"/>
            <stop offset="1" stop-color="#9BB7FC"/>
        </linearGradient>
        <linearGradient id="478tsbnatu" x1="15.558" y1="115.662" x2="89.988" y2="115.662" gradientUnits="userSpaceOnUse">
            <stop stop-color="#C6DFF2"/>
            <stop offset=".22" stop-color="#C7E0F2"/>
            <stop offset=".29" stop-color="#CEE3F3"/>
            <stop offset=".35" stop-color="#DAEAF6"/>
            <stop offset=".39" stop-color="#EBF3F9"/>
            <stop offset=".42" stop-color="#F9FBFC"/>
            <stop offset=".53" stop-color="#F3F7FC"/>
            <stop offset=".65" stop-color="#E5ECFC"/>
            <stop offset=".79" stop-color="#CDDBFC"/>
            <stop offset=".94" stop-color="#ABC3FC"/>
            <stop offset="1" stop-color="#9BB7FC"/>
        </linearGradient>
        <linearGradient id="955xy7750v" x1="130.232" y1="26.235" x2="130.232" y2="179.593" gradientUnits="userSpaceOnUse">
            <stop stop-color="#00A5FF"/>
            <stop offset=".15" stop-color="#03A0FF"/>
            <stop offset=".33" stop-color="#0C91FF"/>
            <stop offset=".52" stop-color="#1B7AFF"/>
            <stop offset=".72" stop-color="#3159FF"/>
            <stop offset=".93" stop-color="#4C2EFF"/>
            <stop offset="1" stop-color="#571FFF"/>
        </linearGradient>
        <linearGradient id="69gnnicv5w" x1="97.292" y1="101.122" x2="156.233" y2="101.122" gradientUnits="userSpaceOnUse">
            <stop stop-color="#C6DFF2"/>
            <stop offset=".35" stop-color="#F9FBFC"/>
            <stop offset="1" stop-color="#9BB7FC"/>
        </linearGradient>
        <linearGradient id="zjugatklcx" x1="125.112" y1="44.71" x2="135.351" y2="44.71" gradientUnits="userSpaceOnUse">
            <stop stop-color="#32008D"/>
            <stop offset="1" stop-color="#286FB3"/>
        </linearGradient>
        <linearGradient id="ahpou31poy" x1="135.351" y1="29.802" x2="145.448" y2="29.802" gradientUnits="userSpaceOnUse">
            <stop stop-color="#C6DFF2"/>
            <stop offset="1" stop-color="#9BB7FC"/>
        </linearGradient>
        <linearGradient id="n93s19blxz" x1="135.352" y1="30.944" x2="145.448" y2="30.944" gradientUnits="userSpaceOnUse">
            <stop stop-color="#C6DFF2"/>
            <stop offset=".08" stop-color="#CAE1F2"/>
            <stop offset=".16" stop-color="#D7E8F5"/>
            <stop offset=".24" stop-color="#EDF4F9"/>
            <stop offset=".28" stop-color="#F9FBFC"/>
            <stop offset=".73" stop-color="#A7C0FB"/>
            <stop offset="1" stop-color="#7CA1FB"/>
        </linearGradient>
        <linearGradient id="02bxlfg3vA" x1="99.1" y1="64.987" x2="99.1" y2="73.08" gradientUnits="userSpaceOnUse">
            <stop stop-color="#C6DFF2"/>
            <stop offset="1" stop-color="#9BB7FC"/>
        </linearGradient>
        <linearGradient id="l2wv5uuolB" x1="99.851" y1="64.321" x2="99.851" y2="72.988" gradientUnits="userSpaceOnUse">
            <stop stop-color="#C6DFF2"/>
            <stop offset=".08" stop-color="#CAE1F2"/>
            <stop offset=".16" stop-color="#D7E8F5"/>
            <stop offset=".24" stop-color="#EDF4F9"/>
            <stop offset=".28" stop-color="#F9FBFC"/>
            <stop offset=".73" stop-color="#A7C0FB"/>
            <stop offset="1" stop-color="#7CA1FB"/>
        </linearGradient>
        <linearGradient id="qxa7nva3kC" x1="98.719" y1="81.442" x2="98.719" y2="87.373" gradientUnits="userSpaceOnUse">
            <stop stop-color="#C6DFF2"/>
            <stop offset="1" stop-color="#9BB7FC"/>
        </linearGradient>
        <linearGradient id="bselgkhnxD" x1="98.719" y1="90.585" x2="98.719" y2="96.516" gradientUnits="userSpaceOnUse">
            <stop stop-color="#C6DFF2"/>
            <stop offset="1" stop-color="#9BB7FC"/>
        </linearGradient>
        <linearGradient id="6kqazk8yxE" x1="99.67" y1="80.777" x2="99.67" y2="87.172" gradientUnits="userSpaceOnUse">
            <stop stop-color="#C6DFF2"/>
            <stop offset=".08" stop-color="#CAE1F2"/>
            <stop offset=".16" stop-color="#D7E8F5"/>
            <stop offset=".24" stop-color="#EDF4F9"/>
            <stop offset=".28" stop-color="#F9FBFC"/>
            <stop offset=".73" stop-color="#A7C0FB"/>
            <stop offset="1" stop-color="#7CA1FB"/>
        </linearGradient>
        <linearGradient id="q7g8mhy7qF" x1="99.67" y1="89.919" x2="99.67" y2="96.315" gradientUnits="userSpaceOnUse">
            <stop stop-color="#C6DFF2"/>
            <stop offset=".08" stop-color="#CAE1F2"/>
            <stop offset=".16" stop-color="#D7E8F5"/>
            <stop offset=".24" stop-color="#EDF4F9"/>
            <stop offset=".28" stop-color="#F9FBFC"/>
            <stop offset=".73" stop-color="#A7C0FB"/>
            <stop offset="1" stop-color="#7CA1FB"/>
        </linearGradient>
        <linearGradient id="4l7q8msssG" x1="130.232" y1="33.182" x2="130.232" y2="172.223" gradientUnits="userSpaceOnUse">
            <stop stop-color="#32008D"/>
            <stop offset="1" stop-color="#006FFF"/>
        </linearGradient>
        <linearGradient id="5pnyd6qsfH" x1="63.168" y1="156.162" x2="146.392" y2="156.162" gradientUnits="userSpaceOnUse">
            <stop stop-color="#323E8D"/>
            <stop offset="1" stop-color="#762AB3"/>
        </linearGradient>
        <linearGradient id="2o5nkrarkI" x1="63.168" y1="148.299" x2="146.364" y2="148.299" gradientUnits="userSpaceOnUse">
            <stop stop-color="#C6DFF2"/>
            <stop offset="1" stop-color="#9BB7FC"/>
        </linearGradient>
        <linearGradient id="ddf0s3ewyJ" x1="123.537" y1="164.903" x2="138.781" y2="164.903" gradientUnits="userSpaceOnUse">
            <stop stop-color="#550081"/>
            <stop offset="1" stop-color="#286FB3"/>
        </linearGradient>
        <linearGradient id="cro3xhqftK" x1="72.041" y1="185.839" x2="105.784" y2="185.839" gradientUnits="userSpaceOnUse">
            <stop stop-color="#550081"/>
            <stop offset="1" stop-color="#286FB3"/>
        </linearGradient>
        <linearGradient id="s5bcyb586L" x1="63.191" y1="178.664" x2="146.483" y2="178.664" gradientUnits="userSpaceOnUse">
            <stop stop-color="#C6DFF2"/>
            <stop offset="1" stop-color="#9BB7FC"/>
        </linearGradient>
        <linearGradient id="98dcefbefM" x1="62.258" y1="202.421" x2="64.709" y2="202.421" gradientUnits="userSpaceOnUse">
            <stop stop-color="#C6DFF2"/>
            <stop offset=".22" stop-color="#C7E0F2"/>
            <stop offset=".29" stop-color="#CEE3F3"/>
            <stop offset=".35" stop-color="#DAEAF6"/>
            <stop offset=".39" stop-color="#EBF3F9"/>
            <stop offset=".42" stop-color="#F9FBFC"/>
            <stop offset=".53" stop-color="#F3F7FC"/>
            <stop offset=".65" stop-color="#E5ECFC"/>
            <stop offset=".79" stop-color="#CDDBFC"/>
            <stop offset=".94" stop-color="#ABC3FC"/>
            <stop offset="1" stop-color="#9BB7FC"/>
        </linearGradient>
        <linearGradient id="b498mdpasN" x1="62.707" y1="174.632" x2="62.707" y2="185.581" gradientUnits="userSpaceOnUse">
            <stop stop-color="#550081"/>
            <stop offset="1" stop-color="#286FB3"/>
        </linearGradient>
        <linearGradient id="w4yycyydsO" x1="62.218" y1="147.18" x2="144.686" y2="147.18" gradientUnits="userSpaceOnUse">
            <stop stop-color="#C6DFF2"/>
            <stop offset=".22" stop-color="#C7E0F2"/>
            <stop offset=".29" stop-color="#CEE3F3"/>
            <stop offset=".35" stop-color="#DAEAF6"/>
            <stop offset=".39" stop-color="#EBF3F9"/>
            <stop offset=".42" stop-color="#F9FBFC"/>
            <stop offset=".53" stop-color="#F3F7FC"/>
            <stop offset=".65" stop-color="#E5ECFC"/>
            <stop offset=".79" stop-color="#CDDBFC"/>
            <stop offset=".94" stop-color="#ABC3FC"/>
            <stop offset="1" stop-color="#9BB7FC"/>
        </linearGradient>
        <linearGradient id="h9a942hhjP" x1="62.218" y1="174.058" x2="63.168" y2="174.058" gradientUnits="userSpaceOnUse">
            <stop stop-color="#C6DFF2"/>
            <stop offset=".22" stop-color="#C7E0F2"/>
            <stop offset=".29" stop-color="#CEE3F3"/>
            <stop offset=".35" stop-color="#DAEAF6"/>
            <stop offset=".39" stop-color="#EBF3F9"/>
            <stop offset=".42" stop-color="#F9FBFC"/>
            <stop offset=".53" stop-color="#F3F7FC"/>
            <stop offset=".65" stop-color="#E5ECFC"/>
            <stop offset=".79" stop-color="#CDDBFC"/>
            <stop offset=".94" stop-color="#ABC3FC"/>
            <stop offset="1" stop-color="#9BB7FC"/>
        </linearGradient>
        <linearGradient id="hpw7ejbo1Q" x1="163.924" y1="125.929" x2="196.591" y2="125.929" gradientUnits="userSpaceOnUse">
            <stop stop-color="#550081"/>
            <stop offset="1" stop-color="#286FB3"/>
        </linearGradient>
        <linearGradient id="qpahowk2iR" x1="145.545" y1="151.344" x2="145.545" y2="205.398" gradientUnits="userSpaceOnUse">
            <stop stop-color="#550081"/>
            <stop offset="1" stop-color="#286FB3"/>
        </linearGradient>
        <linearGradient id="s99ss8hneS" x1="137.325" y1="141.398" x2="169.959" y2="141.398" gradientUnits="userSpaceOnUse">
            <stop stop-color="#550081"/>
            <stop offset="1" stop-color="#286FB3"/>
        </linearGradient>
        <linearGradient id="an786mxr1T" x1="170.016" y1="123.893" x2="170.016" y2="207.796" gradientUnits="userSpaceOnUse">
            <stop stop-color="#3A439F"/>
            <stop offset=".4" stop-color="#6FADD4"/>
            <stop offset="1" stop-color="#550081"/>
        </linearGradient>
        <linearGradient id="qr7pekv5gU" x1="170.015" y1="128.763" x2="170.015" y2="204.865" gradientUnits="userSpaceOnUse">
            <stop stop-color="#F5DD34"/>
            <stop offset="1" stop-color="#FF7C88"/>
        </linearGradient>
        <linearGradient id="rvqv1lx2pV" x1="170.016" y1="148.672" x2="170.016" y2="185.725" gradientUnits="userSpaceOnUse">
            <stop stop-color="#286FB3"/>
            <stop offset="1" stop-color="#550081"/>
        </linearGradient>
        <linearGradient id="g0ttrvnqlW" x1="129.791" y1="85.188" x2="149.863" y2="96.679" gradientUnits="userSpaceOnUse">
            <stop stop-color="#F5DD34"/>
            <stop offset="1" stop-color="#FFAE49"/>
        </linearGradient>
        <linearGradient id="c273gdvinX" x1="144.407" y1="83.145" x2="144.407" y2="93.476" gradientUnits="userSpaceOnUse">
            <stop stop-color="#00A5FF"/>
            <stop offset=".15" stop-color="#03A0FF"/>
            <stop offset=".33" stop-color="#0C91FF"/>
            <stop offset=".52" stop-color="#1B7AFF"/>
            <stop offset=".72" stop-color="#3159FF"/>
            <stop offset=".93" stop-color="#4C2EFF"/>
            <stop offset="1" stop-color="#571FFF"/>
        </linearGradient>
        <clipPath id="gvqjeo1uka">
            <path fill="#fff" transform="translate(0 23)" d="M0 0h237v224H0z"/>
        </clipPath>
    </defs>
</svg>
