<svg width="24" height="24" viewBox="0 0 24 24" fill="none" xmlns="http://www.w3.org/2000/svg">
<path fill-rule="evenodd" clip-rule="evenodd" d="M8.91583 3.2002H6.40001C5.07625 3.2002 4 4.31008 4 5.67521V20.5253C4 21.8904 5.07625 23.0003 6.40001 23.0003H14.8C16.1238 23.0003 17.2001 21.8904 17.2001 20.5253V11.3298C16.3293 11.8152 15.3261 12.0918 14.2584 12.0918C10.917 12.0918 8.20833 9.38313 8.20833 6.04179C8.20833 5.01472 8.46426 4.04742 8.91583 3.2002ZM11.4486 19.0315C11.2235 18.7994 10.9183 18.669 10.6 18.669C10.2818 18.669 9.97654 18.7994 9.7515 19.0315C9.52645 19.2635 9.40002 19.5783 9.40002 19.9065C9.40002 20.2347 9.52645 20.5495 9.7515 20.7816C9.97654 21.0136 10.2818 21.144 10.6 21.144C10.9183 21.144 11.2235 21.0136 11.4486 20.7816C11.6736 20.5495 11.8 20.2347 11.8 19.9065C11.8 19.5783 11.6736 19.2635 11.4486 19.0315Z" fill="#377DFF"/>
<path fill-rule="evenodd" clip-rule="evenodd" d="M18.6996 7.97106C18.953 7.35937 19.0834 6.70377 19.0834 6.04169C19.0834 4.70455 18.5522 3.42218 17.6067 2.47668C16.6612 1.53118 15.3788 1 14.0417 1C12.7045 1 11.4222 1.53118 10.4767 2.47668C9.53118 3.42218 9 4.70455 9 6.04169C9 6.70377 9.13041 7.35937 9.38378 7.97106C9.63714 8.58274 10.0085 9.13853 10.4767 9.6067C10.9448 10.0749 11.5006 10.4462 12.1123 10.6996C12.724 10.953 13.3796 11.0834 14.0417 11.0834C14.7038 11.0834 15.3594 10.953 15.9711 10.6996C16.5827 10.4462 17.1385 10.0749 17.6067 9.6067C18.0749 9.13853 18.4462 8.58274 18.6996 7.97106ZM14.8143 7.41538L15 2H13L13.1858 7.41538H14.8143ZM13.2893 9.68846C13.4869 9.89615 13.7238 10 14 10C14.1762 10 14.3393 9.95256 14.4893 9.85769C14.6393 9.76026 14.7607 9.63077 14.8536 9.46923C14.9488 9.30513 14.9976 9.12308 15 8.92308C14.9976 8.63077 14.8952 8.38077 14.6929 8.17308C14.4929 7.96538 14.2619 7.86154 14 7.86154C13.7238 7.86154 13.4869 7.96538 13.2893 8.17308C13.0941 8.38077 12.9977 8.63077 13 8.92308C12.9977 9.22308 13.0941 9.4782 13.2893 9.68846Z" fill="#E4C000"/>
</svg>
