<svg width="24" height="24" viewBox="0 0 24 24" fill="none" xmlns="http://www.w3.org/2000/svg">
<path fill-rule="evenodd" clip-rule="evenodd" d="M9.55988 4H8.1818C6.9784 4 6 5.00898 6 6.24998V19.7499C6 20.9909 6.9784 21.9998 8.1818 21.9998H15.8181C17.0215 21.9998 17.9999 20.9909 17.9999 19.7499V10.756C17.0374 11.5833 15.7854 12.0833 14.4166 12.0833C11.379 12.0833 8.91663 9.62093 8.91663 6.58339C8.91663 5.64964 9.14932 4.77023 9.55988 4ZM12.7713 18.3919C12.5667 18.1809 12.2893 18.0624 11.9999 18.0624C11.7106 18.0624 11.4331 18.1809 11.2286 18.3919C11.024 18.6029 10.909 18.889 10.909 19.1874C10.909 19.4857 11.024 19.7719 11.2286 19.9829C11.4331 20.1938 11.7106 20.3124 11.9999 20.3124C12.2893 20.3124 12.5667 20.1938 12.7713 19.9829C12.9759 19.7719 13.0908 19.4857 13.0908 19.1874C13.0908 18.889 12.9759 18.6029 12.7713 18.3919Z" fill="#377DFF"/>
<path d="M18.9998 6.58329C18.9998 7.18518 18.8813 7.78117 18.651 8.33724C18.4206 8.89332 18.083 9.39857 17.6574 9.82417C17.2318 10.2498 16.7266 10.5874 16.1705 10.8177C15.6144 11.048 15.0184 11.1666 14.4165 11.1666C13.8147 11.1666 13.2187 11.048 12.6626 10.8177C12.1065 10.5874 11.6013 10.2498 11.1757 9.82417C10.7501 9.39857 10.4125 8.89332 10.1821 8.33724C9.9518 7.78117 9.83325 7.18518 9.83325 6.58329C9.83325 5.36773 10.3161 4.20195 11.1757 3.34242C12.0352 2.48288 13.201 2 14.4165 2C15.6321 2 16.7979 2.48288 17.6574 3.34242C18.517 4.20195 18.9998 5.36773 18.9998 6.58329ZM16.8141 4.69498C16.7668 4.64755 16.7106 4.60993 16.6487 4.58425C16.5869 4.55858 16.5206 4.54536 16.4536 4.54536C16.3866 4.54536 16.3203 4.55858 16.2584 4.58425C16.1965 4.60993 16.1403 4.64755 16.093 4.69498L13.398 7.39097L12.7401 6.732C12.6927 6.68465 12.6365 6.64709 12.5747 6.62146C12.5128 6.59584 12.4465 6.58265 12.3795 6.58265C12.3126 6.58265 12.2463 6.59584 12.1844 6.62146C12.1225 6.64709 12.0663 6.68465 12.019 6.732C11.9716 6.77935 11.9341 6.83556 11.9084 6.89742C11.8828 6.95928 11.8696 7.02559 11.8696 7.09255C11.8696 7.15951 11.8828 7.22582 11.9084 7.28768C11.9341 7.34954 11.9716 7.40575 12.019 7.4531L13.0375 8.47161C13.0848 8.51904 13.141 8.55666 13.2029 8.58234C13.2647 8.60801 13.3311 8.62122 13.398 8.62122C13.465 8.62122 13.5313 8.60801 13.5932 8.58234C13.6551 8.55666 13.7113 8.51904 13.7586 8.47161L16.8141 5.41608C16.8615 5.36878 16.8992 5.31258 16.9248 5.25071C16.9505 5.18884 16.9637 5.12251 16.9637 5.05553C16.9637 4.98854 16.9505 4.92222 16.9248 4.86035C16.8992 4.79848 16.8615 4.74228 16.8141 4.69498Z" fill="#00AA25"/>
</svg>
