<svg width="40" height="40" viewBox="0 0 40 40" fill="none" xmlns="http://www.w3.org/2000/svg">
    <circle cx="20" cy="20" r="20" fill="#FFF2D8"/>
    <path opacity=".491" fill-rule="evenodd" clip-rule="evenodd" d="M11 14.5c0-.276.098-.512.293-.707A.963.963 0 0 1 12 13.5h16c.276 0 .512.098.707.293A.963.963 0 0 1 29 14.5V25a.963.963 0 0 1-.293.707A.963.963 0 0 1 28 26H12a.963.963 0 0 1-.707-.293A.963.963 0 0 1 11 25V14.5z" fill="#FFBE3D"/>
    <path fill="#FFBE3D" d="M11 16h18v3.5H11z"/>
    <path fill-rule="evenodd" clip-rule="evenodd" d="M24 22.5c0-.138.049-.256.146-.354A.482.482 0 0 1 24.5 22H27c.138 0 .256.049.354.146a.482.482 0 0 1 .146.354v.5a.482.482 0 0 1-.146.354.482.482 0 0 1-.354.146h-2.5a.482.482 0 0 1-.354-.146A.482.482 0 0 1 24 23v-.5z" fill="#fff"/>
</svg>
