<svg xmlns="http://www.w3.org/2000/svg" width="277" height="185" viewBox="0 0 277 185">
    <defs>
        <linearGradient id="a" x1="50%" x2="50%" y1="7.264%" y2="151.058%">
            <stop offset="0%" stop-color="#D0F6FF"/>
            <stop offset="100%" stop-color="#8BE2F7"/>
        </linearGradient>
        <linearGradient id="b" x1="8.382%" x2="56.57%" y1="44.541%" y2="50%">
            <stop offset="0%" stop-color="#CFE49F"/>
            <stop offset="100%" stop-color="#A9D386"/>
        </linearGradient>
        <linearGradient id="c" x1="50%" x2="50%" y1="7.264%" y2="100%">
            <stop offset="0%" stop-color="#55D0FF"/>
            <stop offset="100%" stop-color="#32A2FE"/>
        </linearGradient>
        <linearGradient id="d" x1="50%" x2="50%" y1="0%" y2="100%">
            <stop offset="0%" stop-color="#FF9485"/>
            <stop offset="100%" stop-color="#FF676E"/>
        </linearGradient>
        <linearGradient id="e" x1="8.382%" x2="56.57%" y1="31.23%" y2="50%">
            <stop offset="0%" stop-color="#CFE49F"/>
            <stop offset="100%" stop-color="#A9D386"/>
        </linearGradient>
        <linearGradient id="f" x1="44.707%" x2="54.943%" y1="3.882%" y2="56.924%">
            <stop offset="0%" stop-color="#77D791"/>
            <stop offset="100%" stop-color="#4FA67E"/>
        </linearGradient>
        <linearGradient id="g" x1="4.766%" y1="41.062%" y2="60.688%">
            <stop offset="0%" stop-color="#6EAE7C"/>
            <stop offset="100%" stop-color="#0F575D"/>
        </linearGradient>
        <linearGradient id="h" x1="50%" x2="50%" y1="0%" y2="100%">
            <stop offset="0%" stop-color="#4DBCFA"/>
            <stop offset="100%" stop-color="#1486DB"/>
        </linearGradient>
        <linearGradient id="i" x1="82.577%" x2="82.577%" y1="-52.951%" y2="186.665%">
            <stop offset="0%" stop-color="#1533B6"/>
            <stop offset="100%" stop-color="#356BE9"/>
        </linearGradient>
        <linearGradient id="j" x1="82.577%" x2="82.577%" y1="-52.951%" y2="186.665%">
            <stop offset="0%" stop-color="#1533B6"/>
            <stop offset="100%" stop-color="#356BE9"/>
        </linearGradient>
        <linearGradient id="k" x1="50%" x2="50%" y1="0%" y2="100%">
            <stop offset="0%" stop-color="#FF9485"/>
            <stop offset="100%" stop-color="#FF676E"/>
        </linearGradient>
        <linearGradient id="l" x1="50%" x2="50%" y1="-27.364%" y2="100%">
            <stop offset="0%" stop-color="#C0E4FD"/>
            <stop offset="100%" stop-color="#72B9FE"/>
        </linearGradient>
        <linearGradient id="m" x1="50%" x2="50%" y1="-27.364%" y2="100%">
            <stop offset="0%" stop-color="#C0E4FD"/>
            <stop offset="100%" stop-color="#72B9FE"/>
        </linearGradient>
        <linearGradient id="n" x1="50%" x2="50%" y1="-27.364%" y2="100%">
            <stop offset="0%" stop-color="#C0E4FD"/>
            <stop offset="100%" stop-color="#72B9FE"/>
        </linearGradient>
        <linearGradient id="o" x1="50%" x2="50%" y1="0%" y2="100%">
            <stop offset="0%" stop-color="#1D2A78"/>
            <stop offset="100%" stop-color="#12033B"/>
        </linearGradient>
        <linearGradient id="p" x1="50%" x2="50%" y1="0%" y2="100%">
            <stop offset="0%" stop-color="#1D2A78"/>
            <stop offset="100%" stop-color="#12033B"/>
        </linearGradient>
        <linearGradient id="q" x1="82.577%" x2="82.577%" y1="-52.951%" y2="186.665%">
            <stop offset="0%" stop-color="#1533B6"/>
            <stop offset="100%" stop-color="#356BE9"/>
        </linearGradient>
        <linearGradient id="r" x1="50%" x2="50%" y1="0%" y2="100%">
            <stop offset="0%" stop-color="#FF9485"/>
            <stop offset="100%" stop-color="#FF676E"/>
        </linearGradient>
    </defs>
    <g fill="none" fill-rule="nonzero">
        <g transform="translate(20.302)">
            <ellipse cx="59.065" cy="59.067" fill="url(#a)" rx="59.065" ry="59.067"/>
            <path fill="url(#b)" d="M172.201 162.216h33.67c11.634 0 21.064 9.43 21.064 21.064h-33.67c-11.633 0-21.064-9.43-21.064-21.064z"/>
            <path fill="url(#c)" d="M227.15 183.179v-53.971c-14.996 0-27.153 12.082-27.153 26.985 0 14.904 12.157 26.986 27.153 26.986z"/>
            <path fill="url(#d)" d="M125.04 171.896a.957.957 0 1 1-1.915 0 .957.957 0 0 1 1.915 0zm0-3.829a.957.957 0 1 1-1.915 0 .957.957 0 0 1 1.915 0zm0-3.83a.957.957 0 1 1-1.915 0 .957.957 0 0 1 1.915 0zm0-3.829a.957.957 0 1 1-1.915 0 .957.957 0 0 1 1.915 0zm0-3.829a.957.957 0 1 1-1.915 0 .957.957 0 0 1 1.915 0zm0-3.83a.957.957 0 1 1-1.915 0 .957.957 0 0 1 1.915 0zm3.83 19.147a.957.957 0 1 1-1.915 0 .957.957 0 0 1 1.914 0zm0-3.829a.957.957 0 1 1-1.915 0 .957.957 0 0 1 1.914 0zm0-3.83a.957.957 0 1 1-1.915 0 .957.957 0 0 1 1.914 0zm0-3.829a.957.957 0 1 1-1.915 0 .957.957 0 0 1 1.914 0zm0-3.829a.957.957 0 1 1-1.915 0 .957.957 0 0 1 1.914 0zm0-3.83a.957.957 0 1 1-1.915 0 .957.957 0 0 1 1.914 0zm3.829 19.147a.957.957 0 1 1-1.915 0 .957.957 0 0 1 1.915 0zm0-3.829a.957.957 0 1 1-1.915 0 .957.957 0 0 1 1.915 0zm0-3.83a.957.957 0 1 1-1.915 0 .957.957 0 0 1 1.915 0zm0-3.829a.957.957 0 1 1-1.915 0 .957.957 0 0 1 1.915 0zm0-3.829a.957.957 0 1 1-1.915 0 .957.957 0 0 1 1.915 0zm0-3.83a.957.957 0 1 1-1.915 0 .957.957 0 0 1 1.915 0zm3.83 19.147a.957.957 0 1 1-1.915 0 .957.957 0 0 1 1.914 0zm0-3.829a.957.957 0 1 1-1.915 0 .957.957 0 0 1 1.914 0zm0-3.83a.957.957 0 1 1-1.915 0 .957.957 0 0 1 1.914 0zm0-3.829a.957.957 0 1 1-1.915 0 .957.957 0 0 1 1.914 0zm0-3.829a.957.957 0 1 1-1.915 0 .957.957 0 0 1 1.914 0zm0-3.83a.957.957 0 1 1-1.915 0 .957.957 0 0 1 1.914 0zm3.829 19.147a.957.957 0 1 1-1.915 0 .957.957 0 0 1 1.915 0zm0-3.829a.957.957 0 1 1-1.915 0 .957.957 0 0 1 1.915 0zm0-3.83a.957.957 0 1 1-1.915 0 .957.957 0 0 1 1.915 0zm0-3.829a.957.957 0 1 1-1.915 0 .957.957 0 0 1 1.915 0zm0-3.829a.957.957 0 1 1-1.915 0 .957.957 0 0 1 1.915 0zm0-3.83a.957.957 0 1 1-1.915 0 .957.957 0 0 1 1.915 0zm3.83 19.147a.957.957 0 1 1-1.915 0 .957.957 0 0 1 1.914 0zm0-3.829a.957.957 0 1 1-1.915 0 .957.957 0 0 1 1.914 0zm0-3.83a.957.957 0 1 1-1.915 0 .957.957 0 0 1 1.914 0zm0-3.829a.957.957 0 1 1-1.915 0 .957.957 0 0 1 1.914 0zm0-3.829a.957.957 0 1 1-1.915 0 .957.957 0 0 1 1.914 0zm0-3.83a.957.957 0 1 1-1.915 0 .957.957 0 0 1 1.914 0z"/>
        </g>
        <path fill="url(#e)" d="M43.213 40.863c-12.221 5.52-21.992 5.45-29.312-.21S1.947 26.936 0 16.477c22.882-6.872 37.286 1.258 43.213 24.387z" transform="translate(.106 50.815)"/>
        <path fill="#FFF" d="M25.274 81.753c-2.638-1.496-5.57-3.155-8.8-4.975l-7.488 1.793a.248.248 0 0 1-.115-.483l6.968-1.668c-4.029-2.27-8.507-4.788-13.434-7.55a.249.249 0 0 1-.096-.339.247.247 0 0 1 .337-.095c8.997 5.045 16.496 9.27 22.5 12.674l-.775-7.619c-.034-.329.458-.38.492-.05l.81 7.968c8.004 4.541 13.267 7.58 15.79 9.12a.249.249 0 0 1 .083.34.247.247 0 0 1-.34.083c-1.51-.92-4.004-2.38-7.484-4.38a.25.25 0 0 1-.028.013l-6.844 2.508a.248.248 0 0 1-.17-.466l6.483-2.376a1836.83 1836.83 0 0 0-7.81-4.453.232.232 0 0 1-.079-.045z"/>
        <path fill="url(#f)" d="M40.476 47.774C27.914 43.014 21.035 36.05 19.841 26.88 18.647 17.71 21.05 8.75 27.056 0c21.076 11.352 25.55 27.277 13.42 47.774z" transform="translate(.106 50.815)"/>
        <path fill="#FFF" d="M35.407 78.894c2.454 8.89 4.03 14.772 4.73 17.65a.247.247 0 1 1-.48.118c-.418-1.722-1.151-4.524-2.2-8.407a.248.248 0 0 1-.03-.011l-6.59-3.083a.249.249 0 0 1-.12-.33.246.246 0 0 1 .328-.12l6.243 2.92a1853.34 1853.34 0 0 0-2.38-8.69.235.235 0 0 1-.024-.087c-.809-2.93-1.712-6.183-2.71-9.76l-6.543-4.046a.249.249 0 0 1-.081-.341.246.246 0 0 1 .34-.082l6.087 3.765a7258.36 7258.36 0 0 0-4.17-14.87.247.247 0 1 1 .475-.135c2.8 9.949 5.122 18.257 6.964 24.923l4.808-5.936c.208-.256.59.057.383.314l-5.03 6.208z"/>
        <path fill="url(#g)" d="M52.985 56.366C42.61 64.878 33.161 67.35 24.638 63.785s-15.07-10.15-19.644-19.75c20.316-12.59 36.313-8.48 47.991 12.33z" transform="translate(.106 50.815)"/>
        <path fill="#FFF" d="M33.367 101.655c8.896 2.3 14.76 3.865 17.592 4.693a.248.248 0 0 1-.138.475c-1.695-.496-4.48-1.256-8.354-2.28a.25.25 0 0 1-.024.019l-5.96 4.188a.247.247 0 1 1-.283-.405l5.645-3.967c-2.476-.654-5.371-1.409-8.686-2.266a.232.232 0 0 1-.088-.023c-2.932-.758-6.19-1.595-9.775-2.512l-6.767 3.666a.247.247 0 1 1-.235-.435l6.296-3.412a7187.726 7187.726 0 0 0-14.914-3.793.248.248 0 0 1 .121-.48 5514.555 5514.555 0 0 1 24.984 6.38l-2.71-7.137c-.118-.309.344-.485.461-.176l2.835 7.465z"/>
        <g transform="translate(10.943 106.232)">
            <path fill="url(#h)" d="M2.606 0h125.1a2.606 2.606 0 0 1 2.606 2.606v73a2.606 2.606 0 0 1-2.606 2.607H2.606A2.606 2.606 0 0 1 0 75.607V2.606A2.606 2.606 0 0 1 2.606 0z"/>
            <path fill="#211D41" d="M0 13.035h130.312v15.643H0z"/>
            <path fill="#FFF" d="M10.425 50.838h20.85v5.215h-20.85v-5.215zm0 11.732h15.637v5.214H10.425V62.57zm26.062-11.732H62.55v5.215H36.487v-5.215zM31.275 62.57h18.244v5.214H31.275V62.57z"/>
            <ellipse cx="99.298" cy="59.702" fill="#52D7FD" rx="8.861" ry="8.864"/>
            <ellipse cx="108.159" cy="59.702" fill="#FFF" rx="8.861" ry="8.864"/>
        </g>
        <g transform="translate(79.367 19.11)">
            <path fill="#FFF" d="M4.343 0h165.035a4.343 4.343 0 0 1 4.343 4.343v121.608a4.343 4.343 0 0 1-4.343 4.343H4.343A4.343 4.343 0 0 1 0 125.95V4.343A4.343 4.343 0 0 1 4.343 0z"/>
            <path fill="#BDDEFF" d="M8.686 86.863H81.65v34.745H8.686V86.863zm81.65 0h82.3v34.745h-82.3V86.863z"/>
            <path fill="#FFF" d="M23.887 114.441c-5.997 0-10.858-4.86-10.858-10.857 0-5.997 4.861-10.858 10.858-10.858 5.996 0 10.857 4.86 10.857 10.858 0 5.996-4.86 10.857-10.857 10.857zm15.852-21.715H55.59v4.343H39.739v-4.343zm0 17.372h37.567v4.343H39.74v-4.343zm0-8.686h37.567v4.343H39.74v-4.343z"/>
            <ellipse cx="112.702" cy="104.235" fill="#FFF" rx="10.858" ry="10.858"/>
            <path fill="url(#i)" d="M112.702 93.377c-5.997 0-10.858 4.861-10.858 10.858h10.858V93.377z"/>
            <ellipse cx="143.103" cy="104.235" fill="#FFF" rx="10.858" ry="10.858"/>
            <path fill="url(#j)" d="M143.103 103.948v11.145c5.997 0 10.858-4.861 10.858-10.858l-10.858-.287z"/>
            <path fill="url(#k)" d="M51.9 62.541H69.27v16.287H51.9V62.54zm26.058-13.68H95.33v29.967H77.958V48.86zm26.058-13.682h17.372v43.649h-17.372V35.179zm26.058-8.686h17.372v52.335h-17.372V26.493z"/>
            <path fill="#BDDEFF" d="M8.686 75.57h26.058v3.258H8.686V75.57zm0-9.772h26.058v3.258H8.686v-3.258zm0-9.772h26.058v3.258H8.686v-3.258zm0-9.772h26.058v3.258H8.686v-3.258zm0-9.772h26.058v3.258H8.686v-3.258zm0-9.772h26.058v3.258H8.686V26.71z"/>
            <path fill="#3B97FC" d="M4.343 0h165.035a4.343 4.343 0 0 1 4.343 4.343v13.03H0V4.343A4.343 4.343 0 0 1 4.343 0z"/>
        </g>
        <g>
            <path fill="#021038" d="M248.125 181.365c.957-.566 1.851-1 2.682-1.303 1.246-.453 1.326.013 1.326.548v2.707c0 .97-.3 1.077-2.01.96-1.708-.116-1.917-.274-3.71 0-1.792.276-5.41.223-6.198-1.037-.79-1.26 1.756-1.778 3.98-2.08 1.483-.2 2.793-.132 3.93.205z"/>
            <path fill="#FE9F9F" d="M252.125 175.668v5.195l-1.126.44a8.042 8.042 0 0 1-6.325-.199l2.755-.594v-4.842h4.696z"/>
            <path fill="#021038" d="M271.483 178.433c.705-.859 1.397-1.573 2.074-2.141 1.016-.853 1.25-.442 1.434.06l.926 2.545c.331.912.086 1.115-1.56 1.59-1.646.475-1.896.398-3.486 1.269-1.59.871-5.008 2.059-6.18 1.145-1.173-.914 1.042-2.271 3.029-3.316 1.325-.696 2.579-1.08 3.763-1.152z"/>
            <path fill="#FFF" d="M239.16 77.286l6.356 14.725-10.39 7.656-7.236-15.312z"/>
            <path fill="#FE9F9F" d="M273.293 171.711l1.777 4.882-.908.8a8.042 8.042 0 0 1-6.011 1.975l2.385-1.5-1.656-4.55 4.413-1.607z"/>
            <path fill="#021038" d="M259.284 102.927l2.765 9.054 5.801 40.374 7.257 22.23-5.801 1.748-11.738-22.238-6.89-33.79z"/>
            <path fill="#FE9F9F" d="M234.509 96.434c-.546-.73-.737-1.636-.572-2.716.164-1.081.015-1.927-.447-2.539l-1.39 2.035-1.938-4.18c-.627 2.618-.627 4.455 0 5.512.628 1.057 1.737 2.474 3.328 4.251l1.019-2.363z"/>
            <path fill="#312C74" d="M246.66 178.908c-3.143-47.175-4.715-72.263-4.715-75.264 0-4.5 19.562-12.635 19.562 0 0 2.93.115 5.821.346 8.673a26.06 26.06 0 0 1-1.726 11.646l-3.926 9.975-2.784 44.97h-6.757z"/>
            <path fill="url(#l)" d="M34.584 67.695c-9.181 1.08-12.336 1.419-19.965 1.09-.31-5.312-.564-10.452-.564-11.395 0-2.477-.443-8.726-1.33-18.747a6.298 6.298 0 0 1 6.273-6.853h11.256a4.17 4.17 0 0 1 4.166 4.327l-.803 21.273c.376 4.05.698 7.485.967 10.305z" transform="translate(227.89 46.254)"/>
            <path fill="#211D41" d="M248.504 85.814v11.015c0 2.395-.808 4.72-2.294 6.6l-4.071 5.15c-.093-1.818-.194-4.42-.194-4.935 0-.907-.06-2.32-.179-4.24 1.779 0 4.025-4.53 6.738-13.59z"/>
            <path fill="#FE9F9F" d="M236.818 55.28c-.483-1.373-1.025-2.194-1.626-2.462-.902-.404-1.949-1.627-.663-2.93l.887-.787-2.088-2.763c.158-.199.78-.043 1.864.466 1.626.765 2.727 1.821 3.307 3.568.58 1.748.291 2.405 2.241 5.248l-3.264.908-.658-1.248z"/>
            <path fill="url(#m)" d="M16.454 28.698l-7.97-20.07 3.954-1.462 9.086 12.897z" transform="translate(227.89 46.254)"/>
            <path fill="url(#n)" d="M16.55 33.637c.704.017 1.616.29 2.737.819 1.12.529 1.66 1.592 1.617 3.189L19.85 49.69a8.339 8.339 0 0 1-1.59 4.214l-3.765 5.117a3.127 3.127 0 0 1-5.045-.011l-5.657-7.761 2.746-2.093 4.135 3.391 1.81-1.983c.167-3.05.25-6.76.25-11.13 0-4.368 1.273-6.301 3.817-5.797z" transform="translate(227.89 46.254)"/>
            <path fill="url(#o)" d="M31.75 49.186c-5.139-1.06-7.92-3.537-8.343-7.433-.634-5.844-1.21-6.806-3.17-7.223-1.96-.417-4.467-2.913-4.467-8.915v-7.857a6.775 6.775 0 0 1 6.775-6.776h1.36a6.775 6.775 0 0 1 6.776 6.776v7.857c.184 3.065.964 5.317 2.34 6.756 2.064 2.159 4.758 4.712 3.134 10.337-1.083 3.75-2.55 5.91-4.404 6.478z" transform="translate(227.89 46.254)"/>
            <path fill="#A587FF" d="M250.237 176.758h-.434v-1.52h.434v1.52zm0-3.692h-.434v-1.52h.434v1.52zm0-3.691h-.434v-1.52h.434v1.52zm0-3.692h-.434v-1.52h.434v1.52zm0-3.692h-.434v-1.52h.434v1.52zm0-3.691h-.434v-1.52h.434v1.52zm0-3.692h-.434v-1.52h.434v1.52zm0-3.692h-.434v-1.52h.434v1.52zm0-3.691h-.434v-1.52h.434v1.52zm0-3.692h-.434v-1.52h.434v1.52zm0-3.691h-.434v-1.52h.434v1.52zm0-3.692h-.434v-1.52h.434v1.52zm0-3.692h-.434v-1.52h.434v1.52zm0-3.691h-.434v-1.52h.434v1.52zm0-3.692h-.434v-1.52h.434v1.52zm0-3.692h-.434v-1.52h.434v1.52z"/>
        </g>
        <g>
            <path fill="#221E41" d="M79.344 44.872L54.332 62.947l-6.902-7.355 31.935-15.874z"/>
            <path fill="#211D41" d="M45.205 89.123l13.605 8.783 7.73 8.335H43.302V94.026z"/>
            <path fill="#FE9F9F" d="M92.904 127.91l-1.92-2.986 4.282-2.329 1.596 3.68z"/>
            <path fill="#211D41" d="M92.253 127.87l4.315-2.392 3.239-.602c1.647-.276 2.917-.72 3.764.808.218.393.134.855-.187 1.033l-8.092 4.486a1.042 1.042 0 0 1-1.417-.407l-1.622-2.926z"/>
            <path fill="#E9A17C" d="M56.598 56.45l-6.432-.904.346-2.462c-1.158-2.465-1.144-5.661.043-9.588 1.187-3.926 4.51-4.552 9.97-1.878-.17 2.338.232 3.887 1.205 4.645 1.458 1.137.892 1.927.299 2.115-.594.188-1.018.59-1.04 1.956-.023 1.367-.88 1.517-2.23 1.869-.901.234-1.621 1.65-2.16 4.247z"/>
            <path fill="url(#p)" d="M8.182 15.928c-.57-.215-.897-.571-.983-1.07-.128-.746.306-1.093-1.162-2.63-1.47-1.536-2.648-3.566-1.71-7.1.936-3.532 3.056-3.82 5.171-3.999 2.115-.18 2.973.068 5.88-.882 2.906-.949 4.368.943 3.73 3.83-.636 2.886-5.005 2.774-5.772 2.667-.767-.108-.389 1.045-.313 2.23.075 1.185-.683 1.44-.96 1.272-.277-.168-.865-.364-1.402.288-.537.652-.016 1.692.406 1.751.421.06.982-.061 1 .419.02.48-.239 1.957-.734 2.736-.33.52-1.38.682-3.15.488z" transform="translate(42.25 37.092)"/>
            <path fill="url(#q)" d="M3.962 53.806l17.972 2.48 18.897 6.373a8.903 8.903 0 0 1 5.263 4.76l8.636 19.05-6.46 2.02-12.684-17.437-19.672-.447C8.038 70.88 1.43 64.72 1.156 56.843l2.806-3.037z" transform="translate(42.25 37.092)"/>
            <path fill="#E9A17C" d="M70.03 57.293h13.152l18.443-9.265 1.745-2.208v2.014h4.407c-.426 2.29-1.266 3.717-2.523 4.284-1.256.566-3.07.566-5.442 0L83.442 64.25l-13.413 1.91v-8.867z"/>
            <path fill="url(#r)" d="M29.972 19.268l-.928 10.307-7.788.217.978 26.416-21.184.74L.006 27.026a9.12 9.12 0 0 1 8.796-9.433l2.858-.1c1.964-.069 12.125 1.194 18.312 1.774z" transform="translate(42.25 37.092)"/>
            <path fill="#FFF" d="M53.062 95.514l.158-.149c.36.382.71.747 1.05 1.096l-.155.152c-.341-.35-.692-.716-1.053-1.099zm2.593 2.634l.151-.156c.384.37.753.716 1.107 1.037l-.146.161c-.355-.322-.726-.67-1.112-1.042zm2.772 2.454l.134-.17c.442.346.85.64 1.226.88l-.116.182a15.853 15.853 0 0 1-1.244-.892zm3.28 1.73l.025-.216 1.51.174-.025.215-1.51-.173zm3.668.42l.024-.215 1.51.173-.024.216-1.51-.173zm3.667.421l.025-.216 1.51.174-.025.215-1.51-.173zm3.668.42l.025-.215 1.51.173-.025.216-1.51-.173zm3.667.421l.025-.215 1.51.173-.025.216-1.51-.174zm3.62.572l.068-.206c.49.16.962.37 1.409.626l-.108.189a7.49 7.49 0 0 0-1.369-.61zm3.054 1.92l.156-.15c.357.37.676.776.953 1.211l-.183.117a7.485 7.485 0 0 0-.926-1.178zm1.988 3.073l.19-.105.735 1.33-.19.106-.735-1.331zm1.784 3.232l.19-.105.734 1.33-.19.106-.734-1.331zm1.784 3.232l.19-.105.734 1.331-.19.105-.734-1.33zm1.783 3.232l.19-.105.735 1.331-.19.105-.735-1.33z"/>
        </g>
        <g>
            <path fill="#52D7FD" d="M104.122 23.453h34.093c.48 0 .869.389.869.869v34.093c0 .48-.39.869-.869.869h-34.093a.869.869 0 0 1-.868-.869V24.322c0-.48.388-.87.868-.87z"/>
            <path fill="#2EB3DA" d="M121.683 36.735h-8.875v-5.901h8.875v-2.82l8.063 5.754-8.063 5.754v-2.787zm-.811 15.201v2.787l-8.064-5.754 8.064-5.755v2.82h8.874v5.902h-8.874z"/>
        </g>
    </g>
</svg>
