<svg xmlns="http://www.w3.org/2000/svg" width="72" height="72" viewBox="0 0 72 72">
    <g fill="none" fill-rule="evenodd">
        <path  d="M-1161-314H281v923h-1442z"/>
        <g stroke="#2496FF" stroke-width="2">
            <path d="M40 62v-2.91s3-3.2 3-7.272V46M30 29l-7.857 5.74C19.943 36.603 19 37.608 19 40.477V62M18 67v-4h25v4M25 44.463l12.045-10.9c2.71-2.453 7.077 3.678 3.764 7.493l-3.764 3.407v4.087c0 5.314-5.12 5.45-6.022 5.45"/>
            <path d="M30 38.963V10.815C30 9.267 31.215 8 32.7 8h21.6c1.485 0 2.7 1.267 2.7 2.815v32.37C57 44.733 55.785 46 54.3 46H36.75M50.25 8v38"/>
        </g>
    </g>
</svg>
