<svg width="20" height="20" viewBox="0 0 24 24" fill="none" xmlns="http://www.w3.org/2000/svg">
<path fill-rule="evenodd" clip-rule="evenodd" d="M4.21742 4.20948C8.50732 -0.0698264 15.5472 -0.0698264 19.837 4.20948C24.1269 8.48878 24.0169 15.5112 19.727 19.7905C15.4372 24.0698 8.50732 24.0698 4.21742 19.7905C-0.0724735 15.5112 -0.0724735 8.48878 4.21742 4.20948ZM13.6286 15.1538L14 5H10.0001L10.3715 15.1538H13.6286ZM10.5786 19.4159C10.9739 19.8053 11.4477 20 12 20C12.3524 20 12.6786 19.9111 12.9786 19.7332C13.2786 19.5505 13.5214 19.3077 13.7071 19.0048C13.8976 18.6971 13.9952 18.3558 14 17.9808C13.9952 17.4327 13.7905 16.9639 13.3857 16.5745C12.9857 16.1851 12.5238 15.9904 12 15.9904C11.4477 15.9904 10.9739 16.1851 10.5786 16.5745C10.1882 16.9639 9.99532 17.4327 10.0001 17.9808C9.99532 18.5433 10.1882 19.0216 10.5786 19.4159Z" fill="#EDD500"/>
</svg>
