<?xml version="1.0" encoding="utf-8"?>
<!-- Generator: Adobe Illustrator 23.0.1, SVG Export Plug-In . SVG Version: 6.00 Build 0)  -->
<svg version="1.1" id="Layer_1" xmlns="http://www.w3.org/2000/svg" xmlns:xlink="http://www.w3.org/1999/xlink" x="0px" y="0px"
	 viewBox="0 0 98 28" style="enable-background:new 0 0 98 28;" xml:space="preserve">
<style type="text/css">
	.st0{fill-rule:evenodd;clip-rule:evenodd;fill:#636274;}
	.st1{fill-rule:evenodd;clip-rule:evenodd;fill:#43A047;}
	.st2{fill:none;}
</style>
<g>
	<path class="st0" d="M57.6,21.6c-1.9,0-4.3-0.8-4.3-4.8V0.9c0-0.6,0.3-0.9,0.9-0.9h2.2c0.6,0,0.9,0.3,0.9,0.9v15.7
		c0,1.4,0.3,1.8,0.4,1.8h0.2c0.6,0,0.9,0.3,0.9,0.9v1.2c0,0.6-0.3,0.9-0.9,0.9L57.6,21.6z"/>
	<path class="st0" d="M62.8,4.1c-0.6,0-0.9-0.3-0.9-0.9V0.9c0-0.6,0.3-0.9,0.9-0.9H65c0.7,0,1,0.3,1,0.9v2.2C66,3.7,65.7,4,65.1,4
		L62.8,4.1L62.8,4.1z M62.8,21.6c-0.6,0-0.9-0.3-0.9-0.9V7.1c0-0.6,0.3-0.9,0.9-0.9H65c0.6,0,0.9,0.3,0.9,0.9v13.5
		c0,0.6-0.3,0.9-0.9,0.9h-2.2V21.6z"/>
	<path class="st0" d="M75.2,21.6c-0.5,0-0.9-0.2-1.1-0.7L69,7.2c-0.1-0.3-0.1-0.5,0-0.7s0.4-0.3,0.7-0.3h2.6c0.6,0,0.9,0.3,1.1,0.8
		l2.7,9.4L78.8,7c0.1-0.4,0.3-0.8,1.1-0.8h2.6c0.4,0,0.6,0.2,0.7,0.3c0.1,0.1,0.2,0.4,0,0.7l-5,13.6c-0.3,0.5-0.6,0.8-1.1,0.8
		L75.2,21.6z"/>
	<path class="st0" d="M91,9.3c-2,0-2.9,1.4-2.9,4.5c0,3.2,0.9,4.5,2.9,4.5s2.9-1.4,2.9-4.5S93.1,9.3,91,9.3 M91,21.5
		c-4.6,0-6.9-2.5-6.9-7.6c0-5.2,2.2-7.7,6.9-7.7c4.6,0,6.9,2.6,6.9,7.7S95.7,21.5,91,21.5"/>
	<g>
		<path class="st1" d="M12.8,12.3c0,0.4-0.3,0.6-0.6,0.6h-1.3c-0.4,0-0.6-0.3-0.6-0.6V11c0-0.4,0.3-0.6,0.6-0.6h1.3
			c0.4,0,0.6,0.3,0.6,0.6V12.3z"/>
		<path class="st1" d="M16.4,12.3c0,0.4-0.3,0.6-0.6,0.6h-1.3c-0.4,0-0.6-0.3-0.6-0.6V11c0-0.4,0.3-0.6,0.6-0.6h1.3
			c0.4,0,0.6,0.3,0.6,0.6V12.3z"/>
		<path class="st1" d="M20.1,12.3c0,0.4-0.3,0.6-0.6,0.6h-1.3c-0.4,0-0.6-0.3-0.6-0.6V11c0-0.4,0.3-0.6,0.6-0.6h1.3
			c0.4,0,0.6,0.3,0.6,0.6V12.3z"/>
		<path class="st1" d="M12.8,15.9c0,0.4-0.3,0.6-0.6,0.6h-1.3c-0.4,0-0.6-0.3-0.6-0.6v-1.3c0-0.4,0.3-0.6,0.6-0.6h1.3
			c0.4,0,0.6,0.3,0.6,0.6V15.9z"/>
		<path class="st1" d="M16.4,15.9c0,0.4-0.3,0.6-0.6,0.6h-1.3c-0.4,0-0.6-0.3-0.6-0.6v-1.3c0-0.4,0.3-0.6,0.6-0.6h1.3
			c0.4,0,0.6,0.3,0.6,0.6V15.9z"/>
		<path class="st1" d="M20.1,15.9c0,0.4-0.3,0.6-0.6,0.6h-1.3c-0.4,0-0.6-0.3-0.6-0.6v-1.3c0-0.4,0.3-0.6,0.6-0.6h1.3
			c0.4,0,0.6,0.3,0.6,0.6V15.9z"/>
		<path class="st1" d="M12.8,19.6c0,0.4-0.3,0.6-0.6,0.6h-1.3c-0.4,0-0.6-0.3-0.6-0.6v-1.3c0-0.4,0.3-0.6,0.6-0.6h1.3
			c0.4,0,0.6,0.3,0.6,0.6V19.6z"/>
		<path class="st1" d="M16.4,19.6c0,0.4-0.3,0.6-0.6,0.6h-1.3c-0.4,0-0.6-0.3-0.6-0.6v-1.3c0-0.4,0.3-0.6,0.6-0.6h1.3
			c0.4,0,0.6,0.3,0.6,0.6V19.6z"/>
		<path class="st1" d="M20.1,19.6c0,0.4-0.3,0.6-0.6,0.6h-1.3c-0.4,0-0.6-0.3-0.6-0.6v-1.3c0-0.4,0.3-0.6,0.6-0.6h1.3
			c0.4,0,0.6,0.3,0.6,0.6V19.6z"/>
	</g>
	<g transform="translate(0 2.283148)">
		<path class="st2" d="M0,22.8V0h29.4v22.7L0,22.8L0,22.8z"/>
		<path class="st1" d="M22,20.2H8.1c-3.1,0-5.6-2.5-5.6-5.6c0-2.6,1.8-4.8,4.3-5.4l1.4-0.3l0.4-1.3c1-2.9,3.7-4.8,6.7-4.8
			c3.6,0,6.6,2.7,7,6.2l0.2,1.5l1.3,0.6c1.8,0.8,2.9,2.5,2.9,4.4C26.8,18.1,24.7,20.2,22,20.2 M15.3,0.2c-3.5,0-6.5,1.9-8.2,4.6V1.3
			C7.1,0.6,6.5,0,5.8,0S4.6,0.6,4.6,1.3v6.1C1.9,8.7,0,11.5,0,14.7c0,4.5,3.6,8.1,8.1,8.1H22c4.1,0,7.4-3.3,7.4-7.4
			c0-3-1.9-5.7-4.5-6.8C24.3,3.9,20.2,0.2,15.3,0.2z"/>
	</g>
	<path class="st0" d="M43.8,18.7c-1.5,0-3.4-0.5-3.4-4.8c0-4.2,1.8-4.7,3.4-4.7c1.4,0,2.7,0.4,2.7,4.7
		C46.5,18.3,45.2,18.7,43.8,18.7 M44.4,6.2c-1.6,0-2.9,0.4-4,1.1V7.1c0-0.6-0.3-0.9-0.9-0.9h-2.2c-0.6,0-0.9,0.3-0.9,0.9v0.3l0,0
		v4.1v7.2v7.7c0,0.6,0.3,0.9,0.9,0.9h2.2c0.6,0,0.9-0.3,0.9-0.9v-6.1c0.9,0.9,2.2,1.4,3.9,1.4c2.3,0,6.2-1,6.2-7.8
		C50.5,7.2,46.6,6.2,44.4,6.2"/>
</g>
</svg>
