<svg xmlns="http://www.w3.org/2000/svg" xmlns:xlink="http://www.w3.org/1999/xlink" width="40" height="40" viewBox="0 0 40 40">
    <defs>
        <path id="a" d="M0 24h36V0H0z"/>
    </defs>
    <g fill="none" fill-rule="evenodd" transform="translate(2 10)">
        <path fill="#2496FF" d="M36 4.5v-.75A3.754 3.754 0 0 0 32.25 0H3.75A3.754 3.754 0 0 0 0 3.75v.75h36z"/>
        <mask id="b" fill="#fff">
            <use xlink:href="#a"/>
        </mask>
        <path fill="#2496FF" d="M0 9h36V6H0zM21.75 13.5a.75.75 0 1 1 0 1.5.75.75 0 0 1 0-1.5" mask="url(#b)"/>
        <path fill="#2496FF" d="M29.25 21C28.01 21 27 19.99 27 18.75s1.01-2.25 2.25-2.25 2.25 1.01 2.25 2.25S30.49 21 29.25 21zm-6 0a.75.75 0 0 1-.643-1.136l4.5-7.5a.75.75 0 0 1 1.287.773l-4.5 7.5a.75.75 0 0 1-.644.363zm-3.75-6.75c0-1.24 1.01-2.25 2.25-2.25S24 13.01 24 14.25s-1.01 2.25-2.25 2.25-2.25-1.01-2.25-2.25zm-3.75 5.25H5.25a.75.75 0 0 1 0-1.5h10.5a.75.75 0 0 1 0 1.5zM5.25 15h6a.75.75 0 0 1 0 1.5h-6a.75.75 0 0 1 0-1.5zM0 10.5v9.75A3.754 3.754 0 0 0 3.75 24h28.5A3.754 3.754 0 0 0 36 20.25V10.5H0z" mask="url(#b)"/>
        <path fill="#2496FF" d="M29.25 18a.75.75 0 1 1 0 1.5.75.75 0 0 1 0-1.5" mask="url(#b)"/>
    </g>
</svg>
