<svg width="40" height="40" viewBox="0 0 40 40" fill="none" xmlns="http://www.w3.org/2000/svg">
    <circle cx="20" cy="20" r="20" fill="#FFE3DE"/>
    <path d="m27.06 22-.96-.545a1.577 1.577 0 0 1 0-2.722l.96-.545c.802-.466 1.042-1.4.561-2.1l-.8-1.322c-.48-.777-1.442-1.01-2.162-.544l-.961.544c-1.04.623-2.402-.155-2.402-1.322v-1.089c0-.855-.72-1.555-1.601-1.555h-1.602c-.88 0-1.601.7-1.601 1.555v1.011c0 1.167-1.361 1.945-2.402 1.322l-.961-.466c-.8-.467-1.762-.156-2.162.544l-.8 1.322c-.4.778-.16 1.711.56 2.178l.96.545c1.042.544 1.042 2.1 0 2.644l-.96.544c-.8.467-1.041 1.4-.56 2.1l.8 1.322c.48.778 1.441 1.012 2.162.545l.96-.467c1.042-.622 2.403.156 2.403 1.322v1.09c0 .855.72 1.555 1.601 1.555h1.602c.88 0 1.601-.7 1.601-1.556V26.9c0-1.167 1.361-1.945 2.402-1.323l.96.544c.801.467 1.762.156 2.163-.544l.8-1.322c.4-.856.16-1.789-.56-2.256zm-8.166 1.244c-1.762 0-3.203-1.4-3.203-3.111 0-1.711 1.441-3.111 3.203-3.111 1.761 0 3.203 1.4 3.203 3.11 0 1.712-1.442 3.112-3.203 3.112z" fill="#FFC1B7"/>
    <path d="m30.614 24.953-.611-.346a1.003 1.003 0 0 1 0-1.733l.611-.346c.51-.297.662-.89.357-1.336l-.51-.842c-.306-.495-.917-.643-1.376-.346l-.611.346c-.662.396-1.529-.099-1.529-.841v-.693c0-.544-.458-.99-1.019-.99h-1.019c-.56 0-1.019.446-1.019.99v.643c0 .743-.866 1.238-1.528.842l-.612-.297a1.004 1.004 0 0 0-1.376.346l-.51.842a1.06 1.06 0 0 0 .358 1.386l.611.346c.662.346.662 1.336 0 1.683l-.611.346c-.51.297-.663.891-.357 1.337l.51.84c.305.496.917.644 1.375.347l.612-.297c.662-.396 1.528.1 1.528.842v.693c0 .544.459.99 1.02.99h1.018c.56 0 1.02-.446 1.02-.99v-.644c0-.742.866-1.237 1.528-.841l.611.346c.51.297 1.121.1 1.376-.346l.51-.842c.254-.544.102-1.138-.357-1.435zm-5.197.792c-1.121 0-2.038-.89-2.038-1.98 0-1.088.917-1.98 2.038-1.98 1.12 0 2.038.892 2.038 1.98 0 1.09-.917 1.98-2.038 1.98z" fill="#FF715B"/>
</svg>
