<svg xmlns="http://www.w3.org/2000/svg" width="80" height="39" viewBox="0 0 80 39">
    <g fill="none" fill-rule="nonzero">
        <path fill="#DCF5FC" d="M37.939 34.41a14.087 14.087 0 0 0 7.092 2.22l7.65.277v-7.695l-7.65.278a14.087 14.087 0 0 0-7.092 2.22 2.944 2.944 0 0 0 0 2.7"/>
        <path fill="#0063B0" d="M38.175 34.193a13.796 13.796 0 0 0 6.867 2.127l7.333.266v-7.052l-7.333.265a13.793 13.793 0 0 0-6.867 2.127 2.632 2.632 0 0 0 0 2.267zm14.507 3.024h-.011l-7.65-.278a14.406 14.406 0 0 1-7.247-2.268.308.308 0 0 1-.107-.118 3.257 3.257 0 0 1 0-2.986.31.31 0 0 1 .107-.119 14.406 14.406 0 0 1 7.246-2.268l7.65-.277a.304.304 0 0 1 .225.086.31.31 0 0 1 .094.223v7.695c0 .17-.138.31-.307.31z"/>
        <path fill="#26ABEF" d="M54.318 33.06c0 2.124-.732 3.847-1.636 3.847-.904 0-1.637-1.723-1.637-3.847 0-2.125.733-3.848 1.637-3.848s1.636 1.723 1.636 3.848"/>
        <path fill="#2496FF" d="M52.682 29.522c-.627 0-1.33 1.513-1.33 3.538 0 2.024.703 3.537 1.33 3.537.628 0 1.33-1.513 1.33-3.537 0-2.025-.702-3.538-1.33-3.538zm0 7.695c-1.108 0-1.943-1.788-1.943-4.157 0-2.37.835-4.157 1.943-4.157s1.943 1.787 1.943 4.157-.835 4.157-1.943 4.157z"/>
        <path fill="#DCF5FC" d="M51.54 31.924c-.15 0-.292.017-.427.047a8.85 8.85 0 0 0 0 2.178c.135.03.278.047.426.047.83 0 1.504-.509 1.504-1.136 0-.628-.673-1.136-1.504-1.136"/>
        <path fill="#0063B0" d="M51.392 33.88c.049.004.098.006.147.006.649 0 1.197-.379 1.197-.826 0-.448-.548-.827-1.197-.827-.049 0-.098.003-.147.007a8.583 8.583 0 0 0 0 1.64zm.147.625c-.165 0-.33-.018-.493-.054a.308.308 0 0 1-.237-.263 9.038 9.038 0 0 1 0-2.256.308.308 0 0 1 .237-.264c.162-.036.328-.055.493-.055.998 0 1.81.65 1.81 1.447s-.812 1.445-1.81 1.445z"/>
        <path fill="#DCF5FC" d="M53.005 30.476s-1.191.217-1.796 1.145"/>
        <path fill="#0063B0" d="M51.208 31.93a.306.306 0 0 1-.27-.162.312.312 0 0 1 .014-.317c.67-1.027 1.944-1.27 1.998-1.28a.31.31 0 1 1 .11.61c-.011.002-1.072.209-1.595 1.01a.307.307 0 0 1-.257.14"/>
        <path fill="#DCF5FC" d="M52.82 35.433s-1.317-.262-1.707-1.284"/>
        <path fill="#0063B0" d="M52.82 35.742l-.06-.006c-.06-.012-1.488-.307-1.934-1.476a.312.312 0 0 1 .048-.306.306.306 0 0 1 .526.083c.322.848 1.468 1.09 1.48 1.092a.31.31 0 0 1 .241.334.308.308 0 0 1-.301.28"/>
        <path fill="#D1E9FF" d="M42.045 11.199l-1.779-5.07a.776.776 0 0 1 .096-.702.761.761 0 0 1 .624-.326h3.058c1.23 0 2.42.438 3.36 1.238l6.909 5.876-12.268-1.016"/>
        <path fill="#0063B0" d="M42.269 10.907l11.111.92-6.174-5.251a4.888 4.888 0 0 0-3.162-1.166h-3.058a.461.461 0 0 0-.43.615l1.713 4.882zm12.044 1.618l-.025-.001-12.268-1.016a.309.309 0 0 1-.264-.205l-1.779-5.071a1.09 1.09 0 0 1 .136-.984c.2-.286.526-.456.873-.457h3.058c1.3 0 2.563.465 3.558 1.311l6.909 5.876c.098.084.135.22.09.343a.307.307 0 0 1-.288.204z"/>
        <path fill="#D1E9FF" d="M67.472 10.06l-2.83-2.221a5.697 5.697 0 0 0-3.518-1.219h-2.26A24.991 24.991 0 0 0 46.44 9.931l-.225.13H16.03l-5.333-7.22A6.004 6.004 0 0 0 5.87.396H2.027C.882.396.097 1.561.517 2.636L6.488 17.94A5.239 5.239 0 0 0 9.9 21.072l15.781 4.597a43.255 43.255 0 0 0 12.099 1.727h23.597c4.03 0 8.024-.744 11.788-2.195l2.797-1.077c2.216-.854 3.68-3 3.68-5.396a5.774 5.774 0 0 0-3.68-5.395l-8.49-3.272"/>
        <path fill="#26ABEF" d="M59.444 21.228l1.7 1.537-3.35.104 1.65-1.64"/>
        <path fill="#0063B0" d="M2.027.706c-.442 0-.84.212-1.088.581-.249.362-.3.827-.137 1.236l5.973 15.303a4.967 4.967 0 0 0 3.21 2.949l15.78 4.597a42.94 42.94 0 0 0 12.015 1.715h23.597c3.992.002 7.95-.735 11.679-2.175l2.796-1.078c2.084-.803 3.483-2.855 3.483-5.106 0-2.25-1.4-4.303-3.483-5.106l-8.49-3.272-.079-.045-2.829-2.221a5.417 5.417 0 0 0-3.33-1.153h-2.26A24.733 24.733 0 0 0 46.59 10.2l-.225.129a.306.306 0 0 1-.15.04H16.03a.307.307 0 0 1-.246-.124l-5.333-7.22A5.723 5.723 0 0 0 5.87.706H2.027zm59.35 27H37.78a43.54 43.54 0 0 1-12.184-1.739L9.815 21.37a5.587 5.587 0 0 1-3.612-3.318L.231 2.75C-.004 2.15.07 1.47.43.938.79.405 1.387.086 2.026.086H5.87c1.988 0 3.885.961 5.074 2.57l5.241 7.094h29.948l.155-.088A25.34 25.34 0 0 1 58.863 6.31h2.261c1.336 0 2.652.456 3.707 1.283l2.793 2.194 8.447 3.256c2.32.894 3.878 3.178 3.878 5.685 0 2.505-1.558 4.79-3.877 5.685l-2.797 1.077a32.959 32.959 0 0 1-11.898 2.215z"/>
        <path fill="#E1F0FE" d="M79.642 18.728a5.78 5.78 0 0 0-3.29-5.227c-1.023.788-1.969 1.809-2.926 3.328-2.033 3.225-4.88 5.219-6.449 5.688-1.568.47-34.914.938-42.234-.821-7.32-1.76-12.568-5.688-17.118-6.568-.76-.146-1.55-.233-2.342-.278l1.206 3.09A5.241 5.241 0 0 0 9.9 21.072l15.781 4.598a43.255 43.255 0 0 0 12.099 1.727h23.597c4.03 0 8.024-.744 11.788-2.195l2.797-1.078a5.774 5.774 0 0 0 3.68-5.395"/>
        <path fill="#26ABEF" d="M14.503 12.948l2.465 5.975-4.565-2.12-1.279-.465 3.379-3.39"/>
        <path fill="#2496FF" d="M8.874 18.197s1.579 1.802 2.707 1.83c1.129.028 5.387.136 5.387-.484v-.62l-5.844-2.584-2.25 1.858m58.79 8.621l-6.52-4.053-3.35.104-4.79 4.527 7.603-.01 3.886-.18 3.172-.388"/>
        <path fill="#0063B0" d="M5.746 15.192l1.029 2.634a4.966 4.966 0 0 0 3.21 2.949l15.78 4.597a42.94 42.94 0 0 0 12.015 1.715h23.597c3.992.002 7.95-.735 11.679-2.175l2.796-1.078c2.084-.803 3.483-2.855 3.483-5.106a5.492 5.492 0 0 0-2.946-4.864c-1.004.803-1.867 1.803-2.704 3.13-1.958 3.107-4.813 5.28-6.62 5.82-1.894.566-35.28.893-42.393-.817-3.954-.95-7.303-2.526-10.257-3.917-2.562-1.205-4.775-2.246-6.848-2.647a16.6 16.6 0 0 0-1.82-.241zm55.631 12.514H37.78a43.54 43.54 0 0 1-12.184-1.739L9.815 21.37a5.587 5.587 0 0 1-3.612-3.318l-1.206-3.09a.312.312 0 0 1 .038-.294.306.306 0 0 1 .265-.127c.859.047 1.66.143 2.382.283 2.149.415 4.393 1.471 6.993 2.695 2.927 1.378 6.245 2.939 10.14 3.875 7.7 1.851 40.896 1.178 42.075.825 1.321-.395 4.194-2.252 6.277-5.557.918-1.457 1.871-2.54 2.998-3.408a.306.306 0 0 1 .317-.034 6.111 6.111 0 0 1 3.467 5.508c0 2.506-1.558 4.79-3.877 5.685l-2.797 1.078a32.959 32.959 0 0 1-11.898 2.215z"/>
        <path fill="#D6EBFF" d="M4.904 13.82l-3.747 4.504c-.299.36-.045.909.42.909H5.25c1.81 0 3.55-.708 4.856-1.974l4.014-3.895a.33.33 0 0 0-.162-.559l-1.958-.39a10.306 10.306 0 0 0-4.25.045l-.977.217a3.39 3.39 0 0 0-1.87 1.143"/>
        <path fill="#0063B0" d="M9.983 12.524c-.725 0-1.448.079-2.167.239l-.976.217a3.099 3.099 0 0 0-1.702 1.04l-3.746 4.504a.237.237 0 0 0-.033.259.234.234 0 0 0 .218.14H5.25c1.74 0 3.389-.67 4.644-1.887l4.014-3.896-.01-.031-1.957-.39a9.967 9.967 0 0 0-1.96-.195h.001zm-4.732 7.019H1.577a.846.846 0 0 1-.775-.498.86.86 0 0 1 .12-.92l3.747-4.504a3.712 3.712 0 0 1 2.04-1.247l.976-.217c1.44-.321 2.93-.337 4.375-.047l1.959.391a.64.64 0 0 1 .315 1.086l-4.014 3.896a7.244 7.244 0 0 1-5.07 2.06z"/>
        <path fill="#D1E9FF" d="M39.966 22.472L28.412 36.744c-.536.662-.07 1.654.777 1.654h6.326c3.369 0 6.618-1.26 9.12-3.538l14.363-13.068a.5.5 0 0 0-.21-.85 29.6 29.6 0 0 0-11.243-.651l-4.87.656a4.208 4.208 0 0 0-2.71 1.525"/>
        <path fill="#0063B0" d="M51.503 20.335c-1.304 0-2.611.088-3.918.263l-4.87.655a3.89 3.89 0 0 0-2.511 1.415L28.65 36.94a.693.693 0 0 0-.09.746c.112.248.36.406.63.402h6.325a13.226 13.226 0 0 0 8.916-3.458L58.793 21.56a.185.185 0 0 0 .056-.183.183.183 0 0 0-.135-.136 29.198 29.198 0 0 0-7.21-.907zM35.515 38.707h-6.326a1.3 1.3 0 0 1-1.184-.755 1.321 1.321 0 0 1 .17-1.403l11.554-14.273a4.5 4.5 0 0 1 2.905-1.637l4.87-.655a29.771 29.771 0 0 1 11.36.657.81.81 0 0 1 .34 1.382L44.842 35.09a13.835 13.835 0 0 1-9.327 3.617z"/>
        <path fill="#2496FF" d="M64.642 7.839l-.732.334a.344.344 0 0 0-.135.513l1.002 1.385c.068.094.179.147.294.14l2.4-.15-2.829-2.222"/>
        <path fill="#0063B0" d="M64.6 8.198l-.564.257-.017.02.005.028 1 1.385.028.013 1.59-.1L64.6 8.199zm.45 2.323a.64.64 0 0 1-.52-.268l-1.002-1.385a.654.654 0 0 1 .257-.978l.73-.333a.305.305 0 0 1 .316.037l2.83 2.222a.312.312 0 0 1-.17.553l-2.4.15-.041.002z"/>
        <path fill="#2496FF" d="M62.686 8.584l.71 1.142a.43.43 0 0 1 .012.432.421.421 0 0 1-.369.22h-1.735a.423.423 0 0 1-.418-.368l-.156-1.142a.429.429 0 0 1 .1-.338.42.42 0 0 1 .319-.145h1.18a.42.42 0 0 1 .357.2"/>
        <path fill="#0063B0" d="M61.149 8.694a.115.115 0 0 0-.114.132l.155 1.142c.008.058.057.1.114.1h1.735a.11.11 0 0 0 .1-.06.112.112 0 0 0-.003-.117l-.71-1.143a.115.115 0 0 0-.097-.054h-1.18zm1.89 1.994h-1.735a.734.734 0 0 1-.723-.636l-.155-1.141a.741.741 0 0 1 .173-.584.727.727 0 0 1 .55-.252h1.18c.252 0 .483.128.617.344l.71 1.142c.141.227.15.513.02.747a.728.728 0 0 1-.637.38z"/>
        <path fill="#2496FF" d="M23.29 17.24a.875.875 0 0 1-.87-.88v-.528c0-.486.39-.88.87-.88.482 0 .872.394.872.88v.528c0 .485-.39.88-.871.88"/>
        <path fill="#0063B0" d="M23.187 15.262a.463.463 0 0 0-.46.465v.738c0 .256.206.465.46.465h.208c.254 0 .46-.209.46-.465v-.738a.463.463 0 0 0-.46-.465h-.208zm.208 2.287h-.208a1.08 1.08 0 0 1-1.074-1.084v-.738a1.08 1.08 0 0 1 1.074-1.085h.208a1.08 1.08 0 0 1 1.074 1.085v.738a1.08 1.08 0 0 1-1.074 1.084z"/>
        <path fill="#2496FF" d="M26.108 17.24a.875.875 0 0 1-.871-.88v-.528c0-.486.39-.88.871-.88.482 0 .872.394.872.88v.528c0 .486-.39.88-.872.88"/>
        <path fill="#0063B0" d="M26.005 15.262a.463.463 0 0 0-.46.465v.738c0 .256.205.465.46.465h.208c.253 0 .46-.209.46-.465v-.738a.463.463 0 0 0-.46-.465h-.209zm.208 2.287h-.209a1.08 1.08 0 0 1-1.074-1.084v-.738a1.08 1.08 0 0 1 1.074-1.085h.21a1.08 1.08 0 0 1 1.073 1.085v.738a1.08 1.08 0 0 1-1.074 1.084z"/>
        <path fill="#54A1F3" d="M28.183 16.36v-.528c0-.486.39-.88.872-.88.481 0 .872.394.872.88v.528c0 .486-.39.88-.872.88a.876.876 0 0 1-.872-.88z"/>
        <path fill="#0063B0" d="M15.315 15.262a.463.463 0 0 0-.46.465v.738c0 .256.205.465.46.465h.208c.253 0 .46-.209.46-.465v-.738a.463.463 0 0 0-.46-.465h-.208zm.208 2.287h-.208a1.08 1.08 0 0 1-1.075-1.084v-.738a1.08 1.08 0 0 1 1.075-1.085h.208a1.08 1.08 0 0 1 1.074 1.085v.738a1.08 1.08 0 0 1-1.074 1.084z"/>
        <path fill="#2496FF" d="M31.873 17.24a.867.867 0 0 1-.617-.258.884.884 0 0 1-.255-.622v-.528a.882.882 0 0 1 .43-.779.865.865 0 0 1 .883 0c.273.162.437.46.43.78v.527c0 .486-.39.88-.872.88"/>
        <path fill="#0063B0" d="M31.768 15.262a.463.463 0 0 0-.46.465v.738c0 .256.207.465.46.465h.209c.253 0 .46-.209.46-.465v-.738a.463.463 0 0 0-.46-.465h-.208zm.21 2.287h-.21a1.08 1.08 0 0 1-1.073-1.084v-.738a1.08 1.08 0 0 1 1.074-1.085h.208a1.08 1.08 0 0 1 1.073 1.085v.738a1.08 1.08 0 0 1-1.073 1.084z"/>
        <path fill="#2496FF" d="M34.794 17.24a.875.875 0 0 1-.872-.88v-.528a.882.882 0 0 1 .428-.786.865.865 0 0 1 .888 0 .882.882 0 0 1 .427.786v.528c0 .486-.39.88-.871.88"/>
        <path fill="#0063B0" d="M34.69 15.262a.463.463 0 0 0-.46.465v.738c0 .256.205.465.46.465h.208c.254 0 .46-.209.46-.465v-.738a.463.463 0 0 0-.46-.465h-.209zm.208 2.287h-.209a1.08 1.08 0 0 1-1.074-1.084v-.738a1.08 1.08 0 0 1 1.074-1.085h.209a1.08 1.08 0 0 1 1.074 1.085v.738a1.08 1.08 0 0 1-1.074 1.084z"/>
        <path fill="#2496FF" d="M37.611 17.24a.876.876 0 0 1-.871-.88v-.528a.876.876 0 0 1 .87-.851c.471 0 .857.376.872.851v.528c0 .485-.39.88-.87.88"/>
        <path fill="#0063B0" d="M37.507 15.262a.463.463 0 0 0-.46.465v.738c0 .256.206.465.46.465h.208c.255 0 .46-.209.46-.465v-.738a.464.464 0 0 0-.46-.465h-.208zm.208 2.287h-.208a1.08 1.08 0 0 1-1.075-1.084v-.738a1.08 1.08 0 0 1 1.075-1.085h.208a1.08 1.08 0 0 1 1.075 1.085v.738a1.08 1.08 0 0 1-1.075 1.084z"/>
        <path fill="#2496FF" d="M40.558 17.24a.875.875 0 0 1-.872-.88v-.528c0-.486.39-.88.872-.88.481 0 .871.394.871.88v.528c0 .486-.39.88-.871.88"/>
        <path fill="#0063B0" d="M40.454 15.262a.463.463 0 0 0-.461.465v.738c0 .256.207.465.46.465h.209c.253 0 .46-.209.46-.465v-.738a.463.463 0 0 0-.46-.465h-.208zm.208 2.287h-.208a1.08 1.08 0 0 1-1.075-1.084v-.738a1.08 1.08 0 0 1 1.075-1.085h.208a1.08 1.08 0 0 1 1.074 1.085v.738a1.08 1.08 0 0 1-1.074 1.084z"/>
        <path fill="#2496FF" d="M43.375 17.24a.875.875 0 0 1-.871-.88v-.528c0-.486.39-.88.871-.88.482 0 .872.394.872.88v.528c0 .486-.39.88-.872.88"/>
        <path fill="#0063B0" d="M43.27 15.262a.463.463 0 0 0-.46.465v.738c0 .256.207.465.46.465h.21c.253 0 .46-.209.46-.465v-.738a.463.463 0 0 0-.46-.465h-.21zm.21 2.287h-.21a1.08 1.08 0 0 1-1.073-1.084v-.738a1.08 1.08 0 0 1 1.074-1.085h.209a1.08 1.08 0 0 1 1.074 1.085v.738a1.08 1.08 0 0 1-1.074 1.084z"/>
        <path fill="#2496FF" d="M46.49 17.24a.876.876 0 0 1-.872-.88v-.528a.876.876 0 0 1 .872-.86c.474 0 .86.382.871.86v.528a.884.884 0 0 1-.255.622.867.867 0 0 1-.616.257"/>
        <path fill="#0063B0" d="M46.385 15.262a.463.463 0 0 0-.46.465v.738c0 .256.207.465.46.465h.21c.253 0 .46-.209.46-.465v-.738a.463.463 0 0 0-.46-.465h-.21zm.21 2.287h-.21a1.08 1.08 0 0 1-1.074-1.084v-.738a1.08 1.08 0 0 1 1.074-1.085h.21a1.08 1.08 0 0 1 1.073 1.085v.738a1.08 1.08 0 0 1-1.074 1.084z"/>
        <path fill="#2496FF" d="M49.307 17.24a.875.875 0 0 1-.871-.88v-.528c0-.486.39-.88.871-.88.482 0 .872.394.872.88v.528c0 .486-.39.88-.872.88"/>
        <path fill="#0063B0" d="M49.203 15.262a.463.463 0 0 0-.46.465v.738c0 .256.207.465.46.465h.208c.254 0 .461-.209.461-.465v-.738a.464.464 0 0 0-.46-.465h-.209zm.208 2.287h-.208a1.08 1.08 0 0 1-1.074-1.084v-.738a1.08 1.08 0 0 1 1.074-1.085h.208a1.08 1.08 0 0 1 1.075 1.085v.738a1.08 1.08 0 0 1-1.075 1.084z"/>
        <path fill="#2496FF" d="M52.254 17.24a.875.875 0 0 1-.872-.88v-.528c0-.486.39-.88.872-.88.481 0 .871.394.871.88v.528c0 .486-.39.88-.871.88"/>
        <path fill="#0063B0" d="M52.15 15.262a.463.463 0 0 0-.46.465v.738c0 .256.206.465.46.465h.209c.253 0 .46-.209.46-.465v-.738a.463.463 0 0 0-.46-.465h-.21zm.209 2.287h-.21a1.08 1.08 0 0 1-1.074-1.084v-.738a1.08 1.08 0 0 1 1.075-1.085h.209a1.08 1.08 0 0 1 1.073 1.085v.738a1.08 1.08 0 0 1-1.074 1.084z"/>
        <path fill="#2496FF" d="M55.071 17.24a.875.875 0 0 1-.871-.88v-.528c0-.486.39-.88.871-.88.482 0 .872.394.872.88v.528c0 .485-.39.88-.872.88"/>
        <path fill="#0063B0" d="M54.967 15.262a.463.463 0 0 0-.46.465v.738c0 .256.207.465.46.465h.209c.254 0 .46-.209.46-.465v-.738a.463.463 0 0 0-.46-.465h-.209zm.209 2.287h-.209a1.08 1.08 0 0 1-1.074-1.084v-.738a1.08 1.08 0 0 1 1.074-1.085h.209a1.08 1.08 0 0 1 1.074 1.085v.738a1.08 1.08 0 0 1-1.074 1.084z"/>
    </g>
</svg>
