<svg width="29" height="29" viewBox="0 0 29 29" fill="none" xmlns="http://www.w3.org/2000/svg">
    <circle cx="14.5" cy="14.5" r="14.5" fill="#2DCA8C"/>
    <path fill-rule="evenodd" clip-rule="evenodd" d="m17.084 14.658-2.844 3.224a.679.679 0 0 0-.174.46c0 .174.063.34.174.46a.532.532 0 0 0 .407.198c.153 0 .3-.071.406-.197l3.773-4.277a.881.881 0 0 0 0-1.052l-3.774-4.277A.532.532 0 0 0 14.646 9c-.154 0-.3.071-.407.197a.679.679 0 0 0-.174.46c0 .175.063.341.175.461l2.844 3.224h-6.502a.515.515 0 0 0-.421.18A.67.67 0 0 0 10 14a.67.67 0 0 0 .16.477.515.515 0 0 0 .42.18h6.503z" fill="#fff"/>
</svg>
