<svg width="24" height="24" viewBox="0 0 24 24" fill="none" xmlns="http://www.w3.org/2000/svg">
<path fill-rule="evenodd" clip-rule="evenodd" d="M2.79595 5.045C3.12995 2.798 4.92395 1 7.19895 1C8.56195 1 9.76595 1.656 10.5729 2.66C10.6354 2.73767 10.6818 2.8269 10.7097 2.92257C10.7376 3.01824 10.7463 3.11846 10.7353 3.2175C10.7243 3.31654 10.6939 3.41244 10.6458 3.4997C10.5977 3.58696 10.5328 3.66386 10.4549 3.726C10.2978 3.85204 10.097 3.91051 9.89673 3.88857C9.69647 3.86663 9.51311 3.76607 9.38695 3.609C8.83695 2.925 8.05295 2.516 7.19895 2.516C5.85595 2.516 4.64595 3.559 4.33595 5.05C4.47393 5.06705 4.60455 5.12177 4.71348 5.20816C4.82241 5.29455 4.90545 5.40927 4.95348 5.53974C5.00152 5.67021 5.0127 5.81139 4.98579 5.94779C4.95888 6.08419 4.89493 6.21055 4.80095 6.313L4.06095 7.123C3.98974 7.20092 3.90308 7.26314 3.80649 7.30572C3.7099 7.34829 3.6055 7.37028 3.49995 7.37028C3.39439 7.37028 3.29 7.34829 3.19341 7.30572C3.09682 7.26314 3.01016 7.20092 2.93895 7.123L2.19895 6.313C2.09726 6.20227 2.03085 6.06377 2.00817 5.91515C1.9855 5.76653 2.00759 5.61453 2.07163 5.47851C2.13566 5.3425 2.23875 5.22863 2.36775 5.15142C2.49675 5.07422 2.64582 5.03717 2.79595 5.045ZM11.1399 4.235C11.2455 4.23496 11.3499 4.25691 11.4465 4.29943C11.543 4.34196 11.6297 4.40413 11.7009 4.482L12.4409 5.291C12.543 5.40169 12.6097 5.54029 12.6326 5.68908C12.6554 5.83787 12.6334 5.99011 12.5693 6.12633C12.5053 6.26255 12.402 6.37657 12.2728 6.45382C12.1436 6.53107 11.9943 6.56804 11.8439 6.56C11.5109 8.806 9.71695 10.604 7.44095 10.604C6.17295 10.604 5.04095 10.036 4.24095 9.148C4.17429 9.0741 4.12286 8.98779 4.08959 8.894C4.05632 8.8002 4.04188 8.70077 4.04708 8.60139C4.05228 8.50201 4.07703 8.40462 4.1199 8.31482C4.16278 8.22501 4.22294 8.14453 4.29695 8.078C4.37112 8.0111 4.45775 7.95948 4.55188 7.92608C4.64602 7.89269 4.74581 7.87817 4.84556 7.88338C4.9453 7.88858 5.04305 7.91339 5.1332 7.95639C5.22335 7.9994 5.30414 8.05975 5.37095 8.134C5.91095 8.734 6.64495 9.088 7.44095 9.088C8.78395 9.088 9.99395 8.046 10.3039 6.554C10.166 6.53695 10.0353 6.48223 9.92642 6.39584C9.81749 6.30945 9.73445 6.19473 9.68642 6.06426C9.63838 5.93379 9.6272 5.79261 9.65411 5.65621C9.68102 5.51981 9.74497 5.39345 9.83895 5.291L10.5789 4.482C10.6502 4.40413 10.7369 4.34196 10.8334 4.29943C10.93 4.25691 11.0344 4.23496 11.1399 4.235Z" fill="black"/>
<path fill-rule="evenodd" clip-rule="evenodd" d="M21 11.868V15.912C21 19.725 21 21.632 19.813 22.816C18.626 24 16.715 24 12.893 24C9.07099 24 7.16099 24 5.97299 22.816C4.78699 21.631 4.78699 19.725 4.78699 15.912V14.18C4.78699 13.911 4.78699 13.777 4.81199 13.666C4.85452 13.4802 4.94873 13.3103 5.08374 13.1758C5.21876 13.0413 5.38906 12.9478 5.57499 12.906C5.68499 12.88 5.82099 12.88 6.08999 12.88C7.70399 12.88 8.50999 12.88 9.17699 12.729C10.293 12.4765 11.315 11.9137 12.125 11.1054C12.935 10.2972 13.5001 9.27649 13.755 8.16099C13.907 7.49599 13.907 6.69199 13.907 5.08399C13.907 4.81799 13.907 4.68399 13.933 4.57199C13.9776 4.38419 14.0745 4.2129 14.2126 4.07801C14.3507 3.94313 14.5242 3.85019 14.713 3.80999C14.825 3.78599 14.955 3.78899 15.213 3.79399C17.545 3.84099 18.895 4.04899 19.813 4.96399C21 6.14999 21 8.05599 21 11.869M9.85299 20.209C9.74937 20.2025 9.64551 20.2173 9.54782 20.2524C9.45014 20.2876 9.36069 20.3424 9.28501 20.4135C9.20932 20.4845 9.149 20.5704 9.10777 20.6657C9.06653 20.7609 9.04526 20.8637 9.04526 20.9675C9.04526 21.0713 9.06653 21.174 9.10777 21.2693C9.149 21.3646 9.20932 21.4504 9.28501 21.5215C9.36069 21.5926 9.45014 21.6474 9.54782 21.6826C9.64551 21.7177 9.74937 21.7325 9.85299 21.726H15.933C16.0358 21.7313 16.1386 21.7156 16.2352 21.6799C16.3317 21.6442 16.42 21.5892 16.4947 21.5183C16.5693 21.4474 16.6288 21.362 16.6694 21.2674C16.71 21.1728 16.7309 21.0709 16.7309 20.968C16.7309 20.865 16.71 20.7632 16.6694 20.6686C16.6288 20.574 16.5693 20.4886 16.4947 20.4177C16.42 20.3468 16.3317 20.2918 16.2352 20.2561C16.1386 20.2204 16.0358 20.2047 15.933 20.21L9.85299 20.209Z" fill="black"/>
</svg>
