<?xml version="1.0" encoding="UTF-8"?>
<svg width="100px" height="100px" viewBox="0 0 100 100" version="1.1" xmlns="http://www.w3.org/2000/svg" xmlns:xlink="http://www.w3.org/1999/xlink">
    <!-- Generator: Sketch 55.1 (78136) - https://sketchapp.com -->
    <title>Group 4@2x</title>
    <desc>Created with Sketch.</desc>
    <defs>
        <polygon id="path-1" points="0 0.072 99.936 0.072 99.936 99.988 0 99.988"></polygon>
    </defs>
    <g id="r" stroke="none" stroke-width="1" fill="none" fill-rule="evenodd">
        <g id="new-sign-copy">
            <g id="Group-4">
                <g id="Clipped">
                    <mask id="mask-2" fill="white">
                        <use xlink:href="#path-1"></use>
                    </mask>
                    <g id="a"></g>
                    <path d="M94.253,42.652 C92.715,41.518 90.777,40.102 90.543,39.176 C90.642,37.385 91.153,35.641 92.037,34.08 C93.393,30.969 94.792,27.745 93.237,25.064 C91.681,22.384 88.144,21.949 84.742,21.588 C82.9787977,21.5760175 81.2416237,21.1614763 79.663,20.376 C78.8759688,18.7916919 78.4627121,17.0480084 78.455,15.279 C78.073,11.877 77.678,8.358 74.979,6.785 C72.281,5.212 69.053,6.59 65.942,7.963 C64.3796079,8.84679986 62.6343124,9.35806877 60.842,9.457 C59.902,9.205 58.491,7.285 57.365,5.747 C55.393,3.087 53.173,0.072 49.966,0.072 C46.759,0.072 44.539,3.088 42.58,5.747 C41.441,7.289 40.03,9.223 39.104,9.462 C37.3131369,9.35392624 35.5697887,8.84288593 34.004,7.967 C30.874,6.59 27.651,5.217 24.979,6.763 C22.307,8.31 21.859,11.856 21.477,15.279 C21.4647297,17.0420242 21.0516453,18.7791674 20.269,20.359 C18.6933438,21.1332941 16.9626041,21.540165 15.207,21.549 C11.801,21.931 8.277,22.327 6.709,25.025 C5.139,27.723 6.517,30.947 7.89,34.062 C8.77746016,35.6279675 9.28922921,37.3785942 9.385,39.176 C9.133,40.115 7.212,41.531 5.675,42.652 C3.014,44.607 0,46.832 0,50.038 C0,53.245 3.015,55.469 5.679,57.425 C7.217,58.559 9.155,59.975 9.389,60.901 C9.29042561,62.6921111 8.77911315,64.4361862 7.895,65.997 C6.539,69.107 5.14,72.332 6.695,75.013 C8.251,77.693 11.788,78.128 15.19,78.489 C16.953,78.5 18.69,78.915 20.269,79.701 C21.0558824,81.2850053 21.4691351,83.0283296 21.477,84.797 C21.859,88.199 22.254,91.719 24.953,93.292 C27.651,94.864 30.853,93.448 33.968,92.092 C35.5463345,91.2177434 37.3023592,90.7127495 39.104,90.615 C40.042,90.867 41.454,92.788 42.58,94.325 C44.54,96.985 46.76,100 49.966,100 C53.173,100 55.393,96.985 57.352,94.326 C58.491,92.783 59.902,90.85 60.828,90.611 C62.620251,90.7121236 64.3653834,91.2232445 65.929,92.105 C69.04,93.461 72.264,94.851 74.94,93.309 C77.617,91.767 78.06,88.217 78.442,84.81 C78.455,83.048 78.868,81.31 79.65,79.731 C81.2285118,78.9502268 82.9639808,78.5388437 84.725,78.528 C88.131,78.145 91.655,77.75 93.224,75.052 C94.792,72.354 93.376,69.152 92.024,66.036 C91.1396766,64.462217 90.6339893,62.7041233 90.547,60.901 C90.799,59.962 92.72,58.546 94.257,57.425 C96.917,55.465 99.937,53.241 99.937,50.038 C99.937,46.836 96.917,44.608 94.253,42.652" id="Path" fill="#EF8F7F" fill-rule="nonzero" mask="url(#mask-2)"></path>
                </g>
                <path d="M21.7312244,41 L25.8133367,41 C28.4623576,41 30.3852113,41.3631975 31.5819555,42.0896033 C32.7786996,42.8160091 33.3770627,43.9712643 33.3770627,45.5554036 C33.3770627,46.6306483 33.1151458,47.5129924 32.591304,48.2024624 C32.0674623,48.8919323 31.3711465,49.3064289 30.5023358,49.4459644 L30.5023358,49.5690834 C31.6863033,49.8235307 32.5401951,50.2995861 33.0640369,50.997264 C33.5878787,51.6949419 33.8497956,52.6224292 33.8497956,53.7797538 C33.8497956,55.4213488 33.2343972,56.7017738 32.0035821,57.621067 C30.7727669,58.5403603 29.1011831,59 26.9887806,59 L21.7312244,59 C20.7750956,59 20,58.2249044 20,57.2687756 L20,42.7312244 C20,41.7750956 20.7750956,41 21.7312244,41 Z M23.4624489,48.7142857 L25.6936212,48.7142857 C26.7348402,48.7142857 27.4888862,48.5771442 27.955782,48.3028571 C28.4226778,48.0285701 28.6561222,47.5749482 28.6561222,46.941978 C28.6561222,46.3512058 28.4020191,45.9274738 27.893805,45.6707692 C27.385591,45.4140647 26.5819638,45.2857143 25.4828994,45.2857143 L23.4624489,45.2857143 L23.4624489,48.7142857 Z M23.4624489,51.2857143 L23.4624489,55.5714286 L25.7835153,55.5714286 C26.7640367,55.5714286 27.4879264,55.3877034 27.9552062,55.0202475 C28.4224859,54.6527916 28.6561222,54.0903675 28.6561222,53.3329584 C28.6561222,51.9681222 27.6602951,51.2857143 25.668611,51.2857143 L23.4624489,51.2857143 Z M45.6736678,59 L39.0434689,59 C38.0873401,59 37.3122445,58.2249044 37.3122445,57.2687756 L37.3122445,42.7312244 C37.3122445,41.7750956 38.0873401,41 39.0434689,41 L45.6859797,41 C46.7980666,41 47.6995912,41.9015246 47.6995912,43.0136115 C47.6995912,44.1256984 46.7980666,45.027223 45.6859797,45.027223 L41.1365645,45.027223 L41.1365645,48.0793434 L45.2295286,48.0793434 C46.3416155,48.0793434 47.2431401,48.9808679 47.2431401,50.0929549 C47.2431401,51.2050418 46.3416155,52.1065663 45.2295286,52.1065663 L41.1365645,52.1065663 L41.1365645,54.9481532 L45.6736678,54.9481532 C46.7925544,54.9481532 47.6995912,55.85519 47.6995912,56.9740766 C47.6995912,58.0929632 46.7925544,59 45.6736678,59 Z M57.2213257,59 C56.1474128,59 55.2768344,58.1294216 55.2768344,57.0555088 L55.2768344,45.0764706 L52.3346632,45.0764706 C51.2089769,45.0764706 50.2964279,44.1639216 50.2964279,43.0382353 C50.2964279,41.912549 51.2089769,41 52.3346632,41 L62.1079882,41 C63.2336744,41 64.1462235,41.912549 64.1462235,43.0382353 C64.1462235,44.1639216 63.2336744,45.0764706 62.1079882,45.0764706 L59.1658169,45.0764706 L59.1658169,57.0555088 C59.1658169,58.1294216 58.2952385,59 57.2213257,59 Z M75.9048744,57.0425539 L75.2019233,54.73297 L68.6715437,54.73297 L67.9685926,57.0425539 C67.614689,58.2053234 66.5421495,59 65.3267152,59 C64.525907,59 63.8767238,58.3508167 63.8767238,57.5500086 C63.8767238,57.386366 63.9044249,57.223904 63.9586531,57.0695077 L68.83331,43.1905886 C69.2942375,41.878255 70.533556,41 71.9244814,41 C73.3157353,41 74.5556796,41.8775709 75.0183057,43.189655 L79.9124759,57.0703305 C80.1784226,57.8245991 79.7825594,58.6516469 79.0282908,58.9175935 C78.873603,58.9721347 78.7107734,59 78.5467518,59 C77.3313175,59 76.258778,58.2053234 75.9048744,57.0425539 Z M74.5335702,51.2857143 L72.772996,46.4107153 C72.6106112,45.9610746 72.1144664,45.7282076 71.6648257,45.8905925 C71.4250241,45.9771953 71.2355983,46.1651121 71.1470804,46.4042135 L69.3398968,51.2857143 L74.5335702,51.2857143 Z" id="BETA" fill="#F8F6F4" fill-rule="nonzero"></path>
            </g>
        </g>
    </g>
</svg>