<svg xmlns="http://www.w3.org/2000/svg" width="16" height="16" viewBox="0 0 40 40">
    <path fill="#2396FF" fill-rule="evenodd" d="M38.986 1.796c-.712-.295-1.32-.173-1.823.366L33.777 5.52a20.221 20.221 0 0 0-6.367-4.075A19.628 19.628 0 0 0 20 0c-2.71 0-5.296.53-7.762 1.589-2.464 1.058-4.591 2.482-6.38 4.27-1.787 1.789-3.212 3.916-4.27 6.38A19.447 19.447 0 0 0 0 20.001c0 2.708.529 5.294 1.589 7.76s2.483 4.591 4.27 6.38c1.789 1.787 3.916 3.212 6.38 4.27A19.453 19.453 0 0 0 20.001 40c2.985 0 5.825-.63 8.515-1.889a19.525 19.525 0 0 0 6.875-5.325.849.849 0 0 0 .195-.585.719.719 0 0 0-.246-.534l-3.568-3.594a1.001 1.001 0 0 0-.65-.234c-.279.034-.479.139-.6.313a13.065 13.065 0 0 1-4.662 3.829 13.137 13.137 0 0 1-5.859 1.353c-1.806 0-3.529-.351-5.17-1.055-1.64-.702-3.06-1.653-4.257-2.851-1.197-1.197-2.148-2.618-2.852-4.258A12.967 12.967 0 0 1 6.668 20c0-1.805.352-3.528 1.054-5.169.703-1.64 1.653-3.06 2.852-4.257 1.199-1.199 2.617-2.15 4.258-2.851A12.971 12.971 0 0 1 20 6.668c3.49 0 6.519 1.189 9.09 3.568l-3.596 3.592c-.537.521-.66 1.12-.364 1.797.295.694.807 1.042 1.537 1.042h11.667c.45 0 .841-.165 1.172-.495.33-.329.493-.72.493-1.172V3.334c0-.729-.337-1.24-1.014-1.538z"/>
</svg>
