<svg xmlns="http://www.w3.org/2000/svg" width="194" height="68" viewBox="0 0 194 68">
    <g fill="none" fill-rule="evenodd">
        <path fill="#2496FF" d="M17.77 54.395c5.943 11.489 25.834 17.729 38.33 10.536C68.595 57.74 69.539 39.327 63.02 28.35c-6.518-10.978-18.968-9.43-31.464-2.238-12.495 7.193-19.73 16.796-13.787 28.284zm25.081-36.624c-2.399-.638-4.322-2.337-5.658-3.858a13.091 13.091 0 0 1-2.86-5.46c-.538-2.145-1.208-4.928 1.619-6.646 3.332-2.022 7.937-2.165 11.49-1.32 7.26 1.719 8.119 13.359 1.005 16.693-2.065.969-3.943 1.032-5.596.591zM1.791 39.526C.415 37.576.047 35.143.003 33.2c-.045-1.999.39-3.98 1.27-5.776.93-1.909 2.16-4.366 5.31-3.885 3.713.57 7.202 3.306 9.303 6.117 4.294 5.741-2.28 14.824-9.597 12.886-2.124-.562-3.55-1.674-4.498-3.017zm26.762-34.84c1.664.642 3.26 3.196 3.3 4.989.083 4.077 4.419 19.337-13.074 16.491-1.82-.297-4.082-1.47-5.48-2.624-2.547-2.09-3.312-4.326-2.924-6.503 1.023-5.726 12.318-14.616 18.178-12.353z"/>
        <path fill="#2296FF" d="M98.12 54V37.62L82.7 13.98h9.72l9.96 16.08 9.84-16.08h9.72l-15.3 23.64V54h-8.52zm32.84.72c-2.2 0-4.25-.36-6.15-1.08-1.9-.72-3.54-1.74-4.92-3.06s-2.46-2.92-3.24-4.8c-.78-1.88-1.17-3.98-1.17-6.3 0-2.08.37-4.05 1.11-5.91.74-1.86 1.77-3.47 3.09-4.83 1.32-1.36 2.9-2.44 4.74-3.24 1.84-.8 3.86-1.2 6.06-1.2 2.16 0 4.13.39 5.91 1.17 1.78.78 3.31 1.87 4.59 3.27 1.28 1.4 2.27 3.08 2.97 5.04.7 1.96 1.05 4.12 1.05 6.48v1.68h-21.54c.24 1.84 1.07 3.42 2.49 4.74 1.42 1.32 3.37 1.98 5.85 1.98.6 0 1.26-.07 1.98-.21.72-.14 1.43-.33 2.13-.57.7-.24 1.36-.54 1.98-.9.62-.36 1.17-.76 1.65-1.2l3.36 4.92c-1.44 1.32-3.22 2.32-5.34 3-2.12.68-4.32 1.02-6.6 1.02zm6.66-17.94c-.04-.68-.2-1.4-.48-2.16-.28-.76-.7-1.45-1.26-2.07-.56-.62-1.29-1.14-2.19-1.56-.9-.42-1.97-.63-3.21-.63-1.2 0-2.23.2-3.09.6-.86.4-1.57.91-2.13 1.53-.56.62-1 1.31-1.32 2.07a8 8 0 0 0-.6 2.22h14.28zM149.82 54V13.98h7.62V54h-7.62zm27.92.72c-2.4 0-4.54-.41-6.42-1.23-1.88-.82-3.48-1.92-4.8-3.3a14.223 14.223 0 0 1-3.03-4.83c-.7-1.84-1.05-3.8-1.05-5.88 0-2.04.35-3.98 1.05-5.82.7-1.84 1.71-3.45 3.03-4.83 1.32-1.38 2.92-2.48 4.8-3.3 1.88-.82 4.02-1.23 6.42-1.23 2.4 0 4.55.41 6.45 1.23 1.9.82 3.51 1.92 4.83 3.3 1.32 1.38 2.33 2.99 3.03 4.83.7 1.84 1.05 3.78 1.05 5.82 0 2.08-.35 4.04-1.05 5.88-.7 1.84-1.71 3.45-3.03 4.83-1.32 1.38-2.93 2.48-4.83 3.3-1.9.82-4.05 1.23-6.45 1.23zm0-6.78c1.2 0 2.26-.23 3.18-.69.92-.46 1.69-1.07 2.31-1.83.62-.76 1.1-1.65 1.44-2.67.34-1.02.51-2.11.51-3.27 0-1.12-.17-2.19-.51-3.21-.34-1.02-.82-1.91-1.44-2.67a6.947 6.947 0 0 0-2.31-1.83c-.92-.46-1.98-.69-3.18-.69-1.2 0-2.25.23-3.15.69-.9.46-1.67 1.07-2.31 1.83-.64.76-1.12 1.65-1.44 2.67a10.66 10.66 0 0 0-.48 3.21c0 1.16.16 2.25.48 3.27.32 1.02.8 1.91 1.44 2.67.64.76 1.41 1.37 2.31 1.83.9.46 1.95.69 3.15.69z"/>
    </g>
</svg>
