<svg xmlns="http://www.w3.org/2000/svg" xmlns:xlink="http://www.w3.org/1999/xlink" width="133" height="61" viewBox="0 0 133 61">
    <defs>
        <path id="a" d="M0 .043h22.18V27.62H0z"/>
        <path id="c" d="M7.61.049C3.446.049.07 3.396.07 7.524v8.296H15.15V7.524c0-4.128-3.375-7.475-7.54-7.475"/>
        <path id="e" d="M7.59.049C3.426.049.05 3.396.05 7.524v8.296H15.13V7.524c0-4.128-3.376-7.475-7.54-7.475"/>
    </defs>
    <g fill="none" fill-rule="evenodd">
        <path fill="#E5E5E5" d="M22.556 59.04c-1.518-.342-2.078-.744-1.35-1.218 5.053-3.295 27.804-3.194 38.84-3.19 13.88.004 28.323-.083 40.826.72 5.231.335 17.085.644 19.12 1.758 5.332 2.929-32.49 3.735-38.61 3.775-10.205.066-50.154.105-58.826-1.845"/>
        <path fill="#E5E5E5" d="M113.518 58.953a1.206 1.206 0 0 1-.057-.024c-.639-.281-.974-.823-.647-1.462.464-.906 1.93-1.667 2.86-1.986 1.488-.51 3.098-.635 4.655-.778 2.777-.256 5.648-.588 8.299-.254 1.11.14 3.538.137 4.155.887 1.265 1.538-3.412 2.883-4.39 3.115-4.424 1.05-9.143 1.064-13.658.726-.414-.031-.835-.069-1.217-.224M26.053 55.86c1.073.97-.035 2.171-1.004 2.711-1.543.861-3.605.635-5.261.293-3.336-.689-6.733-1.288-10.027-2.155-1.13-.297-3.53-.604-4.14-1.73-1.226-2.261 6.73-1.989 8.02-1.879 2.62.224 5.248.555 7.825 1.08 1.06.217 3.544.737 4.587 1.68"/>
        <path fill="#E5E5E5" d="M113.828 57.204h-88.16c-2.413 0-4.376-1.946-4.376-4.338v-.26c0-.14.115-.255.257-.255h96.404c.142 0 .256.114.256.255v.254c0 2.395-1.965 4.344-4.38 4.344"/>
        <path fill="#E5E5E5" d="M109.838 53.315V5.08c0-.873-.692-1.588-1.539-1.588H31.27c-.847 0-1.54.715-1.54 1.588v48.234h80.11"/>
        <path fill="#E5E5E5" d="M110.85 52.316V5.948c0-.84-.692-1.526-1.54-1.526H32.28c-.846 0-1.54.687-1.54 1.526v46.368h80.11"/>
        <path fill="#FFF" d="M114.873 57.204h-88.16c-2.413 0-4.376-1.946-4.376-4.338v-.26c0-.14.115-.255.257-.255h96.404c.142 0 .256.114.256.255v.254c0 2.395-1.965 4.344-4.38 4.344"/>
        <path fill="#6A79A8" d="M115.004 57.033H27.42c-.584 0-1.147.004-1.719-.167a4.298 4.298 0 0 1-2.997-3.511 4.806 4.806 0 0 1-.039-.576c0-.037.031-.493-.202-.257.002-.002.011.003.013 0 .01-.01.074.002.087 0 1.133-.103 2.326 0 3.462 0h91.772c.248 0 .786-.106 1.016 0 .384.179-.023 1.51-.132 1.819-.553 1.558-2 2.664-3.677 2.692-.228.003-.701.349-.263.342 1.456-.024 2.865-.622 3.805-1.742.474-.565.81-1.255.953-1.977.082-.416.315-1.373-.297-1.47-.233-.038-.493-.006-.728-.006H23.97c-.383 0-.77-.015-1.152 0-.281.011-.641.06-.773.342-.099.214-.038.574-.02.793.033.398.121.791.264 1.165a4.478 4.478 0 0 0 1.277 1.806c1.451 1.23 3.196 1.089 4.947 1.089h86.228c.23 0 .703-.342.263-.342"/>
        <path fill="#6A79A8" d="M59.404 52.42c.316 1.475 1.726 1.37 2.893 1.37h16.52c1.294 0 3.016.185 3.37-1.468.019-.084-.092-.114-.154-.114H59.754c-.194 0-.535.29-.195.29h22.279l-.155-.115c-.166.773-.747 1.118-1.478 1.118H61.61c-.815 0-1.514-.342-1.701-1.215-.038-.176-.545-.05-.505.134"/>
        <path fill="#FFF" d="M108.928 17.226c0 1.65-1.36 2.988-3.038 2.988h-.859c-1.678 0-3.038-1.338-3.038-2.988 0 1.65-1.36 2.988-3.038 2.988h-.859c-1.678 0-3.038-1.338-3.038-2.988 0 1.65-1.36 2.988-3.038 2.988h-.859c-1.678 0-3.038-1.338-3.038-2.988 0 1.65-1.36 2.988-3.038 2.988h-.86c-1.677 0-3.037-1.338-3.037-2.988 0 1.65-1.36 2.988-3.038 2.988h-.86c-1.677 0-3.037-1.338-3.037-2.988 0 1.65-1.36 2.988-3.038 2.988h-.86c-1.677 0-3.037-1.338-3.037-2.988 0 1.65-1.36 2.988-3.038 2.988h-.86c-1.677 0-3.038-1.338-3.038-2.988 0 1.65-1.36 2.988-3.038 2.988h-.859c-1.678 0-3.038-1.338-3.038-2.988 0 1.65-1.36 2.988-3.038 2.988h-.859c-1.678 0-3.038-1.338-3.038-2.988 0 1.65-1.36 2.988-3.038 2.988h-.859c-1.678 0-3.038-1.338-3.038-2.988 0 1.65-1.36 2.988-3.038 2.988h-.859c-1.678 0-3.038-1.338-3.038-2.988 0 1.204-.83 2.241-1.873 2.714v32.188h80.037V20.194c-1.514-.17-1.878-1.433-1.878-2.968"/>
        <path fill="#E5E5E5" d="M105.405 50.12h1.045V19.676h-1.045z"/>
        <path fill="#6A79A8" d="M30.486 19.804v32.535c0 .087.076.148.164.148h76.843c1.044 0 2.09.019 3.132 0h.135c.101 0 .346-.045.346-.193V41.369v-17.41-3.993c0-.247-.51-.162-.51.045v32.328l.346-.193H32.035c-.333 0-.741-.064-1.069 0-.041.008-.092 0-.135 0l.164.148V41.316 23.8v-4.043c0-.246-.509-.161-.509.046"/>
        <path fill="#6A79A8" d="M33.538 19.64V50.187c0 .055.12.055.15.055H103.382c.944 0 1.896.032 2.84 0h.124c.101 0 .356-.053.356-.189V39.77 23.452v-3.738c0-.119-.505-.036-.505.134v30.338l.356-.188H34.993c-.314 0-.663-.042-.976 0-.04.005-.083 0-.123 0l.15.054V39.716 23.259v-3.752c0-.119-.506-.036-.506.134"/>
        <path fill="#E5E5E5" d="M36.48 19.247h-1.091c-1.589 0-2.876-1.276-2.876-2.85V8.863h6.842v7.532c0 1.575-1.287 2.85-2.876 2.85M50.165 19.247h-1.091c-1.589 0-2.876-1.276-2.876-2.85V8.863h6.842v7.532c0 1.575-1.287 2.85-2.875 2.85M63.85 19.247h-1.091c-1.589 0-2.876-1.276-2.876-2.85V8.863h6.842v7.532c0 1.575-1.287 2.85-2.875 2.85M77.535 19.247h-1.091c-1.589 0-2.876-1.276-2.876-2.85V8.863h6.842v7.532c0 1.575-1.287 2.85-2.875 2.85M91.22 19.247h-1.091c-1.588 0-2.876-1.276-2.876-2.85V8.863h6.843v7.532c0 1.575-1.287 2.85-2.876 2.85M104.905 19.247h-1.09c-1.589 0-2.877-1.276-2.877-2.85V8.863h6.843v7.532c0 1.575-1.288 2.85-2.876 2.85"/>
        <path fill="#FFF" d="M36.48 17.94h-1.091c-1.589 0-2.876-1.276-2.876-2.85V8.863h6.842v6.225c0 1.575-1.287 2.851-2.876 2.851M50.165 17.94h-1.091c-1.589 0-2.876-1.276-2.876-2.85V8.863h6.842v6.225c0 1.575-1.287 2.851-2.875 2.851M63.85 17.94h-1.091c-1.589 0-2.876-1.276-2.876-2.85V8.863h6.842v6.225c0 1.575-1.287 2.851-2.875 2.851M77.535 17.94h-1.091c-1.589 0-2.876-1.276-2.876-2.85V8.863h6.842v6.225c0 1.575-1.287 2.851-2.875 2.851M91.22 17.94h-1.091c-1.588 0-2.876-1.276-2.876-2.85V8.863h6.843v6.225c0 1.575-1.287 2.851-2.876 2.851M104.905 17.94h-1.09c-1.589 0-2.877-1.276-2.877-2.85V8.863h6.843v6.225c0 1.575-1.288 2.851-2.876 2.851"/>
        <path fill="#6A79A8" d="M36.579 19.11c-1.12 0-2.192.035-3.036-.842-.637-.662-.778-1.476-.778-2.346v-5.411-1.714L32.413 9h6.843l-.153-.07c0 2.495.046 4.994 0 7.488-.026 1.407-1.048 2.656-2.524 2.692-.182.005-.537.282-.2.274 1.19-.03 2.328-.614 2.892-1.681.324-.613.337-1.246.337-1.913v-5.323-1.67c0-.06-.118-.07-.153-.07h-6.843c-.118 0-.352.053-.352.204V16.08c0 .885.172 1.713.814 2.38.91.945 2.091.923 3.306.923.183 0 .538-.274.199-.274M50.263 19.105c-1.12 0-2.192.037-3.035-.838-.638-.662-.778-1.476-.778-2.345v-5.411-1.714l-.35.209h6.842l-.154-.075c0 2.494.05 4.993 0 7.487-.028 1.407-1.05 2.651-2.525 2.687-.189.005-.535.292-.197.284 1.209-.03 2.357-.632 2.912-1.726.306-.602.315-1.222.315-1.873v-5.323-1.67c0-.06-.117-.075-.155-.075h-6.842c-.124 0-.35.054-.35.209V16.08c0 .885.17 1.715.813 2.381.912.947 2.091.927 3.307.927.19 0 .536-.284.197-.284M64.014 19.148c-1.12 0-2.192.03-3.05-.82-.665-.659-.829-1.493-.829-2.38v-5.393-1.758l-.417.166h5.25c.473 0 .997.064 1.466 0 .178-.025.044.022.04-.01.017.114 0 .245 0 .36V15.324c0 .377.008.755 0 1.132-.03 1.355-1.012 2.657-2.46 2.692-.103.002-.567.204-.329.198 1.134-.028 2.25-.519 2.861-1.5.39-.625.432-1.295.432-2.001v-5.378-1.67c0-.029-.078-.032-.088-.032h-6.843c-.087 0-.416.04-.416.166v7.125c0 .845.134 1.63.72 2.294.892 1.015 2.095.996 3.334.996.104 0 .57-.198.33-.198M77.64 19.13c-1.126 0-2.194.022-3.04-.856-.639-.663-.78-1.48-.78-2.352v-5.411-1.714l-.357.184h6.843l-.148-.05c0 2.494.043 4.993 0 7.487-.024 1.41-1.033 2.675-2.519 2.711-.157.004-.544.244-.21.235 1.169-.028 2.295-.593 2.872-1.626.346-.62.362-1.267.362-1.948v-5.323-1.67c0-.053-.12-.05-.148-.05h-6.842c-.097 0-.357.052-.357.184V16.08c0 .884.17 1.708.811 2.374.91.944 2.093.91 3.303.91.158 0 .545-.236.21-.236M91.382 19.14c-1.12 0-2.189.035-3.049-.815-.666-.66-.828-1.49-.828-2.378v-5.392-1.758l-.414.173H92.34c.464 0 1.008.077 1.466 0 .197-.033.039.019.037-.01.006.133 0 .269 0 .402V15.4c0 .353.01.708 0 1.061-.035 1.396-1.05 2.644-2.515 2.68-.143.004-.549.22-.216.212 1.163-.029 2.296-.591 2.873-1.619.347-.618.362-1.265.362-1.944v-5.323-1.67c0-.03-.076-.04-.09-.04h-6.842c-.095 0-.414.034-.414.174v7.125c0 .846.137 1.632.72 2.297.891 1.016 2.097 1 3.336 1 .113 0 .573-.212.325-.212M105.007 19.123c-1.123 0-2.192.028-3.038-.851-.638-.663-.778-1.479-.778-2.35v-5.411-1.714c-.12.063-.237.127-.355.19h6.842l-.15-.056c0 2.494.045 4.993 0 7.487-.025 1.41-1.037 2.669-2.52 2.705-.166.004-.543.256-.207.248 1.17-.028 2.298-.594 2.87-1.631.344-.623.362-1.268.362-1.95v-5.323-1.67c0-.056-.12-.058-.15-.058h-6.842c-.104 0-.355.053-.355.192V16.08c0 .884.17 1.71.812 2.376.909.944 2.093.914 3.303.914.168 0 .544-.248.206-.248"/>
        <path fill="#EA8571" d="M29.637 19.247h-1.091c-1.588 0-2.876-1.276-2.876-2.85V8.863h6.843v7.532c0 1.575-1.288 2.85-2.876 2.85M43.322 19.247h-1.09c-1.59 0-2.877-1.276-2.877-2.85V8.863h6.843v7.532c0 1.575-1.288 2.85-2.876 2.85M57.007 19.247h-1.09c-1.59 0-2.877-1.276-2.877-2.85V8.863h6.843v7.532c0 1.575-1.288 2.85-2.876 2.85M70.692 19.247h-1.09c-1.59 0-2.877-1.276-2.877-2.85V8.863h6.843v7.532c0 1.575-1.288 2.85-2.876 2.85M84.377 19.247h-1.09c-1.589 0-2.877-1.276-2.877-2.85V8.863h6.843v7.532c0 1.575-1.287 2.85-2.876 2.85M98.063 19.247h-1.091c-1.59 0-2.876-1.276-2.876-2.85V8.863h6.842v7.532c0 1.575-1.287 2.85-2.875 2.85M111.747 19.247h-1.09c-1.589 0-2.876-1.276-2.876-2.85V8.863h6.842v7.532c0 1.575-1.288 2.85-2.876 2.85"/>
        <path fill="#F9AB98" d="M30.174 17.94h-.9a2.402 2.402 0 0 1-2.413-2.39V9.414c0-.304.25-.551.556-.551h4.54c.307 0 .556.247.556.551v6.207a2.328 2.328 0 0 1-2.339 2.318M43.44 17.94h-1.326c-1.524 0-2.759-1.224-2.759-2.734V9.415c0-.304.25-.551.557-.551h5.73c.307 0 .556.247.556.551v5.79c0 1.51-1.235 2.735-2.759 2.735M57.124 17.94H55.8c-1.524 0-2.759-1.224-2.759-2.734V9.415c0-.304.25-.551.557-.551h5.73c.307 0 .556.247.556.551v5.79c0 1.51-1.235 2.735-2.759 2.735M70.81 17.94h-1.326c-1.524 0-2.759-1.224-2.759-2.734V9.415c0-.304.25-.551.557-.551h5.73c.307 0 .556.247.556.551v5.79c0 1.51-1.235 2.735-2.759 2.735M84.494 17.94H83.17c-1.523 0-2.759-1.224-2.759-2.734V9.415c0-.304.25-.551.557-.551h5.73c.307 0 .556.247.556.551v5.79c0 1.51-1.235 2.735-2.759 2.735M98.18 17.94h-1.326c-1.523 0-2.758-1.224-2.758-2.734V9.415c0-.304.248-.551.555-.551h5.731c.307 0 .556.247.556.551v5.79c0 1.51-1.235 2.735-2.758 2.735M111.864 17.94h-1.325c-1.523 0-2.758-1.224-2.758-2.734V9.415c0-.304.249-.551.556-.551h5.73c.307 0 .556.247.556.551v5.79c0 1.51-1.234 2.735-2.759 2.735"/>
        <path fill="#6A79A8" d="M29.799 19.139c-1.12 0-2.188.036-3.049-.815-.666-.659-.828-1.49-.828-2.377v-5.392-1.758l-.414.175h5.25c.462 0 1.009.078 1.466 0 .196-.034.038.02.036-.012.006.134 0 .269 0 .402V15.4c0 .353.01.708 0 1.061-.035 1.396-1.05 2.643-2.516 2.678-.145.004-.548.224-.215.216 1.164-.029 2.296-.592 2.873-1.62.347-.618.363-1.266.363-1.945v-5.323-1.67c0-.031-.076-.041-.09-.041h-6.843c-.098 0-.414.033-.414.175v7.125c0 .846.137 1.633.72 2.298.891 1.014 2.098 1 3.337 1 .115 0 .573-.215.324-.215M43.426 19.126c-1.124 0-2.194.025-3.04-.853-.638-.663-.778-1.48-.778-2.35V10.51 8.797c-.12.062-.238.125-.357.188h6.843l-.149-.054c0 2.494.044 4.993 0 7.487-.024 1.41-1.036 2.672-2.52 2.708-.16.004-.543.25-.207.242 1.168-.029 2.296-.594 2.87-1.63.345-.62.362-1.266.362-1.948v-5.323-1.67c0-.055-.12-.054-.148-.054h-6.843c-.1 0-.356.053-.356.188V16.08c0 .884.17 1.71.812 2.375.91.944 2.092.912 3.303.912.163 0 .544-.242.208-.242M57.098 19.08c-1.11 0-2.19.047-3.03-.821-.632-.654-.773-1.457-.773-2.318v-5.387V8.84l-.346.19h6.843c-.055-.047-.11-.095-.163-.143 0 2.502.043 5.008 0 7.51-.026 1.46-1.094 2.647-2.595 2.683-.275.007-.4.342-.054.334 1.207-.03 2.357-.694 2.874-1.796.28-.596.283-1.205.283-1.842v-5.309V8.84c0-.087-.076-.144-.163-.144h-6.842c-.1 0-.346.045-.346.191v7.198c0 .886.176 1.719.818 2.385.917.953 2.086.944 3.312.944.223 0 .522-.334.182-.334M70.792 19.11c-1.12 0-2.192.035-3.036-.842-.638-.661-.778-1.476-.778-2.346v-5.411-1.714L66.626 9h6.842l-.152-.07c0 2.495.046 4.994 0 7.488-.026 1.407-1.048 2.657-2.524 2.692-.182.005-.538.282-.2.273 1.19-.028 2.328-.613 2.892-1.68.324-.613.336-1.247.336-1.913v-5.323-1.67c0-.059-.117-.07-.152-.07h-6.843c-.118 0-.352.054-.352.204V16.08c0 .885.171 1.713.813 2.38.91.945 2.092.922 3.306.922.183 0 .539-.273.2-.273M84.403 19.076c-1.14 0-2.234.019-3.055-.916-.573-.653-.683-1.422-.683-2.244v-5.36V8.84l-.28.194h6.842l-.229-.15c0 2.503.044 5.009 0 7.51-.025 1.46-1.095 2.644-2.595 2.68-.278.007-.396.351-.051.343 1.208-.03 2.355-.695 2.873-1.798.28-.595.283-1.206.283-1.843v-5.309-1.627c0-.127-.124-.149-.23-.149h-6.842c-.092 0-.28.081-.28.194V16.106c0 .903.198 1.748.866 2.412.933.93 2.107.9 3.33.9.279 0 .395-.342.05-.342M98.164 19.12c-1.123 0-2.192.03-3.037-.849-.638-.662-.78-1.478-.78-2.349v-5.411-1.714l-.354.194h6.843l-.15-.06c0 2.494.046 4.993 0 7.487-.026 1.409-1.04 2.666-2.522 2.702-.168.004-.541.262-.204.254 1.17-.029 2.297-.594 2.87-1.633.343-.624.36-1.268.36-1.95v-5.324-1.67c0-.056-.118-.06-.15-.06h-6.842c-.108 0-.355.053-.355.194V16.08c0 .884.171 1.71.813 2.377.909.944 2.092.916 3.304.916.17 0 .543-.254.204-.254M111.771 19.068c-1.14 0-2.228.02-3.054-.91-.574-.649-.68-1.42-.68-2.24v-5.36-1.715l-.28.199h6.842a38.653 38.653 0 0 1-.23-.158c0 2.502.042 5.008 0 7.51-.027 1.46-1.1 2.638-2.598 2.674-.283.007-.392.366-.047.357 1.21-.03 2.354-.696 2.872-1.8.28-.596.282-1.21.282-1.846V10.47 8.843c0-.128-.122-.158-.232-.158h-6.842c-.096 0-.279.084-.279.199v4.732c0 1.576-.358 3.677.867 4.904.932.934 2.109.905 3.332.905.284 0 .39-.357.047-.357"/>
        <path fill="#FFF" d="M39.355 8.864L45.278.356h-5.526l-7.24 8.508h6.843"/>
        <path fill="#6A79A8" d="M39.593 8.882A189691.856 189691.856 0 0 0 45.516.374c.069-.098-.059-.18-.145-.18h-3.63c-.592 0-1.186-.014-1.777 0-.246.005-.376.06-.532.237-1.789 2.021-3.5 4.114-5.25 6.169l-1.876 2.205c-.09.106-.027.222.114.222h6.843c.217 0 .525-.326.185-.326h-6.843l.115.221 6.325-7.434.914-1.073-.3.104h5.527L45.04.34l-5.19 7.453-.733 1.054c-.145.208.367.193.476.036"/>
        <path fill="#FFF" d="M53.04 8.864L56.33.356h-5.525l-4.607 8.508h6.842"/>
        <path fill="#6A79A8" d="M53.288 8.817l2.871-7.423.42-1.085c.018-.047-.054-.047-.083-.047H50.97c-.106 0-.356.034-.414.141l-4.029 7.441-.577 1.067c-.025.046.06.047.082.047h6.843c.099 0 .567-.189.331-.189-2.257 0-4.513-.003-6.77 0-.12 0-.015.07.034.002.074-.1.125-.23.185-.34l.745-1.376 2.218-4.096 1.435-2.65-.414.142h4.813c.18 0 .38.025.558 0 .227-.031.051.018.066-.03-.234.756-.578 1.494-.863 2.231L53.73 6.487l-.938 2.424c-.026.067.45.028.496-.094"/>
        <path fill="#FFF" d="M66.725 8.864l.659-8.508h-5.527l-1.974 8.508h6.842"/>
        <path fill="#6A79A8" d="M66.976 8.826l.658-8.508c.006-.078-.087-.08-.146-.08H61.96c-.084 0-.329.047-.354.157l-1.975 8.507c-.017.078.098.081.147.081h6.842c.16 0 .545-.238.209-.238h-6.843l.146.08L62.108.319l-.355.157h5.526l-.146-.08-.658 8.507c-.013.163.49.061.5-.076"/>
        <path fill="#FFF" d="M80.41 8.864L78.436.356H72.91l.658 8.508h6.842"/>
        <path fill="#6A79A8" d="M80.663 8.797L78.688.289c-.013-.06-.105-.07-.152-.07h-5.527c-.108 0-.363.055-.351.204l.658 8.508c.004.06.113.07.152.07h6.843c.183 0 .538-.274.199-.274h-6.843l.153.07-.658-8.508-.352.204h5.527a68.288 68.288 0 0 1-.153-.07l1.974 8.508c.038.164.545.037.505-.134"/>
        <path fill="#FFF" d="M94.096 8.864L89.489.356h-5.527l3.291 8.508h6.843"/>
        <path fill="#6A79A8" d="M94.329 8.76l-4.03-7.44-.577-1.067c-.02-.037-.105-.057-.14-.057h-5.526c-.094 0-.408.067-.346.227l2.871 7.423.42 1.085c.024.063.094.093.159.093h6.843c.213 0 .526-.32.186-.32h-6.843l.16.093-2.872-7.423-.42-1.085-.345.228h4.952c.135 0 .369.042.5 0 .113-.038-.038-.105-.036-.004.004.225.345.638.45.832l.82 1.512a19521.97 19521.97 0 0 0 3.308 6.11c.09.167.577.001.466-.207"/>
        <path fill="#FFF" d="M107.781 8.864l-7.24-8.508h-5.526l5.923 8.508h6.843"/>
        <path fill="#6A79A8" d="M108.012 8.755l-4.614-5.422L101.021.54c-.153-.18-.226-.325-.465-.36-.434-.064-.926 0-1.362 0H95.04c-.126 0-.358.138-.255.286l4.334 6.226 1.117 1.603c.136.196.28.526.469.674.195.153.637.074.87.074h6.183c.283 0 .39-.356.047-.356h-6.842l.208.07-5.19-7.454-.733-1.054-.256.286h5.527l-.208-.069 6.326 7.434c.304.358.61.716.913 1.074.143.168.624-.028.463-.218"/>
        <path fill="#EA8571" d="M39.752.356h-5.526L25.67 8.864h6.843L39.752.356"/>
        <path fill="#F9AB98" d="M39.752.356H35.37l-8.555 8.508h5.698L39.752.356"/>
        <path fill="#6A79A8" d="M39.776.18H35.95c-.537 0-1.115-.061-1.65 0-.235.027-.342.165-.5.323a345484.418 345484.418 0 0 1-8.34 8.292c-.147.146.057.245.186.245h6.014c.31 0 .802.098 1.063-.108.19-.15.344-.404.499-.586l1.26-1.48 3.33-3.914 2.15-2.527c.203-.24-.278-.305-.42-.138l-4.964 5.835-1.385 1.626c-.255.3-.611.613-.81.954-.133.226.03-.085.128-.014-.073-.053-.393 0-.481 0h-6.336l.186.245 5.157-5.129L33.92.938c.041-.04.533-.46.515-.512.13.372-.398.03-.144.107.068.02.177 0 .247 0h5.191c.283 0 .391-.353.048-.353"/>
        <path fill="#F9AB98" d="M46.198 8.864L50.805.356h-5.527l-5.923 8.508h6.843"/>
        <path fill="#6A79A8" d="M46.439 8.892l4.029-7.441.578-1.067c.08-.15-.112-.21-.219-.21h-5.241c-.237 0-.394-.012-.562.172-.219.24-.387.556-.573.822l-1.08 1.551-2.611 3.752-1.616 2.32c-.11.16.029.254.188.254h6.843c.287 0 .388-.363.046-.363h-6.843l.188.255 5.19-7.454.733-1.054-.234.109h5.527l-.218-.21-4.03 7.441-.577 1.067c-.134.246.377.249.482.056"/>
        <path fill="#F9AB98" d="M59.883 8.864L61.857.356h-5.526l-3.29 8.508h6.842"/>
        <path fill="#6A79A8" d="M60.137 8.84L62.111.331c.02-.087-.092-.14-.162-.14h-5.526c-.104 0-.286.031-.33.146l-2.871 7.423-.42 1.085c-.04.103.034.182.146.182h6.843c.218 0 .524-.328.184-.328h-6.842l.146.182 2.87-7.423.42-1.085-.33.146h5.526l-.162-.14L59.63 8.89c-.05.218.462.149.508-.05"/>
        <path fill="#F9AB98" d="M73.568 8.864L72.91.356h-5.526l-.659 8.508h6.843"/>
        <path fill="#6A79A8" d="M73.82 8.797L73.162.289c-.008-.098-.16-.113-.23-.113h-5.525c-.105 0-.27.083-.279.2l-.658 8.508c-.01.129.131.16.232.16h6.843c.286 0 .389-.36.046-.36h-6.843l.233.16.658-8.507-.279.2h5.527l-.23-.114.659 8.508c.017.223.523.105.504-.134"/>
        <path fill="#F9AB98" d="M87.253 8.864L83.963.356h-5.527l1.974 8.508h6.843"/>
        <path fill="#6A79A8" d="M87.505 8.797l-2.87-7.423-.42-1.085c-.025-.063-.094-.095-.16-.095H78.53c-.114 0-.384.06-.345.23l1.974 8.507c.015.064.102.095.16.095h6.842c.217 0 .526-.324.186-.324h-6.843l.16.095L78.688.289l-.344.23h5.526l-.16-.096 2.871 7.423.42 1.085c.077.2.578.057.504-.134"/>
        <path fill="#F9AB98" d="M100.938 8.864L95.015.356H89.49l4.607 8.508h6.842"/>
        <path fill="#6A79A8" d="M101.19 8.797l-3.894-5.594L95.413.498C95.296.33 95.285.28 95.09.255c-.5-.068-1.06 0-1.563 0h-3.874c-.05 0-.469.071-.416.168l4.03 7.441c.191.356.384.711.576 1.067.017.03.06.034.089.034h6.842c.107 0 .571-.203.328-.203h-3.163c-1.193 0-2.416.08-3.607 0-.143-.01.048.09-.009-.01l-.184-.34-.745-1.377-2.218-4.097L89.74.29l-.416.169h5.136c.106 0 .276-.033.38 0-.142-.046-.041-.01.005.085.16.327.443.636.65.934l1.072 1.539 2.582 3.71 1.536 2.205c.085.121.543-.078.505-.134"/>
        <path fill="#F9AB98" d="M114.623 8.864L106.068.356h-5.526l7.24 8.508h6.841"/>
        <path fill="#6A79A8" d="M114.859 8.77l-5.23-5.2-2.9-2.884c-.133-.132-.3-.38-.48-.449-.326-.123-.892-.01-1.23-.01h-4.376c-.076 0-.449.092-.337.223l5.058 5.944 1.38 1.623c.234.273.47.665.756.887.168.131.388.088.603.088h6.418c.173 0 .542-.257.204-.257h-6.81c-.093 0 .11.061.09.023-.129-.245-.404-.475-.582-.685l-1.284-1.509-3.273-3.847-2.089-2.454-.337.222H105.253c.191 0 .438.042.625 0 .152-.035-.046-.084-.006.005.045.095.2.198.273.271l6.155 6.12 2.088 2.077c.113.112.588-.071.47-.188"/>
        <path fill="#6A79A8" d="M34.225.41h68.559c.933 0 1.866.015 2.799 0h.12c.222 0 .523-.335.183-.335H37.327c-.933 0-1.866-.014-2.799 0h-.12c-.222 0-.523.336-.183.336M25.593 9.04h85.328c1.152 0 2.31.032 3.463 0h.15c.28 0 .393-.35.05-.35H29.256c-1.153 0-2.31-.031-3.463 0-.05.002-.1 0-.15 0-.28 0-.394.35-.05.35"/>
        <path fill="#E5E5E5" d="M57.429 49.99h22.179V22.413h-22.18z"/>
        <path fill="#F9F9F9" d="M58.508 49.99h22.18V22.413h-22.18z"/>
        <g transform="translate(58.507 22.37)">
            <mask id="b" fill="#fff">
                <use xlink:href="#a"/>
            </mask>
            <path fill="#FFF" d="M-10.67 28.187l-3.33-3.3 35.004-34.7 3.33 3.301-35.005 34.7M-6.411 32.16l-1.665-1.65 35.004-34.7 1.666 1.651-35.005 34.7M-1.313 37.214L-4.12 34.43 30.885-.268l2.807 2.783-35.005 34.699" mask="url(#b)"/>
        </g>
        <path fill="#6A79A8" d="M68.086 34.191v3.57c0 .262.511.188.511-.038v-3.57c0-.262-.51-.188-.51.038M70.81 34.24v3.569c0 .119.505.036.505-.134v-3.57c0-.119-.505-.036-.505.134M69.925 48.5v-5.46c0-.119-.505-.036-.505.133v5.462c0 .118.505.036.505-.134M69.42 24.236v16.886c0 .142.505.052.505-.135V26.202v-2.1c0-.142-.505-.052-.505.134"/>
        <path fill="#6A79A8" d="M80.784 22.264H58.605c-.084 0-.35.047-.35.178V50.02c0 .085.078.12.157.12H80.59c.084 0 .35-.047.35-.178v-9.312V25.8v-3.417c0-.216-.506-.114-.506.06v27.576l.349-.177H58.605l.156.119v-9.312V25.8v-3.417l-.35.178h22.18c.198 0 .533-.297.193-.297"/>
        <path fill="#E5E5E5" d="M92.102 26.327c-4.165 0-7.541 3.347-7.541 7.475v8.296h15.081v-8.296c0-4.128-3.375-7.475-7.54-7.475"/>
        <path fill="#F9F9F9" d="M93.177 26.251c-4.164 0-7.54 3.347-7.54 7.475v8.296h15.082v-8.296c0-4.128-3.376-7.475-7.542-7.475"/>
        <g transform="translate(85.567 26.202)">
            <mask id="d" fill="#fff">
                <use xlink:href="#c"/>
            </mask>
            <path fill="#FFF" d="M-.166 16.589l-2.958-2.932L11.683-1.021l2.957 2.932L-.166 16.59M2.096 19.71l-1.48-1.466L15.425 3.567l1.478 1.466L2.096 19.71" mask="url(#d)"/>
        </g>
        <path fill="#6A79A8" d="M93.197 26.058c-3.742 0-7.064 2.743-7.706 6.402-.16.918-.11 1.87-.11 2.797V42.038c0 .132.12.177.236.177H100.7c.104 0 .277-.089.277-.21V35.65c0-.788.032-1.586-.013-2.374a7.612 7.612 0 0 0-2.175-4.9c-1.478-1.498-3.488-2.298-5.59-2.318-.297-.003-.381.383-.04.386 3.936.037 7.221 3.246 7.303 7.153.041 1.98.002 3.967.002 5.948v2.493l.275-.21H85.657c.078.06.157.118.236.177v-5.944c0-.776-.005-1.554 0-2.33.013-1.745.606-3.428 1.75-4.763a7.291 7.291 0 0 1 5.516-2.524c.294 0 .38-.386.038-.386"/>
        <path fill="#E5E5E5" d="M44.962 26.224c-4.165 0-7.54 3.346-7.54 7.475v8.295h15.081V33.7c0-4.129-3.376-7.475-7.54-7.475"/>
        <path fill="#F9F9F9" d="M46.038 26.251c-4.165 0-7.54 3.347-7.54 7.475v8.296h15.081v-8.296c0-4.128-3.376-7.475-7.54-7.475"/>
        <g transform="translate(38.448 26.202)">
            <mask id="f" fill="#fff">
                <use xlink:href="#e"/>
            </mask>
            <path fill="#FFF" d="M-1.074 14.83l-2.957-2.932L10.775-2.779 13.733.153-1.074 14.83M2.075 17.952L.597 16.486 15.403 1.808l1.48 1.466L2.074 17.952M4.249 20.385l-1.48-1.466L17.577 4.242l1.48 1.465L4.248 20.385" mask="url(#f)"/>
        </g>
        <path fill="#6A79A8" d="M46.201 26.148c-3.698 0-7.107 2.546-7.817 6.201-.179.923-.14 1.864-.14 2.799v6.94c0 .03.078.037.09.037h15.082c.091 0 .415-.037.415-.17v-6.266c0-.725.014-1.45-.001-2.175a7.506 7.506 0 0 0-2.08-5.014c-1.444-1.51-3.458-2.332-5.549-2.352-.109-.001-.571.204-.326.206 3.911.037 7.215 3.12 7.44 7.005.117 2.036.012 4.103.012 6.14v2.59l.415-.17H41.076c-.735 0-1.475-.027-2.21 0-.045.001-.139.017-.182 0-.009-.004.054.07.065-.024.039-.31 0-.649 0-.96v-6.968c0-1.606.376-3.136 1.295-4.478 1.305-1.906 3.493-3.135 5.83-3.135.11 0 .572-.206.327-.206"/>
        <path fill="#6A79A8" d="M53.672 33.933c-3.984 0-7.967.004-11.952.046l-3.13.034c-.213.002-.526.327-.186.324 3.99-.043 7.978-.08 11.968-.08h3.114c.214 0 .526-.324.186-.324M45.785 26.383v6.855c0 .221.506.121.506-.057v-6.855c0-.22-.506-.12-.506.057"/>
        <path fill="#D1D1D1" d="M132.1 38.04c-.017-.085-3.277.554-3.83.696-1.188.305-4.834.432-4.847.433-.05.002.013.273.02.304.06.286.138.564.216.839.12.428.248.85.379 1.271.166.538.337 1.071.51 1.603a161.828 161.828 0 0 0 1.288 3.792c.234.666.472 1.329.714 1.987.235.641.473 1.28.717 1.912.225.583.454 1.163.69 1.735.204.493.412.98.63 1.456.17.37.347.737.538 1.076.204.359.453.8.793.708.553-.151.56-1.137.675-1.802.162-.947.327-1.893.473-2.848.1-.65.187-1.308.273-1.965.087-.663.146-1.35.25-2.005 0-.013.003-.027.004-.04.235-1.983.405-3.986.49-6.02.035-.835.09-1.661.07-2.507a3.567 3.567 0 0 0-.053-.626"/>
        <path fill="#E5E5E5" d="M132.101 38.04c-.016-.085-3.087.544-3.608.684-1.12.3-4.238.415-4.234.437.178.862 2.18 6.97 2.4 7.62.49 1.466.981 2.93 1.478 4.391.452 1.334.916 2.658 1.374 3.987.128.371.267.724.56.685.239-.032.435-.356.49-.714.201-1.312.422-2.611.608-3.933.091-.65.172-1.307.25-1.965.08-.663.134-1.35.23-2.003l.003-.04a83.99 83.99 0 0 0 .444-6.018c.03-.834.08-1.66.059-2.506-.006-.206-.013-.425-.054-.626"/>
        <path fill="#D1D1D1" d="M129.342 39.862c-.711.073-1.451-.076-2.157-.15-.514-.098-1.062-.111-1.582-.165-.523-.055-1.046-.106-1.564-.205a46.917 46.917 0 0 1-2.266-.492c-.463-.11-.924-.223-1.384-.342-.05-.013-.066.265-.068.297-.025.292-.029.58-.032.866-.005.446-.002.888.004 1.329a147.133 147.133 0 0 0 .107 3.617 172.979 172.979 0 0 0 .226 4.187c.046.683.096 1.364.152 2.041a76.1 76.1 0 0 0 .178 1.864c.057.532.121 1.06.198 1.58.06.404.129.806.22 1.188.097.403.216.9.582.91.592.02.889-.922 1.197-1.524.44-.859.882-1.716 1.306-2.586.29-.594.57-1.197.847-1.8.213-.463.367-1.025.645-1.45.125-.193.312-.335.497-.467.188-.136.423-.114.652-.136a.313.313 0 0 0 .136-.035.31.31 0 0 0 .097-.12c.53-.938 1.11-1.86 1.533-2.855.356-.84.607-1.736.636-2.65.031-.98.104-1.965.152-2.947 0 .01-.148.028-.312.045"/>
        <path fill="#E5E5E5" d="M128.195 39.604c-.574.063-1.146.056-1.735.04-.89-.025-1.784-.153-2.655-.326-.176-.034-2.607-.51-2.602-.575-.075.877.129 7.313.155 8 .06 1.547.12 3.094.186 4.638.06 1.41.134 2.815.2 4.222.02.393.054.771.358.82.248.04.537-.212.697-.538.586-1.196 1.187-2.374 1.76-3.584.281-.596.554-1.2.826-1.806.415-.928.815-1.759 1.363-2.614.591-.92 1.15-1.861 1.706-2.802a7.73 7.73 0 0 0 .443-.818c.122-.276.217-.615.467-.809.084-.065.18-.11.268-.17.28-.188.447-.508.52-.835.11-.5.052-1.026.033-1.532a6.195 6.195 0 0 0-.088-.943c-.04-.197-.056-.458-.202-.612-.209-.219-.666.05-.911.108a6.297 6.297 0 0 1-.789.136"/>
        <path fill="#6A79A8" d="M126.155 48.641c.662 1.819 1.336 3.641 2.138 5.404.248.543.561 1.513 1.097 1.858.362.233.84.065 1.072-.27.344-.494.32-1.23.416-1.8.161-.951.328-1.9.47-2.854.282-1.893.517-3.8.701-5.705.214-2.228.31-4.434.253-6.67-.004-.174-.51-.072-.505.134.088 3.417-.263 6.774-.666 10.163-.2 1.671-.477 3.33-.76 4.988-.057.338-.09 1.703-.502 1.722-.283.014-.5-.547-.612-.756a17.3 17.3 0 0 1-.54-1.123c-.764-1.708-1.418-3.467-2.058-5.225-.069-.188-.57-.044-.504.134"/>
        <path fill="#6A79A8" d="M124.416 39.274a52.507 52.507 0 0 1-3.309-.735c-.412-.103-.967-.307-1.035.289-.155 1.348-.03 2.764.012 4.117.047 1.529.116 3.057.205 4.584.091 1.565.2 3.13.357 4.69.07.714.15 1.427.257 2.136.085.571.123 1.341.44 1.848.44.705 1.318.036 1.6-.443.272-.464.478-.977.723-1.456.382-.746.764-1.494 1.128-2.249.712-1.473 1.369-2.951 2.248-4.338.868-1.37 1.971-2.65 2.33-4.265.027-.116-.469-.042-.497.086-.232 1.036-.768 1.938-1.359 2.81-.598.883-1.193 1.762-1.71 2.694-.527.949-.955 1.944-1.423 2.92-.484 1.01-1.012 1.995-1.506 2.998-.163.331-.292.687-.498.995-.145.217-.335.42-.532.114-.124-.191-.168-.44-.22-.659-.245-1.027-.351-2.09-.458-3.139-.23-2.252-.369-4.515-.475-6.776a155.414 155.414 0 0 1-.131-3.625 75.541 75.541 0 0 1-.024-1.885c0-.27.002-.541.01-.812.004-.103-.037-.588.07-.682l-.436.116a53.08 53.08 0 0 0 3.82.865c.12.022.555-.172.413-.198"/>
        <path fill="#6A79A8" d="M123.071 40.885a2.494 2.494 0 0 1-1.286 1.37c-.312.144-.035.425.226.304a2.998 2.998 0 0 0 1.544-1.611c.107-.27-.399-.276-.484-.063"/>
        <path fill="#F2F2F2" d="M125.526 22.551l.139.011c.64.056 1.377.167 1.885.584.084.068.16.145.234.224.077.08.15.163.222.247.61.72.97 1.524 1.263 2.406.314.943.622 1.876.89 2.834.476 1.706.841 3.44 1.158 5.18.158.872.303 1.746.444 2.62.108.669.358 1.478.167 2.154-.196.693-2.786.914-3.334 1.007-2.921.5-5.836-.046-8.678-.774.025-.92.048-1.841.08-2.762.12-3.566.178-7.365 1.283-10.794.334-1.034.84-2.376 1.907-2.878.254-.12.535-.158.814-.15.265.008.516.057.783.062.247.004.495.011.743.029"/>
        <path fill="#FFF" d="M125.575 22.346c1.077.17 2.136.737 2.82 1.56.677.813 1.038 1.835 1.343 2.846.87 2.881 1.68 6.057 1.935 9.055.085 1 .188 2.002.255 3.004.06.908-5.367 1.306-6.702 1.25-1.625-.069-4.596-.84-4.596-.84.074-2.681.048-5.365.191-8.044.126-2.365.204-5.118 1.31-7.276.69-1.347 2.081-1.77 3.444-1.555"/>
        <path fill="#FFF" d="M120.723 18.748c-.414-3.438.778-6.405 2.662-6.628 1.884-.222 3.745 2.385 4.16 5.823l.072.616c.23 1.906.226 3.254.05 4.212-.236 1.297-1.242 2.098-2.365 2.677-.459.236-.99.368-1.497.267-.454-.09-.854-.36-1.175-.69-1.33-1.37-1.617-3.86-1.833-5.66-.017-.137-.065-.533-.074-.617"/>
        <path fill="#F2F2F2" d="M128.315 23.683c.006.015.006.032-.004.051-.026.05-.09.092-.13.137-.685.744-1.744 1.32-2.976 1.538-.727.13-1.421.074-2.056-.063a12.976 12.976 0 0 1-.923-.243c-.165-.049-.345-.078-.492-.148-.075-.036-.093-.055-.075-.125.012-.05.03-.121.092-.16.072-.043.233-.012.304.007.942.248 1.996.795 3.18.433.989-.302 1.888-.886 2.525-1.48.12-.112.34-.12.45-.035.04.03.09.053.105.088"/>
        <path fill="#6A79A8" d="M127.711 23.503c-.704.644-1.648 1.19-2.594 1.384-1.029.212-1.98-.204-2.96-.462-.214-.056-.595.254-.292.334 1.122.295 2.168.718 3.344.467 1.08-.232 2.118-.842 2.923-1.58.23-.209-.26-.291-.42-.143"/>
        <path fill="#BBDFF5" d="M127.466 12.229c-.032.46-.203.941-.177 1.389.037.51.203.992.215 1.498.015.568-.023 1.158-.005 1.735.005.145-.012.326-.148.381-.161.065-1.291-1.114-1.543-1.252-.226-.124-1.455-.565-1.502-.777l.132.476c-.218-.29-.672-.396-1.022-.24-.343.154-.415.484-.585.751-.39-.168-.778-.306-1.214-.363-.532-.069-1.076-.066-1.598-.17a3.705 3.705 0 0 1-2.052-1.175c-.25-.287-.41-.472-.698-.704-.297-.239-.66-.392-.718-.803.587-.152 1.45.066 2.068.12l-.91-1.165.61.03-.238-.586 1.403.541-.22-.92c.346.133.69.266 1.037.398.184-.318.369-.635.552-.953l.45.401.968-1.208.389.66.752-1.09c.387.14.487.755.834.838.328.079 1.25-.751 1.53-.938l-.554 1.2 1.359-.735-.234.555 1.07-.43-.74.929 1.47-.71c-.533.653-.625 1.495-.681 2.317"/>
        <path fill="#6A79A8" d="M127.87 22.973c.298-1.222.194-2.556.075-3.793-.14-1.452-.338-2.9-.928-4.25-.732-1.672-2.496-3.83-4.542-2.647-.91.527-1.426 1.535-1.72 2.501-.417 1.36-.431 2.798-.265 4.198.17 1.434.312 2.902.809 4.27.094.262.343.628.304.856-.041.226-.275.55-.363.784a17.816 17.816 0 0 0-.698 2.427c-.843 3.835-.772 7.848-.88 11.753-.002.067.038.102.102.119 2.48.63 5.032 1.131 7.605.928 1.382-.11 3.005-.302 4.283-.858.436-.19.777-.414.783-.915.008-.683-.182-1.387-.33-2.05-.402-1.8-.75-3.611-1.163-5.409a47.896 47.896 0 0 0-1.171-4.178c-.413-1.258-.84-2.448-1.754-3.441-.128-.14-.61.046-.467.203.75.815 1.183 1.77 1.529 2.807a53.096 53.096 0 0 1 1.032 3.406c.472 1.819.76 3.673 1.198 5.498.166.695.334 1.39.468 2.092.073.386.334 1.188.049 1.53-.352.422-1.31.52-1.814.624-.558.114-1.123.202-1.686.285-2.78.408-5.57-.13-8.258-.815l.101.119c.072-2.641.102-5.294.327-7.928.11-1.284.276-2.565.553-3.825.227-1.034.458-2.367 1.102-3.233a.098.098 0 0 0 .016-.08c-.811-1.59-.972-3.41-1.178-5.154-.203-1.72-.131-3.657.75-5.203.324-.567.812-1.157 1.488-1.3.657-.14 1.311.196 1.793.614 1.294 1.122 1.921 2.933 2.194 4.566.296 1.767.579 3.789.15 5.554-.05.203.461.13.506-.055"/>
        <path fill="#6A79A8" d="M121.726 21.919c.16.369.474.59.888.543.43-.05.734-.351.873-.74.068-.189-.442-.129-.506.053-.052.144-.164.376-.345.381-.196.007-.34-.22-.406-.371-.081-.19-.58-.042-.504.134"/>
        <path fill="#BBDFF5" d="M122.238 36.584l-.038-.036c-.024-.024-.063-.056-.105-.109a2.106 2.106 0 0 1-.326-.492 2.117 2.117 0 0 1-.217-.937 1.813 1.813 0 0 1 .115-.633c.023-.054.044-.112.072-.165l.064-.134.077-.147.078-.141c.21-.372.435-.733.506-1.064.036-.166.047-.325.023-.497l-.003-.032v-.004.01l-.002-.012-.003-.023-.015-.093-.029-.135a4.758 4.758 0 0 0-.085-.32l-.23-.732a4.426 4.426 0 0 1-.191-.916 2.625 2.625 0 0 1 .013-.575 1.91 1.91 0 0 1 .204-.624c.106-.198.246-.38.399-.521.151-.143.313-.261.472-.352.08-.05.161-.088.24-.125.08-.04.158-.07.238-.102l.058-.023.065-.023.049-.017.055-.019.132-.04.12-.033c.313-.084.607-.123.876-.164.268-.04.512-.075.73-.12l.08-.018.006-.001c.02-.007-.024.007-.017.005l.011-.003.024-.007.049-.013.095-.027.046-.014.032-.011.134-.045.147-.058c.386-.168.74-.4 1.036-.682.15-.137.287-.286.408-.44.065-.075.119-.156.176-.233.053-.08.106-.158.153-.239l.037-.06.017-.029.006-.007-.005.012.01-.021.069-.134.045-.097c.014-.033.027-.072.041-.108a1.997 1.997 0 0 0 .099-.864 3.021 3.021 0 0 0-.059-.371 3.803 3.803 0 0 0-.158-.527l-.072-.188.038.035c.025.024.065.056.11.104.093.096.23.238.372.452.142.212.29.498.371.872.04.186.057.394.046.615-.005.056-.006.11-.015.17l-.033.184-.033.147-.053.175a4.38 4.38 0 0 1-.68 1.32 4.252 4.252 0 0 1-1.496 1.25c-.07.036-.151.07-.228.103l-.059.025-.048.018-.093.035-.046.018-.023.009-.011.004-.036.011-.112.036a7.259 7.259 0 0 1-.85.202c-.267.051-.512.105-.73.165l-.079.023-.065.02-.042.016-.048.017-.024.01-.013.004-.006.002.01-.004-.036.016c-.048.021-.1.04-.141.064l-.066.033c-.022.01-.04.023-.06.034-.162.09-.25.18-.294.257a.533.533 0 0 0-.056.147c-.013.062-.02.14-.018.232.001.09.016.196.032.306.015.11.038.23.064.351.05.244.114.505.161.782a5.944 5.944 0 0 1 .079.665v.158l-.002.06c-.01.321-.08.647-.206.922a3.07 3.07 0 0 1-.436.696c-.156.189-.305.349-.442.496-.064.07-.127.14-.19.207-.054.067-.109.131-.16.195a1.267 1.267 0 0 0-.194.378 1.874 1.874 0 0 0-.08.403 2.419 2.419 0 0 0 .103.9c.018.062.037.11.048.142l.018.048"/>
        <path fill="#BBDFF5" d="M121.525 24.214l.07.095a3.585 3.585 0 0 0 .52.57c.131.112.282.226.453.33.17.106.358.202.556.277.049.02.1.033.15.05l.15.042.074.015.019.004.005.002h.002l-.015-.005.014.003.051.01.052.011c.017.004.037.008.046.008.023.001.046.004.07.007.21.023.442.026.685.007.243-.018.504-.057.781-.104l.427-.074c.137-.025.277-.048.407-.075.262-.05.501-.106.717-.177a3.293 3.293 0 0 0 .447-.184l.017-.008.003-.001-.013.01.005-.003.012-.007.041-.027.075-.045.054-.03c.019-.011.04-.027.06-.04.041-.027.077-.061.118-.09.076-.061.147-.128.213-.197a2.71 2.71 0 0 0 .54-.832c.028-.06.047-.117.066-.166a22.473 22.473 0 0 0 .08-.24 1.496 1.496 0 0 0 .11.236 1.98 1.98 0 0 1 .122.721 2.31 2.31 0 0 1-.123.717 2.459 2.459 0 0 1-.297.59c-.023.033-.044.065-.07.099-.03.034-.057.07-.087.104l-.072.086-.033.037-.008.01-.005.004c-.007.007.014-.01-.016.015l-.004.003-.023.021a3.09 3.09 0 0 1-.613.462c-.3.174-.622.302-.941.396a9.338 9.338 0 0 1-.944.216c-.323.054-.668.09-1.023.08a3.544 3.544 0 0 1-1.059-.183l-.137-.049c-.025-.009-.038-.015-.054-.023l-.048-.022-.048-.022-.013-.005c-.008-.004.016.005-.02-.008l-.003-.002-.008-.003-.03-.015-.116-.061a2.94 2.94 0 0 1-.997-.922 2.754 2.754 0 0 1-.314-.639 2.223 2.223 0 0 1-.104-.526c-.008-.071-.005-.141-.004-.197-.001-.057.006-.103.011-.14l.02-.116"/>
        <path fill="#6A79A8" d="M112.248 30.05c.21.132.093.593.203.82.103.21.295.389.475.531.535.424 1.215.656 1.867.835 1.219.335 2.464.48 3.724.332 2.402-.282 4.624-1.509 6.184-3.33.197-.23-.29-.242-.41-.101-1.466 1.713-3.521 2.89-5.79 3.137-1.187.13-2.354-.03-3.498-.354-.639-.182-1.351-.426-1.826-.913-.273-.28-.245-.461-.291-.813-.027-.213-.065-.29-.24-.4-.153-.094-.614.122-.398.256"/>
        <path fill="#F9E280" d="M8.864 38.947c-.17.6-.29 1.213-.374 1.83-.183 1.338-.17 2.694-.25 4.04a59.596 59.596 0 0 1-.292 3.272c-.065.569-.137 1.136-.205 1.704-.063.523-.203 1.092-.194 1.618-.13 1.085-.34 2.195-.315 3.29.005.206-.006.55.174.698.59.484 1.831-2.57 1.967-2.87.17-.374.329-.754.504-1.127a64.742 64.742 0 0 0 1.646-3.805c.254-.643.475-1.3.73-1.941.182-.457.561-1.487 1.157-1.482.56.005.756.863.934 1.276.947 2.194 1.59 4.474 2.228 6.77.244.875.485 1.752.766 2.617.186.572.369 1.203.709 1.71.083.124.212.314.386.306.959-.043.211-5.495.319-9.363.078-2.784.078-5.372.076-8.157l-9.966-.386"/>
        <path fill="#FFF0A9" d="M18.17 47.49c.043-1.596.06-3.128.068-4.669-1.505.48-3.102.61-4.671.607-1.016 0-2.012-.11-3.023-.187-.785-.06-1.543-.147-2.274-.425-.028.667-.044 1.335-.081 2a62.568 62.568 0 0 1-.277 3.273c-.062.569-.13 1.136-.195 1.704-.06.523-.193 1.092-.184 1.618-.124 1.085-.323 2.195-.3 3.29.01.372.223.659.48.24.297-.48.525-1.081.755-1.6.306-.692.619-1.381.937-2.068.955-2.06 1.745-4.185 2.76-6.223.281-.562.663-.874 1.302-.864.19.003.364.121.479.272.114.15.18.33.246.508.55 1.511 1.116 3.011 1.577 4.553l.847 2.834c.243.814.394 1.761.757 2.522.12.251.24.504.324.768.081.256.132.528.284.75.03.044.075.09.128.084.275-.036.226-1.423.228-1.624.007-.73-.019-1.462-.047-2.192-.065-1.722-.165-3.447-.12-5.17"/>
        <path fill="#6A79A8" d="M8.612 38.98c-.617 2.253-.512 4.587-.695 6.894-.179 2.248-.477 4.493-.774 6.726-.073.548-.139 1.098-.157 1.65-.01.312-.06.738.06 1.04.184.466.725.288 1.034.042.577-.46.876-1.346 1.172-1.994.435-.953.861-1.91 1.293-2.865.486-1.074.95-2.16 1.367-3.261.308-.812.538-1.723 1-2.468.128-.205.299-.488.573-.36.161.075.27.309.339.452.176.366.308.763.463 1.14a38.63 38.63 0 0 1 1.155 3.265c.662 2.142 1.13 4.36 1.913 6.462.184.495.521 1.497 1.232 1.198.655-.276.587-1.348.595-1.914.035-2.648-.233-5.287-.165-7.936.066-2.595.067-5.19.065-7.785 0-.146-.504-.055-.504.134.002 4.389-.132 8.77.047 13.156.046 1.134.154 2.328-.009 3.455-.01.07-.083.619-.181.624-.112.006-.338-.508-.38-.594-.198-.405-.325-.844-.462-1.271-.66-2.061-1.162-4.168-1.825-6.229a45.918 45.918 0 0 0-1.17-3.158c-.186-.46-.337-1.179-.9-1.322-1.265-.321-1.771 1.81-2.06 2.598-.729 1.983-1.617 3.894-2.479 5.823-.359.803-.677 1.69-1.175 2.423-.053.077-.26.414-.375.369-.087-.034-.103-.317-.111-.396-.052-.484-.003-.987.045-1.47.231-2.368.624-4.716.834-7.088.22-2.47.078-4.993.739-7.406.047-.17-.459-.099-.504.066"/>
        <path fill="#F2F2F2" d="M6.237 41.013c3.601.697 7.378 1.525 11.069 1.16.95-.093 2.49-.27 2.97-1.243.075-.153-.78-.087-.899.152-.378.768-1.712.728-2.434.757-.774.03-1.55-.003-2.324-.027-1.96-.064-3.934-.486-5.858-.831-.594-.107-1.189-.216-1.782-.33-.203-.04-.456.009-.636.11-.068.038-.32.21-.106.252"/>
        <path fill="#F2F2F2" d="M20.27 41.837c.137-.05.275-.1.413-.147.237-.08.549-.134.712-.355.175-.237.041-.745.02-1.017-.031-.417-.069-.833-.113-1.249a70.762 70.762 0 0 0-1.002-6.66 40.593 40.593 0 0 0-.299-1.36c-.565-2.366-2.053-8.748-6.322-7.08-3.199 1.25-5.197 7.154-6.41 12.979-.407 1.947-.777 3.077-1.023 4.83-.013.093 4.903.927 5.257.983 2.021.316 4.084.285 6.095-.136a18.466 18.466 0 0 0 2.09-.58c.195-.066.388-.137.582-.208"/>
        <path fill="#FFF" d="M19.524 41.414c.13-.05.26-.099.39-.145.224-.078.52-.133.674-.349.166-.232.04-.73.021-.995a43.76 43.76 0 0 0-.104-1.222 71.417 71.417 0 0 0-.933-6.515c-.087-.445-.18-.889-.28-1.33a31.844 31.844 0 0 0-.66-2.526c-.148-.466-.452-.977-.534-1.452-.088-.509.043-.924-.238-1.418a2.312 2.312 0 0 0-.888-.857c-1.217-.68-2.232-1.237-3.64-.665-3.027 1.23-4.927 7.013-6.086 12.715-.388 1.906-.74 3.013-.976 4.729-.013.091 4.632.898 4.966.951 1.91.305 3.86.271 5.76-.145a17.027 17.027 0 0 0 1.977-.572c.185-.064.368-.135.55-.204"/>
        <path fill="#6A79A8" d="M20.375 41.96c.38-.139.963-.222 1.226-.57.243-.32.105-.775.067-1.139-.149-1.402-.278-2.803-.478-4.2-.308-2.15-.702-4.295-1.268-6.395-.629-2.336-1.85-6.176-4.892-6.12-1.624.03-2.95 1.077-3.889 2.306-1.322 1.731-2.124 3.843-2.78 5.896-.784 2.458-1.27 4.986-1.863 7.492-.135.569-.264 1.14-.368 1.715-.046.252-.273.794-.059.98.084.072.283.082.384.104.29.065.582.12.873.174 1.35.256 2.706.5 4.064.714 3.057.481 6.09.1 8.983-.958.327-.12.034-.334-.21-.244-2.569.939-5.256 1.302-7.98.968-1.088-.133-2.274-.366-3.404-.569-.59-.105-1.18-.211-1.767-.331-.124-.026-.39-.03-.49-.109-.154-.12-.005.125.001-.101.008-.277.091-.57.143-.842.204-1.085.49-2.152.73-3.23.252-1.141.49-2.285.783-3.418.557-2.154 1.23-4.313 2.252-6.3.733-1.426 1.74-3.036 3.302-3.672 3.075-1.253 4.697 2.45 5.411 4.74.547 1.753.918 3.568 1.23 5.375.248 1.433.448 2.875.61 4.32.073.65.115 1.302.19 1.951.04.356.167.705-.214.946-.202.128-.569.189-.797.272-.328.119-.034.333.21.244"/>
        <path fill="#FFF0A9" d="M12.009 24.596c.309-.242.576.28.697.488.238.41.586.719.932 1.04.505.47 1.067.88 1.685 1.191.268.136.694.399 1 .407.161.004.44-.22.578-.34.32-.276.584-.617.763-.999.09-.195.16-.4.203-.612.037-.182-.004-.453.07-.617.218-.474.388.509.379.656a3.471 3.471 0 0 1-.328 1.223 5.438 5.438 0 0 1-.834 1.295c.009-.01-.658-.356-.702-.378-.028-.014-.291.67-.315.73-1.587-.443-3.424-1.46-4.14-3.017-.126-.275-.282-.837.012-1.067"/>
        <path fill="#FFF" d="M17.461 25.165c-.371.625-.886 1.173-1.61 1.176-.522.003-1.023-.226-1.44-.536-.92-.684-1.49-1.751-1.774-2.855a12.144 12.144 0 0 1-.356-3.927c.07-.902.252-1.788.563-2.615.491-1.306 1.582-3.218 3.257-3.062 1.81.17 3.022 2.984 2.708 6.287l-.057.592c-.174 1.83-.452 3.092-.812 3.955a7.807 7.807 0 0 1-.479.985"/>
        <path fill="#F9AB98" d="M10.879 19c-1.249-1.833-.854-4.223.77-5.706.474-.432.9-.741.728-1.452-.191-.79-1.111-1.18-1.887-1.167-.745.013-1.459.362-2.003.866-.543.505-.93 1.157-1.219 1.837a8.455 8.455 0 0 0-.509 4.922c-.326-.687-.6-1.4-.8-2.134-.466-1.72-.691-3.57-.439-5.344.21-1.472.698-3.141 1.794-4.21 1.739-1.696 4.874-1.512 6.47.292.461.521.747 1.235.692 1.934-.055.703-.534 1.478-.14 2.168.174.307.498.509.839.611.704.213 1.375.324 2.053.656.697.34 1.372.767 1.903 1.336.444.475 1.087 1.392.95 2.083-.241 1.223-2.291 1.769-3.332 1.653-1.278-.142-2.51-.356-3.574.542a4.058 4.058 0 0 0-.856 1.001c-.07.117-.59 1.063-.465 1.16a4.635 4.635 0 0 1-.975-1.047"/>
        <path fill="#6A79A8" d="M13.62 24.602c-1.06-1.724-1.275-4.028-1.051-6 .18-1.576.734-3.4 1.936-4.526 1.286-1.205 2.684-.318 3.353 1.005.756 1.492.828 3.23.673 4.86-.168 1.766-.397 3.533-1.243 5.121-.066.124.424.081.503-.068.865-1.624 1.085-3.434 1.254-5.238.162-1.733.054-3.645-.884-5.17-.702-1.141-1.928-1.722-3.218-1.143-1.414.633-2.197 2.324-2.586 3.722-.66 2.366-.554 5.435.759 7.571.096.156.576-.018.505-.134M16.547 25.94a1.12 1.12 0 0 1-.701.226c-.117-.004-.275.033-.33.15-.05.106.044.193.15.196.444.016.849-.106 1.21-.361.087-.061.129-.174.032-.245-.1-.073-.27-.03-.361.034"/>
        <path fill="#6A79A8" d="M16.816 22.609c-.105.249-.305.457-.55.574-.343.164-.748.158-1.04-.096a1.037 1.037 0 0 1-.343-.656.824.824 0 0 1 .005-.23c.099.168.268.33.467.41.382.152 1.014.33 1.364.027.025-.021.049-.045.08-.053l.017.024M19.283 29.282c1.5 1.646 3.443 2.814 5.628 3.297a16.13 16.13 0 0 0 3.138.356c.312.007.733.068 1.019-.104a.55.55 0 0 0 .188-.188c.07-.11.109-.249.15-.373.065-.198-.03-.138.137-.101.123.027.564-.169.412-.202-.251-.055-.505-.092-.75.007-.35.141-.202.544-.46.73-.127.093-.645.008-.799.002a17.785 17.785 0 0 1-.775-.05 14.43 14.43 0 0 1-1.763-.26c-2.198-.471-4.144-1.635-5.65-3.288-.09-.098-.563.078-.475.174"/>
        <path fill="#FFF" d="M11.478 29.991c.154-.223.246-.534.24-.876-.011-.67-.394-1.206-.855-1.198-.461.008-.825.557-.814 1.226.006.335.104.636.26.853l1.17-.005"/>
        <path fill="#6A79A8" d="M11.711 29.989c.446-.727.307-2.317-.855-2.192-1.1.119-1.28 1.52-.783 2.293.08.124.57-.031.47-.188-.2-.311-.276-.689-.228-1.055.04-.305.232-.947.673-.719.618.32.555 1.38.258 1.866-.112.182.387.122.465-.005"/>
        <path fill="#6A79A8" d="M10.573 29.182c-.05 1.462-.244 2.818.937 3.913.134.124.61-.067.467-.2-1.139-1.055-.948-2.362-.899-3.772.007-.214-.5-.116-.505.06M17.704 25.609c-.088.86-.628 1.667-1.372 2.122l.323-.06c-.544-.202-1.116-.39-1.628-.663a5.885 5.885 0 0 1-2.355-2.37c-.046-.087-.405.05-.379.1.504.946 1.302 1.75 2.222 2.305.28.168.585.286.886.408.27.107.577.28.864.332.286.053.496-.13.707-.306.607-.506 1.03-1.179 1.11-1.97.005-.039-.367-.006-.378.102"/>
        <path fill="#6A79A8" d="M16.157 27.97l-.261.681.387-.14c-.975-.292-1.894-.742-2.68-1.39a5.74 5.74 0 0 1-.949-.99c-.123-.165-.901-1.42-.344-1.42.289 0 .388-.368.045-.367-.464 0-.737.31-.733.763.005.587.48 1.167.848 1.586.925 1.051 2.185 1.755 3.521 2.155.124.037.334-.002.387-.14l.262-.68c.103-.268-.403-.266-.483-.057"/>
        <path fill="#6A79A8" d="M16.188 28.062c.236.134.494.22.729.353.112.064.384-.005.466-.103.73-.866 1.499-2.167 1.063-3.324-.047-.124-.545.029-.505.134.42 1.115-.31 2.384-1.016 3.223l.467-.103c-.235-.133-.494-.22-.729-.353-.128-.073-.547.132-.475.173"/>
        <path fill="#F2F2F2" d="M14.79 37.841L6.075 32.56l-6.07 9.842 8.715 5.282 6.07-9.843"/>
        <path fill="#DDD" d="M7.86 35.125c.609-.99 1.186-2.071 2.022-2.896.419-.412.892-.72 1.507-.619.542.09 1.075.405 1.487.756 1.816 1.545-.233 4.04-1.138 5.503-.026.042.421.028.496-.093.687-1.11 1.609-2.295 1.846-3.606.223-1.23-.655-2.155-1.754-2.592-2.452-.973-3.946 1.989-4.963 3.64-.026.042.422.028.496-.093"/>
        <path fill="#DDD" d="M11.42 37.95c-.089.161 0 .342.175.39.137.038.3.003.431-.044.11-.039.223-.096.286-.197.097-.157-.005-.346-.175-.39-.128-.034-.273-.005-.397.033a.57.57 0 0 0-.32.208c-.05.074.183.05.202.046.095-.018.237-.049.296-.135a.156.156 0 0 1 .015-.022.31.31 0 0 1-.23.057l.02.005c.03.02.062.034.084.065a.204.204 0 0 1-.007.244l.226-.058c.01.002.005 0-.016-.004-.03-.024-.061-.032-.084-.065a.205.205 0 0 1-.008-.222c.044-.079-.177-.05-.201-.046-.087.016-.248.047-.296.135M7.05 35.228c-.11.198-.019.423.188.508a.58.58 0 0 0 .686-.223c.115-.196.015-.425-.187-.508-.248-.103-.541.01-.686.223-.07.102.06.19.15.196a.36.36 0 0 0 .33-.15c-.013.018-.033.025-.005.01-.026.014-.05.028-.08.031a.075.075 0 0 1-.034-.001c-.015-.004-.012-.003.01.004-.025-.026.018.025.002.003.042.057.049.086.02.146.007-.015.042-.03.005-.01.025-.014.048-.028.079-.03l.025-.002c.025.007.024.006-.001-.002.02.022-.018-.022-.001-.003-.044-.05-.05-.094-.02-.146.058-.105-.053-.188-.15-.195-.121-.009-.268.038-.33.15"/>
        <path fill="#DDD" d="M15.492 36.91l-8.856-3.714-4.268 10.001 8.856 3.714 4.268-10.001"/>
        <path fill="#C9C9C9" d="M8.685 35.38c.427-1.003.81-2.089 1.474-2.967.276-.365.635-.731 1.108-.808.557-.09 1.191.173 1.653.46 1.897 1.18.343 3.769-.292 5.25-.056.132.438.08.502-.071.48-1.12 1.15-2.325 1.21-3.566.055-1.157-.783-1.883-1.837-2.208-2.558-.79-3.555 2.183-4.32 3.981-.057.132.437.08.502-.072"/>
        <path fill="#C9C9C9" d="M12.344 37.432c-.07.19.07.358.255.398.225.048.541-.057.64-.276.083-.183-.04-.364-.224-.41-.22-.056-.548.036-.654.252-.104.213.398.155.47.009.022-.046.026-.037-.017-.02a.208.208 0 0 1-.134.021c.003.005.017.007.022.011.052.05.06.095.05.164-.003.015-.016.014-.007.018 0 0 .116-.033.091-.028-.046.009.07-.022.076-.009 0-.002-.025-.015-.03-.018-.055-.045-.056-.115-.034-.176.04-.106-.16-.113-.217-.105-.104.016-.247.06-.287.169M7.894 35.566c-.07.19.069.359.255.397.232.047.556-.061.65-.294.074-.188-.073-.359-.255-.396-.247-.05-.54.066-.65.293-.018.036.025.074.051.088a.312.312 0 0 0 .166.016c.113-.017.235-.061.287-.168 0 .002.007-.006.007-.007.022-.018.008-.01-.041.023l-.117.024c-.012.009-.022-.017-.007.002.005.006.02.015.027.021.05.048.045.109.027.169-.001.005.001.002.002 0-.024.018-.021.018.008-.002a.217.217 0 0 1 .14-.038s.017 0 .019.002c.013.018-.034-.021-.03-.018-.055-.045-.057-.115-.035-.176.04-.106-.16-.112-.216-.104-.104.016-.248.06-.288.168"/>
        <path fill="#F9AB98" d="M15.601 35.037l-8.589-.363-.417 9.7 8.59.362.416-9.7"/>
        <path fill="#EA8571" d="M9.474 35.957c.04-.964.019-1.983.287-2.918.27-.944.931-1.375 1.922-1.277 2.144.214 1.657 2.913 1.59 4.413-.011.263.502.193.512-.036.049-1.101.245-2.366-.124-3.433-.313-.908-1.113-1.291-2.04-1.327-.921-.036-1.767.3-2.178 1.156-.5 1.04-.434 2.337-.48 3.458-.012.263.501.193.51-.036"/>
        <path fill="#EA8571" d="M13.076 36.368c.002.232.191.356.415.35.209-.005.466-.149.482-.378.015-.214-.183-.35-.383-.35-.224 0-.49.133-.514.378-.024.244.489.168.51-.044a.338.338 0 0 1 .005-.041c-.003.014-.016.015-.003.01l-.04.02c-.046.022-.073.019-.122.016.016 0 .023.013.007.002-.017-.013.01.008.015.015.003.005.015.03.015.038.001.014-.003.028-.006.041.002-.006.003-.013.01-.017-.052.025.04-.017.034-.014.041-.019.05-.016.092-.017.036.005.04.004.01-.004l.012.004c.014.01-.004 0-.008-.008-.009-.013-.022-.03-.022-.045-.001-.119-.123-.162-.23-.15-.09.01-.28.073-.28.194M8.76 36.184c.005.511.866.44.898-.024.014-.217-.183-.356-.385-.358-.227-.002-.49.136-.513.382-.025.25.489.179.51-.04 0-.009-.003-.03-.002-.015.01-.02.012-.024.004-.013l.002-.002c.009-.01.009-.01 0 0a.063.063 0 0 1-.04.023.162.162 0 0 1-.085.022c-.007 0-.024-.008-.03-.007l.016.011c-.01-.008-.01-.007-.002.003.018.026-.007-.018.007.01.001.004.01.038.007.024.001.006.005.03.003.014 0 .004-.003.033 0 .008a.252.252 0 0 0-.006.007.063.063 0 0 1 .04-.022.161.161 0 0 1 .073-.022c.012 0 .032.009.042.007-.01.002-.02-.023-.008-.006-.009-.013-.02-.032-.02-.043-.002-.12-.123-.169-.232-.157-.094.01-.28.075-.28.198"/>
        <path fill="#6A79A8" d="M11.51 33.098c1.235 1.048 2.809 1.303 4.325.753.648-.235 1.299-.602 1.727-1.15.204-.262.346-.573.346-.91-.001-.49-.59-.94-.077-1.37.228-.19-.269-.229-.412-.109-.202.169-.32.377-.318.643.004.287.186.432.268.691.237.754-.584 1.4-1.161 1.707-1.41.749-3.017.57-4.232-.46-.15-.128-.623.071-.466.205"/>
    </g>
</svg>
