<svg width="40" height="40" viewBox="0 0 40 40" fill="none" xmlns="http://www.w3.org/2000/svg">
    <circle cx="20" cy="20" r="20" fill="#EAFAF3"/>
    <path d="M28.219 14.563H25.25v-.594c0-.356-.238-.594-.594-.594h-8.312c-.357 0-.594.238-.594.594v.594h-2.969c-.356 0-.594.237-.594.593v1.603a4.845 4.845 0 0 0 4.632 4.87c.475.652 1.128 1.127 1.9 1.424v1.603h-.594a1.75 1.75 0 0 0-1.781 1.782v1.78c0 .357.237.595.593.595h7.125c.357 0 .594-.238.594-.594v-1.782a1.75 1.75 0 0 0-1.781-1.78h-.594v-1.544c.772-.297 1.425-.832 1.9-1.425 2.553-.179 4.631-2.257 4.631-4.87v-1.662c0-.356-.237-.594-.593-.594zm-14.844 2.196V15.75h2.375v2.969c0 .593.119 1.128.297 1.603-1.544-.416-2.672-1.84-2.672-3.563zm14.25 0c0 1.663-1.128 3.088-2.672 3.563.178-.475.297-1.01.297-1.603V15.75h2.375v1.01z" fill="#2DCA8C"/>
</svg>
