<svg xmlns="http://www.w3.org/2000/svg" width="20" height="19" viewBox="0 0 20 19">
    <g fill="#279EFE" fill-rule="evenodd">
        <path fill-rule="nonzero" d="M18.593 10.058v7.51H4.132v-7.51h14.461zm1.23-1.226H2.902v9.963h16.923V8.832z"/>
        <g transform="translate(2.773 8.734)">
            <path d="M12.436.098l1.732 1.726c-.013.064-.039.123-.039.19 0 .55.447.994.999.994.068 0 .126-.025.19-.037l1.733 1.726V.098h-4.615z"/>
            <ellipse cx="13.589" cy="5.08" rx="1" ry="1"/>
            <ellipse cx="8.589" cy="5.08" rx="3.02" ry="2.617"/>
            <ellipse cx="3.589" cy="5.08" rx="1" ry="1"/>
            <path d="M.128 4.697L1.86 2.97c.064.013.123.038.191.038a.996.996 0 0 0 .998-.995c0-.067-.026-.126-.039-.19L4.743.099H.128v4.599zM3.05 8.145a.996.996 0 0 0-.999-.994c-.068 0-.126.026-.19.038L.128 5.463v4.599h4.615L3.011 8.336c.013-.064.038-.124.038-.19zM15.128 7.15a.996.996 0 0 0-.998.995c0 .068.026.126.039.19l-1.733 1.727h4.615V5.463l-1.732 1.726c-.064-.013-.123-.038-.191-.038z"/>
        </g>
        <g>
            <ellipse cx="14.21" cy="6.055" rx="1" ry="1"/>
            <path d="M1.747 8.832c0-.635.517-1.15 1.154-1.15h.63l.029-.098 8.905-4.86.681.199c.02.06.026.125.06.184a1 1 0 0 0 1.355.395c.058-.032.098-.082.147-.124l.682.2 1.552 2.821-.2.68c-.06.018-.125.024-.184.057a.987.987 0 0 0-.455.546h2.947l-1.99-3.62h.002L14.844.03l-4.05 2.21h.001l-6.747 3.68L0 8.13l1.747 3.177V8.832z"/>
            <path d="M8.562 6.154A3.247 3.247 0 0 0 7.14 7.682h5.564a2.269 2.269 0 0 0-.23-.678c-.698-1.268-2.448-1.648-3.91-.85z"/>
        </g>
    </g>
</svg>
