<svg width="13" height="12" viewBox="0 0 13 12" fill="none" xmlns="http://www.w3.org/2000/svg">
    <path fill-rule="evenodd" clip-rule="evenodd" d="m10.232 6.79-4.107 3.868a.743.743 0 0 0-.252.553c0 .208.091.408.252.552a.836.836 0 0 0 .587.237.836.836 0 0 0 .587-.237l5.449-5.131a.917.917 0 0 0 0-1.264L7.298.237A.835.835 0 0 0 6.71 0a.835.835 0 0 0-.587.237.743.743 0 0 0-.252.552c0 .21.091.409.252.553l4.108 3.868H.84a.82.82 0 0 0-.608.217.722.722 0 0 0-.23.573.722.722 0 0 0 .23.572.82.82 0 0 0 .608.217h9.392z" fill="#377DFF"/>
</svg>
