<svg width="13" height="12" viewBox="0 0 13 12" fill="none" xmlns="http://www.w3.org/2000/svg">
<g clip-path="url(#clip0_488_19)">
<path fill-rule="evenodd" clip-rule="evenodd" d="M10.232 6.79002L6.12501 10.658C6.0464 10.7272 5.98331 10.8123 5.93988 10.9076C5.89645 11.0029 5.87366 11.1063 5.87301 11.211C5.87301 11.419 5.96401 11.619 6.12501 11.763C6.28204 11.9159 6.49284 12.001 6.71201 12C6.93117 12.001 7.14197 11.9159 7.29901 11.763L12.748 6.63202C12.9102 6.46155 13.0006 6.23528 13.0006 6.00002C13.0006 5.76475 12.9102 5.53848 12.748 5.36802L7.29801 0.237016C7.14078 0.0837893 6.92954 -0.00135436 6.71001 1.62958e-05C6.49082 -0.0010912 6.27998 0.0840331 6.12301 0.237016C6.04452 0.306113 5.98151 0.390997 5.93809 0.486118C5.89466 0.581239 5.8718 0.684455 5.87101 0.789016C5.87101 0.999016 5.96201 1.19802 6.12301 1.34202L10.231 5.21002H0.840006C0.729253 5.20317 0.618261 5.21887 0.513753 5.25617C0.409245 5.29347 0.313394 5.35159 0.232006 5.42702C0.153687 5.49958 0.0924362 5.58861 0.0526649 5.68769C0.0128935 5.78677 -0.00440816 5.89344 0.00200612 6.00002C-0.00425784 6.10643 0.0131173 6.2129 0.0528839 6.3118C0.0926505 6.4107 0.153822 6.49956 0.232006 6.57202C0.313394 6.64744 0.409245 6.70557 0.513753 6.74287C0.618261 6.78017 0.729253 6.79587 0.840006 6.78902H10.232V6.79002Z" fill="white"/>
</g>
<defs>
<clipPath id="clip0_488_19">
<rect width="13" height="12" fill="white"/>
</clipPath>
</defs>
</svg>
