<svg width="40" height="40" viewBox="0 0 40 40" fill="none" xmlns="http://www.w3.org/2000/svg">
    <circle cx="20" cy="20" r="20" fill="#FFE3DE"/>
    <path opacity=".3" fill-rule="evenodd" clip-rule="evenodd" d="M17.956 15.865a1.336 1.336 0 0 1 0 2.671h-4.45a1.335 1.335 0 1 1 0-2.67h4.45zm8.015 7.123a1.336 1.336 0 0 1 0 2.67h-4.45a1.335 1.335 0 0 1 0-2.67h4.45z" fill="#FF715B"/>
    <path fill-rule="evenodd" clip-rule="evenodd" d="M21.964 16.755a2.67 2.67 0 1 1 2.67 2.671 2.671 2.671 0 0 1-2.67-2.671zm-9.793 7.122a2.67 2.67 0 1 1 2.67 2.671 2.671 2.671 0 0 1-2.67-2.67z" fill="#FF715B"/>
    <circle cx="20" cy="20" r="20" fill="#FFE3DE"/>
    <path d="M20.784 28.454V13.91h.932v14.545h-.932zm2.688-9.892c-.053-.496-.277-.882-.67-1.159-.391-.276-.899-.414-1.524-.414-.439 0-.816.066-1.13.198-.315.133-.555.313-.722.54a1.312 1.312 0 0 0-.255.779c0 .242.054.452.164.63.114.178.267.33.46.455.194.121.408.223.642.307.235.083.472.153.71.21l1.092.273c.439.102.861.24 1.267.415.409.174.774.393 1.096.659.326.265.584.585.773.96.19.375.284.814.284 1.318 0 .682-.174 1.282-.523 1.801-.348.515-.852.919-1.511 1.21-.655.288-1.449.432-2.38.432-.906 0-1.692-.14-2.359-.42-.662-.28-1.181-.69-1.556-1.228-.372-.537-.572-1.193-.603-1.965h2.074c.03.405.155.742.375 1.01.22.27.506.47.858.603.356.133.754.199 1.193.199.459 0 .86-.068 1.205-.204.348-.14.621-.334.818-.58a1.4 1.4 0 0 0 .301-.875c-.004-.303-.093-.553-.267-.75-.174-.2-.418-.367-.733-.5a7.051 7.051 0 0 0-1.09-.364l-1.325-.34c-.958-.247-1.715-.62-2.272-1.12-.553-.504-.83-1.172-.83-2.006 0-.685.186-1.286.557-1.8.375-.516.884-.915 1.528-1.2.644-.287 1.373-.431 2.188-.431.826 0 1.55.143 2.17.431.625.285 1.116.68 1.472 1.188.356.504.54 1.083.551 1.738h-2.028z" fill="#FF715B"/>
</svg>
