<svg width="40" height="40" viewBox="0 0 40 40" fill="none" xmlns="http://www.w3.org/2000/svg">
    <circle cx="20" cy="20" r="20" fill="#FFF2D8"/>
    <circle cx="19.615" cy="18.949" r="6.115" transform="rotate(-33 19.615 18.949)" fill="#FFE2A7" stroke="#FFE2A7"/>
    <rect x="23.127" y="25.209" width="3.333" height="6" rx="1.667" transform="rotate(-39 23.127 25.209)" fill="#FFBE3D"/>
    <path d="m12.225 21.588-1.039-3.818h1.071l.592 2.565h.035l.616-2.565h1.052l.626 2.55h.032l.582-2.55h1.07l-1.037 3.818h-1.122l-.656-2.401H14l-.656 2.4h-1.119zm5.954 0L17.14 17.77h1.072l.591 2.565h.035l.616-2.565h1.052l.626 2.55h.033l.581-2.55h1.07l-1.037 3.818h-1.122l-.656-2.401h-.047l-.656 2.4h-1.119zm5.954 0-1.039-3.818h1.072l.591 2.565h.035l.616-2.565h1.052l.626 2.55h.033l.581-2.55h1.07l-1.037 3.818h-1.121l-.657-2.401h-.047l-.656 2.4h-1.119z" fill="#FFBE3D"/>
</svg>
