<svg xmlns="http://www.w3.org/2000/svg" width="133" height="95" viewBox="0 0 133 95">
    <g fill="none" fill-rule="evenodd">
        <path fill="#F2F2F2" d="M50.267 88.529c.517.395.76.858.634 1.4-.877 3.765-7.669 3.593-10.955 3.561-4.133-.04-8.416.023-12.29-.928-1.622-.398-5.21-.782-6.027-2.065-2.145-3.372 8.96-4.201 10.775-4.232 3.025-.05 14.91.006 17.863 2.264M59.01 92.814c-.782-.392-1.1-.856-.798-1.406 2.109-3.825 13.265-3.76 18.67-3.781 6.801-.026 13.866-.16 20.08.741 2.6.377 8.442.708 9.562 1.993 2.939 3.378-15.498 4.396-18.492 4.456-4.992.1-24.556.235-29.022-2.003M89.61 28.214c2.243-6.433 9.217-9.808 15.578-7.54 6.36 2.269 9.697 9.322 7.455 15.755-2.244 6.432-9.218 9.808-15.578 7.54-6.36-2.27-9.698-9.323-7.455-15.755zm22.675 28.203a26.425 26.425 0 0 0 4.14-2.503l6.272 2.837 5.916-7.273-3.922-5.62a27.218 27.218 0 0 0 1.783-4.963l6.479-1.868-.091-9.417-6.32-1.687a26.897 26.897 0 0 0-1.826-5.157c-.018-.039-.04-.075-.057-.114l3.615-5.402-6.056-7.154-5.665 2.698a26.528 26.528 0 0 0-5.066-2.95l-.638-6.234-9.186-1.544-2.545 5.575a25.926 25.926 0 0 0-5.952 1.096L88.831 2.49l-8.018 4.788 1.592 5.917a26.565 26.565 0 0 0-3.789 4.722l-6.092-.44-3.098 8.88 5.133 3.607a26.904 26.904 0 0 0 .12 5.844l-5.122 3.751 3.27 8.818 6.503-.6a26.394 26.394 0 0 0 3.599 4.14l-1.61 6.487 8.11 4.628 4.786-4.878c1.666.441 3.376.72 5.106.826l2.984 6.214 9.155-1.727.573-6.936c.084-.04.169-.074.252-.114zM36.62 16.33c1.687-2.764 5.27-3.623 8.003-1.918 2.734 1.706 3.583 5.33 1.897 8.094-1.686 2.765-5.27 3.623-8.003 1.918-2.733-1.705-3.583-5.329-1.897-8.094zm7.738 15.442c.76-.182 1.485-.434 2.176-.742l2.636 1.961 3.48-2.78-1.265-3.017c.51-.664.954-1.376 1.326-2.128l3.202-.207.897-4.393-2.772-1.43a12.866 12.866 0 0 0-.335-2.587l-.016-.058 2.222-2.145-2.104-3.949-2.906.678a12.69 12.69 0 0 0-2.063-1.89l.325-2.967-4.12-1.657-1.742 2.335c-.94-.142-1.905-.18-2.88-.098l-1.593-2.42-4.21 1.41.15 2.917a12.566 12.566 0 0 0-2.234 1.81l-2.792-.827-2.328 3.817 2.029 2.203a12.802 12.802 0 0 0-.528 2.732l-2.758 1.223.642 4.438 3.086.384c.344.818.769 1.585 1.261 2.295l-1.397 2.855 3.313 2.982 2.714-1.781c.731.375 1.5.68 2.294.905l.769 3.197 4.433.131.96-3.17c.042-.01.085-.016.128-.027zM14.955 52.36c1.658-4.756 6.814-7.25 11.515-5.574 4.702 1.677 7.17 6.891 5.511 11.646-1.658 4.755-6.814 7.25-11.515 5.574-4.702-1.677-7.169-6.891-5.51-11.647zm16.762 20.848a19.53 19.53 0 0 0 3.06-1.85l4.637 2.097 4.373-5.377-2.9-4.153c.557-1.177 1-2.406 1.32-3.67l4.788-1.38-.067-6.962-4.672-1.247a19.927 19.927 0 0 0-1.35-3.812c-.013-.029-.028-.056-.042-.084l2.672-3.993-4.476-5.29-4.188 1.996a19.566 19.566 0 0 0-3.745-2.18l-.472-4.61-6.79-1.141-1.881 4.121a19.168 19.168 0 0 0-4.4.81l-3.205-3.14-5.927 3.54 1.177 4.374a19.641 19.641 0 0 0-2.8 3.491l-4.504-.326-2.291 6.566 3.795 2.665c-.126 1.428-.1 2.876.088 4.32L.131 60.747l2.418 6.519 4.806-.444a19.509 19.509 0 0 0 2.66 3.061l-1.19 4.795 5.996 3.421 3.538-3.605c1.231.325 2.495.531 3.775.61l2.206 4.593 6.767-1.276.424-5.128c.061-.029.124-.054.186-.084z"/>
        <path fill="#F2F2F2" d="M66.178 12.496h33.424c3.047 0 5.517 2.498 5.517 5.579v67.58c0 3.082-2.47 5.58-5.517 5.58H66.178c-3.047 0-5.516-2.498-5.516-5.58v-67.58c0-3.081 2.47-5.58 5.516-5.58"/>
        <path fill="#2496FF" d="M64.586 90.84c-2.216-.819-3.65-2.878-3.689-5.261-.004-.236 0-.472 0-.708v-4.315-16.811-21.216-17.823-5.175c0-1.42-.053-2.777.632-4.096a5.35 5.35 0 0 1 3.245-2.668c.272-.08.235-.248-.044-.166-2.728.796-4.304 3.122-4.304 5.944v65.837c0 1.648.032 3.198 1.059 4.626.684.952 1.63 1.625 2.716 2.026.112.042.536-.138.385-.194"/>
        <path fill="#FFF" d="M67.806 12.496h33.424c3.047 0 5.517 2.498 5.517 5.579v67.58c0 3.082-2.47 5.58-5.517 5.58H67.806c-3.047 0-5.517-2.498-5.517-5.58v-67.58c0-3.081 2.47-5.58 5.517-5.58"/>
        <path fill="#2496FF" d="M67.706 12.6h23.077c3.35 0 6.702-.01 10.053 0 2.652.008 5.017 1.715 5.563 4.415.14.694.112 1.404.112 2.11v62.851c0 1.84.293 4.16-.43 5.891-.815 1.946-2.66 3.228-4.752 3.265-.208.003-.416 0-.624 0h-31.18c-1.25 0-2.489.078-3.674-.432-2.128-.915-3.316-3.032-3.326-5.317-.026-6.197 0-12.395 0-18.593V36.07c0-5.98-.038-11.96 0-17.94.02-2.952 2.184-5.47 5.181-5.53.137-.003.512-.215.2-.209-3.163.065-5.795 2.49-5.852 5.75-.008.453 0 .908 0 1.361v63.929c0 .7-.004 1.4 0 2.1.01 2.249 1.165 4.308 3.216 5.275 1.198.564 2.425.533 3.699.533H100.553c1.786 0 3.486-.43 4.793-1.751 1.174-1.187 1.637-2.736 1.637-4.374v-7.055-29.152-26.84-3.214c0-.768.024-1.527-.16-2.283-.645-2.642-3.024-4.266-5.641-4.279-1.123-.005-2.246 0-3.37 0H67.906c-.138 0-.512.208-.2.208"/>
        <path fill="#F2F2F2" d="M64.752 83.685h39.532V21.987H64.752z"/>
        <path fill="#FFF" d="M64.14 83.76h37.904V22.062H64.14z"/>
        <path fill="#2496FF" d="M102.893 82.899v-5.974-14.432-17.382-15.03-4.96-1.56c0-.23.067-.584 0-.806-.01-.03 0-.076 0-.108 0-.21-.473-.115-.473.055V82.04c0 .23-.068.584 0 .806.009.03 0 .075 0 .107 0 .21.473.115.473-.054"/>
        <path fill="#2496FF" d="M64.663 83.829H104.195c.08 0 .326-.045.326-.172v-6.145-14.755-17.762-15.431-5.087-1.584c0-.239.067-.597 0-.829-.009-.03 0-.073 0-.105 0-.08-.072-.116-.148-.116H64.842c-.08 0-.326.044-.326.171V82.778c0 .234-.071.603 0 .83.009.028 0 .073 0 .104 0 .21.473.115.473-.055v-6.145-14.755-17.762-15.431-5.087-1.584c0-.19.088-.656 0-.829-.012-.022 0-.078 0-.105l-.326.172H104.195l-.147-.117V82.778c0 .19-.09.656 0 .83.011.021 0 .077 0 .104l.325-.171H64.842c-.189 0-.497.288-.18.288"/>
        <path fill="#F2F2F2" d="M80.17 18.11h6.761c.371 0 .83.06 1.188-.064.878-.302 1.021-1.569.042-1.86-.387-.114-.881-.038-1.274-.038h-5.424c-.468 0-1.068-.09-1.523.064-1.105.377-.848 1.752.23 1.899.207.028.49-.265.174-.308-.669-.091-.756-.583-.419-1.023.674-.877.07-.24.316-.324.113-.04.31 0 .43 0h6.042c.319 0 .668-.041.985 0 1.02.13.68 1.347-.15 1.347h-7.205c-.2 0-.49.308-.173.308"/>
        <path fill="#2496FF" d="M80.67 18.11H87.433c.371 0 .83.06 1.188-.064.878-.302 1.02-1.569.042-1.86-.387-.114-.882-.038-1.274-.038h-5.425c-.467 0-1.067-.09-1.521.064-1.106.377-.85 1.752.229 1.899.207.028.49-.265.174-.308-.67-.091-.756-.583-.419-1.023.674-.877.07-.24.316-.324.114-.04.31 0 .43 0h6.042c.319 0 .668-.041.985 0 1.02.13.68 1.347-.15 1.347h-7.205c-.2 0-.491.308-.173.308"/>
        <path fill="#F2F2F2" d="M80.964 89.331h4.35c1.306 0 3.099.144 3.425-1.566.197-1.03-.54-1.98-1.547-2.127-.483-.07-1.002-.018-1.487-.018-1.506 0-3.03-.07-4.534 0-.898.041-1.766.523-2.001 1.462-.303 1.21.652 2.177 1.794 2.249.179.011.501-.248.184-.269-1.294-.08-2.087-1.689-1.152-2.7.488-.529 1.07-.474 1.697-.474h3.96c.351 0 .714-.026 1.066 0 1.062.078 1.838 1.077 1.498 2.14-.453 1.417-2.485 1.034-3.622 1.034h-3.447c-.176 0-.501.269-.184.269"/>
        <path fill="#2496FF" d="M81.452 89.331h4.35c1.307 0 3.099.144 3.426-1.566.196-1.03-.54-1.98-1.547-2.127-.483-.07-1.003-.018-1.488-.018-1.506 0-3.03-.07-4.534 0-.898.041-1.766.523-2 1.462-.304 1.21.651 2.177 1.793 2.249.18.011.502-.248.184-.269-1.294-.08-2.087-1.689-1.151-2.7.488-.529 1.069-.474 1.696-.474h3.96c.352 0 .715-.026 1.066 0 1.063.078 1.839 1.077 1.498 2.14-.452 1.417-2.485 1.034-3.621 1.034h-3.448c-.176 0-.501.269-.184.269"/>
        <path fill="#FFF" d="M46.506 71.988c-1.24-10.235-3.5-36.093-13.796-32.515-9.594 3.335-9.098 21.846-11.084 34.214 0 0 10.195.525 13.574.267 2.862-.218 11.306-1.966 11.306-1.966"/>
        <path fill="#2496FF" d="M46.742 71.924c-.588-4.87-1.112-9.746-1.981-14.575-.879-4.882-1.927-10.174-4.544-14.453-.893-1.46-2.073-2.885-3.694-3.528-1.543-.613-3.214-.326-4.686.349-4.732 2.167-6.529 7.863-7.562 12.588-1.542 7.05-1.75 14.304-2.883 21.418-.008.052.04.073.085.075 3.158.163 6.321.286 9.483.33 1.666.023 3.345.052 5.002-.148 2.049-.247 4.083-.635 6.11-1.018 1.468-.277 2.933-.564 4.396-.866.2-.042.405-.283.077-.216-2.708.56-5.424 1.088-8.152 1.538-3.215.529-6.372.521-9.623.432a307.947 307.947 0 0 1-6.643-.258c-.042-.002-.292.018-.322-.016.025.029.205-.9.22-1.01.618-4.226.958-8.488 1.482-12.726.506-4.084 1.115-8.232 2.491-12.123 1.135-3.206 2.97-6.534 6.21-7.941 5.975-2.596 8.965 5.433 10.268 9.816 1.983 6.672 2.77 13.666 3.57 20.563.074.632.148 1.265.224 1.897.015.122.49.022.472-.128"/>
        <path fill="#FFF" d="M30.094 30.837c.909-5.193 3.907-8.998 6.695-8.499 2.789.5 4.313 5.114 3.404 10.308l-.163.93c-.504 2.88-1.097 4.843-1.765 6.163-1.373 2.715-4.99 3.303-4.99 3.303s-3.284-1.8-3.729-4.526c-.243-1.493-.16-3.636.385-6.748l.163-.93"/>
        <path fill="#2496FF" d="M36.759 41.66c2.533-1.892 3.043-5.5 3.558-8.434.524-2.99.742-6.535-.968-9.211-1.125-1.761-3.054-2.284-4.873-1.278-2.609 1.443-3.93 4.805-4.508 7.581-.367 1.766-.65 3.577-.754 5.38-.101 1.753-.035 3.43.991 4.918.082.119.512-.07.472-.128-1.646-2.386-1.018-5.765-.568-8.443.47-2.792 1.173-5.65 3.042-7.854.843-.994 2.061-2.001 3.445-1.759 1.048.183 1.851.981 2.38 1.872 1.472 2.474 1.44 5.731.967 8.48-.512 2.977-.956 6.924-3.546 8.86-.19.142.276.08.362.017"/>
        <path fill="#FFF" d="M24.124 77.032c-.191-1.951-.463-4.026-.565-6.035a27.386 27.386 0 0 1 .01-3.274c.052-.756-.007-2.538.494-3.137.637-.765 3.314-.083 4.236-.023 1.501.098 3.025.223 4.53.149 2.947-.145 11.73-1.847 11.73-1.847.316.003 1.21 10.352 1.317 11.296.35 3.063.858 6.1 1.045 9.183.1 1.656.67 5.237-.536 6.668-.128.151-.237.3-.442.345-.91.203-1.732-1.48-2.062-2.074-2.122-3.828-2.872-8.254-4.832-12.177-.44-.88-.946-1.766-1.739-2.339-.768-.555-2.001-1.158-2.868-.565-1.867 1.28-2.819 4.193-3.625 6.246a36.783 36.783 0 0 0-1.634 5.316c-.386 1.704-.602 3.44-1.376 5.029-.318.652-.7 1.434-1.465 1.554-.93.146-1.308-2.471-1.396-2.971-.6-3.381-.468-6.853-.728-10.27a48.755 48.755 0 0 0-.094-1.074"/>
        <path fill="#2496FF" d="M24.36 76.969c-.28-2.81-.687-5.624-.595-8.455.031-.977.02-2.01.184-2.976.092-.542.227-.987.805-1.132.441-.11.985-.023 1.431.026 2.098.23 4.161.507 6.284.438 1.402-.046 2.798-.268 4.183-.48 1.631-.25 3.257-.53 4.882-.823.92-.166 2.022-.212 2.904-.54.31-.115-.067.084-.074-.048.005.098.073.203.084.304.044.437.146.875.204 1.31.18 1.378.321 2.762.46 4.144.274 2.73.508 5.457.865 8.176.327 2.497.57 4.988.79 7.496.085.972.169 1.949.13 2.926-.03.754-.08 2.139-.732 2.656-1.299 1.031-3.318-4.454-3.606-5.213-.913-2.409-1.601-4.902-2.605-7.276-.807-1.908-1.82-4.1-4.017-4.618-1.717-.404-2.91 1.287-3.648 2.612-1.037 1.862-1.78 3.993-2.44 6.015a37.13 37.13 0 0 0-1.056 3.991c-.263 1.27-.489 2.557-.98 3.763-.196.476-.417.998-.73 1.412-.222.292-.673.6-1 .386-.165-.108-.272-.389-.348-.56-.273-.608-.396-1.287-.511-1.941-.45-2.552-.524-5.132-.622-7.715a67.512 67.512 0 0 0-.242-3.878c-.016-.175-.49-.068-.471.127.277 2.899.231 5.815.484 8.715a30.99 30.99 0 0 0 .447 3.253c.133.676.277 1.488.706 2.046 1.082 1.407 2.41-1.036 2.74-1.84.504-1.223.734-2.532 1-3.821.29-1.4.657-2.781 1.106-4.137.74-2.241 1.54-4.752 2.916-6.686.34-.479.784-1.049 1.304-1.342.82-.462 1.855.107 2.529.61 1.148.857 1.753 2.314 2.304 3.601 1.092 2.549 1.809 5.238 2.82 7.818.444 1.136.959 2.233 1.545 3.3.356.65.793 1.535 1.521 1.824 1.551.613 1.99-1.948 2.05-2.94.122-2.066-.168-4.231-.373-6.284-.365-3.646-.887-7.271-1.239-10.92-.154-1.6-.312-3.2-.499-4.796a47.512 47.512 0 0 0-.23-1.764c-.034-.22-.034-.722-.193-.901-.273-.305-1.303.091-1.627.152-1.593.296-3.189.581-4.787.846-1.646.272-3.3.548-4.962.695-2.193.194-4.42-.022-6.592-.322-1.299-.18-2.993-.437-3.346 1.189-.221 1.015-.188 2.14-.222 3.175-.046 1.44.035 2.881.163 4.314.125 1.408.294 2.81.435 4.215.017.175.49.068.471-.127"/>
        <path fill="#F2F2F2" d="M23.558 64.677c3.559.124 7.166.333 10.724.083 2.16-.151 4.295-.572 6.414-1.04 1.039-.229 2.073-.489 3.115-.702.276-.057 1.263-.287 1.016.383-.174.47-1.244.772-1.642.912-.829.291-1.745.41-2.609.589-1.725.356-3.464.655-5.218.778-3.685.258-7.42.05-11.106-.077-.325-.011-.98-.162-1.146-.51-.172-.363.165-.426.452-.416M40.654 66.838a3.758 3.758 0 0 0 1.641 2.272c.25.16.356.49.091.685-.287.21-.746.068-1.01-.101a4.959 4.959 0 0 1-2.15-2.986c-.162-.638 1.28-.455 1.428.13"/>
        <path fill="#2496FF" d="M40.165 66.623a4.452 4.452 0 0 0 1.944 2.684c.137.087.57-.112.374-.237a4.262 4.262 0 0 1-1.846-2.575c-.044-.173-.517-.048-.472.128"/>
        <path fill="#BBDFF5" d="M29.53 41.423c-6.327 5.967-6.169 21.46-7.904 32.263.005-.033 1.979.093 2.094.098 1.01.045 2.126.322 2.957-.392.987-.848 1.676-2.506 2.218-3.667 1.312-2.812 2.042-5.881 2.372-8.965.345-3.235.267-6.498.063-9.74-.088-1.411-.473-3.078-.212-4.453.218-1.153 1.168-2.38.316-3.508-.166-.221-.41-.305-.637-.45-.127-.082-1.363-1.095-1.266-1.186"/>
        <path fill="#2496FF" d="M29.315 41.43c-2.804 2.69-4.074 6.66-4.926 10.367-1.07 4.657-1.52 9.44-2.029 14.185-.277 2.586-.56 5.172-.968 7.741-.019.117.209.07.259.058-.135.032.215.021.3.025.204.008.408.02.612.031l.99.058c.939.058 1.95.247 2.835-.178.976-.468 1.563-1.595 2.033-2.526.655-1.293 1.246-2.635 1.708-4.01 1.035-3.08 1.476-6.324 1.583-9.565.06-1.787.018-3.577-.072-5.362-.078-1.553-.388-3.12-.376-4.673.008-.905.266-1.617.539-2.458.202-.623.34-1.293.014-1.901-.233-.435-.67-.599-1.04-.888-.18-.14-1.031-.708-1.012-.948.012-.155-.458-.058-.468.073-.029.36.915.97 1.175 1.158.436.315.846.496 1.01 1.078.198.711-.126 1.43-.358 2.092-.437 1.246-.339 2.48-.188 3.773.186 1.585.267 3.176.31 4.771.16 6.064-.548 12.526-3.771 17.8-.613 1.004-1.391 1.688-2.655 1.613-.432-.026-.864-.066-1.297-.092-.597-.035-1.332-.2-1.922-.06l.26.058c.726-4.568 1.075-9.187 1.642-13.775.549-4.437 1.202-8.994 2.875-13.162.787-1.961 1.84-3.831 3.37-5.298.117-.113-.34-.075-.433.015"/>
        <path fill="#BBDFF5" d="M38.278 40.776c-.595 1.304-2.602 1.526-1.988 3.088 1.144 2.91 2.874 5.415 3.676 8.52 1.2 4.649 2.33 9.43 3.51 14.048.495 1.934.78 4.95 3.03 5.556-.975-8.048-2.581-25.751-8.228-31.212"/>
        <path fill="#2496FF" d="M38.043 40.81c-.392.76-1.168 1.075-1.717 1.683-.606.673-.326 1.333-.002 2.09.994 2.32 2.33 4.487 3.12 6.896.904 2.755 1.47 5.66 2.164 8.475.626 2.537 1.312 5.064 1.88 7.614.393 1.77.887 3.93 2.828 4.527.1.03.446-.009.426-.17-.51-4.232-.968-8.468-1.656-12.675-.743-4.55-1.65-9.188-3.424-13.459-.768-1.848-1.73-3.693-3.164-5.104-.106-.105-.548.072-.44.177 2.81 2.766 4.034 7.071 4.986 10.797 1.173 4.588 1.874 9.293 2.465 13.99.268 2.132.504 4.268.761 6.401l.426-.17c-1.825-.562-2.32-2.582-2.695-4.252-.54-2.403-1.177-4.785-1.766-7.177-.67-2.712-1.314-5.434-2.034-8.133-.646-2.424-1.881-4.589-2.942-6.84-.459-.971-1.328-2.22-.364-3.125.574-.54 1.241-.886 1.617-1.614.057-.11-.397-.07-.469.069"/>
        <path fill="#2496FF" d="M42.688 49.851c2.3.51 4.211-.846 5.5-2.674.684-.971 1.218-2.049 1.65-3.156.302-.774.55-1.57.755-2.376.172-.678.29-2.126 1.092-2.364.278-.082.221-.317-.062-.233-.922.273-1.15 1.218-1.36 2.068-.346 1.4-.754 2.767-1.372 4.071-1.091 2.303-3.028 5.05-5.913 4.41-.148-.034-.554.196-.29.254"/>
        <path fill="#FFF" d="M26.68 67.722l.386.995-.66.836-1.046-.16-.385-.996.66-.836 1.045.16zm-3.827-10.42l.499 1.287-.854 1.08-1.351-.207-.68-1.755a2.121 2.121 0 0 0-.18 1.893 2.081 2.081 0 0 0 1.916 1.337l2.45 6.337a1.901 1.901 0 0 0-.369 1.97 1.857 1.857 0 0 0 2.416 1.069 1.892 1.892 0 0 0 1.056-2.443 1.866 1.866 0 0 0-1.593-1.193l-2.46-6.362c.561-.573.769-1.449.46-2.248a2.085 2.085 0 0 0-1.514-1.294l.204.528z"/>
        <path fill="#2496FF" d="M22.709 57.432c-.159-.024-.042-.022-.024.107.019.13.105.272.153.396.053.137.285.582.275.681-.025.237-.646.808-.835 1.047l.364-.125-.905-.139c-.081-.012-.283-.014-.36-.055-.11-.057.072.099-.062-.12-.276-.453-.418-1.081-.611-1.58-.06-.157-.396-.053-.456.057-.378.69-.462 1.461-.098 2.179.15.295.365.548.628.744.342.255.7.255 1.058.43.147.072.06-.072.168.044.066.07.099.256.133.345a20401722.16 20401722.16 0 0 1 1.781 4.603c.126.325.365.721.413 1.068.01.064.093.155.085.22-.001.007-.224.267-.25.31a1.875 1.875 0 0 0-.23.69c-.19 1.381 1.082 2.434 2.38 2.21 1.242-.213 2.158-1.48 1.676-2.738a1.963 1.963 0 0 0-.75-.932c-.224-.149-.493-.166-.707-.296-.231-.14-.037.09-.198-.127-.085-.113-.122-.313-.172-.443l-1.2-3.104-.631-1.63c-.095-.245-.393-.711-.38-.981.008-.155.349-.488.434-.706.167-.426.201-.897.088-1.342-.214-.84-.878-1.386-1.683-1.603-.084-.022-.438.046-.38.195l.204.528c.065.168.532.027.472-.128l-.204-.528-.38.195c1.546.416 2.017 2.215.978 3.405a.086.086 0 0 0-.016.07l2.46 6.362c.015.037.054.061.092.067 1.617.229 2.304 2.446.74 3.291-.817.441-1.732.05-2.146-.742-.37-.708-.23-1.47.26-2.077a.086.086 0 0 0 .017-.07l-2.452-6.336c-.023-.06-.089-.07-.144-.073-1.552-.103-2.342-1.748-1.606-3.088l-.456.058.679 1.754c.014.038.053.061.091.067.71.11 1.417.458 1.909-.16.18-.227.655-.634.668-.929.016-.348-.362-.936-.49-1.266-.014-.037-.052-.06-.091-.066-.152-.024-.555.22-.289.26"/>
        <path fill="#6A79A8" d="M26.445 67.786l.177.458.142.367c.012.03.065.19.07.135.004-.055-.078.08-.101.109l-.217.274-.33.418.364-.125-.866-.133c-.049-.007-.1-.01-.147-.023-.02-.004.057.117.034-.004-.028-.144-.115-.295-.167-.432-.055-.141-.125-.284-.167-.43-.034-.118-.037.024-.022-.024.013-.038.07-.086.093-.117l.547-.692-.364.125 1.045.16c.152.024.555-.22.288-.261l-.645-.1c-.18-.027-.426-.107-.607-.04-.172.063-.275.254-.384.393l-.433.547a.086.086 0 0 0-.016.07l.385.995c.015.038.054.06.092.067.33.05.663.123.994.153.326.028.432-.138.618-.374.137-.173.471-.453.462-.68-.007-.165-.152-.39-.211-.544l-.163-.42c-.065-.168-.531-.027-.471.128"/>
        <path fill="#BBDFF5" d="M28.36 65.087c-1.812.593-3.602.53-5.451.169.545.676.618 1.742.765 2.57.196 1.098.294 2.212.296 3.326.728.225 1.473.452 2.208.29.735-.161 1.471-.788 1.772-1.842.146-.512.18-1.082.283-1.619.11-.573 2.148-3.554.128-2.894"/>
        <path fill="#2496FF" d="M22.843 65.512c.59 1.85.872 3.761.892 5.704.008.02.023.033.044.038 1.137.349 2.36.6 3.387-.17.502-.376.84-.92 1.018-1.52.259-.873.083-2.214.878-2.833.199-.155-.27-.119-.369-.042-.651.507-.7 1.382-.82 2.148-.212 1.368-.859 2.716-2.514 2.513-.76-.093-1.137-.234-1.17-1.04a18.49 18.49 0 0 0-.873-4.925c-.044-.135-.513 0-.473.127"/>
        <path fill="#2496FF" d="M22.932 65.606c1.898.405 3.842.311 5.69-.287.469-.152.33-.6-.143-.448-1.662.539-3.395.604-5.1.24-.286-.061-.909.396-.447.495"/>
        <path fill="#F2F2F2" d="M29.31 29.255c1.18.792 2.778 1.226 4.133 1.59.885.236 1.8.365 2.708.468 1.425.162 3.841.604 5.04-.464.255-.227-.222-.283-.347-.283-.324-.001-.7.137-.944.354.392-.35.361-.095.107-.114-.147-.012-.305.02-.453.024a12.8 12.8 0 0 1-1.11-.03 27.096 27.096 0 0 1-2.344-.247 14.698 14.698 0 0 1-2.186-.498c-1.07-.33-2.342-.68-3.275-1.307-.351-.235-1.579.339-1.329.507"/>
        <path fill="#FF9C81" d="M41.262 30.051a.956.956 0 0 0 .119-.298c.245-1.154.015-2.561-.342-3.666-.661-2.05-2.24-3.867-4.426-4.208-2.231-.347-4.308.962-5.544 2.768a9.769 9.769 0 0 0-1.029 1.886c-.266.67-.642 1.606.033 2.155.282.23.645.333.971.476.343.15.696.283 1.047.414.71.265 1.432.5 2.164.694 1.455.386 2.962.612 4.469.55a11.44 11.44 0 0 0 .905-.075c.337-.041.688-.083 1.015-.176.247-.07.486-.3.618-.52"/>
        <path fill="#2496FF" d="M41.496 30.012c.498-.995.193-2.482-.077-3.498-.294-1.107-.805-2.152-1.566-3.006-1.396-1.568-3.487-2.157-5.48-1.533-2.159.677-3.724 2.534-4.566 4.597-.41 1.006-.588 1.937.528 2.478 1.219.59 2.567 1.023 3.874 1.358 1.483.381 3.017.594 4.55.512.938-.05 2.115-.042 2.718-.88.1-.139-.358-.078-.43.023-.457.635-1.506.62-2.224.652a12.975 12.975 0 0 1-2.352-.126c-1.434-.2-2.831-.608-4.188-1.11-.607-.225-1.513-.444-1.988-.876-.517-.47-.377-1.127-.17-1.721a8.917 8.917 0 0 1 1.845-3.102c1.991-2.14 5.083-2.48 7.207-.353.814.816 1.376 1.859 1.7 2.965.311 1.059.671 2.66.152 3.698-.044.087.402.051.467-.078"/>
        <path fill="#2496FF" d="M30.46 27.479a18.401 18.401 0 0 0 10.315 2.152c.246-.021.38-.328.055-.3a17.849 17.849 0 0 1-10-2.102c-.154-.083-.58.136-.37.25"/>
        <path fill="#2496FF" d="M35.413 22.739a12.394 12.394 0 0 1-.232 5.34c-.038.143.43.075.469-.07.471-1.777.55-3.586.235-5.398-.024-.136-.498-.025-.472.128M36.852 22.71a8 8 0 0 1-.02 5.33c-.059.165.414.106.471-.058a8.114 8.114 0 0 0 .021-5.4c-.059-.17-.528-.035-.472.129M28.654 42.867c1.679 1.965.853 5.007.803 7.348-.023 1.057-.093 2.293.489 3.223.49.785 1.066 1.313 1.321 2.25.036.132.508.005.472-.128-.245-.902-.737-1.4-1.244-2.136-.71-1.027-.598-2.45-.557-3.643.079-2.299.8-5.165-.842-7.087-.088-.103-.536.062-.442.173M38.339 42.271c-1.14 1.093-.658 2.693.008 3.905.479.872.973 1.66 1.118 2.667.144 1.002.063 2.03.117 3.04.014.253.49.181.479-.035-.083-1.546.117-3.145-.558-4.588-.666-1.426-2.298-3.378-.768-4.844.213-.204-.241-.293-.396-.145M61.587 41.286l-1.316-.165v-.678l1.316-.164v1.007"/>
        <path fill="#2496FF" d="M54.197 41.01h6.064c.307 0 1.016-.46.387-.46h-6.064c-.308 0-1.017.46-.387.46"/>
        <path fill="#BEDAF4" d="M54.673 42.017H48.85c-.674 0-1.22-.553-1.22-1.235s.546-1.235 1.22-1.235h5.823c.674 0 1.22.553 1.22 1.235s-.546 1.235-1.22 1.235"/>
        <path fill="#2496FF" d="M54.693 41.839h-5.477c-.11 0-.23.014-.34 0-1.214-.16-1.419-1.917-.046-2.113 1.087-.156 2.297 0 3.395 0h1.996c.138 0 .289-.018.426 0 1.175.154 1.46 1.985.046 2.113-.267.024-.362.386-.04.357 1.847-.168 1.937-2.739.016-2.827-1.375-.063-2.767 0-4.144 0-1.103 0-2.976-.275-3.125 1.32-.154 1.645 1.663 1.507 2.73 1.507h4.523c.272 0 .36-.357.04-.357"/>
        <path fill="#2496FF" d="M51.555 39.274c.242-.011.48.056.644.245.153.176.231.46.148.684-.04.11.418.058.468-.076.104-.28-.006-.617-.214-.82-.224-.22-.55-.265-.848-.252-.088.004-.266.033-.315.12-.048.087.042.102.117.099"/>
        <path fill="#FF9C81" d="M59.396 38.923c-1.198.23-2.37-.485-2.64-1.712-.242-1.099.529-1.79.631-2.806.2-1.98-2.839-2.87-2.128-4.92.058-.168-.415-.11-.473.056-.379 1.094.36 1.998 1.043 2.77.43.487.935 1.024 1.06 1.69.13.697-.252 1.216-.48 1.83-.736 1.975.965 3.744 2.926 3.368.226-.044.385-.338.061-.276M57.16 45.384c-1.294.104-2.473.983-1.184 2.173.291.269.681.512.787.927.164.643-.389 1.168-.815 1.539-.525.459-1.064.876-1.132 1.622-.018.192.457.103.472-.06.115-1.26 1.723-1.525 1.955-2.729.081-.419-.075-.756-.348-1.06-.201-.224-.47-.377-.671-.602a1.336 1.336 0 0 1-.37-.616c.281-.624.695-.933 1.243-.928.232-.019.391-.292.064-.266"/>
        <path fill="#FF9C81" d="M59.476 36.474c-1.048-.67-.82-1.962-.447-2.966.37-.993.803-1.952.411-3.008-.055-.148-.521-.006-.471.128.494 1.334-.36 2.456-.653 3.714-.2.86-.065 1.809.72 2.31.13.084.548-.109.44-.178M58.788 45.35c-.937.897-.743 2.39.438 2.958.164.08.587-.152.368-.257-1.025-.493-1.254-1.785-.418-2.587.208-.199-.252-.245-.388-.115M55.192 43.8c-.513 1.474-2.017 2.125-3.42 1.402-.131-.068-.565.128-.377.225 1.65.85 3.648.09 4.268-1.689.053-.151-.417-.092-.471.063"/>
        <path fill="#2496FF" d="M34.396 38.417a1.192 1.192 0 0 1-.128-.739c.081-.433.524-.351.826-.151.27.178.278.47.321.762.06.402.296.582.527.902.132.183.58-.008.43-.214-.19-.266-.427-.443-.48-.78-.031-.2-.038-.404-.124-.59-.192-.417-.726-.622-1.159-.61-.875.023-.98.999-.643 1.634.104.197.551.014.43-.214"/>
        <path fill="#2496FF" d="M33.432 38.314c1.007.715 3.952 1.802 4.412-.17.025-.105-.437-.038-.466.084-.376 1.61-2.709.486-3.501-.078-.109-.077-.515.114-.445.164"/>
        <path fill="#2496FF" d="M34.948 38.498a.081.081 0 0 1-.074-.047 2.46 2.46 0 0 1-.204-.687.082.082 0 0 1 .07-.093.081.081 0 0 1 .091.07 2.3 2.3 0 0 0 .19.64.083.083 0 0 1-.073.117M25.958 50.009c4.705 1.734 10.47.627 14.75-1.817 2.375-1.356 4.473-3.199 6.97-4.335 1.098-.5 2.194-.636 3.332-.96.808-.23 1.426-.652 1.746-1.46.095-.24-.377-.213-.446-.037-.448 1.128-1.5 1.238-2.542 1.445-.984.197-1.926.568-2.821 1.02-2.09 1.056-3.923 2.548-5.917 3.768-4.24 2.595-10.037 3.832-14.793 2.079-.18-.067-.552.196-.279.297"/>
    </g>
</svg>
