<svg width="40" height="40" viewBox="0 0 40 40" fill="none" xmlns="http://www.w3.org/2000/svg">
    <circle cx="20" cy="20" r="20" fill="#EAFAF3"/>
    <path d="m28.631 22.173-1.044-.591a1.714 1.714 0 0 1 0-2.96l1.044-.59c.87-.508 1.132-1.523.61-2.283l-.87-1.438c-.523-.845-1.567-1.099-2.35-.591l-1.045.591c-1.131.677-2.61-.169-2.61-1.437v-1.183c0-.93-.784-1.691-1.741-1.691h-1.741c-.957 0-1.74.76-1.74 1.69v1.1c0 1.268-1.48 2.113-2.611 1.437l-1.045-.507c-.87-.508-1.915-.17-2.35.591l-.87 1.438c-.435.845-.174 1.86.61 2.367l1.043.591c1.132.592 1.132 2.283 0 2.875l-1.044.591c-.87.508-1.131 1.522-.61 2.283l.871 1.437c.522.845 1.567 1.1 2.35.592l1.045-.507c1.13-.677 2.61.169 2.61 1.437v1.183c0 .93.784 1.691 1.741 1.691h1.74c.958 0 1.741-.76 1.741-1.69v-1.1c0-1.268 1.48-2.113 2.611-1.437l1.045.592c.87.507 1.914.169 2.35-.592l.87-1.437c.435-.93.174-1.944-.61-2.452zm-8.877 1.353c-1.914 0-3.48-1.522-3.48-3.381 0-1.86 1.566-3.382 3.48-3.382 1.915 0 3.482 1.522 3.482 3.381 0 1.86-1.567 3.382-3.482 3.382z" fill="#2DCA8C"/>
</svg>
