<svg width="16" height="16" viewBox="0 0 16 16" fill="none" xmlns="http://www.w3.org/2000/svg">
<path d="M14.5166 9.6L13.7029 9.13333C12.8213 8.6 12.8213 7.33333 13.7029 6.8L14.5166 6.33333C15.1947 5.93333 15.3981 5.13333 14.9912 4.53333L14.3131 3.4C13.9063 2.73333 13.0926 2.53333 12.4823 2.93333L11.6686 3.4C10.7871 3.93333 9.63429 3.26667 9.63429 2.26667V1.33333C9.63429 0.6 9.024 0 8.2781 0H6.9219C6.176 0 5.56571 0.6 5.56571 1.33333V2.2C5.56571 3.2 4.41295 3.86667 3.53142 3.33333L2.71771 2.93333C2.03961 2.53333 1.2259 2.8 0.886849 3.4L0.208753 4.53333C-0.130295 5.2 0.0731342 6 0.683421 6.4L1.49714 6.86667C2.37866 7.33333 2.37866 8.66667 1.49714 9.13333L0.683421 9.6C0.00532462 10 -0.198104 10.8 0.208753 11.4L0.886849 12.5333C1.29371 13.2 2.10742 13.4 2.71771 13L3.53142 12.6C4.41295 12.0667 5.56571 12.7333 5.56571 13.7333V14.6667C5.56571 15.4 6.176 16 6.9219 16H8.2781C9.024 16 9.63429 15.4 9.63429 14.6667V13.8C9.63429 12.8 10.7871 12.1333 11.6686 12.6667L12.4823 13.1333C13.1604 13.5333 13.9741 13.2667 14.3131 12.6667L14.9912 11.5333C15.3303 10.8 15.1269 10 14.5166 9.6ZM7.6 10.6667C6.10819 10.6667 4.88762 9.46667 4.88762 8C4.88762 6.53333 6.10819 5.33333 7.6 5.33333C9.09181 5.33333 10.3124 6.53333 10.3124 8C10.3124 9.46667 9.09181 10.6667 7.6 10.6667Z" fill="#BDBFC4"/>
</svg>
