<?xml version="1.0" encoding="UTF-8"?>
<svg width="48px" height="15px" viewBox="0 0 48 15" version="1.1" xmlns="http://www.w3.org/2000/svg" xmlns:xlink="http://www.w3.org/1999/xlink">
    <!-- Generator: Sketch 50.2 (55047) - http://www.bohemiancoding.com/sketch -->
    <title>fill-1@2x</title>
    <desc>Created with Sketch.</desc>
    <defs></defs>
    <g id="Page-1" stroke="none" stroke-width="1" fill="none" fill-rule="evenodd">
        <g id="fill-1" transform="translate(-1.000000, -6.000000)" fill="#fff" fill-rule="nonzero" stroke="#fff">
            <path d="M34.1709228,33.7452842 C32.4820178,34.5283582 30.6169528,35.0245462 28.7586688,34.6431832 C27.2566268,34.3358322 26.0030608,33.3070442 25.0869428,32.0916802 C22.5900408,28.7793552 21.9021798,24.1480262 21.4616058,20.1386582 C20.6766848,12.9793862 21.0254328,5.78596321 21.4940778,-1.38068579 C22.4647918,0.280653206 23.6965898,1.77373921 25.2646478,3.04728921 C25.9960428,3.64045521 27.2635248,1.60049021 26.4711108,0.956992206 C23.7404808,-1.26074379 22.1286518,-4.25726879 21.1581758,-7.59589079 C20.8604558,-8.62015679 19.7202448,-7.43180379 19.5561008,-6.94763379 C18.6048938,-4.14589479 17.2049068,-1.55107979 15.4395188,0.819201206 C15.1511948,1.20699021 14.8035178,1.89058721 15.1351378,2.35833721 C15.4560518,2.81073721 16.0916968,2.38987021 16.3283978,2.07371321 C17.7615708,0.147741206 19.0071678,-1.90019579 19.9991718,-4.07521479 C19.4277588,4.45101521 18.7942548,13.0222222 19.7718678,21.5471422 C20.2494328,25.7145302 21.0144898,30.3495472 23.5297098,33.8326232 C24.5230228,35.2068392 25.8446258,36.2388392 27.4688248,36.7356222 C29.2613328,37.2821432 31.2392758,36.9104192 32.9517328,36.2657312 C33.3757728,36.1059272 33.7935098,35.9256572 34.2042278,35.7357492 C35.0455288,35.3452242 35.4778958,33.1391492 34.1709228,33.7452842" id="Fill-1" transform="translate(25.000000, 14.500000) scale(-1, 1) rotate(102.000000) translate(-25.000000, -14.500000) "></path>
        </g>
    </g>
</svg>