<svg xmlns="http://www.w3.org/2000/svg" xmlns:xlink="http://www.w3.org/1999/xlink" width="161" height="112" viewBox="0 0 161 112">
    <defs>
        <rect id="a" width="201.036" height="146.556" rx="15.346"/>
        <linearGradient id="c" x1="50%" x2="50%" y1="0%" y2="100%">
            <stop offset="0%" stop-color="#4DBCFA"/>
            <stop offset="100%" stop-color="#1486DB"/>
        </linearGradient>
        <linearGradient id="d" x1="4.766%" y1="37.137%" y2="65.382%">
            <stop offset="0%" stop-color="#6EAE7C"/>
            <stop offset="100%" stop-color="#0F575D"/>
        </linearGradient>
        <linearGradient id="e" x1="36.2%" x2="52.179%" y1="13.138%" y2="50%">
            <stop offset="0%" stop-color="#CFE49F"/>
            <stop offset="100%" stop-color="#A9D386"/>
        </linearGradient>
        <linearGradient id="f" x1="34.115%" x2="64.833%" y1="33.945%" y2="52.41%">
            <stop offset="0%" stop-color="#77D791"/>
            <stop offset="100%" stop-color="#4FA67E"/>
        </linearGradient>
        <linearGradient id="g" x1="50%" x2="50%" y1="0%" y2="91.848%">
            <stop offset="0%" stop-color="#EAFCFF"/>
            <stop offset="100%" stop-color="#FFF"/>
        </linearGradient>
        <linearGradient id="h" x1="50%" x2="50%" y1="7.264%" y2="151.058%">
            <stop offset="0%" stop-color="#D0F6FF"/>
            <stop offset="100%" stop-color="#8BE2F7"/>
        </linearGradient>
        <linearGradient id="i" x1="50%" x2="50%" y1="7.264%" y2="151.058%">
            <stop offset="0%" stop-color="#D0F6FF"/>
            <stop offset="100%" stop-color="#8BE2F7"/>
        </linearGradient>
        <linearGradient id="j" x1="50%" x2="50.935%" y1="50.834%" y2="49.686%">
            <stop offset="0%" stop-color="#2B3389"/>
            <stop offset="100%" stop-color="#444FB7"/>
        </linearGradient>
        <linearGradient id="k" x1="50%" x2="50.935%" y1="82.631%" y2="37.716%">
            <stop offset="0%" stop-color="#2B3389"/>
            <stop offset="100%" stop-color="#444FB7"/>
        </linearGradient>
        <linearGradient id="l" x1="82.577%" x2="82.577%" y1="-52.951%" y2="186.665%">
            <stop offset="0%" stop-color="#1533B6"/>
            <stop offset="100%" stop-color="#356BE9"/>
        </linearGradient>
        <linearGradient id="m" x1="50%" x2="50%" y1="0%" y2="100%">
            <stop offset="0%" stop-color="#1D2A78"/>
            <stop offset="100%" stop-color="#12033B"/>
        </linearGradient>
        <linearGradient id="n" x1="50%" x2="50%" y1="-27.364%" y2="100%">
            <stop offset="0%" stop-color="#C0E4FD"/>
            <stop offset="100%" stop-color="#72B9FE"/>
        </linearGradient>
        <linearGradient id="o" x1="50%" x2="50%" y1="-27.364%" y2="100%">
            <stop offset="0%" stop-color="#C0E4FD"/>
            <stop offset="100%" stop-color="#72B9FE"/>
        </linearGradient>
        <linearGradient id="p" x1="50%" x2="50%" y1="0%" y2="100%">
            <stop offset="0%" stop-color="#FF9485"/>
            <stop offset="100%" stop-color="#FF676E"/>
        </linearGradient>
        <linearGradient id="q" x1="50%" x2="50%" y1="0%" y2="100%">
            <stop offset="0%" stop-color="#FF9485"/>
            <stop offset="100%" stop-color="#FF676E"/>
        </linearGradient>
        <linearGradient id="r" x1="82.577%" x2="82.577%" y1="-52.951%" y2="186.665%">
            <stop offset="0%" stop-color="#1533B6"/>
            <stop offset="100%" stop-color="#356BE9"/>
        </linearGradient>
        <linearGradient id="s" x1="50%" x2="50%" y1="0%" y2="100%">
            <stop offset="0%" stop-color="#FF9485"/>
            <stop offset="100%" stop-color="#FF676E"/>
        </linearGradient>
        <linearGradient id="t" x1="50%" x2="50%" y1="0%" y2="100%">
            <stop offset="0%" stop-color="#1D2A78"/>
            <stop offset="100%" stop-color="#12033B"/>
        </linearGradient>
        <linearGradient id="u" x1="50%" x2="50.935%" y1="83.233%" y2="37.49%">
            <stop offset="0%" stop-color="#2B3389"/>
            <stop offset="100%" stop-color="#444FB7"/>
        </linearGradient>
        <linearGradient id="v" x1="50%" x2="50%" y1="0%" y2="100%">
            <stop offset="0%" stop-color="#FF9485"/>
            <stop offset="100%" stop-color="#FF676E"/>
        </linearGradient>
        <linearGradient id="w" x1="50%" x2="50%" y1="0%" y2="100%">
            <stop offset="0%" stop-color="#4DBCFA"/>
            <stop offset="100%" stop-color="#1486DB"/>
        </linearGradient>
        <linearGradient id="x" x1="50%" x2="50%" y1="0%" y2="100%">
            <stop offset="0%" stop-color="#4DBCFA"/>
            <stop offset="100%" stop-color="#1486DB"/>
        </linearGradient>
    </defs>
    <g fill="none" fill-rule="evenodd" transform="translate(-20 -17)">
        <mask id="b" fill="#fff">
            <use xlink:href="#a"/>
        </mask>
        <g mask="url(#b)">
            <path fill="url(#c)" fill-rule="nonzero" d="M22.81 22.839V-7.424c-8.426 0-15.258 6.775-15.258 15.132 0 8.356 6.832 15.131 15.259 15.131z" transform="rotate(90 -31.529 74.446)"/>
            <g fill-rule="nonzero">
                <path fill="url(#d)" d="M5.06 21.13C8.127 9.198 15.585 5.003 27.432 8.549c-1.008 5.396-3.407 9.554-7.197 12.475-3.79 2.92-8.849 2.956-15.177.108z" transform="translate(153.162 17.648)"/>
                <path fill="#FFF" d="M167.368 33.455l.42-4.115c.017-.17.272-.144.254.026l-.4 3.935c3.109-1.759 6.993-3.94 11.653-6.546a.128.128 0 1 1 .125.224 3729.207 3729.207 0 0 0-6.959 3.9l3.61.861a.128.128 0 0 1-.06.25l-3.879-.926a1974.606 1974.606 0 0 0-4.598 2.592c-1.545.874-2.893 1.64-4.045 2.3l3.357 1.227a.128.128 0 0 1-.088.24l-3.544-1.295a.13.13 0 0 1-.015-.006 197.657 197.657 0 0 0-3.877 2.262.128.128 0 1 1-.133-.22c1.307-.794 4.034-2.363 8.179-4.709z"/>
                <path fill="url(#e)" d="M6.442 24.73C.179 14.12 2.489 5.876 13.372 0c3.1 4.53 4.342 9.167 3.725 13.914-.616 4.747-4.168 8.352-10.655 10.816z" transform="translate(153.162 17.648)"/>
                <path fill="#FFF" d="M162.31 32.141l-2.611-3.207c-.108-.132.09-.294.198-.162l2.497 3.067c.956-3.444 2.161-7.735 3.615-12.875a.128.128 0 1 1 .247.07c-.797 2.815-1.518 5.375-2.165 7.681l3.16-1.944a.128.128 0 1 1 .135.218l-3.397 2.09a1977.453 1977.453 0 0 0-1.42 5.087 953.523 953.523 0 0 0-1.235 4.488l3.24-1.508a.128.128 0 1 1 .109.233l-3.422 1.592a.13.13 0 0 1-.015.006 197.944 197.944 0 0 0-1.143 4.343.128.128 0 1 1-.249-.061c.363-1.487 1.182-4.526 2.456-9.118z"/>
                <path fill="url(#f)" d="M0 29.138c6.05-10.732 14.34-12.852 24.866-6.359-2.37 4.952-5.762 8.347-10.178 10.186-4.416 1.839-9.312.563-14.688-3.827z" transform="translate(153.162 17.648)"/>
                <path fill="#FFF" d="M163.374 44.013l1.47-3.866c.06-.16.3-.069.24.091l-1.406 3.697c3.458-.893 7.774-1.995 12.95-3.305a.128.128 0 1 1 .062.249c-2.834.717-5.41 1.372-7.73 1.965l3.263 1.767a.128.128 0 0 1-.122.225l-3.507-1.899a1973.722 1973.722 0 0 0-5.112 1.313 951.78 951.78 0 0 0-4.502 1.174l2.926 2.055a.128.128 0 0 1-.147.21l-3.09-2.17a.13.13 0 0 1-.012-.01c-2.008.53-3.45.925-4.33 1.181a.128.128 0 1 1-.071-.246c1.468-.429 4.507-1.239 9.118-2.43z"/>
            </g>
            <g fill-rule="nonzero">
                <path fill="url(#g)" d="M4.611 0h72.764a4.613 4.613 0 0 1 4.612 4.614v90.799a4.613 4.613 0 0 1-4.612 4.614H4.611A4.613 4.613 0 0 1 0 95.413V4.614A4.613 4.613 0 0 1 4.611 0z" transform="translate(77.718 28.8)"/>
                <path fill="url(#h)" d="M14.602 68.833h35.353v5.64H14.602v-5.64zm0 9.87h62.251v5.64h-62.25v-5.64zm0 9.87h62.251v5.64h-62.25v-5.64z" transform="translate(77.718 28.8)"/>
                <path fill="url(#i)" d="M14.602 17.176h62.251v46.145h-62.25z" transform="translate(77.718 28.8)"/>
                <path fill="url(#j)" d="M4.611 0h72.764a4.613 4.613 0 0 1 4.612 4.614v4.743H0V4.614A4.613 4.613 0 0 1 4.611 0z" transform="translate(77.718 28.8)"/>
            </g>
            <g fill-rule="nonzero">
                <path fill="url(#k)" d="M2.562 0h38.682a2.563 2.563 0 0 1 2.562 2.564v26.148a2.563 2.563 0 0 1-2.562 2.564H2.562A2.563 2.563 0 0 1 0 28.712V2.564A2.563 2.563 0 0 1 2.562 0z" transform="translate(43.646 97.504)"/>
                <path fill="#FFF" d="M56.968 104.554l17.292 8.652-17.292 8.652z"/>
            </g>
            <g fill-rule="nonzero" transform="translate(29.783 24.441)">
                <path fill="#F4B696" d="M2.499 83.499h3.044v3.047H2.499zM19.916 67.605h3.044v3.047h-3.044z"/>
                <path fill="#121958" d="M6.092 85.35h-3.96L.395 46.168l11.163 1.69z"/>
                <path fill="url(#l)" d="M23.869 69.366h-4.437l-.99-12.762-9.558-.478a8.97 8.97 0 0 1-8.518-8.823h20.1a5.125 5.125 0 0 1 5.096 5.654l-1.693 16.41z"/>
                <path fill="#F4B696" d="M7.996 24.256l-4.169-.587.224-1.598c-.75-1.6-.741-3.675.028-6.224.77-2.549 2.924-2.955 6.462-1.22-.11 1.519.15 2.524.781 3.016.946.738.578 1.251.194 1.373-.385.122-.66.383-.674 1.27-.015.887-.57.985-1.446 1.213-.583.152-1.05 1.071-1.4 2.757z"/>
                <path fill="url(#m)" d="M3.977 21.967c-.369-.139-.581-.37-.637-.694-.083-.485.199-.71-.753-1.707-.952-.998-1.716-2.316-1.109-4.61.607-2.293 1.982-2.48 3.352-2.596 1.371-.116 1.927.044 3.811-.572 1.884-.617 2.831.612 2.419 2.485-.413 1.874-3.245 1.802-3.742 1.732-.497-.07-.252.679-.203 1.448.049.77-.443.935-.622.826-.18-.109-.56-.237-.909.187-.348.423-.01 1.098.263 1.137.273.038.637-.04.649.271.012.312-.155 1.27-.476 1.776-.214.338-.895.443-2.043.317z"/>
                <path fill="#F4B696" d="M19.744 17.486c.65-.17 1.103-.451 1.356-.842.38-.585 1.852-1.89 2.666-1.568.814.322 1.467 1.036 1.235 2.033-.232.997-1.275 1.404-2.171 1.555-.897.152-1.438.5-1.972.918-.356.28-.727-.42-1.114-2.096z"/>
                <path fill="#FE9F9F" d="M20.945 16.935c.066-.89.226-1.411.48-1.563.253-.152.68.16 1.278.934l-1.758.63z"/>
                <path fill="#021038" d="M19.746 70.313h3.198l2.025.677c1.02.363 1.88.51 1.88 1.644 0 .292-.192.528-.43.528h-5.996a.677.677 0 0 1-.677-.677v-2.172zM2.33 86.208h3.197l2.025.677c1.02.362 1.88.51 1.88 1.644 0 .291-.192.527-.43.527H3.006a.677.677 0 0 1-.677-.676v-2.172z"/>
                <path fill="#0737A3" d="M18.451 13.991l3.38-1.723 3.166 5.545a.397.397 0 0 1-.167.55l-1.07.546a.399.399 0 0 1-.463-.072l-4.846-4.846z"/>
                <path fill="#00ADFF" d="M28.528.915l5.06 9.936-13.217 4.307a2.857 2.857 0 0 1-3.199-1.034 2.33 2.33 0 0 1 .315-3.086L28.528.915z"/>
                <ellipse cx="31.169" cy="5.832" fill="#0737A3" rx="1.665" ry="5.575" transform="rotate(-27 31.169 5.832)"/>
                <path fill="#F4B696" d="M20.919 39.485c.89.227 1.442.227 1.655 0 .213-.227.433-.555.66-.983.514.297.68.652.5 1.064.704.021 1.193.142 1.466.362.411.331.343 1.966-.497 2.526-.84.56-1.919-.101-2.555-.179a17.997 17.997 0 0 1-1.677-.312l.448-2.478z"/>
                <path fill="url(#n)" d="M6.727 24.31l13.19-7.262 1.64 2.353-10.638 10.034z"/>
                <path fill="#A587FF" d="M6.61 48.772l.099-.1.704.69-.099.101-.704-.691zm1.71 1.679l.098-.1c.233.228.483.438.747.627l-.082.115a6.475 6.475 0 0 1-.764-.642zm2.005 1.34l.055-.13c.3.127.609.231.924.311l-.034.137a6.472 6.472 0 0 1-.945-.318zm2.35.522l.011-.14.983.08-.011.141-.983-.081zm2.387.197l.011-.14.983.08-.011.14-.983-.08zm2.387.197l.012-.14.982.08-.011.14-.983-.08zm2.387.197l.012-.14.21.017c.28.023.54.13.753.306l-.09.109a1.206 1.206 0 0 0-.674-.275l-.21-.017zm1.329 1.513l.14-.003.02.987-.14.003-.02-.987zm.05 2.396l.14-.003.02.987-.14.003-.02-.987zm.049 2.397l.14-.003.021.987-.14.003-.021-.987zm.05 2.396l.14-.003.02.987-.14.003-.02-.987zm.05 2.397l.14-.003.02.987-.14.002-.02-.986zm.049 2.396l.14-.003.021.987-.14.003-.021-.987z"/>
                <path fill="url(#o)" d="M13.992 47.306l-13.598.238L0 28.41c.152-3.358 1.652-5.036 4.499-5.036 4.271 0 8.685.422 8.685 6.702l.374 6.483 7.973 2.639-.219 3.23-7.754-.697.434 5.575z"/>
                <path fill="#221E41" d="M13.557 41.73l.1 1.226-4.454-1.322-.07-8.145 1.114 5.907a2.179 2.179 0 0 0 1.401 1.646l1.91.689z"/>
                <path fill="#FE9F9F" d="M22.604 15.19c.341-.288.677-.404 1.009-.348.498.085 1.032.516 1.312 1.27.28.755.043 1.18-.142 1.457-.185.277-.699.386-.826 0-.085-.257.034-.494.358-.71-.467.227-.8.283-.999.17-.298-.17.08-.532.297-.705-.424.288-.699.36-.823.216-.186-.216-.021-.606.31-.833-.38.27-.644.338-.79.203-.145-.136-.047-.376.294-.72z"/>
            </g>
            <g fill-rule="nonzero" transform="translate(21.103 40.464)">
                <ellipse cx="119.699" cy="9.549" fill="url(#p)" rx="9.543" ry="9.549"/>
                <path fill="#FFF" d="M123.896 10.144l-4.228 4.216-4.228-4.216a3.158 3.158 0 0 1 0-4.475 3.18 3.18 0 0 1 4.228-.231 3.18 3.18 0 0 1 4.228.231 3.158 3.158 0 0 1 0 4.475z"/>
                <path fill="url(#q)" d="M0 42.3h18.445a6.407 6.407 0 0 1 6.405 6.408v7.435H6.404A6.407 6.407 0 0 1 0 49.733V42.3z"/>
                <path fill="#FFF" d="M6.912 50.15a1.23 1.23 0 1 1 0-2.46 1.23 1.23 0 0 1 0 2.46zm5.534 0a1.23 1.23 0 1 1 .001-2.46 1.23 1.23 0 0 1-.001 2.46zm5.534 0a1.23 1.23 0 1 1 .002-2.46 1.23 1.23 0 0 1-.002 2.46z"/>
                <path fill="url(#q)" d="M92.48 57.296h18.445a6.407 6.407 0 0 1 6.405 6.41v7.434H98.884a6.407 6.407 0 0 1-6.404-6.41v-7.434z"/>
                <path fill="#FFF" d="M99.392 65.148a1.23 1.23 0 1 1 0-2.461 1.23 1.23 0 0 1 0 2.46zm5.534 0a1.23 1.23 0 1 1 .001-2.461 1.23 1.23 0 0 1-.001 2.46zm5.534 0a1.23 1.23 0 1 1 .001-2.461 1.23 1.23 0 0 1 0 2.46z"/>
            </g>
            <g fill-rule="nonzero">
                <path fill="#211D41" d="M159.695 74.123v-4.746l5.507-.457v5.65z"/>
                <path fill="#021038" d="M153.872 126.966a9.565 9.565 0 0 1 1.582-.77c.735-.267.782.008.782.324v1.598c0 .573-.177.636-1.185.567-1.008-.069-1.131-.162-2.188 0-1.058.162-3.192.131-3.657-.613-.465-.743 1.036-1.049 2.348-1.227.875-.119 1.648-.079 2.318.12z"/>
                <path fill="#F4B696" d="M156.816 123.525l-.58 3.066-.664.26a4.74 4.74 0 0 1-3.73-.117l1.624-.351v-2.858h3.35z"/>
                <path fill="#021038" d="M170.524 126.966a9.565 9.565 0 0 1 1.581-.77c.735-.267.783.008.783.324v1.598c0 .573-.178.636-1.185.567-1.008-.069-1.132-.162-2.189 0-1.057.162-3.191.131-3.656-.613-.466-.743 1.035-1.049 2.348-1.227.874-.119 1.647-.079 2.318.12z"/>
                <path fill="#F4B696" d="M172.888 123.525v3.066l-.665.26a4.74 4.74 0 0 1-3.73-.117l1.624-.351v-2.858h2.77z"/>
                <path fill="#211D41" d="M169.727 125.214l-5.882-36.842 11.092-.225-1.607 37.067z"/>
                <path fill="url(#r)" d="M8.11 70.91l3.183-21.502c.032-.216.093-.427.181-.627l6.37-14.437 12.28-.12-.121 2.552a12.821 12.821 0 0 1-4.41 9.078l-7.75 6.713-5.922 18.344H8.11z" transform="translate(144.812 54.051)"/>
                <path fill="#F4B696" d="M147.447 55.76c.251-.195.637-.295 1.156-.299.009.447.052.86.13 1.24.078.38.316.88.715 1.502l-.094.113c.073.065.147.126.222.184l-1.772 2.082c-2.156-1.602-3.147-2.934-2.972-3.996.174-1.062.83-1.736 1.965-2.022.23.439.446.838.65 1.196zM167.37 66.373c-.457-1.878-1.008-2.817-1.651-2.817-.966 0-1.442-.563-1.589-1.393-.03-.172-.09-.53-.178-1.073l-.746-.13.255-3.676c3.574-1.481 5.791-1.09 6.651 1.173.86 2.263.86 4.15 0 5.662l.305 1.435-3.047.82z"/>
                <path fill="url(#s)" d="M23.315 11.304H25c2.972 0 5.38 2.41 5.38 5.384V34.36H17.878l.691-11.443c-1.03-.768-1.63-1.764-1.801-2.989-.172-1.225.198-2.26 1.11-3.108l-9.93-4.684a2.562 2.562 0 0 1-.796-.587l-4.96-5.417L4.55 3.717 9.326 7.63c8.71 2.45 13.373 3.675 13.989 3.675z" transform="translate(144.812 54.051)"/>
                <path fill="#A587FF" d="M155.35 122.907l-.125-.028.193-.876.125.027-.193.877zm.469-2.128l-.125-.028.193-.876.125.028-.193.876zm.468-2.128l-.125-.028.193-.876.126.028-.194.876zm.47-2.128l-.126-.028.193-.876.125.028-.193.876zm.468-2.128l-.125-.028.193-.876.125.028-.193.876zm.469-2.128l-.125-.028.193-.876.125.028-.193.876zm.469-2.128l-.126-.028.194-.876.125.028-.193.876zm.468-2.128l-.125-.028.193-.876.125.028-.193.876zm.47-2.128l-.126-.028.193-.876.125.028-.193.876zm.583-2.078l-.114-.058a3.91 3.91 0 0 1 .284-.47l.206-.291.104.074-.205.292a3.782 3.782 0 0 0-.275.453zm1.218-1.793l-.105-.074.517-.733.105.073-.517.734zm1.255-1.781l-.105-.074.516-.734.105.074-.516.734zm1.254-1.782l-.105-.073.517-.734.105.074-.517.733zm1.254-1.78l-.104-.074.516-.734.105.074-.517.733zm1.255-1.782l-.105-.074.517-.733.104.074-.516.733zm1.254-1.781l-.104-.074.516-.733.105.074-.517.733zm1.255-1.781l-.105-.074.516-.733.105.073-.516.734zm1.254-1.781l-.105-.074.055-.078.105.074-.055.078z"/>
                <path fill="url(#t)" d="M19.236 4.64c-2.242-.36-1.642-3.642.444-4.129 2.085-.486 8.03-2.15 8.03 5.133 0 7.284 5.614 3.439 7.908 9.113 1.529 3.783-.268 6.847-5.391 9.193 0-3.64.881-6.458-3.321-9.541-4.203-3.084-3.71-5.825-3.71-7.571 0-1.746-1.718-1.837-3.96-2.197z" transform="translate(144.812 54.051)"/>
            </g>
            <g fill-rule="nonzero">
                <path fill="url(#u)" d="M1.28 0h61.483c.708 0 1.281.574 1.281 1.282v43.581c0 .708-.573 1.282-1.28 1.282H1.28C.573 46.145 0 45.57 0 44.863V1.282C0 .574.573 0 1.28 0z" transform="translate(58.76 45.848)"/>
                <path fill="#FFF" d="M62.604 83.02h12.808v1.923H62.604zM62.604 86.865H88.22v1.923H62.604zM62.604 49.693h56.359v30.763h-56.36z"/>
                <path fill="url(#v)" d="M60.138 14.1V3.91H49.955c0 5.627 4.559 10.19 10.183 10.19z" transform="translate(58.76 45.848)"/>
                <path fill="url(#w)" d="M32.086 15.51l9.543 19.099H22.544z" transform="translate(58.76 45.848)"/>
                <path fill="url(#x)" d="M17.036 8.204l13.193 26.405H3.843z" transform="translate(58.76 45.848)"/>
            </g>
        </g>
    </g>
</svg>
