<svg xmlns="http://www.w3.org/2000/svg" xmlns:xlink="http://www.w3.org/1999/xlink" width="15" height="17" viewBox="0 0 15 17">
    <defs>
        <path id="a" d="M.032 0h14.936v16.998H.032z"/>
    </defs>
    <g fill="none" fill-rule="evenodd">
        <g>
            <mask id="b" fill="#fff">
                <use xlink:href="#a"/>
            </mask>
            <path fill="#FFF" d="M14.18 11.352a8.553 8.553 0 0 1-2.12 3.2c-1.064 1.008-2.458 1.808-4.142 2.38a1.31 1.31 0 0 1-.403.068H7.5a1.323 1.323 0 0 1-.417-.068c-1.686-.57-3.081-1.37-4.147-2.378a8.537 8.537 0 0 1-2.119-3.2C-.039 9.105.01 6.624.05 4.63v-.031c.009-.165.014-.337.017-.528.014-.938.783-1.713 1.75-1.765 2.017-.11 3.577-.747 4.91-2.006l.012-.01a1.145 1.145 0 0 1 1.525 0l.011.01c1.334 1.259 2.894 1.896 4.91 2.006.968.052 1.737.827 1.75 1.765.004.192.009.364.017.528v.013c.04 1.997.088 4.482-.772 6.74z" mask="url(#b)"/>
        </g>
        <path fill="#E7E7E7" d="M11.871 8.5c0 2.331-1.953 4.229-4.356 4.237H7.5c-2.41 0-4.372-1.9-4.372-4.237 0-2.336 1.962-4.237 4.372-4.237h.015c2.403.009 4.356 1.906 4.356 4.237z"/>
        <path fill="#31B744" d="M9.484 7.89L7.09 10.21a.521.521 0 0 1-.364.147.522.522 0 0 1-.364-.146l-.915-.887a.488.488 0 0 1 0-.706.526.526 0 0 1 .728 0l.55.534 2.031-1.967a.526.526 0 0 1 .728 0 .488.488 0 0 1 0 .705z"/>
    </g>
</svg>
