<svg width="175" height="56" viewBox="0 0 175 56" fill="none" xmlns="http://www.w3.org/2000/svg">
<g clip-path="url(#clip0_1450_17179)">
<path fill-rule="evenodd" clip-rule="evenodd" d="M22.487 0.790912L1.61943 12.8405C0.61658 13.4172 0 14.488 0 15.6423V39.7415C0.00362694 40.8967 0.61658 41.963 1.61943 42.5434L22.487 54.593C23.4899 55.1706 24.7231 55.1706 25.7259 54.593L46.5981 42.5434C47.5964 41.9667 48.213 40.8967 48.213 39.7415V15.6423C48.213 14.488 47.5964 13.4172 46.5981 12.8405L25.7259 0.790912C25.258 0.522518 24.7267 0.370186 24.1835 0.359305C24.1591 0.358398 24.1337 0.358398 24.1083 0.358398C23.5398 0.358398 22.983 0.507103 22.487 0.790912ZM24.1065 7.32938L41.738 17.5093V37.8719L24.1065 48.0518V7.32938Z" fill="url(#paint0_linear_1450_17179)"/>
<path fill-rule="evenodd" clip-rule="evenodd" d="M72.0257 9.41211V36.9297H76.8323V25.6517C76.8323 25.1068 76.8713 24.6036 77.0272 24.2173C77.5296 22.7828 78.8471 21.5433 80.7068 21.5433C83.3417 21.5433 84.3519 23.598 84.3519 26.3499V36.9297H89.1158V25.8041C89.1158 19.7616 85.7437 17.6299 82.5275 17.6299C81.327 17.6299 80.2035 17.9381 79.2723 18.4795C78.3057 18.9863 77.4906 19.7616 76.9103 20.6511H76.8323V9.41211H72.0257ZM132.82 9.41211V20.1089H132.742C131.891 18.7134 130.029 17.6299 127.432 17.6299C122.898 17.6299 118.946 21.3874 118.985 27.7028C118.985 33.5186 122.552 37.355 127.046 37.355C129.798 37.355 132.082 36.0375 133.209 33.9438H133.287L133.478 36.9297H137.742C137.665 35.6512 137.587 33.5576 137.587 31.6199V9.41211H132.82ZM93.9116 9.4511C92.0981 9.4511 90.8613 10.7332 90.8613 12.4161C90.8613 14.0492 92.0555 15.3313 93.8653 15.3313C95.7677 15.3313 96.9609 14.0492 96.9609 12.4161C96.9183 10.7332 95.7677 9.4511 93.9116 9.4511ZM64.7609 17.6299C60.3796 17.6299 57.6276 20.2258 57.6276 23.559C57.5886 25.7651 59.1401 27.7808 62.8205 29.0629C65.1472 29.8744 65.9224 30.5327 65.9224 31.8112C65.9224 33.0516 64.9912 33.9049 62.8985 33.9049C61.1947 33.9049 59.1401 33.2067 58.0565 32.5484L57.1244 35.9985C58.5199 36.7738 60.5745 37.355 62.8595 37.355C67.8601 37.355 70.5341 34.8361 70.5341 31.4258C70.4951 28.634 68.9047 26.8922 65.4945 25.6517C63.0925 24.7985 62.2003 24.2173 62.2003 23.0131C62.2003 21.8516 63.1315 21.0401 64.8353 21.0401C66.5037 21.0401 68.0161 21.6603 68.8276 22.1245L69.7588 18.7524C68.6753 18.1712 66.8509 17.6299 64.7609 17.6299ZM109.641 17.6299C106.772 17.6299 104.566 18.8304 103.17 20.963H103.092L102.858 18.0542H98.6719C98.7499 19.8359 98.827 21.8516 98.827 24.3343V44.6016H103.595V34.8361H103.673C104.64 36.3485 106.616 37.355 108.982 37.355C113.282 37.355 117.586 34.0608 117.586 27.2385C117.586 21.3484 113.979 17.6299 109.641 17.6299ZM147.363 17.6299C144.377 17.6299 141.936 18.4405 140.54 19.2946L141.473 22.3938C142.751 21.5823 144.689 20.9984 146.548 20.9984C149.881 20.9984 150.384 23.0558 150.384 24.2953V24.6036C143.409 24.5646 139.184 26.9701 139.184 31.7332C139.184 34.6021 141.317 37.355 145.113 37.355C147.554 37.355 149.533 36.3095 150.696 34.8361H150.809L151.12 36.9297H155.424C155.23 35.7646 155.152 34.0998 155.152 32.3924V25.5738C155.152 21.4653 153.409 17.6299 147.363 17.6299ZM91.5486 36.9297H96.3552V18.0542H91.5486V36.9297ZM155.297 18.0542L162.196 35.3783C162.43 35.8426 162.469 36.1146 162.469 36.3059C162.469 36.5398 162.352 36.8128 162.157 37.16C161.499 38.4385 160.453 39.5647 159.561 40.1459C158.591 40.8432 157.584 41.2685 156.77 41.4634L157.857 45.4938C159.058 45.3379 160.995 44.7186 162.855 43.0502C165.104 41.1125 166.847 37.9743 169.443 30.9226L174.171 18.0542H169.057L166.11 28.1317C165.763 29.3712 165.412 30.7666 165.104 31.8502H164.987C164.715 30.7666 164.329 29.3322 163.939 28.1707L160.531 18.0542H155.297ZM128.598 21.3094C130.765 21.3094 132.277 22.8218 132.703 24.6815C132.781 25.0678 132.82 25.5348 132.82 25.921V28.751C132.82 29.2542 132.781 29.7185 132.664 30.1464C132.199 32.2011 130.496 33.5186 128.555 33.5186C125.534 33.5186 123.83 30.997 123.83 27.5505C123.83 24.0232 125.534 21.3094 128.598 21.3094ZM108.05 21.3874C111.111 21.3874 112.74 24.1003 112.74 27.4335C112.74 31.1529 110.958 33.6709 107.933 33.6709C105.919 33.6709 104.215 32.2791 103.751 30.3414C103.634 29.9134 103.595 29.4881 103.595 29.0239V26.116C103.595 25.7261 103.673 25.3017 103.79 24.9155C104.254 22.8218 106.075 21.3874 108.05 21.3874ZM149.87 27.6992C150.079 27.6992 150.291 27.6992 150.501 27.7064V30.3024C150.501 30.6107 150.462 31.0006 150.345 31.3479C149.92 32.7043 148.524 33.9438 146.626 33.9438C145.113 33.9438 143.913 33.0906 143.913 31.2309C143.913 28.5424 146.739 27.7273 149.87 27.6992Z" fill="#323C46"/>
</g>
<defs>
<linearGradient id="paint0_linear_1450_17179" x1="14.1963" y1="47.9311" x2="43.7806" y2="-1.81302" gradientUnits="userSpaceOnUse">
<stop stop-color="#31C895"/>
<stop offset="1" stop-color="#E1C831"/>
</linearGradient>
<clipPath id="clip0_1450_17179">
<rect width="175" height="55.3109" fill="white" transform="translate(0 0.344727)"/>
</clipPath>
</defs>
</svg>
