<svg xmlns="http://www.w3.org/2000/svg" width="1401" height="286" viewBox="0 0 1401 286">
    <defs>
        <linearGradient id="a" x1="47.372%" x2="47.372%" y1="-5.659%" y2="38.742%">
            <stop offset="0%" stop-color="#FFF"/>
            <stop offset="100%" stop-color="#1394FF"/>
        </linearGradient>
    </defs>
    <g fill="none" fill-rule="evenodd" transform="translate(-42)">
        <path fill="url(#a)" d="M1056.353 1300.327c-1.022-5.384-3.166-12.217-6.215-20.292-.12-.355-.25-.701-.393-1.044-5.126-13.42-12.688-30.193-21.81-49.54l138.343-32.536 3.101 63.416 1.799 87.479c-13.918 1.026-27.115 2.067-39.248 3.12-16.21 1.405-31.663 2.679-46.402 3.891-5.55.457-10.975.905-16.322 1.348-6.59-27.494-11.394-48.166-12.853-55.842zm-192.319 95.269c-33.195 17.128-91.223 24.945-135.863 27.412 8.76-25.67 9.847-49.128 9.209-68.607 14.088 6.648 31.322 8.99 51.565 7.013 13.787-1.344 28.97-4.689 45.488-10.035 75.714-24.497 156.458-40.73 188.41-46.702.164.677.315 1.328.427 1.93 1.443 7.598 5.894 26.847 12.013 52.473-74.827 6.728-128.33 14.372-171.249 36.516zm-156.16-103.046a33.2 33.2 0 0 0-3.44 8.62c-4.35-1.95-9.102-3.808-14.357-5.555 15.73-5.593 18.097-8.69 19.929-11.093 5.108-6.694 14.617-19.16 3.396-160.304-1.584-19.92-3.493-40.788-5.547-61.065 22.631-1.519 63.792-5.543 82.748-15.353 8.72-4.516 18.752-9.277 29.13-13.97l7.243 16.795c-11.483 5.639-23.742 12.009-34.517 18.352-28.535 16.797-51.112 20.068-51.31 20.094a9.472 9.472 0 0 0-8.2 10.11l12.731 167.028c-18.982 6.58-31.486 15.29-37.806 26.34zm-16.23 131.336c-8.098-.114-14.645-.482-19.055-1.042-27.398-3.463-71.876 15.04-90.612 23.597-5.969-3.963-15.815-11.69-26.756-25.112-9.905-12.155-10.552-62.473-5.545-103.753 6.261-2.581 20.547-4.138 38.947-3.904 3.04.205 6.225.299 9.558.274 16.462.716 35.338 2.77 54.35 6.63 34.304 6.96 47.608 15.612 50.319 18.777 1.532 22.648 3.253 52.087-11.206 84.533zm-29.154 42.971c-5.574 6.564-11.34 13.351-16.412 20.054a271.234 271.234 0 0 0-7.368 10.252 821.24 821.24 0 0 1-10.699-14.63c-3.8-5.327-7.978-9.85-12.467-13.719 19.955-7.712 41.574-13.992 52.812-12.563.847.109 1.778.21 2.789.305-2.72 3.314-5.655 6.768-8.655 10.301zm22.084-219.716c-.318 7.008-.823 11.924-1.4 15.078-11.616 4.548-43.036 14.49-72.245 17.338-4.683.457-8.763.662-12.361.704a330.32 330.32 0 0 0-8.438-.255c-8.254-.659-12.412-2.374-14.175-3.372-6.714-3.794-11.91-8.172-15.664-13.185l124.283-16.308zm-185.479-246.87c-2.663-6.707-5.816-12.295-9.287-17.008 41.11-11.366 93.117-37.053 152.93-69.826 7.993 13.463 14.42 27.781 17.29 42.037 2.112 10.474 4.952 29.64 7.983 54.074l-33.512 7.752-3.082-24.96c-.642-5.192-5.399-8.819-10.558-8.238-5.192.638-8.881 5.367-8.241 10.556l4.37 35.399a9.486 9.486 0 0 0 3.974 6.6 9.458 9.458 0 0 0 7.563 1.466l41.746-9.658c3.154 27.36 6.368 59.32 9.07 92.296 4.083 49.873 5.51 84.351 5.575 107.23l-131.726 17.287c-.006-.05-.015-.1-.02-.149-1.36-12.513-3.35-26.639-5.792-41.66l107.469-11.418c5.202-.554 8.97-5.218 8.418-10.42-.552-5.172-5.169-8.928-10.337-8.424l-.084.006-108.653 11.546c-12.593-70.783-33.028-154.122-45.096-184.488zm-53.105 474.005c-27.4 8.458-55.734 17.202-80.911 21.227-32.595 5.216-60.52-2.612-89.593-11.628 1.963-4.95 9.009-20.26 25.56-34.001a9.504 9.504 0 0 0 2.328-1.873c8.335-6.49 18.891-12.491 32.141-16.693a9.18 9.18 0 0 0 1.761-.542c16.041-4.801 35.928-6.98 60.465-4.331 4.434.472 8.617-2.21 10.01-6.454.46-1.4 10.524-33.175-6.246-82.103l2.76-.274c5.205-.514 9.007-5.152 8.493-10.356-.514-5.202-5.144-9.003-10.343-8.495l-.013.002-7.829.773c-7.493-19.483-13.368-35.616-16.842-48.607l101.29-2.204 13.483 114.23a9.475 9.475 0 0 0 7.88 8.24l13.627 2.222c1.824 19.8 6.174 38.229 15.11 49.19a187.796 187.796 0 0 0 7.773 8.944c-28.665 3.53-60.012 13.2-90.904 22.733zm-190.796-44.009l-1.161-77.812 64.152-6.343 5.418 69.392c-12.292 4.607-22.298 10.487-30.311 16.522l-38.098-1.759zm-32.253-1.487l3.396-73.59 8.78-.867 1.121 75.068-13.297-.61zm159.142-88.985c11.767 31.848 10.743 55.755 9.126 67.05-11.152-.763-21.407-.58-30.83.34-6.455.63-12.518 1.602-18.205 2.855l-5.136-65.792 45.045-4.453zm-153.488-33.54a448.294 448.294 0 0 0 22.563-4.453c41.98-9.42 77.209-24.143 104.723-43.546.162 1.332.358 2.688.589 4.077.045.693.167 1.365.352 2.009 2.795 15.17 9.273 33.732 18.204 57.118l-147.806 14.61 1.375-29.815zm284.374 67.792l-2.49-.407-12.433-105.336 26.357-.573c2.782 6.956 6.67 13.389 11.617 19.23-10.337 4.363-18.333 11.45-19.33 23.029-1.202 9.24-4.282 36.086-3.72 64.057zm-138.155-130.993c7.398-6.781 14.023-14.01 19.83-21.657a9.465 9.465 0 0 0 1.064-1.416 147.647 147.647 0 0 0 11.546-18.181c52.599-98.083 32.012-173.51 23.776-195.748l22.628-10.762c5.907 3.355 10.54 8.34 14.143 17.416 13.591 34.2 43.765 161.22 51.893 236.061.003.04.011.08.017.118l-23.896.524-26.379-223.474c-.613-5.193-5.383-8.951-10.514-8.294-5.195.61-8.91 5.32-8.297 10.512l26.166 221.667-102.498 2.231c-.193-3.375-.03-6.37.521-8.997zm-27.21-100.425l69.727-20.792c-4.712 21.31-12.976 45.29-26.769 71.01a130.558 130.558 0 0 1-3.158 5.557l-39.8-55.775zm26.567-130.515l-104.87-70.4 13.515-19.276 15.294 11.708c4.154 3.18 10.098 2.393 13.279-1.763 3.177-4.154 2.387-10.098-1.765-13.277l-23.138-17.712a9.42 9.42 0 0 0-7.2-1.841 9.477 9.477 0 0 0-6.311 3.925l-8.687 12.39-6.916-5.847 26.005-34.11c50.587 48.509 94.388 86.111 127.045 103.173.008.006.015.013.025.019 5.74 3.451 11.632 5.65 17.474 7.453l-53.75 25.558zm-34.262 16.292l-98.847-15.36 10.336-45.792 7.029-10.027 95.852 64.347-14.37 6.832zM193.836 918.68l56.376-75.117a3139.05 3139.05 0 0 0 25.535 24.997l-29.779 39.06a5.26 5.26 0 0 0 .79 7.21l11.467 9.689-9.894 14.112c-.055.078-.114.158-.17.242l-7.98 11.384-46.345-31.577zm28.467 91.452l-19.011-2.953-6.707-63.705 35.328 24.07-9.61 42.588zM84.637 988.743c.268-.618.472-1.27.588-1.947.025-.149 2.67-15.112 16.293-49.199 5.989-14.982 14.714-34.227 24.807-53.571.107.063.2.14.313.198l50.46 25.202-4.363 5.814a9.487 9.487 0 0 0-1.769 7.234 9.476 9.476 0 0 0 4.012 6.275l12.233 8.336c-1.026 1.068-1.609 2.546-1.441 4.14l6.764 64.283-107.897-16.765zm74.439-158.502c7.883 4.982 15.63 9.854 20.564 12.89 8.026 4.935 14.881 4.604 19.207 3.454 7.39-1.957 12.228-7.32 14.57-10.559l21.102-8.064c.714.712 1.417 1.41 2.129 2.121L183.52 900.87l-52.18-26.06c-.029-.012-.057-.017-.086-.03 8.736-16.038 18.268-31.683 27.822-44.539zm21.156-57.128l5.439 5.53c-6.383 6.313-12.81 12.404-18.883 17.73-4.253 3.732-8.533 8.2-12.792 13.207a7036.328 7036.328 0 0 1-8.905-5.664l35.14-30.803zm-31.621-73.62l25.344-24.549 46.463 48.955-22.217 19.472c-4.892-4.969-9.663-9.8-14.262-14.444-10.477-10.568-22.396-20.349-35.328-29.434zm-68.882-38.69c13.719-19.56 29.493-43.504 45.366-68.293l47.474 41.793a16.828 16.828 0 0 0-9.827 4.62L119.304 681c-12.698-7.245-25.978-13.96-39.575-20.197zm76.94-118.396l32.276 14.83 4.756 89.597-7.033-7.408c-.121-.13-.257-.242-.382-.367 1.753-2.18 1.513-5.367-.61-7.235l-54.854-48.29a4658.73 4658.73 0 0 0 25.847-41.127zm89.625 73.757c.011 2.877-2.024 6.496-5.892 10.505l-.697-.257c-5.186-1.91-9.76-6.461-10.878-10.825-.731-2.85.362-4.529 1.247-5.545 1.982-2.275 4.07-3.532 6.216-3.741.103-.01.207-.017.31-.023 2.147-.108 3.65.84 3.872 1.043.349.385.806.84 1.339 1.36 2.358 2.309 4.475 4.618 4.483 7.483zm-66.99-110.476l107.049 69.197a7.374 7.374 0 0 0 5.92.925 7.367 7.367 0 0 0 4.647-3.78l20.907-41.241a7.366 7.366 0 0 0-3.24-9.9 7.36 7.36 0 0 0-9.897 3.238l-17.21 33.944-100.5-64.963a6669.322 6669.322 0 0 0 14.176-23.394l92.319 56.066a7.331 7.331 0 0 0 4.532 1.035 7.366 7.366 0 0 0 3.115-13.627l-92.372-56.097c4.81-8.019 7.836-13.104 8.493-14.212.163-.27.316-.546.462-.828.53-1.017 3.558-6.855 8.25-16.13 5.172.982 26.741 5.395 47.51 14.321-.006.054-.01.107-.01.16l-1.224 27.599a7.369 7.369 0 0 0 4.658 7.18c10.208 4.02 58.88 22.593 81.355 20.455l32.552 22.683a935.133 935.133 0 0 0 18.451 42.59c8.038 17.35 16.373 33.893 24.966 49.57L351.4 711.623l-44.285-41.913c-1.689-1.599-3.813-2.412-5.964-2.536l-1.032-1.106a7.436 7.436 0 0 0-.389-.386c-1.047-.97-21.859-20.081-45.38-32.611 4.452-5.666 6.694-11.349 6.675-16.953-.028-9.268-6.025-15.14-8.907-17.962-.303-.295-.568-.547-.762-.758-3.347-3.676-8.965-5.92-14.657-5.858-4.628.046-11.46 1.628-17.731 8.824-4.61 5.289-6.176 11.994-4.413 18.88 2.337 9.128 10.211 17.37 20.063 20.994 24.924 9.17 52.382 33.782 54.923 36.09l1.767 1.896c.339 1.936 1.249 3.786 2.787 5.243l1.527 1.445-32.7 34.857-58.057-61.17-5.578-105.094c-.006-.093-.033-.18-.042-.272a5.148 5.148 0 0 0-.084-.54 5.326 5.326 0 0 0-1.09-2.253 5.154 5.154 0 0 0-1.609-1.3c-.08-.04-.15-.097-.233-.135l-33.97-15.61a6309.414 6309.414 0 0 0 17.046-27.706zm54.454-95.342c1.03-2.071 2.09-4.211 3.189-6.437 22.144 4.234 71.202 11.802 103.564 3.239 1.835-.486 3.632-.952 5.408-1.411 2.197 9.144 6.998 20.627 12.001 31.176l-63.777-2.943c-.872-.476-1.744-.945-2.604-1.404-11.95-6.368-26.388-11.898-42.915-16.44-6.57-1.805-11.382-3.014-14.958-3.781l.092-2zm25.133-52.068l5.393-8.711c11.343-.834 47.337-3.414 92.797-6.022-2.919 11.367-9 35.319-11.487 47.07a851.63 851.63 0 0 0-8.85 2.29c-27.485 7.27-70.523 1.291-93.058-2.76a2400.307 2400.307 0 0 0 15.205-31.867zm47.225-112.888c8.346-24.523 15.197-55.35 22.449-87.988 5.311-23.894 11.066-49.792 18.083-76.053l77.879 15.778-27.115 146.776c-.061.33-.1.662-.114.997l-1.17 25.347-1.686 56.47c-55.33 2.798-103.735 6.154-124.553 7.664 13.621-30.137 27.039-62 36.227-88.991zM430.309 5.896c9.657 2.461 31.691 7.168 53.394 11.678L469.8 91.287l-57.583-11.668c5.64-30.717 13.368-63.945 18.092-73.723zm63.701 13.81a9242.89 9242.89 0 0 0 27.306 5.578 9453.88 9453.88 0 0 1 36.837 51.976c9.808 13.935 18.373 26.213 25.86 37.169L480.116 93.377l13.895-73.671zm80.302 12.372l63.296 5.951c1.889 22.198 2.574 55.489-2.838 66.36-2.536 5.094-6.077 8.578-9.603 10.976-10.587-16.159-23.6-34.93-39.478-57.487a11130.89 11130.89 0 0 0-12.313-17.456l.936-8.344zm70.928 83.668l46.088 7.925-12.456 52.09c-6.78 1.22-13.134 3.348-18.61 5.657-4.938-15.318-13.554-32.015-27.114-53.625 4.262-2.814 8.547-6.7 12.092-12.047zm7.26-76.317l78.706 7.4-19.458 65.407-60.707-10.44c4.133-18.324 2.621-47.522 1.458-62.367zm83.543 157.727L707.75 309.775l-56.279.118c.722-4.64 1.527-9.376 2.452-14.24 1.09-5.723 2.138-11.1 3.128-16.182 6.758-34.66 10.707-57.096 7.575-79.292 7.912-3.708 18.731-7.394 29.1-6.375 4.89.478 20.542 1.706 42.317 3.352zm84.972 73.734c.235 12.75 1.327 25.695 3.075 38.64l-100.695.212 15.25-50.935 82.37 12.083zm-70.061-72.61c22.024 1.652 48.3 3.594 75.342 5.58-1.39 13.297-2.665 24.935-3.767 34.172-.704 5.913-1.139 11.921-1.37 17.988l-81.7-11.984 11.495-45.757zm24.533-97.657l50.825 11.158 8.254 8.393c-2.178 22.899-4.335 45.085-6.332 64.833a56869.115 56869.115 0 0 1-72.597-5.371l19.85-79.013zm69.737 301.247l-194.891 10.684c-3.172-19.283-5.485-49.03-.882-87.926l176.895-.37c4.575 26.837 11.544 53.307 18.878 77.612zm12.311 38.519l-100.392-.619a7.347 7.347 0 0 0-5.245 2.15 7.363 7.363 0 0 0-2.167 5.235c.061 25.447-.706 55.209-2.069 64.505-8.078 1.323-32.046.883-55.466-.43a38894.46 38894.46 0 0 0-35.842-73.396c-.434-1.207-1.654-4.83-3.082-10.686l196.439-10.771a1715.56 1715.56 0 0 0 7.824 24.012zm165.215-165.008c1.569 11.47 5.224 38.32 9.382 69.531l-160.602 26.65c-9.607-35.063-17.212-72.978-16.881-107.843l168.101 11.662zM855.966 242.02c1.146-9.612 2.48-21.779 3.932-35.701 62.36 4.558 121.18 8.803 133.93 9.722l41.582 24.012-10.53 20.71-169.597-11.766c.188-2.343.41-4.673.683-6.977zm10.47-101.375c45.364 2.871 108.34 8.613 129.812 14.971l-3.92 41.327c-16.599-1.197-71.912-5.195-130.498-9.477 1.47-14.552 3.021-30.38 4.605-46.82zm139.98 19.217c18.857 8.605 58.226 24.69 99.465 36.091l-27.669 46.945-75.535-43.62 3.739-39.416zM1020.65 9.743l48.552 15.048-19.356 108.824a7.375 7.375 0 0 0 1.565 5.97 7.362 7.362 0 0 0 5.557 2.684c18.98.337 49.682 1.607 59.41 3.756 1.712 4.514-.264 20.319-4.4 36.36-44.86-12.176-88.078-30.424-104.087-38.09l12.76-134.552zm62.923 18.387l121.517 12.715-.343 7.131-20.465 147.261c-7.52-.845-14.587-1.667-20.706-2.38-11.959-1.391-24.59-3.803-37.307-6.832 3.57-13.665 8.452-37.378 2.714-47.727-2.225-4.013-5.39-5.597-7.653-6.221-9.996-2.753-40.175-3.915-55.475-4.337l17.718-99.61zm38.479 261.954l-14.988 6.18a7.366 7.366 0 0 0-4.55 6.47l-.98 21.24-16.68 5.186-7.525-15.073-9.85-36.46 12.007-12.12 42.566 24.577zm27.326 83.285l-37.153 10.62-20.704-41.474 19.32-6.006a7.365 7.365 0 0 0 5.17-6.694l1.002-21.718L1134.22 301l15.157 72.37zm3.03 14.457l17.104 81.666c-11.066 6.036-19.844 10.472-25.554 12.79l-11.813 3.866-15.745-88.034 36.007-10.288zm22.553 100.21l32.826 66.289c-20.669 10.958-39.474 22.228-55.507 33.71-62.112 44.473-113.116 78.537-155.975 105.222-4.997-21.922-16.722-58.61-44.188-105.19a515.506 515.506 0 0 1-10.946-19.529l208.98-68.352c.194-.065.388-.135.579-.212 5.566-2.233 13.867-6.36 24.23-11.938zm51.098 195.289l-76.542 28.625-31.014-58.96a3907.712 3907.712 0 0 0 53.38-37.578c10.436-7.474 22.207-14.883 35.011-22.192 3.78 9.247 8.122 23.862 9.508 44.42.662 9.828 4.462 26.53 9.657 45.685zm34.314 109.877l-86.697 3.641-15.028-66.834a9.686 9.686 0 0 0-.328-1.13l72.895-27.261c10.095 34.707 22.727 72.632 29.158 91.584zm4.41-174.045c3.879.47 8.739 1.203 14.366 2.048 9.673 1.457 21.768 3.271 35.151 4.668l5.847 164.816-40.04 1.683c-9.169-26.864-42.857-127.18-44.807-156.009-.215-3.181-.5-6.227-.834-9.17 3.084-3.031 12.447-10.216 30.318-8.036zm58.343 255.419c.01.255.068.495.099.746l-75.017-7.903-6.865-54.46 32.312-1.36c.12-.001.242-.007.364-.015l46.8-1.966 2.307 64.958zm29.346 24.99l-.264 126.179-36.033.946a9.238 9.238 0 0 0-.721-1.744l-.851-129.37 37.87 3.99zm31.304-273.373l16.87 257.284-59.077-6.221a9.382 9.382 0 0 0 .484-3.352l-8.744-246.458c16.34.973 33.708.944 50.467-1.253zm36.236-9.19a137.314 137.314 0 0 1 6.052-2.305l7.615 269.937c.024.826.186 1.609.405 2.366l-14.352-1.511c0-.065.005-.128.004-.193 0-.013-.002-.024 0-.036a9.979 9.979 0 0 0-.027-.54l-17.181-262.036c6.033-1.508 11.89-3.38 17.484-5.681zm39.35-10.833l35.092 281.32-.114 5.86-42.861-4.515a9.425 9.425 0 0 0 1.132-4.733l-7.755-274.93a249.435 249.435 0 0 1 14.506-3.002zm33.27 375.844l-76.506-18.147 2.648-57.316 75.16 7.918-1.302 67.545zm-56.277 116.214l-.316 234.53a16414.5 16414.5 0 0 0-37.018 1.768l10.962-237.514 26.372 1.216zm-39.503-127.572c-.005.126-.013.251-.015.377l-2.477 53.608-23.21.609.259-123.689 28.495 3-3.052 66.095zm-5.35 115.917c-.001.035-.001.07-.005.105 0 .034-.002.069-.004.103l-2.296 49.713a16.744 16.744 0 0 0-5.191-.221l-200.6 23.123-.194-4.01c-.012-.188-.025-.38-.046-.569-.69-6.307-1.475-16.953-1.69-29l129.658-4.483a9.498 9.498 0 0 0 6.629-3.04 9.48 9.48 0 0 0 2.503-6.852l-2.952-65.835 76.17-1.996-1.981 42.962zm-11.486 248.891c-58.072 2.9-129.177 6.766-189.92 10.99l-1.786-86.643c0-.09-.002-.179-.006-.268l-3.25-66.441 30.436-3.509-5.017 89.886a9.468 9.468 0 0 0 8.929 9.981c.493.03.978.019 1.456-.029 4.573-.445 8.263-4.17 8.525-8.898l5.198-93.14 43.099-4.97-1.044 49.707a9.467 9.467 0 0 0 10.4 9.622c4.708-.459 8.436-4.379 8.537-9.224l1.098-52.292 50.094-5.774 3.377 114.865c.152 5.227 4.516 9.341 9.743 9.185a9.47 9.47 0 0 0 9.19-9.743l-3.425-116.483 22.013-2.538-7.647 165.716zm-156.224-470.619a9.793 9.793 0 0 0-.862-.089l-34.805-3.669-10.225-45.463 44.45-1.868 6.512 51.624-5.07-.535zm74.587 181.258l2.536 56.631-119.238 4.126c.659-15.554 2.686-30.978 7.314-40.881 1.617-3.456 3.543-7.256 5.586-11.278.977-1.921 1.982-3.903 3.012-5.957l100.79-2.64zm-91.747-16.543c12.77-29.463 25.517-72.082 25.268-142.698l63.751 6.719.876 133.622-89.895 2.357zm-131.567-180.382l-8.687-21.66 35.248-15.353a9.467 9.467 0 0 0 4.9-12.462c-2.086-4.796-7.67-6.993-12.461-4.902l-34.74 15.13-37.32-93.028c24.281-15.278 51.046-32.819 80.777-53.115l37.662 71.599 16.446 73.134c.027.14.057.278.09.413l11.259 50.06-93.174-9.816zm-66.719 339.383c-22.487-46.611-47.972-99.44-65.888-146.02-4.775-12.414-12.925-31.373-23.512-55.006l158.558-112.811a9.38 9.38 0 0 0 3.107-3.8l25.295 2.667 4.902 210.79-69.34 16.992c-5.08 1.245-8.19 6.374-6.945 11.453 1.245 5.081 6.381 8.19 11.453 6.945l65.283-16 1.655 71.104-99.844 23.481-4.724-9.795zm-157.476-31.389l-92.94 20.519-5.461-71.638c10.252-2.529 28.446-8.303 49.6-20.755 9.734-5.73 20.91-11.56 31.574-16.827l17.227 88.701zm-14.154-267.38a11367.33 11367.33 0 0 1 17.54 37.46L790.5 960.475l-9.583-25.55c-1.837-4.9-7.294-7.383-12.19-5.544-4.898 1.837-7.38 7.293-5.544 12.191l13.338 35.572a9.48 9.48 0 0 0 5.48 5.519c1.385.53 2.86.721 4.305.579a9.414 9.414 0 0 0 3.46-1.026l72.479-37.767a5871.32 5871.32 0 0 1 19.628 42.783c-21.7 8.534-68.404 27.403-99.978 43.744-14.845 7.686-52.368 11.699-76.013 13.311-4.434-41.174-9.258-77.667-12.842-95.465-.044-.211-.1-.42-.143-.634l143.819-58.396zm-137.484-7.92c13.037-7.384 25.353-14.36 36.975-20.82 24.406-13.578 46.362-22.859 71.223-33.174a16985.775 16985.775 0 0 1 24.797 52.382l-141.898 57.613c-4.145-14.22-10.568-27.958-18.084-40.793a6669.537 6669.537 0 0 0 26.987-15.207zm-88.256-60.122l-1.875-1.865c-2.703-2.7-6.023-4.6-9.926-5.698l.402-8.73c.733-15.905-9.14-25.957-27.058-44.206l-2.551-2.595 36.775-24.54 73.275 119.939a7033.235 7033.235 0 0 1-26.658 15.04c-16.19-21.263-33.034-38.04-42.384-47.345zm-131.377 73c39.613-21.71 89.07-45.456 108.888-47.872 7.716 7.691 21.475 21.592 34.995 38.781-39.506 21.594-81.54 43.15-116.799 56.625L479.6 894.75zm-54.208 33.61c5.468-5.142 23.053-16.168 45.005-28.503l26.268 46.096c-23.974 8.382-44.093 12.315-57.057 8.953a114.933 114.933 0 0 1-4.052-1.277 69.594 69.594 0 0 1-4.013-1.605c-4.416-9.327-7.25-19.898-6.15-23.664zm-52.372-92.587l36.925-42.663 12.788 12.106c3.73 3.53 9.593 3.442 13.22-.196l78.605-78.88c18.737 22.205 33.415 37.152 44.445 48.384 16.719 17.021 21.992 22.755 21.653 30.058l-.441 9.578c-35.766 7.025-115.396 47.721-156.892 74.618l-50.303-53.005zm-53.423-7.373l21.838 23.009c.546 1.304 1.357 2.515 2.498 3.5.645.559 1.355.977 2.086 1.332l51.051 53.79c-3.26 5.108-4.843 10.832-5.283 16.711-26-19.886-56.87-47.915-87.896-77.74l15.706-20.602zm-35.884-37.808l28.547 30.077-15.99 20.974a3230.57 3230.57 0 0 1-31.956-31.447l19.4-19.604zm8.792-61.44a7.356 7.356 0 0 0-1.638 2.945l-3.744 13.172-16.945-17.855 33.087-35.27 8.555 8.097 3.54 3.8-22.855 25.11zm72.902 21.805l-32.469 42.587-34.03-35.857 5.657-19.898 21.718-23.86 39.124 37.028zm22.432-29.426l-10.884 14.276-11.761-11.13L375.8 711.72l12.038 9.81zm8.336 58.548l-36.257 41.89-19.64-20.695 32.814-43.042 23.083 21.847zm84.068-97.282c7.891 10.562 15.285 20.068 22.21 28.658l-73.404 73.658-13.189-12.481c-.053-.054-.106-.103-.162-.155l-31.057-29.394 14.655-19.224a5.263 5.263 0 0 0-.863-7.268l-15.967-13.01 61.76-75.43c11.601 19.804 23.631 38.065 36.017 54.646zm-6.621-132.267c2.718 5.58 8.201 19.013 14.407 34.769l-38.103 14.436c-6.277-11.522-12.413-23.525-18.398-35.99 17.732-7.684 35.6-13.306 42.094-13.215zm-36.288-210.996l-9.884 62.218-14.3-20.018-3.186-40.976c9.026-.432 18.18-.841 27.37-1.224zm50.676-1.755a9.653 9.653 0 0 0-.28 1.892l-3.885 84.188-.019.53-33.13 3.551-10.898-10.025 12.546-78.977c11.969-.451 23.918-.845 35.666-1.16zm135.993-64.75a3583.395 3583.395 0 0 0-3.158 16.33c-2.416 12.705-4.171 24.726-5.392 36.042-43.66-5.257-129.653-3.046-206.25.592l1.648-55.186 1.14-24.724 26.979-146.03 156.736 31.753c17.931 27.163 27.688 44.902 32.508 60.208 7.154 22.71 3.356 42.195-4.211 81.014zM752.503 713.08l-48.622 22.01-60.815-127.915 8.714-1.963a9.472 9.472 0 0 0 7.177-11.236l-28.61-132.68c15.348 31.381 66.965 137.068 122.156 251.784zM712.016 752.2l48.696-22.044a28472.126 28472.126 0 0 1 32.22 67.282c-17.009 7.063-32.797 13.757-49.087 21.703L712.016 752.2zm-98.098-361.36c.856 12.425 2.317 22.996 3.912 31.666l-115 .84 1.036-22.446 110.052-10.06zm-107.703-53.487c44.093-.862 83.66-.379 107.931 2.667-1.09 15.147-1.22 28.838-.744 41.032l-109.062 9.587 2.31-50.093c.054-1.116-.125-2.182-.435-3.193zM596.86 717.94l-40.257 26.865a727.7 727.7 0 0 1-25.318-28.228l53.515-18.377 12.06 19.74zm-11.02-40.124l-67.489 23.177c-7.118-8.794-14.756-18.583-22.932-29.53-12.413-16.617-24.477-35.01-36.103-55.03l35.593-13.486a4029.033 4029.033 0 0 1 14.205 37.29 9.476 9.476 0 0 0 5.034 5.334 9.46 9.46 0 0 0 7.333.14l90.611-36.017c4.86-1.932 7.232-7.44 5.302-12.3-1.932-4.86-7.446-7.236-12.298-5.302l-81.652 32.455c-2.682-7.099-6.576-17.337-10.817-28.314l33.216-12.586a9.472 9.472 0 0 0 5.384-5.205 9.492 9.492 0 0 0-.082-7.49L501.526 459.1l.758-21.02 103.691-.757c.02.56.069 1.123.19 1.69l9.66 44.792-23.9 2.857c-.11.012-.218.025-.329.04l-40.36 4.826-24.493-47.056c-2.416-4.64-8.137-6.44-12.774-4.029-4.64 2.414-6.442 8.133-4.028 12.772l27.518 52.868c1.822 3.495 5.706 5.49 9.525 5.031l39.128-4.68 12.473 41.232-34.816 15.379c-4.784 2.113-6.949 7.706-4.835 12.488 2.115 4.786 7.71 6.945 12.488 4.838l42.479-18.764a9.468 9.468 0 0 0 5.237-11.405l-13.93-46.052 14.627-1.747 18.628 86.392-11.12 2.505a9.472 9.472 0 0 0-6.47 13.306l106.099 223.155c-2.363 1.266-4.717 2.519-7.133 3.861a3888.507 3888.507 0 0 0-23.327 13.1l-99.515-162.889a9.464 9.464 0 0 0-11.158-4.019zM953.247 831.53l-23.574-60.45c22.293-11.99 47.32-26.344 76.003-44.007l22.54 56.191-74.969 48.266zm23.643 7.305l58.508-37.666 18.358 45.764-76.866-8.098zm-65.885 131.103a5968.586 5968.586 0 0 0-18.853-41.073l39.514-20.591 6.353 11.097c2.6 4.536 8.388 6.113 12.925 3.51 4.54-2.598 6.11-8.384 3.512-12.924l-5.982-10.44 40.828-21.273c4.638-2.416 6.439-8.137 4.023-12.776-1.02-1.955-2.639-3.368-4.504-4.213l65.277 6.878-143.093 101.805zm-26.84-58.27c-13.975-30-29.466-62.846-45.604-96.815 21.101-9.009 44.504-19.567 72.37-33.908l26.995 69.223a10.523 10.523 0 0 0 8.7 6.642l36.274 3.82c-.8.178-1.592.421-2.351.815l-96.383 50.223zm52.76 288.026a9.468 9.468 0 0 0 6.558-12.854l-62.539-150.238a9.456 9.456 0 0 0-5.166-5.13 9.484 9.484 0 0 0-7.282.053c-.857.363-10.848 4.626-24.416 10.933l-7.023-16.28c20.772-8.977 40.803-17.005 52.603-21.645 9.614 21.513 17 38.74 21.37 50.096 18.413 47.875 44.218 101.367 66.987 148.566l1.995 4.135c-21.05 6.178-57.143 16.567-94.955 26.52l-4.061-20.907 55.928-13.249zm-23.942-36.837l8.73 20.975-44.33 10.5-4.4-22.644 40-8.831zm-61.69-102.847a985.532 985.532 0 0 1 15.87-7.228l38.427 92.31-36.22 7.995-18.076-93.077zm-90 161.823l-1.91-25.067 95.1-20.994 4.452 22.929-97.641 23.132zm101.257-4.521l4.137 21.3c-30.86 7.869-61.432 14.958-84.583 18.781a278.866 278.866 0 0 0-17.833 3.532l-1.523-19.973 99.802-23.64zm43.59-643.145a553.47 553.47 0 0 0 16.973 31.001c31.832 53.994 40.348 92.802 42.524 106.77-62.038 36.91-105.27 57.016-141.565 72.484-31.235-65.476-63.886-133.147-92.035-191.215l97.05-10.612 50.034 121.58a9.474 9.474 0 0 0 12.363 5.153 9.471 9.471 0 0 0 5.151-12.363l-47.948-116.513 57.454-6.285zm-8.753-18.095l-38.252 4.183c-3.25-21.572-8.649-70.919-1.254-86.851l6.225-13.414c1.157 3.461 2.271 6.802 3.312 9.978 1.377 6.796 8.805 40.169 29.97 86.104zm142.511-151.98l-145.637 39.924c-.205-.617-.407-1.22-.618-1.845-5.575-16.595-12.028-35.81-18.061-56.347l158.489-26.3c1.938 14.649 3.93 29.84 5.827 44.568zm48.367-13.258l-34.018 9.325a14423.998 14423.998 0 0 0-5.795-44.255l28.813-8.957 20.547 41.157-9.547 2.73zm-24.13 67.585c-1.569-3.396-3.773-9.747-5.104-20.51a6216.173 6216.173 0 0 0-2.892-22.992l36.099-9.898 9.922-2.834 7.88 44.064-45.905 12.17zm-153.618 40.015c-7.537-21.969-10.173-35.527-10.223-35.788a16.648 16.648 0 0 0-.552-2.167c-.263-.805-.54-1.643-.81-2.469l142.859-39.16c.913 7.206 1.797 14.213 2.621 20.869 1.272 10.3 3.33 17.532 5.329 22.517l-32.016 8.49-107.208 27.708zm110.94-13.46l89.09-23.619 6.996 29.567-185.06 60.53c-6.943-14.314-12.51-27.504-16.928-39.103l105.902-27.374zm30.694-207.597l11.146 41.261c.128.474.303.933.52 1.371l6.78 13.581-24.116 7.497c-4.59-34.437-8.523-63.23-9.636-71.356l11.34-22.3 18.112 10.459-12.27 12.382a7.37 7.37 0 0 0-1.876 7.105zm-265.44 180.382a7.365 7.365 0 0 0-7.699 7.017l-1.33 28.872-3.05 50.903c-10.542-.124-27.634-1.228-38.584-2.033l-.893-15.322c21.621-.596 23.567-3.91 25.038-6.404 2.768-4.695 4.204-26.969 4.27-66.245l85.683.528c-1.419 3.053-3.252 7.007-5.628 12.126-9.968 21.479-2.532 77.976-.038 94.657l-10.065 1.1a7.742 7.742 0 0 0-.61.067L723.26 575.114a43434.124 43434.124 0 0 0-22.885-47.088l20.229 2.68 1.114 19.092a7.363 7.363 0 0 0 6.758 6.914c1.668.133 40.96 3.286 53.6 2.43 3.779-.271 6.633-3.21 6.854-6.91l3.463-57.803 1.338-28.973a7.366 7.366 0 0 0-7.02-7.697zm-420.59-72.072c3.807-16.188 10.038-40.288 10.804-43.248 6.004-.324 12.113-.645 18.317-.96l2.932 37.722c-6.51 1.128-17.539 3.198-32.053 6.486zm-2.06 15.595c19.11-4.458 32.986-6.958 39.229-8.001l22.595 31.627c.05.072.113.135.166.205.22.292.462.56.72.81.049.049.085.108.138.157l16.27 14.962c1.561 1.435 3.743 2.106 5.772 1.904l34.336-3.682-.769 21.337a9.48 9.48 0 0 0 .807 4.183l46.446 104.698-24.03 9.104c-7.216-18.306-14.154-35.177-16.952-39.828-2.526-4.196-10.04-16.67-65.287 7.797-23.687-52.212-36.094-93.163-36.221-93.588a9.501 9.501 0 0 0-.773-1.839c-9.848-17.903-20.037-40.003-22.447-49.846zm-31.433 76.504c-14.305-3.503-31.501-9.151-45.446-14.424l.662-14.935 2.157.099c2.148 1.228 4.225 2.495 6.079 3.788l36.548 25.472zm-14.345-27.956l47.196 2.18a479.115 479.115 0 0 0 3.958 7.382c1.08 3.507 4.935 15.727 11.565 33.645l-15.787-11.346a7.347 7.347 0 0 0-3.048-1.278l-43.884-30.583zm-46.82 327.854l2.103 2.216-19.671 19.877c-1.299-1.3-2.591-2.6-3.88-3.897l21.447-18.196zm-50.53-11.215a1140.245 1140.245 0 0 0 19.53-21.446l17.94 18.9-21.766 18.467a10458.62 10458.62 0 0 1-15.704-15.92zm-15.337-15.586l22.07-19.344 1.158 1.22a1178.013 1178.013 0 0 1-19.725 21.684c-1.172-1.192-2.341-2.381-3.503-3.56zm17.534 65.662l-17.198 6.572a7.376 7.376 0 0 0-3.827 3.34c-.025.045-2.842 4.778-7.029 5.888-2.294.601-4.81.026-7.717-1.763-4.592-2.823-11.653-7.261-18.987-11.893 3.208-3.651 6.391-6.916 9.515-9.656 6.357-5.576 13.02-11.885 19.603-18.386a8099.17 8099.17 0 0 0 25.64 25.898zm603.1 486.184l2.906 14.99c-1.69.537-3.381 1.078-5.07 1.624-42.547 13.76-64.135 9.42-74.749 3.349-8.538-4.883-11.226-11.79-11.875-13.913 1.78-2.275 11.304-11.744 50.15-18.163 61.392-10.14 168.861-41.179 207.176-52.517 5.955 12.545 11.417 24.297 15.948 34.604-32.269 6.166-97.651 19.694-163.375 39.396l-2.516-12.977c-.994-5.135-5.967-8.495-11.1-7.492-5.136.992-8.488 5.96-7.494 11.1zm351.456-256.6c-2.111 4.16-4.11 8.096-5.854 11.83-14.335 30.669-8.114 93.121-7.528 98.623l.3 6.136-32.85 7.723-6.855-294.849 88.048 9.275c.497 70.508-12.427 111.794-24.975 140.012l-13.071-6.858a9.466 9.466 0 0 0-10.943 1.54l-23.831 22.775c-3.781 3.615-3.918 9.61-.305 13.391 3.617 3.783 9.616 3.916 13.391.305l18.912-18.077 7.665 4.021c-.714 1.418-1.417 2.8-2.104 4.152zM122.242 136.964L87.494 117.54c5.83-7.48 11.964-16.334 18.014-26.694l25.5 8.866-8.766 37.254zM1221.528 49.54l.825-5.932 203.73 31.479 9.134 33.152-215.27-25.615 1.581-33.084zm-133.235 1338.844c9.132-.754 18.573-1.535 28.263-2.348l24.12 136.966h19.232l-24.406-138.58c25.575-2.208 55.816-4.379 87.732-6.433l8.331 27.23-36.213 2.533c-5.253.358-9.151 4.89-8.786 10.107.366 5.219 4.89 9.154 10.109 8.788l47.809-3.345c.123-.005 9.849-.686 29.177-2.042l8.599 71.775-84.098 7.84c-5.228.51-9.035 5.113-8.55 10.308.486 5.207 5.1 9.037 10.307 8.552l40.769-3.802.75 7.069h19.047l-.939-8.828 34.154-3.183a9.492 9.492 0 0 0 6.488-3.482 9.454 9.454 0 0 0 2.035-7.074l-10.827-90.377a9.472 9.472 0 0 0-10.065-8.321l-30.372 2.124-8.293-27.098c45.98-2.84 94.077-5.414 135.789-7.506l-.663 14.4-53.617-2.475a9.513 9.513 0 0 0-7.073 2.703 9.459 9.459 0 0 0-2.83 7.021l.626 22.497a9.468 9.468 0 0 0 9.732 9.2c5.572-.52 9.34-4.725 9.203-9.73l-.345-12.3 52.89 2.44a9.48 9.48 0 0 0 6.82-2.462 9.486 9.486 0 0 0 3.08-6.563l1.184-25.674c48.498-2.376 85.362-3.969 94.772-4.37A924.69 924.69 0 0 0 1523 1370.7v-34.39a914.785 914.785 0 0 1-25.221-5.663 16.864 16.864 0 0 0-4.622-.448c-.573.025-14.968.628-38.17 1.685l.31-232.781 49.465 2.284c4.293.594 10.737 1.445 18.238 2.416v-19.1c-6.64-.864-12.274-1.609-16.06-2.138-.194-.027-20.377-.972-60.549-2.835l-35.535-1.639 2.016-43.641 2.37-51.327 84.448 20.029a9.471 9.471 0 0 0 11.657-9.031l1.494-77.662 6.037.419c.882.058 2.256-6.882 4.122-20.822-.616-.039-3.245-.212-7.89-.52l-1.709-8.206c-.011-.706-11.775-95.34-35.292-283.901 23.352-2.719 41.837-2.503 42.165-2.5.176.003 1.085-5.687 2.726-17.069-8.807.168-66.8.033-109.397 17.574-25.004 10.293-56.89 10.946-85.174 8.809a9.411 9.411 0 0 0-5.256-1.383c-17.747-.734-31.104-2.737-41.517-4.304-5.755-.866-10.724-1.612-14.836-2.113-16.135-1.961-27.751 1.845-35.418 6.246-2.282-10.294-5.142-18.482-7.797-24.646 86.683-45.882 210.684-86.978 299.395-113.368v-35.28c-84.997 24.918-206.588 64.472-298.366 110.267l-33.077-66.797c90.696-51.148 277.1-170.312 286.526-176.34a9.468 9.468 0 0 0 2.872-13.084c-2.815-4.405-8.67-5.694-13.08-2.872-2.273 1.454-188.919 120.777-281.038 173.241l-15.464-73.839 53.593 2.473a7.35 7.35 0 0 0 7.697-7.019 7.364 7.364 0 0 0-7.018-7.699l-57.392-2.648-16.035-76.56c20.153-5.469 59.065-7.19 113.16-4.978.59.311 35.64 2.861 105.152 7.65a7.366 7.366 0 0 0 1.28-14.674c-.46-.05-44.904-4.786-95.272-7.223l.714-15.483 25.014.163c4.074.038 7.388-3.25 7.413-7.316a7.365 7.365 0 0 0-7.316-7.413l-44.735-.293c-3.937-.04-7.194 3.042-7.403 6.97a7.37 7.37 0 0 0 6.615 7.725l5.647.57-.667 14.44c-56.383-2.133-95.467.024-116.25 6.424-.17.052-18.37-10.22-54.598-30.818l29.73-50.443c14.007 3.419 27.973 6.133 41.171 7.672 92.963 10.819 112.992 11.144 119.109 1.942 5.113-7.692 16.08-46.6 1.77-62.3-15.474-16.975-26.498-7.302-26.957-6.879a7.364 7.364 0 0 0-.493 10.404 7.362 7.362 0 0 0 9.486 1.203c.859.095 3.364 1.125 7.077 5.197 6.93 7.6 1.212 35.713-2.6 43.257-7.475 2.447-38.626-.135-68.237-3.251l13.635-98.112 212.112 25.244c-.288 6.303.66 8.681 2.421 10.362 1.76 1.681 4.168 2.551 6.591 2.328l84.496-7.744c.668-.066 1.573-5.439 2.717-16.117-.773-.362-23.634.141-68.583 1.51l-13.549-49.173a8.425 8.425 0 0 0-6.83-6.084l-216.189-33.403c-.623-.334-25.55-3.15-74.779-8.45L1143.874 0h-16.853l-.686 14.864-43.072-3.693a8.356 8.356 0 0 0-4.84 1.055L1038.974 0H945.41l64.893 7.396-12.652 133.407c-30.351-7.843-101.963-13.038-129.81-14.824 4.117-43.24 8.315-89.143 11.637-125.979h-33.81a28362.87 28362.87 0 0 1-9.29 101.005c-2.097-2.134-3.373-2.838-4.768-3.145l-59.946-13.158a7.37 7.37 0 0 0-8.724 5.399l-22.213 88.414c-23.33-1.761-40.17-3.075-45.161-3.564-.296-.028 3.14-16.287 10.309-48.776l9.82 1.689a7.362 7.362 0 0 0 8.31-5.16L760.508 0h-15.373l-9.648 32.432-159.533-14.996L577.912 0h-10.587l-1.846 16.45-9.755-.915A7521.92 7521.92 0 0 0 544.638 0h-41.463c1.8 2.496 3.636 5.045 5.53 7.68-3.971-.813-7.973-1.636-11.963-2.458L497.726 0h-10.708c-5.643 2.037-10.599 1-15.343 0h-54.763c-3.103 6.716-6.918 18.906-12.07 42.006-3.002 13.46-5.568 26.746-7.048 34.689l-47.224-9.569c6.454-22.68 13.955-45.404 23.013-67.126h-36.276a563.727 563.727 0 0 0-5.723 15.495A731111.14 731111.14 0 0 1 287.63 0h-44.287c32.394 11.428 65.348 23.043 83.504 29.442-12.54 38.36-21.497 77.317-29.352 112.563L145.49 89.15c-.572-.663-11.485-4.521-32.738-11.575a283.364 283.364 0 0 0 8.574-18.423c10.027-23.715 16.57-43.8 21.417-59.153H127.29c-4.606 14.42-10.7 32.527-19.533 53.414-21.802 51.553-51.226 76.966-59.502 83.388-5.76 4.235-6.503 8.742-4.215 12.018a7.37 7.37 0 0 0 10.11 1.923c.177-.118 9.182-6.739 27.016-19.862l36.727 20.53-70.117 185.928L0 358.752v16.144l56.6-25.37a7.364 7.364 0 0 0 3.878-4.123l72.948-193.432c.267-.438 4.124-16.237 11.571-47.396l149.28 51.906c-6.533 29.33-12.807 56.815-20.038 78.06-24.415 71.727-82.18 183.804-86.19 191.553-3.218 5.406-36.505 61.228-73.215 119.652L0 481.31v21.72l104.71 58.754c-19.984 31.495-40.25 62.479-56.65 85.487-16.056-6.385-32.219-12.168-48.06-17.445v35.562c8.982 3.103 18.017 6.362 27.024 9.812C18.764 685.668 9.574 696.92 0 708.477v60.585l72.483 32.535a9.467 9.467 0 0 0 12.52-4.761c2.141-4.77.009-10.376-4.764-12.517L7.733 751.77c18.495-22.057 36.805-44.104 51.637-63.275 38.902 17.248 75.03 38.285 100.65 64.136 4.148 4.184 8.428 8.521 12.816 12.974l-37.767 33.1c-4.026.623-5.7 1.858-6.714 3.58l-36.89 62.5a79.864 79.864 0 0 0-10.853-6.639c-12.323-6.225-49.88-2.903-58.447 3.594-2.364 1.796-5.254 4.514-8.599 7.665-3.88 3.651-9.123 8.586-13.566 11.834v16.814c7.653-2.862 16.144-10.842 23.664-17.924 2.912-2.74 5.663-5.33 7.339-6.602 4.907-3.174 35.455-6.03 42.97-2.23 8.617 4.352 14.245 9.818 14.285 9.858a7.31 7.31 0 0 0 6.13 2.073 7.364 7.364 0 0 0 5.399-3.56l37.38-63.33 7.66 4.87c-25.2 34.237-48.356 83.652-58.943 110.143-10.155 25.404-14.51 40.782-16.241 47.92l-16.565 6.718L0 985.496v18.942l27.781.257c-7.557 19.266-17.607 42.935-27.781 64.252v36.784c19.394-34.285 38.924-83.226 44.746-98.197l6.465-2.622 15.024.139 273.527 42.5c3.947-.113 4.885-.41 5.755-.838l68.28-32.467c2.443 7.04 6.001 19.453 7.855 36.076l-21.739-1.005c-5.231-.242-9.654 3.8-9.897 9.028-.24 5.224 3.8 9.654 9.025 9.895l23.807 1.097c.143 9.323-.33 19.94-1.85 31.64l-85.026 25.356-7.967-11.167c-3.039-4.255-8.95-5.243-13.21-2.207-4.257 3.039-5.245 8.954-2.209 13.212l11.747 16.458c.067.097 17.22 24.136 51.462 72.116a142.606 142.606 0 0 1-6.654 7.47l-89.583-126.119a9.465 9.465 0 0 0-13.204-2.237c-4.265 3.027-5.264 8.94-2.237 13.203l90.995 128.113c-42.293 34.598-102.381 49.006-147.546 54.97l11.198-42.798 20.429-32.29a9.48 9.48 0 0 0 .68-8.842l-29.036-66.693c-2.089-4.797-7.676-6.994-12.462-4.904a9.472 9.472 0 0 0-4.904 12.464l27.03 62.091-15.155 23.955-42.027-7.189-22.794-52.172c-2.098-4.79-7.677-6.977-12.471-4.887a9.475 9.475 0 0 0-4.887 12.472l24.465 55.99-103.604.713a9.45 9.45 0 0 0-9.406 9.536c.034 5.231 4.304 9.442 9.534 9.404l109.856-.754a9.458 9.458 0 0 0 9.404-9.535c-.001-.353 11.593 1.118 34.782 4.414l-10.797 41.27c-25.171 2.28-42.234 1.91-42.796 1.892-5.245-.135-9.587 3.968-9.738 9.197-.148 5.226 3.964 9.586 9.192 9.738 1.508.044 28.505.737 65.443-4.086l-1.698 36.775c-.006.098-1.267 27.43-3.783 81.999l-28.745-1.327c-5.218-.24-9.653 3.798-9.895 9.025-.24 5.222 3.8 9.654 9.024 9.898l99.912 4.61c-10.686 12.844-15.557 24.428-16.958 28.16-34.99-10.557-71.58-18.684-115.065-2.37-.28-.245-47.71-28.809-142.294-85.689v22.095l121.406 72.942C76.626 1506.884 36.08 1516.72 0 1520.065l119.986 2.936a471.239 471.239 0 0 0 21.229-9.938c44.159-22.015 78.83-11.205 118.98 1.318 9.382 2.928 19.14 5.958 29.312 8.62h108.819c19.049-4.657 38.537-10.667 57.594-16.548 62.292-19.224 121.116-37.382 144.685-4.361a884.415 884.415 0 0 0 15.41 20.909h45.986a233.958 233.958 0 0 1 10.935-15.777c4.495-5.941 9.945-12.36 15.219-18.57 8.315-9.79 16.168-19.036 21.784-27.89 26.677-4.138 57.38-6.4 87.45-11.298l14.014 73.535h19.283l-14.666-76.952a376.957 376.957 0 0 0 18.063-4.148l18.11 81.1h19.405l-19.289-86.375c9.862-3.231 19.036-6.913 27.167-11.107 25.333-13.07 56.387-20.557 95.545-25.997l15.567 66.271c.013.05 4.492 19.12 13.439 57.208h19.456l-12.7-54.073 31.675-15.551c4.694-2.308 6.632-7.98 4.327-12.677-2.303-4.695-7.979-6.633-12.677-4.328l-27.77 13.635-12.426-52.892c15.272-1.79 31.675-3.379 49.338-4.938 9.703 40.045 21.466 87.847 32.097 130.824h34.694c-10.701-43.236-22.796-92.336-32.84-133.705 3.655-.302 7.343-.605 11.092-.913z" opacity=".226"/>
        <path stroke="#979797" stroke-width="3" d="M338 69l252 53h25l31 76 42-15 151 10 155.5 15h3.5l4-51"/>
        <path stroke="#2296FF" stroke-width="3" d="M338 69l252 53h25l31 76"/>
        <circle cx="337" cy="67" r="10" fill="#2296FF" stroke="#2296FF"/>
        <circle cx="645" cy="199" r="10" fill="#FFF" stroke="#2296FF"/>
        <path fill="#27B74B" d="M1001.496 149.154c-2.634 0-4.777-2.126-4.777-4.738 0-2.612 2.143-4.737 4.777-4.737 2.635 0 4.778 2.125 4.778 4.737s-2.143 4.738-4.778 4.738zm0-14.154c-5.236 0-9.496 4.224-9.496 9.416 0 6.444 8.498 15.903 8.86 16.303a.86.86 0 0 0 1.272 0c.362-.4 8.86-9.86 8.86-16.303 0-5.192-4.26-9.416-9.496-9.416z"/>
    </g>
</svg>
