<svg xmlns="http://www.w3.org/2000/svg" xmlns:xlink="http://www.w3.org/1999/xlink" width="78" height="83" viewBox="0 0 78 83">
    <defs>
        <linearGradient id="a" x1="50%" x2="50%" y1="0%" y2="100%">
            <stop offset="0%" stop-color="#3B9FFD"/>
            <stop offset="100%" stop-color="#E5F3FF"/>
        </linearGradient>
        <path id="b" d="M27.554 40.528L.05 40.52.062.048l27.504.007-.012 40.473"/>
    </defs>
    <g fill="none" fill-rule="evenodd" transform="translate(1)">
        <ellipse cx="38" cy="38.678" stroke="url(#a)" stroke-width="3" rx="37" ry="36.354"/>
        <ellipse cx="52.023" cy="5.312" fill="#4DAAFF" rx="5.406" ry="5.312"/>
        <path fill="#BBDFF5" d="M38.2 10.367H15.269c-2.09 0-3.785 1.633-3.785 3.648v44.182c0 2.015 1.695 3.648 3.785 3.648h22.933c2.09 0 3.785-1.633 3.785-3.648V14.015c0-2.015-1.695-3.648-3.785-3.648"/>
        <path fill="#6A79A8" d="M15.533 10.356c-2.04 0-3.7 1.56-3.7 3.478v44.192c0 1.917 1.66 3.478 3.7 3.478h23.48c2.04 0 3.7-1.56 3.7-3.478V13.834c0-1.918-1.66-3.478-3.7-3.478h-23.48zm23.48 51.489h-23.48c-2.233 0-4.05-1.713-4.05-3.82V13.835c0-2.106 1.817-3.82 4.05-3.82h23.48c2.232 0 4.05 1.714 4.05 3.82v44.192c0 2.106-1.818 3.819-4.05 3.819z"/>
        <path fill="#6A79A8" d="M24.415 12.82c-.21 0-.38.166-.38.368 0 .202.17.367.38.367h5.356c.21 0 .38-.165.38-.367a.374.374 0 0 0-.38-.367h-5.356zm5.356 1.073h-5.356a.72.72 0 0 1-.73-.705.72.72 0 0 1 .73-.705h5.356a.72.72 0 0 1 .731.705.72.72 0 0 1-.73.705zM25.248 57.97c-.669 0-1.213.552-1.213 1.23 0 .68.544 1.231 1.213 1.231h3.69c.67 0 1.214-.552 1.214-1.23 0-.68-.545-1.232-1.214-1.232h-3.69zm3.69 2.817h-3.69a1.577 1.577 0 0 1-1.564-1.587c0-.874.702-1.586 1.564-1.586h3.69c.863 0 1.564.712 1.564 1.586 0 .875-.701 1.587-1.564 1.587z"/>
        <g transform="translate(13.278 16.361)">
            <mask id="c" fill="#fff">
                <use xlink:href="#b"/>
            </mask>
            <path fill="#FFF" d="M2.084 45.3l22.879.238c2.25.024 4.008-4.434 3.926-9.916L28.41 3.76c-.078-5.185-1.897-9.342-4.061-9.321l-22.022.204c-2.124.02-3.875 4.161-3.915 9.287l-.244 31.49c-.042 5.416 1.709 9.857 3.915 9.88" mask="url(#c)"/>
            <path fill="#F0F9FC" d="M28.651 19.78L12.818 45.411l12.145.126c2.25.024 4.008-4.434 3.926-9.916l-.238-15.843M-1.761 26.386L17.436-5.497l-15.108.14c-2.124.02-3.875 4.161-3.915 9.287l-.174 22.456M28.042.088L.792 44.744c.404.35.837.552 1.292.556l2.972.031L28.462 7.15l-.051-3.39a21.05 21.05 0 0 0-.369-3.671" mask="url(#c)"/>
        </g>
        <path fill="#6A79A8" d="M13.262 56.569h26.945V16.7H13.262V56.57zm27.116.34H13.09a.171.171 0 0 1-.171-.17V16.53a.17.17 0 0 1 .171-.17h27.288a.17.17 0 0 1 .172.17V56.74a.17.17 0 0 1-.172.17z"/>
        <path fill="#FFF" d="M.359 22.492v18.311c0 1.44 1.112 2.606 2.485 2.606h22.175l.011 3.627 5.523-3.652h4.77a2.674 2.674 0 0 0 2.685-2.647c.013-2.213.03-5.06.03-5.379V22.492c0-1.439-1.112-2.605-2.485-2.605H2.844c-1.373 0-2.485 1.166-2.485 2.605"/>
        <path fill="#F9AB98" d="M.718 23.197V41.51c0 1.438 1.112 2.605 2.485 2.605h22.175l.011 3.627 5.523-3.652h4.77a2.674 2.674 0 0 0 2.684-2.646c.014-2.214.031-5.06.031-5.38V23.198c0-1.438-1.112-2.605-2.485-2.605H3.202c-1.372 0-2.484 1.167-2.484 2.605"/>
        <path fill="#6A79A8" d="M2.683 19.871c-1.288 0-2.336 1.079-2.336 2.405V40.36c0 1.326 1.048 2.404 2.336 2.404h22.393c.096 0 .173.075.174.168l.01 3.27 5.308-3.434a.177.177 0 0 1 .097-.028h4.816c1.391 0 2.53-1.098 2.538-2.446.02-3.231.031-5.068.031-5.312V22.276c0-1.326-1.048-2.405-2.336-2.405H2.684zm22.405 26.813a.178.178 0 0 1-.082-.02.168.168 0 0 1-.092-.148l-.011-3.415H2.683C1.203 43.101 0 41.871 0 40.36V22.276c0-1.512 1.204-2.742 2.683-2.742h33.03c1.48 0 2.684 1.23 2.684 2.742v12.706c0 .31-.017 3.06-.03 5.314-.01 1.533-1.305 2.78-2.886 2.78h-4.764l-5.533 3.58a.177.177 0 0 1-.096.028z"/>
        <path fill="#FFF" d="M17.584 28.35c0-2.922-2.41-5.29-5.383-5.29s-5.383 2.368-5.383 5.29c0 2.92 2.41 5.288 5.383 5.288s5.383-2.368 5.383-5.289"/>
        <path fill="#6A79A8" d="M11.304 22.69c-2.879 0-5.221 2.302-5.221 5.13 0 2.829 2.342 5.13 5.22 5.13 2.88 0 5.222-2.301 5.222-5.13 0-2.828-2.342-5.13-5.221-5.13zm0 10.595c-3.067 0-5.562-2.451-5.562-5.465 0-3.013 2.495-5.465 5.562-5.465s5.562 2.452 5.562 5.465c0 3.014-2.495 5.465-5.562 5.465z"/>
        <path fill="#6A79A8" d="M10.239 28.937c.199.117.66.3 1.145.3.9 0 1.178-.528 1.17-.925-.008-.668-.66-.954-1.337-.954h-.39v-.485h.39c.51 0 1.154-.243 1.154-.808 0-.382-.263-.72-.907-.72-.414 0-.812.169-1.034.316l-.183-.47c.27-.184.795-.368 1.352-.368 1.018 0 1.48.559 1.48 1.139 0 .492-.319.91-.955 1.124v.014c.636.118 1.154.559 1.154 1.227 0 .764-.645 1.432-1.886 1.432-.58 0-1.09-.168-1.344-.323l.19-.5M6.546 37.109a.07.07 0 0 0 .066.056h10.101a.07.07 0 0 0 .067-.056l1.18-5.855a.071.071 0 0 0-.014-.06.067.067 0 0 0-.053-.025H5.433a.067.067 0 0 0-.053.026.07.07 0 0 0-.014.059l1.18 5.855zm.066.407a.414.414 0 0 1-.4-.336l-1.18-5.855a.43.43 0 0 1 .084-.352.402.402 0 0 1 .317-.156h12.46c.123 0 .239.057.317.156a.43.43 0 0 1 .083.352l-1.18 5.855a.414.414 0 0 1-.4.336h-10.1z"/>
        <path fill="#6A79A8" d="M8.997 31.169l.87 5.996h4.309l.87-5.996h-6.05zm.716 6.347a.178.178 0 0 1-.177-.15l-.922-6.348a.174.174 0 0 1 .042-.14.18.18 0 0 1 .135-.06h6.461c.052 0 .101.021.135.06.034.038.05.09.042.14l-.922 6.347a.178.178 0 0 1-.177.151H9.713z"/>
        <path fill="#6A79A8" d="M16.339 39.28H6.92a.462.462 0 0 1-.448-.372L4.53 29.4l-2.207.026a.17.17 0 0 1-.17-.17.17.17 0 0 1 .166-.174l2.346-.028h.002a.17.17 0 0 1 .165.137l1.97 9.647a.122.122 0 0 0 .118.098h9.418a.17.17 0 0 1 .168.171.17.17 0 0 1-.168.172"/>
        <path fill="#6A79A8" d="M11.733 37.164c-.138 0-.25-.077-.25-.173V30.99c0-.096.112-.173.25-.173s.25.077.25.173v6.001c0 .096-.112.173-.25.173M6.818 38.9a.74.74 0 0 0-.745.732.74.74 0 0 0 .745.732.74.74 0 0 0 .745-.732.74.74 0 0 0-.745-.732zm0 1.79a1.069 1.069 0 0 1-1.076-1.058c0-.583.483-1.058 1.076-1.058.594 0 1.077.475 1.077 1.058 0 .583-.483 1.058-1.077 1.058zM14.713 38.9a.74.74 0 0 0-.745.732.74.74 0 0 0 .745.732.74.74 0 0 0 .745-.732.74.74 0 0 0-.745-.732zm0 1.79a1.068 1.068 0 0 1-1.077-1.058c0-.583.483-1.058 1.077-1.058s1.076.475 1.076 1.058c0 .583-.482 1.058-1.076 1.058z"/>
        <path fill="#FFF" d="M33.623 36.811H22.357c-1.05 0-1.902-.835-1.902-1.865v-8.963c0-1.03.851-1.865 1.902-1.865h11.266c1.051 0 1.903.835 1.903 1.865v8.963c0 1.03-.852 1.865-1.903 1.865"/>
        <path fill="#6A79A8" d="M22.579 24.453c-.979 0-1.775.763-1.775 1.7v8.975c0 .938.796 1.7 1.775 1.7H34.12c.979 0 1.775-.762 1.775-1.7v-8.975c0-.937-.796-1.7-1.775-1.7H22.579zm11.541 12.71H22.579c-1.172 0-2.124-.912-2.124-2.035v-8.975c0-1.122.952-2.035 2.124-2.035H34.12c1.171 0 2.124.913 2.124 2.035v8.975c0 1.123-.953 2.036-2.124 2.036z"/>
        <path fill="#6A79A8" d="M21.527 28.182c0 .602.274 1.026.726 1.026.457 0 .718-.447.718-1.044 0-.552-.257-1.026-.722-1.026-.457 0-.722.447-.722 1.044zm2.157-.041c0 1.007-.593 1.618-1.466 1.618-.886 0-1.405-.688-1.405-1.563 0-.921.572-1.61 1.454-1.61.917 0 1.417.707 1.417 1.555zM25.04 28.007h.254c.322 0 .512-.178.512-.453 0-.29-.177-.435-.473-.44-.157 0-.246.014-.292.024v.869zm-.638-1.355c.207-.038.516-.066.859-.066.423 0 .719.07.922.248.169.15.262.37.262.659a.832.832 0 0 1-.503.776v.014c.198.088.308.299.38.589.09.355.178.766.233.887h-.66c-.046-.088-.114-.345-.199-.733-.076-.393-.198-.5-.46-.505h-.195v1.238h-.64v-3.107zM27.559 29.195c.055.014.143.014.223.014.582.005.961-.347.961-1.092.004-.647-.341-.99-.893-.99-.144 0-.236.014-.291.028v2.04zm-.645-2.544a5.23 5.23 0 0 1 .868-.065c.54 0 .89.107 1.163.333.295.24.48.625.48 1.175 0 .597-.197 1.009-.471 1.263-.3.273-.755.402-1.31.402a5.08 5.08 0 0 1-.73-.046v-3.062zM32.176 28.418H31.14v.753h1.156v.588h-1.795v-3.173h1.736v.589h-1.097v.659h1.035v.584M33.653 28.007h.254c.321 0 .512-.178.512-.453 0-.29-.178-.435-.474-.44-.157 0-.245.014-.292.024v.869zm-.639-1.355c.208-.038.516-.066.86-.066.422 0 .718.07.921.248.17.15.263.37.263.659a.832.832 0 0 1-.504.776v.014c.199.088.309.299.38.589.09.355.179.766.233.887h-.66c-.046-.088-.114-.345-.198-.733-.076-.393-.2-.5-.461-.505h-.195v1.238h-.639v-3.107zM29.43 36.459a.18.18 0 0 1-.117-.043l-3.776-3.233a.163.163 0 0 1-.014-.237.182.182 0 0 1 .248-.013l3.649 3.123 4.367-4.48a.182.182 0 0 1 .248-.009c.071.064.075.17.009.238l-4.485 4.6a.18.18 0 0 1-.128.054"/>
        <path fill="#FFF" d="M52.2 71.628c.406.343.823.672 1.216 1.009 1.167 1 1.728 2.462 2.774 3.572.661.703 1.247 1.471 1.772 2.281L61.503 83s13.068-9.536 13.138-9.58c-1.11-1.734-1.661-2.196-2.77-3.93-.447-.698-.897-1.263-1.034-2.082-.175-1.055-.181-2.142-.36-3.202a29.195 29.195 0 0 0-1.166-4.58c-.484-1.412-1.41-2.588-2.22-3.849-.368-.572-.377-.656-.989-.626-.488.023-.979.113-1.457.192a23.051 23.051 0 0 0-3.983 1.028c-2.439.868-4.784 2.11-6.811 3.716-1.805 1.43-3.916 3.526-4.284 5.9-.178 1.15.19 2.403.708 3.425.45.884 1.168 1.575 1.926 2.216"/>
        <path fill="#6A79A8" d="M74.827 73.128a.175.175 0 0 1-.147-.078 58.25 58.25 0 0 0-1.352-1.952 58.76 58.76 0 0 1-1.36-1.962 17.32 17.32 0 0 0-.211-.313c-.377-.552-.733-1.073-.855-1.78-.089-.516-.136-1.045-.182-1.557a18.433 18.433 0 0 0-.183-1.565 27.678 27.678 0 0 0-1.169-4.44c-.37-1.044-1.027-1.983-1.661-2.89-.19-.273-.387-.555-.575-.837a.163.163 0 0 1 .053-.23.178.178 0 0 1 .24.051c.186.279.38.559.571.83.647.926 1.316 1.883 1.701 2.968.517 1.459.915 2.97 1.182 4.492.093.53.14 1.07.188 1.593.044.505.09 1.028.178 1.53.11.638.431 1.108.803 1.652l.214.317c.558.844.962 1.407 1.352 1.953.392.547.798 1.114 1.359 1.962a.162.162 0 0 1-.053.23.182.182 0 0 1-.093.026M61.908 83a.178.178 0 0 1-.146-.073c-.754-1.084-3.56-4.216-3.588-4.248a.152.152 0 0 1 .023-.226.183.183 0 0 1 .244.021c.116.13 2.848 3.179 3.613 4.279a.154.154 0 0 1-.052.221.18.18 0 0 1-.094.026"/>
        <path fill="#FFF" d="M64.234 69.174c-.255-.326-.51-.653-.762-.98-.424-.55-.844-1.102-1.256-1.66-1.253-1.693-2.758-2.776-4.883-3.154-2.257-.401-4.55.162-6.778.505-1.014.157-2.218.212-3.262.523l-7.14-7.53a3.292 3.292 0 0 0-4.657-.121l-.02.02a3.297 3.297 0 0 0-.122 4.657l8.434 8.895c.317.415.732.721 1.1 1.064.312.293.629.567.949.85.337.297.684.583 1.037.862.942.743 2.277 1.076 3.394 1.51 1.424.555 2.82 1.044 4.283 1.396 1.295.312 2.473 1.503 3.39 2.405l6.293-9.242"/>
        <path fill="#6A79A8" d="M57.962 78.769a.172.172 0 0 1-.12-.049l-.106-.103c-.876-.856-2.075-2.028-3.283-2.316-1.641-.392-3.178-.954-4.333-1.4a26.493 26.493 0 0 0-.852-.306c-.919-.32-1.87-.649-2.607-1.226a24.46 24.46 0 0 1-1.052-.867l-.196-.171c-.25-.219-.51-.445-.763-.68-.105-.097-.217-.194-.326-.287-.274-.238-.558-.484-.794-.788l-8.482-8.869a3.42 3.42 0 0 1-.956-2.47 3.423 3.423 0 0 1 1.084-2.417l.021-.02a3.51 3.51 0 0 1 4.931.128l7.186 7.513a.17.17 0 0 1-.007.24.173.173 0 0 1-.243-.005l-7.185-7.514a3.165 3.165 0 0 0-4.445-.115l-.021.02a3.085 3.085 0 0 0-.977 2.18 3.083 3.083 0 0 0 .861 2.226l8.489 8.875a.18.18 0 0 1 .011.014c.216.28.49.516.753.744.11.096.225.195.334.296.25.231.507.456.756.672l.197.172c.315.276.654.556 1.036.855.693.542 1.616.862 2.509 1.172.287.1.584.203.863.31 1.145.442 2.667.999 4.289 1.386 1.3.31 2.539 1.521 3.443 2.405l.106.103a.17.17 0 0 1-.12.292"/>
        <path fill="#6A79A8" d="M36.592 57.223a1.65 1.65 0 0 0-1.1.415l-.194.172a1.531 1.531 0 0 0-.094 2.214l1.29 1.351a1.673 1.673 0 0 0 2.302.091l.185-.164a1.532 1.532 0 0 0 .094-2.223l-1.288-1.35a1.648 1.648 0 0 0-1.195-.506zm1.102 4.974l-.082-.001a1.973 1.973 0 0 1-1.358-.607l-1.29-1.352a1.839 1.839 0 0 1 .113-2.659l.194-.172a2.002 2.002 0 0 1 2.756.109l1.288 1.35c.354.371.537.853.516 1.357a1.85 1.85 0 0 1-.629 1.311l-.185.165a1.98 1.98 0 0 1-1.323.5z"/>
        <path fill="#FFF" d="M65.725 58.255c-1.24.78-2.896.433-3.698-.774l-8.133-12.436c-.796-1.198-.442-2.798.79-3.572l.027-.017c1.235-.775 2.882-.43 3.68.77l8.13 12.433c.802 1.207-.796 3.596-.796 3.596"/>
        <path fill="#6A79A8" d="M66.936 55.498a.17.17 0 0 1-.144-.077l-8.428-12.949c-.736-1.113-2.263-1.434-3.404-.714l-.026.016a2.386 2.386 0 0 0-1.07 1.512 2.34 2.34 0 0 0 .338 1.808l3.866 5.937c.05.078.027.18-.052.23a.172.172 0 0 1-.234-.052l-3.865-5.936a2.662 2.662 0 0 1-.384-2.057 2.715 2.715 0 0 1 1.217-1.72l.026-.017c1.298-.819 3.035-.453 3.873.815l8.43 12.95c.05.077.026.18-.053.228a.17.17 0 0 1-.09.026"/>
        <path fill="#FFF" d="M60.487 60s-3.602.516-4.58-1.04L46.8 44.392a3.31 3.31 0 0 1 1.029-4.557l.045-.029c1.54-.974 3.332-.914 5.69 2.931l7.96 12.666c1.079 1.93.515 3.614-1.037 4.596"/>
        <path fill="#6A79A8" d="M55.666 58.672a.176.176 0 0 1-.148-.081l-9.033-14.208a3.464 3.464 0 0 1-.462-2.66 3.506 3.506 0 0 1 1.58-2.205l.046-.029c.817-.508 1.587-.67 2.354-.494 1.23.282 2.461 1.435 3.766 3.526l5.056 7.91a.172.172 0 0 1-.055.239.176.176 0 0 1-.241-.054l-5.057-7.912c-1.254-2.01-2.414-3.113-3.548-3.373-.68-.156-1.344-.013-2.088.45l-.046.029a3.163 3.163 0 0 0-1.426 1.989 3.126 3.126 0 0 0 .418 2.4l9.032 14.208a.171.171 0 0 1-.055.238.176.176 0 0 1-.093.027"/>
        <path fill="#FFF" d="M54.319 60.335s-2.195 2.929-3.187 1.44L39.292 43.57a3.18 3.18 0 0 1 .926-4.44l.045-.03c1.493-.97 3.5-.561 4.482.912l10.77 16.532c.992 1.488.311 2.811-1.196 3.791"/>
        <path fill="#6A79A8" d="M47.79 57.614a.17.17 0 0 1-.144-.08l-8.68-13.549a3.474 3.474 0 0 1-.497-2.61 3.452 3.452 0 0 1 1.48-2.201l.046-.03a3.422 3.422 0 0 1 4.758.988l8.688 13.56a.174.174 0 0 1-.05.24.17.17 0 0 1-.237-.052l-8.688-13.56a3.07 3.07 0 0 0-1.958-1.337 3.05 3.05 0 0 0-2.324.45l-.046.03a3.11 3.11 0 0 0-1.333 1.981 3.13 3.13 0 0 0 .447 2.352l8.682 13.551a.173.173 0 0 1-.143.267"/>
        <path fill="#FFF" d="M49.963 66.615c-1.6.994-3.71.516-4.713-1.068L27.793 38.109a3.35 3.35 0 0 1 1.074-4.644l.025-.016c1.594-.99 3.696-.513 4.696 1.065l17.454 27.434c1.004 1.584-1.079 4.667-1.079 4.667"/>
        <path fill="#6A79A8" d="M42.25 60.787a.17.17 0 0 1-.144-.079L27.82 38.385a3.51 3.51 0 0 1-.456-2.679 3.525 3.525 0 0 1 1.58-2.213l.026-.016a3.561 3.561 0 0 1 2.694-.453c.929.211 1.72.77 2.227 1.574L48.06 56.99a.17.17 0 0 1-.054.234.171.171 0 0 1-.235-.053L33.6 34.78a3.207 3.207 0 0 0-2.014-1.424 3.22 3.22 0 0 0-2.436.41l-.025.016a3.188 3.188 0 0 0-1.43 2.001 3.174 3.174 0 0 0 .412 2.421l14.286 22.323a.17.17 0 0 1-.144.261"/>
        <path fill="#6A79A8" d="M30.745 33.646c-.34 0-.675.105-.97.31l-.248.172c-.85.59-1.104 1.83-.567 2.762l.83 1.443c.26.454.667.769 1.143.887.477.118.967.025 1.38-.262l.237-.164c.413-.287.7-.733.807-1.257a2.164 2.164 0 0 0-.238-1.516l-.829-1.44a1.826 1.826 0 0 0-1.14-.885 1.68 1.68 0 0 0-.405-.05zm.595 5.986c-.16 0-.32-.02-.48-.06-.562-.138-1.041-.51-1.349-1.046l-.83-1.442c-.633-1.102-.333-2.565.67-3.261l.247-.172c1.004-.697 2.337-.367 2.97.736l.83 1.44c.307.536.407 1.172.28 1.79a2.364 2.364 0 0 1-.952 1.483l-.237.164c-.35.243-.745.368-1.149.368zM49.348 67.839a.172.172 0 0 1-.099-.032c-3.413-2.409-6.483-6.702-6.513-6.745a.174.174 0 0 1 .04-.243.173.173 0 0 1 .241.04c.03.044 3.067 4.29 6.43 6.664a.174.174 0 0 1-.099.316"/>
    </g>
</svg>
