<svg xmlns="http://www.w3.org/2000/svg" xmlns:xlink="http://www.w3.org/1999/xlink" width="78" height="81" viewBox="0 0 78 81">
    <defs>
        <linearGradient id="a" x1="50%" x2="50%" y1="0%" y2="100%">
            <stop offset="0%" stop-color="#3A9FFD"/>
            <stop offset="100%" stop-color="#E7F4FF"/>
        </linearGradient>
        <path id="b" d="M21.672 31.544L.01 31.538.02.016l21.662.006-.01 31.522"/>
    </defs>
    <g fill="none" fill-rule="evenodd">
        <ellipse cx="40" cy="37.516" stroke="url(#a)" stroke-width="3" rx="36" ry="35.811"/>
        <path fill="#FFF" d="M10.098 75.91c.053.024 10.623-12.557 10.685-12.61 1.668-1.423 3.439-2.71 5.197-4.02a8.644 8.644 0 0 0 2.706-3.346c.66-1.448 1.322-2.987 1.778-4.512.143-.478.485-1.238.43-1.736-.054-.482-.656-1.04-1.002-1.358-.495-.456-1.064-.823-1.646-1.162-.618-.36-.754-.417-.816-1.129-.15-1.717.015-3.52.022-5.244.007-1.725.206-4.702.24-7.72l2.188-4.386c.729-1.46.729-3.003-.413-4.18-.82-.843-2.083-.48-2.678-.175-2.175 1.113-3.53 3.061-4.91 5.016l-3.098 4.387c-.835 1.182-1.827 2.294-2.37 3.65-.601 1.502-.794 3.14-1.001 4.729-.303 2.324-.49 4.655-.705 6.987-.106 1.208-.248 2.411-.375 3.616-.09.861-.145 1.751-.494 2.557-.458 1.058-1.252 1.928-1.994 2.8-.249.292-10.895 10.98-10.895 10.98l9.151 6.855"/>
        <path fill="#6A79A8" d="M9.809 75.971zm0 .278a.136.136 0 0 1-.06-.015.137.137 0 0 1-.024-.235c.266-.267 5.022-5.97 7.872-9.386 2.462-2.95 2.681-3.212 2.705-3.232 1.445-1.246 2.992-2.406 4.488-3.529l.669-.502a8.525 8.525 0 0 0 2.637-3.296c.61-1.35 1.294-2.941 1.755-4.5.036-.12.084-.258.134-.403.145-.417.325-.936.287-1.281-.048-.436-.657-1.002-.949-1.274-.522-.485-1.133-.867-1.606-1.145l-.054-.032c-.582-.34-.757-.444-.823-1.206-.1-1.156-.059-2.361-.02-3.527.02-.572.04-1.164.042-1.735.003-.792.046-1.836.095-3.044.058-1.429.124-3.048.143-4.686 0-.02.005-.04.014-.06l2.168-4.391c.762-1.545.625-2.975-.386-4.028-.895-.932-2.328-.231-2.488-.148-2.095 1.083-3.389 2.936-4.759 4.897l-3.124 4.473c-.208.297-.43.594-.643.882-.636.857-1.294 1.743-1.69 2.743-.562 1.418-.762 2.975-.955 4.48l-.029.223c-.24 1.86-.409 3.757-.572 5.592l-.126 1.398c-.074.852-.167 1.715-.257 2.55l-.114 1.072-.03.292c-.076.773-.155 1.572-.47 2.308-.418.976-1.112 1.794-1.783 2.585l-.213.252c-.248.294-10.37 10.565-10.802 11.002a.14.14 0 0 1-.196.002.138.138 0 0 1-.002-.196c3.646-3.7 10.594-10.756 10.786-10.985l.214-.253c.658-.776 1.338-1.577 1.74-2.515.299-.697.376-1.475.45-2.227l.03-.293c.037-.358.075-.715.114-1.073.09-.834.182-1.696.256-2.545l.126-1.398c.163-1.838.333-3.738.573-5.604l.029-.222c.196-1.522.398-3.096.972-4.546.41-1.034 1.079-1.935 1.726-2.806.212-.286.432-.582.637-.876l3.125-4.472c1.329-1.903 2.703-3.87 4.859-4.985.808-.418 2.03-.616 2.817.202 1.098 1.143 1.252 2.684.434 4.34l-2.154 4.364c-.019 1.631-.084 3.242-.142 4.663-.05 1.206-.092 2.247-.095 3.034a59.723 59.723 0 0 1-.042 1.743c-.039 1.158-.08 2.355.02 3.495.053.62.125.662.686.991l.054.032c.486.286 1.113.678 1.655 1.181.341.318.976.908 1.035 1.445.045.407-.138.936-.3 1.402-.05.142-.096.276-.13.391-.466 1.575-1.155 3.176-1.768 4.535a8.803 8.803 0 0 1-2.723 3.403l-.67.503c-1.49 1.118-3.03 2.274-4.467 3.511-.09.102-1.235 1.475-2.679 3.206-1.571 1.884-3.527 4.228-5.107 6.114a692.792 692.792 0 0 1-1.98 2.358 121.91 121.91 0 0 1-.752.878c-.05.056-.099.109-.163.109z"/>
        <path fill="#FFF" d="M47.877 12.448H29.76c-1.652 0-2.99 1.27-2.99 2.838v34.37c0 1.567 1.338 2.837 2.99 2.837h18.118c1.652 0 2.99-1.27 2.99-2.837v-34.37c0-1.568-1.338-2.838-2.99-2.838"/>
        <path fill="#6A79A8" d="M29.907 12.724c-1.576 0-2.858 1.213-2.858 2.704v34.424c0 1.491 1.282 2.704 2.858 2.704h18.166c1.576 0 2.858-1.213 2.858-2.704V15.428c0-1.49-1.282-2.704-2.858-2.704H29.907zm18.166 40.109H29.907c-1.73 0-3.139-1.337-3.139-2.98V15.427c0-1.643 1.408-2.98 3.14-2.98h18.165c1.73 0 3.139 1.337 3.139 2.98v34.424c0 1.644-1.408 2.98-3.139 2.98z"/>
        <path fill="#6A79A8" d="M36.603 14.735c-.136 0-.246.094-.246.21v.096c0 .116.11.21.246.21h4.43c.136 0 .246-.094.246-.21v-.096c0-.116-.11-.21-.246-.21h-4.43zm4.43.767h-4.43c-.298 0-.54-.207-.54-.46v-.097c0-.254.242-.46.54-.46h4.43c.298 0 .54.206.54.46v.096c0 .254-.242.461-.54.461zM37.37 50.395c-.368 0-.668.283-.668.63v.221c0 .348.3.63.668.63h3.584c.369 0 .669-.282.669-.63v-.22c0-.348-.3-.631-.669-.631H37.37zm3.584 1.759H37.37c-.53 0-.962-.407-.962-.908v-.22c0-.501.432-.908.962-.908h3.584c.53 0 .963.407.963.907v.221c0 .5-.432.908-.963.908z"/>
        <g transform="translate(27.801 17.538)">
            <mask id="c" fill="#fff">
                <use xlink:href="#b"/>
            </mask>
            <path fill="#FFF" d="M1.612 35.261l18.02.185c1.771.018 3.156-3.454 3.092-7.723l-.377-24.816c-.061-4.038-1.494-7.275-3.198-7.26l-17.345.16C.132-4.179-1.248-.954-1.279 3.04l-.193 24.526c-.033 4.218 1.346 7.677 3.084 7.695" mask="url(#c)"/>
            <path fill="#F0F9FC" d="M22.537 15.384l-12.47 19.964 9.565.098c1.771.018 3.156-3.454 3.092-7.723l-.187-12.339M-1.416 20.53l15.12-24.833-11.9.11C.132-4.179-1.248-.954-1.279 3.04l-.137 17.49M22.057.047L.594 34.827c.318.273.66.43 1.018.434l2.34.024L22.388 5.547l-.04-2.64a16.22 16.22 0 0 0-.29-2.86" mask="url(#c)"/>
        </g>
        <path fill="#6A79A8" d="M28.081 48.822h21.13V17.477H28.08v31.345zm21.27.278H27.94a.14.14 0 0 1-.14-.14V17.339a.14.14 0 0 1 .14-.139h21.41a.14.14 0 0 1 .14.139v31.623a.14.14 0 0 1-.14.139z"/>
        <path fill="#FFF" d="M23.326 44.29V33.413c0-1.645 1.228-2.979 2.744-2.979h.023c1.514 0 2.74 1.332 2.74 2.975v4.518c0 4.02-.053 8.056-.276 12.07-.077 1.389-.276 2.038-.837 3.303-.757 1.708-1.812 3.157-3.063 4.623L23.326 44.29"/>
        <path fill="#6A79A8" d="M24.725 57.923a.13.13 0 0 1-.085-.032.142.142 0 0 1-.016-.195c1.398-1.725 2.264-3.1 2.895-4.6.526-1.25.713-1.896.785-3.263.234-4.417.264-8.781.264-12.09v-4.528c0-1.568-1.11-2.844-2.475-2.844h-.023c-1.367 0-2.478 1.278-2.478 2.848v8.829c0 .076-.06.138-.133.138a.136.136 0 0 1-.133-.138v-8.83c0-1.722 1.23-3.123 2.744-3.123h.023c1.511 0 2.74 1.4 2.74 3.12v4.528c0 3.312-.029 7.682-.263 12.105-.074 1.41-.267 2.075-.807 3.359-.642 1.525-1.52 2.92-2.936 4.667a.13.13 0 0 1-.102.05M21.416 45.027a.169.169 0 0 1-.133-.058c-.045-.058-.023-.134.05-.17a3.602 3.602 0 0 0 1.098-.915c.482-.616.594-.817.595-.819.035-.062.127-.09.205-.064.08.027.116.099.082.161-.005.009-.117.213-.616.851a3.832 3.832 0 0 1-1.2.996.187.187 0 0 1-.081.018"/>
        <path fill="#6A79A8" d="M25.917 31.395c-.882 0-1.6.668-1.6 1.488v1.544c0 .824.72 1.494 1.606 1.494h.657c.886 0 1.606-.67 1.606-1.494v-1.542c0-.821-.718-1.49-1.6-1.49h-.67zm.663 4.809h-.657c-1.052 0-1.909-.797-1.909-1.777v-1.544c0-.976.854-1.77 1.903-1.77h.668c1.05 0 1.905.795 1.905 1.772v1.542c0 .98-.857 1.777-1.91 1.777z"/>
        <path fill="#FFF" d="M58.47 72.133c.316.267.641.524.948.787.912.78 1.35 1.919 2.168 2.786.516.547.974 1.146 1.384 1.777L65.737 81S75.945 73.564 76 73.53c-.866-1.352-1.298-1.712-2.164-3.064-.35-.544-.7-.985-.807-1.624-.137-.822-.142-1.67-.282-2.497a22.795 22.795 0 0 0-.91-3.57c-.38-1.102-1.103-2.02-1.736-3.002-.287-.446-.294-.511-.771-.489-.382.019-.765.09-1.139.15a18 18 0 0 0-3.112.802c-1.904.677-3.737 1.645-5.32 2.898-1.41 1.115-3.06 2.75-3.347 4.6-.14.897.148 1.874.553 2.67.35.69.912 1.229 1.504 1.729"/>
        <path fill="#6A79A8" d="M75.865 73.873a.134.134 0 0 1-.114-.065 47.44 47.44 0 0 0-1-1.577c-.29-.442-.59-.9-1.005-1.585l-.156-.253c-.28-.446-.543-.868-.634-1.44-.066-.417-.1-.844-.134-1.258a16.351 16.351 0 0 0-.136-1.265 23.937 23.937 0 0 0-.865-3.585c-.273-.841-.758-1.6-1.227-2.333-.142-.22-.287-.447-.425-.675a.145.145 0 0 1 .041-.195.132.132 0 0 1 .186.043c.138.225.282.451.422.67.479.748.974 1.522 1.26 2.4.382 1.178.677 2.4.874 3.629.069.428.105.864.138 1.287.034.408.068.83.132 1.236.081.513.319.892.593 1.332.053.083.106.168.159.256.412.68.711 1.136 1 1.576.29.442.59.9 1.005 1.585a.145.145 0 0 1-.042.195.13.13 0 0 1-.072.022M65.53 81a.14.14 0 0 1-.12-.069c-.59-.959-2.782-3.73-2.804-3.759a.155.155 0 0 1 .019-.21.138.138 0 0 1 .2.02c.09.114 2.226 2.814 2.824 3.788a.153.153 0 0 1-.043.206.134.134 0 0 1-.077.024"/>
        <path fill="#FFF" d="M67.737 69.978c-.197-.246-.394-.491-.59-.738a77.554 77.554 0 0 1-.972-1.247c-.971-1.274-2.136-2.088-3.782-2.372-1.748-.302-3.525.121-5.25.38-.784.117-1.717.16-2.525.393l-5.53-5.662a2.604 2.604 0 0 0-3.607-.091l-.016.014a2.428 2.428 0 0 0-.094 3.502l6.532 6.69c.245.311.567.542.851.8.243.22.488.426.736.638.26.224.53.44.803.649.73.558 1.763.809 2.628 1.136 1.103.417 2.185.784 3.318 1.049 1.002.235 1.915 1.13 2.625 1.809l4.873-6.95"/>
        <path fill="#6A79A8" d="M63.122 77.606a.141.141 0 0 1-.098-.039l-.082-.08c-.676-.657-1.602-1.558-2.533-1.78-1.269-.302-2.456-.734-3.35-1.077-.21-.08-.427-.156-.657-.235-.71-.246-1.446-.5-2.017-.944-.3-.234-.565-.452-.813-.667l-.151-.132c-.194-.168-.395-.342-.59-.523-.081-.075-.168-.15-.252-.222-.212-.183-.432-.372-.614-.606l-6.554-6.823a2.647 2.647 0 0 1 .1-3.77l.016-.015a2.701 2.701 0 0 1 1.93-.733 2.699 2.699 0 0 1 1.89.831l5.552 5.78a.137.137 0 0 1-.005.195.14.14 0 0 1-.198-.004l-5.552-5.78a2.42 2.42 0 0 0-1.694-.746 2.428 2.428 0 0 0-1.731.657l-.016.015a2.373 2.373 0 0 0-.09 3.38l6.56 6.828.01.011c.166.216.376.396.58.572.085.074.174.15.258.228.193.178.392.35.584.517l.152.133c.244.212.506.426.8.657.535.416 1.248.662 1.937.9.222.077.452.157.667.24.885.339 2.06.767 3.314 1.065 1.006.24 1.964 1.171 2.664 1.852l.081.08a.138.138 0 0 1-.098.235"/>
        <path fill="#6A79A8" d="M46.786 60.917c-.362 0-.705.13-.973.369l-.048.042a1.36 1.36 0 0 0-.083 1.964l.978 1.028c.261.274.617.434 1.001.45.386.015.753-.116 1.036-.369l.04-.036a1.368 1.368 0 0 0 .084-1.972l-.977-1.027a1.447 1.447 0 0 0-1.058-.449zm.936 4.133c-.024 0-.048 0-.072-.002a1.743 1.743 0 0 1-1.202-.538l-.978-1.028a1.634 1.634 0 0 1 .1-2.36l.048-.042c.339-.302.78-.46 1.24-.44.46.018.886.209 1.198.537l.977 1.027c.313.329.475.756.456 1.203-.019.447-.216.86-.556 1.164l-.04.035a1.749 1.749 0 0 1-1.17.444z"/>
        <path fill="#FFF" d="M69.353 62.677c-.965.63-2.253.35-2.877-.626L60.15 51.997a2.102 2.102 0 0 1 .615-2.888l.02-.014a2.057 2.057 0 0 1 2.863.623l6.324 10.051c.624.976-.619 2.908-.619 2.908"/>
        <path fill="#6A79A8" d="M70.008 60.299a.14.14 0 0 1-.118-.065L63.3 49.912a1.905 1.905 0 0 0-1.207-.83 1.912 1.912 0 0 0-1.444.262l-.021.014a1.905 1.905 0 0 0-.57 2.636l3.023 4.733a.14.14 0 0 1-.236.15l-3.022-4.733a2.182 2.182 0 0 1 .654-3.02l.02-.013a2.19 2.19 0 0 1 1.655-.301 2.184 2.184 0 0 1 1.383.952l6.59 10.323a.138.138 0 0 1-.118.214"/>
        <path fill="#FFF" d="M65.418 63.29s-2.906.396-3.695-.798l-7.347-11.169c-.783-1.183-.411-2.747.83-3.494l.037-.022c1.242-.746 2.688-.7 4.59 2.248l6.423 9.712c.869 1.479.414 2.77-.838 3.523"/>
        <path fill="#6A79A8" d="M61.485 62.335a.142.142 0 0 1-.12-.066l-6.971-10.978a2.716 2.716 0 0 1 .864-3.769l.036-.023c.632-.394 1.228-.519 1.822-.383.95.219 1.903 1.111 2.91 2.728l3.902 6.113a.139.139 0 0 1-.044.194.143.143 0 0 1-.196-.044l-3.903-6.114c-.966-1.552-1.86-2.403-2.734-2.603-.523-.12-1.033-.01-1.605.346l-.036.023a2.437 2.437 0 0 0-.776 3.382l6.97 10.98a.14.14 0 0 1-.044.192.142.142 0 0 1-.075.022"/>
        <path fill="#FFF" d="M60.211 63.605s-1.754 2.272-2.548 1.118L48.197 50.6c-.788-1.148-.456-2.69.741-3.445l.036-.022c1.194-.753 2.798-.436 3.584.707l8.61 12.824c.793 1.155.249 2.181-.957 2.941"/>
        <path fill="#6A79A8" d="M55.063 61.317a.14.14 0 0 1-.118-.064l-6.734-10.375a2.638 2.638 0 0 1-.386-2.004 2.65 2.65 0 0 1 1.152-1.69l.035-.023a2.683 2.683 0 0 1 3.7.759l6.74 10.384a.139.139 0 0 1-.041.192.14.14 0 0 1-.194-.041l-6.739-10.383a2.402 2.402 0 0 0-3.312-.678l-.035.023c-.536.35-.902.888-1.032 1.513a2.364 2.364 0 0 0 .346 1.796l6.735 10.376a.139.139 0 0 1-.117.215"/>
        <path fill="#FFF" d="M56.708 68.716a2.637 2.637 0 0 1-3.645-.838L39.565 46.37a2.647 2.647 0 0 1 .83-3.64l.02-.013a2.628 2.628 0 0 1 3.63.835l13.497 21.505c.776 1.242-.834 3.66-.834 3.66"/>
        <path fill="#6A79A8" d="M50.803 63.692a.14.14 0 0 1-.118-.064L39.587 46.23a2.772 2.772 0 0 1 .875-3.822l.02-.013a2.786 2.786 0 0 1 3.832.876l11.008 17.45a.14.14 0 0 1-.236.148l-11.008-17.45a2.507 2.507 0 0 0-3.448-.788l-.02.013a2.477 2.477 0 0 0-1.106 1.555 2.473 2.473 0 0 0 .318 1.882L50.92 63.478a.139.139 0 0 1-.117.214"/>
        <path fill="#6A79A8" d="M41.814 43.258a1.71 1.71 0 0 0-.859.23l-.061.036a1.48 1.48 0 0 0-.712.925 1.37 1.37 0 0 0 .21 1.116l.605.879c.23.335.59.568 1.012.655a1.73 1.73 0 0 0 1.221-.193l.052-.03c.754-.438.98-1.357.503-2.05l-.604-.877a1.607 1.607 0 0 0-1.009-.654 1.77 1.77 0 0 0-.358-.037zm.554 4.145c-.634 0-1.254-.29-1.617-.816l-.605-.88a1.617 1.617 0 0 1-.248-1.317c.112-.455.41-.843.84-1.092l.061-.036c.43-.25.941-.33 1.437-.228.497.103.92.377 1.192.772l.604.877c.562.818.296 1.903-.595 2.42l-.051.03c-.316.182-.669.27-1.018.27zM56.23 69.462a.153.153 0 0 1-.085-.026c-2.751-1.85-5.225-5.15-5.25-5.182a.137.137 0 0 1 .034-.196.15.15 0 0 1 .205.033c.024.032 2.47 3.292 5.18 5.115a.137.137 0 0 1 .036.196.147.147 0 0 1-.12.06"/>
        <path fill="#FFF" d="M46.559 33.489H30.733a1.21 1.21 0 0 1-1.21-1.208v-9.802a1.21 1.21 0 0 1 1.21-1.208H46.56c.668 0 1.21.541 1.21 1.208v9.802a1.21 1.21 0 0 1-1.21 1.208"/>
        <path fill="#6A79A8" d="M30.853 21.546a1.05 1.05 0 0 0-1.053 1.043v9.582a1.05 1.05 0 0 0 1.053 1.043H46.44a1.05 1.05 0 0 0 1.053-1.043v-9.582a1.05 1.05 0 0 0-1.053-1.043H30.853zM46.44 33.489H30.853c-.733 0-1.33-.591-1.33-1.318v-9.582c0-.726.597-1.318 1.33-1.318H46.44c.733 0 1.33.592 1.33 1.318v9.582c0 .727-.597 1.318-1.33 1.318z"/>
        <path fill="#BBDFF5" d="M29.867 27.38h18.247v-3.394H29.867z"/>
        <path fill="#6A79A8" d="M29.8 27.093h17.692v-3.16H29.8v3.16zm17.83.287H29.662a.141.141 0 0 1-.138-.143V23.79c0-.079.062-.143.138-.143h17.97c.076 0 .138.064.138.143v3.447c0 .079-.062.143-.138.143zM44.535 32.991H43.43c-.075 0-.135-.116-.135-.26 0-.144.06-.26.135-.26h1.106c.075 0 .136.116.136.26 0 .144-.06.26-.136.26M40.407 32.991h-.768c-.073 0-.132-.116-.132-.26 0-.144.059-.26.132-.26h.768c.073 0 .132.116.132.26 0 .144-.06.26-.132.26"/>
        <path fill="#6A79A8" d="M39.69 32.991h-1.744c-.089 0-.16-.116-.16-.26 0-.144.071-.26.16-.26h1.744c.09 0 .16.116.16.26 0 .144-.07.26-.16.26M30.546 32.131c-.072 0-.14-.027-.173-.074-.165-.24-.163-.494-.162-.74v-.077c0-.07.086-.127.19-.127.105 0 .19.057.19.127l-.001.079c-.002.228-.003.443.127.633.044.063.002.138-.093.168a.27.27 0 0 1-.078.011M31.115 33.15a.094.094 0 0 1-.03-.006 1.073 1.073 0 0 1-.488-.364.23.23 0 0 1-.008-.252c.048-.072.13-.077.182-.01a.826.826 0 0 0 .375.28c.07.024.111.12.094.216-.014.081-.067.135-.125.135M36.67 25.186a.261.261 0 0 1-.262-.26.261.261 0 0 1 .524 0c0 .143-.118.26-.262.26M41.49 25.186a.261.261 0 0 1-.262-.26.261.261 0 0 1 .524 0c0 .143-.118.26-.262.26"/>
        <path fill="#FF9C81" d="M37.44 25.683c0 .188-.153.34-.343.34a.342.342 0 0 1-.345-.34c0-.187.155-.34.345-.34.19 0 .344.153.344.34M41.228 25.683c0 .188-.154.34-.344.34a.342.342 0 0 1-.345-.34c0-.187.155-.34.345-.34.19 0 .344.153.344.34"/>
        <path fill="#6A79A8" d="M38.828 26.362c-.492 0-.967-.162-1.339-.455a.12.12 0 0 1-.014-.18.149.149 0 0 1 .197-.013c.32.254.731.393 1.156.393.416 0 .82-.134 1.138-.378a.149.149 0 0 1 .196.015.12.12 0 0 1-.017.18 2.17 2.17 0 0 1-1.317.438"/>
        <path fill="#BBDFF5" d="M45.202 41.973H31.746c-.848 0-1.535-.7-1.535-1.562v-.949c0-.862.687-1.562 1.535-1.562h13.456c.847 0 1.534.7 1.534 1.562v.949c0 .863-.687 1.562-1.534 1.562"/>
        <path fill="#6A79A8" d="M31.89 38.184c-.773 0-1.403.647-1.403 1.442v.961c0 .795.63 1.441 1.403 1.441h13.512c.773 0 1.402-.646 1.402-1.44v-.962c0-.795-.629-1.442-1.402-1.442H31.89zm13.512 4.128H31.89c-.926 0-1.679-.774-1.679-1.725v-.961c0-.952.753-1.726 1.68-1.726H45.4c.926 0 1.68.774 1.68 1.726v.961c0 .951-.754 1.725-1.68 1.725z"/>
        <path fill="#6A79A8" d="M36.708 39.539c.056.009.124.012.218.012.346 0 .56-.123.56-.33 0-.186-.184-.297-.509-.297-.132 0-.222.01-.269.018v.597zm-.644-.918c.2-.024.482-.042.879-.042.401 0 .687.054.88.162.183.102.306.27.306.468a.562.562 0 0 1-.264.48c-.222.147-.55.213-.935.213-.085 0-.162-.003-.222-.01v.723h-.644v-1.994zM39.051 39.748l-.14-.432c-.04-.12-.081-.272-.115-.392h-.007c-.033.12-.067.275-.104.392l-.134.432h.5zm-.574.345l-.161.522h-.53l.691-2.036h.672l.702 2.036H39.3l-.175-.522h-.648zM40.6 40.615v-.833l-.75-1.203h.613l.243.49c.074.148.123.256.183.39h.007c.053-.128.11-.245.18-.39l.239-.49h.602l-.782 1.187v.85H40.6M44.875 8.715a.138.138 0 0 1-.099-.042 7.799 7.799 0 0 0-11.227 0 .137.137 0 0 1-.198 0 .147.147 0 0 1 0-.204 8.074 8.074 0 0 1 11.623 0 .147.147 0 0 1 0 .204.138.138 0 0 1-.099.042"/>
        <path fill="#6A79A8" d="M43.157 10.072a.133.133 0 0 1-.097-.042c-2.15-2.272-5.646-2.272-7.795 0a.132.132 0 0 1-.194 0 .15.15 0 0 1 0-.205c2.256-2.385 5.927-2.385 8.182 0a.15.15 0 0 1 0 .205.133.133 0 0 1-.096.042M42.112 11.43a.179.179 0 0 1-.106-.032c-1.378-1.02-3.62-1.02-5 0a.188.188 0 0 1-.21 0c-.058-.044-.058-.113 0-.156 1.495-1.107 3.927-1.107 5.421 0 .058.043.058.112 0 .156a.179.179 0 0 1-.105.032"/>
        <circle cx="56.134" cy="5.42" r="5.42" fill="#2496FF"/>
    </g>
</svg>
