<svg xmlns="http://www.w3.org/2000/svg" width="91" height="77" viewBox="0 0 91 77">
    <defs>
        <linearGradient id="a" x1="50%" x2="50%" y1="0%" y2="100%">
            <stop offset="0%" stop-color="#389EFC"/>
            <stop offset="100%" stop-color="#E8F4FF"/>
        </linearGradient>
    </defs>
    <g fill="none" fill-rule="evenodd">
        <ellipse cx="45.5" cy="39.448" stroke="url(#a)" stroke-width="3" rx="37.32" ry="35.552"/>
        <path fill="#FFF" d="M82.139 64.935V23.758c0-.745-.643-1.355-1.428-1.355H9.267c-.785 0-1.428.61-1.428 1.355v41.177h74.3"/>
        <path fill="#BBDFF5" d="M83.502 65.91V24.731c0-.745-.643-1.355-1.428-1.355H10.63c-.785 0-1.428.61-1.428 1.355v41.177h74.3"/>
        <path fill="#6A79A8" d="M8.204 64.914h73.91V23.93c0-.651-.558-1.181-1.244-1.181H9.449c-.687 0-1.245.53-1.245 1.181v40.984zm74.093.346H8.021a.178.178 0 0 1-.182-.173V23.93c0-.842.722-1.527 1.61-1.527h71.42c.888 0 1.61.685 1.61 1.527v41.157a.178.178 0 0 1-.182.173z"/>
        <path fill="#FFF" d="M86.25 69.156H4.403c-2.24 0-4.062-1.693-4.062-3.773v-.227c0-.122.107-.22.238-.22H90.08c.132 0 .238.098.238.22v.222c0 2.083-1.824 3.778-4.068 3.778"/>
        <path fill="#BBDFF5" d="M86.932 70.13H5.085c-2.24 0-4.063-1.693-4.063-3.773v-.227c0-.122.107-.22.239-.22h89.5c.132 0 .239.098.239.22v.222c0 2.083-1.825 3.778-4.068 3.778"/>
        <path fill="#6A79A8" d="M.42 64.973a.056.056 0 0 0-.055.055v.242c0 2.122 1.74 3.848 3.879 3.848h81.825c2.142 0 3.884-1.729 3.884-3.854v-.236a.055.055 0 0 0-.055-.055H.42zM86.07 69.48H4.244C1.904 69.48 0 67.59 0 65.27v-.242a.42.42 0 0 1 .42-.418h89.478a.42.42 0 0 1 .42.418v.236c0 2.325-1.906 4.217-4.25 4.217z"/>
        <path fill="#FFF" d="M34.764 64.935c.113.736.704 1.299 1.414 1.299H53.8c.71 0 1.3-.563 1.413-1.299H34.764"/>
        <path fill="#6A79A8" d="M35.183 64.986c.175.516.65.872 1.2.872h17.893a1.27 1.27 0 0 0 1.2-.872H35.184zm19.093 1.248H36.383c-.805 0-1.485-.59-1.616-1.405a.192.192 0 0 1 .04-.152.181.181 0 0 1 .14-.067h20.765c.054 0 .105.025.14.067.034.042.05.098.04.152-.131.814-.81 1.405-1.616 1.405z"/>
        <path fill="#FFF" d="M11.929 62.987h66.12V25.649h-66.12z"/>
        <path fill="#F0F9FC" d="M11.929 62.987h66.12V25.649h-66.12z"/>
        <path fill="#6A79A8" d="M12.291 62.64h65.395V25.67H12.291v36.97zm65.576.347H12.11a.177.177 0 0 1-.181-.173V25.498c0-.096.081-.173.181-.173h65.757c.101 0 .182.077.182.173v37.316c0 .095-.081.173-.182.173z"/>
        <path fill="#FFF" d="M17.382 63.312h54.873V17.857H17.382z"/>
        <path fill="#DEF3F9" d="M18.064 21.753h54.872v-3.571H18.064z"/>
        <path fill="#6A79A8" d="M17.745 21.395h54.487v-3.504H17.745v3.504zm54.669.358h-54.85a.18.18 0 0 1-.182-.179v-3.862a.18.18 0 0 1 .182-.18h54.85c.1 0 .182.08.182.18v3.862a.18.18 0 0 1-.182.18z"/>
        <path fill="#FFF" d="M22.154 20.13c0-.538-.458-.974-1.023-.974s-1.022.436-1.022.974.457.974 1.022.974 1.023-.436 1.023-.974M24.88 20.13c0-.538-.458-.974-1.022-.974-.565 0-1.023.436-1.023.974s.458.974 1.023.974c.564 0 1.022-.436 1.022-.974M27.948 20.13c0-.538-.458-.974-1.023-.974s-1.022.436-1.022.974.457.974 1.022.974 1.023-.436 1.023-.974"/>
        <path fill="#6A79A8" d="M20.45 18.831c-.376 0-.682.291-.682.65 0 .358.306.649.681.649.376 0 .682-.291.682-.65 0-.358-.306-.649-.682-.649zm0 1.624c-.564 0-1.023-.437-1.023-.974 0-.538.459-.975 1.022-.975.564 0 1.023.437 1.023.975 0 .537-.459.974-1.023.974zM23.176 18.831c-.376 0-.682.291-.682.65 0 .358.306.649.682.649.376 0 .682-.291.682-.65 0-.358-.306-.649-.682-.649zm0 1.624c-.564 0-1.022-.437-1.022-.974 0-.538.458-.975 1.022-.975.564 0 1.023.437 1.023.975 0 .537-.46.974-1.023.974zM25.903 18.831c-.376 0-.682.291-.682.65 0 .358.306.649.682.649.375 0 .681-.291.681-.65 0-.358-.306-.649-.681-.649zm0 1.624c-.564 0-1.023-.437-1.023-.974 0-.538.459-.975 1.023-.975.563 0 1.022.437 1.022.975 0 .537-.459.974-1.022.974z"/>
        <path fill="#6A79A8" d="M17.745 62.641h54.487V17.878H17.745v44.763zm54.669.346h-54.85a.177.177 0 0 1-.182-.173V17.705c0-.095.081-.173.182-.173h54.85c.1 0 .182.078.182.173v45.11c0 .095-.081.172-.182.172z"/>
        <path fill="#F0F9FC" d="M31.015 60.714H57.94v-1.948H31.015z"/>
        <path fill="#6A79A8" d="M50.597 59.916H39.04c-.102 0-.185-.112-.185-.25 0-.139.083-.25.185-.25h11.558c.103 0 .186.111.186.25 0 .138-.083.25-.186.25M60.485 58.292H27.789c-.1 0-.182-.112-.182-.25s.081-.25.182-.25h32.696c.1 0 .182.112.182.25s-.082.25-.182.25"/>
        <path fill="#F0F9FC" d="M36.468 33.766h9.884V25.65h-9.884z"/>
        <path fill="#BBDFF5" d="M64.802 43.182H25.516c-1.857 0-3.362-1.381-3.362-3.085 0-1.703 1.505-3.084 3.362-3.084h39.286c1.857 0 3.363 1.38 3.363 3.084 0 1.704-1.506 3.085-3.363 3.085"/>
        <path fill="#F0F9FC" d="M67.95 25.65H50.443v8.116h17.723V25.65h-.214"/>
        <path fill="#6A79A8" d="M65.598 32.318h-13.27c-.1 0-.182-.112-.182-.25s.081-.25.181-.25h13.27c.1 0 .182.112.182.25s-.081.25-.181.25M65.933 30.045h-5.76c-.104 0-.188-.111-.188-.25 0-.138.084-.25.187-.25h5.76c.104 0 .188.112.188.25 0 .139-.084.25-.187.25M58.091 30.045h-5.755c-.105 0-.19-.111-.19-.25 0-.138.085-.25.19-.25h5.755c.105 0 .19.112.19.25 0 .139-.085.25-.19.25M58.094 28.097h-5.76c-.104 0-.188-.112-.188-.25s.084-.25.187-.25h5.76c.104 0 .188.112.188.25s-.084.25-.187.25"/>
        <path fill="#F0F9FC" d="M67.95 46.104H50.443v8.117h17.723v-8.117h-.214M36.468 54.22h9.884v-8.116h-9.884z"/>
        <path fill="#6A79A8" d="M44.46 52.448H38.7c-.103 0-.187-.112-.187-.25s.084-.25.188-.25h5.76c.103 0 .187.112.187.25s-.084.25-.188.25M44.458 50.5h-5.755c-.105 0-.19-.112-.19-.25s.085-.25.19-.25h5.755c.105 0 .19.112.19.25s-.085.25-.19.25M44.12 48.552h-5.76c-.104 0-.188-.112-.188-.25s.084-.25.187-.25h5.761c.103 0 .187.112.187.25s-.084.25-.187.25"/>
        <path fill="#F0F9FC" d="M22.154 54.22h9.883v-8.116h-9.883z"/>
        <path fill="#6A79A8" d="M30.146 52.448h-5.76c-.103 0-.187-.112-.187-.25s.084-.25.187-.25h5.76c.103 0 .187.112.187.25s-.084.25-.187.25M30.143 50.5h-5.755c-.105 0-.19-.112-.19-.25s.085-.25.19-.25h5.755c.105 0 .19.112.19.25s-.085.25-.19.25M30.146 48.552h-5.76c-.104 0-.187-.112-.187-.25s.083-.25.187-.25h5.76c.104 0 .187.112.187.25s-.083.25-.187.25"/>
        <path fill="#F0F9FC" d="M22.154 33.766h9.883V25.65h-9.883z"/>
        <path fill="#6A79A8" d="M30.146 32.318h-5.76c-.103 0-.187-.112-.187-.25s.084-.25.187-.25h5.76c.103 0 .187.112.187.25s-.084.25-.187.25M30.143 30.045h-5.755c-.105 0-.19-.111-.19-.25 0-.138.085-.25.19-.25h5.755c.105 0 .19.112.19.25 0 .139-.085.25-.19.25M30.146 28.097h-5.76c-.104 0-.187-.112-.187-.25s.083-.25.187-.25h5.76c.104 0 .187.112.187.25s-.083.25-.187.25M44.648 46.753c-.188 0-.34-.12-.34-.27v-3.68c0-.15.152-.27.34-.27.188 0 .34.12.34.27v3.68c0 .15-.152.27-.34.27M44.648 38.636c-.188 0-.34-.122-.34-.272v-3.676c0-.15.152-.272.34-.272.188 0 .34.121.34.272v3.676c0 .15-.152.272-.34.272M48.815 44.805a.27.27 0 0 1-.186-.073l-2.54-2.42a.242.242 0 0 1 0-.355.272.272 0 0 1 .372 0l2.54 2.42a.242.242 0 0 1 0 .355.27.27 0 0 1-.186.073M42.68 38.961a.27.27 0 0 1-.185-.073l-2.541-2.421a.242.242 0 0 1 0-.355.273.273 0 0 1 .372 0l2.54 2.421a.242.242 0 0 1 0 .355.27.27 0 0 1-.185.073M50.84 40.91h-3.864c-.156 0-.283-.146-.283-.326 0-.179.127-.324.283-.324h3.865c.156 0 .283.145.283.324 0 .18-.127.325-.283.325M41.98 40.91h-3.865c-.157 0-.284-.146-.284-.326 0-.179.127-.324.284-.324h3.864c.156 0 .283.145.283.324 0 .18-.127.325-.283.325M46.274 38.961a.27.27 0 0 1-.186-.073.242.242 0 0 1 0-.355l2.541-2.42a.273.273 0 0 1 .373 0 .242.242 0 0 1 0 .354l-2.541 2.42a.27.27 0 0 1-.187.074M40.14 44.805a.27.27 0 0 1-.186-.073.242.242 0 0 1 0-.355l2.54-2.42a.272.272 0 0 1 .373 0 .242.242 0 0 1 0 .354l-2.541 2.42a.27.27 0 0 1-.186.074"/>
        <path fill="#FFF" d="M57.258 49.785l-4.888-4.657 2.889-2.751-10.555-2.117-.056.053 2.222 10.055 2.889-2.752 4.888 4.657 2.611-2.488"/>
        <path fill="#FF9C81" d="M57.6 50.76l-4.89-4.658 2.89-2.751-10.556-2.117-.055.053 2.222 10.055L50.1 48.59l4.888 4.657 2.611-2.488"/>
        <path fill="#6A79A8" d="M49.59 47.6c.048 0 .095.018.13.052l4.75 4.524 2.346-2.236-4.75-4.523a.17.17 0 0 1-.053-.124c0-.046.02-.09.054-.123l2.643-2.518-9.997-2.005 2.105 9.523 2.643-2.518a.188.188 0 0 1 .13-.051zm4.88 4.997a.187.187 0 0 1-.13-.05l-4.75-4.524-2.752 2.622a.19.19 0 0 1-.182.044.178.178 0 0 1-.127-.131L44.31 40.524a.17.17 0 0 1 .05-.16l.055-.053a.189.189 0 0 1 .168-.047l10.533 2.112a.18.18 0 0 1 .138.121.169.169 0 0 1-.046.174l-2.753 2.622 4.749 4.524a.17.17 0 0 1 .053.123.17.17 0 0 1-.053.124l-2.606 2.482a.188.188 0 0 1-.13.051z"/>
        <ellipse cx="56.577" cy="5.195" fill="#2496FF" rx="5.453" ry="5.195"/>
    </g>
</svg>
