<svg width="275" height="148" viewBox="0 0 275 148" fill="none" xmlns="http://www.w3.org/2000/svg">
    <g clip-path="url(#035g9dppqa)">
        <rect width="275" height="148" rx="8" fill="#B4DFB9"/>
        <g clip-path="url(#qrska11mwb)">
            <path d="M74.451 73.168c3.516-1.416 5.21-5.394 3.784-8.884-1.426-3.49-5.432-5.173-8.948-3.757-3.515 1.416-5.21 5.394-3.783 8.884 1.426 3.49 5.432 5.172 8.947 3.757z" fill="#F5F5F5"/>
            <path d="M67.922 67.787c0-.336.25-.557.567-.557.317 0 .568.221.568.557 0 .337-.251.57-.568.57a.557.557 0 0 1-.567-.57zM72.703 67.003H70.32c.088.39.42.629.9.629.332 0 .573-.1.79-.302l.486.523c-.292.33-.73.504-1.298.504-1.088 0-1.797-.678-1.797-1.61 0-.93.722-1.609 1.68-1.609.96 0 1.64.617 1.64 1.622 0 .069-.012.168-.018.243zm-2.392-.53h1.551a.747.747 0 0 0-.77-.65c-.408 0-.716.25-.778.65h-.003zM73.026 68.018l.305-.65c.282.18.708.301 1.094.301.42 0 .58-.109.58-.283 0-.51-1.9.012-1.9-1.236 0-.591.539-1.012 1.458-1.012.432 0 .912.1 1.21.274l-.304.645a1.82 1.82 0 0 0-.906-.234c-.411 0-.587.128-.587.29 0 .535 1.9.018 1.9 1.248 0 .582-.545.993-1.486.993-.533 0-1.069-.146-1.364-.336z" fill="#E0E0E0"/>
            <path d="M81.45 113.207c6.611 0 11.97-5.321 11.97-11.885 0-6.563-5.359-11.885-11.97-11.885-6.61 0-11.97 5.322-11.97 11.885 0 6.564 5.36 11.885 11.97 11.885z" fill="#F5F5F5"/>
            <path d="M74.575 102.957c0-.589.44-.972.99-.972.553 0 .992.386.992.972a.967.967 0 0 1-.991.993.97.97 0 0 1-.99-.993zM81.043 98.337v1.457c-.132-.01-.236-.019-.358-.019-.878 0-1.458.477-1.458 1.519v2.572h-1.592v-5.448h1.52v.72c.39-.527 1.041-.8 1.888-.8zM87.557 98.421v5.448H86.05v-.648c-.417.476-1.031.729-1.702.729-1.376 0-2.345-.769-2.345-2.45v-3.079h1.593v2.845c0 .912.407 1.317 1.113 1.317.705 0 1.263-.467 1.263-1.469v-2.693h1.593-.007z" fill="#E0E0E0"/>
            <path d="M186.619 119.856c5.323 0 9.637-4.284 9.637-9.569 0-5.284-4.314-9.568-9.637-9.568s-9.638 4.284-9.638 9.568c0 5.285 4.315 9.569 9.638 9.569z" fill="#F5F5F5"/>
            <path d="M181.082 111.604c0-.473.354-.781.796-.781.442 0 .797.311.797.781 0 .47-.355.8-.797.8a.781.781 0 0 1-.796-.8zM187.534 109.836v2.503h-1.197v-.545c-.238.399-.699.61-1.345.61-1.035 0-1.649-.569-1.649-1.329 0-.759.548-1.314 1.897-1.314h1.018c0-.544-.329-.865-1.018-.865-.468 0-.954.156-1.273.408l-.461-.887c.483-.343 1.197-.53 1.906-.53 1.345 0 2.126.62 2.126 1.949h-.004zm-1.279 1.118v-.449h-.878c-.598 0-.786.221-.786.514 0 .318.269.529.721.529.426 0 .796-.196.943-.594zM193.143 107.953v4.386h-1.217v-.523c-.335.383-.827.588-1.37.588-1.11 0-1.887-.619-1.887-1.973v-2.478h1.279v2.291c0 .735.329 1.058.894 1.058.564 0 1.019-.376 1.019-1.183v-2.166H193.143z" fill="#E0E0E0"/>
            <path d="M194.76 87.638c4.244 0 7.685-3.416 7.685-7.63 0-4.213-3.441-7.63-7.685-7.63-4.243 0-7.684 3.417-7.684 7.63 0 4.214 3.441 7.63 7.684 7.63z" fill="#F5F5F5"/>
            <path d="M190.346 81.058c0-.377.282-.626.636-.626.354 0 .637.246.637.626a.62.62 0 0 1-.637.638.624.624 0 0 1-.636-.638zM192.186 77.089c0-.318.253-.567.636-.567.382 0 .636.234.636.545 0 .34-.254.585-.636.585-.383 0-.636-.246-.636-.566v.003zm.125 1.052h1.022v3.499h-1.022v-3.5zM197.883 79.638v2.002h-1.022v-1.846c0-.567-.264-.825-.715-.825-.493 0-.844.299-.844.943v1.73h-1.022v-3.498h.975v.41c.276-.298.687-.46 1.167-.46.83 0 1.461.483 1.461 1.547v-.003z" fill="#E0E0E0"/>
            <path d="M77.491 32.37c5.406 0 9.788-4.352 9.788-9.72 0-5.367-4.382-9.718-9.788-9.718-5.406 0-9.788 4.351-9.788 9.719 0 5.367 4.382 9.718 9.788 9.718z" fill="#F5F5F5"/>
            <path d="M71.87 23.986c0-.48.358-.794.809-.794.451 0 .809.315.809.794 0 .48-.358.813-.809.813a.793.793 0 0 1-.809-.813zM78.94 20.279v3.707c0 1.656-.9 2.419-2.517 2.419-.85 0-1.678-.209-2.201-.613l.517-.928c.383.305 1.01.504 1.583.504.919 0 1.317-.414 1.317-1.217v-.19c-.341.374-.834.554-1.417.554-1.241 0-2.241-.853-2.241-2.154s1-2.15 2.241-2.15c.624 0 1.141.205 1.483.637v-.57h1.235zm-1.285 2.085c0-.653-.492-1.092-1.176-1.092-.683 0-1.185.439-1.185 1.092 0 .654.502 1.093 1.185 1.093.684 0 1.176-.439 1.176-1.093zM80.15 18.588h1.301v6.142h-1.3v-6.142z" fill="#E0E0E0"/>
            <path d="M197.785 32.602c6.026-2.547 8.831-9.461 6.266-15.443-2.565-5.983-9.529-8.768-15.554-6.221-6.026 2.546-8.831 9.46-6.266 15.443 2.565 5.983 9.529 8.768 15.554 6.221z" fill="#F5F5F5"/>
            <path d="M185.669 23.563c0-.535.401-.887.903-.887.501 0 .903.352.903.887a.881.881 0 0 1-.903.906.886.886 0 0 1-.903-.906zM193.432 19.429v4.965h-1.377v-.591c-.379.432-.937.662-1.552.662-1.254 0-2.138-.7-2.138-2.231v-2.805h1.449v2.593c0 .831.373 1.198 1.012 1.198.64 0 1.154-.423 1.154-1.338v-2.456h1.449l.003.003zM196.924 22.445l-.696.682v1.264h-1.449v-6.845h1.449v3.875l2.119-1.992h1.728l-2.082 2.104 2.267 2.861h-1.756l-1.58-1.949z" fill="#E0E0E0"/>
            <path d="M86.683 114.546s-1.953.784.3 4.906c2.255 4.118 3.794 6.148 3.794 6.148s.405.959-.41 1.13c-.819.171-2.634-.069-2.976.94-.35 1.046.43 2.001 1.988 2.82s4.906 2.733 5.207 2.908c.298.171.603.613.063.818-.539.206-4.596.732-4.23 2.631.368 1.895 5.086 3.464 5.597 3.648.511.18.64.392.605.669-.034.277-1.414.327-2.564.523-1.148.196-2.446.626-2.142 1.703.304 1.077 3.132 3.284 9.87 3.763l3.138.019 1.637-2.674c3.154-5.933 2.762-9.482 2.003-10.31-.759-.828-1.812.041-2.587.903-.774.862-1.548 2.002-1.802 1.883-.254-.118-.367-.336-.251-.865.116-.529 1.27-5.332-.157-6.646-1.426-1.314-4.022 1.83-4.483 2.173-.46.345-.677-.147-.668-.486.01-.345.144-4.181.27-5.927.125-1.746-.28-2.91-1.358-3.166-1.04-.246-1.796 1.41-2.376 2.011-.58.598-1.185-.252-1.185-.252s-.919-2.372-3.248-6.45c-2.33-4.078-4.07-2.808-4.07-2.808" fill="#EBEBEB"/>
            <path d="M105.108 147.897c-1.7-3-4.628-8.386-7.167-12.996-2.537-4.61-4.841-8.778-6.521-11.788a2942.903 2942.903 0 0 0-2.54-4.53l-.138-.252a.883.883 0 0 1-.044-.087s.02.028.053.084l.148.249c.128.224.317.545.558.959.483.834 1.176 2.045 2.025 3.549 1.7 3 4.01 7.169 6.55 11.776 2.539 4.61 5.458 10.001 7.141 13.011" fill="#E0E0E0"/>
            <path d="M89.918 128.106s.082.012.22.056c.14.04.341.106.586.187.495.164 1.17.41 1.912.697l1.894.734c.229.088.42.162.577.218.135.05.21.084.207.091a1.014 1.014 0 0 1-.22-.053 13.813 13.813 0 0 1-.586-.19 73.82 73.82 0 0 1-1.906-.71l-1.9-.722-.577-.218c-.135-.053-.21-.084-.207-.09zM95.527 129.886c-.025-.009.424-1.416 1.004-3.141.58-1.727 1.072-3.119 1.097-3.109.025.009-.423 1.416-1.003 3.14-.58 1.728-1.07 3.12-1.098 3.11zM99.105 137.139s.037-.074.122-.196c.097-.137.216-.311.357-.513a45.95 45.95 0 0 0 2.217-3.481c.125-.214.229-.395.313-.541.076-.128.12-.196.126-.193.006.003-.028.078-.091.211-.066.134-.163.324-.289.558a28.541 28.541 0 0 1-2.222 3.489c-.16.212-.289.383-.383.498a1.196 1.196 0 0 1-.153.175l.003-.007zM93.674 136.638s.075-.006.213 0l.58.031a129.883 129.883 0 0 1 3.828.302l.58.062c.138.016.213.028.21.035a.97.97 0 0 1-.213 0c-.157-.01-.351-.019-.58-.032a128.017 128.017 0 0 1-3.828-.301c-.229-.025-.42-.044-.58-.063-.138-.015-.213-.028-.21-.034zM96.013 143.44s.097-.006.272 0l.747.037c.63.034 1.498.09 2.454.159.96.068 1.828.134 2.455.187.301.028.549.049.743.068.176.019.273.031.273.037 0 .007-.097.007-.273 0a108.7 108.7 0 0 1-3.2-.196c-.96-.068-1.825-.133-2.456-.186l-.743-.069a1.82 1.82 0 0 1-.272-.037zM102.794 143.869s.047-.093.148-.252c.109-.171.257-.398.429-.669a74.602 74.602 0 0 0 2.693-4.492c.157-.28.286-.514.386-.694.091-.165.144-.252.15-.249.007 0-.037.096-.119.267-.081.169-.203.411-.36.71a47.194 47.194 0 0 1-2.696 4.501c-.192.277-.345.502-.458.651-.11.153-.176.233-.179.23l.006-.003z" fill="#E0E0E0"/>
            <path d="M180.034 127.141c.947.541 1.577 1.537 1.831 2.593.254 1.055.16 2.166-.081 3.225-.471 2.048-1.894 4.006-3.358 5.522-1.586-1.719-1.69-4.424-1.655-5.796.053-2.173 1.479-6.067 3.266-5.544M180.082 142.129c-.151-1.205.485-2.434 1.482-3.135.997-.7 2.302-.899 3.499-.672.555.106 1.141.333 1.411.828.251.461.151 1.055-.144 1.488-.295.436-.756.732-1.229.959-1.63.778-3.355 1.236-5.019.532" fill="#EBEBEB"/>
            <path d="M177.457 146.696c-.025-.01.104-.52.392-1.333.144-.404.376-.878.69-1.354.313-.473.652-.999 1.088-1.503.862-1.012 1.903-1.688 2.721-1.989a5.04 5.04 0 0 1 .997-.265c.241-.028.376-.031.376-.016.006.044-.53.1-1.31.436-.778.333-1.769 1.003-2.606 1.986-.423.486-.761 1.009-1.084 1.469-.32.464-.555.903-.715 1.299-.323.787-.511 1.285-.546 1.27h-.003z" fill="#E0E0E0"/>
            <path d="M179.214 130.2c.015 0 .012.253-.01.704a89.168 89.168 0 0 1-.116 1.908c-.11 1.609-.288 3.835-.548 6.285a133.3 133.3 0 0 1-.803 6.26 63.27 63.27 0 0 1-.317 1.886c-.081.446-.135.688-.153.685-.016 0 .006-.252.062-.7.063-.489.145-1.127.242-1.896.207-1.6.476-3.813.733-6.26l.618-6.272.191-1.902c.05-.449.085-.698.101-.694v-.004z" fill="#E0E0E0"/>
            <path d="M177.338 142.63c-.47-2.512-2.241-4.75-4.59-5.793-.598-.264-1.376-.429-1.849.019-.477.451-.345 1.233-.091 1.833 1.056 2.503 3.765 4.215 6.496 4.112" fill="#EBEBEB"/>
            <path d="M173.213 138.686s.128.044.335.162c.21.115.502.299.856.536.69.488 1.659 1.217 2.399 2.312.366.548.62 1.13.768 1.678.15.551.175 1.068.172 1.494-.019.427-.056.772-.113 1.003-.05.233-.084.358-.1.355-.047-.007.06-.523.047-1.358a5.926 5.926 0 0 0-.216-1.438 5.83 5.83 0 0 0-.756-1.606c-.712-1.055-1.64-1.79-2.298-2.31-.674-.507-1.113-.8-1.091-.831l-.003.003z" fill="#E0E0E0"/>
            <path d="M183.926 56.696a42.876 42.876 0 0 1 0 0z" fill="#263238"/>
            <path d="M179.421 63.607c-.486-1.09-.596-2.297-.919-3.443-.172-.616-.464-1.27-1.044-1.544-.386-.18-.84-.156-1.248-.28-1.467-.436-1.868-2.469-3.257-3.1-.439-.197-.925-.234-1.399-.29-1.859-.218-3.784-.856-4.95-2.307-.386-.467-.674-1.02-1.144-1.404-.48-.383-1.217-.544-1.681-.155.392.778.778 1.56 1.16 2.328.355.7.715 1.426 1.301 1.94.596.522 1.477.793 2.189.466.235-.109.47-.29.736-.258.189.025.355.156.48.305 1.013 1.114.684 2.96-.307 4.1-.981 1.13-2.442 1.721-3.847 2.275-.502.196-1.035.399-1.571.305-.972-.18-1.492-1.23-1.774-2.172-.637-2.09-.941-4.355-2.245-6.117-.417-.554-.934-1.059-1.185-1.706-.266-.7-.204-1.52-.627-2.136-.439-.647-1.373-1.02-1.436-1.799-.041-.545.417-1.027.919-1.264.501-.242 1.066-.311 1.586-.523.204-.087.433-.233.439-.451 0-.327-.455-.46-.574-.763-.125-.342.229-.663.377-.996.322-.762-.48-1.534-1.258-1.846-.768-.311-1.702-.538-2.063-1.285-.166-.343-.181-.741-.25-1.115-.182-.943-.878-1.855-1.838-2.01-.965-.156-2.031.694-1.874 1.643.094.523.486.928.699 1.41.219.483.156 1.199-.345 1.357-.825.25-1.618-1.245-2.308-.731.283.959.558 1.917.841 2.882-1.082.545-2.377-.445-2.841-1.566-.464-1.114-.48-2.39-1.028-3.467-.549-1.084-2.032-1.887-2.975-1.12-.047 1.387 1.796 1.948 2.614 3.068.59.81.502 2.127-.37 2.643-.862.514-2.235-.383-1.906-1.326.119-.327.392-.6.423-.95.032-.435-.338-.787-.674-1.067-.526-.445-1.05-.88-1.577-1.317-.338-.28-.699-.576-1.122-.7-1.082-.311-2.166.56-2.74 1.519-.574.965-.894 2.095-1.687 2.898-1.138 1.167-3.295 1.239-4.364.016-1.075-1.224-.527-3.515 1.05-3.96.596-.165 1.352-.15 1.665-.67.549-.927-1.019-2.11-.48-3.047.417-.716 1.515-.389 2.314-.632.793-.242 1.239-1.036 1.712-1.721.464-.679 1.194-1.364 2.01-1.186-.063-.476-.126-.99.087-1.42.214-.435.809-.715 1.201-.435-.401.653.078 1.565.778 1.892.699.327 1.514.25 2.282.165.768-.093 1.734-.373 1.796-1.136.026-.249-.072-.514.026-.747.338-.912 2.031.342 2.683-.39.376-.382-.037-1.058-.564-1.182-.517-.134-1.06.062-1.593.078-.533.022-1.185-.259-1.21-.788-.022-.523.564-.896.627-1.41.104-.872-1.389-1.099-1.915-.389-.518.71-.339 1.684-.182 2.55.166.865.244 1.886-.402 2.493-.276.414-.987.196-1.222-.243-.245-.436-.188-.965-.229-1.457-.038-.498-.26-1.058-.746-1.192-.339-.093-.7.072-1.044.118-1.367.165-2.314-1.59-1.885-2.882.424-1.301 1.665-2.136 2.866-2.799.878-.482 1.969-.934 2.84-.445.408.227.69.616 1.091.85.69.405 1.546.258 2.339.274a5.476 5.476 0 0 1 3.414 1.317c.355.32.684.85.408 1.232-.298.405-1.154.492-1.003.965.925.305 2.031-.404 2.135-1.363.454.202.784.663.824 1.152.997-1.006 2.913-.856 3.728.305.219.305.376.669.69.88.313.203.862.103.903-.264a.723.723 0 0 0-.063-.342c-.188-.53-.386-1.053-.574-1.576.731-.389 1.593.218 2.088.872 1.837 2.44 3.148.974 5.738 1.373 1.749.265 2.52 1.379 3.508 2.727 3.028 4.146 7.032 7.542 9.785 11.875.291.452.558.912.808 1.38-.047-.119-.084-.234-.134-.352a47.623 47.623 0 0 0-4.004-8.081 63.364 63.364 0 0 0-1.035-1.613 42.546 42.546 0 0 0-1.577-2.21 32.483 32.483 0 0 0-.736-.959c-.173-.218-.355-.436-.533-.653a9.923 9.923 0 0 0-.612-.732l-.658-.756a3.023 3.023 0 0 0-.213-.234 20.6 20.6 0 0 0-.715-.778.249.249 0 0 0-.072-.078c-.063-.072-.135-.14-.204-.212-.197-.218-.407-.43-.611-.638a35.862 35.862 0 0 0-1.035-1.011c-.291-.29-.589-.56-.893-.835a30.09 30.09 0 0 0-.809-.716c-.267-.233-.533-.46-.809-.684a32.86 32.86 0 0 0-1.013-.825h-.009a43.078 43.078 0 0 0-2.935-2.142c-.25-.171-.495-.336-.746-.498-.251-.171-.511-.327-.762-.483-.26-.155-.511-.32-.768-.466-.26-.166-.517-.312-.777-.461a14.3 14.3 0 0 0-.627-.352c-.11-.072-.214-.124-.323-.18a31.764 31.764 0 0 0-1.358-.716 17.943 17.943 0 0 0-.689-.343c-.292-.15-.59-.29-.888-.42a.674.674 0 0 0-.135-.062 28.03 28.03 0 0 0-.808-.368 62.934 62.934 0 0 0-1.154-.482c-.439-.18-.878-.358-1.326-.523a31.593 31.593 0 0 0-1.493-.53 47.654 47.654 0 0 0-1.523-.491 51.004 51.004 0 0 0-4.64-1.161c-.016-.006-.041-.006-.057-.016-.401-.078-.799-.155-1.201-.218a41.245 41.245 0 0 0-2.871-.414c-.085-.015-.182-.022-.276-.03-.22-.032-.439-.048-.668-.072a47.59 47.59 0 0 0-1.514-.119c-.527-.04-1.06-.062-1.593-.078a37.403 37.403 0 0 0-1.671-.03c-1.477 0-2.934.062-4.38.195a40.598 40.598 0 0 0-3.129.367 39.05 39.05 0 0 0-1.05.172c-.298.047-.605.103-.903.165-.737.14-1.467.296-2.188.467-.339.078-.674.165-1.013.258-.338.087-.674.18-1.003.274-.558.156-1.097.327-1.64.498h-.009c-.439.15-.887.296-1.317.445-.009 0-.025.007-.031.016-.449.155-.878.32-1.32.492-.025.01-.047.015-.072.025-.402.155-.8.32-1.192.482-.495.203-.981.42-1.461.638a38.31 38.31 0 0 0-1.2.57c-.424.212-.847.42-1.264.638-.016.01-.031.016-.047.025-.401.212-.799.43-1.191.654-.408.227-.809.46-1.21.71h-.01c-.376.227-.746.45-1.113.684-.141.087-.276.18-.417.274-.392.25-.768.508-1.154.772a48.975 48.975 0 0 0-2.558 1.893 49.366 49.366 0 0 0-6.167 5.805 45.755 45.755 0 0 0-1.906 2.245 42.717 42.717 0 0 0-1.498 2.001c.125-.015.25-.03.376-.04.705-.056 1.451-.031 2.088-.336.59-.29 1.003-.81 1.54-1.183 1.366-.965 3.601-1.146 3.971-2.768.126-.544-.025-1.136.182-1.659.386-.974 1.696-1.114 2.747-1.099.448 0 .972.063 1.175.452.151.274.063.616-.047.902-.642 1.825-1.947 3.397-3.602 4.396-1.367.825-3.148 1.466-3.524 3.007.188.523 1.144.482 1.223 1.027.056.436-.511.663-.715 1.052-.298.57.386 1.264 1.035 1.23.652-.031 1.191-.498 1.671-.934 1.429-1.317 2.928-2.736 3.445-4.604.22-.772.298-1.675.925-2.188.746-.607 2.079-.187 2.329.74.621-.342 1.587-.6 1.907.041.109.227.078.492.134.732.204.996 1.577 1.45 1.718 2.453.167 1.16-1.335 1.761-2.501 1.939-1.06.165-2.12.327-3.179.498-.464.072-.941.15-1.32.42-.377.28-.612.81-.392 1.223.125.228.37.374.548.56.878.872.157 2.675-1.081 2.712-.423.016-.84-.14-1.264-.156-1.254-.056-2.251 1.043-2.849 2.142-.596 1.099-1.044 2.354-2.048 3.1-1.617 1.208-4.401.928-5.188 2.784-.314.747-.15 1.59-.026 2.39.126.794.182 1.684-.291 2.344-.464.654-1.671.794-2.016.062-.15-.32-.103-.694-.047-1.036.188-1.152.37-2.307.549-3.459.135-.856.25-1.814-.26-2.518-.715-.98-2.314-.887-3.242-.103-.919.788-1.301 2.018-1.562 3.194-.188.872-.407 2.105-.893 3.1a44.782 44.782 0 0 0-.401 2.94 48.732 48.732 0 0 0-.214 3.047c.126-.103.26-.228.402-.374.495-.507 1.492-2.649 2.386-1.597a.79.79 0 0 1 .015.975c-.276.351-.824.43-1.034.809-.26.451.103 1.012.526 1.31.424.306.94.492 1.239.919.573.818.025 2.057.58 2.892.48.716 1.498.762 2.37.856l.298.046c.244-1.715 1.05-3.11 3.404-3.639 3.249-.731 7.519 1.94 9.346 4.37 2.041 2.721 3.007 6.569 6.13 7.932 2.235.975 5.414.623 6.505 2.799.972 1.949-.721 4.137-.981 6.297-.166 1.426.307 2.845.417 4.271.103 1.435-.323 3.1-1.634 3.701-.73.327-1.649.29-2.235.835-1.044.98-.188 3.007-1.232 3.99-.37.343-.878.467-1.326.694-2.345 1.177-2.283 4.604-1.192 6.983l.119.249a48.966 48.966 0 0 0 11.152 4.884 49.402 49.402 0 0 0 14.284 2.089c8.405 0 16.331-2.08 23.269-5.75h.009a48.931 48.931 0 0 0 4.386-2.627 48.895 48.895 0 0 0 6.161-4.862 48.187 48.187 0 0 0 3.768-3.904c.831-.95 1.618-1.94 2.371-2.954.385-.523.761-1.043 1.113-1.582a48.004 48.004 0 0 0 2.959-4.915 47.345 47.345 0 0 0 3.211-7.682 47.387 47.387 0 0 0 1.89-8.346c.151-1.105.267-2.229.345-3.359-.542.523-1.248.897-1.994.881-1.191-.015-2.173-1.005-2.652-2.095l.022-.012z" fill="#FF725E"/>
            <path d="M91.477 74.517c-.157-1.41.313-2.82.338-4.245.016-.981-.056-2.018-.072-3.008a13.698 13.698 0 0 1-2.517-.351c-.173-.04-.361-.094-.465-.234-.11-.15-.093-.342-.103-.523-.063-1.105-1.138-1.84-2.104-2.39-.495-.29-.997-.57-1.53-.747 0 .118 0 .227.007.342a48.827 48.827 0 0 0 3.154 15.623 46.98 46.98 0 0 0 3.028 6.454 40.523 40.523 0 0 0 1.577 2.642 46.018 46.018 0 0 0 2.188 3.116 42.717 42.717 0 0 0 2.299 2.814 48.623 48.623 0 0 0 3.508 3.583 48.776 48.776 0 0 0 3.414 2.883c-2.709-7.216-5.258-14.578-9.888-20.72-1.217-1.606-2.615-3.24-2.84-5.235l.005-.004z" fill="#FF725E"/>
            <path d="M85.018 60.687c-.007.296-.016.592-.016.887 0 .243.006.48.013.722-.004-.24-.013-.479-.013-.722 0-.295.01-.591.016-.887z" fill="#263238"/>
            <path d="M106.982 102.468a43.399 43.399 0 0 1 0 0z" fill="#263238" opacity=".6"/>
            <path d="M148.981 99.38c-.313 0-.624-.031-.925-.097-1.022-.22-1.799-.806-2.188-1.646-.314-.676-.348-1.423-.379-2.145-.022-.489-.044-.993-.157-1.466-.201-.85-.668-1.582-1.163-2.354-.37-.575-.753-1.17-1.01-1.817-.47-1.183-.508-2.481-.542-3.733l-.01-.302c-.26-8.66-2.693-15.689-7.032-20.33-.602-.644-1.276-1.27-2.128-1.494-.991-.262-2.114.124-2.731.934a5.22 5.22 0 0 0-.411.669c-.197.358-.401.728-.718 1.015-.451.408-1.072.576-1.746.47-.884-.14-1.74-.725-2.176-1.491-.768-1.348-.63-3.007-.52-4.34l.448-5.372c.069-.828.163-1.965.84-2.743.524-.6 1.279-.878 2.01-1.145.542-.2 1.1-.402 1.552-.738.868-.648 1.254-1.666 1.661-2.746.226-.6.461-1.223.787-1.777.59-1.002 1.985-1.681 3.107-1.52.533.079.925.343 1.141.757.537-1.002 1.201-1.603 2.019-1.836 1.794-.51 3.979.9 6.092 2.26 1.928 1.242 3.75 2.418 5.182 2.16a11.88 11.88 0 0 0 1.082-.268c.753-.211 1.53-.43 2.326-.317 2.085.29 3.148 2.533 3.841 4.457l3.389 9.404c.423 1.17.966 2.456 2.085 2.886.439.168.912.187 1.417.205.489.019.997.038 1.473.209.847.305 1.386.962 1.559 1.899.288 1.553-.496 3.586-1.825 4.725-.615.526-1.311 1-1.988 1.457-1.533 1.037-2.978 2.014-3.605 3.623-.336.863-.376 1.821-.417 2.752-.044.996-.088 2.024-.483 2.96-.342.81-.918 1.482-1.473 2.133-.342.398-.693.812-.985 1.248-1.085 1.622-1.386 3.636-1.677 5.584l-.113.748c-.339 2.17-.925 4.588-2.699 6.098-.775.66-1.853 1.027-2.913 1.027l.003-.003zm-16.168-35.776c.239 0 .477.028.712.09.931.246 1.674.94 2.279 1.584 4.393 4.695 6.854 11.795 7.117 20.533l.009.302c.035 1.226.069 2.493.521 3.626.247.62.621 1.202.981 1.765.489.763.994 1.547 1.207 2.45.116.498.141 1.021.163 1.522.035.722.066 1.407.351 2.027.345.747 1.047 1.27 1.972 1.472 1.236.271 2.637-.068 3.568-.862 1.696-1.441 2.264-3.798 2.593-5.911l.113-.744c.294-1.98.602-4.028 1.724-5.71.301-.45.662-.871 1.006-1.276.568-.663 1.101-1.288 1.424-2.051.373-.884.417-1.887.458-2.855.04-.955.084-1.942.435-2.85.659-1.7 2.217-2.753 3.722-3.77.668-.452 1.357-.919 1.959-1.433 1.229-1.058 1.988-3.004 1.721-4.435-.106-.573-.429-1.327-1.357-1.663-.43-.155-.89-.17-1.38-.19-.504-.018-1.028-.037-1.517-.227-1.245-.48-1.822-1.836-2.267-3.072l-3.389-9.404c-.664-1.84-1.671-3.988-3.59-4.252-.73-.103-1.445.096-2.197.308-.361.1-.734.205-1.11.274-1.552.28-3.427-.928-5.408-2.204-2.054-1.323-4.179-2.693-5.835-2.223-.815.23-1.464.884-1.984 1.995l-.192.405-.103-.433c-.15-.622-.633-.821-1.013-.877-.994-.147-2.27.48-2.79 1.366-.313.533-.542 1.14-.765 1.731-.404 1.074-.824 2.185-1.768 2.886-.486.36-1.069.576-1.63.781-.725.265-1.411.517-1.882 1.058-.564.648-.68 1.544-.764 2.565l-.449 5.373c-.106 1.292-.241 2.898.48 4.162.392.688 1.16 1.211 1.953 1.339.58.09 1.107-.047 1.486-.393.279-.252.461-.582.655-.933.132-.237.267-.483.436-.707.549-.72 1.449-1.14 2.348-1.14h-.003z" fill="#FF725E"/>
            <path d="M85.049 59.526v-.01.01c-.01.093-.016.18-.016.274-.012.292-.01.591-.015.887.006-.296.003-.595.015-.887 0-.094.01-.18.016-.274zM85.015 62.293c.003.24.003.483.012.722-.01-.236-.01-.479-.012-.722z" fill="#263238" opacity=".6"/>
            <path d="M91.83 65.353c-.103-.015-.197-.031-.297-.047-.872-.093-1.89-.14-2.37-.856-.559-.834-.01-2.073-.58-2.892-.298-.429-.816-.616-1.242-.918-.423-.296-.784-.856-.527-1.31.214-.383.762-.461 1.035-.81a.79.79 0 0 0-.016-.974c-.893-1.052-1.89 1.09-2.386 1.597a3.85 3.85 0 0 1-.401.373v.01c-.01.093-.016.18-.016.274-.012.292-.009.591-.015.887-.007.296-.016.591-.016.887 0 .243.006.48.013.722.003.24.003.483.012.723.533.18 1.035.46 1.53.747.966.554 2.041 1.285 2.104 2.39.01.18-.007.374.103.523.104.14.292.196.464.234.825.196 1.671.311 2.518.351" fill="#FF725E"/>
            <path d="M91.743 67.261c.015.99.088 2.027.072 3.007-.025 1.426-.495 2.836-.339 4.246.23 1.996 1.624 3.63 2.84 5.236 4.631 6.139 7.18 13.504 9.889 20.72h.006c.502.398 1.013.772 1.53 1.136.408.292.822.579 1.239.859.417.28.84.551 1.266.819.298.186.596.367.903.544a19.625 19.625 0 0 0-.119-.249c-1.091-2.375-1.154-5.805 1.191-6.982.449-.227.957-.352 1.326-.694 1.044-.98.189-3.007 1.233-3.99.589-.545 1.508-.508 2.235-.835 1.31-.6 1.734-2.266 1.633-3.701-.109-1.426-.58-2.845-.417-4.271.261-2.157 1.954-4.349.982-6.297-1.091-2.173-4.27-1.825-6.506-2.799-3.122-1.363-4.088-5.214-6.129-7.931-1.828-2.432-6.098-5.106-9.346-4.371-2.354.53-3.163 1.924-3.405 3.639M88.118 47.236c.925-.787 2.527-.88 3.242.103.511.7.392 1.66.26 2.518-.182 1.152-.36 2.307-.548 3.459-.057.342-.104.716.047 1.036.344.732 1.555.592 2.016-.062.47-.663.416-1.55.291-2.344-.125-.803-.291-1.644.025-2.39.784-1.856 3.571-1.576 5.189-2.784 1.003-.747 1.451-2.001 2.047-3.1.596-1.099 1.593-2.198 2.85-2.142.423.016.84.172 1.263.156 1.239-.04 1.963-1.84 1.082-2.711-.182-.187-.423-.337-.549-.56-.219-.415.016-.944.392-1.224.376-.274.856-.352 1.32-.42 1.06-.172 2.12-.337 3.179-.498 1.17-.18 2.668-.779 2.502-1.94-.141-1.005-1.514-1.456-1.718-2.453-.053-.242-.025-.507-.135-.731-.323-.638-1.288-.383-1.906-.04-.251-.928-1.586-1.349-2.329-.742-.627.514-.706 1.42-.925 2.189-.518 1.87-2.016 3.287-3.446 4.604-.479.436-1.019.903-1.671.934-.652.03-1.335-.663-1.034-1.23.203-.389.768-.616.714-1.052-.078-.545-1.034-.507-1.222-1.027.376-1.544 2.157-2.182 3.524-3.007a8.478 8.478 0 0 0 3.602-4.396c.11-.29.197-.632.047-.902-.204-.39-.731-.452-1.176-.452-1.05-.015-2.361.125-2.746 1.099-.204.523-.053 1.114-.182 1.66-.37 1.621-2.605 1.798-3.972 2.767-.533.373-.95.896-1.54 1.182-.636.306-1.382.28-2.088.337-.125.006-.25.024-.376.04a42.565 42.565 0 0 0-1.248 1.821 48.067 48.067 0 0 0-1.16 1.88 48.666 48.666 0 0 0-4.301 9.523 46.606 46.606 0 0 0-1.019 3.551 48.402 48.402 0 0 0-.746 3.658c.486-.996.705-2.229.893-3.1.26-1.177.643-2.407 1.562-3.194l-.01-.016zM129.715 24.4c.467-.61.333-1.488.637-2.195.505-1.173 2.075-1.59 2.618-2.748.21-.445.26-.987.627-1.317.304-.274.755-.33 1.081-.579.731-.557.427-1.821-.348-2.313-1.944-1.233-5.524.193-7.204 1.4-2.16 1.554-4.273 3.422-7.148 3.241-.794-.05-1.618-.267-2.358.013-.743.28-1.201 1.385-.561 1.852.354.261.859.187 1.26.374.74.342.815 1.407.455 2.132-.361.728-1.013 1.27-1.442 1.961a3.676 3.676 0 0 0-.533 2.257c.05.545.241 1.108.674 1.45.893.71 2.254.103 3.012-.75.759-.853 1.28-1.951 2.264-2.537.489-.29 1.057-.426 1.612-.557 1.25-.296 2.498-.591 3.749-.884.596-.14 1.242-.311 1.612-.797l-.007-.003z" fill="#FF725E"/>
            <path d="M184.151 60.895c.016.228.016.452.016.679 0-.227 0-.451-.016-.679zM181.051 44.375s.006-.009 0-.009v.01z" fill="#263238" opacity=".6"/>
            <path d="M184.152 60.895a42.04 42.04 0 0 0-.063-2.11 46.618 46.618 0 0 0-.36-3.757 46.768 46.768 0 0 0-1.421-6.855 48.466 48.466 0 0 0-1.254-3.794v-.01a19.728 19.728 0 0 0-.809-1.379c-2.755-4.333-6.756-7.73-9.784-11.876-.988-1.347-1.759-2.462-3.509-2.726-2.589-.399-3.9 1.067-5.737-1.373-.495-.654-1.357-1.264-2.088-.872.188.523.386 1.043.574 1.575.04.11.078.228.062.343-.04.367-.589.467-.902.264-.314-.211-.471-.575-.69-.88-.815-1.162-2.731-1.311-3.728-.306a1.42 1.42 0 0 0-.824-1.151c-.104.958-1.207 1.668-2.135 1.363-.151-.476.705-.56 1.003-.965.276-.383-.057-.912-.408-1.233a5.476 5.476 0 0 0-3.414-1.316c-.793-.016-1.649.133-2.339-.274-.401-.234-.683-.623-1.091-.85-.871-.492-1.962-.04-2.84.445-1.201.663-2.439 1.497-2.866 2.798-.432 1.295.518 3.048 1.884 2.883.345-.047.706-.212 1.044-.118.486.134.706.694.747 1.192.04.492-.016 1.02.228 1.457.236.435.95.653 1.223.243.643-.607.564-1.628.401-2.494-.156-.865-.338-1.84.182-2.55.527-.709 2.016-.482 1.916.39-.063.513-.652.887-.627 1.41.025.53.674.81 1.21.788.533-.016 1.075-.212 1.593-.078.526.124.94.803.564 1.183-.652.731-2.345-.523-2.684.389-.094.233 0 .498-.025.747-.062.762-1.028 1.043-1.796 1.136-.768.087-1.587.165-2.283-.165-.699-.327-1.175-1.239-.777-1.893-.392-.28-.988 0-1.201.436-.213.43-.15.943-.088 1.42-.815-.18-1.545.507-2.009 1.186-.471.684-.919 1.481-1.712 1.721-.8.243-1.9-.084-2.314.632-.542.934 1.029 2.12.48 3.047-.314.523-1.066.508-1.665.67-1.577.445-2.126 2.736-1.05 3.96 1.066 1.223 3.226 1.151 4.364-.016.793-.803 1.113-1.933 1.687-2.898.573-.96 1.655-1.83 2.74-1.52.423.125.784.42 1.122.701.527.436 1.05.872 1.577 1.317.339.28.706.632.674 1.067-.031.352-.307.623-.423.95-.329.943 1.044 1.84 1.906 1.326.872-.514.956-1.83.37-2.643-.815-1.12-2.662-1.684-2.615-3.07.941-.762 2.424.041 2.976 1.121.548 1.074.564 2.354 1.028 3.468.464 1.12 1.759 2.11 2.84 1.566-.282-.965-.558-1.924-.84-2.883.69-.513 1.483.981 2.308.732.501-.156.564-.872.345-1.357-.214-.483-.606-.887-.7-1.41-.156-.95.91-1.8 1.875-1.644.956.156 1.656 1.068 1.837 2.011.072.373.088.772.251 1.114.361.748 1.295.975 2.063 1.286.778.311 1.577 1.083 1.257 1.846-.15.336-.501.654-.376.996.119.305.574.436.574.763-.01.218-.235.367-.439.451-.517.212-1.082.28-1.586.523-.502.233-.957.716-.919 1.264.063.778.997 1.152 1.436 1.8.423.615.36 1.434.627 2.135.251.647.768 1.151 1.185 1.705 1.304 1.762 1.608 4.028 2.245 6.117.282.943.799 1.995 1.774 2.173.533.093 1.066-.109 1.571-.305 1.404-.554 2.865-1.146 3.847-2.276.987-1.136 1.316-2.985.307-4.1-.125-.149-.292-.28-.48-.304-.266-.032-.501.15-.736.258-.715.327-1.593.056-2.189-.467-.589-.514-.95-1.239-1.301-1.94-.386-.771-.768-1.55-1.16-2.328.464-.389 1.201-.227 1.681.156.47.383.761.934 1.144 1.404 1.169 1.45 3.091 2.089 4.95 2.307.471.056.956.093 1.399.289 1.388.632 1.79 2.665 3.257 3.1.408.125.862.103 1.248.28.58.275.871.928 1.044 1.545.323 1.145.432 2.353.918 3.442.48 1.09 1.461 2.08 2.653 2.095.746.016 1.451-.358 1.994-.88v-.01c.062-1.074.103-2.15.103-3.24 0-.228 0-.452-.016-.679l-.015.01z" fill="#FF725E"/>
            <path d="M165.231 71.632c1.956-1.681 2.746-5.482.317-6.36-.919-.333-1.982-.065-2.894-.417-1.191-.457-1.746-1.787-2.176-2.979-1.128-3.134-2.26-6.27-3.389-9.404-.68-1.89-1.715-4.078-3.715-4.355-1.132-.158-2.232.38-3.358.582-3.875.7-10.393-8.61-13.343-2.344-.411-1.702-3.201-1.064-4.091.449-.891 1.512-1.079 3.517-2.493 4.57-1.078.8-2.658.85-3.536 1.86-.621.71-.724 1.72-.803 2.656l-.448 5.373c-.119 1.444-.22 2.991.498 4.252.721 1.26 2.602 1.961 3.681.984.495-.452.705-1.13 1.11-1.662.652-.86 1.85-1.268 2.894-.994.881.234 1.583.878 2.204 1.541 5.044 5.395 6.853 13.074 7.076 20.43.04 1.348.04 2.73.542 3.985.586 1.469 1.818 2.655 2.179 4.193.279 1.18.016 2.477.527 3.58.94 2.03 4.075 2.113 5.784.662 1.709-1.453 2.301-3.797 2.646-6.004.345-2.207.571-4.533 1.815-6.391.772-1.155 1.906-2.076 2.446-3.356.755-1.783.194-3.9.896-5.709.931-2.397 3.678-3.458 5.634-5.139l-.003-.003zM104.205 100.472h.006c.502.399 1.013.772 1.53 1.137.408.292.822.579 1.239.859.417.28.84.551 1.266.815.298.187.596.368.903.545-.04-.087-.078-.165-.119-.249-1.091-2.375-1.154-5.805 1.191-6.982.449-.227.957-.352 1.327-.694 1.044-.98.188-3.007 1.232-3.99.589-.546 1.508-.508 2.235-.835 1.311-.601 1.734-2.266 1.634-3.701-.11-1.426-.58-2.846-.417-4.271.26-2.157 1.953-4.349.981-6.298-1.091-2.172-4.27-1.824-6.506-2.798-3.122-1.364-4.088-5.214-6.129-7.932-1.828-2.43-6.098-5.105-9.346-4.37-2.354.529-3.163 1.924-3.404 3.639l-.298-.047c-.872-.093-1.89-.14-2.37-.856-.558-.834-.01-2.073-.58-2.892-.298-.43-.816-.616-1.242-.918-.423-.296-.784-.856-.527-1.31.213-.383.762-.461 1.035-.81a.79.79 0 0 0-.016-.974c-.893-1.053-1.89 1.09-2.386 1.597a3.88 3.88 0 0 1-.4.373v.01c-.01.093-.017.18-.017.273-.012.293-.009.592-.015.888-.007.295-.016.591-.016.887 0 .243.006.48.013.722.003.24.003.482.012.722 0 .118 0 .227.006.343a48.83 48.83 0 0 0 3.154 15.623 46.969 46.969 0 0 0 3.029 6.453 40.566 40.566 0 0 0 1.577 2.643 46.056 46.056 0 0 0 2.188 3.116 42.747 42.747 0 0 0 2.298 2.814 48.565 48.565 0 0 0 3.509 3.583 48.579 48.579 0 0 0 3.414 2.882M88.118 47.236c.925-.787 2.527-.88 3.242.103.511.7.392 1.66.26 2.518-.182 1.152-.36 2.307-.548 3.459-.057.342-.104.716.047 1.036.344.732 1.555.592 2.016-.062.47-.663.416-1.55.291-2.344-.125-.803-.291-1.644.025-2.39.784-1.856 3.571-1.576 5.189-2.784 1.003-.747 1.451-2.001 2.047-3.1.596-1.099 1.593-2.198 2.85-2.142.423.016.84.172 1.263.156 1.239-.04 1.963-1.84 1.082-2.711-.182-.187-.423-.337-.549-.56-.219-.415.016-.944.392-1.224.376-.274.856-.352 1.32-.42 1.06-.172 2.12-.337 3.179-.498 1.17-.18 2.668-.779 2.502-1.94-.141-1.005-1.514-1.456-1.718-2.453-.053-.242-.025-.507-.135-.731-.323-.638-1.288-.383-1.906-.04-.251-.928-1.586-1.349-2.329-.742-.627.514-.706 1.42-.925 2.189-.518 1.87-2.016 3.287-3.446 4.604-.479.436-1.019.903-1.671.934-.652.03-1.335-.663-1.034-1.23.203-.389.768-.616.714-1.052-.078-.545-1.034-.507-1.222-1.027.376-1.544 2.157-2.182 3.524-3.007a8.478 8.478 0 0 0 3.602-4.396c.11-.29.197-.632.047-.902-.204-.39-.731-.452-1.176-.452-1.05-.015-2.361.125-2.746 1.099-.204.523-.053 1.114-.182 1.66-.37 1.621-2.605 1.798-3.972 2.767-.533.373-.95.896-1.54 1.182-.636.306-1.382.28-2.088.337-.125.006-.25.024-.376.04a42.565 42.565 0 0 0-1.248 1.821 48.067 48.067 0 0 0-1.16 1.88 48.666 48.666 0 0 0-4.301 9.523 46.606 46.606 0 0 0-1.019 3.551 48.402 48.402 0 0 0-.746 3.658c.486-.996.705-2.229.893-3.1.26-1.177.643-2.407 1.562-3.194l-.01-.016zM129.715 24.4c.467-.61.333-1.488.637-2.195.505-1.173 2.075-1.59 2.618-2.748.21-.445.26-.987.627-1.317.304-.274.755-.33 1.081-.579.731-.557.427-1.821-.348-2.313-1.944-1.233-5.524.193-7.204 1.4-2.16 1.554-4.273 3.422-7.148 3.241-.794-.05-1.618-.267-2.358.013-.743.28-1.201 1.385-.561 1.852.354.261.859.187 1.26.374.74.342.815 1.407.455 2.132-.361.728-1.013 1.27-1.442 1.961a3.676 3.676 0 0 0-.533 2.257c.05.545.241 1.108.674 1.45.893.71 2.254.103 3.012-.75.759-.853 1.28-1.951 2.264-2.537.489-.29 1.057-.426 1.612-.557 1.25-.296 2.498-.591 3.749-.884.596-.14 1.242-.311 1.612-.797l-.007-.003z" fill="#000" opacity=".2"/>
            <path d="M184.152 60.895a42.04 42.04 0 0 0-.063-2.11 46.618 46.618 0 0 0-.36-3.757 46.768 46.768 0 0 0-1.421-6.855 48.466 48.466 0 0 0-1.254-3.794v-.01a19.728 19.728 0 0 0-.809-1.379c-2.755-4.333-6.756-7.73-9.784-11.876-.988-1.347-1.759-2.462-3.509-2.726-2.589-.399-3.9 1.067-5.737-1.373-.495-.654-1.357-1.264-2.088-.872.188.523.386 1.043.574 1.575.04.11.078.228.062.343-.04.367-.589.467-.902.264-.314-.211-.471-.575-.69-.88-.815-1.162-2.731-1.311-3.728-.306a1.42 1.42 0 0 0-.824-1.151c-.104.958-1.207 1.668-2.135 1.363-.151-.476.705-.56 1.003-.965.276-.383-.057-.912-.408-1.233a5.476 5.476 0 0 0-3.414-1.316c-.793-.016-1.649.133-2.339-.274-.401-.234-.683-.623-1.091-.85-.871-.492-1.962-.04-2.84.445-1.201.663-2.439 1.497-2.866 2.798-.432 1.295.518 3.048 1.884 2.883.345-.047.706-.212 1.044-.118.486.134.706.694.747 1.192.04.492-.016 1.02.228 1.457.236.435.95.653 1.223.243.643-.607.564-1.628.401-2.494-.156-.865-.338-1.84.182-2.55.527-.709 2.016-.482 1.916.39-.063.513-.652.887-.627 1.41.025.53.674.81 1.21.788.533-.016 1.075-.212 1.593-.078.526.124.94.803.564 1.183-.652.731-2.345-.523-2.684.389-.094.233 0 .498-.025.747-.062.762-1.028 1.043-1.796 1.136-.768.087-1.587.165-2.283-.165-.699-.327-1.175-1.239-.777-1.893-.392-.28-.988 0-1.201.436-.213.43-.15.943-.088 1.42-.815-.18-1.545.507-2.009 1.186-.471.684-.919 1.481-1.712 1.721-.8.243-1.9-.084-2.314.632-.542.934 1.029 2.12.48 3.047-.314.523-1.066.508-1.665.67-1.577.445-2.126 2.736-1.05 3.96 1.066 1.223 3.226 1.151 4.364-.016.793-.803 1.113-1.933 1.687-2.898.573-.96 1.655-1.83 2.74-1.52.423.125.784.42 1.122.701.527.436 1.05.872 1.577 1.317.339.28.706.632.674 1.067-.031.352-.307.623-.423.95-.329.943 1.044 1.84 1.906 1.326.872-.514.956-1.83.37-2.643-.815-1.12-2.662-1.684-2.615-3.07.941-.762 2.424.041 2.976 1.121.548 1.074.564 2.354 1.028 3.468.464 1.12 1.759 2.11 2.84 1.566-.282-.965-.558-1.924-.84-2.883.69-.513 1.483.981 2.308.732.501-.156.564-.872.345-1.357-.214-.483-.606-.887-.7-1.41-.156-.95.91-1.8 1.875-1.644.956.156 1.656 1.068 1.837 2.011.072.373.088.772.251 1.114.361.748 1.295.975 2.063 1.286.778.311 1.577 1.083 1.257 1.846-.15.336-.501.654-.376.996.119.305.574.436.574.763-.01.218-.235.367-.439.451-.517.212-1.082.28-1.586.523-.502.233-.957.716-.919 1.264.063.778.997 1.152 1.436 1.8.423.615.36 1.434.627 2.135.251.647.768 1.151 1.185 1.705 1.304 1.762 1.608 4.028 2.245 6.117.282.943.799 1.995 1.774 2.173.533.093 1.066-.109 1.571-.305 1.404-.554 2.865-1.146 3.847-2.276.987-1.136 1.316-2.985.307-4.1-.125-.149-.292-.28-.48-.304-.266-.032-.501.15-.736.258-.715.327-1.593.056-2.189-.467-.589-.514-.95-1.239-1.301-1.94-.386-.771-.768-1.55-1.16-2.328.464-.389 1.201-.227 1.681.156.47.383.761.934 1.144 1.404 1.169 1.45 3.091 2.089 4.95 2.307.471.056.956.093 1.399.289 1.388.632 1.79 2.665 3.257 3.1.408.125.862.103 1.248.28.58.275.871.928 1.044 1.545.323 1.145.432 2.353.918 3.442.48 1.09 1.461 2.08 2.653 2.095.746.016 1.451-.358 1.994-.88v-.01c.062-1.074.103-2.15.103-3.24 0-.228 0-.452-.016-.679l-.015.01zM164.08 81.335c-.74.143-.887.576-1.288 1.12-.524.707-1.27 1.417-1.747 2.114-.805 1.183-.081 3.029-1.141 4.025-.216.202-.495.336-.69.56-.426.492-.266 1.326.254 1.719.521.392 1.286.364 1.85.034.561-.33.938-.915 1.132-1.535.141-.445.219-.953.574-1.26.608-.527 1.552-.138 2.351-.247 3.402-.473 1.941-7.16-1.292-6.527l-.003-.003z" fill="#000" opacity=".2"/>
            <path d="M89.228 85.192c.006-.047.354-.035.768-.106.414-.069.74-.196.759-.153.022.037-.289.24-.734.311-.442.075-.803-.012-.796-.052h.003zM86.544 83.719c.035-.031.286.212.615.48.326.27.614.466.59.507-.02.037-.355-.1-.697-.383-.341-.28-.542-.576-.51-.604h.002zM85.344 80.902c.022 0 .053.084.085.22.03.138.056.328.11.533.096.411.21.738.165.757-.037.018-.225-.29-.326-.72a2.507 2.507 0 0 1-.066-.554c0-.143.01-.23.032-.233v-.003zM85.795 77.845c.044.016-.04.352-.147.766-.107.41-.191.747-.238.74-.044-.006-.029-.36.078-.78.11-.42.263-.742.304-.726h.003zM87.134 75.034c.038.022-.094.346-.298.725-.204.377-.401.67-.442.648-.04-.019.091-.342.298-.725.204-.38.401-.673.442-.648zM88.796 72.398c.037.025-.123.336-.358.697-.235.36-.454.635-.492.61-.038-.025.122-.336.357-.697.236-.361.455-.635.493-.61zM90.595 69.848c.038.028-.138.33-.392.679-.254.348-.489.61-.523.585-.038-.025.138-.33.392-.679.254-.348.489-.61.523-.582v-.003zM92.523 67.395c.035.028-.156.324-.426.657-.27.336-.517.585-.552.557-.034-.028.154-.32.427-.657.27-.336.517-.585.551-.557zM94.568 65.036c.034.03-.172.314-.458.638-.285.32-.545.56-.58.529-.034-.031.17-.314.458-.638.285-.324.545-.56.58-.53zM96.718 62.773c.031.03-.185.308-.486.616s-.57.535-.602.504c-.031-.03.185-.305.486-.616.3-.308.57-.535.602-.504zM98.966 60.603c.031.034-.198.299-.511.594-.314.296-.593.51-.624.48-.031-.031.197-.299.511-.595s.593-.51.624-.48zM101.302 58.524c.028.034-.21.292-.536.575-.326.284-.612.486-.643.455-.031-.034.21-.29.536-.576.326-.283.614-.486.643-.451v-.003zM103.713 56.535c.028.034-.22.283-.555.554-.336.27-.631.463-.659.43-.028-.035.22-.284.555-.555.336-.27.63-.464.659-.43zM106.192 54.632c.029.038-.232.277-.573.536-.345.258-.646.442-.674.404-.029-.034.228-.274.573-.535s.646-.442.674-.405zM108.735 52.811c.025.038-.238.268-.593.517-.351.249-.658.42-.686.383-.025-.038.238-.268.592-.517.355-.249.662-.42.687-.383zM111.331 51.065c.025.038-.247.262-.608.498-.361.24-.671.402-.696.364-.025-.037.248-.261.608-.498.361-.24.674-.401.696-.364zM113.974 49.394c.026.037-.254.255-.62.482-.367.227-.684.383-.709.346-.025-.038.254-.253.621-.483.367-.227.683-.383.708-.345zM116.661 47.787c.022.038-.26.25-.633.467-.374.218-.693.364-.715.327-.022-.037.26-.246.633-.467.373-.218.693-.367.715-.327zM119.386 46.246c.022.04-.267.243-.643.452-.376.211-.702.348-.724.311-.022-.037.266-.243.642-.451.377-.212.703-.349.725-.312zM122.141 44.764c.022.041-.27.237-.653.44-.382.202-.708.336-.73.295-.022-.04.27-.236.652-.439.383-.202.709-.336.731-.296zM124.925 43.333c.019.04-.276.23-.661.426-.386.196-.715.32-.734.283-.019-.037.276-.23.662-.426.385-.196.714-.32.733-.283zM127.738 41.954c.018.04-.279.227-.668.414-.389.19-.721.308-.74.27-.019-.04.279-.227.668-.413.388-.19.721-.309.74-.271zM130.569 40.618c.018.04-.283.221-.675.405-.391.183-.724.299-.746.258-.019-.04.282-.22.674-.404.392-.184.725-.3.747-.259zM133.421 39.32c.019.04-.285.218-.68.396-.395.177-.727.29-.746.249-.019-.04.285-.218.68-.396.395-.177.731-.29.746-.249zM136.29 38.066c.019.04-.288.215-.686.386-.398.171-.734.277-.753.236-.018-.04.289-.215.687-.386.398-.17.734-.277.752-.236zM139.181 36.864c.015.04-.295.209-.693.37-.401.165-.737.265-.756.221-.019-.04.292-.208.693-.37.401-.165.74-.265.756-.221zM142.099 35.728c.016.04-.297.202-.702.355-.404.155-.743.246-.762.205-.015-.04.298-.202.703-.355.404-.155.746-.246.761-.205zM145.047 34.67c.015.043-.305.193-.712.336-.408.143-.749.224-.765.183-.016-.043.304-.193.712-.336.407-.143.752-.224.765-.183zM148.028 33.698c.013.044-.31.184-.721.315-.411.13-.759.202-.771.159-.016-.044.31-.184.721-.315.414-.13.758-.202.771-.159zM151.038 32.833c.012.044-.317.171-.734.286-.417.115-.765.175-.777.131-.013-.044.316-.171.733-.286.417-.115.765-.175.778-.131zM154.081 32.089c.01.044-.322.159-.743.258-.42.1-.771.143-.78.1-.01-.044.323-.159.743-.259.423-.1.771-.143.78-.1zM157.154 31.479c.006.044-.329.143-.756.224-.426.081-.777.109-.786.065-.01-.043.329-.143.755-.224.426-.08.778-.109.784-.065h.003zM160.255 31.015c.006.044-.335.128-.765.187-.426.059-.781.068-.787.025-.006-.044.336-.128.765-.187.43-.06.781-.072.787-.025zM163.375 30.716c0 .044-.345.11-.775.14-.429.034-.783.034-.787-.012-.003-.044.342-.115.775-.15.433-.034.784-.024.787.022zM166.507 30.62c0 .043-.351.084-.784.09-.432.006-.784-.028-.784-.072 0-.043.348-.084.784-.09.433-.006.784.028.784.072zM169.636 30.785c-.007.043-.358.052-.787.021-.43-.034-.778-.096-.775-.14 0-.043.355-.053.787-.021.433.034.781.096.775.14zM172.73 31.28c-.01.043-.361.012-.784-.066-.423-.08-.762-.18-.755-.227.006-.044.357-.016.783.065.427.081.765.184.756.228zM175.73 32.17c-.015.04-.36-.034-.768-.174-.407-.137-.727-.284-.715-.327.013-.044.358.034.769.174.41.14.733.287.714.327zM178.543 33.537c-.025.037-.345-.112-.709-.33-.385-.193-.68-.383-.661-.424.019-.04.348.084.736.28.377.224.659.436.634.474zM180.815 35.66c-.035.028-.279-.221-.571-.536-.288-.314-.517-.579-.489-.61.032-.031.314.18.609.501.294.32.482.62.448.648l.003-.003zM182.483 38.29c-.041.019-.245-.268-.452-.641-.21-.374-.348-.695-.31-.72.038-.024.241.262.451.642.211.376.352.7.311.719zM183.547 41.213c-.044.01-.157-.32-.283-.729-.122-.41-.21-.747-.169-.762.041-.016.201.302.323.716.125.414.169.765.125.775h.004zM183.837 44.3c-.047-.002-.056-.351-.066-.774-.009-.427-.012-.776.035-.779.044-.006.119.34.128.776.01.435-.053.784-.097.78v-.002zM182.978 47.267c-.04-.025.11-.336.273-.728.166-.392.285-.716.333-.704.04.01-.01.364-.182.766-.17.405-.389.688-.427.666h.003zM99.562 25.583c.044.015-.032.355-.129.769-.1.414-.188.75-.235.744-.044-.006-.025-.361.075-.782.1-.423.245-.744.289-.731zM101.014 22.843c.034.029-.16.318-.392.673-.235.355-.423.647-.464.629-.041-.019.088-.352.326-.716.238-.364.495-.614.53-.585zM103.434 20.901c.022.04-.276.227-.633.458-.361.23-.649.423-.681.389-.028-.034.223-.287.59-.523.367-.237.702-.361.721-.32l.003-.004zM106.431 20.07c.003.047-.342.106-.765.177-.423.069-.768.128-.781.084-.012-.043.32-.174.753-.242.432-.072.786-.06.79-.016l.003-.003zM109.562 20.107c-.003.044-.357.063-.786.038-.43-.025-.778-.078-.778-.125 0-.043.351-.062.787-.037.433.025.781.08.777.124zM112.673 20.503c-.006.043-.36.03-.787-.031-.426-.063-.771-.147-.765-.193.006-.047.358-.032.787.03.43.063.771.147.765.194zM115.771 20.985c-.01.044-.361.025-.787-.043-.427-.069-.772-.153-.762-.2.006-.043.357-.03.787.038.429.068.768.159.762.202v.003zM118.831 21.654c-.013.044-.361-.003-.781-.105-.42-.103-.753-.218-.743-.262.009-.043.36.003.78.106.421.103.756.218.744.261zM121.824 22.573c-.015.043-.36-.035-.768-.168-.411-.134-.73-.28-.718-.321.013-.04.358.031.768.168.411.137.734.28.718.32zM124.74 23.721c-.019.04-.357-.059-.756-.227-.398-.165-.708-.333-.692-.377.015-.043.354.06.755.228.401.165.709.333.693.376zM127.561 25.072c-.022.04-.351-.084-.736-.277-.386-.193-.684-.383-.665-.423.019-.04.348.084.737.277s.683.383.664.423zM130.292 26.607c-.022.037-.345-.106-.718-.324-.373-.218-.658-.426-.636-.463.022-.041.345.105.718.323.373.218.658.427.636.464zM132.923 28.3c-.025.038-.339-.127-.696-.367-.361-.24-.63-.464-.605-.501.025-.037.335.128.696.367.36.24.633.464.605.502zM135.453 30.137c-.028.034-.329-.146-.674-.402-.345-.258-.605-.494-.577-.532.025-.037.329.143.674.402.345.258.605.498.577.532zM137.889 32.098c-.028.034-.323-.162-.655-.436-.333-.273-.58-.526-.552-.56.028-.034.323.159.655.436.332.274.58.526.552.56zM140.237 34.162c-.031.034-.316-.174-.636-.46-.32-.29-.558-.549-.527-.583.031-.034.314.175.636.46.323.29.559.549.527.583z" fill="#263238"/>
            <path d="M142.5 36.31c-.031.031-.307-.184-.617-.486-.311-.299-.536-.566-.505-.6.031-.032.307.183.618.485.31.299.536.57.504.6zM144.695 38.532c-.031.032-.304-.192-.602-.504-.301-.308-.517-.585-.485-.616.031-.031.3.193.601.504.301.308.518.585.486.617zM146.834 40.811c-.035.031-.298-.202-.59-.52-.291-.317-.504-.597-.47-.628.035-.032.298.202.59.52.294.317.504.597.47.628zM148.918 43.136c-.034.028-.291-.208-.58-.529-.285-.32-.492-.607-.457-.638.034-.031.294.209.58.53.288.32.492.606.457.637zM150.966 45.496c-.034.028-.292-.212-.571-.539-.282-.327-.479-.616-.445-.644.035-.028.289.212.571.538.282.327.479.617.445.645zM152.969 47.89c-.035.028-.286-.218-.561-.548-.276-.333-.471-.623-.436-.654.034-.028.285.218.561.548.276.333.47.623.436.654zM154.928 50.321c-.034.028-.282-.224-.551-.56-.27-.337-.458-.632-.424-.66.035-.028.282.22.552.56.27.336.458.632.423.66zM156.838 52.79c-.035.027-.279-.228-.539-.57-.264-.343-.446-.642-.411-.67.034-.028.276.228.539.57.264.343.445.641.411.67zM158.7 55.292c-.037.025-.273-.233-.527-.582-.253-.346-.432-.65-.395-.675.038-.028.273.233.527.582.254.348.433.65.395.675zM160.509 57.836c-.038.024-.267-.24-.515-.592-.247-.352-.417-.66-.382-.685.037-.025.266.24.514.592.248.351.417.66.383.684zM162.259 60.419c-.038.025-.264-.246-.502-.604s-.405-.67-.367-.694c.038-.025.263.246.502.604.238.358.404.67.367.694zM163.948 63.04c-.038.025-.257-.252-.486-.616-.232-.364-.389-.679-.348-.7.037-.025.257.252.486.616.232.364.389.678.348.7zM165.572 65.705c-.037.022-.25-.259-.473-.626-.223-.367-.37-.688-.332-.71.037-.021.25.259.473.626.223.37.37.688.332.71zM167.128 68.407c-.041.022-.245-.265-.455-.638-.213-.374-.351-.698-.313-.72.037-.021.244.265.454.639.213.373.351.697.314.719zM168.607 71.15c-.041.021-.235-.272-.439-.651-.2-.38-.332-.704-.294-.726.04-.021.235.271.439.65.2.38.332.708.294.726zM170.015 73.935c-.041.019-.229-.277-.42-.663-.191-.386-.313-.716-.273-.735.041-.018.229.277.42.663.192.386.314.716.273.735zM171.335 76.756c-.041.018-.219-.284-.398-.676-.179-.392-.292-.722-.251-.74.041-.02.22.282.398.675.179.392.292.722.251.74zM172.57 79.616c-.041.016-.21-.29-.379-.685-.166-.395-.27-.731-.229-.747.041-.019.21.29.379.685.167.395.27.731.229.747zM173.714 82.514c-.04.016-.2-.295-.357-.697-.154-.401-.244-.74-.204-.756.041-.016.201.295.358.697.153.401.244.74.203.756zM174.761 85.447c-.044.015-.191-.302-.332-.71-.141-.405-.223-.747-.179-.763.044-.015.191.302.333.71.141.408.222.747.178.763zM175.708 88.416c-.044.013-.182-.308-.307-.719-.129-.41-.194-.753-.154-.769.044-.012.182.309.308.72.128.41.194.756.153.768zM176.548 91.41c-.043.013-.169-.314-.282-.73-.113-.415-.169-.76-.125-.773.044-.012.169.315.282.732.113.414.169.76.125.772zM177.163 94.458c-.047 0-.1-.339-.166-.762-.066-.42-.113-.766-.069-.775.044-.01.163.323.229.753s.05.784.006.784zM176.699 97.512c-.044-.019.062-.348.172-.76.113-.407.191-.746.238-.74.044.006.035.36-.078.784-.113.424-.292.735-.329.716h-.003zM174.762 99.865c-.022-.043.288-.208.608-.476.16-.13.279-.28.376-.383.097-.1.17-.159.188-.143.019.013-.018.094-.094.215-.075.118-.188.29-.363.432-.345.29-.699.39-.715.352v.003zM171.711 100.51c0-.047.345-.097.771-.146.427-.05.775-.081.784-.038.009.044-.332.15-.765.199-.433.05-.79.032-.79-.012v-.003zM168.582 100.379c.006-.044.361-.05.787-.012.43.037.774.105.774.149s-.354.05-.787.012c-.432-.037-.78-.105-.774-.149zM165.992 99.666c.022-.037.257.047.546.153.288.106.52.205.508.249-.013.043-.27.012-.565-.1-.298-.109-.511-.264-.486-.305l-.003.003zM117.216 95.193c.018-.04.354.066.752.234.398.17.706.342.687.383-.016.04-.355-.063-.753-.234s-.705-.342-.686-.383zM114.393 93.836c.022-.04.352.084.737.277.386.193.684.383.665.423-.019.04-.348-.084-.737-.277s-.683-.383-.665-.42v-.003zM111.656 92.323c.022-.037.345.103.722.318.373.215.661.42.639.457-.022.04-.345-.102-.721-.317-.376-.215-.661-.42-.64-.458zM109.007 90.654c.026-.037.339.125.703.359.36.233.636.454.611.494-.025.04-.339-.12-.702-.358-.364-.236-.637-.457-.612-.495zM106.459 88.846c.028-.034.332.143.68.395.348.256.609.492.584.526-.026.038-.33-.14-.681-.395-.348-.255-.611-.492-.583-.526zM104.013 86.894c.028-.034.323.16.655.433.333.274.58.523.552.557-.028.034-.323-.159-.655-.433-.336-.273-.58-.522-.552-.557zM101.681 84.812c.031-.031.313.177.63.47.316.292.548.554.52.588-.031.034-.313-.177-.63-.47-.32-.293-.552-.557-.52-.588zM99.474 82.605c.034-.032.304.196.602.504.301.308.517.585.486.616-.032.031-.301-.193-.602-.504-.301-.308-.518-.585-.486-.616zM97.391 80.276c.035-.028.292.212.574.536.282.323.483.613.452.641-.035.031-.292-.212-.574-.535-.282-.327-.486-.614-.452-.642zM95.445 77.836c.038-.028.28.227.543.566.263.34.448.638.414.666-.035.029-.28-.227-.543-.566-.263-.342-.448-.641-.413-.666zM93.646 75.286c.038-.025.266.243.508.598.244.355.41.663.373.688-.038.025-.263-.243-.508-.598s-.41-.663-.373-.688zM91.996 72.64c.038-.021.25.259.473.626.223.367.37.685.333.71-.038.025-.251-.255-.474-.626-.222-.37-.373-.688-.332-.71zM90.504 69.904c.041-.019.236.271.436.65.2.38.33.707.292.73-.04.021-.235-.272-.436-.651-.2-.383-.332-.707-.292-.729zM89.172 67.087c.04-.019.22.283.398.675.179.393.288.723.247.745-.04.021-.219-.284-.398-.676-.178-.392-.291-.725-.247-.74v-.004zM87.999 64.198c.04-.015.204.296.357.698.157.401.248.737.207.756-.04.016-.204-.296-.357-.697-.157-.402-.248-.741-.207-.757zM86.992 61.25c.044-.012.185.309.32.716.132.408.207.75.163.766-.044.016-.185-.305-.32-.716-.134-.41-.207-.753-.163-.766zM86.152 58.253c.044-.01.17.317.28.731.109.414.162.763.118.772-.044.013-.169-.314-.279-.731-.11-.417-.163-.763-.119-.772zM85.482 55.211c.044-.009.15.327.238.748.088.42.123.768.076.778-.044.009-.151-.324-.239-.747-.088-.424-.122-.772-.075-.779zM84.986 52.136c.044-.006.132.333.195.76.062.423.078.774.031.78-.044.007-.132-.332-.194-.759-.063-.426-.079-.775-.032-.781zM84.663 49.042c.044-.003.113.34.15.769.038.426.032.778-.012.781-.044.006-.113-.34-.15-.769-.038-.43-.035-.778.012-.781zM84.523 45.932c.043 0 .094.345.106.775.013.43-.012.778-.056.781-.044 0-.094-.345-.107-.775-.012-.43.013-.778.057-.781zM84.626 42.825c.044.006.044.355-.004.778-.025.427-.056.776-.103.773-.04 0-.085-.35-.06-.782.047-.433.123-.775.167-.769zM85.466 39.837c.04.019-.076.345-.22.747-.144.402-.266.728-.31.716-.044-.01.01-.361.157-.769.144-.41.332-.713.373-.694zM87.576 37.642c.016.044-.3.184-.642.43-.342.243-.59.489-.627.454-.035-.025.169-.33.532-.588.364-.261.728-.34.737-.299v.003zM90.61 37.972c-.018.04-.348-.078-.752-.208-.404-.134-.743-.212-.737-.256.003-.043.367-.034.787.103.42.134.721.324.702.364v-.003z" fill="#263238"/>
            <path d="M109.397 90.807s-2.611.576-4.063 5.376c-1.451 4.8-7.349 25.541-6.383 30.245.966 4.703 11.161 10.574 13.675 11.247l4.117-11.344-5.123-3.495 2.029-11.294-4.255-20.741.003.006z" fill="#455A64"/>
            <path d="M159.343 147.919c-.15-.538-2.868-23.041-2.868-23.041l1.758-36.184-15.164-5.28-2.402-1.818-15.243.174-1.727 2.553-14.431 6.522 5.041 31.343.097 20.741-.138 4.99h45.077z" fill="#455A64"/>
            <path d="M158.234 88.694s3.549.491 5.621 6.667c2.072 6.176 6.944 28.611 7.255 30.155.31 1.544.495 7.919-4.916 10.123-5.198 2.117-10.841 0-10.841 0V124.28l2.279-2.469-.894-4.006 1.489-29.108.007-.003z" fill="#455A64"/>
            <path d="M111.664 122.836c-.012.028-.504-.218-1.348-.48a11.16 11.16 0 0 0-1.505-.352 12.294 12.294 0 0 0-1.884-.14c-.671.013-1.31.084-1.881.184-.57.109-1.078.243-1.495.386-.834.28-1.32.538-1.336.51-.006-.009.113-.077.332-.196.11-.059.245-.13.408-.196.163-.068.345-.155.555-.227.417-.159.928-.305 1.508-.426.58-.109 1.226-.187 1.909-.2.684-.003 1.33.059 1.913.156.58.106 1.097.24 1.517.389.213.065.398.15.561.215.166.065.301.131.414.187.223.112.342.177.339.186l-.007.004z" fill="#263238"/>
            <path d="M111.736 122.792c-.025.022-.329-.358-.915-.865a8.889 8.889 0 0 0-1.095-.807 9.996 9.996 0 0 0-1.486-.75 10.096 10.096 0 0 0-1.602-.464 9.157 9.157 0 0 0-1.354-.155c-.778-.028-1.26.043-1.263.009 0-.012.116-.034.335-.065.11-.019.241-.035.398-.041.157-.009.336-.025.533-.019.395-.003.865.038 1.38.122a9.501 9.501 0 0 1 1.633.457 9.085 9.085 0 0 1 1.508.776c.436.286.806.575 1.091.846.151.128.267.262.376.374.11.112.195.215.264.302.138.171.207.267.2.277l-.003.003zM167.874 122.418s-.197-.074-.542-.227c-.345-.152-.847-.37-1.477-.601a14.41 14.41 0 0 0-2.27-.641 10.488 10.488 0 0 0-1.379-.174 5.477 5.477 0 0 0-1.477.087c-2.006.408-3.612 1.528-4.427 2.571a5.088 5.088 0 0 0-.768 1.37c-.106.358-.16.557-.172.554-.007 0 0-.053.019-.15.018-.096.043-.242.094-.426.122-.355.319-.878.736-1.419.812-1.087 2.433-2.242 4.49-2.662a5.71 5.71 0 0 1 1.517-.087c.489.028.96.096 1.399.187.881.177 1.652.432 2.282.681.63.246 1.125.483 1.464.651.169.084.298.152.386.202.087.05.131.075.128.081l-.003.003z" fill="#263238"/>
            <path d="M164.661 120.302c-.013.028-.43-.165-1.145-.308a6.51 6.51 0 0 0-2.818.056 6.457 6.457 0 0 0-2.515 1.27c-.564.463-.84.828-.862.806-.009-.006.054-.103.182-.265.129-.162.329-.383.605-.632a6.112 6.112 0 0 1 2.549-1.341 6.108 6.108 0 0 1 2.884-.01c.361.088.646.19.834.274.192.081.289.14.286.15zM138.522 97.32s-.047-.025-.125-.078a46.911 46.911 0 0 1-.354-.246 16.282 16.282 0 0 0-1.399-.828c-.614-.33-1.385-.682-2.257-1.1-.868-.42-1.84-.93-2.781-1.65l.11-.018-2.668 4.455-.097.162-.053-.18-.201-.692A70.549 70.549 0 0 0 125.311 88a82.163 82.163 0 0 0-1.267-2.677l-.357-.722-.091-.19c-.019-.043-.028-.065-.025-.068 0 0 .016.019.041.059l.103.18c.088.162.223.399.386.71.326.62.787 1.522 1.313 2.659a66.027 66.027 0 0 1 3.64 9.843l-.147-.02 2.684-4.447.044-.072.065.05c.925.713 1.881 1.23 2.744 1.656.865.426 1.63.79 2.244 1.133.615.34 1.076.644 1.383.865.154.112.266.203.342.265.075.062.116.093.113.096h-.004zM144.047 83.893s.028.085.069.253c.04.18.1.423.169.728.144.648.348 1.56.596 2.68.244 1.133.548 2.481.856 3.981.147.754.282 1.554.319 2.394.032.838-.031 1.728-.348 2.572-.05.152-.125.295-.185.442l-.059.146-.085-.143a34.952 34.952 0 0 1-2.521-5.27l.123.015c-1.17 1.55-2.151 2.852-2.847 3.776-.342.442-.611.797-.809 1.052l-.216.274a.416.416 0 0 1-.082.09s.019-.037.063-.102c.053-.075.119-.168.201-.287.188-.261.448-.622.777-1.074.687-.933 1.649-2.244 2.8-3.81l.075-.106.047.122a36.037 36.037 0 0 0 2.53 5.239l-.144.006c.056-.143.129-.28.179-.43.307-.818.37-1.687.341-2.508-.034-.829-.163-1.62-.307-2.373-.307-1.497-.586-2.848-.821-3.987-.229-1.124-.414-2.04-.546-2.693l-.141-.734c-.031-.168-.044-.259-.037-.259l.003.006z" fill="#263238"/>
            <path d="M165.993 103.15s-.053.003-.16.003c-.113 0-.27 0-.473-.006-.424-.01-1.035-.019-1.819-.035a781.45 781.45 0 0 0-6.69-.106c-5.65-.074-13.459-.099-22.081-.118-8.625-.019-16.434-.062-22.084-.165-2.825-.047-5.11-.106-6.69-.159l-1.819-.065a59.44 59.44 0 0 1-.473-.022c-.107-.006-.16-.012-.16-.012s.053-.003.16-.003c.113 0 .269 0 .473.006.423.009 1.035.019 1.819.034 1.58.031 3.865.075 6.69.106 5.65.075 13.459.1 22.084.118 8.622.019 16.431.063 22.081.165 2.825.047 5.113.106 6.69.159l1.819.065.473.022c.107.006.16.013.16.013zM112.661 123.673s-.144.106-.417.268c-.138.08-.304.18-.492.308-.189.124-.411.258-.64.429-.47.324-1.003.741-1.568 1.239a18.752 18.752 0 0 0-1.702 1.75 18.793 18.793 0 0 0-1.433 1.976 17.61 17.61 0 0 0-.95 1.753c-.128.252-.219.492-.31.7-.091.206-.16.389-.216.536-.113.295-.182.46-.192.457-.009-.003.038-.174.132-.476.047-.153.107-.339.191-.548.082-.212.17-.454.292-.713a15.51 15.51 0 0 1 .925-1.78c.398-.645.874-1.329 1.436-2.002a17.957 17.957 0 0 1 1.727-1.759 14.76 14.76 0 0 1 1.602-1.22c.235-.165.461-.292.655-.411a6.22 6.22 0 0 1 .511-.283c.286-.146.446-.224.449-.215v-.009zM157.582 136.37c0 .044-9.575-.028-21.382-.158-11.81-.134-21.382-.277-21.382-.321 0-.044 9.572.028 21.382.159 11.807.134 21.379.277 21.379.32h.003zM170.043 131.138s-.034-.256-.1-.71a9.494 9.494 0 0 0-.483-1.883 9.688 9.688 0 0 0-1.373-2.525 9.49 9.49 0 0 0-2.596-2.372 9.524 9.524 0 0 0-3.305-1.223 9.834 9.834 0 0 0-2.89-.072 9.77 9.77 0 0 0-1.909.426c-.439.15-.678.25-.684.234 0-.006.057-.034.166-.084.113-.047.273-.134.496-.209a8.895 8.895 0 0 1 1.915-.479 9.738 9.738 0 0 1 2.932.037 9.557 9.557 0 0 1 3.364 1.233 9.562 9.562 0 0 1 3.991 4.999c.269.788.392 1.454.435 1.915.032.23.029.411.038.532.003.121.003.187 0 .187l.003-.006zM129.161 87.99c.035.028-.467.722-1.122 1.547-.656.828-1.217 1.476-1.251 1.448-.035-.028.467-.722 1.122-1.547.655-.828 1.217-1.476 1.251-1.448zM141.774 87.79c-.016-.02.257-.226.699-.528l.041-.028.038.034c.288.252.652.585 1.04.95.461.429.872.827 1.164 1.12.291.293.464.482.448.498-.016.016-.216-.143-.53-.414-.313-.27-.737-.654-1.198-1.086a52.332 52.332 0 0 1-1.018-.975l.078.007c-.458.28-.756.445-.771.423h.009z" fill="#fff"/>
            <path d="M111.501 101.323s.019.065.041.186c.022.14.053.321.088.545l.295 2.005c.238 1.715.561 4.046.921 6.624.665 4.974 1.132 8.489 1.248 9.342v.015c0 .01-.006 0-.012-.006a1.533 1.533 0 0 1-.041-.162c-.025-.124-.06-.305-.1-.542a102.52 102.52 0 0 1-.317-2.001 520.072 520.072 0 0 1-.938-6.621 823.06 823.06 0 0 1-.874-6.631l-.245-2.011a79.34 79.34 0 0 1-.059-.547.762.762 0 0 1-.01-.193l.003-.003zM142.912 147.832s-.01-.044-.016-.131l-.028-.38-.094-1.463c-.082-1.279-.198-3.113-.339-5.379a805.868 805.868 0 0 0-1.351-17.724 791.85 791.85 0 0 0-1.762-17.694l-.605-5.354c-.069-.626-.125-1.115-.163-1.457l-.038-.38c-.006-.084-.009-.13-.006-.13l.025.127.053.377c.044.34.11.828.195 1.454.166 1.26.392 3.087.655 5.347a626.523 626.523 0 0 1 3.113 35.422c.132 2.272.232 4.109.289 5.382.028.629.047 1.121.062 1.463.007.162.01.286.013.38v.131l-.003.009zM157.067 97.948c.044 0 .012 5.526-.069 12.34-.085 6.817-.188 12.339-.232 12.339-.044 0-.013-5.525.069-12.342.085-6.815.188-12.34.232-12.34v.003z" fill="#263238"/>
            <path d="m125.462 83.003 5.794 7.81 7.481 5.968 3.373-5.83-.574-5.448-.483-4.567s6.014-1.494 5.534-7.555c-.232-2.929-1.204-8.918-2.144-14.328-1.013-5.821-6.359-9.893-12.281-9.358l-.589.053c-6.314.94-9.036 6.79-7.91 13.03l1.803 20.228" fill="#FFBE9D"/>
            <path d="M141.056 80.93s-3.828.66-8.158-1.526c0 0 2.28 4.19 8.318 3.095l-.157-1.57h-.003z" fill="#EB996E"/>
            <path d="M142.821 64.005c.06.455-.282.881-.759.95-.476.068-.912-.243-.968-.698-.06-.454.282-.88.758-.949.477-.069.913.243.972.7l-.003-.003zM143.461 61.801c-.097.122-.802-.302-1.74-.214-.937.074-1.58.613-1.693.51-.053-.047.038-.258.317-.504a2.404 2.404 0 0 1 1.342-.548c.583-.05 1.094.118 1.398.311.307.193.423.39.376.445zM133.848 64.836c.06.455-.282.881-.758.95-.477.068-.913-.243-.969-.698-.06-.454.282-.88.759-.949.476-.068.912.243.968.7v-.003zM134.096 62.383c-.084.131-.83-.214-1.752-.028-.925.175-1.505.782-1.627.688-.06-.04.006-.261.26-.535.248-.27.699-.576 1.276-.688.574-.112 1.1 0 1.423.159.326.159.464.342.424.401l-.004.003zM138.235 69.73c-.009-.053.564-.206 1.499-.411.238-.047.46-.115.486-.28.04-.178-.082-.424-.226-.691-.279-.554-.568-1.136-.875-1.747-1.219-2.487-2.126-4.541-2.022-4.591.1-.047 1.172 1.93 2.392 4.417l.847 1.759c.116.261.297.554.21.921a.605.605 0 0 1-.361.383c-.15.06-.282.075-.401.094-.947.136-1.533.192-1.543.14l-.006.006zM133.859 58.359c-.069.261-1.016.227-2.104.457-1.091.209-1.95.61-2.116.395-.076-.102.056-.354.395-.631.332-.277.878-.56 1.533-.695.652-.13 1.266-.08 1.683.044.42.124.64.305.612.43h-.003zM143.088 59.99c-.144.227-.812.065-1.59.124-.78.034-1.42.27-1.592.065-.076-.102.006-.323.275-.547.264-.225.725-.43 1.258-.464.536-.031 1.015.118 1.304.311.295.193.404.401.342.51h.003z" fill="#263238"/>
            <path d="M124.568 67.215c-.106-.035-4.304-.853-3.79 3.278.514 4.127 4.58 2.767 4.574 2.645-.006-.118-.784-5.923-.784-5.923z" fill="#FFBE9D"/>
            <path d="M123.885 71.731c-.019-.012-.066.06-.182.131a.74.74 0 0 1-.539.078c-.458-.106-.916-.753-1.029-1.494a2.39 2.39 0 0 1 .076-1.055c.091-.318.26-.555.476-.62a.371.371 0 0 1 .452.147c.069.108.053.192.078.199.013.009.082-.081.025-.246a.472.472 0 0 0-.194-.24.559.559 0 0 0-.414-.056c-.317.062-.571.39-.677.732a2.44 2.44 0 0 0-.11 1.183c.129.828.655 1.553 1.279 1.652a.786.786 0 0 0 .649-.19c.116-.118.126-.211.11-.217v-.004z" fill="#EB996E"/>
            <path d="M144.471 51.921c-.257-.784-.925-1.497-1.756-1.547.273-.806-.082-1.774-.812-2.216-.731-.443-1.762-.315-2.358.292-.066-1.267-1.721-2.145-2.815-1.49-.022-.739-.605-1.42-1.332-1.56-.728-.14-1.527.273-1.828.946-1.01-1.407-3.468-1.385-4.449.04-1.718-.442-3.687.645-4.22 2.326-1.354.193-2.533 1.288-2.815 2.62a2.576 2.576 0 0 0-1.938 1.607 2.54 2.54 0 0 0 .433 2.468c-1.01.601-1.076 2.28-.116 2.955a1.867 1.867 0 0 0-.872 1.749 1.873 1.873 0 0 0 1.22 1.532c-.608.13-.778.958-.543 1.528.236.57.725 1.002 1.019 1.544.242.448.348.956.562 1.416a3.31 3.31 0 0 0 2.144 1.775l-.097.133c-.06.542.718.838 1.201.583.482-.256.721-.797.971-1.283.286-.554.627-1.099.725-1.715.097-.616-.141-1.342-.721-1.575.699-.302 1.097-1.074 1.166-1.828.069-.753-.135-1.503-.336-2.231-.297-1.077-.592-2.154-.89-3.232 1.508-.174 2.875-1.25 3.386-2.67 1.157.731 2.925.127 3.386-1.155.618 1.441 2.505 2.188 3.953 1.566-.087.871 1.537 1.528 2.405 1.677.868.15 1.878-.541 1.878-.541s1.539.725 2.307.336c.756-.383 1.722-1.476 1.132-2.248 0 0 .264-1.027.01-1.814v.012z" fill="#263238"/>
            <path d="M120.249 58.374c.038-.019.091.28.461.498a.8.8 0 0 0 .693.06c.25-.097.492-.353.526-.664l.029-.252.206.153c.301.217.781.28 1.164.077.429-.227.633-.753.548-1.158l-.05-.242.235.074c.298.094.612.04.844-.08.235-.125.385-.318.47-.496.172-.364.116-.622.157-.625.018-.013.15.252.006.69a1.227 1.227 0 0 1-.511.636 1.348 1.348 0 0 1-1.047.15l.182-.169a1.382 1.382 0 0 1-.684 1.494c-.502.265-1.1.178-1.489-.118l.235-.1a1.075 1.075 0 0 1-.737.863.98.98 0 0 1-.874-.144c-.411-.314-.389-.66-.364-.65v.003zM119.982 62.396c.019-.028.16.103.461.134.279.034.799-.078 1.006-.536l.069-.152.125.112a1.13 1.13 0 0 0 1.091.199c.392-.13.715-.573.693-1.036l-.012-.274.244.127c.06.031.126.056.198.069.326.065.68-.09.818-.355a.79.79 0 0 0-.041-.828l-.178-.243.297.019a1.33 1.33 0 0 0 .941-.321 1.3 1.3 0 0 0 .411-.675c.106-.449-.01-.723.028-.732.016-.016.201.249.135.763-.038.249-.154.56-.42.812a1.55 1.55 0 0 1-1.113.43l.119-.224c.235.305.288.76.084 1.142-.203.392-.692.61-1.147.517a.994.994 0 0 1-.289-.103l.232-.143c.022.62-.391 1.16-.912 1.326-.52.168-1.047 0-1.351-.296l.194-.04a1.064 1.064 0 0 1-.636.538 1.14 1.14 0 0 1-.621.034c-.342-.084-.454-.261-.439-.27l.013.006zM136.172 46.89c-.016.022-.147-.152-.495-.227a.865.865 0 0 0-.605.09.897.897 0 0 0-.452.645l-.034.243-.145-.203a1.539 1.539 0 0 0-1.351-.6c-.564.04-1.153.513-1.282 1.164l-.053.28-.195-.212a1.863 1.863 0 0 0-1.505-.557c-.573.04-1.119.417-1.404.956a1.777 1.777 0 0 0-.204.694l-.012.171-.17-.025c-.824-.127-1.661.402-1.906 1.102-.257.707 0 1.495.47 1.908l.176.156-.226.062a1.981 1.981 0 0 0-1.179.906 1.89 1.89 0 0 0-.247 1.13c.066.66.348.968.31.984-.009.006-.081-.06-.182-.215a1.938 1.938 0 0 1-.273-.753 2.007 2.007 0 0 1 .214-1.245 2.159 2.159 0 0 1 1.288-1.05l-.05.215a2.053 2.053 0 0 1-.58-2.197c.288-.838 1.242-1.457 2.232-1.314l-.182.143c.022-.283.101-.563.239-.819.326-.625.975-1.07 1.655-1.114a2.155 2.155 0 0 1 1.746.67l-.25.068c.169-.79.871-1.32 1.548-1.357a1.736 1.736 0 0 1 1.533.737l-.178.04c.069-.37.323-.628.577-.75a.992.992 0 0 1 1.081.156c.072.069.094.116.091.119z" fill="#455A64"/>
            <path d="M146.208 70.075c-.668-.423-1.702-.012-1.891.754a1.676 1.676 0 0 0-1.639-.554 1.659 1.659 0 0 0-1.217 1.226c-.329-.865-1.743-1.015-2.248-.237a1.06 1.06 0 0 0-1.163-.382 1.047 1.047 0 0 0-.595-.99 1.071 1.071 0 0 0-1.148.183c-.517-.809-1.837-.946-2.511-.258a.96.96 0 0 0-.966-.594.966.966 0 0 0-.831.772c-.426-.486-1.194-.633-1.774-.343-.031-.6-.746-1.061-1.314-.844.113-.52-.658-.706-1.069-1.049-.185-.152-.307-.37-.505-.507-.197-.137-.523-.15-.63.062.076-.414-.21-.862-.62-.977a.894.894 0 0 0-1.038.517c-.091.233-.075.491-.097.737-.066.803-.458 1.775.16 2.3.109.094.247.166.297.3.088.224-.125.46-.125.703 0 .283.273.48.404.732.195.37.066.818.063 1.235-.003.417.267.931.684.863-.276.622-.016 1.432.573 1.78-.279.722.201 1.634.957 1.821-.264.24-.217.688.006.965.222.277.564.427.893.564-.282.168-.291.6-.094.859.198.258.53.38.85.448.138.028.288.06.376.168.163.206-.019.51.038.77.087.391.655.47.846.824.169.314 0 .781.279 1.009.179.149.445.102.671.165.401.112.602.538.872.853.508.59 1.323.815 2.094.958.392.075.787.134 1.185.184.79.096 1.586.143 2.383.187.395.022.878 0 1.063-.349.589.632 1.824.41 2.153-.386.718.143 1.433-.196 2.085-.526.226-.115.452-.227.674-.343.671-.339 1.414-.771 1.574-1.503.897-.184 1.42-1.345.963-2.13.319.07.605-.264.636-.588.031-.323-.103-.638-.182-.952-.319-1.286.292-2.652.032-3.95-.185-.91-.79-1.78-.58-2.684.044-.186.119-.37.094-.56-.025-.19-.213-.374-.392-.308.204-.539-.364-1.192-.931-1.068" fill="#263238"/>
            <path d="M135.536 70.623c.15-.022.244.987 1.182 1.625.934.641 2.009.43 2.031.57.019.062-.222.218-.68.27a2.565 2.565 0 0 1-1.69-.417c-.571-.392-.853-.958-.928-1.37-.078-.42.013-.678.085-.678z" fill="#fff"/>
            <path d="M130.017 78.12c.05-.02-.432-.91-.526-2.12-.11-1.212.219-2.167.166-2.18-.019-.006-.126.221-.22.617a5.112 5.112 0 0 0 .261 3.11c.159.373.301.581.319.572zM128.967 76.715c.022-.022-.138-.156-.26-.445-.129-.29-.191-.728-.179-1.217.016-.984.239-1.762.192-1.774-.038-.016-.342.76-.358 1.77-.016.502.072.975.238 1.27.163.303.361.412.367.396zM127.889 75.937c.047-.025-.452-.744-.552-1.78-.116-1.034.223-1.844.172-1.856-.015-.006-.125.18-.225.517a3.636 3.636 0 0 0 .279 2.658c.166.308.31.47.326.46zM145.279 81.095c.004.016.276-.072.559-.405.285-.326.523-.89.636-1.528.119-.638.1-1.233.034-1.65-.062-.42-.156-.666-.175-.66-.053.006.216 1.034-.025 2.282-.113.623-.32 1.158-.568 1.485-.244.33-.482.451-.467.476h.006zM144.377 80.927s.204-.097.451-.358c.248-.255.53-.676.7-1.195a3.22 3.22 0 0 0 .138-1.376c-.048-.352-.138-.558-.154-.551-.025.006.022.218.038.56.018.342-.016.819-.179 1.314a3.872 3.872 0 0 1-.63 1.17c-.217.268-.38.411-.361.433l-.003.003zM140.088 72.967c.041.013.154-.352.031-.79-.116-.44-.395-.701-.426-.67-.038.031.163.311.267.71.109.398.078.74.128.747v.003zM139.015 72.78c.028.031.279-.218.317-.625.041-.408-.154-.7-.188-.673-.044.019.062.302.025.657-.032.355-.191.613-.151.641h-.003zM137.934 72.522c.031.028.257-.202.335-.576.082-.373-.031-.675-.072-.663-.047.01-.015.293-.091.629-.069.336-.213.582-.172.61zM137.122 71.71c.041.018.157-.134.219-.358.063-.225.041-.417 0-.42-.047-.004-.097.168-.156.376-.057.209-.104.383-.063.402zM136.438 71.408c.044.018.173-.193.395-.39.22-.199.446-.305.433-.348-.009-.044-.291 0-.542.227-.254.224-.326.498-.286.51zM135.413 70.72c.035.034.301-.209.709-.34.407-.136.765-.1.771-.146.016-.04-.37-.159-.825-.01-.454.147-.693.474-.655.496zM140.003 82.296s.197-.193.407-.582c.211-.386.421-.97.486-1.643a4.477 4.477 0 0 0-.166-1.706c-.131-.42-.276-.654-.291-.648-.025.013.078.262.178.679.101.417.176 1.009.116 1.66a5.138 5.138 0 0 1-.426 1.609c-.176.392-.326.616-.301.631h-.003zM138.925 82.297c.025.03.586-.589.799-1.57.223-.977-.025-1.774-.062-1.755-.054.006.113.788-.101 1.721-.2.937-.683 1.576-.639 1.604h.003zM137.016 82.047c.009.016.181-.052.42-.233a2.87 2.87 0 0 0 1.081-1.992c.022-.296-.015-.48-.034-.477-.053-.003-.019.738-.445 1.507-.411.775-1.054 1.158-1.019 1.199l-.003-.004z" fill="#455A64"/>
            <path d="M138.467 123.2s-8.418-.635-13.027.507l-.21 1.734s-3.558-.797-3.612 2.322c-.053 3.119 0 6.811 4.139 7.592v1.927s2.072 1.33 6.471 1.068c4.398-.261 6.674-.884 6.674-.884l-.429-14.269-.006.003zm-12.682 9.796c-.016.246-.041.51-.207.697-.185.206-.505.252-.771.178-.267-.078-.492-.256-.693-.446a5.75 5.75 0 0 1-1.79-4.445c.031-.6.172-1.217.533-1.699.363-.483.984-.803 1.58-.685.595.118 1.197.373 1.216 1.257l.041.324c.16 1.6.188 3.213.088 4.819h.003z" fill="#FF725E"/>
            <path d="M114.257 127.399s-1.389.937-1.756 2.497c-.367 1.559-.943 5.407.264 6.238 1.204.831 7.486 4.42 8.797 4.576 1.31.155 5.236-.103 5.709-.365.47-.261.762-1.101.762-1.101.401-.144 1.31-.978 1.175-1.084-.128-.102-.993-2.546-2.2-3.119-1.207-.573-4.452-2.235-4.713-2.808-.263-.572 3.543-.214 3.543-.214.006-1.258-.012-2.516-.094-3.269 0 0-4.025-.834-4.129-.99-.103-.156 1.151-2.026 1.624-2.288.47-.261 1.988-.034 1.988-.034l.21-1.734c-.154-.121-.916-.467-1.514-.728a1.667 1.667 0 0 0-1.455.056l-8.211 4.364v.003z" fill="#FFBE9D"/>
            <path d="M128.763 137.261s-.135.006-.373-.01c-.273-.025-.612-.053-1.013-.087a410.21 410.21 0 0 1-1.495-.149 99.61 99.61 0 0 0-.884-.094 4.877 4.877 0 0 1-.95-.196 7.734 7.734 0 0 1-.468-.152c-.147-.059-.291-.119-.435-.178l-.822-.339-1.389-.582c-.366-.162-.68-.296-.931-.405-.219-.099-.335-.159-.332-.168.003-.009.132.028.357.112.257.097.574.215.95.358.411.162.881.346 1.402.548l.824.33c.144.056.289.115.436.174.144.053.301.103.455.15.31.09.617.168.915.193.304.034.602.071.884.102.552.069 1.057.131 1.496.184.398.056.733.1 1.006.137.238.037.367.062.367.072zM128.032 139.244s-.128.037-.366.074c-.239.038-.584.081-1.01.125-.853.084-2.06.143-3.358-.122-1.291-.264-2.42-.706-3.144-1.179a6.183 6.183 0 0 1-.815-.61c-.179-.162-.267-.262-.261-.268.019-.022.402.352 1.135.784.728.442 1.841.859 3.117 1.118 1.276.258 2.467.221 3.317.165l1.012-.072c.239-.018.373-.022.373-.012v-.003zM117.774 134.97c.003.025-.091.053-.216.13a.923.923 0 0 0-.367.414.939.939 0 0 0-.044.551c.032.144.079.231.057.243-.016.013-.101-.053-.166-.208a.86.86 0 0 1 0-.648.856.856 0 0 1 .467-.454c.16-.063.266-.047.266-.028h.003zM118.621 132.227c.007.025-.103.072-.253.181a1.42 1.42 0 0 0-.455.545 1.414 1.414 0 0 0-.119.697c.012.187.05.302.028.311-.019.009-.094-.093-.141-.293a1.232 1.232 0 0 1 .627-1.354c.182-.093.31-.102.317-.084l-.004-.003zM119.96 128.236c.006.025-.125.066-.307.175a1.675 1.675 0 0 0-.58.566c-.163.271-.22.564-.226.775-.009.212.016.346-.009.352-.019.006-.085-.121-.107-.348a1.442 1.442 0 0 1 .204-.86 1.47 1.47 0 0 1 .668-.585c.213-.09.357-.09.36-.071l-.003-.004zM121.528 128.51c-.044 0-.088-.566-.439-1.17-.339-.604-.687-1.065-.643-1.096.028-.022.433.392.787 1.018.172.315.276.632.304.866.032.236.01.382-.009.382z" fill="#EB996E"/>
            <path d="M138.479 128.974s-.031-.062-.113-.162a.888.888 0 0 0-.47-.277 1.165 1.165 0 0 0-.843.115c-.298.165-.559.477-.762.86-.21.379-.355.843-.612 1.304-.128.23-.288.461-.511.644-.216.187-.483.33-.774.414-.577.175-1.282.097-1.812-.314-.524-.396-.884-1.068-.837-1.771.012-.346.078-.673.1-.99.025-.318 0-.635-.157-.884-.15-.256-.426-.405-.705-.48a2.94 2.94 0 0 0-.872-.071c-.291.009-.58.031-.862.009a1.92 1.92 0 0 1-.799-.218c-.48-.261-.781-.697-.938-1.114a2.446 2.446 0 0 1-.122-1.193c.047-.351.147-.644.245-.871.097-.227.194-.396.263-.508.069-.109.11-.165.116-.161.016.009-.141.236-.32.691a3.414 3.414 0 0 0-.21.859c-.034.339-.019.741.141 1.142.157.396.448.803.894 1.037.445.249 1.012.208 1.592.177.295-.012.609-.006.916.072.304.078.624.249.802.545.188.292.21.653.182.98-.025.333-.088.66-.1.987-.044.65.285 1.27.771 1.637.486.377 1.135.455 1.674.296.552-.149.969-.539 1.21-.984.251-.442.408-.906.627-1.295.214-.389.493-.712.819-.884.326-.177.661-.165.903-.096a.883.883 0 0 1 .479.317.457.457 0 0 1 .085.181v.006zM134.848 138.079s.069-.165.116-.473a1.976 1.976 0 0 0-.229-1.261c-.26-.473-.849-.918-1.58-.946-.364-.012-.743.087-1.157.137-.407.047-.896.022-1.257-.305-.175-.162-.266-.389-.31-.601-.044-.214-.06-.42-.088-.619-.041-.395-.226-.738-.549-.903a1.637 1.637 0 0 0-.987-.168c-.32.044-.602.174-.831.324a2.362 2.362 0 0 0-.843.987c-.129.283-.151.46-.167.457-.006 0 0-.043.01-.128.012-.084.044-.202.1-.354.113-.296.358-.719.837-1.056.238-.165.533-.308.878-.361.342-.05.731-.018 1.082.168.175.094.335.234.442.417.113.181.16.39.191.595.06.402.056.85.351 1.124.295.271.74.308 1.129.264.398-.043.79-.146 1.182-.127.793.04 1.407.529 1.677 1.043.279.519.254 1.021.191 1.326a1.886 1.886 0 0 1-.113.348.407.407 0 0 1-.065.112h-.01zM137.909 137.575s-.082.065-.257.065a.934.934 0 0 1-.652-.311c-.22-.233-.336-.604-.37-.996a6.523 6.523 0 0 1 0-1.289c.05-.457.175-.89.37-1.242.197-.351.457-.619.708-.794.254-.174.492-.255.659-.286.169-.031.263-.022.263-.012.009.031-.386.037-.853.395a2.39 2.39 0 0 0-.646.772c-.178.336-.291.75-.341 1.189a7.304 7.304 0 0 0-.016 1.258c.025.383.122.722.307.934a.894.894 0 0 0 .568.323c.159.019.247-.015.254 0l.006-.006zM138.141 123.396s.019.096 0 .271a2.067 2.067 0 0 1-.238.7 2.259 2.259 0 0 1-.759.803 2.23 2.23 0 0 1-1.317.321 2.175 2.175 0 0 1-1.26-.498 2.225 2.225 0 0 1-.64-.9 2.034 2.034 0 0 1-.138-.725c0-.175.025-.268.035-.268.034 0-.028.395.21.95.122.273.32.579.627.824a2.12 2.12 0 0 0 1.176.452c.454.031.893-.081 1.229-.287.338-.202.58-.479.736-.731.314-.52.308-.922.342-.912h-.003z" fill="#fff"/>
            <path d="m157.261 125.709.16 1.217-1.169 1.432-3.593 5.08-8.876-1.133 1.806-3.792 1.185-2.067a1.69 1.69 0 0 1 1.492-.849" fill="#263238"/>
            <path d="M154.982 125.662s2.226-1.964 3.718-1.488c1.493.476 5.753 0 5.647 1.799-.107 1.8-.8 2.752-2.132 2.54-1.333-.211-1.928-.582-1.928-.582s.47.106 0 1.694c-.471 1.587-2.173 4.573-2.812 5.276-.64.704-.907.778-1.226.741-.32-.037-1.599 1.18-2.079 1.233-.48.053-.266 0-.266 0s-1.546 1.522-3.625.389c-2.078-1.13-3.89-1.607-4.05-1.871-.16-.265-2.505-2.515-2.932-3.163-.426-.647-1.599-3.452-1.545-3.717.053-.264 1.279-1.239 2.238-.274 0 0 .533-.466 1.599.274 1.066.741 4.211 1.725 4.211 1.725s-.48-.57-.427-1.068c.054-.498.48-1.345 1.279-1.239.8.106 5.7.582 5.7.582l1.066-1.587-.16-1.217-2.279-.044.003-.003z" fill="#FFBE9D"/>
            <path d="M158.167 131.962s-.119.041-.335.081c-.22.044-.539.084-.938.115-.796.063-1.909.032-3.103-.224a11.114 11.114 0 0 1-2.919-1.074 8.416 8.416 0 0 1-.806-.488c-.182-.128-.279-.203-.273-.212.016-.025.427.249 1.132.601.705.352 1.721.759 2.9 1.015 1.179.252 2.276.298 3.063.267.79-.031 1.276-.109 1.279-.081zM158.261 128.355c.016.04-.504.239-1.185.267-.68.031-1.216-.121-1.204-.162.01-.046.543.032 1.198 0 .655-.028 1.179-.152 1.194-.105h-.003zM160.672 128.187c-.019.043-.74-.259-1.665-.511-.925-.258-1.696-.364-1.69-.414 0-.04.797-.003 1.734.259.941.258 1.64.631 1.621.669v-.003zM160.206 124.787c.047.016-.138.567-.145 1.267 0 .349.016.673.091.875.072.209.217.261.207.283 0 .01-.044.013-.109-.018a.483.483 0 0 1-.204-.218c-.116-.228-.144-.564-.148-.925.01-.734.273-1.282.308-1.264zM155.314 135.029s-.053.006-.156.006c-.123-.003-.27-.009-.452-.016a23.106 23.106 0 0 1-1.655-.13c-.696-.081-1.53-.212-2.417-.505a8.217 8.217 0 0 1-1.345-.579c-.446-.239-.888-.523-1.336-.809a446.367 446.367 0 0 1-4.991-3.2l-.028-.019v-.031a1.756 1.756 0 0 1 .95-1.338.467.467 0 0 1 .116-.041c.006.013-.154.072-.383.271-.219.196-.52.567-.577 1.118l-.025-.05c1.185.728 3 1.867 5.023 3.15.451.286.887.566 1.326.806.436.24.881.427 1.317.576.871.293 1.693.436 2.382.532.693.094 1.257.144 1.646.181l.449.047c.103.012.156.021.156.028v.003zM153.597 136.747s-.173-.006-.477-.053a19.81 19.81 0 0 1-1.282-.24c-1.075-.239-2.558-.613-4.12-1.26a8.552 8.552 0 0 1-2.044-1.214 11.8 11.8 0 0 1-1.389-1.348 21.916 21.916 0 0 1-.834-.999c-.191-.24-.288-.38-.282-.386.01-.007.126.115.329.345.204.227.496.564.872.962s.834.859 1.398 1.307a8.596 8.596 0 0 0 2.016 1.183c1.54.642 3.016 1.034 4.079 1.298.533.131.969.224 1.27.29.301.065.467.103.464.115z" fill="#EB996E"/>
            <path d="M157.35 127.041s-.167.016-.461.016c-.326-.007-.75-.013-1.258-.022-1.062-.025-2.53-.069-4.147-.131a18.09 18.09 0 0 0-2.276.031l-.515.028a.779.779 0 0 0-.432.103c-.257.146-.452.367-.618.563a6.87 6.87 0 0 0-.68 1.037c-.141.258-.207.408-.22.402-.009-.004.038-.162.163-.43.126-.268.32-.654.646-1.08.166-.209.354-.442.64-.61a.825.825 0 0 1 .235-.1c.094-.019.175-.025.257-.028l.511-.034c.699-.053 1.48-.09 2.292-.044 1.621.059 3.085.125 4.148.178l1.257.071c.298.022.461.038.461.05h-.003z" fill="#455A64"/>
            <path d="M110.949 98.1c-.043.013-.445-1.136-.899-2.568-.455-1.431-.787-2.602-.743-2.614.044-.013.445 1.136.899 2.568.455 1.432.787 2.602.743 2.614zM158.101 90.421c.022.003-.012.296-.078.763-.072.526-.154 1.145-.248 1.83-.078.685-.15 1.305-.213 1.834-.053.47-.091.76-.113.76-.022 0-.025-.297 0-.77.022-.473.076-1.127.166-1.842a25.9 25.9 0 0 1 .295-1.828c.094-.464.173-.747.191-.744v-.003zM194.971 147.919c0 .044-26.834.081-59.925.081-33.092 0-59.932-.037-59.932-.081 0-.044 26.828-.081 59.932-.081s59.925.037 59.925.081z" fill="#263238"/>
            <path d="M106.3 107.885v9.291h40.87l5.718 6.584v-6.584h12.766v-9.291H106.3z" fill="#FAFAFA"/>
            <path d="m112.244 111.676-.656 1.79h-.501l-.405-1.112-.42 1.112h-.501l-.653-1.79h.493l.426 1.211.442-1.211h.442l.43 1.211.439-1.211h.464z" fill="#263238"/>
            <path d="m115.341 111.676-.655 1.79h-.502l-.404-1.112-.42 1.112h-.502l-.652-1.79h.492l.427 1.211.442-1.211h.442l.429 1.211.439-1.211h.464z" fill="#263238"/>
            <path d="m118.442 111.676-.655 1.79h-.502l-.405-1.112-.42 1.112h-.501l-.652-1.79h.492l.426 1.211.442-1.211h.442l.43 1.211.439-1.211h.464zM118.451 113.167c0-.193.144-.321.326-.321.182 0 .326.128.326.321a.318.318 0 0 1-.326.327.32.32 0 0 1-.326-.327zM121.272 110.994v2.472h-.498v-.206c-.132.156-.323.234-.564.234-.511 0-.903-.361-.903-.922 0-.56.392-.921.903-.921.222 0 .407.068.539.218V111h.523v-.006zm-.514 1.575c0-.311-.2-.495-.461-.495-.26 0-.464.187-.464.495s.201.495.464.495c.264 0 .461-.187.461-.495zM121.621 112.569c0-.538.42-.921.994-.921.574 0 .991.383.991.921 0 .539-.417.922-.991.922-.574 0-.994-.383-.994-.922zm1.452 0c0-.311-.198-.495-.461-.495-.264 0-.464.187-.464.495 0 .309.2.495.464.495.263 0 .461-.186.461-.495zM127 112.442v1.024h-.523v-.946c0-.29-.132-.424-.342-.424-.235 0-.398.15-.398.47v.9h-.524v-.946c0-.29-.125-.424-.341-.424-.232 0-.395.15-.395.47v.9h-.524v-1.79h.499v.205a.737.737 0 0 1 .567-.233c.251 0 .467.096.593.293a.812.812 0 0 1 .652-.293c.429 0 .736.246.736.794zM129.066 112.445v1.021h-.489v-.224c-.097.162-.285.249-.548.249-.424 0-.675-.234-.675-.542 0-.308.226-.535.775-.535h.417c0-.224-.135-.352-.417-.352a.879.879 0 0 0-.521.165l-.188-.364c.198-.14.489-.218.778-.218.548 0 .868.252.868.797v.003zm-.523.457v-.183h-.358c-.244 0-.323.09-.323.208 0 .131.11.218.295.218.176 0 .326-.081.386-.243zM129.475 111.134c0-.162.131-.289.326-.289.194 0 .326.118.326.28 0 .174-.132.299-.326.299-.195 0-.326-.128-.326-.29zm.062.539h.524v1.79h-.524v-1.79zM132.393 112.442v1.024h-.523v-.946c0-.29-.135-.424-.367-.424-.251 0-.433.153-.433.483v.887h-.523v-1.79h.498v.209a.792.792 0 0 1 .596-.237c.426 0 .749.246.749.794h.003zM134.71 112.442v1.024h-.524v-.946c0-.29-.135-.424-.367-.424-.25 0-.432.153-.432.483v.887h-.524v-1.79h.499v.209a.79.79 0 0 1 .595-.237c.427 0 .75.246.75.794h.003zM136.779 112.445v1.021h-.489v-.224c-.097.162-.285.249-.549.249-.423 0-.674-.234-.674-.542 0-.308.226-.535.775-.535h.417c0-.224-.135-.352-.417-.352a.879.879 0 0 0-.521.165l-.188-.364c.198-.14.489-.218.778-.218.548 0 .868.252.868.797v.003zm-.523.457v-.183h-.361c-.244 0-.323.09-.323.208 0 .131.11.218.295.218.175 0 .326-.081.385-.243h.004zM140.303 112.442v1.024h-.523v-.946c0-.29-.132-.424-.342-.424-.235 0-.398.15-.398.47v.9h-.524v-.946c0-.29-.125-.424-.342-.424-.232 0-.395.15-.395.47v.9h-.523v-1.79h.498v.205a.74.74 0 0 1 .568-.233c.251 0 .467.096.592.293a.815.815 0 0 1 .652-.293c.43 0 .737.246.737.794zM142.551 112.719h-1.364c.05.224.241.358.517.358a.603.603 0 0 0 .452-.175l.279.299c-.17.19-.42.29-.747.29-.623 0-1.028-.389-1.028-.922 0-.532.414-.921.963-.921.548 0 .94.352.94.928 0 .04-.006.096-.009.14l-.003.003zm-1.374-.302h.888a.428.428 0 0 0-.442-.374.429.429 0 0 0-.446.374zM142.733 113.301l.175-.374c.16.103.405.174.627.174.242 0 .333-.062.333-.161 0-.293-1.091.006-1.091-.71 0-.339.307-.579.833-.579.248 0 .524.056.693.156l-.175.37a1.045 1.045 0 0 0-.521-.134c-.235 0-.335.075-.335.168 0 .305 1.091.01 1.091.716 0 .333-.31.57-.853.57-.304 0-.614-.084-.781-.193l.004-.003zM144.563 113.167c0-.193.145-.321.327-.321.181 0 .326.128.326.321a.318.318 0 0 1-.326.327.32.32 0 0 1-.327-.327z" fill="#263238"/>
            <path d="M145.9 114.163c-.044 0-.082-.903-.082-2.017 0-1.114.038-2.017.082-2.017.044 0 .081.903.081 2.017 0 1.114-.037 2.017-.081 2.017zM165.654 107.885h-11.296v9.291h11.296v-9.291z" fill="#FF725E"/>
            <path d="M159.61 113.786a2.134 2.134 0 0 1-2.141-2.126c0-1.173.959-2.126 2.141-2.126s2.141.953 2.141 2.126a2.134 2.134 0 0 1-2.141 2.126zm0-3.941a1.826 1.826 0 0 0-1.828 1.815c0 1 .822 1.815 1.828 1.815a1.825 1.825 0 0 0 1.828-1.815c0-.999-.822-1.815-1.828-1.815z" fill="#263238"/>
            <path d="M162.817 115.14a.147.147 0 0 1-.11-.046l-1.878-1.865a.155.155 0 0 1 0-.221.157.157 0 0 1 .223 0l1.878 1.865a.155.155 0 0 1 0 .221.159.159 0 0 1-.11.046h-.003z" fill="#263238"/>
            <path d="m106.3 107.884.288-.006c.198 0 .483 0 .859-.006.762 0 1.884-.006 3.336-.009 2.916-.007 7.151-.013 12.447-.022l42.421-.038h.082V117.257H152.882l.081-.081V123.975l-.141-.162c-1.956-2.257-3.865-4.455-5.715-6.587l.059.028c-17.663-.015-32.241-.031-40.869-.037h-.041v-.041l.022-6.92.009-1.777c0-.398.006-.598.006-.598s.007.209.007.61c0 .405.006 1.003.009 1.787l.022 6.895-.041-.04c8.628-.01 23.207-.022 40.87-.038h.035l.022.028 5.718 6.584-.141.053v-6.665H165.645l-.082.081v-9.292l.082.081-42.365-.037c-5.302-.009-9.544-.019-12.466-.022-1.457-.003-2.586-.009-3.354-.009-.38 0-.671-.003-.872-.006-.197 0-.298-.007-.298-.007h.01z" fill="#263238"/>
            <path d="M119.021 32.011c4.132 0 7.481-3.325 7.481-7.427 0-4.102-3.349-7.427-7.481-7.427-4.131 0-7.48 3.325-7.48 7.427 0 4.102 3.349 7.427 7.48 7.427z" fill="#FAFAFA"/>
            <path d="m126.502 24.584-.016-.122c-.006-.087-.016-.202-.025-.351-.006-.078-.009-.165-.016-.259-.009-.096-.031-.199-.05-.308-.037-.224-.072-.483-.16-.766-.134-.572-.404-1.248-.83-1.964a7.398 7.398 0 0 0-1.894-2.089c-.84-.625-1.9-1.158-3.123-1.373-1.213-.205-2.586-.168-3.89.324-.333.106-.646.268-.966.424-.304.183-.624.351-.906.579-.301.205-.564.46-.84.71-.248.273-.511.541-.725.852-.438.607-.824 1.283-1.056 2.024a7.894 7.894 0 0 0-.383 2.319c.01.797.142 1.581.383 2.319.232.744.618 1.416 1.056 2.026.214.312.477.58.725.853.276.246.539.505.84.71.282.227.605.398.909.579.32.152.633.317.966.423 1.304.492 2.677.533 3.89.324 1.223-.215 2.283-.747 3.123-1.373a7.397 7.397 0 0 0 1.894-2.088c.426-.716.699-1.392.83-1.965.088-.283.123-.541.157-.765.019-.112.038-.215.05-.309.007-.093.013-.18.016-.258.009-.15.019-.265.025-.352a.5.5 0 0 1 .016-.121c.003 0 .003.04 0 .121 0 .087-.006.206-.01.355l-.009.262c-.009.096-.025.199-.041.31-.031.228-.062.49-.144.773-.125.579-.392 1.267-.815 1.995a7.446 7.446 0 0 1-1.9 2.133c-.85.64-1.925 1.189-3.17 1.413-1.235.218-2.633.183-3.969-.315-.338-.105-.658-.274-.987-.43-.311-.186-.64-.357-.928-.588-.308-.208-.577-.47-.859-.722-.254-.28-.524-.55-.743-.868-.452-.62-.844-1.31-1.082-2.067a8.003 8.003 0 0 1-.392-2.369 7.89 7.89 0 0 1 .392-2.369c.238-.76.633-1.447 1.082-2.067.219-.317.486-.591.743-.868.282-.253.551-.514.859-.723.288-.233.617-.404.928-.588.329-.155.646-.32.987-.43 1.333-.498 2.731-.532 3.966-.314 1.245.224 2.32.772 3.17 1.413a7.453 7.453 0 0 1 1.903 2.133c.423.728.69 1.416.815 1.995.082.286.113.548.144.772.016.112.035.218.041.311l.009.262.01.355v.121-.01z" fill="#263238"/>
            <path d="M114.219 25.166c0-.333.247-.551.561-.551.313 0 .561.218.561.55a.547.547 0 0 1-.561.564.55.55 0 0 1-.561-.563zM119.09 21.415v4.268h-.862v-.358c-.225.27-.555.401-.972.401-.881 0-1.558-.622-1.558-1.594 0-.97.677-1.594 1.558-1.594.383 0 .706.122.932.374v-1.5h.902v.003zm-.887 2.72c0-.535-.348-.856-.793-.856-.445 0-.799.324-.799.856 0 .533.348.856.799.856.451 0 .793-.323.793-.856zM122.959 24.39h-2.357c.087.387.417.623.893.623.329 0 .568-.096.781-.299l.479.517c-.288.327-.724.501-1.285.501-1.078 0-1.778-.672-1.778-1.593 0-.922.712-1.594 1.662-1.594s1.621.61 1.621 1.606c0 .068-.013.168-.019.243l.003-.003zm-2.37-.522h1.536c-.062-.393-.36-.645-.765-.645-.404 0-.705.246-.771.645z" fill="#263238"/>
            <path d="M103.224 76.177c5.488 0 9.938-4.418 9.938-9.868s-4.45-9.868-9.938-9.868c-5.49 0-9.939 4.418-9.939 9.868s4.45 9.868 9.939 9.868z" fill="#FAFAFA"/>
            <path d="M113.162 66.309s-.01-.053-.016-.159c-.006-.112-.019-.268-.031-.467l-.022-.346c-.013-.127-.041-.264-.063-.41-.047-.3-.094-.642-.207-1.018-.175-.763-.536-1.663-1.103-2.615a9.806 9.806 0 0 0-2.518-2.783c-1.119-.834-2.53-1.544-4.157-1.83-.408-.056-.822-.14-1.248-.144-.213-.006-.426-.028-.643-.024-.216.012-.432.021-.652.034-.11.006-.219.006-.329.022l-.329.05c-.22.037-.442.062-.665.105-.436.119-.887.206-1.317.383-.442.14-.859.358-1.285.56-.207.112-.408.243-.614.365-.21.115-.402.261-.596.407-.401.274-.753.617-1.12.944-.332.364-.68.722-.965 1.136-.586.81-1.1 1.709-1.41 2.696a10.3 10.3 0 0 0-.509 3.087c.016 1.062.188 2.108.508 3.088.31.99.822 1.89 1.41 2.7.286.413.634.771.967 1.135.366.33.718.673 1.119.944.191.146.385.292.596.407.206.122.404.253.614.365.426.202.843.42 1.285.56.43.177.881.265 1.317.383.22.047.445.072.665.106l.329.05c.11.015.219.012.329.021.22.013.436.022.652.035.217.003.43-.02.643-.025.426 0 .84-.087 1.248-.144 1.627-.286 3.038-.996 4.157-1.83a9.85 9.85 0 0 0 2.518-2.783c.567-.952.928-1.852 1.103-2.615.116-.373.16-.719.207-1.017.022-.15.05-.287.063-.411l.022-.346c.012-.2.025-.355.031-.467.009-.106.016-.159.016-.159v.16l-.016.47-.013.345c-.012.127-.037.264-.056.414-.044.299-.085.647-.194 1.027-.167.769-.521 1.678-1.085 2.646a9.893 9.893 0 0 1-2.524 2.826c-1.125.85-2.552 1.576-4.201 1.871-.414.06-.831.147-1.267.15-.216.009-.432.028-.652.028-.219-.01-.439-.022-.661-.031-.11-.007-.223-.007-.336-.022l-.335-.05c-.223-.037-.448-.062-.674-.106-.442-.118-.9-.205-1.336-.386-.448-.143-.871-.361-1.307-.566-.213-.112-.414-.246-.624-.37a5.184 5.184 0 0 1-.605-.415c-.408-.277-.765-.622-1.138-.959-.339-.37-.693-.731-.985-1.151-.598-.822-1.119-1.737-1.436-2.743-.326-1-.501-2.06-.517-3.14.016-1.08.191-2.142.517-3.139.317-1.005.838-1.917 1.436-2.739.292-.42.646-.781.985-1.152.373-.333.73-.681 1.138-.958.197-.15.392-.296.605-.414.21-.125.414-.256.624-.368.436-.205.859-.426 1.307-.566.436-.18.894-.268 1.336-.386.226-.047.451-.072.674-.106l.335-.05c.11-.015.223-.012.336-.022.222-.009.442-.021.661-.03.22 0 .436.018.652.027.433.003.853.09 1.264.15 1.649.295 3.075 1.02 4.201 1.87a9.848 9.848 0 0 1 2.524 2.827c.564.968.918 1.877 1.085 2.646.109.38.15.725.194 1.027.019.15.044.287.056.414l.013.346.016.47v.158l.003.007z" fill="#263238"/>
            <path d="M95.57 67.582c0-.417.314-.691.706-.691.392 0 .705.274.705.69a.688.688 0 0 1-.705.708.692.692 0 0 1-.706-.707zM97.404 66.293c0-1.167.906-1.995 2.148-1.995 1.241 0 2.141.828 2.141 1.995 0 1.167-.9 1.996-2.141 1.996-1.242 0-2.148-.829-2.148-1.996zm3.142 0c0-.67-.43-1.074-.994-1.074-.565 0-1 .405-1 1.074 0 .67.435 1.074 1 1.074.564 0 .994-.404.994-1.074zM104.873 64.298v1.036c-.094-.006-.166-.015-.254-.015-.624 0-1.038.34-1.038 1.08v1.83h-1.132v-3.875h1.082v.51c.276-.373.74-.57 1.342-.57v.004zM109.538 64.354v3.228c0 1.441-.784 2.104-2.192 2.104-.74 0-1.458-.18-1.915-.532l.451-.806c.332.267.878.439 1.379.439.8 0 1.148-.362 1.148-1.059v-.165c-.298.324-.724.483-1.232.483-1.082 0-1.953-.741-1.953-1.874s.871-1.874 1.953-1.874c.545 0 .994.18 1.292.554v-.498h1.075-.006zm-1.117 1.815c0-.57-.429-.953-1.022-.953-.592 0-1.031.383-1.031.953s.436.952 1.031.952c.596 0 1.022-.383 1.022-.952z" fill="#263238"/>
            <path d="M167.318 80.8c5.489 0 9.939-4.419 9.939-9.869s-4.45-9.867-9.939-9.867-9.938 4.417-9.938 9.867c0 5.45 4.449 9.868 9.938 9.868z" fill="#FAFAFA"/>
            <path d="M177.256 70.931s-.009-.053-.015-.159l-.032-.466c-.006-.103-.012-.218-.022-.346-.012-.128-.04-.264-.062-.41-.047-.3-.094-.642-.207-1.019-.176-.762-.536-1.662-1.104-2.615a9.786 9.786 0 0 0-2.517-2.782c-1.12-.835-2.53-1.544-4.157-1.83-.408-.057-.822-.14-1.248-.144-.213-.006-.427-.028-.643-.025-.216.013-.433.022-.652.034-.11.007-.22.007-.329.022l-.329.05c-.22.037-.443.062-.665.106-.436.118-.887.205-1.317.383-.442.14-.859.358-1.285.56-.207.112-.408.243-.615.364-.21.115-.401.262-.595.408-.402.274-.753.616-1.12.943-.332.364-.68.722-.965 1.136-.587.81-1.101 1.71-1.411 2.696a10.277 10.277 0 0 0-.508 3.088c.012 1.062.188 2.108.508 3.088.31.99.821 1.89 1.411 2.699.285.414.633.772.965 1.136.367.33.718.672 1.12.943.191.147.385.293.595.408.207.121.405.252.615.364.426.203.843.42 1.285.56.43.178.881.265 1.317.383.219.047.445.072.665.106l.329.05c.109.016.219.013.329.022l.652.034c.216.003.43-.019.643-.025.426 0 .84-.087 1.248-.143 1.627-.286 3.037-.996 4.157-1.83a9.847 9.847 0 0 0 2.517-2.783c.568-.953.928-1.852 1.104-2.615.116-.374.16-.72.207-1.018.022-.15.05-.286.062-.41.01-.129.016-.24.022-.346l.032-.467.015-.159v.159l-.015.47c-.003.102-.01.22-.013.345-.012.128-.037.265-.056.414-.044.3-.085.648-.195 1.028-.166.768-.52 1.677-1.084 2.646a9.91 9.91 0 0 1-2.524 2.826c-1.126.85-2.552 1.575-4.201 1.87-.414.06-.831.147-1.267.15-.216.01-.433.028-.652.028-.219-.01-.439-.022-.662-.03-.109-.007-.222-.007-.335-.023l-.335-.05c-.223-.037-.449-.062-.674-.105-.443-.119-.9-.206-1.336-.386-.448-.143-.872-.361-1.307-.567-.214-.112-.414-.246-.624-.37a5.169 5.169 0 0 1-.605-.414c-.408-.277-.765-.623-1.138-.96-.339-.37-.693-.73-.985-1.15-.599-.823-1.119-1.738-1.436-2.743-.326-1-.501-2.061-.517-3.141.016-1.08.191-2.142.517-3.138.317-1.005.837-1.918 1.436-2.74.292-.42.646-.78.985-1.151.373-.333.73-.682 1.138-.959.197-.15.392-.295.605-.414.21-.124.414-.255.624-.367.435-.206.859-.427 1.307-.567.436-.18.893-.267 1.336-.386.225-.046.451-.071.674-.105l.335-.05c.11-.016.223-.013.335-.022.223-.01.443-.022.662-.031.219 0 .436.018.652.028.433.003.853.09 1.264.15 1.649.295 3.075 1.02 4.201 1.87a9.846 9.846 0 0 1 2.523 2.827c.565.968.919 1.877 1.085 2.645.11.38.151.726.195 1.028.018.15.044.286.056.414.006.127.009.243.013.345l.015.47v.16l.003.005z" fill="#263238"/>
            <path d="M161.559 72.07c0-.36.269-.6.611-.6.342 0 .611.237.611.6a.594.594 0 0 1-.611.614.597.597 0 0 1-.611-.613zM166.91 70.707v1.924h-.981v-1.774c0-.545-.251-.794-.686-.794-.474 0-.812.286-.812.906v1.662h-.982v-3.362h.938v.395c.263-.286.661-.445 1.119-.445.799 0 1.404.464 1.404 1.488zM171.137 71.227h-2.562c.095.42.455.676.969.676.358 0 .618-.106.85-.324l.523.563c-.313.355-.787.545-1.398.545-1.172 0-1.931-.731-1.931-1.73 0-1 .774-1.731 1.806-1.731 1.031 0 1.762.663 1.762 1.743 0 .075-.013.18-.019.261v-.003zm-2.574-.57h1.668c-.069-.426-.392-.7-.831-.7-.439 0-.768.268-.837.7zM173.996 72.472c-.201.144-.499.212-.8.212-.799 0-1.266-.408-1.266-1.208v-1.382h-.524v-.75h.524v-.819h.981v.819h.843v.75h-.843v1.37c0 .286.157.445.423.445a.659.659 0 0 0 .395-.125l.264.688h.003z" fill="#263238"/>
            <path d="M168.497 33.766c1.225-5.227-2.05-10.451-7.315-11.668-5.265-1.216-10.526 2.035-11.752 7.263-1.225 5.228 2.05 10.452 7.315 11.668 5.265 1.217 10.527-2.035 11.752-7.263z" fill="#FAFAFA"/>
            <path d="M168.757 31.566s-.009-.053-.016-.159c-.006-.112-.019-.264-.031-.46a24.186 24.186 0 0 0-.022-.34c-.013-.124-.041-.258-.063-.404-.047-.293-.091-.632-.203-1.003-.173-.75-.527-1.634-1.085-2.574a9.653 9.653 0 0 0-2.477-2.74c-1.1-.821-2.489-1.519-4.095-1.799-.401-.056-.808-.137-1.228-.14-.211-.006-.421-.028-.634-.025-.213.013-.426.022-.642.034-.107.007-.217.007-.327.022l-.322.05c-.217.034-.436.062-.653.106-.429.115-.871.202-1.294.377-.436.14-.847.351-1.267.554-.204.109-.401.24-.605.358-.207.115-.395.258-.586.401-.395.268-.74.607-1.101.931-.326.358-.671.71-.95 1.117-.577.797-1.081 1.681-1.389 2.656a10.284 10.284 0 0 0-.501 3.041c.012 1.046.185 2.073.501 3.041.305.975.809 1.859 1.389 2.656.282.407.624.76.95 1.117.361.324.706.66 1.101.93.191.144.379.287.586.402.204.119.398.25.605.358.42.2.831.414 1.267.554.423.175.865.262 1.294.377.217.044.439.069.653.106l.322.05c.107.015.217.012.327.022.216.012.429.021.642.034.213.003.423-.016.634-.025.42 0 .827-.084 1.228-.14 1.603-.283 2.991-.98 4.095-1.803a9.654 9.654 0 0 0 2.477-2.739c.558-.94.912-1.824 1.085-2.574.112-.37.156-.71.203-1.003.022-.146.05-.28.063-.404.006-.125.016-.237.022-.34.012-.196.025-.351.031-.46l.016-.159v.159l-.016.464c-.003.102-.009.214-.012.342-.01.125-.035.261-.057.408-.04.295-.081.638-.191 1.011-.166.757-.514 1.653-1.069 2.606a9.735 9.735 0 0 1-2.486 2.786c-1.11.837-2.515 1.55-4.139 1.843-.407.059-.818.143-1.244.146-.213.01-.427.028-.643.025-.216-.01-.433-.022-.652-.031-.11-.006-.219-.006-.329-.022l-.329-.05c-.22-.034-.442-.062-.665-.105-.436-.116-.887-.203-1.317-.38-.442-.14-.859-.355-1.288-.56-.21-.113-.408-.243-.615-.365a4.858 4.858 0 0 1-.596-.408c-.401-.274-.752-.613-1.119-.943-.332-.364-.68-.722-.969-1.136-.589-.81-1.1-1.709-1.413-2.699a10.3 10.3 0 0 1-.508-3.094 10.3 10.3 0 0 1 .511-3.091c.31-.99.824-1.89 1.414-2.699.285-.414.636-.769.968-1.133.367-.33.718-.67 1.12-.943.194-.147.385-.29.595-.408.207-.122.408-.252.615-.364.429-.203.843-.42 1.288-.56.43-.178.881-.265 1.317-.38.22-.044.445-.072.665-.106l.329-.05c.11-.016.219-.012.329-.022.22-.01.436-.022.652-.03.217 0 .43.018.643.024.426.003.837.087 1.245.146 1.624.293 3.028 1.006 4.138 1.843a9.726 9.726 0 0 1 2.486 2.783c.555.953.903 1.849 1.069 2.605.11.374.151.716.191 1.012.019.146.044.283.057.408.006.125.009.24.012.342l.016.464v.159h-.003z" fill="#263238"/>
            <path d="M150.254 32.998c0-.374.279-.62.63-.62s.63.246.63.62a.614.614 0 0 1-.63.632.618.618 0 0 1-.63-.632zM151.899 31.84c0-1.046.812-1.79 1.954-1.79.733 0 1.313.318 1.567.884l-.787.42c-.188-.33-.467-.479-.787-.479-.514 0-.918.355-.918.962s.404.962.918.962c.32 0 .599-.143.787-.48l.787.427c-.254.554-.834.878-1.567.878-1.138 0-1.954-.744-1.954-1.79v.006zM155.699 31.84c0-1.046.812-1.79 1.925-1.79s1.919.744 1.919 1.79-.806 1.79-1.919 1.79-1.925-.744-1.925-1.79zm2.819 0c0-.6-.383-.962-.891-.962s-.896.361-.896.962c0 .6.392.962.896.962.505 0 .891-.361.891-.962zM166.137 31.588v1.989h-1.016v-1.833c0-.564-.254-.822-.665-.822-.454 0-.774.29-.774.912v1.743h-1.016v-1.833c0-.564-.241-.822-.664-.822-.449 0-.768.29-.768.912v1.743h-1.016v-3.474h.969v.402c.26-.296.652-.452 1.1-.452.489 0 .903.187 1.151.57.279-.355.733-.57 1.263-.57.834 0 1.433.48 1.433 1.538l.003-.003z" fill="#263238"/>
        </g>
    </g>
    <defs>
        <clipPath id="035g9dppqa">
            <path fill="#fff" d="M0 0h275v148H0z"/>
        </clipPath>
        <clipPath id="qrska11mwb">
            <path fill="#fff" transform="translate(65 10)" d="M0 0h140v138H0z"/>
        </clipPath>
    </defs>
</svg>
