<svg xmlns="http://www.w3.org/2000/svg" width="79" height="76" viewBox="0 0 79 76">
    <defs>
        <linearGradient id="a" x1="50%" x2="50%" y1="0%" y2="100%">
            <stop offset="0%" stop-color="#3A9FFD"/>
            <stop offset="100%" stop-color="#E7F4FF"/>
        </linearGradient>
    </defs>
    <g fill="none" fill-rule="evenodd" transform="translate(2)">
        <ellipse cx="37.5" cy="38" stroke="url(#a)" stroke-width="3" rx="37.5" ry="36"/>
        <path fill="#E3E3E3" d="M1.126 69.043c-1.027-.278-1.405-.611-.91-1.011 3.436-2.784 18.846-2.822 26.322-2.878 9.402-.071 19.186-.222 27.652.382 3.543.253 11.571.448 12.944 1.37 3.6 2.42-22.022 3.298-26.168 3.364-6.913.11-33.973.357-39.84-1.227"/>
        <path fill="#E3E3E3" d="M57.261 69.978a9.358 9.358 0 0 1-.491-.431c-2.894-2.726 2.155-2.959 3.825-3.147a52.158 52.158 0 0 1 8.765-.246c1.639.092 3.333.281 4.847.955 1.483.66 2.73 1.757.826 2.693-1.98.974-4.368 1.47-6.546 1.757-3.99.526-7.957 1.092-11.226-1.58"/>
        <path fill="#E3E3E3" d="M62.136 17H3.79c-.776 0-1.404.608-1.404 1.358V67.06h60.663V17.884c0-.488-.409-.884-.913-.884"/>
        <path fill="#FFF" d="M63.5 17H5.152c-.775 0-1.404.608-1.404 1.358V67.06h60.664V17.884c0-.488-.41-.884-.914-.884"/>
        <path fill="#6A79A8" d="M62.92 17.006H5.711c-.786 0-1.63-.1-2.221.527-.547.58-.408 1.483-.408 2.21V66.892c0 .11.103.149.202.149H61.332c.785 0 1.583.04 2.367 0 .033-.002.066 0 .099 0 .09 0 .235-.074.235-.175v-5.051-12.057-14.372-12.11c0-1.74.088-3.504 0-5.242-.03-.581-.456-.988-1.058-1.027-.221-.014-.434.3-.144.319.974.063.765 1.21.765 1.862v46.948c0 .2-.053.476 0 .67.006.025 0 .06 0 .086l.234-.174H4.227c-.25 0-.563-.049-.81 0-.03.006-.068 0-.1 0l.203.148v-5.624-13.16-15.085-11.515-2.696c0-.406.015-.793.335-1.117.315-.319.692-.341 1.1-.341H62.885c.253 0 .324-.323.033-.323"/>
        <path fill="#EFEFEF" d="M64.413 20.952H3.749V17.8c0-.441.369-.799.824-.799h59.015c.456 0 .825.358.825.8v3.152"/>
        <path fill="#6A79A8" d="M63.926 20.736H4.295c-.26 0-.553-.035-.81 0-.032.004-.068 0-.1 0l.126.039c0-.985-.077-1.995 0-2.976.049-.628.485-.611.95-.611H62.006c.283 0 .572-.014.856 0 .437.021.734.317.76.718.034.518 0 1.048 0 1.567v1.408c0 .086.43.023.43-.106v-1.53c0-.494.049-1.01-.004-1.503-.068-.633-.682-.738-1.236-.738H4.91c-.23 0-.46-.008-.69 0-.58.02-1.105.333-1.14.9-.03.506 0 1.021 0 1.528v1.449c0 .041.103.039.126.039H56.331c2.435 0 4.884.072 7.317 0h.099c.134 0 .465-.184.179-.184"/>
        <path fill="#FFF" d="M8.18 18.976c0-.546-.458-.988-1.023-.988s-1.022.442-1.022.988.457.988 1.022.988 1.022-.442 1.022-.988"/>
        <path fill="#6A79A8" d="M7.498 18.921c-.067-1.335-2.04-1.18-2.045.096-.005 1.351 1.981 1.192 2.044-.068.008-.157-.37-.074-.377.055-.02.4-.274.847-.707.742-.343-.083-.577-.44-.577-.811-.001-.435.334-.867.766-.705.326.122.5.44.517.801.006.12.386.04.379-.11"/>
        <path fill="#FFF" d="M10.565 18.976c0-.546-.458-.988-1.022-.988-.565 0-1.023.442-1.023.988s.458.988 1.023.988c.564 0 1.022-.442 1.022-.988"/>
        <path fill="#6A79A8" d="M10.224 18.922c-.067-1.33-2.043-1.186-2.045.093-.001 1.346 1.981 1.202 2.045-.063.009-.172-.372-.094-.379.048-.02.403-.28.823-.707.73-.342-.073-.576-.431-.575-.793 0-.438.339-.837.768-.693.326.11.497.437.515.787.007.137.386.053.378-.11"/>
        <path fill="#FFF" d="M13.632 18.976c0-.546-.457-.988-1.022-.988s-1.023.442-1.023.988.458.988 1.023.988 1.022-.442 1.022-.988"/>
        <path fill="#6A79A8" d="M13.632 18.92c-.066-1.357-2.04-1.156-2.045.112-.005 1.373 1.984 1.139 2.045-.112.003-.05-.372-.005-.378.112-.024.49-.37.961-.848.691-.268-.15-.443-.469-.44-.803.003-.469.36-.934.81-.713.3.148.46.471.478.825.003.064.384-.003.378-.112"/>
        <path fill="#EFEFEF" d="M17.722 63.108h31.013v-2.306H17.722z"/>
        <path fill="#FFF" d="M24.04 61.961H41.696c.244 0 .331-.5.04-.5H24.079c-.243 0-.33.5-.039.5"/>
        <path fill="#EFEFEF" d="M8.52 29.186h49.758v-3.952H8.52zM40.897 57.509H58.96V46.97H40.897z"/>
        <path fill="#FFF" d="M54.132 54.216H44.293c-.086 0-.472.5-.272.5H53.859c.087 0 .472-.5.273-.5M54.06 51.91h-9.814c-.184 0-.44.5-.154.5h9.815c.183 0 .439-.5.154-.5M54.75 49.934H44.265c-.148 0-.478.5-.18.5h10.484c.148 0 .478-.5.181-.5"/>
        <path fill="#EFEFEF" d="M40.897 43.677H58.96v-10.54H40.897z"/>
        <path fill="#FFF" d="M54.08 40.713h-9.831c-.126 0-.454.5-.177.5h9.831c.126 0 .454-.5.177-.5M54.007 38.078h-9.823c-.24 0-.326.5-.039.5H53.97c.24 0 .326-.5.038-.5M54.74 36.102H44.26c-.182 0-.465.5-.166.5H54.573c.182 0 .465-.5.166-.5"/>
        <path fill="#EFEFEF" d="M16.2 31.96h32.948c.44 0 .912.07 1.35 0 .02-.003.04 0 .06 0 .242 0 .33-.438.04-.438H17.65c-.44 0-.912-.07-1.35 0-.02.003-.04 0-.06 0-.242 0-.33.438-.04.438M8.52 57.509H33.4V33.467H8.52z"/>
        <path fill="#FFF" d="M26.399 45.323h-9.48c-.246 0-.322.5-.035.5h9.48c.245 0 .322-.5.035-.5"/>
        <path fill="#FFF" d="M22.152 50.445v-8.198-1.17c0-.08-.681-.017-.681.113v9.367c0 .08.681.017.681-.112"/>
        <path fill="#FFF" d="M29.205 54.361H14.703c-.679 0-1.657.153-2.212-.308-.633-.526-.476-1.487-.476-2.216v-8.412c0-1.968-.092-3.96 0-5.926.03-.65.467-1.212 1.166-1.218.308-.002.616 0 .924 0H26.802c.698 0 1.403-.027 2.1 0 .77.031 1.312.595 1.336 1.34.007.208 0 .417 0 .624v7.865c0 2.294.012 4.588 0 6.882-.003.643-.314 1.338-1.079 1.37-.116.005-.464.182-.184.17.878-.036 1.657-.59 1.69-1.497.006-.182 0-.366 0-.548V49.16v-9.27c0-.781.018-1.565 0-2.346-.018-.702-.48-1.293-1.205-1.413-.223-.037-.459-.022-.684-.022h-8.084c-2.418 0-4.836-.016-7.253 0-1.036.007-1.845.595-1.85 1.654-.004.89 0 1.78 0 2.67v12.369c0 .309-.013.608.12.9.259.565.825.825 1.43.832 2.381.025 4.764 0 7.145 0h8.645c.093 0 .483-.173.276-.173"/>
        <path fill="#E3E3E3" d="M62.873 70.683c-.395.002-.476-.704-.517-.945-.131-.778-.143-1.576-.161-2.362-.023-1.02-.023-2.04-.045-3.058a51.485 51.485 0 0 0-.053-1.565c-.013-.25-.028-.501-.047-.751-.009-.11-.04-.233-.01-.337.036-.123.123-.256.197-.363.086-.125.193-.239.33-.316.199-.111.438-.137.669-.155.41-.032.823-.047 1.23.009.406.055.808.184 1.132.417a.481.481 0 0 1 .159.163c.075.15-.092.439-.141.593-.064.198-.124.396-.182.596-.126.43-.241.864-.352 1.299-.233.914-.446 1.832-.666 2.749-.195.809-.39 1.62-.637 2.416-.147.475-.29 1.05-.633 1.446-.066.077-.158.163-.273.164"/>
        <path fill="#FFF" d="M64.982 62.698c-.11.409-.21.82-.307 1.232-.203.866-.388 1.737-.58 2.606-.17.767-.34 1.536-.556 2.292-.128.45-.252.995-.55 1.37-.059.073-.138.155-.238.155-.345.003-.415-.667-.45-.895-.116-.738-.126-1.495-.141-2.24-.02-.966-.02-1.933-.04-2.9-.009-.494-.022-.989-.046-1.483-.005-.107-.115-.672.019-.712.03-.01.06.006.09.013 1.003.225 1.689.132 2.545.074.056-.004.286-.045.332-.015.102.065-.055.416-.078.503"/>
        <path fill="#6A79A8" d="M64.686 61.649c-.785 2.574-1.087 5.28-1.836 7.862-.113.39-.23.8-.449 1.142-.023.036-.062.096-.103.115.06-.028.08.015.041-.035a1.037 1.037 0 0 1-.187-.37c-.329-1.107-.246-2.41-.261-3.552-.025-1.756-.013-3.515-.144-5.267-.012-.162-.415-.067-.401.113.133 1.789.116 3.586.143 5.379.012.73.025 1.462.08 2.19.034.469.057 1.003.248 1.438.31.71.91.19 1.124-.293.504-1.137.706-2.45.963-3.665.36-1.706.678-3.433 1.186-5.1.051-.169-.355-.116-.404.043"/>
        <path fill="#E3E3E3" d="M73.137 68.973c-.4.352-1.08-.876-1.206-1.079-.637-1.022-1.173-2.103-1.737-3.163-.548-1.03-1.078-2.13-1.807-3.06-.182-.232-.364-.492-.072-.746.165-.145.397-.191.617-.232l2.984-.55c.226 1.75.56 3.482.895 5.216.194 1.012.489 2.086.46 3.122-.004.165-.01.364-.134.492"/>
        <path fill="#FFF" d="M73.476 68.971c-.405.362-1.094-.9-1.223-1.108-.646-1.051-1.189-2.162-1.76-3.251-.345-.655-.673-1.32-1.046-1.96-.094-.16-.19-.319-.29-.475-.062-.097-.333-.36-.313-.473 0 0 .477-.137.625-.17.465-.1.933-.188 1.396-.297.44-.105 1.025-.295 1.494-.435l.147.928c.063.39.13.779.2 1.167.14.788.29 1.574.439 2.36.197 1.04.496 2.144.467 3.209-.004.169-.01.374-.136.505"/>
        <path fill="#6A79A8" d="M71.827 60.325c.28 1.647.628 3.281.966 4.919.113.554.228 1.109.311 1.668.051.333.13.712.06 1.047-.01.047-.068.184-.052.17.088-.075.072.029.006-.043-.044-.046-.125-.086-.175-.13-.277-.246-.483-.57-.68-.87-.634-.958-1.163-1.973-1.72-2.968-.597-1.065-1.183-2.163-1.965-3.127-.099-.122-.512.018-.396.16 1.58 1.948 2.421 4.305 3.848 6.338.24.343.86 1.243 1.414.738.192-.175.174-.47.166-.697-.018-.482-.11-.963-.2-1.438-.367-1.96-.819-3.905-1.155-5.87-.026-.154-.457-.06-.428.103"/>
        <path fill="#D08E7E" d="M59.723 60.704a3.028 3.028 0 0 1-.23-.271c-.6-.8-.848-1.798-1.024-2.775-.305-1.692-.171-3.333-.096-5.046.079-1.792.194-3.584.408-5.366.355-2.961 1.275-10.944 6.267-9.269 3.741 1.256 6.682 8.343 8.733 15.401.588 2.026 1.076 3.313 1.508 4.986a.944.944 0 0 1-.65 1.134c-1.919.59-6.51 1.957-8.218 2.045-2.062.106-5.105.832-6.698-.84"/>
        <path fill="#F9AB98" d="M59.667 60.705a2.972 2.972 0 0 1-.218-.269c-.571-.792-.81-1.777-.98-2.742-.296-1.67-.176-3.289-.112-4.979.067-1.768.167-3.535.362-5.293.324-2.92 1.314-10.768 5.883-9.119 3.532 1.275 6.349 8.26 8.316 15.232.513 1.816.944 3.031 1.33 4.477a1.41 1.41 0 0 1-.945 1.707c-1.998.626-5.813 1.767-7.304 1.841-1.948.096-4.82.8-6.332-.855"/>
        <path fill="#FFF" d="M63.672 42.271c-.149.062-.308.096-.47.087-.206-.012-.401-.095-.587-.185a6.826 6.826 0 0 1-.922-.536c-.106-.073-.222-.13-.336-.19a1.18 1.18 0 0 1-.275-.223c-.143-.143-.341-.34-.411-.534-.031-.086.047-.184.09-.26.061-.104.127-.206.185-.312.19-.345.401-.68.648-.988.97-1.21 2.36-1.69 3.859-1.18.877.298 1.642.89 2.27 1.554.095.1.112.144.088.273-.023.122-.05.242-.084.361a2.273 2.273 0 0 1-.296.662 5.586 5.586 0 0 1-.82.928c-.058.053-.11.127-.176.167a.922.922 0 0 1-.3.097c-.21.038-.428.024-.635-.024a2.812 2.812 0 0 1-.532-.19c-.144-.066-.312-.234-.479-.13-.095.058-.174.169-.256.245-.1.09-.203.176-.315.249-.078.05-.16.094-.246.13"/>
        <path fill="#FFF" d="M66.472 34.233c-.48-3.217-2.295-5.616-4.054-5.358-1.76.259-2.798 3.077-2.319 6.294l.086.577c.266 1.784.604 3.005 1 3.83.814 1.698 3.075 2.125 3.075 2.125s2.094-1.052 2.42-2.725c.18-.915.165-2.238-.122-4.166l-.086-.577"/>
        <path fill="#F9AB98" d="M67.06 38.736c.884-.018 1.923-.277 2.61-.77 1.176-.846.918-2.417.652-3.602a10.798 10.798 0 0 0-1.835-4.022c-.66-.897-1.477-1.716-2.497-2.243a5.076 5.076 0 0 0-1.839-.547c-.677-.064-1.238.125-1.884.207-.985.126-1.898.556-2.724 1.072-.525.329-1.054.737-1.213 1.307-.421 1.514 1.8 2.642 3.14 2.649a3.628 3.628 0 0 0 2.058-.636c.467-.322 1.16-.95 1.085-1.544.105.832.714 1.588.787 2.399.094 1.057.119 2.094.326 3.143.138.698.25 2.61 1.334 2.587"/>
        <path fill="#6A79A8" d="M61.373 40.034c.464.465 1.043.803 1.68 1.047.289.11.72.305 1.047.29.31-.015.67-.306.903-.459.573-.374 1.08-.828 1.435-1.381.114-.176-.31-.172-.397-.037-.317.493-.765.896-1.272 1.233a6.208 6.208 0 0 1-.538.321c-.017.01-.135.054-.14.072-.021.066.14-.03.135-.01-.003.019-.813-.23-.884-.256-.601-.225-1.15-.545-1.586-.981-.12-.12-.518.027-.383.161"/>
        <path fill="#D08E7E" d="M61.482 41.715c.253.202.482.42.797.534.371.134.7.214 1.105.19.38-.023.613-.342.818-.61.113-.145.548-.034.666.03.229.123.394.285.667.266.247-.018.746.028.941-.113.42-.305.7-.747.96-1.162.18-.286.635-.073.709.163.105.334-.312.738-.535.973-.27.286-.603.524-1.004.641-.652.19-1.23-.027-1.778-.307-.331.36-.779.678-1.303.696-.561.02-1.104-.167-1.582-.418-.287-.15-.6-.311-.792-.563-.063-.082-.206-.28-.12-.378.089-.1.369-.008.45.058"/>
        <path fill="#6A79A8" d="M67.385 40.167c-.268.47-.547.975-1.01 1.307-.695.5-1.256.046-1.863-.313l.042.144.04-.068c.114-.19-.298-.216-.391-.087-.373.522-.735 1.064-1.505.822-.633-.2-1.171-.624-1.65-1.043-.144-.127-.52.074-.334.236.612.535 1.427 1.174 2.318 1.194.737.016 1.173-.576 1.536-1.084l-.39-.087-.041.067c-.029.048-.008.114.041.143.677.4 1.3.854 2.119.482.73-.331 1.14-1.025 1.504-1.663.116-.204-.324-.212-.416-.05M63.964 37.811c.334.126-.202.727-.358.812-.374.204-.81.116-1.13-.128-.176-.134-.78-.842-.208-.736.377.07.763.136 1.15.11.18-.012.42-.105.546-.058"/>
        <path fill="#FFF" d="M68.172 44.335a1.226 1.226 0 0 1-.35-.81c-.03-.628.403-1.15.967-1.165.564-.016 1.045.481 1.075 1.11.015.314-.086.601-.261.812l-1.43.053"/>
        <path fill="#6A79A8" d="M60.564 39.78c-1.32 2.562-1.63 5.577-1.906 8.393-.186 1.904-.278 3.816-.354 5.726-.07 1.75-.036 3.57.574 5.24.474 1.296 1.397 2.204 2.796 2.501 1.311.279 2.679.108 3.998-.02 1.081-.105 2.12-.202 3.183-.439a67.64 67.64 0 0 0 3.919-1.023c.575-.165 1.15-.334 1.722-.506.46-.139.999-.23 1.304-.627.416-.544.08-1.245-.088-1.821-.216-.739-.456-1.47-.69-2.204-1.144-3.586-2.152-7.193-3.755-10.622-.767-1.64-1.655-3.225-2.808-4.64-.212-.26-.426-.542-.687-.758-.18-.15-.547-.286-.657-.494-.085-.162.029-.468.049-.656.032-.311.043-.624.041-.936a18.054 18.054 0 0 0-.539-4.303c-.332-1.303-.933-2.677-1.967-3.604-.7-.629-1.642-.996-2.58-.665-1.03.364-1.613 1.38-1.921 2.343-.447 1.398-.397 2.869-.18 4.3.117.762.246 1.523.435 2.273.076.302.161.601.261.897.087.258.272.546.322.81.012.063.013.02-.023.125-.03.089-.115.18-.165.26l-.284.45c-.114.18.322.16.406.026.146-.23.46-.556.517-.818.03-.141-.093-.31-.149-.447a8.977 8.977 0 0 1-.294-.834 18.621 18.621 0 0 1-.735-3.996c-.098-1.359.044-2.87.756-4.072.571-.965 1.558-1.5 2.635-.91 1.11.607 1.796 1.846 2.218 2.966.494 1.31.68 2.75.799 4.135.055.647.08 1.3.022 1.949-.036.4-.226.722.123 1.009.174.143.379.25.55.397.303.257.55.599.795.906.544.68 1.025 1.4 1.461 2.15 1.814 3.116 3.01 6.58 4.05 10.001.451 1.486.918 2.967 1.376 4.451.096.313.19.626.278.94.093.332.272.735.172 1.081-.165.568-1.022.667-1.529.819-1.188.354-2.381.694-3.583 1.005-1.072.278-2.162.567-3.266.698-1.14.135-2.317.244-3.465.278-1.314.04-2.77-.131-3.661-1.178-1.054-1.237-1.268-3.155-1.32-4.699-.06-1.762.082-3.548.195-5.307.182-2.818.432-5.739 1.244-8.463.21-.709.471-1.401.811-2.061.1-.194-.333-.168-.406-.026"/>
        <path fill="#6A79A8" d="M68.502 44.428a1.418 1.418 0 0 1-.253-1.002c.036-.307.226-.868.651-.743.695.203.624 1.305.357 1.76-.115.195.32.192.408.04.404-.686.24-2.23-.886-2.118-1.088.108-1.155 1.56-.67 2.24.104.148.515-.006.393-.177"/>
        <path fill="#FFF" d="M49.822 47.577L33.06 51.878c-.42.108-.833-.068-.922-.394l-4.516-16.52c-.089-.327.18-.678.6-.786l16.762-4.302c.42-.108.834.069.923.394l4.515 16.521c.09.326-.18.678-.6.786"/>
        <path fill="#F9AB98" d="M49.84 47.61l-16.837 4.272c-.24.061-.554.03-.759-.169-.386-.376-.17-.496.121-.715.69-.521 1.592-.857 2.356-1.249a94.16 94.16 0 0 1 14.883-6.072c.272 1.016.531 2.04.812 3.058.105.376-.154.769-.576.876"/>
        <path fill="#BBDFF5" d="M35.04 37.45c.265.966-.33 1.958-1.331 2.214-1 .256-2.027-.32-2.292-1.287-.265-.967.331-1.958 1.332-2.214 1-.256 2.026.32 2.291 1.286"/>
        <path fill="#EFEFEF" d="M48.886 41.313c.328 1.06.592 2.004.519 2.022a54.553 54.553 0 0 1-11.24 1.53c-.902.028-2.623.32-3.403-.08.614-.855 1.487-1.472 2.184-2.264.672-.762 1.266-1.595 1.64-2.526.222-.554.457-.851 1.092-.607.558.215 2.419 1.734 3.009 1.35.217-.14.293-.405.342-.65.29-1.427.235-2.95.914-4.256.598-1.153 1.734.614 2.127.733.17.052.313.161.41.304.447.669 1.097.908 1.417 1.547.13.26.604 1.658.989 2.897"/>
        <path fill="#FFF" d="M43.718 37.608c.185-.27.426-.533.746-.497.167.02.42.256.576.13.103-.083.154-.233.266-.314a.797.797 0 0 1 .36-.134c.119-.017.232-.01.343-.008-.1-.11-.201-.219-.303-.327-.419-.445-1.178-1.633-1.609-.612-.253.6-.384 1.243-.474 1.903l.095-.14M38.287 41.076c.19.19.575.41.804.226.09-.073.114-.233.181-.338a.45.45 0 0 1 .307-.203c.331-.067.665.076.977-.162-.505-.431-1.015-.971-1.246-1.102-.51-.288-.7.062-.879.716a10 10 0 0 1-.26.815c.036-.006.076.007.116.048"/>
        <path fill="#6A79A8" d="M35.169 44.255c1.1-1.13 2.302-2.198 3.159-3.517.217-.335.41-.684.572-1.046.136-.303.247-.887.692-.8.434.084.884.5 1.242.725.568.359 1.635 1.125 2.31.542.268-.232.308-.603.364-.926.068-.395.115-.793.164-1.191.107-.862.218-1.737.569-2.546.065-.15.174-.503.374-.527.125-.015.322.145.417.213.26.187.477.421.708.638.742.697 1.513 1.361 2.239 2.075.08.078.48-.071.407-.143-.706-.694-1.447-1.346-2.177-2.016-.372-.342-.78-.89-1.338-.946-.56-.056-.864.332-1.057.776-.358.82-.467 1.711-.575 2.586-.059.48-.11.966-.212 1.44-.032.145-.093.504-.233.574-.093.046-.286-.028-.397-.068-.564-.204-1.07-.567-1.566-.886-.38-.245-.791-.56-1.278-.534-.61.033-.818.474-1.023.953-.795 1.853-2.353 3.211-3.754 4.65-.093.096.318.05.393-.026"/>
        <path fill="#6A79A8" d="M37.881 41.28c.244.181.711.694.96.234.036-.066.026-.175.058-.232.187-.326.39-.14.596-.088a.72.72 0 0 0 .616-.1c.236-.155.024-.403-.166-.28-.244.16-.526-.095-.78-.101a.614.614 0 0 0-.384.12.654.654 0 0 0-.244.345l-.012.046c-.024.124-.02.136.009.036-.084.008-.286-.213-.354-.264-.137-.102-.48.148-.299.283M45.19 36.468c-.244-.054-.492-.063-.714.074a.585.585 0 0 0-.198.192 1.645 1.645 0 0 0-.07.276l.22-.017c-.266-.084-.537-.415-.828-.331-.25.071-.474.324-.62.529-.162.226.24.307.361.138.118-.165.244-.291.424-.386l-.26-.006c.23.134.58.442.869.354a.373.373 0 0 0 .201-.152c.023-.034.026-.08.046-.114.095-.157.218-.272.424-.228.218.048.43-.268.146-.33"/>
        <path fill="#BBDFF5" d="M31.841 50.956c.053.209.109.417.162.625-.02-.074 1.68-.938 1.845-1.03.592-.33 1.205-.639 1.788-.976 1.083-.625 2.139-1.24 3.345-1.656 1.31-.453 2.63-.884 3.949-1.321 1.257-.417 2.528-.82 3.766-1.282.836-.312 1.585-.777 2.38-1.156l-.648-2.13c-1.228.762-2.653 1.215-4.093 1.556-2.43.575-4.904.976-7.38 1.373-1.228.197-2.458.416-3.641.761-.412.12-.807.301-1.224.38-.12.023-1.413.285-1.417.269.048.225.045.453.081.678.031.19.109.382.166.568l.4 1.317c.113.367.224.735.336 1.102.068.223.069.438.12.661l.065.261"/>
        <path fill="#6A79A8" d="M30.95 45.962a45.239 45.239 0 0 1 9.475-1.968c1.5-.144 3.014-.223 4.502-.473 1.37-.23 2.706-.605 4.021-1.041.291-.097.017-.154-.15-.1-1.446.481-2.921.876-4.436 1.08-1.591.214-3.2.286-4.795.47-2.98.34-5.914 1.022-8.766 1.933-.292.093-.017.152.15.099M32.338 51.557c1.34-.584 2.648-1.23 3.976-1.839a49.867 49.867 0 0 1 4.14-1.653c2.852-1.01 5.745-1.929 8.505-3.155.264-.117.028-.315-.184-.22-2.76 1.225-5.653 2.144-8.506 3.154a49.897 49.897 0 0 0-4.14 1.653c-1.327.609-2.635 1.255-3.976 1.839-.265.115-.028.313.185.221"/>
        <path fill="#6A79A8" d="M49.93 47.608l-5.865 1.511-9.111 2.348c-.57.147-1.151.347-1.732.446-.558.096-.65-.254-.754-.632l-.305-1.122-2.353-8.645-1.151-4.227c-.197-.722-.45-1.45-.595-2.184-.135-.681.963-.781 1.448-.906l3.703-.955 9.371-2.415c.824-.212 1.646-.45 2.476-.638.815-.183.85.523 1.003 1.084l2.203 8.093 1.999 7.343c.101.37.2.724-.337.899-.257.084-.183.377.08.292.531-.174.877-.553.74-1.1-.075-.302-.163-.6-.244-.9l-1.023-3.756-2.568-9.434c-.208-.764-.385-1.543-.625-2.298-.268-.841-1.192-.544-1.83-.38l-8.568 2.208c-2.457.633-4.922 1.243-7.373 1.9-.468.126-.983.425-.906.97.025.174.09.347.135.516l.872 3.202 2.605 9.57.815 2.994c.063.232.1.476.297.644.338.287.783.216 1.177.114l7.714-1.987 8.292-2.137.49-.126c.265-.069.185-.36-.08-.292"/>
        <path fill="#6A79A8" d="M58.916 43.607c-.862.92-2.119.981-3.289.812-1.081-.157-2.138-.504-3.132-.957-1.126-.512-2.231-1.215-3.088-2.124-.587-.622-1.262-1.486-2.208-1.242-.24.062-.214.178.03.115.529-.136 1.171.62 1.487.95.408.428.808.823 1.28 1.18a11.804 11.804 0 0 0 3.427 1.78c1.818.604 4.386 1.03 5.867-.554.077-.082-.307-.032-.374.04M68.367 43.878c.129 1.188-.048 2.57-.434 3.705-.367 1.08-1.128 1.827-2.096 2.41-.897.541-1.899.919-2.913 1.177-.533.136-1.037.24-1.584.198-.321-.025-.618.073-.675.425-.03.192.408.127.435-.043.017-.107.59-.065.684-.077.236-.03.472-.08.705-.13.52-.11 1.033-.254 1.535-.427.952-.329 1.885-.762 2.694-1.363.801-.595 1.365-1.329 1.672-2.278.373-1.153.54-2.508.409-3.71-.019-.17-.452-.072-.432.113"/>
        <ellipse cx="51.5" cy="5" fill="#2496FF" rx="5.5" ry="5"/>
    </g>
</svg>
