<svg width="41" height="20" viewBox="0 0 41 20" fill="none" xmlns="http://www.w3.org/2000/svg">
    <rect opacity=".2" width="40.286" height="19.227" rx="9.614" fill="#158A02"/>
    <path d="M11.412 13.068H9.156V6.409h2.302c.66 0 1.229.133 1.703.4.477.265.844.645 1.1 1.141.255.497.383 1.09.383 1.782 0 .694-.129 1.29-.387 1.788a2.675 2.675 0 0 1-1.109 1.148c-.48.267-1.06.4-1.736.4zm-1.05-1.044h.992c.464 0 .85-.084 1.16-.253.31-.172.543-.426.7-.764.155-.34.234-.765.234-1.275 0-.51-.079-.932-.235-1.268a1.596 1.596 0 0 0-.692-.758c-.304-.169-.68-.253-1.132-.253h-1.027v4.571zM17.917 13.165c-.488 0-.91-.107-1.269-.321a2.186 2.186 0 0 1-.832-.901c-.195-.386-.292-.837-.292-1.353 0-.515.097-.967.292-1.355.197-.388.475-.69.832-.904.358-.215.78-.322 1.269-.322.487 0 .91.107 1.268.322.357.214.634.516.829.904.197.388.296.84.296 1.355 0 .516-.1.967-.296 1.353a2.165 2.165 0 0 1-.83.9c-.357.215-.78.322-1.267.322zm.006-.942c.265 0 .486-.073.663-.218.178-.148.31-.345.397-.592.089-.247.133-.522.133-.826 0-.305-.044-.582-.133-.829a1.311 1.311 0 0 0-.397-.595 1.004 1.004 0 0 0-.663-.221c-.27 0-.496.074-.676.221a1.334 1.334 0 0 0-.4.595c-.087.247-.13.524-.13.83 0 .303.043.578.13.825.089.247.222.444.4.592.18.145.405.218.676.218zM22.485 10.142v2.926H21.31V8.074h1.124v.848h.059c.115-.28.298-.501.55-.666.253-.165.566-.247.94-.247.344 0 .644.074.9.22.258.148.457.362.598.641.143.28.214.62.211 1.018v3.18h-1.177V10.07c0-.334-.086-.595-.26-.783-.171-.189-.408-.283-.712-.283-.206 0-.389.045-.55.136a.946.946 0 0 0-.373.387c-.089.17-.134.374-.134.615zM29.099 13.165c-.5 0-.933-.103-1.297-.312a2.114 2.114 0 0 1-.836-.89c-.195-.386-.293-.84-.293-1.363 0-.514.098-.964.293-1.352.197-.39.473-.694.826-.91.353-.22.768-.33 1.245-.33.308 0 .598.05.871.15.276.098.518.25.729.456.212.206.379.468.5.786.122.317.183.694.183 1.132v.36h-4.094V10.1h2.965a1.267 1.267 0 0 0-.146-.602 1.064 1.064 0 0 0-.4-.42 1.125 1.125 0 0 0-.592-.152c-.24 0-.452.058-.634.175a1.209 1.209 0 0 0-.426.455c-.1.187-.15.392-.152.615v.693c0 .29.053.54.159.747.106.206.255.364.445.475.191.108.414.163.67.163.171 0 .326-.024.465-.072.139-.05.259-.122.36-.218a.908.908 0 0 0 .232-.354l1.099.123c-.07.29-.202.545-.397.761-.193.215-.44.382-.741.5a2.84 2.84 0 0 1-1.034.176z" fill="#158A02"/>
</svg>
