<svg width="275" height="148" viewBox="0 0 275 148" fill="none" xmlns="http://www.w3.org/2000/svg">
    <g clip-path="url(#ksaosb8qca)">
        <rect width="275" height="148" rx="8" fill="#A0D597"/>
        <g clip-path="url(#9o2pqanhhb)">
            <path d="m177.334 79.256-20.349-7.695a2.723 2.723 0 0 1-1.584-3.509l10.653-28.166a2.722 2.722 0 0 1 3.509-1.584l12.905 4.88 6.098 14.075-7.721 20.416a2.722 2.722 0 0 1-3.509 1.583h-.002z" fill="#F5F5F5"/>
            <path d="m182.468 43.182-2.997 7.927a2.53 2.53 0 0 0 1.472 3.263l7.622 2.885-6.097-14.075z" fill="#EBEBEB"/>
            <path d="M179.309 51.843s-.828 1.885 1.123 3.343c.072.056.151.104.229.151.929.554 7.04 4.198 7.096 4.047l.806-2.13-7.622-2.882s-1.878-.783-1.632-2.53zM177.885 50.141c-.039.1-2.177-.613-4.776-1.595-2.6-.982-4.676-1.864-4.637-1.964.039-.101 2.177.612 4.777 1.595 2.599.982 4.676 1.863 4.636 1.964zM182.269 56.921c-.039.1-3.54-1.128-7.818-2.745-4.278-1.617-7.717-3.014-7.678-3.114.039-.101 3.537 1.127 7.818 2.745 4.278 1.617 7.715 3.013 7.678 3.114zM182.25 61.191c-.04.101-3.851-1.245-8.515-3.008-4.665-1.765-8.414-3.276-8.375-3.377.039-.1 3.85 1.245 8.515 3.01 4.664 1.764 8.414 3.277 8.375 3.378v-.003zM180.916 64.723c-.04.1-3.851-1.246-8.515-3.008-4.665-1.763-8.414-3.277-8.375-3.378.039-.1 3.85 1.245 8.515 3.011 4.664 1.763 8.414 3.277 8.375 3.377v-.002zM179.581 68.254c-.04.1-3.851-1.245-8.515-3.008-4.665-1.766-8.414-3.277-8.375-3.378.039-.1 3.85 1.245 8.515 3.011 4.664 1.763 8.414 3.277 8.375 3.378v-.003zM178.246 71.785c-.039.101-3.851-1.245-8.515-3.008-4.665-1.763-8.414-3.276-8.375-3.377.039-.1 3.85 1.245 8.515 3.01 4.664 1.764 8.414 3.277 8.375 3.378v-.003z" fill="#E0E0E0"/>
            <path d="m109.48 50.01-26.83 9.396a1.78 1.78 0 0 0-1.091 2.268l13.461 38.439a1.78 1.78 0 0 0 2.268 1.091l26.829-9.395a1.78 1.78 0 0 0 1.092-2.268L111.747 51.1a1.779 1.779 0 0 0-2.267-1.09z" fill="#EBEBEB"/>
            <path d="M109.824 52.403 83.871 61.49l13.342 38.098 25.952-9.088-13.341-38.099z" fill="#E0E0E0"/>
            <path d="M109.363 52.22 83.41 61.31 96.498 98.68l25.952-9.089-13.087-37.372z" fill="#FAFAFA"/>
            <path d="M122.444 89.596c-.109-.314-5.378-15.315-13.12-37.36l.047.023c-7.871 2.757-16.677 5.843-25.947 9.089h-.003l.025-.05C88.337 75.335 92.89 88.3 96.525 98.67l-.042-.02 25.961-9.057c-.254.09-10.168 3.573-25.939 9.12l-.03.01-.012-.03-13.093-37.37-.014-.04.04-.014h.002c9.27-3.245 18.08-6.33 25.951-9.082l.036-.012.011.037 13.051 37.384h-.003z" fill="#E0E0E0"/>
            <path d="M113.241 92.819s5.778-4.874 6.78-9.95c0 0-1.603 2.515-4.942 2.974 0 0-.114 5.33-1.841 6.976h.003z" fill="#E0E0E0"/>
            <path d="m92.28 69.636-1.366.478a.957.957 0 0 0-.587 1.22l.478 1.365a.957.957 0 0 0 1.22.587l1.365-.478a.957.957 0 0 0 .587-1.22l-.478-1.365a.957.957 0 0 0-1.22-.587z" fill="#EBEBEB"/>
            <path d="M92.112 71.99a.068.068 0 0 1-.062-.006l-.626-.364a.078.078 0 0 1-.029-.106.078.078 0 0 1 .107-.028l.551.319.66-1.414a.076.076 0 0 1 .104-.036c.04.02.056.064.036.104l-.696 1.491a.082.082 0 0 1-.045.042v-.003z" fill="#fff"/>
            <path d="M110.032 63.855c.009.022-3.363 1.22-7.527 2.678-4.166 1.458-7.546 2.625-7.555 2.602-.008-.022 3.364-1.22 7.527-2.678 4.164-1.458 7.547-2.622 7.553-2.602h.002zM102.119 69.23s-.084.042-.244.104l-.677.252c-.574.207-1.366.49-2.241.797-.88.308-1.674.582-2.25.775l-.686.227c-.162.05-.252.078-.254.073 0-.006.084-.042.243-.104l.677-.252a257.255 257.255 0 0 1 4.494-1.572l.686-.227c.162-.05.252-.078.254-.073h-.002zM110.393 64.882c.008.022-3.364 1.22-7.527 2.678-4.167 1.458-7.547 2.624-7.555 2.602-.009-.022 3.363-1.22 7.527-2.678 4.163-1.458 7.546-2.622 7.552-2.602h.003z" fill="#E0E0E0"/>
            <path d="m94.228 75.204-1.365.478a.957.957 0 0 0-.587 1.22l.478 1.365a.957.957 0 0 0 1.22.587l1.365-.478a.957.957 0 0 0 .587-1.22l-.478-1.365a.957.957 0 0 0-1.22-.587z" fill="#EBEBEB"/>
            <path d="M94.063 77.558a.068.068 0 0 1-.062-.006l-.626-.364a.078.078 0 0 1-.028-.106c.022-.036.07-.05.106-.028l.551.319.66-1.413a.076.076 0 0 1 .104-.036c.04.02.056.064.037.103l-.697 1.492a.083.083 0 0 1-.045.041v-.002z" fill="#fff"/>
            <path d="M111.983 69.423c.008.023-3.364 1.22-7.527 2.678-4.167 1.458-7.547 2.625-7.556 2.603-.008-.023 3.364-1.22 7.528-2.678 4.163-1.458 7.546-2.622 7.552-2.603h.003zM104.069 74.799s-.084.041-.244.103l-.677.252c-.574.207-1.365.49-2.241.797-.879.308-1.674.582-2.25.776l-.686.226c-.162.05-.251.078-.254.073 0-.006.084-.042.243-.104l.677-.251a254.451 254.451 0 0 1 4.494-1.573l.686-.227a1.77 1.77 0 0 1 .255-.072h-.003zM112.343 70.45c.008.023-3.363 1.22-7.527 2.678-4.167 1.458-7.547 2.625-7.555 2.602-.009-.022 3.363-1.22 7.527-2.678 4.164-1.457 7.547-2.621 7.552-2.602h.003z" fill="#E0E0E0"/>
            <path d="m96.18 80.772-1.366.478a.957.957 0 0 0-.587 1.22l.479 1.365a.957.957 0 0 0 1.22.587l1.364-.478a.957.957 0 0 0 .587-1.22l-.478-1.365a.957.957 0 0 0-1.22-.587z" fill="#EBEBEB"/>
            <path d="M96.012 83.126a.068.068 0 0 1-.061-.006l-.627-.363a.078.078 0 0 1-.028-.107.078.078 0 0 1 .106-.028l.552.32.66-1.414a.077.077 0 0 1 .103-.036c.04.02.056.064.037.103l-.697 1.492a.082.082 0 0 1-.045.042v-.003z" fill="#fff"/>
            <path d="M113.932 74.992c.008.022-3.364 1.22-7.527 2.678-4.167 1.457-7.547 2.624-7.555 2.602-.009-.023 3.363-1.22 7.527-2.678 4.163-1.458 7.547-2.622 7.552-2.602h.003zM106.019 80.367s-.084.042-.244.103l-.677.252c-.573.207-1.365.49-2.241.798-.879.308-1.673.582-2.25.775l-.685.227c-.163.05-.252.078-.255.072 0-.005.084-.042.243-.103l.678-.252a246.674 246.674 0 0 1 4.494-1.573l.685-.226c.162-.05.252-.079.255-.073h-.003zM114.293 76.019c.009.022-3.363 1.22-7.527 2.677-4.166 1.458-7.547 2.625-7.555 2.603-.008-.023 3.363-1.22 7.527-2.678s7.547-2.622 7.552-2.602h.003z" fill="#E0E0E0"/>
            <path d="m98.129 86.343-1.365.478a.957.957 0 0 0-.587 1.22l.478 1.365a.957.957 0 0 0 1.22.586l1.365-.478a.957.957 0 0 0 .587-1.22l-.479-1.365a.957.957 0 0 0-1.22-.587z" fill="#EBEBEB"/>
            <path d="M97.96 88.695a.068.068 0 0 1-.061-.006l-.627-.364a.078.078 0 0 1-.028-.106.078.078 0 0 1 .106-.028l.552.319.66-1.413a.077.077 0 0 1 .104-.036c.039.019.056.064.036.103l-.697 1.491a.082.082 0 0 1-.044.042v-.002z" fill="#fff"/>
            <path d="M115.882 80.557c.008.023-3.363 1.22-7.527 2.678-4.167 1.458-7.547 2.625-7.555 2.603-.009-.023 3.363-1.22 7.527-2.678s7.547-2.622 7.552-2.603h.003zM107.969 85.936s-.084.041-.243.103l-.678.252c-.573.207-1.365.49-2.241.797-.879.308-1.673.582-2.25.776l-.685.226a1.78 1.78 0 0 1-.255.073c0-.006.084-.042.244-.104l.677-.251a246.674 246.674 0 0 1 4.494-1.573l.685-.227c.163-.05.252-.078.255-.072h-.003zM116.243 81.587c.009.022-3.363 1.22-7.527 2.678-4.166 1.458-7.546 2.625-7.555 2.602-.008-.022 3.364-1.22 7.527-2.678 4.164-1.457 7.547-2.621 7.553-2.602h.002zM86.348 57.671l.685 1.956a2.177 2.177 0 0 0 2.776 1.335l14.355-5.026a2.177 2.177 0 0 0 1.335-2.776l-.683-1.953-18.466 6.461-.002.003z" fill="#E0E0E0"/>
            <path d="M95.772 55.018a2.044 2.044 0 0 1-2.603-1.253 2.045 2.045 0 0 1 1.254-2.603 2.044 2.044 0 0 1 2.602 1.254 2.044 2.044 0 0 1-1.253 2.602zm-1.092-3.114a1.26 1.26 0 0 0-.772 1.603 1.26 1.26 0 0 0 1.604.773 1.26 1.26 0 0 0 .772-1.604 1.26 1.26 0 0 0-1.604-.772zM107.244 60.094c.014.037-3.772 1.397-8.453 3.036-4.681 1.64-8.487 2.938-8.5 2.902-.015-.036 3.771-1.396 8.452-3.036 4.682-1.64 8.487-2.938 8.501-2.902zM102.398 60.788c.014.037-1.654.655-3.721 1.38-2.068.725-3.756 1.281-3.77 1.245-.014-.036 1.654-.655 3.722-1.38 2.068-.724 3.755-1.281 3.769-1.245z" fill="#E0E0E0"/>
            <path d="M176.97 117.491c1.005-.518 2.188-.585 3.305-.4.599.098 1.225.277 1.631.727.409.451.484 1.243.017 1.629-.28.229-.669.266-1.03.26-.873-.011-1.841-.165-2.541.361-.397.299-.663.798-1.138.946-.465.145-.991-.132-1.237-.551-.246-.42-.255-.946-.14-1.419 0 0 .12-1.033 1.133-1.556v.003zM174.67 113.045c.616.878 1.808.587 2.362.05.554-.534.789-1.312 1.001-2.054.487-1.693.977-3.467.616-5.191-.109-.514-.302-1.029-.663-1.41-.361-.383-.918-.61-1.427-.476-.602.16-.977.75-1.248 1.31a12.366 12.366 0 0 0-1.223 5.308c-.003.856.098 1.752.579 2.457M172.98 114.304c.666-.792.795-1.948.498-2.938-.296-.994-.968-1.836-1.74-2.524a9.375 9.375 0 0 0-3.117-1.839c-.451-.159-.927-.282-1.402-.238-.476.045-.954.289-1.176.711-.327.627-.014 1.385.328 2.004a23.484 23.484 0 0 0 2.048 3.117c.613.792 1.315 1.572 2.253 1.928.937.355 1.905.316 2.403-.333" fill="#FF725E"/>
            <path d="M174.628 126.286s.031-.143.056-.4l.107-1.089c.05-.459.117-1.002.243-1.598.126-.593.325-1.234.579-1.883.263-.646.585-1.234.963-1.704.372-.473.809-.814 1.217-1.01a3.36 3.36 0 0 1 1.024-.319c.255-.025.398-.048.398-.059 0-.011-.143-.014-.403-.005a3.097 3.097 0 0 0-1.069.277c-.431.19-.893.537-1.285 1.021-.394.481-.727 1.08-.996 1.74-.26.664-.456 1.31-.576 1.914a13.683 13.683 0 0 0-.213 1.618c-.033.461-.047.836-.053 1.094-.006.257-.003.403.008.403z" fill="#263238"/>
            <path d="M174.701 125.446s.009-.064.012-.185v-.528c0-.459 0-1.125.022-1.945.042-1.643.182-3.408.456-5.899.258-2.342.604-5.067.971-6.839.078-.402.157-.766.232-1.082.07-.319.132-.594.191-.815.05-.21.092-.38.123-.515.025-.117.039-.181.033-.181a.807.807 0 0 0-.064.173c-.039.134-.092.302-.154.507a20.64 20.64 0 0 0-.218.808c-.084.316-.171.677-.258 1.08-.361 1.606-.747 3.851-1.021 6.347-.274 2.496-.397 4.768-.409 6.413-.008.823.009 1.489.028 1.948l.034.528a.786.786 0 0 0 .022.185z" fill="#263238"/>
            <path d="M174.712 121.064s.008-.196-.003-.554c-.02-.355-.07-.867-.168-1.497a19.928 19.928 0 0 0-.487-2.183c-.101-.369-.338-1.256-.912-2.582-.756-1.797-1.785-3.263-2.681-4.172-.21-.241-.442-.415-.629-.585-.098-.081-.182-.163-.269-.227a20.726 20.726 0 0 0-.243-.168c-.294-.201-.459-.308-.465-.296-.025.036.661.439 1.525 1.36.862.92 1.861 2.378 2.614 4.158.419.965.71 1.827.918 2.557.24.803.397 1.539.517 2.16.115.624.179 1.131.221 1.483.034.353.056.549.067.549l-.005-.003zM170.479 128.796l.436 6.016h7.731l.44-6.016h-8.607zM180.009 126.423h-10.278v2.373h10.278v-2.373z" fill="#263238"/>
            <path d="M169.731 134.582v.658H179.839v-.658h-10.108zM170.686 136.396l-.473-1.156h9.256l-.551 1.156h-8.232z" fill="#455A64"/>
            <path d="M178.94 130.763s-.011.019-.036.056c-.031.042-.07.092-.115.154l-.45.576-.02.025-.019-.028-1.106-1.53h.065l-1.089 1.541-.033.048-.04-.045-1.292-1.536h.075l-.07.089-1.155 1.447-.04.048-.036-.051-1.088-1.541h.064c-.537.615-.993 1.133-1.343 1.53l-.025.028-.017-.031-.42-.705-.109-.187a2.385 2.385 0 0 1-.034-.067s.017.019.045.058l.121.182.442.694h-.042c.344-.406.792-.932 1.32-1.55l.034-.039.031.042c.333.467.705.982 1.099 1.536h-.072c.366-.462.752-.949 1.153-1.452l.07-.09.036-.045.039.045c.453.54.887 1.061 1.287 1.539h-.073c.398-.551.767-1.069 1.1-1.53l.034-.045.031.045c.436.621.805 1.15 1.082 1.547h-.039c.199-.238.356-.425.468-.562l.125-.146a.192.192 0 0 1 .048-.048l-.006-.002z" fill="#E0E0E0"/>
            <path d="M179.192 128.757c0 .028-1.936.047-4.326.047-2.39 0-4.326-.022-4.326-.047 0-.026 1.936-.048 4.326-.048 2.39 0 4.326.022 4.326.048z" fill="#455A64"/>
            <path d="M179.584 135.304c0 .025-2.105.048-4.701.048-2.597 0-4.701-.023-4.701-.048s2.104-.047 4.701-.047c2.596 0 4.701.022 4.701.047zM103.336 116.109c-.022.025-.199-.079-.394-.238-.196-.157-.339-.305-.317-.333.023-.025.199.078.395.238.196.156.338.305.316.333z" fill="#263238"/>
            <path d="M108.697 108.097c.034-.749.053-1.516-.182-2.227-.235-.711-.783-1.365-1.519-1.516-.837-.174-1.696.355-2.166 1.068-.47.714-.63 1.584-.769 2.426a85.718 85.718 0 0 0-1.05 17.615l3.428.481c1.505-6.15 1.984-11.523 2.258-17.849v.002z" fill="#455A64"/>
            <path d="M106.52 104.325s-.003.02-.017.056l-.056.157-.229.593c-.048.129-.112.269-.162.428l-.165.518c-.059.188-.124.386-.193.596l-.177.68c-.257.949-.473 2.104-.663 3.392-.185 1.289-.308 2.717-.403 4.216-.176 3.003-.201 5.728-.28 7.698-.036.985-.07 1.783-.109 2.334-.017.266-.033.478-.042.632l-.014.165c-.003.037-.005.056-.008.056 0 0-.003-.019-.003-.056v-.165c.006-.156.011-.366.02-.635.022-.551.044-1.349.07-2.334.056-1.97.07-4.695.243-7.703.095-1.503.221-2.933.414-4.225.196-1.29.42-2.446.691-3.397l.185-.68c.07-.21.14-.409.201-.596.065-.185.124-.358.177-.518.053-.159.12-.297.173-.425.107-.247.19-.442.249-.585.028-.062.051-.109.067-.151a.272.272 0 0 1 .028-.051h.003zM106.837 104.328s.209.216.419.708c.216.49.35 1.268.314 2.216a266.717 266.717 0 0 1-.487 7.385 274.428 274.428 0 0 1-.68 7.368c-.101.94-.188 1.701-.252 2.227-.034.255-.059.456-.078.604l-.023.157a.302.302 0 0 1-.011.053v-.053l.011-.159c.014-.149.031-.353.056-.608l.216-2.233a451.341 451.341 0 0 0 1.164-14.746c.047-.943-.07-1.707-.272-2.197-.193-.492-.389-.719-.375-.727l-.002.005zM109.212 113.196c-.011.03-.302-.042-.649-.168-.347-.126-.619-.252-.608-.283.012-.031.303.045.65.168.347.126.618.252.607.283zM109.627 109.704c.014.03-.263.184-.619.344-.355.159-.655.263-.669.232-.014-.031.263-.185.619-.344.355-.16.655-.263.669-.232zM109.41 106.855c0 .034-.232.045-.512.025-.28-.019-.503-.061-.503-.095s.232-.045.512-.025c.279.019.503.061.503.095zM105.873 105.028c-.028.017-.179-.168-.335-.417-.157-.249-.261-.465-.233-.484.028-.017.179.168.336.417.157.249.26.464.232.484zM104.707 106.752c0 .033-.218.056-.487.05-.268-.006-.484-.036-.484-.073 0-.033.219-.056.487-.05.269.005.484.036.484.073zM103.867 110.199c-.013.031-.24-.031-.512-.14-.271-.109-.478-.224-.467-.255.014-.03.241.031.512.14.272.109.479.224.467.255zM103.778 113.101c.006.033-.187.1-.436.154-.249.053-.454.067-.462.033-.006-.033.187-.101.437-.154.249-.053.453-.067.461-.033zM103.383 117.844c.006.033-.201.098-.461.145-.263.048-.479.059-.484.025-.006-.033.201-.098.461-.145.261-.048.479-.059.484-.025zM103.12 120.463c.017.03-.156.151-.386.274-.229.12-.428.196-.442.165-.017-.031.157-.151.386-.274.23-.121.428-.196.442-.165zM105.258 123.434c-.028.017-.179-.19-.336-.464-.156-.274-.26-.509-.229-.526.028-.017.179.19.336.464.156.275.26.51.229.526zM105.877 118.495c.022.026-.143.227-.375.454-.23.226-.437.389-.462.366-.022-.025.143-.226.375-.453.23-.227.437-.389.462-.367z" fill="#263238"/>
            <path d="M105.74 115.904c-.025.023-.179-.103-.347-.285-.168-.182-.283-.344-.258-.369.025-.023.179.103.347.285.168.179.283.344.258.369zM106.165 112.591c.025.023-.115.222-.314.44-.198.221-.378.38-.403.358-.025-.022.115-.221.314-.439.198-.221.377-.381.403-.359zM106.402 110.191c-.022.025-.218-.129-.436-.342-.219-.213-.375-.406-.35-.431.022-.025.218.129.436.342.219.212.375.405.35.431zM106.873 106.942c.028.017-.07.235-.218.487-.152.252-.294.442-.325.422-.028-.017.07-.235.218-.487.151-.251.294-.442.325-.422zM107.754 103.931c.031.017-.056.235-.193.487s-.271.445-.302.428c-.031-.017.056-.235.193-.487s.272-.445.302-.428zM108.756 105.299c.014.031-.123.126-.305.216-.185.086-.344.134-.358.103-.014-.031.123-.126.305-.215.184-.087.344-.135.358-.104zM108.781 116.109c-.006.03-.316-.012-.672-.163-.352-.151-.599-.344-.582-.372.02-.031.288.115.63.26.341.146.629.241.621.275h.003zM108.37 118.4c.005.034-.199.101-.462.151-.26.051-.478.065-.484.031-.006-.033.199-.1.462-.151.26-.05.478-.064.484-.031zM107.869 122.326c-.02.026-.283-.154-.521-.459-.241-.302-.355-.598-.327-.612.031-.017.19.243.422.537.23.294.448.506.426.534zM102.36 124.123c-.023-.026.117-.182.31-.347.193-.165.37-.28.392-.255.023.025-.117.182-.31.347-.194.165-.37.28-.392.255z" fill="#263238"/>
            <path d="M100.775 115.552c-.224-.697-.641-1.509-1.374-1.52-.434-.005-.825.305-1.027.689a2.524 2.524 0 0 0-.277 1.262c.084 2.865.58 6.142 1.573 9.127h2.675c-.034-3.316-.557-6.399-1.567-9.555l-.003-.003zM95.937 111.167c-.375-1.497-1.489-2.303-2.784-2.378-1.184.207-1.643 1.371-1.783 2.563-.14 1.192.23 2.378.596 3.523l3.523 11.016c1.108-.12 2.22-.243 3.327-.364-1.052-4.919-1.66-9.48-2.88-14.36z" fill="#455A64"/>
            <path d="M99.404 114.032s-.11.121-.227.378c-.115.26-.17.674-.126 1.184.053.509.11 1.122.196 1.791.087.671.207 1.407.358 2.177.302 1.536.644 2.915.859 3.92.109.504.193.909.244 1.192.022.131.042.238.056.327.011.076.017.115.011.115-.006 0-.017-.036-.036-.109-.023-.087-.048-.193-.079-.322-.07-.299-.165-.697-.282-1.184-.238-.999-.594-2.375-.896-3.917a30.228 30.228 0 0 1-.35-2.185c-.042-.339-.07-.661-.098-.963-.025-.299-.056-.579-.072-.839-.037-.515.033-.946.168-1.209.134-.261.268-.358.268-.358l.006.002zM93.2 108.693s-.176.168-.403.541c-.224.366-.461.965-.506 1.74-.05.775.123 1.693.411 2.681l.949 3.218 1.704 5.856c.21.742.38 1.346.504 1.78.053.201.098.364.131.484a.804.804 0 0 1 .037.171c-.003 0-.026-.056-.062-.165-.04-.121-.09-.28-.154-.479-.132-.431-.316-1.03-.54-1.768l-1.738-5.846c-.333-1.141-.652-2.23-.94-3.223-.285-.991-.453-1.928-.389-2.717.056-.789.31-1.397.551-1.76.241-.37.443-.515.443-.515l.002.002z" fill="#263238"/>
            <path d="M98.089 125.172s-.031-.053-.076-.16c-.044-.106-.115-.263-.19-.467-.16-.408-.361-1.01-.574-1.768a36.276 36.276 0 0 1-.62-2.684c-.194-1.018-.407-2.138-.628-3.31a34.842 34.842 0 0 0-.789-3.271c-.3-.991-.632-1.861-.97-2.563a13.853 13.853 0 0 0-.899-1.618c-.115-.187-.218-.321-.28-.419a.893.893 0 0 1-.092-.152c.003 0 .042.045.112.135.067.092.179.224.3.406.254.358.587.901.934 1.606.35.705.694 1.575.999 2.568.308.994.568 2.105.8 3.28.218 1.175.428 2.294.618 3.313.196 1.016.392 1.928.594 2.683.198.756.389 1.36.534 1.775.067.207.132.366.168.475.04.109.056.168.053.168l.006.003zM92.025 114.326c.009.034-.173.107-.406.163-.232.056-.425.075-.433.042-.009-.034.173-.107.406-.163.232-.056.425-.075.433-.042zM91.673 112.054c0 .034-.255.048-.563.062-.308.011-.56.016-.565-.017-.006-.034.246-.095.56-.106.313-.014.568.027.565.061h.003zM92.047 109.981c-.022.025-.201-.093-.403-.263-.201-.171-.347-.331-.324-.356.022-.025.201.093.403.263.201.171.347.331.324.356zM93.064 108.058c.033.009.025.171.02.364-.007.196-.007.358-.04.364-.034.005-.09-.157-.081-.367.005-.21.07-.369.103-.361h-.002zM95.137 108.965c.028.019-.053.184-.182.366s-.254.317-.282.297c-.029-.02.053-.185.181-.367.13-.181.255-.316.283-.296zM96.486 111.304c.014.031-.16.132-.386.224-.227.092-.42.14-.431.109-.014-.031.16-.131.386-.224.227-.092.42-.14.43-.109zM97.3 113.711c.014.03-.216.159-.53.229-.313.073-.573.053-.576.02 0-.034.25-.07.549-.14.3-.067.54-.143.554-.112l.003.003zM93.55 113.028c-.034-.011-.008-.176.053-.372.062-.196.137-.344.168-.336.034.011.009.176-.053.372s-.137.344-.168.336zM94.074 116.047c-.03-.014.036-.238.151-.501.115-.263.232-.464.263-.45.03.014-.036.237-.151.501-.115.263-.232.464-.263.45zM92.78 116.875c-.013.031-.223-.025-.478-.106-.254-.081-.462-.154-.453-.188.005-.033.23-.011.49.07.26.082.456.191.442.221v.003zM93.528 119.338c.02.028-.123.162-.319.302-.196.14-.37.23-.389.202-.02-.028.123-.163.32-.303.195-.14.368-.229.388-.201zM94.124 121.795c.008.033-.168.103-.394.159-.227.056-.415.073-.423.039-.008-.033.168-.103.394-.159.227-.056.415-.073.423-.039zM97.367 115.762c.017.028-.134.148-.352.232-.219.084-.412.092-.417.059-.006-.034.165-.096.375-.174.21-.078.38-.145.397-.117h-.003zM97.832 119.584c-.014.031-.193-.022-.4-.12-.207-.098-.364-.202-.35-.233.014-.03.193.023.4.121.207.098.364.201.35.232zM98.648 122.318c-.01.031-.249-.031-.528-.143-.28-.109-.499-.224-.485-.255.012-.03.25.031.53.143.28.109.497.224.483.255zM94.256 124.459c-.017-.031.201-.177.453-.378.252-.199.448-.375.473-.353.025.023-.134.244-.397.448-.263.207-.515.311-.53.28v.003zM96.418 123.07c-.033.003-.08-.179-.165-.394-.08-.216-.17-.381-.142-.403.025-.02.168.126.257.358.09.23.084.434.05.437v.002zM95.845 119.78c-.02.028-.16-.039-.311-.148-.154-.11-.26-.221-.24-.249.019-.028.159.039.31.148.154.109.26.221.24.249zM100.884 114.628c.019.028-.115.163-.305.3-.188.14-.355.229-.378.201-.019-.028.115-.162.305-.299.188-.14.355-.23.378-.202zM101.642 116.705c.003.033-.21.078-.473.047-.263-.028-.461-.117-.453-.148.011-.034.216 0 .465.028.251.028.458.039.458.073h.003zM98.38 117.169c.008.034-.19.104-.445.12-.255.017-.46-.025-.457-.058 0-.034.205-.045.448-.062.244-.017.445-.031.454 0zM98.66 115.205c0 .034-.201.036-.42-.064-.218-.101-.344-.255-.321-.277.022-.026.173.075.372.165.198.092.372.14.37.173v.003zM101.922 118.932c-.017.028-.221-.067-.456-.216-.235-.148-.408-.288-.392-.319.017-.028.221.068.456.216.236.148.409.288.392.319z" fill="#263238"/>
            <path d="M109.889 124.761h-17.42v3.086h17.42v-3.086z" fill="#FF725E"/>
            <path d="m93.772 127.234 2.118 9.226h10.381l2.32-9.226h-14.82z" fill="#FF725E"/>
            <path d="M109.88 127.85c0 .033-3.928.061-8.775.061-4.846 0-8.775-.028-8.775-.061 0-.034 3.929-.062 8.775-.062 4.847 0 8.775.028 8.775.062zM100.193 117.236c-.028.017-.148-.12-.266-.31-.118-.191-.19-.359-.162-.375.028-.017.148.12.266.31.117.191.19.358.162.375zM100.199 119.721c-.031-.011.008-.221.092-.47.081-.249.177-.442.207-.431.031.011-.008.221-.092.47-.081.249-.176.442-.207.431zM101.05 122.329c-.031.014-.16-.193-.291-.464-.129-.272-.21-.504-.179-.518.031-.014.159.193.291.464.128.272.21.504.179.518zM99.21 124.428c-.024-.023.08-.185.233-.361.154-.176.3-.302.325-.28.025.022-.079.185-.233.361-.153.176-.299.302-.324.28zM98.825 120.617c-.005.033-.173.03-.375-.003-.201-.037-.358-.093-.352-.123.005-.034.173-.031.375.002.201.037.358.093.352.124z" fill="#263238"/>
            <path d="M159.425 103.542h-41.307v32.94h41.307v-32.94z" fill="#E0E0E0"/>
            <path d="M121.126 103.612c4.863 1.735 10.227 2.104 15.446 2.202 1.08.02 2.174.02 3.221.291 1.046.272 2.059.859 2.596 1.797.585 1.021.524 2.3.191 3.427-.333 1.128-.907 2.169-1.324 3.271a12.218 12.218 0 0 0-.652 6.092c.129.868.361 1.741.862 2.463.501.719 1.309 1.267 2.188 1.281 1.57.022 2.644-1.519 3.422-2.885 3.193-5.593 6.646-11.951 8.689-18.057l-34.642.115.003.003z" fill="#000" opacity=".3"/>
            <path d="M132.193 136.306c-.039 0-.073-7.3-.073-16.305 0-9.005.034-16.308.073-16.308.039 0 .073 7.301.073 16.308s-.034 16.305-.073 16.305z" fill="#455A64"/>
            <path d="M149.119 79.198c-.123-.82-2.577-3.537-2.577-3.537s-1.229-4.928-1.595-6.38c-.092-.364-.288-.775-.535-1.19-.856-1.452-2.112-2.63-3.584-3.458l-3.397-1.911-.814-1.808-8.163-4.194-2.213 3.906s-5.375 1.71-6.086 2.93c-.711 1.22.352 17.572.352 17.572s-2.249 9.436-2.725 11.39c-.473 1.952.154 4.28.154 4.28l4.004-5.025c1.245-1.562 3.976-2.278 5.938-2.25l16.764.073-.666-4.696 13.554 2.636s2.334-4.547 2.516-4.64c.185-.091-10.924-3.698-10.924-3.698h-.003z" fill="#FF725E"/>
            <path d="M128.105 62.16c-.118-.12.948 3.478 2.283 7.14a18.039 18.039 0 0 1 1.08 6.176V88.74l8.039-.546-1.2-8.736s-.98-5.636-1.254-7.78c-.252-1.96-1.113-7.283-1.113-7.283s-4.469 1.198-7.833-2.23l-.002-.006z" fill="#fff"/>
            <path d="M145.941 82.494s-.012-.073 0-.201a2.86 2.86 0 0 1 .106-.54c.123-.448.411-1.05.918-1.56a3.686 3.686 0 0 1 1.558-.923c.224-.064.412-.095.54-.106.129-.011.202-.008.202 0 .003.025-.283.056-.711.204a3.928 3.928 0 0 0-1.486.927 3.97 3.97 0 0 0-.923 1.488c-.149.431-.179.714-.204.711zM146.355 79.312c-.017-.03.509-.299 1.228-.355.717-.061 1.282.115 1.268.151-.009.045-.568-.064-1.257-.005-.688.053-1.222.251-1.239.21z" fill="#263238"/>
            <path d="m119.696 86.548-.697.792c.747.87 1.718 1.598 2.832 1.872 1.113.275 2.269.305 3.416.31.465 0 .935-.002 1.383-.13.453-.132.878-.39 1.351-.418.316-.02.627.067.938.135.31.067.638.112.94.014.302-.098.565-.378.545-.694a49.519 49.519 0 0 0-10.708-1.88z" fill="#000" opacity=".3"/>
            <path d="m142.641 87.564-1.973-2.096-4.057-1.027s-3.719 1.114-3.806 1.111c-.089-.003-3.235-.859-3.235-.859l-1.099 4.032 5.666.39 6.469-.26s.339-.314.138-.53c-.199-.215 1.082.364 1.234.37.148.005.445.123.643-.118.137-.165.322-.694.02-1.013z" fill="#FFBE9D"/>
            <path d="M140.747 88.325c-.008.02-.252-.058-.644-.184a28.596 28.596 0 0 0-1.544-.448 30.077 30.077 0 0 0-1.57-.353c-.406-.08-.655-.131-.652-.15 0-.02.26-.006.669.05.411.056.976.156 1.589.313s1.159.341 1.545.493c.386.15.618.263.61.28h-.003zM142.641 87.564c-.008.02-.347-.106-.901-.29a45.57 45.57 0 0 0-2.182-.656c-.856-.254-1.62-.509-2.2-.542-.576-.048-.929.064-.934.036 0-.008.081-.042.243-.081.16-.04.4-.067.697-.059.599.008 1.385.255 2.233.506.859.241 1.631.485 2.177.697.274.104.492.199.641.266.148.067.229.112.224.12l.002.003z" fill="#EB996E"/>
            <path d="M120.152 63.553s-2.924 2.034-3.635 4.961c-.71 2.93-3.794 14.887-3.162 16.677.633 1.791 12.931 3.546 12.931 3.546l1.458-6.148-6.246-1.71s.079-5.694.157-8.053c.078-2.359-1.503-9.273-1.503-9.273z" fill="#FF725E"/>
            <path d="m127.66 83.507 2.012.495-1.209 4.642-1.979-.319 1.176-4.818z" fill="#fff"/>
            <path d="M113.307 84.562s-.005.103.031.29c.039.185.16.454.428.698.535.498 1.556.912 2.849 1.144h.008c.591.196 1.265.35 1.987.515.722.162 1.497.327 2.314.492 1.637.336 3.448.686 5.364 1.047l-.084.053c.14-.57.286-1.172.434-1.785l.996-4.074.051.084-5.549-1.584h-.006c-.848-.35-1.69-.476-2.42-.425a5.367 5.367 0 0 0-1.827.428 6.14 6.14 0 0 0-1.05.582l-.254.184a.542.542 0 0 1-.09.06s.025-.029.078-.074c.056-.044.135-.114.247-.198a5.624 5.624 0 0 1 1.043-.613c.479-.21 1.1-.42 1.847-.462.742-.059 1.604.062 2.471.409h-.006c1.604.447 3.49.976 5.558 1.555l.064.02-.017.067a2099.3 2099.3 0 0 0-.99 4.074l-.437 1.786-.017.067-.067-.014c-1.919-.361-3.73-.72-5.364-1.06-.817-.171-1.592-.342-2.314-.507-.722-.168-1.391-.328-1.992-.532h.008c-1.31-.246-2.331-.677-2.871-1.2a1.372 1.372 0 0 1-.42-.733c-.028-.193 0-.294 0-.294h-.003z" fill="#263238"/>
            <path d="M121.834 81.29c-.017.02-.227-.173-.602-.425a5.892 5.892 0 0 0-1.586-.741 5.909 5.909 0 0 0-1.738-.227c-.451.011-.73.059-.733.036-.003-.014.268-.1.73-.137a5.079 5.079 0 0 1 3.389.988c.366.28.551.498.54.51v-.003z" fill="#263238"/>
            <path d="M122.654 71.273s.011.134.002.375c-.005.24-.025.59-.058 1.019-.07.859-.196 2.045-.423 3.34-.221 1.299-.504 2.46-.775 3.28-.07.204-.14.389-.199.548l-.179.404c-.114.212-.182.327-.19.324-.008-.005.042-.129.14-.347l.154-.408c.053-.163.114-.345.176-.552.246-.822.509-1.98.73-3.274.224-1.292.367-2.47.462-3.327l.106-1.013c.026-.24.042-.372.054-.372v.003zM129.784 68.1s-.028-.076-.098-.207a1.251 1.251 0 0 0-.42-.459 1.056 1.056 0 0 0-.909-.134 1.17 1.17 0 0 0-.767.87l-.039.199-.087-.185a20.092 20.092 0 0 1-.856-2.16c-.473-1.441-.677-2.82-.632-3.817 0-.249.033-.473.05-.669.034-.196.059-.363.09-.498.07-.268.114-.417.123-.414.036.006-.165.596-.16 1.584-.017.982.199 2.342.669 3.769.257.786.551 1.517.837 2.149l-.126.014c.103-.49.484-.834.864-.949.392-.12.762.006.988.174.235.168.356.37.414.506a.87.87 0 0 1 .054.165c.008.04.011.06.005.06v.002zM136.606 68.73s-.028-.118-.064-.334c-.031-.215-.101-.531-.059-.937a1.96 1.96 0 0 1 .674-1.24c.213-.176.504-.293.814-.29.305 0 .638.117.857.383l-.123.07c-.084-.216-.174-.44-.266-.669a213.046 213.046 0 0 1-1.315-3.383l-.384-1.03c-.087-.243-.131-.38-.123-.386.008-.003.07.126.176.364l.426 1.016c.355.859.834 2.048 1.357 3.369.089.23.179.453.263.668l.171.431-.294-.36c-.182-.225-.473-.334-.745-.336a1.155 1.155 0 0 0-.733.254c-.4.32-.596.78-.657 1.153-.053.383 0 .702.017.918.019.218.022.338.014.338h-.006zM141.796 69.424c.039-.006.671 4.247 1.413 9.5.741 5.254 1.307 9.516 1.268 9.522-.04.005-.672-4.248-1.414-9.503-.738-5.252-1.306-9.517-1.267-9.522v.002z" fill="#263238"/>
            <path d="M126.694 66.071a8.76 8.76 0 0 0 .697 3.16c.305-.375.644-.776 1.105-.885.58-.137 1.162.218 1.581.652-.089-.434-.235-.864-.503-1.206-.269-.344-.68-.59-1.108-.579-.429.011-.857.327-.935.761l-.803-1.883" fill="#000" opacity=".3"/>
            <path d="M121.971 69.147c-.028 0-.017-.294-.104-.75a4.599 4.599 0 0 0-.68-1.665 4.269 4.269 0 0 0-1.281-1.26c-.392-.249-.669-.344-.661-.369.003-.008.073.009.202.05.064.02.14.048.226.087.087.04.185.081.289.143.21.112.442.283.68.49.232.215.464.475.668.778.406.61.602 1.256.661 1.729.031.235.039.428.028.562-.009.132-.017.205-.025.205h-.003z" fill="#263238"/>
            <path d="M138.212 49.176a5.995 5.995 0 0 0-6.117-5.356l-.311.008c-3.341.283-4.969 3.277-4.594 6.61l.917 11.721.389.476a6.272 6.272 0 0 0 7.446 1.755l-.257-3.773s3.204-.581 3.162-3.8c-.02-1.555-.325-4.75-.633-7.641h-.002z" fill="#FFBE9D"/>
            <path d="M135.707 60.615s-2.051.176-4.248-1.125c0 0 1.052 2.289 4.253 1.917l-.005-.792z" fill="#EB996E"/>
            <path d="M137.193 51.837a.46.46 0 0 1-.431.475.44.44 0 0 1-.484-.402.46.46 0 0 1 .431-.476.44.44 0 0 1 .484.403zM137.397 50.088c-.036.056-.4.095-.836.33-.437.232-.697.529-.759.523-.027 0-.002-.08.11-.212.112-.129.319-.31.59-.456.271-.146.526-.213.683-.227.159-.014.229.014.212.04v.002zM132.548 52.08a.461.461 0 0 1-.431.476.44.44 0 0 1-.484-.403.46.46 0 0 1 .43-.476.44.44 0 0 1 .485.403zM132.478 50.765c-.064.014-.364-.187-.842-.308-.479-.12-.868-.09-.912-.131-.023-.02.05-.056.221-.07a2.37 2.37 0 0 1 .741.07c.3.075.532.19.661.28.128.09.162.154.131.16zM134.417 54.607c-.003-.028.302-.09.8-.165.126-.017.244-.045.263-.132.028-.092-.028-.226-.095-.372-.126-.302-.26-.618-.397-.951-.554-1.354-.957-2.47-.904-2.493.056-.023.548 1.057 1.102 2.415.135.333.261.652.384.957.05.142.137.302.078.492a.322.322 0 0 1-.201.19c-.082.028-.152.031-.213.037-.501.039-.812.05-.814.022h-.003zM132.486 48.854c-.056.132-.546.045-1.128.087-.585.03-1.06.176-1.13.053-.031-.059.056-.182.252-.302.193-.12.498-.23.847-.252.35-.023.666.05.873.145.21.096.311.207.286.269zM137.386 48.963c-.106.115-.534 0-1.044 0-.512-.014-.943.084-1.043-.03-.045-.057.022-.171.209-.278.185-.109.496-.198.848-.193.35.006.658.104.834.218.182.115.241.23.196.283zM139.149 46.33c-.062-.291-.35-.54-.644-.495.157-.056.319-.115.445-.227s.204-.29.151-.448c-.081-.249-.4-.299-.652-.372a1.638 1.638 0 0 1-.839-.56c-.305-.386-.423-.89-.689-1.303a2.175 2.175 0 0 0-1.57-.98 2.171 2.171 0 0 0-1.746.613 2.267 2.267 0 0 0-1.93-.646 2.264 2.264 0 0 0-1.648 1.192 2.65 2.65 0 0 0-2.62.37 2.655 2.655 0 0 0-.937 2.473l2.004 1.228c.033-.618.724-1.11 1.32-.94.605.173.991.876 1.62.923.49.037.904-.341 1.38-.467.574-.154 1.181.075 1.698.37.518.29 1.011.654 1.587.8.677.17 1.396.022 2.043-.244.277-.112.551-.252.755-.467.204-.216.333-.523.274-.817l-.002-.003z" fill="#263238"/>
            <path d="m128.823 46.23 9.178-.054c-.302-.624-.825-1.116-1.39-1.522-1.217-.87-2.698-1.394-4.195-1.38-1.497.014-4.491 1.923-5.546 2.983-.845.851-.82 1.565-.82 1.565-.103 1.191.599 2.526.896 3.685.154.599.467 2.412.467 2.412.507-.017.683-.423.591-.92l-.149-1.96s1.685-1.27.809-3.48c-.137-.174-.437-.983.159-1.332v.002z" fill="#263238"/>
            <path d="M127.713 50.913c-.468-1.625-.896-3.366-.401-4.983l-.271-.011-.115.084a1.316 1.316 0 0 0-1.446.461 1.326 1.326 0 0 0 .002 1.52c-.542-.025-1.066.428-1.113.97-.034.376.128.737.296 1.072.168.336.347.686.35 1.061 0 .375-.238.783-.61.828a.91.91 0 0 0 1.038.504c-.129.319-.35.596-.629.795.598.405 1.418.268 2.067-.048.387-.187.764-.456.921-.853.174-.443.042-.94-.089-1.397v-.002z" fill="#263238"/>
            <path d="M127.562 52.805c-.056-.022-2.228-.596-2.102 1.6.126 2.197 2.306 1.618 2.306 1.554 0-.065-.207-3.154-.207-3.154h.003z" fill="#FFBE9D"/>
            <path d="M127.243 55.161s-.037.028-.101.062a.376.376 0 0 1-.285.022c-.238-.073-.454-.428-.487-.825a1.282 1.282 0 0 1 .075-.554c.059-.165.154-.283.272-.311a.194.194 0 0 1 .232.092c.034.06.022.104.034.107.005.005.044-.04.022-.129a.235.235 0 0 0-.095-.132.306.306 0 0 0-.216-.044c-.167.022-.313.187-.38.364-.078.179-.118.394-.098.62.039.443.291.843.613.919a.415.415 0 0 0 .347-.079c.064-.059.072-.109.067-.112z" fill="#EB996E"/>
            <path d="M125.281 50.983s-.061-.083-.039-.254c.02-.168.143-.411.412-.574.265-.162.632-.201 1.007-.243.369-.04.792-.146 1.002-.51.212-.355.218-.789.17-1.152-.053-.37-.151-.706-.198-.994-.118-.582-.006-.954.014-.943.025.003-.04.361.103.918.062.28.171.607.235.996.053.384.062.848-.182 1.265a1.082 1.082 0 0 1-.523.442 2.268 2.268 0 0 1-.607.134c-.383.034-.722.062-.965.194a.788.788 0 0 0-.403.478c-.04.148-.009.24-.026.243zM124.75 50.026s-.048-.061-.068-.198a.97.97 0 0 1 .109-.566.998.998 0 0 1 .261-.313 1.1 1.1 0 0 1 .422-.196c.149-.044.305-.08.417-.17.112-.09.162-.236.165-.403.006-.168-.019-.345-.014-.52 0-.174.023-.342.056-.499a2.36 2.36 0 0 1 .316-.786c.132-.213.345-.316.487-.31.146 0 .207.066.199.072-.006.014-.073-.025-.196-.006-.123.014-.28.11-.389.308a2.547 2.547 0 0 0-.305 1.223c0 .162.025.333.02.526 0 .188-.07.406-.232.526-.16.12-.333.151-.479.193a.907.907 0 0 0-.621.42c-.232.394-.115.705-.146.705l-.002-.006zM137.61 44.231s-.165.12-.453-.017c-.14-.061-.28-.195-.414-.352-.135-.16-.289-.33-.51-.453-.428-.244-1.124-.308-1.656.109-.272.196-.512.473-.828.702a1.453 1.453 0 0 1-.552.255 1.194 1.194 0 0 1-.626-.06c-.398-.142-.708-.385-1.05-.508a2.76 2.76 0 0 0-1.032-.185c-.677 0-1.265.257-1.665.574a3.023 3.023 0 0 0-.787.92c-.137.255-.187.412-.201.406-.006 0 0-.042.022-.118.02-.075.059-.184.121-.319a2.86 2.86 0 0 1 .769-.985 2.805 2.805 0 0 1 1.738-.635c.355-.008.73.048 1.094.188.369.134.688.377 1.047.503.179.065.36.087.537.054.176-.034.336-.12.484-.224.296-.21.543-.487.834-.694.288-.216.641-.322.959-.32.322 0 .616.093.851.23.238.137.4.333.523.495.129.163.247.289.373.356.251.143.425.059.422.075v.003z" fill="#455A64"/>
            <path d="M133.197 55.184c.07-.017.148.453.607.719.459.266.949.128.966.196.011.028-.096.109-.308.15a1.186 1.186 0 0 1-.8-.137 1.024 1.024 0 0 1-.479-.607c-.05-.193-.017-.319.014-.322z" fill="#263238"/>
            <path d="M162.156 98.903c-.831-.742-1.981-1.086-3.092-1.022l-1.891 6.011c1.385.061 2.767.775 4.105.408 1.074-.294 1.889-1.304 2.037-2.406.148-1.103-.33-2.25-1.161-2.992h.002z" fill="#FF725E"/>
            <path d="M159.097 97.741c.003-.047.205-.086.574-.08.364.01.907.05 1.547.29.644.238 1.344.725 1.884 1.464.271.369.498.808.629 1.304.135.492.157 1.043.048 1.575a3.17 3.17 0 0 1-.689 1.435 3.01 3.01 0 0 1-1.22.846c-.881.33-1.729.277-2.378.153a7.532 7.532 0 0 1-1.483-.458c-.333-.143-.507-.249-.493-.297.014-.048.219-.034.574.025.355.056.859.165 1.475.221.61.056 1.348.037 2.054-.266.349-.151.674-.375.926-.682.254-.308.433-.7.52-1.122.182-.854-.078-1.707-.512-2.351a4.05 4.05 0 0 0-1.542-1.377c-.54-.268-1.038-.389-1.379-.481-.344-.09-.54-.148-.535-.199z" fill="#F5F5F5"/>
            <path d="m141.575 120.284-4.113 11.525L151.775 137c.411-1.396-5.997-6.827-5.997-6.827l2.938-7.276-7.141-2.611v-.002z" fill="#FF725E"/>
            <path d="M141.575 127.945a.622.622 0 0 0-.647.521c-.036.302.207.615.51.643.305.031.677-.249.68-.554.002-.305-.303-.655-.605-.613" fill="#fff" opacity=".6"/>
            <path d="m137.462 131.81.414-1.164 13.596 5.422s.538.51.303.932l-14.313-5.19z" fill="#fff"/>
            <path d="M146.035 130.184c-.028.07-.389-.026-.814.072-.428.09-.716.328-.769.277-.059-.036.196-.416.713-.528.515-.118.91.12.87.179zM147.312 131.348c-.008.072-.355.084-.7.291-.349.198-.526.498-.596.47-.07-.014.031-.44.465-.691.431-.258.853-.137.831-.07zM147.513 133.455c-.07-.009-.039-.392.28-.711.316-.319.7-.353.708-.283.02.073-.268.202-.526.465-.263.257-.389.545-.462.529zM146.52 128.449c-.054.053-.339-.16-.742-.277-.403-.126-.758-.104-.772-.177-.023-.064.372-.215.848-.07.475.14.722.482.668.524h-.002zM146.796 126.627c-.008.028-.302-.028-.716-.263a3.595 3.595 0 0 1-.999-.87c-.05-.067-.112-.137-.154-.246-.05-.101-.028-.302.104-.384a.397.397 0 0 1 .363-.047c.107.033.185.087.255.134.146.095.277.204.389.314.229.223.395.461.504.674.221.428.238.73.21.736-.04.011-.124-.266-.37-.644a2.886 2.886 0 0 0-.876-.87c-.137-.095-.265-.143-.33-.09-.022.02-.028.031-.014.087.017.053.065.115.115.182.098.129.199.246.299.353.205.215.414.386.596.517.37.263.633.381.616.417h.008z" fill="#263238"/>
            <path d="M146.668 126.694c-.028 0-.076-.299.062-.761a2.436 2.436 0 0 1 .724-1.119c.135-.112.305-.263.588-.196.143.045.221.199.227.308.011.115-.009.201-.023.288a1.77 1.77 0 0 1-.173.484 1.793 1.793 0 0 1-.574.63c-.414.268-.736.246-.733.221-.011-.045.283-.09.624-.369.168-.138.347-.336.47-.591.062-.129.112-.268.137-.42.034-.159.02-.305-.042-.307-.07-.028-.232.044-.336.142a2.567 2.567 0 0 0-.716.991c-.171.414-.193.702-.235.699zM127.708 89.5c-2.172.05-4.231.359-5.725 1.931-1.984 2.088-4.436 5.065-4.575 7.127-.208 3.084 1.65 4.002 3.01 4.752a3.782 3.782 0 0 0 1.973.456l25.094-.191.789-4.25-16.229-4.001.674-6.109-5.009.283-.002.002z" fill="#263238"/>
            <path d="m132.714 89.218 7.893-.364s13.636.759 16.546 3.425c2.91 2.667 2.546 5.697 1.575 8.605-.971 2.907-9.513 21.512-9.513 21.512s.693 1.184.302 2.365c-.605 1.827-2.228 2.121-2.228 2.121l-7.588-2.79s-1.03-.364-.303-1.332c.728-.971 1.212-1.15 1.212-1.15v-1.939s2.667-4.849 2.91-5.515c.244-.666 2.798-10.533 2.798-10.533l1.699-2.918s-4.105-1.931-7.664-3.33l-8.311-2.049.674-6.108h-.002z" fill="#263238"/>
            <path d="M145.518 123.745c-.014.02-.254-.171-.666-.437a9.271 9.271 0 0 0-1.698-.861 9.204 9.204 0 0 0-1.844-.484c-.484-.076-.789-.093-.787-.115 0-.017.308-.037.801.014a7.568 7.568 0 0 1 3.59 1.363c.403.291.618.509.607.52h-.003zM149.309 122.41c-.014.011-.184-.162-.442-.464a24.468 24.468 0 0 1-1.827-2.482c-.21-.333-.327-.549-.313-.56.016-.011.165.182.397.501l.904 1.242.918 1.234c.235.317.375.515.361.529h.002zM152.091 98.04c.005.023-.28.085-.719.23a7.771 7.771 0 0 0-1.635.767c-.598.375-1.082.8-1.404 1.13-.325.33-.504.56-.524.546-.014-.008.138-.26.448-.616a6.404 6.404 0 0 1 1.405-1.186 6.507 6.507 0 0 1 1.682-.742c.456-.123.747-.148.75-.131l-.003.003z" fill="#455A64"/>
            <path d="M144.329 111.215s.006-.059.031-.166l.117-.461.454-1.693c.403-1.444.948-3.406 1.553-5.571.316-1.086.585-2.124.89-3.062.352-.931.912-1.648 1.429-2.18a8.286 8.286 0 0 1 1.358-1.119c.176-.112.313-.196.408-.246a.627.627 0 0 1 .148-.073c.006.011-.19.129-.526.367-.335.24-.808.607-1.315 1.142-.501.531-1.041 1.245-1.377 2.154-.291.926-.562 1.973-.875 3.056-.622 2.163-1.181 4.119-1.595 5.56l-.498 1.682c-.059.184-.107.335-.143.456a.701.701 0 0 1-.059.156v-.002zM137.348 97.002c-.04.003-.207-1.471-.37-3.296-.165-1.824-.266-3.307-.226-3.31.039-.003.207 1.472.369 3.296.165 1.825.266 3.305.227 3.31zM124.207 100.945c-.022.011-.143-.226-.392-.579a5.725 5.725 0 0 0-1.147-1.203 5.734 5.734 0 0 0-1.447-.82c-.4-.154-.66-.216-.655-.24 0-.015.275.008.692.142.417.131.971.392 1.502.803.529.414.915.89 1.142 1.262.229.372.319.63.305.635zM129.045 95.587c-.014.022-.35-.193-.929-.456a8.92 8.92 0 0 0-2.376-.694 8.861 8.861 0 0 0-2.476 0c-.63.09-1.013.201-1.019.176-.003-.008.09-.045.26-.1a5.59 5.59 0 0 1 .742-.18 8.049 8.049 0 0 1 2.513-.042 7.94 7.94 0 0 1 2.398.747c.288.146.512.277.66.38.148.102.23.16.224.169h.003z" fill="#455A64"/>
            <path d="M147.947 99.322s-.07-.005-.196-.033l-.557-.12c-.498-.112-1.194-.27-2.045-.46a278.72 278.72 0 0 0-6.766-1.43c-2.65-.523-5.056-.954-6.803-1.256l-2.065-.355c-.232-.042-.419-.076-.562-.1-.129-.026-.196-.04-.193-.046.003-.005.07 0 .199.017.142.02.33.042.565.073.489.067 1.2.17 2.073.308 1.749.274 4.161.688 6.814 1.214 2.65.526 5.039 1.06 6.76 1.472.862.207 1.556.378 2.035.504.226.061.411.109.551.148.126.036.19.056.19.062v.002z" fill="#455A64"/>
            <path d="M132.039 96.048c-.028.009-.086-.332-.347-.803a3.425 3.425 0 0 0-.573-.741 9.471 9.471 0 0 0-.879-.761c-.655-.501-1.321-.856-1.796-1.117-.482-.257-.778-.417-.767-.436.008-.017.322.109.814.344.49.238 1.173.582 1.839 1.094.33.257.635.515.887.78.254.264.445.54.568.787.123.249.19.465.224.613.033.15.042.235.033.238l-.003.002z" fill="#455A64"/>
            <path d="M159.99 99.843c.034.03-.386.456-.713 1.099-.333.641-.434 1.232-.479 1.223-.036 0 0-.621.347-1.287.342-.671.823-1.063.845-1.032v-.003z" fill="#263238"/>
            <path d="m142.028 71.167 1.797 12.653.089.202a27.118 27.118 0 0 0-1.886-12.855z" fill="#000" opacity=".3"/>
            <path d="m151.702 78.44-5.84 10.215-14.391.314-.036.652 13.935-.104.442-.014 14.715.028 2.975-5.129 3.8-5.445a.538.538 0 0 0-.442-.845l-14.688.056a.532.532 0 0 0-.464.271h-.006z" fill="#E0E0E0"/>
            <path d="M163.5 84.4s.755.693.638 1.281c-.121.588-.079 1.027-.638 1.066 0 0 .039.756-.756.876 0 0 .171.923-.904 1.083 0 0-.33.988-1.007.747a6.09 6.09 0 0 1-1.114-.518l-.198-.358s-.997-.375-.75-.937c.148-.342.666-.431.666-.431s-.216-.501.064-.876c.238-.322 1.018-.056 1.018-.056s-.044-.414.247-.761c.266-.314 1.502.54 1.502.54l.677-.806.56-.85h-.005z" fill="#FFBE9D"/>
            <path d="M161.84 88.706c-.023.033-.577-.275-1.243-.686-.666-.414-1.186-.775-1.164-.808.023-.034.577.27 1.243.685.663.414 1.186.775 1.164.809zM162.744 87.623c-.019.034-.537-.238-1.152-.61-.616-.372-1.097-.7-1.078-.733.02-.034.538.238 1.153.61.616.372 1.097.7 1.077.733zM161.513 85.597c.022-.042.484.202 1.021.543.538.344.971.61.96.638-.02.047-.501-.17-1.038-.515-.54-.341-.96-.635-.946-.666h.003z" fill="#EB996E"/>
            <path d="M167.299 78.498s-.025.005-.07.008c-.056 0-.123.006-.207.009-.193.002-.459.008-.795.014-.702.005-1.698.014-2.921.022l-9.64.022h-.702a.583.583 0 0 0-.535.252l-.655 1.181-1.239 2.239-2.107 3.786-1.433 2.546c-.168.291-.299.52-.394.688l-.107.177c-.025.039-.039.058-.039.058s.008-.022.028-.064c.025-.05.056-.11.092-.185l.373-.702c.335-.618.808-1.491 1.39-2.569l2.082-3.803c.392-.716.806-1.466 1.234-2.244l.658-1.189a.727.727 0 0 1 .654-.319h.703l9.64.023c1.225.008 2.219.016 2.921.022l.795.014.207.008c.047 0 .07.006.07.009l-.003-.003z" fill="#263238"/>
            <path d="M156.946 83.633c-.26.288-.266.705-.014.934.252.227.669.18.926-.109.261-.288.266-.705.014-.934-.251-.227-.668-.18-.929.109h.003z" fill="#fff"/>
            <path d="M116.095 79.685c-.126.05-.266.134-.269.268 0 .11.101.196.207.218.107.023.493-.137.599-.159 1.514-.333 2.759-.014 4.2.551l.048-.047c-.577-1.215-3.157-1.489-4.785-.831z" fill="#000" opacity=".3"/>
            <path d="M194.058 136.482c0 .04-25.312.073-56.526.073-31.214 0-56.532-.033-56.532-.073 0-.039 25.307-.072 56.532-.072 31.225 0 56.526.033 56.526.072z" fill="#263238"/>
            <path d="M108.266 47.29c.048.047 9.34-3.145 9.34-3.145l-3.573-8.199-8.271 3.162 4.55 2.614-2.046 5.568z" fill="#455A64"/>
            <path d="M112.626 38.417V27.252s12.819-2.342 22.053-2.205 18.745 1.654 18.745 1.654v10.717s-28.945-2.586-40.798.999z" fill="#455A64"/>
            <path d="m112.559 38.425 5.048 5.767v-6.774s-4.223.506-5.048 1.007z" fill="#263238"/>
            <path d="M112.626 27.252c.039 0 .058 2.502.039 5.588-.02 3.086-.067 5.588-.106 5.588-.04 0-.059-2.502-.04-5.588.02-3.087.068-5.585.107-5.585v-.003z" fill="#263238"/>
            <path d="M157.766 46.434c-.047.047-9.34-3.145-9.34-3.145l3.573-8.2 8.272 3.163-4.55 2.613 2.045 5.569z" fill="#455A64"/>
            <path d="m153.474 37.569-5.048 5.767v-6.285c1.681.056 3.366.23 5.048.518z" fill="#263238"/>
            <path d="M153.423 26.7c.039 0 .084 2.432.098 5.435.014 3.002-.006 5.434-.047 5.434-.04 0-.084-2.432-.098-5.434-.014-3 .005-5.434.047-5.434z" fill="#263238"/>
            <path d="M119.853 32.146c-.123-.89.473-1.623 1.391-1.749.509-.07.962.056 1.287.356l-.383.464a.962.962 0 0 0-.79-.243c-.551.075-.889.517-.814 1.077.078.557.523.89 1.077.814a.946.946 0 0 0 .694-.453l.496.344c-.233.38-.633.624-1.148.697-.915.126-1.687-.414-1.81-1.307zM122.906 31.726c-.089-.881.529-1.603 1.464-1.7.931-.096 1.69.48 1.779 1.365.093.884-.531 1.603-1.463 1.701-.938.095-1.69-.484-1.78-1.366zm2.549-.263c-.059-.562-.495-.906-1.024-.853-.529.053-.887.481-.831 1.044.059.562.495.906 1.024.853.529-.053.887-.481.831-1.044zM129.501 32.658l-.12-1.785-.781 1.525-.31.02-.963-1.377.112 1.746-.646.042-.19-2.975.568-.036 1.231 1.777.976-1.92.566-.036.198 2.974-.646.042.005.003zM133.355 30.624c.019.663-.468 1.091-1.265 1.114l-.599.016.023.823-.689.02-.084-2.98 1.29-.037c.795-.022 1.307.378 1.324 1.044zm-.7.02c-.008-.328-.226-.512-.649-.501l-.562.017.028 1.035.562-.017c.423-.011.63-.21.618-.532l.003-.002zM133.878 29.541h.688v2.418h1.495v.562h-2.183v-2.98zM138.749 32.042l-.017.555-2.308-.068.087-2.98 2.252.065-.017.554-1.567-.045-.019.646 1.382.04-.017.537-1.382-.04-.02.689 1.623.047h.003zM140.023 30.249l-.952-.056.034-.56 2.591.157-.034.56-.951-.06-.145 2.413-.689-.042.146-2.412zM144.206 32.451l-.05.551-2.298-.212.275-2.97 2.244.208-.051.551-1.561-.145-.059.643 1.377.129-.05.534-1.377-.128-.064.685 1.614.151v.003zM145.067 30.104l1.341.179c.965.128 1.55.8 1.43 1.692-.121.896-.859 1.388-1.825 1.26l-1.34-.18.394-2.951zm.988 2.566c.588.078 1.016-.222 1.091-.787.076-.565-.26-.968-.847-1.044l-.624-.083-.244 1.83.624.084z" fill="#fff"/>
            <path d="m159.156 27.717.733.859 2.065-.86-.604-.903-2.194.904z" fill="#455A64"/>
            <path d="M158.211 23.631a1.075 1.075 0 1 1-2.15-.001 1.075 1.075 0 0 1 2.15.001zM134.14 39.656a.538.538 0 1 1-1.075 0 .538.538 0 0 1 1.075 0zM109.11 31.58a.407.407 0 0 1-.408.41.407.407 0 0 1-.409-.41c0-.226.182-.408.409-.408.226 0 .408.182.408.409z" fill="#FF725E"/>
            <path d="m107.594 27.084 1.203.073.574-2.364-1.125.044-.652 2.247z" fill="#455A64"/>
            <path d="m145.201 45.98.406 1.136 2.401-.4-.484-1.018-2.323.282z" fill="#FF725E"/>
            <path d="m120.918 39.424-.741.954 1.626 1.808.598-.952-1.483-1.81z" fill="#455A64"/>
            <path d="m118.045 17.075 2.841 2.899 4.001-1.514.157.993-1.732 3.548 1.597 2.647-.134.79-3.87-.652-2.289 2.512-.534-.408-.476-3.193-3.61-1.88-.159-.728 3.635-.996.573-4.018z" fill="#FF725E"/>
            <path d="m118.045 17.075 2.841 2.899 4.001-1.514.157.993-1.732 3.548 1.597 2.647-.134.79-3.87-.652-2.289 2.512-.534-.408-.476-3.193-3.61-1.88-.159-.728 3.635-.996.573-4.018z" fill="#000" opacity=".3"/>
            <path d="m118.045 16.26 2.841 2.9 4.001-.7-1.878 3.601 1.9 3.587-4.004-.674-2.823 2.916-.599-4.016-3.646-1.785 3.635-1.807.573-4.021zM147.496 17.075l-2.843 2.899-3.998-1.514-.16.993 1.732 3.548-1.595 2.647.132.79 3.87-.652 2.289 2.512.537-.408.473-3.193 3.609-1.88.16-.728-3.635-.996-.571-4.018z" fill="#FF725E"/>
            <path d="m147.496 17.075-2.843 2.899-3.998-1.514-.16.993 1.732 3.548-1.595 2.647.132.79 3.87-.652 2.289 2.512.537-.408.473-3.193 3.609-1.88.16-.728-3.635-.996-.571-4.018z" fill="#000" opacity=".3"/>
            <path d="m147.496 16.26-2.843 2.9-3.999-.7 1.878 3.601-1.9 3.587 4.001-.674 2.826 2.916.596-4.016 3.647-1.785-3.635-1.807-.571-4.021zM132.677 11.99l2.364 4.62 5.454-.322-.185 1.27-3.464 3.67.94 3.838-.464.913-4.475-2.267-3.746 2.191-.501-.702.638-4.077-3.688-3.669.084-.948 4.815.17 2.228-4.686z" fill="#FF725E"/>
            <path d="m132.677 11.99 2.364 4.62 5.454-.322-.185 1.27-3.464 3.67.94 3.838-.464.913-4.475-2.267-3.746 2.191-.501-.702.638-4.077-3.688-3.669.084-.948 4.815.17 2.228-4.686z" fill="#000" opacity=".3"/>
            <path d="m132.985 11 2.364 4.62 5.146.669-3.663 3.676.954 5.102-4.628-2.348L128.6 25.2l.803-5.126-3.769-3.568 5.123-.82L132.985 11z" fill="#FF725E"/>
            <path d="m142.406 52.444 3.951.437a9.218 9.218 0 0 1 3.909-3.174c4.693-2.02 10.133.149 12.153 4.841 2.02 4.693-.148 10.133-4.841 12.153-4.693 2.02-10.132-.148-12.153-4.841a9.22 9.22 0 0 1-.459-5.966v.006l-2.563-3.453.003-.003z" fill="#FAFAFA"/>
            <path d="m142.406 52.444 2.588 3.433h-.058c.008-.02.03-.025.05-.014a.037.037 0 0 1 .017.043 9.2 9.2 0 0 0 .061 4.776c.132.45.291.912.512 1.36.112.224.219.453.342.68l.414.663a9.226 9.226 0 0 0 5.636 3.783c1.222.266 2.546.3 3.85.017a9.327 9.327 0 0 0 3.685-1.707c1.103-.85 2.06-1.964 2.672-3.28.633-1.334.971-2.795.918-4.222a9.34 9.34 0 0 0-1.035-4.007 9.009 9.009 0 0 0-2.502-3.016 9.302 9.302 0 0 0-3.276-1.623 9.34 9.34 0 0 0-3.341-.269c-1.067.112-2.032.431-2.897.8a9.218 9.218 0 0 0-3.657 3.036c-.008.012-.019.017-.033.014-2.502-.296-3.705-.442-3.949-.47.244.026 1.45.146 3.957.4l-.034.014a9.237 9.237 0 0 1 3.672-3.089c.87-.38 1.849-.708 2.927-.822a9.394 9.394 0 0 1 3.385.263 9.44 9.44 0 0 1 3.327 1.636 9.183 9.183 0 0 1 2.544 3.056 9.443 9.443 0 0 1 1.058 4.069c.053 1.45-.289 2.932-.929 4.29-.624 1.337-1.595 2.467-2.717 3.332a9.404 9.404 0 0 1-3.744 1.73 9.242 9.242 0 0 1-3.909-.026 9.382 9.382 0 0 1-3.344-1.466 9.376 9.376 0 0 1-2.359-2.384l-.417-.672c-.123-.23-.23-.462-.341-.688a8.448 8.448 0 0 1-.513-1.377 9.25 9.25 0 0 1-.033-4.824l.067.028v.006c-.011.016-.034.025-.05.014-.006 0-.009-.006-.012-.012l-2.529-3.475h-.003z" fill="#263238"/>
            <path d="M150.512 54.912s.006.045.009.129c0 .092.005.21.008.358.003.322.009.775.017 1.346.008 1.161.02 2.795.031 4.754l-.065-.064c1.917-.003 4.175-.006 6.585-.012l-.073.073v-3.478c0-1.105.005-2.149.008-3.106l.065.064c-1.959-.014-3.593-.025-4.755-.03-.57-.009-1.021-.012-1.345-.017a32.365 32.365 0 0 1-.359-.009.545.545 0 0 1-.128-.008s.036-.006.114-.008c.09 0 .205-.006.347-.009.319-.003.767-.008 1.332-.017 1.17-.008 2.821-.02 4.794-.03h.061v.064c0 .957.006 2 .009 3.106v3.478l-.073.073c-2.409-.003-4.668-.006-6.584-.011h-.065v-.065l.034-4.793a142.607 142.607 0 0 1 .025-1.679.42.42 0 0 1 .008-.115v.006z" fill="#263238"/>
            <path d="M156.389 56c.095.076-.792 1.352-1.979 2.85-.238.298-.467.584-.682.844l-.14.17-.157-.142c-1.03-.926-1.727-1.637-1.662-1.71.064-.072.867.515 1.933 1.397l-.299.028c.204-.269.428-.56.666-.86 1.186-1.496 2.227-2.652 2.322-2.576h-.002z" fill="#FF725E"/>
        </g>
    </g>
    <defs>
        <clipPath id="ksaosb8qca">
            <path fill="#fff" d="M0 0h275v148H0z"/>
        </clipPath>
        <clipPath id="9o2pqanhhb">
            <path fill="#fff" transform="translate(81 11)" d="M0 0h113.058v126H0z"/>
        </clipPath>
    </defs>
</svg>
