<svg xmlns="http://www.w3.org/2000/svg" width="41" height="41" viewBox="0 0 41 41">
    <path fill="#2296FF" fill-rule="evenodd" d="M22.082 0C32.667.824 41 9.687 41 20.5S32.667 40.176 22.082 41v-4.129c8.314-.812 14.812-7.831 14.812-16.371S30.396 4.94 22.082 4.129V0zm-3.227 41a20.425 20.425 0 0 1-11.718-4.863l2.914-2.919a16.338 16.338 0 0 0 8.804 3.653V41zm-14-7.148A20.488 20.488 0 0 1 0 22.116h4.122c.325 3.33 1.64 6.37 3.648 8.817l-2.915 2.92zM0 18.884A20.49 20.49 0 0 1 4.855 7.148l2.915 2.918a16.39 16.39 0 0 0-3.648 8.818H0zM7.137 4.863A20.424 20.424 0 0 1 18.855 0v4.129a16.336 16.336 0 0 0-8.804 3.653l-2.914-2.92z"/>
</svg>
