<svg width="275" height="148" viewBox="0 0 275 148" fill="none" xmlns="http://www.w3.org/2000/svg">
    <rect width="275" height="148" rx="8" fill="#F0EBFD"/>
    <g clip-path="url(#zdxiautpqa)">
        <path d="M238.772 17h-29.986v40.98h29.986V17z" fill="#C7DBFB"/>
        <path d="M237.714 18.12h-27.885v38.784h27.885V18.121z" fill="#FAFAFA"/>
        <path d="M228.318 27.2h-9.096v22.215h9.096V27.2z" fill="#C7DBFB"/>
        <path d="M58.735 131.6c7.04-3.419 9.784-11.404 10.71-18.83.156-1.241.497-2.517.084-3.694-.415-1.174-1.664-2.131-2.85-1.787-.984.284-1.555 1.288-2.206 2.086a7.292 7.292 0 0 1-3.332 2.301c-.849.281-1.862.376-2.567-.173-.971-.756-.86-2.245-.658-3.47.38-2.283.756-4.566 1.133-6.849.203-1.226.406-2.478.21-3.7-.198-1.222-.868-2.439-1.982-2.953-1.115-.51-2.663-.068-3.102 1.091-.182.484-.162 1.02-.278 1.521-.117.505-.442 1.028-.947 1.094-.512.066-.948-.359-1.259-.777-1.07-1.44-1.673-3.17-2.223-4.883-.55-1.712-1.07-3.46-2.005-4.994-.933-1.533-2.352-2.857-4.091-3.233-1.74-.38-3.784.406-4.5 2.059-.721 1.658.008 3.571.884 5.146a27.702 27.702 0 0 0 4.835 6.338c.344.335.714.7.789 1.178.137.86-.768 1.548-1.617 1.688-.962.159-1.94-.092-2.913-.134-.975-.039-2.078.218-2.583 1.064-.702 1.174.138 2.653 1.031 3.678a23.739 23.739 0 0 0 6.303 5.111c.849.472 1.751.914 2.379 1.664.627.75.89 1.922.314 2.714-.577.794-1.749.89-2.666.564-.917-.325-1.68-.974-2.528-1.455-1.584-.905-3.778-1.136-5.09.149-.86.846-1.135 2.167-.959 3.365.176 1.199.747 2.298 1.378 3.326 2.196 3.599 5.247 6.701 8.941 8.676 3.694 1.978 7.256 2.92 11.368 2.119" fill="#EBEBEB"/>
        <path d="M57.737 131.994c.197-2.967.329-1.428-.17-5.325-.493-3.9-1.39-8.132-2.478-12.522-.275-1.096-.55-2.181-.819-3.248-.272-1.067-.54-2.122-.866-3.141-.646-2.038-1.42-3.948-2.212-5.741a117.175 117.175 0 0 0-2.384-5.02 82.276 82.276 0 0 0-2.275-4.273 43.813 43.813 0 0 0-3.95-5.774 39.46 39.46 0 0 0-1.222-1.453c-.138-.155-.248-.274-.33-.367a.865.865 0 0 0-.119-.12c-.003 0 .03.048.102.135l.314.382c.275.335.681.828 1.19 1.48a46.517 46.517 0 0 1 3.878 5.8c.732 1.282 1.473 2.72 2.244 4.277.768 1.56 1.578 3.23 2.361 5.02.786 1.787 1.554 3.694 2.19 5.723.323 1.013.59 2.059.861 3.129.27 1.067.541 2.151.816 3.248 1.088 4.39 1.987 8.607 2.492 12.495.511 3.885.395 2.331.219 5.289" fill="#C7DBFB"/>
        <path d="M53.338 107.737s.087-.173.203-.505c.12-.329.275-.81.457-1.407.368-1.193.82-2.857 1.31-4.695.49-1.838.965-3.494 1.35-4.677.191-.592.35-1.07.463-1.399.114-.328.167-.514.153-.52-.015-.006-.099.168-.236.49-.141.32-.323.792-.535 1.381-.425 1.174-.927 2.83-1.417 4.668-.481 1.814-.914 3.458-1.246 4.71-.153.565-.284 1.043-.386 1.425-.09.338-.134.526-.12.532l.004-.003z" fill="#C7DBFB"/>
        <path d="M38.044 102.28c0 .015.218.078.615.177.398.101.977.242 1.685.442 1.42.385 3.36.986 5.475 1.745a82.662 82.662 0 0 1 5.34 2.128c.676.293 1.217.547 1.59.717.374.174.583.263.592.248.006-.015-.188-.131-.553-.329a28.996 28.996 0 0 0-1.563-.785c-1.333-.637-3.212-1.432-5.328-2.197-2.119-.759-4.076-1.339-5.51-1.685-.715-.18-1.3-.299-1.707-.371-.406-.072-.63-.105-.636-.087v-.003zM57.417 126.346s.054-.057.138-.176c.099-.144.215-.317.361-.526.311-.461.745-1.136 1.268-1.979 1.049-1.685 2.423-4.058 3.902-6.697 1.483-2.638 2.833-5.023 3.844-6.727.493-.827.902-1.509 1.204-2.014.128-.221.236-.4.326-.55.071-.125.107-.194.098-.2-.006-.003-.054.057-.137.176-.099.144-.216.317-.362.526-.31.461-.744 1.136-1.267 1.979-1.049 1.685-2.424 4.058-3.903 6.697-1.482 2.639-2.833 5.02-3.843 6.727-.496.827-.902 1.509-1.204 2.014-.129.221-.236.4-.326.55-.072.128-.108.197-.099.2z" fill="#C7DBFB"/>
        <path d="M37.544 116.26s.063.048.195.12c.155.08.346.179.576.301.532.272 1.253.64 2.128 1.085a725.95 725.95 0 0 1 6.987 3.64c2.726 1.435 5.206 2.705 7.02 3.583.908.44 1.646.789 2.16 1.019l.595.263c.138.057.212.084.215.078.003-.006-.062-.048-.194-.12-.155-.08-.344-.179-.577-.298-.532-.272-1.252-.637-2.127-1.085a671.413 671.413 0 0 1-6.987-3.643c-2.723-1.432-5.203-2.705-7.02-3.583a89.876 89.876 0 0 0-2.16-1.019l-.595-.263c-.138-.057-.21-.084-.216-.078zM65.474 42.309h-23.68v23.265h23.68V42.309z" fill="#C7DBFB"/>
        <path d="M64.637 42.945H42.618v22.019h22.019V42.945z" fill="#FAFAFA"/>
        <path d="M57.22 50.362h-7.184v7.185h7.184v-7.184z" fill="#C7DBFB"/>
        <path d="M231.719 131.922c0 .042-41.703.078-93.134.078-51.43 0-93.143-.036-93.143-.078s41.695-.078 93.143-.078c51.449 0 93.134.036 93.134.078z" fill="#263238"/>
        <path d="M199.038 25.188H78.123a3.773 3.773 0 0 0-3.774 3.775v85.405a3.773 3.773 0 0 0 3.775 3.775h46.406s2.953 9.129-6.197 13.851h43.391s-10.331-3.541-7.674-13.851h44.991a3.775 3.775 0 0 0 3.774-3.775V28.963a3.773 3.773 0 0 0-3.774-3.775h-.003z" fill="#455A64"/>
        <path d="M140.196 109.159c1.644 2.352-.929 4.925-3.281 3.282a.837.837 0 0 1-.204-.203c-1.64-2.349.93-4.922 3.282-3.282a.85.85 0 0 1 .203.203z" fill="#263238"/>
        <path d="M78.055 30.307h120.797c.541 0 .978.44.978.978v70.858c0 .541-.44.977-.978.977H78.055a.977.977 0 0 1-.977-.977V31.285c0-.541.439-.978.977-.978z" fill="#FAFAFA"/>
        <path d="M198.855 103.269h-120.8a1.127 1.127 0 0 1-1.127-1.126V31.285c0-.622.505-1.127 1.127-1.127h120.797c.622 0 1.127.505 1.127 1.127v70.858c0 .621-.505 1.126-1.127 1.126h.003zm-120.8-72.812a.828.828 0 0 0-.828.828v70.858c0 .457.37.828.828.828h120.797a.828.828 0 0 0 .828-.828V31.285a.827.827 0 0 0-.828-.828H78.055z" fill="#fff"/>
        <path d="M87.145 33.12a.98.98 0 1 1-1.961-.002.98.98 0 0 1 1.962.001zM81.204 33.12a.98.98 0 1 1-1.961-.002.98.98 0 0 1 1.962.001zM84.056 33.12a.98.98 0 1 1-1.962-.002.98.98 0 0 1 1.962.001z" fill="#455A64"/>
        <path d="M199.922 36.063c0 .042-27.52.078-61.463.078-33.942 0-61.468-.036-61.468-.078s27.514-.078 61.468-.078c33.955 0 61.463.036 61.463.078z" fill="#263238"/>
        <path d="m193.188 42.592-22.177.042.034 17.73 22.177-.042-.034-17.73z" fill="#F5F5F5"/>
        <path d="m192.398 43.708-20.62.04.03 15.497 20.62-.04-.03-15.497z" fill="#EBEBEB"/>
        <path d="m171.805 59.259 7.184-9.647 4.47 6.019 3.022-3.227 5.944 6.816-20.62.039zM185.342 48.42a1.622 1.622 0 1 1-3.244.007 1.622 1.622 0 0 1 3.244-.007z" fill="#C7DBFB"/>
        <path d="m193.192 80.55-22.177.043.034 17.73 22.177-.043-.034-17.73z" fill="#F5F5F5"/>
        <path d="m192.402 81.67-20.62.039.029 15.498 20.62-.04-.029-15.498z" fill="#EBEBEB"/>
        <path d="m171.804 97.218 7.184-9.647 4.471 6.019 3.021-3.228 5.944 6.82-20.62.036zM185.342 86.382a1.623 1.623 0 1 1-3.246.006 1.623 1.623 0 0 1 3.246-.006z" fill="#C7DBFB"/>
        <path d="m104.277 42.601-22.177.043.034 17.73 22.177-.043-.034-17.73z" fill="#F5F5F5"/>
        <path d="m103.484 43.717-20.62.04.03 15.498 20.62-.04-.03-15.498z" fill="#EBEBEB"/>
        <path d="m82.89 59.259 7.184-9.647 4.474 6.019 3.018-3.227 5.944 6.816-20.62.039zM96.427 48.42a1.622 1.622 0 1 1-3.244.007 1.622 1.622 0 0 1 3.244-.007z" fill="#C7DBFB"/>
        <path d="m104.278 61.709-22.177.042.034 17.73 22.177-.042-.034-17.73z" fill="#F5F5F5"/>
        <path d="m103.485 62.825-20.62.04.03 15.497 20.619-.04-.029-15.497z" fill="#EBEBEB"/>
        <path d="m82.89 78.367 7.185-9.647 4.473 6.019 3.019-3.228 5.944 6.817-20.62.039zM96.428 67.528a1.622 1.622 0 1 1-3.245.007 1.622 1.622 0 0 1 3.245-.007z" fill="#C7DBFB"/>
        <path d="m104.279 80.99-22.177.043.034 17.73 22.177-.043-.034-17.73z" fill="#F5F5F5"/>
        <path d="m103.486 82.106-20.62.04.03 15.498 20.619-.04-.029-15.498z" fill="#EBEBEB"/>
        <path d="M82.89 97.645 90.074 88l4.474 6.021 3.018-3.23 5.944 6.82-20.62.035zM96.427 86.81a1.622 1.622 0 1 1-3.244.006 1.622 1.622 0 0 1 3.244-.007z" fill="#C7DBFB"/>
        <path d="M196.512 60.036s-2.059-.469-3.852 1.33c-1.563 1.57-8.074 7.298-8.074 7.298l-9.438-1.889-1.303 4.214s11.147 3.466 11.96 3.17c.813-.295 6.855-4.392 6.855-4.392l3.852-9.73z" fill="#E8505B"/>
        <path d="m187.019 45.506-45.434 6.167 4.93 36.323 45.435-6.167-4.931-36.323z" fill="#EBEBEB"/>
        <path d="m187.021 45.492-.218.033-.634.09c-.562.077-1.386.194-2.462.343-2.155.299-5.302.732-9.294 1.285L141.6 51.74l.069-.09c1.47 10.81 3.159 23.203 4.943 36.319l-.099-.072c16.822-2.28 32.454-4.396 45.436-6.156l-.063.084-3.541-26.361c-.422-3.174-.753-5.663-.98-7.36-.111-.85-.198-1.498-.254-1.94-.057-.44-.084-.672-.084-.672s.036.218.096.654l.269 1.925a5207.2 5207.2 0 0 0 1.016 7.34c.872 6.35 2.118 15.434 3.625 26.396l.009.075-.075.008c-12.979 1.767-28.611 3.897-45.43 6.186l-.09.013-.012-.09c-1.778-13.12-3.457-25.512-4.925-36.324l-.011-.078.077-.012 32.876-4.426 9.282-1.24c1.07-.14 1.891-.251 2.45-.323.275-.036.484-.063.628-.08.14-.018.209-.024.209-.024z" fill="#263238"/>
        <path d="m185.704 48.01-42.242 5.734 4.31 31.75 42.242-5.734-4.31-31.75z" fill="#E8505B"/>
        <path d="m147.774 85.486 12.077-21.738 10.815 11.105 5.301-7.441 14.052 12.336-42.245 5.737zM172.539 59.561a3.356 3.356 0 1 1-6.652.903 3.356 3.356 0 0 1 2.875-3.778 3.355 3.355 0 0 1 3.777 2.875z" fill="#E8505B"/>
        <path d="m147.774 85.486 12.077-21.738 10.815 11.105 5.301-7.441 14.052 12.336-42.245 5.737zM172.539 59.561a3.356 3.356 0 1 1-6.652.903 3.356 3.356 0 0 1 2.875-3.778 3.355 3.355 0 0 1 3.777 2.875z" fill="#000" opacity=".2"/>
        <path d="M207.237 64.746c.428-2.953-.944-3.873-3.099-4.764-2.692-1.114-7.817-.561-9.548 1.002l-1.984 5.83c-.828.965-.696 2.442-.218 3.622.478 1.18 1.249 2.238 1.605 3.457.69 2.361.206 4.45.042 6.907-.039.568-.476 1.613-.054 1.996.385.353.965.364 1.485.344a29.736 29.736 0 0 0 11.87-3.007c-1.404-2.839-2.958-6.123-2.053-8.298a29.98 29.98 0 0 0 1.951-7.089h.003z" fill="#E8505B"/>
        <path d="m188.623 70.792-1.33 4.536s6.96 2.531 10.728 2.486c3.533-.044 4.543-.442 5.786-3.296 1.243-2.85 2.654-6.13 2.949-8.015 0 0 .302-.83.449-1.924.517-3.87-4.193-4.89-4.88-1.046l-.562 2.059s-1.282 2.898-1.345 3.06c-.568 1.503-1.548 3.912-2.259 4.178-.711.266-9.539-2.038-9.539-2.038h.003z" fill="#E8505B"/>
        <path d="M205.621 70.989s-.009.039-.036.107l-.123.311c-.11.272-.275.67-.517 1.172a16.625 16.625 0 0 1-.98 1.778c-.427.666-.962 1.404-1.697 2.089-.174.182-.392.322-.592.493-.212.155-.445.29-.681.43l-.38.17c-.066.027-.128.06-.194.087l-.206.057-.419.116c-.143.018-.29.036-.439.051-1.183.114-2.441-.048-3.747-.266-2.609-.46-5.424-1.225-8.338-2.181l-.072-.024.021-.072.167-.574 1.163-3.962.021-.072.072.018c2.546.681 4.951 1.276 7.145 1.673.547.096 1.085.183 1.605.221.26.021.52.03.759 0 .062-.003.116-.023.17-.038.048-.024.087-.04.123-.096a2.78 2.78 0 0 0 .2-.302c.49-.846.863-1.68 1.222-2.426.699-1.504 1.234-2.717 1.608-3.55l.427-.957.114-.248c.027-.054.042-.084.042-.08 0 0-.009.03-.03.086a6.537 6.537 0 0 1-.102.251c-.096.227-.23.553-.403.968a144.7 144.7 0 0 1-1.566 3.571c-.353.75-.72 1.584-1.211 2.445a2.429 2.429 0 0 1-.209.32.374.374 0 0 1-.167.131c-.066.021-.132.045-.197.048a3.664 3.664 0 0 1-.789.006 17.55 17.55 0 0 1-1.617-.215c-2.202-.392-4.611-.98-7.163-1.659l.092-.05-1.159 3.962-.167.574-.051-.096c2.904.954 5.717 1.722 8.311 2.188 1.296.22 2.549.385 3.708.278.144-.015.287-.033.427-.048.138-.039.272-.075.407-.11l.2-.055c.066-.023.126-.053.188-.08l.371-.165c.233-.134.46-.266.669-.418.201-.164.416-.302.586-.481.729-.67 1.267-1.399 1.7-2.056.434-.66.751-1.261.999-1.757s.424-.89.541-1.157c.056-.128.101-.227.134-.305a.495.495 0 0 1 .051-.101h.009z" fill="#263238"/>
        <path d="M193.653 65.711c.02.012-.18.32-.485.825-.292.502-.717 1.22-.857 2.092-.15.879.146 1.67.37 2.202.233.538.401.867.377.876-.009.006-.063-.072-.147-.212-.083-.144-.203-.35-.331-.619a5.118 5.118 0 0 1-.365-.983 3.232 3.232 0 0 1-.06-1.288c.15-.917.598-1.638.918-2.128.331-.493.562-.777.577-.765h.003z" fill="#263238"/>
        <path d="M194.268 77.282c-.03.517.224 1.023.601 1.378.376.356.86.577 1.356.72 1.56.458 3.302.21 4.692-.636 1.387-.846 2.331-2.382 2.714-3.96 0 0-.876 1.103-1.453 1.677-.768.765-1.602 1.13-2.686 1.282-1.755.248-3.53-.108-5.263-.46" fill="#000" opacity=".2"/>
        <path d="M193.727 61.465s.182.077.487.233c.344.182.756.397 1.222.64l.111.056-.108.069c-.263.173-.55.358-.846.55-.275.176-.54.343-.786.502l-.113.072v-.132a56.378 56.378 0 0 1 0-1.434c.006-.353.018-.562.036-.562s.036.206.057.559c.018.352.038.851.053 1.431l-.116-.06c.245-.161.511-.331.786-.51.299-.192.585-.374.854-.548v.126c-.977-.547-1.658-.962-1.634-1.001l-.003.009zM190.401 64.426s.182.078.487.233c.343.183.756.398 1.222.64l.111.057-.108.069c-.263.173-.55.358-.846.55-.275.176-.541.343-.786.501l-.113.072v-.131a56.11 56.11 0 0 1 0-1.432c.006-.353.018-.562.036-.562s.035.206.056.562c.018.353.039.852.054 1.432l-.116-.06c.245-.162.511-.332.786-.511l.854-.547v.125c-.977-.546-1.658-.962-1.634-1l-.003.002zM199.294 65.436s.006-.2.036-.538l.141-1.371.012-.123.104.072c.257.182.535.377.825.58l.759.544.111.077-.123.051a60.42 60.42 0 0 1-1.33.532c-.331.126-.529.191-.535.176-.005-.015.18-.11.5-.26.319-.149.777-.352 1.308-.582l-.011.128c-.24-.17-.5-.35-.768-.538-.29-.206-.565-.406-.825-.588l.116-.051c-.143 1.111-.275 1.9-.322 1.891h.002zM193.425 68.93s.12-.159.341-.419l.912-1.034.08-.092.042.12.335.95c.104.307.206.606.302.881l.044.129-.128-.03a56.807 56.807 0 0 1-1.393-.34c-.343-.09-.541-.153-.538-.168.003-.018.21.015.559.077.347.066.837.165 1.405.287l-.084.099c-.099-.278-.203-.574-.311-.885-.113-.337-.224-.66-.328-.959l.122.027c-.762.822-1.33 1.387-1.363 1.354l.003.003zM198.012 69.396s.006-.2.036-.538l.141-1.372.012-.122.104.072c.257.182.535.376.825.58l.759.543.111.078-.123.05c-.538.222-1.001.407-1.33.533-.332.125-.529.19-.535.176-.006-.015.18-.11.499-.26.32-.15.777-.353 1.309-.583l-.012.129c-.239-.17-.499-.35-.768-.538-.29-.207-.565-.407-.825-.589l.117-.05c-.143 1.11-.275 1.9-.323 1.89h.003zM196.381 72.196s.006-.2.036-.538l.14-1.371.012-.123.105.072c.257.182.535.376.825.58l.759.543.11.078-.122.05c-.538.222-1.001.407-1.33.533-.332.125-.529.191-.535.176-.006-.015.179-.11.499-.26.32-.15.777-.352 1.309-.583l-.012.129c-.239-.17-.499-.35-.768-.538-.29-.206-.565-.406-.825-.589l.117-.05c-.144 1.111-.275 1.9-.323 1.891h.003zM199.767 81.604s.006-.2.036-.538c.038-.389.086-.849.14-1.372l.012-.123.105.072c.257.183.534.377.824.58.266.191.52.374.759.544l.111.078-.123.05c-.537.222-1.001.407-1.329.532-.332.126-.529.192-.535.177-.006-.015.179-.11.499-.26.319-.15.777-.353 1.309-.583l-.012.128c-.239-.17-.499-.35-.768-.537-.29-.207-.565-.407-.825-.59l.116-.05c-.143 1.112-.275 1.9-.322 1.892h.003zM202.713 63.013s.006-.2.036-.538l.14-1.372.012-.122.105.071c.257.183.535.377.825.58.266.191.52.374.759.544l.11.078-.122.05a60.42 60.42 0 0 1-1.33.532c-.329.126-.529.192-.535.177-.006-.015.179-.11.499-.26.32-.15.777-.353 1.309-.583l-.012.129c-.239-.17-.499-.35-.768-.538-.29-.207-.565-.407-.825-.589l.117-.05c-.144 1.11-.275 1.9-.323 1.89h.003zM195.371 66.309s.006-.2.036-.538c.038-.388.086-.849.14-1.372l.012-.122.105.072.824.58.759.543.111.078-.123.05a60.75 60.75 0 0 1-1.329.533c-.332.125-.529.19-.535.176-.006-.015.179-.11.499-.26.319-.15.777-.353 1.309-.583l-.012.129c-.239-.17-.499-.35-.768-.538-.29-.206-.565-.407-.825-.589l.116-.05c-.143 1.111-.275 1.9-.322 1.891h.003zM195.786 80.83s.006-.2.036-.538l.141-1.372.011-.122.105.071c.257.183.535.377.825.58.266.191.52.374.759.544l.11.078-.122.05a60.42 60.42 0 0 1-1.33.532c-.332.126-.529.192-.535.177-.006-.015.179-.11.499-.26.32-.15.777-.353 1.309-.583l-.012.129c-.239-.17-.499-.35-.768-.538-.29-.207-.565-.407-.825-.59l.117-.05c-.144 1.112-.275 1.9-.323 1.892h.003zM203.654 68.69s.006-.2.036-.537l.141-1.372.012-.122.104.071c.257.183.535.377.825.58.266.191.52.374.759.544l.111.078-.123.05a60.42 60.42 0 0 1-1.33.532c-.331.126-.529.192-.535.177-.006-.015.18-.11.499-.26.32-.15.777-.353 1.309-.583l-.012.129c-.239-.17-.499-.35-.768-.538-.29-.206-.564-.407-.824-.59l.116-.05c-.143 1.112-.275 1.9-.323 1.892h.003zM200.248 75.456s.006-.2.035-.538l.141-1.371.012-.123.104.072c.257.182.535.377.825.58l.759.544.111.077-.123.051c-.538.221-1.001.407-1.329.532-.332.126-.529.191-.535.176-.006-.014.179-.11.499-.26.319-.149.777-.352 1.309-.582l-.012.128c-.239-.17-.499-.35-.768-.538-.29-.206-.565-.406-.825-.588l.116-.051c-.143 1.112-.275 1.9-.322 1.891h.003zM203.09 78.591s.006-.2.036-.537l.14-1.372.012-.123.105.072c.257.182.535.377.825.58l.759.544.11.077-.122.051a60.42 60.42 0 0 1-1.33.532c-.332.126-.529.191-.535.176-.006-.014.179-.11.499-.26.32-.149.777-.352 1.309-.582l-.012.128c-.239-.17-.499-.35-.768-.538-.29-.206-.565-.406-.825-.588l.117-.051c-.144 1.111-.275 1.9-.323 1.891h.003zM201.144 72.017s.006-.2.036-.538l.14-1.372.012-.122.105.071c.257.183.535.377.825.58.266.191.52.374.759.544l.11.078-.122.05a60.42 60.42 0 0 1-1.33.532c-.332.126-.529.192-.535.177-.006-.015.179-.11.499-.26.32-.15.777-.353 1.309-.583l-.012.128c-.239-.17-.499-.35-.768-.537-.29-.207-.565-.407-.825-.59l.117-.05c-.144 1.112-.275 1.9-.323 1.892h.003zM192.029 76.045s.006-.2.036-.538l.141-1.371.012-.123.104.072c.257.182.535.376.825.58l.759.543.111.078-.123.051a60.42 60.42 0 0 1-1.33.532c-.328.126-.529.191-.535.176-.006-.015.18-.11.499-.26.32-.15.777-.352 1.309-.582l-.012.128c-.239-.17-.499-.35-.768-.538-.29-.206-.564-.406-.824-.589l.116-.05c-.143 1.111-.275 1.9-.323 1.891h.003zM196.521 75.101s.006-.2.036-.538l.14-1.372.012-.122.105.072c.257.182.535.376.825.58l.759.543.11.078-.122.05c-.538.222-1.001.407-1.33.533-.332.125-.529.19-.535.176-.006-.015.179-.11.499-.26.32-.15.777-.353 1.309-.583l-.012.129c-.239-.17-.499-.35-.768-.538-.29-.206-.565-.407-.825-.589l.117-.05c-.144 1.111-.275 1.9-.323 1.891h.003zM188.704 74.03s.006-.2.036-.537c.038-.388.086-.849.14-1.372l.012-.122.105.072.824.58.759.543.111.078-.123.05c-.537.222-1.001.407-1.329.533-.332.125-.529.19-.535.176-.006-.015.179-.11.499-.26.319-.15.777-.353 1.309-.583l-.012.129c-.239-.17-.499-.35-.768-.538-.29-.206-.565-.407-.825-.589l.116-.05c-.143 1.11-.275 1.9-.322 1.89h.003zM206.326 65.359s-.194-.042-.523-.135l-1.321-.391-.119-.036.089-.09.724-.705.675-.646.099-.092.027.128c.116.568.215 1.058.274 1.408.063.346.09.556.075.559-.018.003-.078-.198-.164-.538a61.326 61.326 0 0 1-.332-1.396l.126.036c-.21.206-.437.424-.673.654-.257.245-.502.482-.732.7l-.027-.123c1.067.347 1.817.622 1.802.667z" fill="#FAFAFA"/>
        <path d="m177.937 128.3 1.312-2.537 4.766 2.427-1.88 3.732-.304-.131c-1.354-.598-6.838-3.129-7.582-3.843-.831-.798 3.685.352 3.685.352h.003z" fill="#E8505B"/>
        <path d="M180.426 131.005a1.858 1.858 0 0 1 1.126-.708 1.787 1.787 0 0 1 1.291.221l-.678 1.333-1.739-.846z" fill="#fff" opacity=".5"/>
        <path d="M175.695 127.81s-1.629-.313-1.569.012c.057.323 5.505 3.09 8.012 4.1l.048-.11-6.38-3.174s.161-.675-.111-.828z" fill="#fff" opacity=".4"/>
        <path d="M182.261 131.848s-.03-.009-.087-.033c-.072-.033-.152-.066-.242-.105l-.885-.403a97.025 97.025 0 0 1-5.726-2.905l-.848-.475c-.084-.051-.159-.093-.227-.135a.401.401 0 0 1-.078-.05c0-.003.03.012.084.038.071.036.146.078.233.123l.857.457a152.936 152.936 0 0 0 6.602 3.323c.086.042.167.081.236.117a.423.423 0 0 1 .081.045v.003z" fill="#263238"/>
        <path d="M175.767 128.713c-.018-.006.072-.221.048-.496-.021-.275-.144-.472-.126-.481.012-.012.171.182.192.478.023.296-.102.511-.114.502v-.003zM177.539 128.716c-.018 0-.045-.114-.057-.26-.015-.147-.012-.263.006-.266.018 0 .045.113.057.26.012.146.012.263-.006.266zM178.029 128.707c-.018.006-.066-.081-.11-.197-.045-.117-.069-.216-.051-.222.018-.006.066.081.11.198.045.116.069.215.051.221zM178.501 128.381c-.009.015-.125-.027-.266-.096-.137-.068-.245-.137-.236-.152.009-.015.126.027.266.096.137.068.245.137.236.152zM178.746 128.106c0 .018-.152.009-.319-.06-.168-.068-.278-.17-.266-.185.012-.015.131.057.292.126.159.065.296.101.293.119z" fill="#263238"/>
        <path d="M177.587 128.217s-.129-.039-.305-.159a1.837 1.837 0 0 1-.29-.239c-.048-.051-.104-.098-.146-.173a.182.182 0 0 1-.027-.135.135.135 0 0 1 .107-.098c.371 0 .58.311.613.517a.633.633 0 0 1-.003.254c-.015.06-.03.087-.033.087-.012 0 .042-.132-.006-.332a.605.605 0 0 0-.176-.302c-.093-.087-.242-.173-.377-.161-.065.012-.077.077-.039.137.033.057.09.111.135.161.096.099.191.18.275.242.167.126.284.186.278.195l-.006.006z" fill="#263238"/>
        <path d="M177.5 128.19s-.012-.099.072-.23a.586.586 0 0 1 .197-.183c.09-.041.206-.098.335-.026.065.044.059.143.024.188a.384.384 0 0 1-.123.11.93.93 0 0 1-.239.111c-.143.045-.239.042-.239.036 0-.009.09-.024.224-.078.066-.027.144-.066.221-.119.075-.045.162-.147.093-.198-.072-.047-.191-.009-.269.027a.57.57 0 0 0-.188.156c-.087.113-.099.206-.111.203l.003.003zM182.825 130.494s-.131-.084-.358-.168a1.737 1.737 0 0 0-.93-.074 1.743 1.743 0 0 0-.824.433c-.177.167-.254.302-.263.296a.373.373 0 0 1 .047-.096c.036-.059.096-.14.183-.23.17-.179.466-.388.845-.466a1.64 1.64 0 0 1 1.22.236.38.38 0 0 1 .083.069h-.003z" fill="#263238"/>
        <path d="M183.339 128.256c.015.008-.188.457-.457 1.001-.269.544-.499.98-.514.971-.015-.009.188-.457.457-1.001.269-.544.499-.98.514-.971zM180.064 130.237c-.006.015-.344-.09-.732-.284-.389-.194-.679-.397-.67-.409.009-.015.311.161.7.352.385.191.708.326.702.344v-.003zM181 130.709c.006.018-.06.054-.129.108-.069.053-.116.11-.134.101-.015-.009.015-.086.092-.152.078-.063.165-.075.168-.057H181zM181.573 130.449c.006.018-.051.051-.125.075-.075.024-.141.033-.147.015-.006-.018.051-.051.126-.075.074-.024.14-.03.146-.015zM182.18 130.506s-.075-.018-.159-.03c-.083-.012-.152 0-.158-.018-.009-.015.066-.063.167-.048.102.015.162.081.15.093v.003zM182.586 130.592c0 .018-.041.027-.089.024-.048-.006-.084-.024-.084-.041 0-.018.042-.027.09-.024.048.006.083.024.083.041z" fill="#263238"/>
        <path d="m209.237 129.32-1.136-2.621 4.895-2.161 1.704 3.816-.296.153c-1.318.672-6.745 3.32-7.77 3.442-1.142.141 2.603-2.632 2.603-2.632v.003z" fill="#E8505B"/>
        <path d="M212.906 129.098c-.11-.439-.05-.92.165-1.317.215-.401.559-.712.986-.861l.604 1.369-1.755.812v-.003z" fill="#fff" opacity=".5"/>
        <path d="M207.438 130.745s-1.273 1.064-.983 1.222c.286.159 5.875-2.31 8.242-3.616l-.057-.104-6.491 2.937s-.421-.552-.711-.439z" fill="#fff" opacity=".4"/>
        <path d="M214.717 128.211s-.027.018-.08.045c-.072.036-.147.077-.236.122l-.873.43a97.162 97.162 0 0 1-5.872 2.603c-.356.141-.661.26-.906.356-.092.033-.173.066-.248.093a.345.345 0 0 1-.086.027s.026-.015.083-.042c.072-.03.153-.066.242-.105.245-.101.544-.227.897-.376.759-.317 1.802-.759 2.949-1.267 1.145-.509 2.176-.984 2.92-1.333l.882-.413.239-.11c.056-.024.083-.036.086-.036l.003.006z" fill="#263238"/>
        <path d="M208.185 131.259c-.018.009-.126-.197-.353-.35-.227-.158-.457-.188-.454-.206 0-.015.248-.018.49.153.245.167.335.4.317.403zM209.306 129.887s-.117-.038-.237-.119c-.122-.081-.212-.159-.2-.173.009-.015.117.038.236.119.123.081.213.158.201.173zM209.607 129.505c-.006.018-.104 0-.224-.039-.116-.039-.209-.084-.203-.102.006-.018.105 0 .224.039.117.039.209.084.203.102zM209.655 128.931c.006.015-.101.081-.242.146-.14.066-.26.102-.269.087-.006-.015.102-.081.242-.146.141-.063.26-.102.269-.087zM209.595 128.566s-.087.123-.248.21c-.161.086-.308.107-.311.089-.006-.018.129-.066.281-.149.153-.081.266-.165.278-.153v.003z" fill="#263238"/>
        <path d="M208.95 129.535s-.111.074-.317.137c-.101.03-.227.06-.367.075-.072.006-.144.018-.227.006a.182.182 0 0 1-.12-.063.136.136 0 0 1-.009-.146c.233-.29.607-.254.789-.147a.586.586 0 0 1 .194.165c.036.047.048.08.045.08-.009.009-.075-.113-.263-.206a.634.634 0 0 0-.347-.057c-.125.015-.286.078-.364.191-.033.06.012.111.08.117.066.012.144 0 .21 0a2.15 2.15 0 0 0 .361-.06c.203-.051.323-.101.329-.092h.006z" fill="#263238"/>
        <path d="M208.875 129.585s-.084-.053-.131-.203a.559.559 0 0 1-.015-.269c.024-.095.053-.221.191-.275.078-.024.149.045.161.102a.387.387 0 0 1 .009.164 1.004 1.004 0 0 1-.065.257c-.057.141-.117.213-.123.207-.009-.006.039-.084.081-.222a1.24 1.24 0 0 0 .048-.248c.014-.086-.009-.218-.096-.197-.081.027-.129.141-.15.224a.648.648 0 0 0 0 .245c.033.138.099.207.09.215zM214.024 126.917s-.146.048-.356.173a1.759 1.759 0 0 0-.645.672 1.76 1.76 0 0 0-.185.915c.018.242.071.385.062.391a.378.378 0 0 1-.044-.098 1.633 1.633 0 0 1 .11-1.234 1.653 1.653 0 0 1 .953-.798.386.386 0 0 1 .105-.021zM212.62 125.103c.015-.006.233.433.487.986.254.553.445 1.007.427 1.013-.015.006-.233-.433-.487-.986-.251-.553-.445-1.007-.427-1.013zM212.079 128.892s-.287.206-.684.386c-.395.179-.736.275-.742.26-.006-.018.323-.141.715-.317.391-.176.699-.344.708-.329h.003z" fill="#263238"/>
        <path d="M213.038 128.468c.018.006.003.081.003.167 0 .087.012.162-.006.168-.015.006-.06-.066-.057-.168 0-.101.045-.173.06-.167zM213.199 127.858c.018.006.009.072-.021.144-.027.074-.062.128-.08.122-.018-.006-.009-.072.02-.146.027-.075.063-.129.081-.123v.003zM213.627 127.425c.003.018-.063.045-.123.104-.063.057-.095.12-.113.114-.018-.003-.006-.09.068-.161.075-.069.165-.072.168-.057zM213.952 127.165s-.003.051-.039.084c-.032.032-.071.05-.083.038-.012-.012.003-.05.039-.083.035-.033.071-.051.083-.039zM214.233 126.17l-6.888 3.915-9.655-19.35c-1.435-5.173-2.815-23.382-2.815-23.382l7.955.607s1.225 13.071 3.149 19.81l8.251 18.397.003.003z" fill="#263238"/>
        <path d="M206.789 79.404c.191-.012 1.587 5.388-.113 8.643-.165.316-1.387 2.082-1.387 2.082-4.336 5.117-8.729 15.038-9.954 17.647-2.517 5.346-11.79 22.939-11.79 22.939l-5.956-3.41 8.712-22.395 7.468-21.974 13.023-3.529-.003-.003z" fill="#263238"/>
        <path d="M202.877 93.225s-.098.153-.251.44l-.645 1.222a474.01 474.01 0 0 1-2.155 4.013 144.194 144.194 0 0 0-2.119 4.038c-.26.523-.466.947-.603 1.243-.138.296-.209.463-.2.466.009.006.098-.152.251-.439l.645-1.222a517.465 517.465 0 0 1 2.155-4.017 140.671 140.671 0 0 0 2.119-4.037c.26-.523.466-.948.603-1.243.138-.296.209-.464.2-.467v.003z" fill="#455A64"/>
        <path d="M186.435 74.138c-1.114-.11-2.45-.263-3.137-.43-1.276-.308-1.256-.424-1.196-.57.156-.39 2.265.457 1.91.011-.356-.445-2.693-.732-2.513-1.13.233-.516 2.426.407 2.617.473.186.063.284-.212.108-.26-.251-.072-2.884-.876-2.66-1.387.123-.284.61 0 .61 0s2.412.936 2.51.69c.099-.248-1.3-.845-1.784-1.016-.478-.167-.601-.463-.355-.615.167-.105 1.661.373 2.139.553.475.176 1.772.687 1.324-.09-.448-.777-.508-1.539-.385-1.754.125-.215.469-.11.496.164.024.224.176.586.298.852.102.221.24.424.41.598.146.152.281.28.403.394l1.064 1.007-.741 2.612-1.118-.105v.003z" fill="#FFBE9D"/>
        <path d="M199.817 45.788c-.382-.613-1.177-.834-1.897-.825-2.005.027-3.879 1.62-4.232 3.595-.143.81-.06 1.661-.314 2.444-.185.565-.534 1.058-.86 1.557-.326.5-.637 1.028-.723 1.617-.087.589.098 1.252.594 1.584-.582.595-.726 1.572-.34 2.31.385.738 1.273 1.174 2.091 1.034.437-.075.903-.29 1.294-.084.195.105.326.293.479.451.597.613 1.595.715 2.393.404.801-.311 1.423-.962 1.895-1.68.125-.188.29-.41.514-.385.131.012.236.107.341.191.783.613 2.023.517 2.704-.203.682-.72.705-1.967.048-2.714.714-.2 1.276-.81 1.512-1.515.236-.705.167-1.485-.084-2.184-.373-1.037-1.123-1.886-1.852-2.708-.67-.753-.867-1.915-1.539-2.668-.29-.326-.637-.724-1.25-.834-.427-.078-1.057.104-1.434.32" fill="#263238"/>
        <path d="M198.314 46.143c2.083 0 3.766 1.7 3.745 3.783l-.111 10.236c-.018 1.306-1.153 2.328-2.549 2.298-1.411-.03-2.555-1.12-2.561-2.439-.003-1.383-.033-2.839-.033-2.839s-1.781-.296-2.152-2.62c-.092-.586-.098-2.729-.083-4.707a3.743 3.743 0 0 1 3.744-3.712z" fill="#FFBE9D"/>
        <path d="M195.099 51.28a.297.297 0 0 0 .287.302.285.285 0 0 0 .308-.269.298.298 0 0 0-.287-.302.285.285 0 0 0-.308.27zM195.036 50.945c.036.04.263-.128.583-.128.319-.003.555.161.591.122.018-.017-.021-.086-.122-.161a.82.82 0 0 0-.936.003c-.098.075-.131.146-.113.164h-.003zM198.311 51.28a.298.298 0 0 0 .287.302.285.285 0 0 0 .308-.269.298.298 0 0 0-.287-.302.285.285 0 0 0-.308.27z" fill="#263238"/>
        <path d="M198.189 51.005c.036.039.263-.128.582-.128.32-.003.556.161.592.122.018-.018-.021-.086-.122-.161a.822.822 0 0 0-.473-.147c-.2 0-.367.075-.463.15-.098.075-.131.146-.113.164h-.003zM197.023 53.384c0-.018-.197-.054-.52-.093-.08-.009-.158-.024-.173-.08-.018-.06.015-.147.054-.242.078-.198.158-.407.242-.625.338-.888.58-1.62.544-1.632-.036-.012-.338.697-.676 1.584l-.233.628c-.03.092-.083.197-.042.322.021.06.084.105.135.12a.501.501 0 0 0 .14.018c.326.018.526.018.529 0z" fill="#263238"/>
        <path d="M196.802 57.182s1.563.102 3.114-.83c0 0-.756 1.595-3.084 1.38l-.033-.55h.003zM197.161 54.158a.58.58 0 0 1 .517-.215.52.52 0 0 1 .364.194c.084.114.102.275.027.383-.086.122-.269.15-.421.107-.152-.042-.284-.143-.409-.245a.353.353 0 0 1-.093-.096c-.021-.038-.027-.086 0-.119" fill="#EB996E"/>
        <path d="M197.968 53.608c-.051-.003-.054.347-.35.592-.299.248-.669.21-.672.257-.006.02.083.069.239.072a.88.88 0 0 0 .562-.195.753.753 0 0 0 .271-.496c.012-.146-.026-.233-.05-.23zM198.177 50.109c.033.086.352.045.729.092.376.04.681.15.732.07.021-.04-.03-.12-.152-.204a1.225 1.225 0 0 0-.541-.188 1.262 1.262 0 0 0-.571.065c-.137.057-.209.126-.194.165h-.003zM195.153 50.016c.056.072.277 0 .543-.006.266-.012.491.048.544-.027.024-.036-.012-.11-.11-.18a.75.75 0 0 0-.442-.119.754.754 0 0 0-.434.147c-.092.074-.125.15-.098.185h-.003z" fill="#263238"/>
        <path d="M202.898 49.867c-.164-1.408-.827-2.827-2.038-3.569-1.061-.651-2.142-.797-3.197-.224-.879-.14-1.808.174-2.466.774-.687.628-1.09 1.53-1.198 2.454-.105.923.075 1.865.418 2.728l.18-2.355c1.207-.514 2.528-1.527 2.997-2.755.454 1.653 1.844 3.042 3.523 3.434-.242 1.368.308 2.85 1.381 3.732.29-1.39.559-2.809.394-4.216l.006-.003z" fill="#263238"/>
        <path d="M201.356 51.26c.18.899-.128 1.816-.355 2.707-.227.89-.365 1.894.113 2.677.138.227.329.449.323.715-.006.236-.17.436-.242.66-.129.415.099.885.463 1.12.365.237.831.27 1.255.18.425-.087.819-.284 1.208-.475l1.132-.565c.168-.084.338-.17.475-.299.234-.218.344-.535.413-.843.266-1.204 0-2.492-.604-3.568-.607-1.076-.338-2.86-1.378-3.52" fill="#263238"/>
        <path d="M204.677 58.464c-.006-.02.245-.02.606-.239.177-.11.38-.278.55-.52a1.87 1.87 0 0 0 .347-.93 2.37 2.37 0 0 0-.203-1.186c-.09-.2-.204-.397-.347-.58-.143-.185-.314-.358-.49-.54-.173-.183-.356-.374-.511-.595a1.697 1.697 0 0 1-.311-.777c-.072-.574.146-1.139.054-1.688a1.037 1.037 0 0 0-.413-.667c-.215-.164-.472-.263-.729-.352-.52-.159-1.034-.365-1.455-.649-.855-.562-1.485-1.234-1.987-1.808a18.35 18.35 0 0 1-1.393-1.832c-.063-.095-.093-.146-.087-.15a.943.943 0 0 1 .114.13c.081.1.179.23.302.388.263.334.639.825 1.147 1.39.508.561 1.145 1.219 1.985 1.76.421.275.896.466 1.428.624.26.09.532.191.774.374.242.176.421.457.469.762.096.612-.122 1.171-.054 1.697.057.53.434.933.774 1.291.174.183.344.362.494.556.146.194.266.403.355.613.176.424.239.86.194 1.249-.041.391-.2.723-.385.968a1.884 1.884 0 0 1-.589.52 1.47 1.47 0 0 1-.466.17.679.679 0 0 1-.173.015v.006zM203.959 49.305s-.089-.01-.248-.051a6.612 6.612 0 0 1-.651-.218 10.009 10.009 0 0 1-3.724-2.534 6.365 6.365 0 0 1-.442-.526c-.096-.132-.147-.206-.138-.212.021-.015.251.256.661.66.406.406 1.001.932 1.727 1.425.726.49 1.435.852 1.961 1.082.525.23.863.347.857.37l-.003.004zM195.786 45.713c-.012-.015.108-.144.341-.308.23-.158.6-.356 1.052-.365.224-.003.439.042.615.129s.311.21.398.326c.179.239.176.436.158.436-.024.006-.063-.167-.242-.365a1.21 1.21 0 0 0-.926-.367c-.41.009-.76.173-.999.302-.239.134-.382.233-.397.215v-.003z" fill="#455A64"/>
        <path d="M63.343 97.37s1.963.087 1.276 4.435c-.688 4.348-1.405 6.622-1.405 6.622s-.056.975.718.873c.77-.102 2.292-.882 2.907-.096.637.816.251 1.907-.86 3.114-1.112 1.208-3.452 3.945-3.664 4.196-.206.245-.335.732.203.744.538.015 4.267-.783 4.542 1.007.275 1.79-3.38 4.65-3.771 4.97-.395.32-.44.547-.323.78.117.236 1.345-.152 2.418-.335 1.07-.182 2.343-.209 2.415.84.071 1.049-1.722 3.882-7.492 6.407l-2.75.995-2.277-1.856c-4.632-4.267-5.403-7.53-4.994-8.499.41-.968 1.605-.529 2.556-.006.953.523 1.987 1.288 2.175 1.106.188-.185.218-.412-.05-.843-.27-.43-2.789-4.324-1.946-5.929.843-1.604 4.109.365 4.623.526.514.162.55-.34.433-.639-.12-.305-1.437-3.655-2.095-5.158-.657-1.506-.67-2.663.2-3.225.837-.544 2.02.691 2.72 1.037.696.35.962-.591.962-.591s.063-2.385.831-6.718c.768-4.334 2.696-3.754 2.696-3.754" fill="#E8505B"/>
        <path d="M62.733 101.264s0 .027-.009.081l-.036.233-.146.894-.556 3.284c-.457 2.782-1.09 6.613-1.787 10.845a943.03 943.03 0 0 1-1.82 10.842c-.248 1.38-.448 2.498-.592 3.278l-.167.891-.048.23c-.012.05-.018.077-.02.077 0 0 0-.027.008-.08.01-.057.021-.135.036-.233l.147-.894c.131-.783.322-1.904.555-3.284.47-2.773 1.1-6.611 1.787-10.848.69-4.238 1.333-8.069 1.82-10.842.248-1.381.452-2.498.592-3.278.072-.383.129-.682.167-.891l.048-.23c.012-.051.018-.078.021-.078v.003z" fill="#263238"/>
        <path d="M64.757 110.379s-.219.209-.59.523l-1.44 1.234c-.561.484-1.072.918-1.455 1.219a13.25 13.25 0 0 1-.457.35c-.11.078-.176.12-.18.114-.008-.012.222-.207.586-.523l1.432-1.244a39.291 39.291 0 0 1 1.464-1.21c.191-.149.35-.269.46-.347.11-.077.174-.119.18-.113v-.003zM60.387 113.699c-.024.018-.896-1.058-1.948-2.406s-1.883-2.456-1.859-2.474c.024-.018.897 1.058 1.949 2.405 1.051 1.348 1.882 2.454 1.858 2.475zM59.52 121.233s-.071-.03-.19-.102c-.12-.072-.288-.179-.497-.317a26.065 26.065 0 0 1-1.569-1.138 23.686 23.686 0 0 1-1.479-1.255 11.068 11.068 0 0 1-.424-.407c-.099-.098-.15-.155-.144-.161.012-.012.245.188.622.508a49.043 49.043 0 0 0 3.042 2.388c.4.289.648.472.64.484zM64.135 119.099s-.245.143-.66.341a100.266 100.266 0 0 1-3.267 1.464c-.421.176-.687.281-.693.266-.006-.015.245-.144.66-.341a91.171 91.171 0 0 1 3.27-1.461c.42-.176.687-.281.693-.266l-.003-.003zM64.216 125.844s-.078.051-.225.122c-.17.081-.382.18-.63.296a152.726 152.726 0 0 1-4.205 1.835c-.254.105-.469.191-.645.26-.153.06-.24.09-.242.081-.003-.009.077-.051.224-.123l.63-.296c.535-.245 1.276-.573 2.098-.932.822-.359 1.566-.675 2.11-.902.254-.105.47-.192.645-.26.153-.06.24-.09.243-.081h-.003zM58.391 128.336s-.087-.045-.233-.143a20.89 20.89 0 0 1-.607-.431 40.267 40.267 0 0 1-1.936-1.515 38.333 38.333 0 0 1-1.844-1.626c-.23-.215-.412-.394-.535-.517a1.567 1.567 0 0 1-.185-.203c.006-.006.08.054.215.171l.559.49c.472.415 1.127.986 1.865 1.599.738.612 1.42 1.15 1.912 1.539l.586.46c.137.11.212.173.206.179l-.003-.003z" fill="#263238"/>
        <path d="M223.217 112.895c.876.38 1.521 1.189 1.844 2.089.323.899.353 1.883.245 2.83-.209 1.838-1.252 3.691-2.376 5.161-1.548-1.351-1.903-3.706-2.008-4.913-.167-1.907.69-5.454 2.295-5.17M224.729 126.008c-.248-1.037.185-2.178.98-2.887.798-.711 1.91-1.01 2.977-.929.493.039 1.025.182 1.306.586.263.379.233.908.02 1.318-.215.409-.582.714-.974.959-1.342.84-2.791 1.41-4.309.953" fill="#E8505B"/>
        <path d="M222.745 131.641s.012-.137.053-.376c.048-.266.111-.61.189-1.019.17-.852.391-2.074 1.052-3.261.654-1.183 1.569-2.053 2.34-2.486.382-.221.717-.353.953-.421.116-.039.212-.054.275-.069a.448.448 0 0 1 .098-.015c.012.03-.534.128-1.279.586-.744.445-1.628 1.306-2.271 2.468-.648 1.163-.881 2.364-1.076 3.213-.092.427-.17.774-.23 1.013-.059.239-.098.367-.107.367h.003z" fill="#263238"/>
        <path d="M222.801 115.653s.012.057.018.165c.006.122.018.278.027.472.021.412.045 1.007.069 1.742a162.9 162.9 0 0 1-.051 11.511c-.03.736-.06 1.33-.084 1.743-.011.194-.023.349-.032.472a.661.661 0 0 1-.021.164c-.006 0-.006-.057-.006-.164 0-.123.003-.281.006-.475.009-.428.024-1.019.042-1.743.035-1.473.074-3.505.086-5.752.009-2.248-.012-4.28-.036-5.753l-.027-1.742v-.475c0-.108.003-.165.009-.165z" fill="#263238"/>
        <path d="M222.051 127.126c-.352-2.224-1.849-4.232-3.878-5.206-.517-.248-1.193-.409-1.617-.024-.425.386-.332 1.076-.123 1.611.867 2.226 3.195 3.798 5.583 3.768" fill="#E8505B"/>
        <path d="M218.421 123.662s.119.042.328.144c.105.051.233.11.371.197.137.087.308.17.472.296.167.119.356.245.541.406.191.15.38.332.574.523.382.392.765.861 1.094 1.405.322.544.555 1.106.72 1.629.074.262.143.514.182.756.054.239.072.463.093.669.03.206.018.394.027.556.006.164-.003.305-.012.421-.018.23-.03.356-.039.356-.03 0 .021-.511-.069-1.324-.027-.203-.051-.424-.108-.657-.041-.237-.116-.482-.191-.742a8.016 8.016 0 0 0-.717-1.595 8.244 8.244 0 0 0-1.067-1.387c-.191-.191-.37-.374-.559-.523-.176-.161-.358-.293-.523-.415-.663-.476-1.129-.688-1.117-.715z" fill="#263238"/>
        <path d="M166.165 39.664h-59.601v59.6h59.601v-59.6z" fill="#F5F5F5"/>
        <path d="m166.165 99.262-.069-59.6.069.068c-17.321.003-37.774.006-59.595.012h-.006l.078-.078c-.003 21.825-.006 42.277-.012 59.601l-.069-.069c35.733.042 59.024.066 59.601.069l-59.601.069h-.069v-.069c-.003-17.32-.006-37.773-.012-59.6v-.079h.084c21.822.003 42.271.01 59.595.012h.069v.07c-.042 35.726-.066 59.023-.069 59.6l.006-.006z" fill="#263238"/>
        <path d="M160.819 95.712c0-.042.804-.078 1.793-.078l-.078.078v-.362c0-.113.003-.227.006-.337l.018-.571c.015-.326.033-.526.054-.526.021 0 .042.2.054.526l.018.57c0 .111 0 .222.006.338v.362l-.078.078c-.989 0-1.793-.036-1.793-.078zM153.297 95.712c0-.042.843-.078 1.88-.078s1.882.036 1.882.078-.842.077-1.882.077-1.88-.035-1.88-.077zM145.772 95.712c0-.042.843-.078 1.88-.078s1.882.036 1.882.078-.842.077-1.882.077-1.88-.035-1.88-.077zM138.247 95.712c0-.042.843-.078 1.88-.078s1.882.036 1.882.078-.842.077-1.882.077-1.88-.035-1.88-.077zM130.722 95.712c0-.042.843-.078 1.88-.078s1.883.036 1.883.078-.843.077-1.883.077-1.88-.035-1.88-.077zM123.198 95.712c0-.042.842-.078 1.879-.078s1.883.036 1.883.078-.843.077-1.883.077-1.879-.035-1.879-.077zM115.673 95.712c0-.042.843-.078 1.88-.078s1.882.036 1.882.078-.842.077-1.882.077-1.88-.035-1.88-.077zM110.117 93.919c.042 0 .078.804.078 1.793l-.078-.078h.362c.113.003.227.006.338.006l.57.018c.326.015.526.033.526.054 0 .02-.2.042-.526.053l-.57.019c-.111 0-.222.002-.338.005h-.362c-.036-.032.078.081-.077-.077 0-.99.035-1.793.077-1.793zM110.117 86.394c.042 0 .078.843.078 1.88s-.036 1.882-.078 1.882-.077-.842-.077-1.882.035-1.88.077-1.88zM110.117 78.87c.042 0 .078.842.078 1.879s-.036 1.883-.078 1.883-.077-.843-.077-1.883.035-1.88.077-1.88zM110.117 71.344c.042 0 .078.843.078 1.88s-.036 1.883-.078 1.883-.077-.843-.077-1.883.035-1.88.077-1.88zM110.117 63.82c.042 0 .078.842.078 1.88 0 1.036-.036 1.882-.078 1.882s-.077-.843-.077-1.883.035-1.88.077-1.88zM110.117 56.295c.042 0 .078.842.078 1.88 0 1.036-.036 1.882-.078 1.882s-.077-.843-.077-1.883.035-1.88.077-1.88zM110.117 48.77c.042 0 .078.842.078 1.88 0 1.037-.036 1.882-.078 1.882s-.077-.842-.077-1.882.035-1.88.077-1.88zM111.91 43.215c0 .041-.804.077-1.793.077l.078-.077v.361c-.003.114-.006.227-.006.338l-.018.57c-.015.326-.033.527-.054.527-.021 0-.042-.2-.054-.526l-.017-.571c0-.11-.003-.221-.006-.338v-.361c.035-.036-.078.077.077-.078.989 0 1.793.036 1.793.078zM119.435 43.214c0 .042-.842.078-1.879.078s-1.883-.036-1.883-.078c0-.041.843-.077 1.883-.077s1.879.036 1.879.077zM126.96 43.214c0 .042-.843.078-1.88.078s-1.882-.036-1.882-.078c0-.041.842-.077 1.882-.077s1.88.036 1.88.077zM134.485 43.214c0 .042-.843.078-1.88.078s-1.883-.036-1.883-.078c0-.041.843-.077 1.883-.077s1.88.036 1.88.077zM142.009 43.214c0 .042-.842.078-1.879.078s-1.883-.036-1.883-.078c0-.041.843-.077 1.883-.077s1.879.036 1.879.077zM149.534 43.214c0 .042-.842.078-1.879.078s-1.883-.036-1.883-.078c0-.041.843-.077 1.883-.077s1.879.036 1.879.077zM157.056 43.214c0 .042-.842.078-1.879.078s-1.883-.036-1.883-.078c0-.041.843-.077 1.883-.077s1.879.036 1.879.077zM162.611 45.008c-.041 0-.077-.804-.077-1.794l.077.078h-.361a12.925 12.925 0 0 0-.338-.006l-.571-.018c-.325-.015-.526-.033-.526-.054 0-.02.201-.041.526-.053l.571-.018c.111 0 .221-.003.338-.006h.361c.036.033-.077-.078.078.077 0 .99-.036 1.794-.078 1.794zM162.612 52.532c-.042 0-.078-.842-.078-1.88 0-1.037.036-1.882.078-1.882s.078.842.078 1.883c0 1.04-.036 1.88-.078 1.88zM162.612 60.057c-.042 0-.078-.843-.078-1.88s.036-1.882.078-1.882.078.842.078 1.882-.036 1.88-.078 1.88zM162.612 67.582c-.042 0-.078-.843-.078-1.88s.036-1.882.078-1.882.078.842.078 1.882-.036 1.88-.078 1.88zM162.612 75.107c-.042 0-.078-.843-.078-1.88s.036-1.883.078-1.883.078.843.078 1.883-.036 1.88-.078 1.88zM162.612 82.632c-.042 0-.078-.843-.078-1.88s.036-1.883.078-1.883.078.843.078 1.883-.036 1.88-.078 1.88zM162.612 90.156c-.042 0-.078-.842-.078-1.88 0-1.036.036-1.882.078-1.882s.078.843.078 1.883-.036 1.88-.078 1.88z" fill="#455A64"/>
        <path d="M133.806 59.355s-.107.006-.304-.039a1.558 1.558 0 0 1-.768-.436 1.61 1.61 0 0 1-.479-1.297 1.41 1.41 0 0 1 .38-.801c.218-.23.529-.415.902-.424l-.059.056c-.006-.406.015-.884.313-1.276a1.13 1.13 0 0 1 .613-.394c.245-.063.502-.063.759-.01l-.084.075c-.053-.531.126-1.13.583-1.506.221-.19.49-.325.774-.406l.215-.06.221-.036c.147-.03.296-.039.449-.044.597-.024 1.249.038 1.805.388.272.18.499.43.654.72.159.293.242.619.275.95.012.144.018.287.006.434l-.081-.087c.592-.027 1.202.114 1.668.466.469.35.777.846.98 1.348.108.245.179.532.153.804a1.606 1.606 0 0 1-.26.753c-.29.445-.774.72-1.259.777h-.006c-2.217.021-4.076.039-5.394.05-.642 0-1.153 0-1.515.004-.167 0-.299-.003-.4-.006a.553.553 0 0 1-.138-.01.63.63 0 0 1 .138-.011l.4-.015c.365-.009.876-.024 1.515-.042l5.391-.107h-.006a1.61 1.61 0 0 0 1.154-.72c.272-.407.32-.948.09-1.423-.198-.484-.496-.956-.936-1.28-.436-.328-1.004-.462-1.569-.435h-.089l.009-.087a2.241 2.241 0 0 0-.006-.4c-.051-.628-.353-1.226-.861-1.555-.514-.322-1.136-.391-1.715-.367-.577.03-1.163.15-1.572.505-.419.338-.589.896-.544 1.378l.009.095-.093-.02c-.46-.105-.977 0-1.24.349-.272.344-.305.8-.299 1.195v.057h-.06a1.21 1.21 0 0 0-.824.383 1.325 1.325 0 0 0-.365.74 1.55 1.55 0 0 0 .433 1.244c.26.275.541.397.733.448.191.054.298.06.298.069l.006.006z" fill="#263238"/>
        <path d="M138.857 57.553c-.033.027-.661-.625-1.414-1.465h.114l-.027.033c-.801.822-1.473 1.465-1.503 1.435-.03-.03.592-.72 1.393-1.542l.026-.03.057-.06.057.063c.75.84 1.33 1.539 1.297 1.569v-.003z" fill="#263238"/>
        <path d="M137.5 61.043c-.042 0-.078-1.12-.078-2.504s.036-2.504.078-2.504.078 1.12.078 2.504-.036 2.504-.078 2.504z" fill="#263238"/>
        <path d="M136.448 80.581h-16.842c-.58 0-1.052-.472-1.052-1.052 0-.58.472-1.051 1.052-1.051h16.842c.58 0 1.052.472 1.052 1.052 0 .58-.472 1.051-1.052 1.051z" fill="#E8505B"/>
        <path d="M132.557 82.945v1.118h-.191v-.17a.456.456 0 0 1-.379.182c-.29 0-.482-.159-.482-.487v-.643h.204v.622c0 .218.11.328.301.328.213 0 .347-.131.347-.37v-.58h.203-.003zM134.105 83.504c0 .344-.239.57-.565.57a.474.474 0 0 1-.391-.181v.58h-.203v-1.528h.194v.177a.471.471 0 0 1 .398-.189c.328 0 .564.227.564.571h.003zm-.203 0c0-.236-.161-.391-.376-.391-.216 0-.377.155-.377.391 0 .236.161.395.377.395.215 0 .376-.156.376-.395zM134.386 82.497h.203v1.566h-.203v-1.566zM134.874 83.504c0-.335.248-.57.582-.57.335 0 .58.235.58.57 0 .335-.245.57-.58.57a.559.559 0 0 1-.582-.57zm.959 0c0-.239-.162-.391-.377-.391s-.376.155-.376.391c0 .236.161.395.376.395s.377-.156.377-.395zM137.192 83.39v.676h-.191v-.147c-.069.102-.191.162-.367.162-.254 0-.413-.135-.413-.329 0-.18.117-.326.448-.326h.32v-.039c0-.17-.098-.269-.299-.269a.576.576 0 0 0-.355.12l-.084-.152a.751.751 0 0 1 .463-.144c.305 0 .478.147.478.454v-.006zm-.203.335v-.155h-.314c-.2 0-.257.077-.257.173 0 .11.093.182.248.182.156 0 .272-.068.323-.197v-.003zM138.633 82.497v1.566h-.195v-.177a.473.473 0 0 1-.4.192.544.544 0 0 1-.565-.571c0-.34.239-.57.565-.57.158 0 .299.059.391.178V82.5h.204v-.003zm-.201 1.007c0-.24-.161-.392-.376-.392s-.377.156-.377.392c0 .236.162.394.377.394s.376-.155.376-.394zM138.982 82.599c0-.075.06-.132.138-.132.078 0 .137.057.137.129a.132.132 0 0 1-.137.134c-.081 0-.138-.057-.138-.132zm.036.346h.203v1.118h-.203v-1.118zM140.668 83.42v.643h-.203v-.622c0-.218-.111-.325-.302-.325-.215 0-.356.128-.356.37v.577h-.203v-1.118h.194v.17c.084-.113.227-.179.404-.179.272 0 .463.156.463.484h.003zM142.123 82.945v.969c0 .394-.2.573-.58.573-.206 0-.412-.056-.534-.167l.095-.155a.68.68 0 0 0 .43.146c.263 0 .386-.123.386-.377v-.09a.512.512 0 0 1-.403.174c-.323 0-.568-.221-.568-.544 0-.323.245-.54.568-.54.167 0 .319.06.412.182v-.174h.191l.003.003zm-.197.53c0-.219-.161-.365-.386-.365-.224 0-.385.146-.385.364s.161.365.385.365c.225 0 .386-.15.386-.365zM142.416 83.931c0-.083.066-.143.143-.143a.14.14 0 0 1 .141.143.142.142 0 1 1-.284 0zM142.894 83.931c0-.083.066-.143.143-.143a.14.14 0 0 1 .141.143.142.142 0 1 1-.284 0zM143.375 83.931c0-.083.066-.143.144-.143.078 0 .14.06.14.143a.141.141 0 0 1-.14.147.143.143 0 0 1-.144-.147z" fill="#263238"/>
        <path d="M136.212 76.36c0 .355-.251.639-.777.639-.29 0-.579-.093-.756-.248l.135-.234a.924.924 0 0 0 .615.222c.311 0 .487-.144.487-.368s-.146-.376-.621-.376h-.466l.107-1.076h1.16v.254h-.915l-.057.564h.231c.612 0 .854.258.854.62l.003.002zM136.458 75.947c0-.67.358-1.053.839-1.053s.837.383.837 1.052c0 .67-.359 1.052-.837 1.052s-.839-.382-.839-1.052zm1.383 0c0-.526-.224-.79-.544-.79-.319 0-.547.264-.547.79 0 .525.225.788.547.788.323 0 .544-.263.544-.788zM138.382 75.462c0-.335.194-.562.478-.562s.475.224.475.562c0 .338-.191.562-.475.562s-.478-.227-.478-.562zm.765 0c0-.248-.108-.394-.287-.394s-.287.15-.287.394c0 .245.111.395.287.395s.287-.147.287-.395zm.95-.544h.227l-1.404 2.056h-.227l1.404-2.056zm-.415 1.512c0-.334.191-.561.475-.561s.478.227.478.561c0 .335-.194.562-.478.562s-.475-.227-.475-.562zm.765 0c0-.245-.111-.394-.287-.394s-.287.146-.287.394c0 .248.108.395.287.395s.287-.15.287-.395z" fill="#E8505B"/>
        <path d="M153.993 80.582s.066 0 .191-.027a1.04 1.04 0 0 0 .834-1.07 1.026 1.026 0 0 0-.708-.924c-.221-.074-.475-.042-.741-.048-.266 0-.544 0-.834.003-.583 0-1.213.003-1.892.006-1.359.003-2.904.006-4.614.012l-26.71.024a.983.983 0 0 0-.78.389.98.98 0 0 0-.159.852.978.978 0 0 0 1.017.708h4.228a29193.192 29193.192 0 0 1 19.099.024c3.416.009 6.18.018 8.096.024l2.202.015.574.009c.128 0 .194.009.194.009s-.066.006-.194.008c-.135 0-.326.003-.574.01-.508.002-1.249.008-2.202.014-1.916.006-4.683.015-8.096.024-3.419.006-7.489.01-12.007.018-2.26 0-4.632 0-7.092.006h-4.228a1.137 1.137 0 0 1-1.169-.822 1.12 1.12 0 0 1 .185-.986c.207-.28.553-.451.903-.451l26.71.024c1.71.003 3.255.009 4.614.012.679 0 1.309.003 1.892.006.29 0 .568 0 .834.003.263.009.523-.024.759.056.475.159.732.607.735.98a1.058 1.058 0 0 1-.879 1.089c-.128.02-.194.012-.194.012l.006-.01z" fill="#263238"/>
        <path d="M122.491 68.7h-.542l.826-2.391h.651l.824 2.39h-.542l-.598-1.844h-.019l-.6 1.845zm-.034-.94h1.279v.394h-1.279v-.394zM125.106 68.729a.676.676 0 0 1-.37-.105.73.73 0 0 1-.262-.312 1.198 1.198 0 0 1-.096-.507c0-.205.034-.376.1-.512a.673.673 0 0 1 .627-.41c.1 0 .184.017.251.051a.486.486 0 0 1 .163.127c.042.05.074.098.096.147h.015v-.9h.496V68.7h-.49v-.288h-.021a.662.662 0 0 1-.1.149.488.488 0 0 1-.164.12.568.568 0 0 1-.245.048zm.157-.396c.08 0 .148-.022.203-.065a.418.418 0 0 0 .129-.186.787.787 0 0 0 .045-.279c0-.107-.014-.2-.044-.278a.402.402 0 0 0-.128-.182.329.329 0 0 0-.205-.064.322.322 0 0 0-.206.066.41.41 0 0 0-.128.185.811.811 0 0 0-.043.273c0 .104.015.197.043.277.03.08.072.141.128.186a.322.322 0 0 0 .206.067zM127.196 68.729a.674.674 0 0 1-.37-.105.73.73 0 0 1-.262-.312 1.198 1.198 0 0 1-.096-.507c0-.205.033-.376.1-.512a.714.714 0 0 1 .263-.307.678.678 0 0 1 .614-.052.48.48 0 0 1 .164.127c.042.05.074.098.096.147h.015v-.9h.496V68.7h-.49v-.288h-.021a.662.662 0 0 1-.1.149.498.498 0 0 1-.164.12.568.568 0 0 1-.245.048zm.157-.396c.08 0 .148-.022.203-.065a.418.418 0 0 0 .129-.186.787.787 0 0 0 .045-.279c0-.107-.015-.2-.044-.278a.403.403 0 0 0-.129-.182.326.326 0 0 0-.204-.064.32.32 0 0 0-.206.066.41.41 0 0 0-.128.185.811.811 0 0 0-.043.273c0 .104.015.197.043.277.03.08.072.141.128.186a.32.32 0 0 0 .206.067zM129.395 68.7v-2.391h.943c.181 0 .336.035.464.104a.706.706 0 0 1 .291.286.845.845 0 0 1 .102.42.835.835 0 0 1-.103.42.71.71 0 0 1-.297.284c-.13.068-.286.101-.47.101h-.601v-.405h.52a.51.51 0 0 0 .24-.05.33.33 0 0 0 .142-.141.441.441 0 0 0 .048-.209.43.43 0 0 0-.048-.208.317.317 0 0 0-.142-.139.521.521 0 0 0-.243-.05h-.341V68.7h-.505zM131.514 68.7v-1.794h.482v.313h.019a.433.433 0 0 1 .43-.339.766.766 0 0 1 .157.018v.442a.874.874 0 0 0-.21-.027.396.396 0 0 0-.196.048.356.356 0 0 0-.185.324V68.7h-.497zM133.586 68.735a.918.918 0 0 1-.471-.116.789.789 0 0 1-.304-.325 1.04 1.04 0 0 1-.108-.484c0-.185.036-.347.108-.486a.78.78 0 0 1 .304-.324.911.911 0 0 1 .471-.117c.181 0 .337.04.469.117a.784.784 0 0 1 .306.324c.071.139.107.3.107.486 0 .184-.036.345-.107.484a.793.793 0 0 1-.306.325.913.913 0 0 1-.469.116zm.002-.386a.312.312 0 0 0 .207-.07.435.435 0 0 0 .124-.194.83.83 0 0 0 .044-.278.832.832 0 0 0-.044-.28.434.434 0 0 0-.124-.193.309.309 0 0 0-.207-.071.317.317 0 0 0-.21.07.43.43 0 0 0-.127.195.86.86 0 0 0-.042.278c0 .105.014.198.042.28a.431.431 0 0 0 .127.193.32.32 0 0 0 .21.07zM135.452 68.729a.679.679 0 0 1-.37-.105.722.722 0 0 1-.261-.312 1.198 1.198 0 0 1-.096-.507c0-.205.033-.376.099-.512a.678.678 0 0 1 .878-.358.476.476 0 0 1 .163.126c.042.05.074.098.096.147h.015v-.9h.496V68.7h-.49v-.288h-.021a.625.625 0 0 1-.099.149.492.492 0 0 1-.165.12.565.565 0 0 1-.245.048zm.158-.396c.08 0 .148-.022.203-.065a.41.41 0 0 0 .128-.186.765.765 0 0 0 .046-.279c0-.107-.015-.2-.044-.278a.403.403 0 0 0-.129-.182.326.326 0 0 0-.204-.064.323.323 0 0 0-.207.066.409.409 0 0 0-.127.185.787.787 0 0 0-.043.273c0 .104.014.197.043.277.03.08.072.141.127.186a.323.323 0 0 0 .207.067zM138.031 67.936v-1.03h.497V68.7h-.477v-.326h-.019a.522.522 0 0 1-.202.253.59.59 0 0 1-.342.096.567.567 0 0 1-.53-.314.815.815 0 0 1-.077-.36v-1.143h.498v1.053c0 .106.029.19.085.251a.29.29 0 0 0 .225.093c.06 0 .116-.014.168-.041a.322.322 0 0 0 .126-.124.374.374 0 0 0 .048-.202zM139.736 68.735a.922.922 0 0 1-.474-.117.793.793 0 0 1-.303-.327c-.07-.14-.105-.3-.105-.481 0-.184.035-.345.106-.483a.79.79 0 0 1 .305-.326.896.896 0 0 1 .469-.118c.156 0 .293.029.411.085.117.057.21.137.279.24a.707.707 0 0 1 .113.362h-.469a.36.36 0 0 0-.105-.216.302.302 0 0 0-.221-.083.334.334 0 0 0-.202.063.4.4 0 0 0-.133.18.772.772 0 0 0-.048.289.81.81 0 0 0 .047.292.41.41 0 0 0 .134.183.335.335 0 0 0 .202.063.328.328 0 0 0 .153-.035.29.29 0 0 0 .113-.101.376.376 0 0 0 .06-.163h.469a.736.736 0 0 1-.112.362.673.673 0 0 1-.274.243.918.918 0 0 1-.415.088zM141.809 66.906v.374h-1.079v-.374h1.079zm-.834-.43h.497v1.673c0 .046.007.081.021.107a.115.115 0 0 0 .058.052c.026.01.056.016.089.016a.424.424 0 0 0 .07-.006l.054-.01.078.37c-.025.007-.06.016-.105.026a.846.846 0 0 1-.165.02.754.754 0 0 1-.315-.048.444.444 0 0 1-.209-.17.518.518 0 0 1-.073-.292v-1.737zM143.409 66.309v2.39h-.506v-2.39h.506zM143.815 68.7v-1.794h.474v.317h.021a.502.502 0 0 1 .5-.34c.123 0 .228.03.314.092.086.061.144.144.173.248h.018a.478.478 0 0 1 .199-.246.614.614 0 0 1 .342-.094c.167 0 .303.053.407.16.105.106.158.256.158.45V68.7h-.496v-1.108c0-.1-.027-.175-.08-.224a.278.278 0 0 0-.198-.075.265.265 0 0 0-.211.086.324.324 0 0 0-.076.226V68.7h-.482V67.58a.292.292 0 0 0-.076-.21.261.261 0 0 0-.197-.078.273.273 0 0 0-.15.042.296.296 0 0 0-.104.116.376.376 0 0 0-.038.172V68.7h-.498zM147.325 68.733a.75.75 0 0 1-.306-.06.493.493 0 0 1-.212-.178.53.53 0 0 1-.077-.296c0-.1.018-.183.055-.251a.438.438 0 0 1 .149-.164.726.726 0 0 1 .215-.093c.081-.021.166-.036.254-.044.105-.011.189-.021.252-.03a.351.351 0 0 0 .139-.045.097.097 0 0 0 .043-.087v-.007a.214.214 0 0 0-.07-.171c-.045-.04-.111-.06-.196-.06-.089 0-.16.02-.213.059a.273.273 0 0 0-.105.147l-.46-.038a.625.625 0 0 1 .402-.467c.109-.043.235-.065.379-.065.099 0 .195.012.286.035.091.023.173.06.244.109a.53.53 0 0 1 .231.463v1.21h-.472v-.25h-.014a.511.511 0 0 1-.289.248.723.723 0 0 1-.235.035zm.142-.343a.416.416 0 0 0 .194-.043c.056-.03.1-.07.132-.119a.307.307 0 0 0 .048-.17v-.19a.275.275 0 0 1-.064.028 1.292 1.292 0 0 1-.19.04l-.092.013a.602.602 0 0 0-.152.04.243.243 0 0 0-.102.077.185.185 0 0 0-.036.116c0 .068.024.12.073.156.05.035.113.052.189.052zM149.528 69.41c-.161 0-.299-.023-.414-.067a.692.692 0 0 1-.273-.179.544.544 0 0 1-.132-.254l.46-.062a.304.304 0 0 0 .187.175c.05.02.112.03.184.03a.43.43 0 0 0 .267-.08c.071-.052.107-.14.107-.263v-.328h-.021a.487.487 0 0 1-.267.25.644.644 0 0 1-.245.042.666.666 0 0 1-.63-.382 1.099 1.099 0 0 1-.097-.493c0-.203.033-.372.099-.508a.71.71 0 0 1 .264-.306.684.684 0 0 1 .615-.05.49.49 0 0 1 .164.126.69.69 0 0 1 .097.147h.018v-.302h.494v1.811c0 .153-.037.28-.112.383a.674.674 0 0 1-.311.231 1.221 1.221 0 0 1-.454.078zm.011-1.11c.08 0 .148-.02.203-.06a.374.374 0 0 0 .128-.172.712.712 0 0 0 .046-.27.775.775 0 0 0-.044-.274.404.404 0 0 0-.129-.18.326.326 0 0 0-.204-.065.323.323 0 0 0-.207.066.401.401 0 0 0-.127.183.77.77 0 0 0-.043.27c0 .103.014.192.043.268.03.074.072.132.127.174.056.04.125.06.207.06zM151.618 68.735a.958.958 0 0 1-.476-.112.76.76 0 0 1-.306-.32 1.053 1.053 0 0 1-.108-.492c0-.184.036-.346.108-.485a.789.789 0 0 1 .302-.326.883.883 0 0 1 .46-.117.93.93 0 0 1 .33.057.73.73 0 0 1 .449.454c.043.114.064.247.064.4v.136h-1.514v-.308h1.046a.383.383 0 0 0-.047-.19.334.334 0 0 0-.129-.13.371.371 0 0 0-.191-.048.375.375 0 0 0-.336.191.391.391 0 0 0-.05.193v.293a.5.5 0 0 0 .049.23c.033.065.08.115.141.15a.426.426 0 0 0 .216.052.472.472 0 0 0 .152-.023.317.317 0 0 0 .118-.07.31.31 0 0 0 .074-.114l.46.03a.627.627 0 0 1-.143.29.722.722 0 0 1-.278.19 1.048 1.048 0 0 1-.391.069z" fill="#858585"/>
    </g>
    <defs>
        <clipPath id="zdxiautpqa">
            <path fill="#fff" transform="translate(37 17)" d="M0 0h201.771v115H0z"/>
        </clipPath>
    </defs>
</svg>
