<svg width="275" height="148" viewBox="0 0 275 148" fill="none" xmlns="http://www.w3.org/2000/svg">
    <g clip-path="url(#oepdmeyjya)">
        <rect width="275" height="148" rx="8" fill="#AED3FF"/>
        <g clip-path="url(#n1y4rhmheb)">
            <path d="M198.955 4H75.611v82.075h123.344V4z" fill="#E0E0E0"/>
            <path d="M195.217 7.667H71.873v82.075h123.344V7.667zM79.42 114.738c1.182-.61 2.576-.689 3.888-.473.705.117 1.442.327 1.921.858.48.53.572 1.461.02 1.919-.328.27-.785.312-1.21.308-1.03-.012-2.17-.194-2.99.426-.47.353-.78.941-1.34 1.112-.55.169-1.166-.152-1.458-.648-.292-.496-.302-1.112-.165-1.671 0 0 .143-1.217 1.334-1.831zM76.71 109.504c.725 1.033 2.129.693 2.78.061.65-.633.927-1.545 1.178-2.418.572-1.993 1.15-4.084.724-6.111-.127-.607-.352-1.211-.781-1.662-.426-.451-1.08-.718-1.68-.56-.709.188-1.15.884-1.468 1.542a14.54 14.54 0 0 0-1.438 6.25c-.004 1.008.114 2.063.682 2.895M74.722 110.988c.785-.931.934-2.291.585-3.46-.35-1.17-1.14-2.161-2.049-2.975a11.058 11.058 0 0 0-3.669-2.164c-.53-.187-1.089-.333-1.648-.279-.56.054-1.124.34-1.385.839-.387.737-.016 1.63.384 2.358a27.857 27.857 0 0 0 2.411 3.67c.721.931 1.55 1.849 2.65 2.272 1.101.419 2.245.372 2.826-.391" fill="#EBEBEB"/>
            <path d="M76.66 125.094s.035-.165.067-.47c.031-.343.076-.772.123-1.281.06-.54.14-1.182.29-1.881.149-.696.384-1.452.682-2.218.312-.762.69-1.455 1.134-2.008.439-.556.95-.96 1.433-1.192a3.94 3.94 0 0 1 1.207-.375c.298-.032.467-.054.467-.067 0-.012-.169-.015-.477-.006a3.66 3.66 0 0 0-1.257.327c-.505.226-1.049.633-1.51 1.202-.463.565-.857 1.274-1.174 2.046a13.313 13.313 0 0 0-.677 2.256c-.143.712-.206 1.36-.25 1.904-.042.543-.058.985-.064 1.29-.007.305-.004.473.01.473h-.004z" fill="#E0E0E0"/>
            <path d="M76.748 124.109s.01-.076.013-.219v-.623c0-.54 0-1.322.029-2.291.047-1.932.212-4.013.536-6.946.305-2.759.712-5.968 1.144-8.053.092-.473.184-.902.273-1.274.083-.375.156-.699.222-.96l.147-.607c.031-.14.044-.213.038-.216-.007 0-.032.07-.077.204l-.18.597c-.08.261-.163.581-.258.953-.098.372-.2.798-.302 1.271-.425 1.891-.876 4.532-1.2 7.471-.321 2.94-.467 5.615-.48 7.554-.013.969.01 1.754.035 2.294.016.254.029.458.038.623.01.143.02.216.026.216l-.004.006z" fill="#E0E0E0"/>
            <path d="M76.761 118.949s.013-.232-.003-.652a18.616 18.616 0 0 0-.2-1.763 23.27 23.27 0 0 0-.572-2.571c-.118-.436-.397-1.481-1.074-3.041-.889-2.114-2.099-3.842-3.154-4.913-.247-.283-.52-.49-.743-.69-.114-.095-.216-.194-.317-.267l-.29-.197c-.346-.238-.54-.362-.546-.349-.031.041.775.518 1.795 1.601 1.016 1.084 2.191 2.8 3.074 4.897a24.294 24.294 0 0 1 1.08 3.013 25.229 25.229 0 0 1 .87 4.293c.039.416.067.645.08.645v-.006zM71.774 128.053l.518 7.083h9.097l.518-7.083H71.774zM82.994 125.26H70.898v2.793h12.096v-2.793z" fill="#E0E0E0"/>
            <path d="M70.898 134.866v.772h11.895v-.772H70.898z" fill="#EBEBEB"/>
            <path d="m72.023 137.001-.556-1.363h10.891l-.648 1.363h-9.687z" fill="#E0E0E0"/>
            <path d="M81.739 130.366s-.013.023-.042.064l-.136.181c-.13.165-.309.394-.53.68l-.023.032-.022-.032-1.303-1.802h.077l-1.284 1.815-.04.057-.045-.054c-.474-.562-.988-1.176-1.522-1.808h.09l-.083.105-1.36 1.706-.044.057-.042-.06c-.46-.655-.892-1.265-1.283-1.814h.073c-.632.724-1.169 1.334-1.578 1.805l-.029.031-.022-.035c-.21-.349-.375-.629-.496-.832l-.127-.223c-.028-.05-.041-.076-.038-.079 0 0 .02.022.054.07l.14.213c.127.197.302.473.518.816h-.051c.403-.479.93-1.096 1.553-1.827l.038-.044.035.051c.394.549.83 1.156 1.293 1.808h-.086c.432-.544.886-1.119 1.356-1.71.029-.035.058-.073.083-.105l.044-.054.045.054c.53.636 1.045 1.249 1.515 1.815h-.086c.467-.649.902-1.259 1.296-1.802l.038-.054.038.054c.512.734.95 1.354 1.274 1.821h-.048c.232-.28.416-.502.553-.664l.146-.172a.327.327 0 0 1 .054-.054l.007-.01zM82.034 128.005c0 .032-2.28.057-5.092.057-2.81 0-5.091-.025-5.091-.057s2.277-.057 5.091-.057 5.092.025 5.092.057zM82.492 135.714c0 .032-2.478.058-5.533.058-3.056 0-5.533-.026-5.533-.058 0-.031 2.477-.057 5.533-.057 3.055 0 5.533.026 5.533.057z" fill="#F5F5F5"/>
            <path d="M201.138 137.002c0 .044-30.479.082-68.067.082-37.588 0-68.074-.038-68.074-.082 0-.045 30.473-.083 68.074-.083 37.6 0 68.067.038 68.067.083z" fill="#263238"/>
            <path d="M191.002 11.928H67.658v81.487h123.344V11.928z" fill="#FAFAFA"/>
            <path d="m191.005 93.412-.066-81.487.066.067c-33.893.003-76.802.01-123.334.016h-.01l.083-.083c0 28.997-.003 56.583-.006 81.487l-.076-.076 123.343.076-123.343.077h-.077v-.077c0-24.904-.003-52.49-.006-81.487v-.082h.092l123.334.016h.067v.066l-.067 81.487z" fill="#263238"/>
            <path d="m78.21 20.293.159-.36c.2.16.514.274.822.274.388 0 .553-.14.553-.324 0-.537-1.48-.185-1.48-1.11 0-.403.32-.743 1.004-.743.298 0 .613.08.829.22l-.146.358a1.405 1.405 0 0 0-.686-.197c-.385 0-.54.15-.54.337 0 .53 1.477.184 1.477 1.1 0 .397-.325.74-1.007.74-.388 0-.775-.12-.982-.299l-.003.004zM82.393 19.75h-1.49c.055.276.286.454.617.454a.672.672 0 0 0 .514-.207l.239.273c-.172.204-.439.309-.766.309-.635 0-1.048-.41-1.048-.976 0-.566.416-.972.981-.972.566 0 .96.387.96.982 0 .035-.004.088-.007.13v.006zm-1.493-.296h1.077a.518.518 0 0 0-.537-.464.52.52 0 0 0-.54.464zM83.969 20.455a.697.697 0 0 1-.426.127c-.416 0-.654-.22-.654-.642v-.915h-.315v-.356h.315v-.436h.444v.436h.508v.356h-.508v.902c0 .184.093.286.264.286a.392.392 0 0 0 .248-.08l.124.319v.003zM86.176 18.656v1.9h-.422v-.241a.775.775 0 0 1-.613.267c-.486 0-.82-.267-.82-.84v-1.086h.445v1.026c0 .347.165.509.445.509.308 0 .517-.19.517-.572v-.96h.445l.003-.003zM88.778 19.606c0 .591-.41.976-.966.976a.777.777 0 0 1-.607-.258v.922h-.444v-2.59h.422v.248c.15-.181.369-.27.63-.27.555 0 .965.384.965.972zm-.451 0c0-.362-.242-.594-.563-.594-.32 0-.565.232-.565.594s.245.594.565.594c.321 0 .563-.232.563-.594zM93.716 18.065l-.838 2.491H92.6l-.73-2.126-.734 2.126h-.273l-.839-2.491h.27l.718 2.142.743-2.142h.245l.734 2.154.73-2.154h.254-.003zM94.075 18.093c0-.095.083-.177.184-.177a.18.18 0 0 1 .185.174.18.18 0 0 1-.185.185.182.182 0 0 1-.184-.181zm.057.591h.251v1.872h-.25v-1.872zM96.41 20.346v.21H94.89v-.168l1.178-1.49h-1.156v-.213h1.48v.168l-1.178 1.493h1.197zM98.322 19.396v1.16h-.241v-.292c-.115.194-.334.308-.645.308-.423 0-.683-.22-.683-.543 0-.29.184-.53.72-.53h.595v-.115c0-.321-.181-.496-.53-.496a.962.962 0 0 0-.623.22l-.114-.188c.187-.16.466-.255.762-.255.483 0 .759.242.759.725v.006zm-.254.598v-.305h-.588c-.362 0-.48.143-.48.333 0 .216.175.353.474.353.298 0 .495-.137.594-.381zM99.952 18.672v.245c-.022 0-.041-.004-.06-.004-.391 0-.63.248-.63.69v.953h-.25v-1.871h.241v.365c.118-.248.356-.381.702-.381l-.003.003zM102.095 17.916v2.64h-.241v-.372c-.153.255-.413.388-.721.388-.534 0-.931-.388-.931-.953 0-.566.397-.95.931-.95.298 0 .556.127.711.368v-1.125h.254l-.003.004zm-.248 1.703c0-.439-.298-.731-.692-.731-.394 0-.696.292-.696.73 0 .44.299.732.696.732.397 0 .692-.293.692-.731z" fill="#263238"/>
            <path d="m79.49 48.45.105-.203c.178.175.496.302.823.302.467 0 .67-.197.67-.442 0-.686-1.537-.264-1.537-1.188 0-.369.285-.687.92-.687.283 0 .576.083.776.223l-.09.21a1.277 1.277 0 0 0-.685-.207c-.458 0-.661.203-.661.455 0 .686 1.537.27 1.537 1.182 0 .368-.292.683-.93.683-.375 0-.744-.134-.928-.324v-.004zM82.86 48.641a.606.606 0 0 1-.397.134c-.352 0-.55-.2-.55-.547v-1.135h-.336v-.212h.337v-.41h.254v.41h.572v.212h-.572v1.122c0 .223.114.343.324.343a.426.426 0 0 0 .28-.095l.088.181v-.003zM84.884 47.894h-1.57c.03.394.328.655.738.655a.746.746 0 0 0 .574-.245l.143.165c-.168.2-.428.309-.724.309-.584 0-.984-.4-.984-.957 0-.556.387-.953.917-.953s.909.388.909.953c0 .023-.003.051-.003.08v-.007zm-1.57-.19h1.332c-.032-.369-.3-.626-.668-.626-.368 0-.632.257-.663.626zM87.307 47.815c0 .572-.4.956-.934.956a.821.821 0 0 1-.715-.371v1.045h-.254v-2.57h.242v.371c.152-.251.413-.384.724-.384.533 0 .934.384.934.953h.003zm-.254 0c0-.435-.302-.731-.699-.731-.397 0-.699.295-.699.73 0 .436.299.732.699.732.4 0 .699-.293.699-.731zM90.242 48.037c0 .417-.302.738-.906.738-.358 0-.705-.124-.898-.321l.123-.204c.162.169.451.29.775.29.413 0 .642-.194.642-.503 0-.308-.21-.495-.673-.495h-.178v-.191l.692-.868h-1.277v-.228h1.604v.18l-.705.89c.534.03.804.312.804.71l-.003.002z" fill="#E8505B"/>
            <path d="M167.501 80.247h-12.905a.569.569 0 0 0-.569.569v6.638c0 .314.255.569.569.569h12.905a.569.569 0 0 0 .569-.569v-6.638a.569.569 0 0 0-.569-.569z" fill="#E0E0E0"/>
            <path d="M160.275 84.455c0 .359-.267.565-.794.565h-.975V82.9h.915c.473 0 .743.2.743.544 0 .242-.13.404-.324.48.273.06.435.238.435.527v.004zm-1.547-1.367v.77h.674c.339 0 .536-.131.536-.385 0-.255-.197-.385-.536-.385h-.674zm1.322 1.35c0-.276-.204-.397-.575-.397h-.747v.795h.747c.371 0 .575-.12.575-.4v.003zM161.942 84.035v.985h-.206v-.248c-.095.162-.286.264-.546.264-.359 0-.582-.188-.582-.464 0-.245.159-.451.613-.451h.505v-.096c0-.273-.155-.42-.451-.42-.206 0-.4.074-.53.188l-.095-.159c.159-.136.397-.216.648-.216.409 0 .644.207.644.617zm-.216.508v-.26h-.498c-.308 0-.41.12-.41.286 0 .184.149.299.403.299.255 0 .42-.115.505-.325zM162.371 84.226c0-.477.346-.808.82-.808.27 0 .495.105.622.315l-.159.108a.54.54 0 0 0-.463-.235c-.347 0-.604.248-.604.62 0 .371.254.62.604.62a.544.544 0 0 0 .463-.233l.159.108c-.127.207-.352.315-.622.315-.477 0-.82-.337-.82-.81zM164.798 84.222l-.375.347v.454h-.216V82.78h.216v1.522l.95-.868h.267l-.68.652.743.94h-.264l-.641-.797v-.007zM156.797 83.479c.019.02-.238.286-.572.594v-.07c.334.305.591.566.572.588-.019.02-.305-.21-.639-.515l-.041-.034.041-.039c.334-.308.62-.543.639-.52v-.004z" fill="#fff"/>
            <path d="M157.709 84.038c0 .029-.34.051-.759.051-.42 0-.76-.022-.76-.05 0-.03.34-.052.76-.052.419 0 .759.023.759.051z" fill="#fff"/>
            <path d="M183.977 80.247h-12.906a.568.568 0 0 0-.568.569v6.638c0 .314.254.569.568.569h12.906a.568.568 0 0 0 .568-.569v-6.638a.568.568 0 0 0-.568-.569z" fill="#E8505B"/>
            <path d="M174.914 82.904v2.12h-.184l-1.359-1.72v1.72h-.223v-2.12h.185l1.362 1.719v-1.72h.219zM176.944 84.292h-1.331c.026.334.28.553.626.553.194 0 .365-.07.486-.21l.121.14a.786.786 0 0 1-.613.26c-.496 0-.836-.34-.836-.81 0-.47.331-.806.779-.806.447 0 .771.33.771.807v.066h-.003zm-1.331-.159h1.128c-.029-.311-.254-.53-.565-.53-.312 0-.537.219-.563.53zM178.351 85.02l-.505-.664-.508.664h-.241l.629-.817-.598-.775h.242l.476.623.477-.623h.235l-.597.775.635.817h-.245zM179.79 84.925a.509.509 0 0 1-.336.11c-.299 0-.467-.168-.467-.463v-.963h-.283v-.181h.283v-.35h.216v.35h.483v.181h-.483v.95c0 .188.095.29.276.29a.353.353 0 0 0 .235-.083l.076.155v.004zM181.254 84.588c-.019-.02.238-.286.572-.594v.07c-.334-.306-.591-.566-.572-.588.019-.023.305.21.638.514l.042.035-.042.038c-.333.309-.619.544-.638.522v.003z" fill="#fff"/>
            <path d="M180.346 84.029c0-.029.34-.051.759-.051s.759.022.759.05c0 .03-.34.051-.759.051s-.759-.022-.759-.05z" fill="#fff"/>
            <path d="M82.45 38.39a3.126 3.126 0 1 0 0-6.253 3.126 3.126 0 0 0 0 6.253z" fill="#E8505B"/>
            <path d="M146.169 35.444c-.022 0-.006-.28-.13-.756a3.098 3.098 0 0 0-2.433-2.25c-.502-.083-1.067-.067-1.604.14-.27.095-.53.238-.772.416-.241.175-.46.394-.641.648a3.062 3.062 0 0 0-.591 1.802c.006.661.216 1.303.591 1.802.181.254.4.473.644.648.239.181.499.324.772.416.537.207 1.102.223 1.604.14a3.058 3.058 0 0 0 1.293-.566 3.099 3.099 0 0 0 1.14-1.684c.124-.476.108-.756.131-.756 0 0 .041.28-.067.772a3.165 3.165 0 0 1-4.151 2.237 3.044 3.044 0 0 1-.814-.432 2.932 2.932 0 0 1-.679-.68 3.209 3.209 0 0 1-.626-1.897 3.23 3.23 0 0 1 1.305-2.577c.254-.188.528-.337.814-.432a3.168 3.168 0 0 1 3.017.476 3.134 3.134 0 0 1 1.134 1.76c.108.493.067.773.067.773h-.004zM176.449 35.085c-.023 0-.007-.28-.131-.756a3.098 3.098 0 0 0-2.433-2.25c-.501-.083-1.067-.067-1.604.14-.27.095-.53.238-.771.416a2.815 2.815 0 0 0-.642.648 3.07 3.07 0 0 0-.591 1.802 3.07 3.07 0 0 0 .591 1.802c.181.254.4.473.645.648.238.181.498.32.772.416.536.207 1.102.223 1.604.14a3.054 3.054 0 0 0 1.292-.566 3.102 3.102 0 0 0 1.141-1.684c.124-.477.108-.756.13-.756 0 0 .041.28-.067.772a3.107 3.107 0 0 1-1.134 1.76 3.167 3.167 0 0 1-3.017.477 3.036 3.036 0 0 1-.813-.432 3.215 3.215 0 0 1-1.306-2.577 3.216 3.216 0 0 1 1.306-2.577 2.95 2.95 0 0 1 .813-.433 3.169 3.169 0 0 1 3.017.477 3.134 3.134 0 0 1 1.134 1.76c.108.493.067.773.067.773h-.003z" fill="#263238"/>
            <path d="M83.753 34.417c.032.032-.511.661-1.216 1.405-.115.118-.223.232-.328.343l-.057.057-.057-.054c-.572-.556-.972-.978-.946-1.007.025-.029.473.35 1.057.893h-.114c.105-.108.213-.222.324-.343.705-.744 1.302-1.322 1.337-1.29v-.004z" fill="#fff"/>
            <path d="M108.795 34.627H86.167v1.271h22.628v-1.27zM112.66 38.39c1.726 0 3.125-1.4 3.125-3.127a3.126 3.126 0 1 0-3.125 3.127z" fill="#E8505B"/>
            <path d="M113.962 34.417c.032.032-.511.661-1.216 1.405-.115.118-.223.232-.328.343l-.057.057-.057-.054c-.572-.556-.972-.978-.946-1.007.025-.029.473.35 1.057.893h-.114c.105-.108.213-.222.324-.343.705-.744 1.302-1.322 1.337-1.29v-.004z" fill="#fff"/>
            <path d="M139.004 34.627h-22.628v1.271h22.628v-1.27z" fill="#E8505B"/>
            <path d="M169.683 35.085c0 .044-5.066.082-11.313.082-6.248 0-11.314-.038-11.314-.082 0-.045 5.066-.083 11.314-.083 6.247 0 11.313.038 11.313.083z" fill="#263238"/>
            <path d="M191.005 25.18c0 .044-27.614.082-61.67.082s-61.677-.038-61.677-.082c0-.045 27.608-.083 61.677-.083 34.068 0 61.67.038 61.67.083z" fill="#E0E0E0"/>
            <path d="M175.245 52.979c0 .044-21.065.083-47.047.083-25.981 0-47.05-.039-47.05-.083 0-.045 21.062-.083 47.05-.083 25.989 0 47.047.038 47.047.083zM123.1 56.694s-.038.006-.108.009c-.079 0-.184.006-.317.01-.289.003-.699.01-1.223.015l-4.495.026-14.83.025-14.833-.025-4.494-.026-1.223-.016a19.31 19.31 0 0 1-.318-.009.312.312 0 0 1-.108-.01c0-.003.038-.006.108-.01.08 0 .185-.005.318-.009l1.223-.016 4.494-.025 14.833-.025 14.83.025 4.495.025 1.223.016.317.01c.073 0 .108.006.108.01zM165.634 62.099c0 .044-17.202.082-38.42.082-21.217 0-38.423-.038-38.423-.082 0-.045 17.199-.083 38.423-.083s38.42.038 38.42.083z" fill="#263238"/>
            <path d="M83.972 63.325a1.681 1.681 0 1 1 .002-3.362 1.681 1.681 0 0 1-.002 3.362zm0-3.04a1.363 1.363 0 1 0 0 2.728 1.363 1.363 0 0 0 0-2.729z" fill="#E0E0E0"/>
            <path d="M150.051 66.217s-.054.007-.159.01c-.111 0-.267.003-.464.01-.416.002-1.016.009-1.785.015l-6.565.026-21.656.025c-8.458-.01-16.113-.02-21.662-.025l-6.565-.026-1.785-.016a40.04 40.04 0 0 1-.464-.01c-.105 0-.159-.009-.159-.009s.054-.006.159-.01c.111 0 .267-.003.464-.009l1.785-.016c1.556-.006 3.799-.016 6.565-.025l21.662-.026 21.656.026 6.565.025 1.785.016c.2.003.353.006.464.01.105 0 .159.01.159.01z" fill="#263238"/>
            <path d="M83.972 67.895a1.681 1.681 0 1 1 .002-3.363 1.681 1.681 0 0 1-.002 3.363zm0-3.041a1.363 1.363 0 1 0 0 2.728 1.363 1.363 0 0 0 0-2.728z" fill="#E0E0E0"/>
            <path d="M83.972 66.958a.74.74 0 1 0 0-1.481.74.74 0 0 0 0 1.48z" fill="#E8505B"/>
            <path d="M165.634 71.238c0 .044-17.202.082-38.42.082-21.217 0-38.423-.038-38.423-.082 0-.045 17.199-.083 38.423-.083s38.42.038 38.42.083z" fill="#263238"/>
            <path d="M83.972 72.468a1.681 1.681 0 1 1 .003-3.363 1.681 1.681 0 0 1-.003 3.363zm0-3.041a1.363 1.363 0 1 0 0 2.728 1.363 1.363 0 0 0 0-2.728z" fill="#E0E0E0"/>
            <path d="M111.91 71.86c-1.531.68-1.88 1.927-1.902 2.66-.023.735.012 1.599-.569 2.05-.546.423-1.347.232-1.995.474-.825.305-1.232 1.23-1.413 2.09-.181.862-.238 1.783-.718 2.52-.464.713-1.248 1.132-1.953 1.602-.705.47-1.411 1.093-1.541 1.932-.187 1.201.87 2.428.435 3.566-.279.73-1.067 1.106-1.658 1.62a3.84 3.84 0 0 0-1.305 2.66 3.835 3.835 0 0 0 1.007 2.787c.556.597 1.362 1.02 2.172.906.785-.112 1.411-.687 2.005-1.214a32.106 32.106 0 0 1 7.194-4.837c.676-.33 1.41-.683 1.759-1.35.175-.337.235-.722.289-1.097.731-5.004 1.458-10.006 2.189-15.011M119.334 67.104c-.296-1.103.349-2.3 1.305-2.927.953-.626 2.147-.772 3.287-.74 1.172.035 2.475.324 3.123 1.303.406.616.476 1.398.835 2.04 1.02 1.811 3.853 1.846 4.958 3.603 1.052 1.672-.022 3.861.229 5.822.168 1.312.927 2.46 1.521 3.645.594 1.182 1.033 2.587.531 3.813-.537 1.31-2.059 2.158-2.211 3.566-.187 1.747 1.88 3.343 1.245 4.979-.47 1.214-2.233 1.675-2.423 2.962-.102.69.308 1.337.492 2.008.47 1.703-.632 3.575-2.211 4.363-1.578.788-3.49.661-5.161.089a10.691 10.691 0 0 1-6.127-5.5 10.688 10.688 0 0 1-.311-8.231" fill="#263238"/>
            <path d="M101.46 84.08s-.041-.13-.248-.226a.628.628 0 0 0-.4-.032.52.52 0 0 0-.39.343.742.742 0 0 0 .104.655c.137.21.41.343.706.337.295 0 .606-.134.838-.379.238-.241.403-.572.508-.934.223-.734.159-1.589.238-2.5.048-.458.147-.935.375-1.377a2.29 2.29 0 0 1 .451-.61c.191-.174.426-.311.674-.4.502-.175 1.035-.197 1.559-.267.518-.067 1.067-.213 1.395-.639.336-.416.368-1.004.327-1.563-.035-.566-.156-1.144-.115-1.754a3.474 3.474 0 0 1 .585-1.672c.327-.49.794-.883 1.34-1.074.556-.194 1.131-.117 1.655-.076.521.038 1.07.06 1.458-.245.397-.292.492-.813.521-1.28.028-.477.019-.96.14-1.411a3.782 3.782 0 0 1 1.423-2.085 3.451 3.451 0 0 1 1.975-.667 3.675 3.675 0 0 1 1.55.298c.404.169.68.372.855.518.174.146.251.242.251.242-.007.006-.093-.076-.274-.216a3.409 3.409 0 0 0-.857-.483 3.676 3.676 0 0 0-1.525-.264 3.39 3.39 0 0 0-1.909.67 3.695 3.695 0 0 0-1.359 2.025c-.114.432-.102.899-.127 1.388a2.901 2.901 0 0 1-.124.744 1.326 1.326 0 0 1-.448.648c-.213.172-.486.254-.756.286a4.56 4.56 0 0 1-.807 0c-.533-.041-1.08-.108-1.591.073-.508.178-.95.547-1.258 1.014a3.316 3.316 0 0 0-.556 1.592c-.038.572.077 1.15.115 1.729.019.289.025.581-.022.87-.045.29-.156.576-.34.804-.181.232-.429.4-.696.506a3.315 3.315 0 0 1-.807.19c-.533.07-1.057.093-1.531.255a1.828 1.828 0 0 0-.622.365 2.16 2.16 0 0 0-.426.566c-.219.42-.317.88-.368 1.325-.086.893-.029 1.76-.264 2.52-.111.375-.289.721-.546.975a1.29 1.29 0 0 1-.912.397c-.321.004-.622-.149-.768-.384a.814.814 0 0 1-.099-.721.577.577 0 0 1 .442-.372c.168-.035.32 0 .422.047.213.112.232.261.235.255l.003-.007zM136.167 88.017s.016.025.038.079a.624.624 0 0 1 .045.257c0 .23-.143.592-.53.827a1.028 1.028 0 0 1-.718.149 1.27 1.27 0 0 1-.74-.46 1.795 1.795 0 0 1-.385-.925c-.041-.36.032-.744.181-1.11.299-.743.918-1.366 1.493-2.059.286-.35.553-.737.724-1.182.175-.442.254-.937.248-1.44a3.854 3.854 0 0 0-.34-1.496c-.213-.483-.556-.906-.959-1.28-.403-.379-.854-.728-1.261-1.151-.403-.416-.746-.96-.807-1.58-.063-.616.108-1.204.27-1.754.172-.552.334-1.09.375-1.64.102-1.09-.178-2.195-.845-2.955a3.122 3.122 0 0 0-1.169-.858c-.438-.19-.905-.216-1.359-.206-.451.003-.915.016-1.328-.165-.413-.178-.689-.537-.851-.893-.33-.731-.318-1.459-.461-2.05a2.806 2.806 0 0 0-.285-.794 1.59 1.59 0 0 0-.471-.518c-.352-.245-.705-.283-.924-.242-.219.045-.317.127-.324.118 0 0 .089-.092.315-.15.222-.054.594-.025.965.223.184.124.369.295.502.53.14.233.235.509.308.81.153.601.153 1.326.477 2.022.158.34.419.667.794.826.378.162.819.153 1.273.143.455-.013.953.01 1.414.21.46.187.886.499 1.229.893.702.794.994 1.945.889 3.07-.044.568-.212 1.124-.381 1.674-.162.547-.324 1.115-.263 1.688.057.572.368 1.077.762 1.484.391.41.842.759 1.251 1.144.413.38.775.829.994 1.331.226.499.337 1.036.35 1.557a3.933 3.933 0 0 1-.264 1.497c-.181.464-.46.864-.753 1.217-.59.699-1.197 1.306-1.492 2.018-.15.35-.22.715-.185 1.052.035.336.169.645.353.877.184.235.435.387.683.441a.956.956 0 0 0 .667-.127c.372-.216.521-.556.53-.772.01-.226-.063-.334-.051-.337l.016.007z" fill="#263238"/>
            <path d="M111.437 72.249c-.603.165-.931.851-.931 1.477 0 .626.242 1.22.407 1.824.165.604.245 1.28-.057 1.827-.604 1.1-2.297 1.043-3.113 1.996-1.039 1.21-.07 3.213-.819 4.62-.683 1.284-2.592 1.685-2.97 3.09-.242.892.263 1.865.013 2.754-.286 1.01-1.404 1.522-1.995 2.39-.594.874-.591 2.062-.181 3.035.362.867 1.003 1.585 1.728 2.19.092.076.181.149.276.222l10.939-2.546 2.195-20.245-5.495-2.634h.003z" fill="#263238"/>
            <path d="M117.437 68.499a1.594 1.594 0 0 0-1.732 1.284l-3.608 21.259c-.495 2.494 2.837 4.677 5.511 5.189 2.7.518 3.072-.782 3.615-3.143.908-3.94 1.223-5.424 1.219-5.402 0 0 3.52.162 5.168-4.125.82-2.132 1.48-5.77 1.925-8.767.4-2.698-.667-6.337-3.376-6.623l-8.722.328z" fill="#B78876"/>
            <path d="M127.94 77.454a.58.58 0 0 1-.67.457.554.554 0 0 1-.476-.639.581.581 0 0 1 .67-.457c.317.05.53.337.476.639zM128.35 76.882c-.086.06-.448-.353-1.061-.48-.609-.137-1.124.082-1.175-.007-.025-.041.076-.159.302-.26.222-.102.581-.169.962-.086.381.082.671.292.826.477.159.184.194.333.149.359l-.003-.004zM121.845 76.141a.581.581 0 0 1-.67.458.555.555 0 0 1-.476-.639.58.58 0 0 1 .67-.457c.318.05.53.336.476.638zM122.312 75.512c-.086.06-.451-.353-1.061-.48-.609-.136-1.124.083-1.175-.006-.025-.041.073-.159.302-.26.222-.102.581-.17.962-.087.381.083.671.293.826.477.156.184.194.334.149.36l-.003-.004zM123.564 80.352c.003-.035.4-.02 1.032.031.159.016.315.02.362-.082.061-.105.032-.286-.006-.486l-.21-1.29c-.279-1.831-.448-3.325-.375-3.334.073-.01.362 1.465.642 3.295.067.451.127.88.187 1.29.023.191.08.414-.05.63a.406.406 0 0 1-.305.174c-.108.01-.194-.006-.274-.019-.625-.098-1.013-.178-1.006-.213l.003.004z" fill="#263238"/>
            <path d="M122.443 87.686s-3.024-.445-5.6-2.85c0 0 .829 3.45 5.355 3.981l.245-1.131zM122.991 81.772a1.122 1.122 0 0 0-.902-.62c-.273-.028-.568.042-.775.226-.206.181-.308.483-.203.718.114.267.448.394.759.375.311-.022.604-.159.883-.299a.7.7 0 0 0 .213-.142c.057-.064.086-.156.048-.23" fill="#AA6550"/>
            <path d="M121.674 80.393c.101.016-.038.68.428 1.274.467.595 1.192.67 1.176.766 0 .045-.185.095-.486.041a1.71 1.71 0 0 1-.991-.6 1.474 1.474 0 0 1-.318-1.058c.035-.283.143-.433.187-.42l.004-.003zM122.814 74.327c-.096.152-.689-.058-1.426-.121-.734-.083-1.36.006-1.423-.165-.029-.08.108-.216.374-.328a2.385 2.385 0 0 1 1.112-.14c.442.045.82.198 1.061.36.241.162.346.32.302.394zM128.502 75.779c-.136.118-.527-.118-1.032-.232-.502-.133-.956-.105-1.023-.273-.028-.08.07-.204.286-.296a1.45 1.45 0 0 1 .889-.047c.347.085.62.276.766.454.149.181.178.337.114.394z" fill="#263238"/>
            <path d="M120.657 67.685c-.867-.902-2.115-1.5-3.37-1.414-1.254.086-2.465.938-2.763 2.136-.194.778-.035 1.684-.537 2.313-.476.6-1.35.7-2.033 1.061-1.07.57-1.642 1.91-1.302 3.067.292.991 1.169 1.862 1.039 2.885-.124.96-1.09 1.586-1.484 2.473-.435.978-.095 2.157.569 3.012.667.855 1.61 1.45 2.535 2.028.721.45 1.496.918 2.35.908 1.013-.01 1.931-.753 2.271-1.687.34-.934.156-2.005-.346-2.876-.435-.75-1.118-1.455-1.077-2.313.064-1.335 1.83-2.063 2.014-3.388.095-.683-.257-1.34-.534-1.976-.276-.636-.47-1.408-.092-1.987.492-.753 1.614-.734 2.395-1.194a2.033 2.033 0 0 0 .978-1.897c-.07-.747-.597-1.44-1.311-1.716" fill="#263238"/>
            <path d="M120.397 66.582a3.154 3.154 0 0 0 .582 2.571 3.146 3.146 0 0 0 2.35 1.195c.705.022 1.518-.159 2.026.328.534.511.359 1.445.804 2.04.635.845 2.014.48 2.941.985.718.39 1.039 1.226 1.414 1.954.374.724 1.013 1.474 1.826 1.414.098-.699.2-1.404.137-2.11-.064-.702-.305-1.414-.801-1.916-.273-.277-.613-.48-.857-.782-.525-.651-.48-1.576-.718-2.377a3.393 3.393 0 0 0-2.17-2.224c-.851-.277-1.807-.21-2.611-.607-.594-.293-1.054-.82-1.664-1.077-1.188-.502-2.531.14-3.621.829" fill="#263238"/>
            <path d="M104.179 92.17s-.124-.013-.34-.111a2.024 2.024 0 0 1-.784-.661 2.286 2.286 0 0 1-.426-1.554c.054-.639.375-1.35.966-1.904.295-.276.648-.505.984-.772.334-.264.667-.582.794-1.017.131-.432.029-.915 0-1.417a2.957 2.957 0 0 1 .324-1.522c.245-.48.613-.912 1.083-1.227.461-.324 1.045-.496 1.624-.511.578-.029 1.162.031 1.734-.048.286-.038.565-.118.807-.27a1.65 1.65 0 0 0 .574-.626c.274-.521.35-1.125.496-1.7.07-.29.162-.579.305-.846.143-.263.34-.505.584-.673.496-.344 1.077-.445 1.611-.556.533-.105 1.057-.245 1.47-.54a1.38 1.38 0 0 0 .467-.56c.102-.22.13-.467.121-.705-.029-.483-.194-.941-.343-1.383-.146-.445-.254-.902-.213-1.353.022-.223.086-.442.2-.63.118-.184.273-.337.454-.441.362-.21.75-.267 1.103-.318.355-.05.689-.086.991-.169a2.477 2.477 0 0 0 1.299-.873c.27-.347.393-.677.454-.9.06-.225.067-.35.076-.346 0 0 .006.124-.044.356a2.444 2.444 0 0 1-.436.928 2.5 2.5 0 0 1-1.324.925c-.308.088-.648.127-1.001.18-.349.055-.727.118-1.057.315-.334.19-.559.563-.588.982-.035.42.07.861.216 1.297.149.438.324.902.356 1.42.013.258-.019.528-.13.772a1.533 1.533 0 0 1-.515.623c-.445.324-.991.467-1.531.572-.534.111-1.096.22-1.547.534-.457.315-.692.861-.822 1.427-.143.565-.216 1.176-.509 1.738a1.76 1.76 0 0 1-.632.69 2.22 2.22 0 0 1-.87.292c-.6.08-1.185.016-1.747.044-1.134.007-2.118.731-2.579 1.643-.235.458-.34.96-.314 1.446.025.486.13.985-.013 1.462-.143.48-.505.813-.845 1.077-.346.267-.699.49-.985.756-.575.531-.892 1.214-.953 1.828a2.222 2.222 0 0 0 .385 1.51c.251.361.54.562.746.666.207.105.33.13.327.14l-.003.01zM130.52 98.903s.114-.089.276-.301c.159-.213.34-.585.365-1.1.032-.508-.085-1.14-.422-1.789-.311-.658-.813-1.338-1.143-2.215a4.576 4.576 0 0 1-.01-3.003 4.44 4.44 0 0 1 .839-1.478c.384-.444.851-.82 1.222-1.29.359-.46.633-1.08.451-1.671-.181-.594-.717-1.008-1.191-1.471-.238-.232-.473-.493-.638-.801a2.644 2.644 0 0 1-.292-1.005c-.067-.705.095-1.41.346-2.075.257-.667.597-1.277.88-1.897.282-.616.517-1.255.568-1.903.105-1.303-.473-2.57-1.369-3.356-.448-.4-1-.626-1.489-.956-.242-.166-.47-.363-.626-.614-.162-.25-.216-.54-.267-.804-.051-.267-.105-.52-.244-.73a1.44 1.44 0 0 0-.54-.49c-.432-.235-.909-.333-1.357-.442-.447-.104-.883-.228-1.254-.429a3.904 3.904 0 0 1-.953-.702 4.265 4.265 0 0 1-1.029-1.576 3.875 3.875 0 0 1-.245-1.166 2.82 2.82 0 0 1 .01-.416c.035-.007-.07.59.298 1.557.184.473.508 1.03 1.036 1.531.26.251.571.486.937.674.365.19.781.308 1.232.407.448.105.931.197 1.391.445.226.123.445.295.591.53.156.232.216.512.267.776.051.266.105.53.251.756.143.225.352.41.587.569.471.314 1.039.543 1.509.963.934.813 1.537 2.122 1.429 3.482-.054.68-.295 1.335-.581 1.961-.286.626-.625 1.236-.873 1.888-.245.648-.4 1.334-.337 2.002.032.33.114.657.27.943.153.286.372.534.607.763.235.229.483.448.708.693.226.241.422.524.521.848.098.324.073.674-.029.98a2.74 2.74 0 0 1-.457.832c-.388.489-.861.86-1.232 1.293a4.3 4.3 0 0 0-.817 1.427 4.446 4.446 0 0 0-.009 2.92c.314.858.81 1.548 1.118 2.215.33.661.448 1.316.403 1.834-.035.524-.232.902-.403 1.115-.175.213-.305.283-.305.283v-.007z" fill="#455A64"/>
            <path d="M126.947 95.128s2.818 2.644 2.735 6.991c-.083 4.348.619 12.235.619 12.235l12.022 7.35-3.392 5.199-13.245-5.879-2.776-5.691 4.04-20.205h-.003z" fill="#E8505B"/>
            <path d="M130.618 124.917s.448-.861-.813-1.519h-2.042l-3.986-6.89 3.182-21.383-5.438-4.134-12.034-1.07-4.206 21.64 5.378 9.832 10.662 4.385 9.304-.868-.007.007z" fill="#E8505B"/>
            <path d="m111.608 90.082.239-2.04a.645.645 0 0 1 .813-.55c2.979 2.336 6.051 3.524 9.287 2.59a.849.849 0 0 1 .594 1.017l-1.258 5.113-3.293.985-4.349-.852-2.029-3.756v-2.507h-.004z" fill="#E8505B"/>
            <path d="M122.033 91.49s-.13.098-.385.235a7.008 7.008 0 0 1-1.137.47 7.82 7.82 0 0 1-4.03.175 7.806 7.806 0 0 1-3.567-1.89 6.837 6.837 0 0 1-.826-.913c-.175-.235-.254-.371-.248-.378.029-.022.381.521 1.153 1.205a8.108 8.108 0 0 0 3.526 1.814 8.061 8.061 0 0 0 3.961-.127c.987-.286 1.543-.623 1.556-.591h-.003z" fill="#263238"/>
            <path d="M112.19 89.586c-.184.379-.083.846.149 1.198.232.353.575.614.912.865 1.165.867 2.379 1.731 3.776 2.129 1.398.397 3.037.25 4.11-.734.312-.286.553-.817.229-1.087-.241-.203-.603-.08-.899.035a6.938 6.938 0 0 1-4.494.146 6.937 6.937 0 0 1-3.624-2.66" fill="#000" opacity=".2"/>
            <path d="m110.529 112.736 19.667 10.551-7.096 4.29-13.527-3.969c-7.175-1.901-9.135-4.882-9.065-7.961.025-1.122-.105-12.063.378-17.427.657-7.308 8.598-8.293 8.598-8.293l-.14 6.25.089 7.63.27 7.004c.718-.359.899.988.899.988l-.073.941v-.004z" fill="#E8505B"/>
            <path d="M109.573 111.643c-.045 0-.108-2.647-.137-5.91-.028-3.267-.016-5.914.029-5.914.044 0 .108 2.647.136 5.914.029 3.266.016 5.913-.028 5.913v-.003z" fill="#263238"/>
            <path d="M110.459 113.095c-.023-.012.038-.13.069-.33a1.16 1.16 0 0 0-.133-.75 1.14 1.14 0 0 0-.588-.483c-.19-.073-.324-.076-.324-.102 0-.019.137-.06.356-.009.216.047.515.206.696.511.178.309.171.649.105.858-.067.216-.169.318-.185.305h.004z" fill="#263238"/>
            <path d="M110.458 113.095s.01.013.035.029a.816.816 0 0 0 .115.073c.104.064.26.15.46.261.404.219.994.53 1.725.912 1.483.762 3.5 1.795 5.73 2.939l5.736 2.933c.718.372 1.303.677 1.731.9.191.101.343.184.467.251.105.06.162.092.159.098a.766.766 0 0 1-.171-.067l-.483-.225c-.435-.213-1.029-.502-1.757-.855a460.617 460.617 0 0 1-5.758-2.892 274.792 274.792 0 0 1-5.711-2.984c-1.449-.781-2.332-1.315-2.281-1.379l.003.006zM123.329 116.724c-.007.023-.359-.063-.921-.222a50.08 50.08 0 0 1-4.323-1.471c-.543-.216-.874-.366-.864-.385.009-.022.352.089.905.277l2.157.74c.816.276 1.556.528 2.16.734.552.191.892.311.886.334v-.007zM118.479 108.615s-.025.089-.095.232c-.07.146-.191.346-.362.581a5.176 5.176 0 0 1-.686.754 5.822 5.822 0 0 1-1.023.721 5.87 5.87 0 0 1-1.159.467 5.046 5.046 0 0 1-1.007.168c-.289.016-.524.01-.686-.012-.162-.019-.248-.035-.248-.048 0-.032.359.003.921-.057.283-.029.613-.095.975-.197.359-.111.74-.261 1.121-.464.378-.21.715-.448 1.001-.69.283-.248.518-.489.695-.712.359-.441.525-.756.55-.743h.003zM109.49 98.017c-.025 0-.067-.442-.171-1.153-.108-.71-.286-1.694-.74-2.683-.455-.988-1.141-1.735-1.722-2.138-.581-.413-1.023-.528-1.01-.56 0-.009.114.013.305.077.194.063.464.187.772.384.616.391 1.34 1.15 1.804 2.168.464 1.016.626 2.02.705 2.739.038.359.057.651.063.855.007.203.004.314-.006.314v-.003zM130.473 114.322c.009.025-.219.118-.502.404-.28.279-.629.708-.937 1.236a6.034 6.034 0 0 0-.635 1.414c-.112.381-.112.632-.14.632-.016 0-.057-.254.025-.661.083-.403.283-.937.607-1.471a5.012 5.012 0 0 1 1-1.236c.312-.274.578-.337.578-.318h.004z" fill="#263238"/>
            <path d="M127.541 122.057c.654-1.255.492-2.778.124-4.144-.369-1.366-.931-2.698-1.036-4.109-.092-1.223.162-2.444.41-3.645.244-1.201.483-2.428.356-3.648-.127-1.22-.674-2.453-1.7-3.127.407 1.014.82 2.04.956 3.124.137 1.084-.031 2.25-.692 3.121-.337.444-.797.81-1.016 1.322-.293.683-.248 1.458-.467 2.144-.239.754-.671 3.277-.671 3.277-.028.14.747 1.566 1.516 2.583.768 1.017 1.696 1.932 2.252 3.083" fill="#000" opacity=".2"/>
            <path d="M127.588 121.971s-.032-.029-.079-.095l-.216-.29c-.194-.27-.464-.641-.797-1.105l-2.78-3.931-.019-.026.007-.031c.308-1.516.66-3.242 1.029-5.069.038-.194.079-.385.117-.572l.007-.022.015-.019c1.211-1.24 1.849-2.889 1.814-4.328-.073-1.449-.616-2.676-1.258-3.426l-.012-.013v-.016l-.121-1.922-.025-.512a1.002 1.002 0 0 1 0-.178c.006 0 .012.061.028.175.013.13.032.299.051.508l.168 1.92-.012-.032c.676.763 1.238 1.999 1.327 3.486.042.75-.14 1.538-.441 2.304a6.621 6.621 0 0 1-1.404 2.145l.022-.041c-.038.187-.076.378-.117.572-.378 1.824-.734 3.549-1.049 5.062l-.012-.057c1.115 1.617 2.055 2.983 2.728 3.965.321.474.575.855.762 1.132l.197.302a.402.402 0 0 1 .061.108l.009.006z" fill="#263238"/>
            <path d="M113.311 111.586c-.197-.152-.502.086-.489.337.012.251.219.442.432.572.581.356 1.296.448 1.975.394.845-.067 1.693-.362 2.309-.944.617-.581.966-1.474.779-2.304a.378.378 0 0 0-.083-.184c-.159-.165-.426.019-.584.184a6.27 6.27 0 0 1-4.206 1.939M109.475 111.449c-.731-.324-1.668-.082-2.151.55-.155.204-.263.489-.13.706.111.178.356.235.559.187.207-.048.381-.178.546-.305.366-.283.721-.572 1.071-.874a.338.338 0 0 0 .12-.149c.023-.061 0-.143-.057-.169" fill="#000" opacity=".2"/>
            <path d="M107.813 113.108c-.019-.006-.003-.162.092-.394s.289-.534.581-.791c.292-.254.616-.407.861-.471.244-.066.4-.06.403-.041.013.048-.606.143-1.156.636-.559.48-.737 1.08-.784 1.061h.003z" fill="#263238"/>
            <path d="M101.966 102.275c-.044 0-.041-1.271.006-2.837.051-1.567.127-2.835.172-2.832.044 0 .041 1.271-.006 2.838-.051 1.567-.128 2.834-.172 2.831zM103.379 106.708c-.044 0-.086-1.522-.089-3.4 0-1.878.032-3.4.079-3.4.045 0 .086 1.522.086 3.4s-.032 3.4-.079 3.4h.003zM105.917 95.472c.023 0 .032.295.029.772a58.24 58.24 0 0 1-.048 1.859 56.339 56.339 0 0 1-.098 1.856c-.035.476-.067.769-.089.769-.022 0-.032-.296-.029-.772.003-.477.019-1.135.048-1.863.028-.727.063-1.382.098-1.859.035-.476.067-.769.089-.765v.003zM107.775 104.595c-.045 0-.083-.982-.08-2.189 0-1.211.039-2.19.086-2.19.045 0 .083.982.08 2.19 0 1.21-.038 2.189-.086 2.189zM105.691 109.593c-.044 0-.035-.927.022-2.065s.14-2.059.188-2.056c.047.003.035.928-.023 2.065-.057 1.138-.139 2.06-.187 2.056zM101.438 113.769c-.044 0-.098-.909-.117-2.034-.019-1.124 0-2.037.047-2.037.045 0 .099.909.118 2.034.019 1.125 0 2.037-.048 2.037zM103.366 114.077c-.044 0-.048-.661-.003-1.474.044-.81.117-1.468.162-1.465.044.003.047.661.003 1.474-.044.811-.117 1.469-.162 1.465zM113.566 116.4c-.019.039-.893-.336-1.906-.921-1.016-.585-1.776-1.157-1.75-1.192.025-.038.826.467 1.833 1.049 1.006.585 1.842 1.023 1.823 1.068v-.004zM120.054 119.797c-.009.019-.263-.076-.654-.27a14.92 14.92 0 0 1-1.48-.851 14.385 14.385 0 0 1-1.369-1.024c-.334-.283-.521-.476-.508-.495.031-.039.857.651 1.966 1.379 1.105.731 2.064 1.217 2.042 1.261h.003zM120.464 121.663c-.019.041-.718-.245-1.56-.636-.842-.394-1.509-.743-1.49-.785.02-.041.718.245 1.56.636.842.394 1.509.743 1.49.785zM124.857 123.185c-.028.041-.753-.416-1.693-.89-.94-.477-1.737-.788-1.721-.836.012-.041.845.204 1.794.687.953.48 1.646 1.001 1.62 1.036v.003zM123.764 125.365c-.028.038-.52-.273-1.143-.626-.623-.356-1.143-.62-1.124-.661.015-.041.575.159 1.203.518.632.359 1.087.734 1.061.769h.003zM108.448 112.225c-.044 0-.104-.585-.133-1.31-.029-.724-.016-1.315.032-1.318.044 0 .105.584.133 1.312.029.725.016 1.316-.032 1.319v-.003zM118.132 103.515c-.044.006-.187-.808-.317-1.818-.131-1.011-.197-1.834-.153-1.84.045-.006.188.807.318 1.818.13 1.01.197 1.833.152 1.84zM119.197 108.926c-.044 0-.095-.864-.111-1.932s.009-1.932.054-1.935c.044 0 .095.864.111 1.932s-.01 1.932-.054 1.932v.003zM112.803 109.698c-.041.01-.241-.785-.311-1.789-.073-1.004.009-1.821.054-1.817.048 0 .041.81.111 1.805.07.994.194 1.792.146 1.801zM114.992 115.008c-.042.01-.232-.74-.308-1.687-.083-.947-.023-1.719.022-1.716.047 0 .063.766.143 1.703.076.938.19 1.694.146 1.704l-.003-.004zM115.935 107.379c-.044 0-.082-.83-.082-1.856 0-1.027.038-1.856.082-1.856.045 0 .083.829.083 1.856 0 1.026-.038 1.856-.083 1.856zM113.308 100.988c.045 0 .083.623.083 1.392 0 .769-.038 1.392-.083 1.392-.044 0-.082-.623-.082-1.392 0-.769.038-1.392.082-1.392zM115.995 96.298c.044 0 .095.553.108 1.236.013.683-.013 1.236-.057 1.24-.045 0-.095-.554-.108-1.237-.013-.683.013-1.236.057-1.24zM120.921 101.452c-.044 0-.155-1.173-.248-2.622-.092-1.452-.13-2.63-.082-2.634.044 0 .156 1.17.248 2.622s.13 2.631.082 2.631v.003zM122.529 110.728c-.045 0-.083-1.316-.083-2.936 0-1.621.038-2.937.083-2.937.044 0 .082 1.316.082 2.937 0 1.62-.038 2.936-.082 2.936zM119.645 115.469c-.044 0-.083-.921-.083-2.062 0-1.141.039-2.063.083-2.063.045 0 .083.922.083 2.063s-.038 2.062-.083 2.062zM122.271 118.253c-.044 0-.083-.359-.083-.798 0-.438.039-.797.083-.797.045 0 .083.359.083.797 0 .439-.038.798-.083.798zM124.021 98.773c.045 0 .083.842.083 1.881 0 1.04-.038 1.882-.083 1.882-.044 0-.083-.842-.083-1.882 0-1.039.039-1.88.083-1.88zM122.22 92.227c.045 0 .083 1.119.083 2.5 0 1.383-.038 2.502-.083 2.502-.044 0-.082-1.119-.082-2.501s.038-2.5.082-2.5zM118.819 92.898c.044 0 .082.762.082 1.7 0 .937-.038 1.7-.082 1.7-.045 0-.083-.763-.083-1.7 0-.938.038-1.7.083-1.7zM126.62 100.664c-.045.003-.169-.918-.188-2.069-.022-1.147.07-2.075.114-2.072.048 0 .032.928.051 2.072.019 1.141.07 2.066.023 2.072v-.003zM128.113 104.14c-.045 0-.083-.94-.083-2.1 0-1.16.038-2.1.083-2.1.044 0 .082.94.082 2.1 0 1.16-.038 2.1-.082 2.1zM129.031 110.251c-.045 0-.083-.969-.083-2.167s.038-2.167.083-2.167c.044 0 .082.969.082 2.167s-.038 2.167-.082 2.167zM126.931 113.601c-.044 0-.082-1.03-.082-2.298s.038-2.297.082-2.297c.045 0 .083 1.029.083 2.297 0 1.268-.038 2.298-.083 2.298zM125.289 117.474c-.045 0-.083-1.087-.083-2.431s.038-2.431.083-2.431c.044 0 .082 1.087.082 2.431s-.038 2.431-.082 2.431zM128.9 115.441c-.045 0-.083-.633-.083-1.411 0-.779.038-1.411.083-1.411.044 0 .083.632.083 1.411 0 .778-.039 1.411-.083 1.411zM132.426 122.311c-.019.041-1.102-.372-2.423-.925-1.322-.553-2.376-1.033-2.36-1.077.016-.045 1.102.372 2.423.925 1.322.553 2.376 1.032 2.357 1.077h.003zM136.637 121.043c-.016.044-1.175-.331-2.589-.836-1.416-.505-2.55-.95-2.534-.991.016-.045 1.175.33 2.592.835 1.413.506 2.55.951 2.534.992h-.003zM133.677 118.228c-.022.041-.797-.315-1.737-.795-.94-.48-1.683-.899-1.661-.94.022-.042.797.314 1.737.794.94.48 1.684.899 1.661.941zM105.711 92.208c.031.038-.47.496-.969 1.163-.502.664-.807 1.271-.851 1.252-.038-.016.203-.67.717-1.35.512-.684 1.077-1.097 1.103-1.062v-.003zM110.059 93.412c-.044.01-.175-.432-.289-.988-.114-.556-.171-1.01-.127-1.02.044-.01.175.432.289.989.114.556.172 1.01.127 1.02z" fill="#FAFAFA"/>
            <path d="m128.24 126.245 21.011-10.21a6.986 6.986 0 0 1 6.702.324c3.668 2.247 4.459 7.239 1.667 10.512l-9.103 10.658-23.241 3.216-2.175-13.169 2.582-4 2.557 2.672v-.003z" fill="#263238"/>
            <path d="M140.929 130.605s-.086.086-.258.213c-.171.127-.422.308-.74.524a54.858 54.858 0 0 1-5.117 3.082c-.339.178-.613.318-.806.41-.194.092-.302.14-.308.127-.007-.009.092-.076.276-.184.216-.127.476-.276.781-.454.661-.382 1.572-.909 2.57-1.51.997-.6 1.89-1.16 2.538-1.566.298-.188.555-.347.768-.48.181-.111.286-.169.293-.159l.003-.003z" fill="#455A64"/>
            <path d="M96.556 131.39s2.087-10.08 3.16-11.631c1.074-1.551 3.339-5.021 6.201-5.38 2.861-.359 8.709 3.076 9.776 4.427 2.694 3.413 19.69 21.418 19.483 21.179l-5.479 3.782-5.787-1.837h-16.612s-11.507-1.945-10.735-10.54h-.007z" fill="#263238"/>
            <path d="M123.904 141.927s-.089 0-.254-.013a4.967 4.967 0 0 1-.721-.114c-.619-.14-1.496-.426-2.528-.893-2.068-.931-4.774-2.548-7.487-4.687-2.741-2.101-5.12-4.141-6.695-5.774-.782-.817-1.385-1.513-1.738-2.043-.194-.251-.301-.477-.387-.617-.083-.146-.124-.222-.118-.225.007 0 .057.069.146.206.096.137.21.353.413.598.366.514.979 1.194 1.769 1.998 1.589 1.605 3.974 3.626 6.712 5.723 2.709 2.136 5.387 3.76 7.432 4.713 1.02.48 1.887.782 2.497.938.305.073.546.127.711.143.165.025.251.041.251.047h-.003zM116.461 139.677s-.069.051-.216.13c-.158.086-.368.204-.632.35-.276.149-.635.289-1.041.474-.204.095-.436.158-.671.244-.241.076-.489.185-.762.245-1.077.324-2.411.543-3.897.581a16.044 16.044 0 0 1-4.784-.619 14.872 14.872 0 0 1-4.358-2.069c-.298-.226-.597-.426-.87-.655a6.24 6.24 0 0 1-.724-.734 8.897 8.897 0 0 1-1.023-1.534c-.53-.998-.768-1.894-.86-2.514a4.528 4.528 0 0 1-.064-.721c0-.166 0-.251.006-.251.02 0 .01.349.121.962.111.614.365 1.491.902 2.469.267.49.6 1.001 1.023 1.5.216.245.444.493.715.712.266.223.568.42.863.642a14.916 14.916 0 0 0 4.32 2.034c1.636.47 3.262.648 4.736.626 1.474-.029 2.798-.235 3.872-.54.273-.058.521-.159.762-.232.238-.083.47-.14.67-.232.407-.175.769-.305 1.048-.445.27-.134.483-.242.645-.321.15-.073.229-.108.232-.102h-.013zM134.681 139.391c-.032.032-4.158-4.312-9.211-9.701-5.054-5.39-9.123-9.785-9.091-9.817.032-.031 4.158 4.313 9.211 9.702 5.054 5.39 9.122 9.784 9.091 9.816z" fill="#455A64"/>
            <path d="M117.532 139.315s-3.757 1.528-3.363 3.283c.39 1.75 2.331 2.564 4.288 2.377 1.956-.188 5.564-1.802 5.564-1.802l1.858-.985s-2.258-.035-3.395-.445c-1.321-.474-4.949-2.428-4.949-2.428h-.003z" fill="#E8505B"/>
            <path d="m122.179 142.385 13.328 2.097 28.157-2.806-15.436-4.233-26.039 3.747a.603.603 0 0 0-.518.601c0 .298.216.552.511.597l-.003-.003z" fill="#455A64"/>
            <path d="m139.096 123.261-3.227 19.086a1.653 1.653 0 0 0 1.795 1.919l26.004-2.593a1.649 1.649 0 0 0 1.461-1.348l3.516-19.32a1.651 1.651 0 0 0-1.801-1.939l-26.293 2.829a1.651 1.651 0 0 0-1.452 1.366h-.003z" fill="#455A64"/>
            <path d="M121.668 141.787s.025 0 .07.003l.206.026c.191.025.458.063.791.111l2.938.439c2.506.387 5.991.928 9.951 1.541l-.092.067c.166-.995.334-2.031.509-3.092.784-4.697 1.492-8.946 2.01-12.035.264-1.528.477-2.771.629-3.644.076-.42.137-.75.178-.989.022-.105.038-.19.051-.257a.373.373 0 0 1 .022-.086s0 .032-.006.089c-.01.067-.019.153-.035.261l-.15.994c-.136.874-.333 2.12-.575 3.652-.505 3.091-1.197 7.343-1.962 12.043l-.512 3.089-.013.079-.079-.012-9.942-1.596c-1.235-.206-2.229-.371-2.928-.486-.334-.057-.597-.105-.788-.136a8.135 8.135 0 0 0-.203-.038c-.045-.01-.07-.016-.067-.02l-.003-.003z" fill="#263238"/>
            <path d="M155.346 131.526c0 1.036-.749 1.875-1.67 1.875-.922 0-1.671-.839-1.671-1.875s.749-1.875 1.671-1.875c.921 0 1.67.839 1.67 1.875z" fill="#FAFAFA"/>
            <path d="M116.163 79.554c.671.995 1.35 2.005 1.728 3.146.375 1.141.416 2.447-.168 3.496-.486.874-1.382 1.554-1.531 2.542-.254 1.68 1.763 2.923 1.906 4.617.082.966-.47 1.869-1.093 2.61-.626.74-1.356 1.413-1.763 2.293-.406.88-.384 2.06.369 2.67-.928-.261-1.89.724-2.805.419-.778-.257-.985-1.245-1.061-2.062a1.973 1.973 0 0 0-.346 1.748c-1.41-1.43-1.747-3.804-.794-5.574.556-1.03 1.518-1.942 1.502-3.111-.016-1.28-1.203-2.237-1.54-3.474-.229-.845-.038-1.747.216-2.586.254-.84.578-1.672.613-2.549.035-.877-.045-1.226-.797-1.678" fill="#263238"/>
            <path d="M113.829 100.744s-.026 0-.07-.013a.87.87 0 0 1-.197-.064 1.388 1.388 0 0 1-.604-.521 2.084 2.084 0 0 1-.333-1.217c.009-.505.235-1.052.581-1.57.343-.524.816-1.017 1.258-1.582.429-.563.864-1.252.861-2.053.006-.804-.436-1.573-.925-2.298-.492-.724-1.07-1.5-1.242-2.466a2.27 2.27 0 0 1 .2-1.407c.213-.426.525-.772.829-1.097.309-.324.62-.623.864-.963.248-.336.442-.708.496-1.096a1.599 1.599 0 0 0-.248-1.09c-.197-.32-.454-.594-.689-.874a3.501 3.501 0 0 1-.861-1.833c-.089-.623 0-1.201.184-1.665.181-.464.432-.817.671-1.075.238-.257.457-.416.609-.514.077-.051.137-.083.178-.105.042-.022.064-.032.064-.029.016.02-.35.181-.807.693a3.38 3.38 0 0 0-.629 1.065 3.24 3.24 0 0 0-.155 1.614c.088.6.365 1.227.851 1.76.232.277.495.55.708.887.213.334.34.763.273 1.185-.06.426-.267.817-.521 1.166-.254.356-.571.665-.876.982-.302.321-.601.658-.801 1.055-.2.398-.267.858-.184 1.306.162.913.718 1.672 1.213 2.403.248.368.48.747.658 1.144.175.397.289.82.283 1.242 0 .423-.121.826-.293 1.18-.171.355-.39.667-.613.956-.454.575-.927 1.055-1.267 1.563-.343.502-.569 1.027-.584 1.507-.02.48.114.896.295 1.178.175.293.406.445.562.528.159.083.257.092.254.105l.007.013z" fill="#455A64"/>
            <path d="M136.114 129.747c-.918-.823.114-1.786-1.544-3.353-1.239-1.169-3.586-3.174-8.131-4.693l-2.846 5.087 4.955 1.602-.048 3.235a1.186 1.186 0 0 0 1.198 1.201l2.572-.032s-.749 3.175-.625 3.369c.352.553 1.111.298 1.213-.131.102-.429 2.217-5.558 2.217-5.558s1.382 1.195 1.579.512c0 0 .378-.416-.537-1.239h-.003z" fill="#B78876"/>
            <path d="M129.193 132.902c-.01-.019.121-.095.289-.263a2.072 2.072 0 0 0 .591-1.694c-.029-.239-.083-.378-.064-.388.013-.006.095.127.149.372.054.245.058.604-.069.969a1.848 1.848 0 0 1-.547.804c-.193.159-.343.21-.349.2zM130.847 132.797c-.028-.025.346-.391.496-.994.159-.601.006-1.103.044-1.109.013-.004.073.114.111.321a1.967 1.967 0 0 1-.4 1.554c-.133.162-.241.238-.251.228zM132.842 130.935s.048.102.051.28a1.706 1.706 0 0 1-.527 1.233c-.131.121-.229.168-.239.156-.025-.029.315-.296.512-.769.206-.471.162-.9.2-.903l.003.003z" fill="#AA6550"/>
            <path d="M200.28 116.07c.286-.992.899-1.948 1.842-2.355.985-.426 2.125-.184 3.132.184 1.007.366 1.998.855 3.065.922 1.071.066 2.278-.442 2.598-1.465.302-.963-.279-1.989-1.003-2.685-1.525-1.469-3.818-2.091-5.876-1.599-2.059.496-3.818 2.091-4.511 4.093" fill="#E8505B"/>
            <path d="M200.28 116.07c.286-.992.899-1.948 1.842-2.355.985-.426 2.125-.184 3.132.184 1.007.366 1.998.855 3.065.922 1.071.066 2.278-.442 2.598-1.465.302-.963-.279-1.989-1.003-2.685-1.525-1.469-3.818-2.091-5.876-1.599-2.059.496-3.818 2.091-4.511 4.093" fill="#000" opacity=".5"/>
            <path d="M191.806 120.369c-1.569-1.49-1.489-4.086-.708-6.107.781-2.018 2.49-3.569 4.399-4.592 3.7-1.98 8.325-2.129 12.143-.394-1.877.063-3.691 1.128-4.66 2.739-.86 1.43-1.051 3.162-1.762 4.671a7.44 7.44 0 0 1-3.974 3.715 7.43 7.43 0 0 1-5.441-.035M191.053 111.408c-1.738-2.053-1.97-5.345-1.712-8.024.257-2.676.876-5.37.454-8.027-.251-1.573-.861-3.076-1.067-4.655-.207-1.58.085-3.365 1.308-4.386 1.407-1.172 3.621-.896 5.082.204 1.465 1.1 2.309 2.828 2.929 4.553 1.359 3.785 1.861 7.983.743 11.847-1.118 3.864-3.742 7.319-7.588 8.485" fill="#E8505B"/>
            <path d="M190.217 128.244s-.006-.083-.006-.235c0-.156 0-.385.013-.677.022-.588.079-1.44.209-2.485.134-1.046.34-2.285.667-3.639a16.766 16.766 0 0 1 1.661-4.214 17.685 17.685 0 0 1 2.713-3.629 17.43 17.43 0 0 1 2.843-2.367c.435-.302.854-.527 1.216-.74.372-.194.696-.356.959-.483.264-.112.471-.197.626-.264.143-.057.219-.086.223-.083 0 .003-.07.042-.21.108-.153.07-.356.166-.613.286-.261.137-.578.302-.943.502-.356.216-.769.448-1.198.753a17.9 17.9 0 0 0-5.488 5.981c-1.598 2.796-2.036 5.736-2.354 7.795a34.718 34.718 0 0 0-.254 2.475 50.98 50.98 0 0 1-.041.677c-.01.156-.016.236-.023.236v.003z" fill="#263238"/>
            <path d="M175.232 103.314c-3.214 1.942-3.205 3.708-2.668 5.374.537 1.668 2.509 2.825 4.145 2.202.924-.353 1.595-1.157 2.166-1.964.572-.807 1.109-1.672 1.912-2.253.801-.582 1.963-.801 2.77-.226" fill="#E8505B"/>
            <path d="M175.232 103.314c-3.214 1.942-3.205 3.708-2.668 5.374.537 1.668 2.509 2.825 4.145 2.202.924-.353 1.595-1.157 2.166-1.964.572-.807 1.109-1.672 1.912-2.253.801-.582 1.963-.801 2.77-.226" fill="#000" opacity=".5"/>
            <path d="M172.824 105.44c.842-1.163 2.916-1.5 4.228-.918 1.312.578 2.271 1.728 3.132 2.879.86 1.147 1.696 2.361 2.887 3.158 1.191.798 2.855 1.087 4.04.283.778-.527 1.232-1.446 1.372-2.377.143-.931.007-1.881-.187-2.803-.283-1.347-.747-2.758-1.827-3.613-1.203-.956-2.871-1.001-4.405-.95-1.76.057-3.548.191-5.2.801-1.651.61-3.338 1.929-4.04 3.546" fill="#E8505B"/>
            <path d="M187.546 125.666s-.006-.025-.009-.07l-.01-.206-.028-.798c-.019-.705-.048-1.706-.086-2.936a181.089 181.089 0 0 0-.178-4.35c-.092-1.637-.213-3.435-.46-5.307-.127-.934-.274-1.85-.534-2.695a13.93 13.93 0 0 0-.985-2.358c-.381-.721-.8-1.376-1.242-1.951a12.51 12.51 0 0 0-1.356-1.49 9.92 9.92 0 0 0-2.407-1.64c-.156-.073-.293-.143-.417-.194-.12-.047-.225-.089-.314-.121-.079-.031-.14-.057-.194-.076-.044-.019-.063-.028-.063-.032 0 0 .025.004.07.016l.197.064c.088.032.196.067.32.108.127.048.264.114.426.181a9.654 9.654 0 0 1 2.452 1.617c.461.42.927.919 1.382 1.494.451.575.876 1.236 1.264 1.964.384.728.737 1.522 1.004 2.377.263.861.412 1.779.539 2.717.248 1.878.366 3.68.452 5.319.082 1.64.12 3.115.149 4.354.025 1.239.035 2.243.038 2.936v.798c0 .086 0 .152-.003.206 0 .048-.003.07-.007.07v.003zM188.703 127.122s-.181-.477-.352-1.382c-.169-.903-.293-2.241-.147-3.88.137-1.64.556-3.566 1.226-5.631.661-2.069 1.557-4.281 2.322-6.661.378-1.192.702-2.367.925-3.524.225-1.157.365-2.285.457-3.362.181-2.158.156-4.112.102-5.749-.054-1.636-.143-2.961-.197-3.877-.026-.45-.048-.803-.064-1.055l-.013-.273v-.095s.007.032.013.092l.029.273.089 1.052c.07.915.174 2.237.241 3.877.067 1.64.102 3.597-.073 5.764a30.182 30.182 0 0 1-.451 3.378c-.219 1.163-.543 2.349-.924 3.54-.769 2.387-1.668 4.595-2.332 6.658-.673 2.056-1.099 3.969-1.248 5.599-.159 1.63-.048 2.962.102 3.861.079.451.152.798.216 1.033.028.111.047.2.063.267.013.06.019.092.016.092v.003z" fill="#263238"/>
            <path d="M196.672 128.574h-15.094l-.343-2.907h15.437v2.907z" fill="#455A64"/>
            <path d="m183.198 128.244 1.887 8.719h8.204l1.763-8.719h-11.854z" fill="#455A64"/>
            <path d="M196.672 128.574c0 .042-3.319.064-7.41.051-4.094-.013-7.41-.054-7.41-.092s3.319-.064 7.413-.051c4.094.013 7.41.054 7.41.092h-.003z" fill="#455A64"/>
            <path d="M194.083 132.88c-.019.029-.445-.41-1.328-.763a4.683 4.683 0 0 0-1.617-.324c-.625-.019-1.302.13-1.988.366-.689.232-1.331.502-1.956.651a4.591 4.591 0 0 1-1.69.051 3.527 3.527 0 0 1-1.087-.343 2.017 2.017 0 0 1-.343-.235c.01-.013.131.076.369.187a3.85 3.85 0 0 0 1.077.292 4.674 4.674 0 0 0 1.645-.079c.603-.153 1.245-.426 1.941-.661.692-.238 1.394-.391 2.036-.362a4.612 4.612 0 0 1 1.651.362c.448.184.772.41.985.575.105.083.184.153.235.203.051.048.076.077.073.08h-.003z" fill="#263238"/>
            <path d="M193.969 133.462c-.019.028-.428-.398-1.277-.754a4.345 4.345 0 0 0-1.559-.32c-.604-.016-1.261.12-1.922.346-.664.222-1.289.48-1.883.642-.594.162-1.156.219-1.626.181a2.699 2.699 0 0 1-1.065-.286 1.921 1.921 0 0 1-.254-.162c-.054-.041-.082-.064-.079-.07.009-.013.124.073.356.178.232.102.59.216 1.048.235.454.022 1-.041 1.582-.21.584-.165 1.203-.425 1.874-.648.67-.229 1.35-.365 1.972-.343a4.259 4.259 0 0 1 2.763 1.125c.048.047.073.073.07.079v.007z" fill="#fff"/>
            <path d="M194.233 132.302c-.019.028-.461-.417-1.366-.804a5.014 5.014 0 0 0-1.658-.398c-.642-.044-1.344.121-2.052.363-.711.238-1.372.527-2.026.661a5.125 5.125 0 0 1-1.747 0 3.925 3.925 0 0 1-1.122-.356 2.325 2.325 0 0 1-.273-.169c-.057-.044-.089-.07-.085-.073.009-.013.133.076.381.191a4.33 4.33 0 0 0 1.111.305 5.252 5.252 0 0 0 1.706-.032c.626-.133 1.29-.426 2.004-.667.712-.245 1.439-.413 2.106-.359a4.914 4.914 0 0 1 1.69.438c.454.204.788.436 1.007.607.108.086.19.156.241.21.054.051.08.079.076.083h.007z" fill="#fff"/>
            <path d="M196.805 128.587c0 .038-3.395.073-7.581.073-4.187 0-7.585-.032-7.585-.073 0-.042 3.395-.073 7.585-.073 4.189 0 7.581.031 7.581.073z" fill="#263238"/>
        </g>
    </g>
    <defs>
        <clipPath id="oepdmeyjya">
            <path fill="#fff" d="M0 0h275v148H0z"/>
        </clipPath>
        <clipPath id="n1y4rhmheb">
            <path fill="#fff" transform="translate(65 4)" d="M0 0h146v141H0z"/>
        </clipPath>
    </defs>
</svg>
