<svg width="60" height="19" viewBox="0 0 60 19" fill="none" xmlns="http://www.w3.org/2000/svg">
    <rect opacity=".2" width="60" height="19" rx="9.5" fill="#158A02"/>
    <path d="M13.545 7.646h-1.556a1.52 1.52 0 0 0-.174-.537 1.364 1.364 0 0 0-.337-.404 1.484 1.484 0 0 0-.476-.256 1.82 1.82 0 0 0-.579-.089c-.376 0-.704.094-.983.28-.28.185-.496.455-.65.81-.154.353-.231.782-.231 1.286 0 .518.077.954.23 1.307.157.352.375.619.654.799.28.18.603.27.97.27.206 0 .396-.028.571-.082a1.372 1.372 0 0 0 .813-.625c.093-.152.157-.324.192-.519l1.556.007a2.904 2.904 0 0 1-.945 1.793 3.026 3.026 0 0 1-.959.576c-.369.14-.787.21-1.253.21-.649 0-1.229-.147-1.74-.44a3.127 3.127 0 0 1-1.208-1.276C7.147 10.2 7 9.526 7 8.736c0-.793.15-1.468.447-2.024.299-.557.704-.98 1.215-1.272A3.404 3.404 0 0 1 10.388 5c.421 0 .812.06 1.172.178.362.118.683.29.962.518.28.225.507.5.682.827.177.327.291.701.34 1.123zM17.084 12.479c-.552 0-1.03-.117-1.432-.352a2.405 2.405 0 0 1-.926-.987c-.218-.424-.327-.915-.327-1.474 0-.563.109-1.056.327-1.477.217-.424.526-.753.926-.987.403-.237.88-.355 1.432-.355.551 0 1.027.118 1.427.355.402.234.713.563.93.987.218.421.327.914.327 1.477 0 .559-.109 1.05-.327 1.474-.217.421-.527.75-.93.987-.4.234-.876.352-1.427.352zm.007-1.172a.94.94 0 0 0 .628-.213c.168-.145.295-.341.38-.59.088-.248.131-.531.131-.848 0-.318-.043-.6-.13-.85a1.322 1.322 0 0 0-.38-.589.93.93 0 0 0-.63-.216.964.964 0 0 0-.639.216c-.17.145-.3.341-.387.59a2.608 2.608 0 0 0-.128.849c0 .317.043.6.128.848.088.249.217.445.387.59a.974.974 0 0 0 .64.213zM20.752 12.372V6.918h1.442v.962h.064c.113-.32.303-.572.568-.756.265-.185.582-.277.951-.277.374 0 .693.093.956.28.262.185.438.436.525.753h.057c.111-.313.313-.562.604-.75.293-.189.64-.283 1.04-.283.51 0 .922.162 1.24.486.32.322.479.779.479 1.37v3.67h-1.51v-3.37c0-.304-.08-.531-.24-.683a.847.847 0 0 0-.605-.227c-.274 0-.488.088-.642.263-.154.173-.231.401-.231.685v3.331h-1.467V8.97c0-.267-.077-.48-.23-.639a.792.792 0 0 0-.6-.238.833.833 0 0 0-.455.128.879.879 0 0 0-.316.351c-.078.15-.117.325-.117.526v3.274h-1.513zM29.873 14.418v-7.5h1.491v.916h.068a2 2 0 0 1 .288-.448c.127-.154.293-.281.497-.383.206-.104.461-.156.767-.156.397 0 .764.104 1.1.312.337.206.605.517.807.934.2.414.302.934.302 1.559 0 .608-.099 1.122-.295 1.541-.194.417-.46.733-.796.948-.333.213-.708.32-1.122.32-.293 0-.543-.049-.75-.146a1.548 1.548 0 0 1-.5-.365c-.13-.15-.23-.3-.298-.451h-.046v2.919h-1.513zm1.48-4.773c0 .324.046.607.136.849.09.241.22.43.39.564.17.133.378.2.622.2a.976.976 0 0 0 .625-.203c.17-.138.3-.327.387-.569.09-.243.135-.524.135-.841a2.41 2.41 0 0 0-.132-.831 1.238 1.238 0 0 0-.387-.561.981.981 0 0 0-.628-.203 1 1 0 0 0-.625.196c-.168.13-.297.315-.387.554a2.4 2.4 0 0 0-.135.845zM37.714 5.1v7.272H36.2V5.1h1.513zM41.411 12.479c-.56 0-1.044-.114-1.449-.341a2.336 2.336 0 0 1-.93-.973c-.218-.422-.327-.92-.327-1.495 0-.561.11-1.054.327-1.478.218-.423.525-.754.92-.99.398-.237.864-.355 1.399-.355.36 0 .695.058 1.005.174.313.113.585.285.817.515.234.23.416.518.547.866.13.346.195.75.195 1.214v.416h-4.606v-.938h3.182c0-.217-.047-.41-.142-.578a1.017 1.017 0 0 0-.394-.395 1.124 1.124 0 0 0-.58-.145c-.229 0-.432.053-.61.16a1.12 1.12 0 0 0-.412.422c-.1.175-.15.37-.153.586v.892c0 .27.05.503.15.7.101.196.245.347.43.454.184.106.403.16.656.16.168 0 .322-.024.462-.072a.926.926 0 0 0 .586-.561l1.399.093a1.91 1.91 0 0 1-.437.88c-.218.249-.5.443-.845.583-.343.137-.74.206-1.19.206zM47.803 6.918v1.136H44.52V6.918h3.284zM45.264 5.61h1.513v5.085c0 .14.021.249.064.327.043.075.102.129.178.16.078.03.168.046.27.046.07 0 .142-.006.213-.018l.163-.032.238 1.126a4.26 4.26 0 0 1-.32.081 2.566 2.566 0 0 1-.5.06 2.298 2.298 0 0 1-.96-.145 1.338 1.338 0 0 1-.635-.518c-.151-.235-.226-.53-.224-.888V5.61zM51.216 12.479c-.561 0-1.044-.114-1.449-.341a2.336 2.336 0 0 1-.93-.973c-.218-.422-.327-.92-.327-1.495 0-.561.109-1.054.327-1.478.218-.423.524-.754.92-.99.397-.237.864-.355 1.399-.355.36 0 .695.058 1.005.174.312.113.584.285.816.515.235.23.417.518.547.866.13.346.196.75.196 1.214v.416h-4.606v-.938h3.182c0-.217-.048-.41-.142-.578a1.017 1.017 0 0 0-.395-.395 1.124 1.124 0 0 0-.578-.145c-.23 0-.434.053-.611.16a1.121 1.121 0 0 0-.412.422c-.1.175-.15.37-.153.586v.892c0 .27.05.503.15.7.101.196.244.347.429.454.185.106.404.16.657.16.168 0 .322-.024.462-.072a.927.927 0 0 0 .586-.561l1.399.093a1.91 1.91 0 0 1-.437.88c-.218.249-.5.443-.845.583-.344.137-.74.206-1.19.206z" fill="#158A02"/>
</svg>
