<svg width="275" height="148" viewBox="0 0 275 148" fill="none" xmlns="http://www.w3.org/2000/svg">
    <g clip-path="url(#ckvca7vnaa)">
        <rect width="275" height="148" rx="8" fill="#FDE3DD"/>
        <g clip-path="url(#xaqphfud1b)">
            <path d="M70.82 11.604s-3.415 1.29-3.506 1.985c0 0 .754 2.577 4.016 4.393l-.16 1.203.53 1.71c.453-2.577.672-6.38.672-6.38s-.686-2.409-1.554-2.908l.003-.002z" fill="#EBEBEB"/>
            <path d="M70.766 11.87s-.23 3.538 1.222 5.579c0 0 .8-3.31-1.222-5.58z" fill="#E0E0E0"/>
            <path d="M77.487 14.188s-2.576-2.59-3.247-2.387c0 0-2.036 1.748-2.346 5.474l-1.159.35s-1.44-2.462-4.984-2.961c0 0-.775 3.731-.843 3.72-.071-.011 1.956 1.075 4.49.428 2.533-.647 6.083-2.013 6.083-2.013s1.91-1.617 2.01-2.614l-.004.003z" fill="#EBEBEB"/>
            <path d="M70.271 18.244s-3.077-.693-5.141.106c0 0 3.083 1.297 5.141-.106zM77.226 14.247s-3.314 1.243-4.575 3.41c0 0 3.342-.633 4.575-3.41z" fill="#E0E0E0"/>
            <path d="m83.121 14.407 3.396 14.16-21.44 6.475-4.49-13.83 22.534-6.805z" fill="#EBEBEB"/>
            <path d="m79.054 15.639 4.19 13.918 3.274-.99-3.396-14.16-4.068 1.232z" fill="#E0E0E0"/>
            <path d="m81.51 14.895 3.644 14.083-.743.225-4.19-13.918 1.29-.39zM70.89 18.1l-1.788.54 4.19 13.919 1.788-.54L70.89 18.1z" fill="#FAFAFA"/>
            <path d="m84.478 20.46-21.914 6.845.419 1.347 21.915-6.844-.42-1.347z" fill="#FAFAFA"/>
            <path d="M221.356 61.262s-2.591-.185-2.858.237c0 0-.279 1.893 1.292 4.04l-.458.73-.165 1.262c1.059-1.534 2.331-3.926 2.331-3.926s.27-1.761-.139-2.343h-.003z" fill="#EBEBEB"/>
            <path d="M221.242 61.419s-1.201 2.218-.868 3.971c0 0 1.5-1.904.868-3.971z" fill="#E0E0E0"/>
            <path d="M224.902 64.923s-.896-2.444-1.392-2.512c0 0-1.836.524-3.145 2.842l-.854-.12s-.199-2.024-2.343-3.4c0 0-1.611 2.183-1.651 2.155-.043-.029.945 1.277 2.778 1.613 1.831.337 4.532.513 4.532.513s1.717-.476 2.075-1.091z" fill="#EBEBEB"/>
            <path d="M219.027 65.393s-1.785-1.366-3.356-1.465c0 0 1.608 1.758 3.356 1.465zM224.714 64.883s-2.513-.186-3.971.84c0 0 2.349.588 3.971-.84z" fill="#E0E0E0"/>
            <path d="m228.481 66.744-2.013 10.172-15.796-2.206 1.21-10.283 16.599 2.317z" fill="#EBEBEB"/>
            <path d="m225.483 66.325-1.429 10.252 2.414.34 2.012-10.173-2.997-.419z" fill="#E0E0E0"/>
            <path d="m227.294 66.58-1.831 10.194-.549-.077 1.429-10.252.951.134zM218.157 65.304l-1.428 10.252 1.317.184 1.428-10.252-1.317-.184z" fill="#FAFAFA"/>
            <path d="m227.559 71.06-16.209-2.108-.129.995 16.209 2.109.129-.995z" fill="#FAFAFA"/>
            <path d="m70.038 70.362-7.925-17.111a1.86 1.86 0 0 0-1.116-1.01l-8.5-2.816a1.865 1.865 0 0 0-2.298 1.032l-3.55 8.234a1.872 1.872 0 0 0 .012 1.505l7.925 17.111a1.864 1.864 0 0 0 2.465.938l12.05-5.417a1.869 1.869 0 0 0 .937-2.469v.003zM53.93 55.58a1.752 1.752 0 0 1-1.215-3.287 1.752 1.752 0 0 1 1.215 3.287z" fill="#E0E0E0"/>
            <path d="M51.443 65.687c-.774-1.668-.196-3.162 1.224-3.823 1.432-.667 2.947-.149 3.72 1.522.78 1.682.197 3.162-1.234 3.829-1.418.661-2.927.154-3.707-1.528h-.003zm3.277-1.525c-.456-.978-.98-1.207-1.446-.987-.442.205-.632.764-.18 1.745.456.978 1.005 1.192 1.446.986.47-.216.632-.764.18-1.742v-.002zm3.703-4.827 1.984-.924-2.1 12.718-1.985.924 2.101-12.718zm1.933 7.737c-.774-1.668-.208-3.156 1.224-3.823 1.432-.667 2.947-.148 3.72 1.523.78 1.682.197 3.161-1.235 3.828-1.431.668-2.926.154-3.706-1.528h-.003zm3.277-1.525c-.456-.978-.99-1.197-1.446-.986-.456.21-.632.764-.18 1.744.456.978.99 1.198 1.446.987.456-.211.632-.764.18-1.745z" fill="#fff"/>
            <path d="m217.652 46.76-36.085-10.01a1.742 1.742 0 0 1-1.212-2.147l6.177-22.323a1.737 1.737 0 0 1 2.143-1.214l36.085 10.012a1.744 1.744 0 0 1 1.213 2.147l-6.175 22.323a1.737 1.737 0 0 1-2.143 1.214l-.003-.003z" fill="#E0E0E0"/>
            <path d="m185.943 28-.607 2.193-.225-.063.553-1.993-.516-.143.057-.2.74.206h-.002zM187.645 30.617l-.054.2-1.534-.425.045-.16 1.156-.64c.316-.178.401-.312.444-.46.071-.254-.065-.459-.399-.553-.256-.071-.475-.049-.666.08l-.122-.183c.225-.154.527-.19.862-.097.445.123.664.428.561.793-.057.211-.176.38-.549.587l-.948.528 1.204.333v-.003zM190.053 30.883l-.438-.123-.16.576-.225-.063.16-.576-1.236-.342.046-.162 1.563-1.132.25.068-1.511 1.106.95.265.14-.507.219.06-.139.507.438.123-.057.2zM193.409 31.812l-.438-.123-.159.576-.225-.062.159-.576-1.235-.342.045-.163 1.563-1.132.251.069-1.512 1.106.951.265.139-.508.22.06-.14.508.438.122-.057.2zM195.342 32.274c-.102.373-.444.593-.979.445-.316-.089-.586-.28-.706-.5l.16-.148c.099.186.321.363.603.44.373.102.621-.023.695-.291.077-.283-.049-.505-.607-.662l-.466-.128.415-1.07 1.199.334-.057.2-1.002-.277-.268.679.282.077c.66.182.837.513.731.9zM197.509 32.867c-.114.41-.51.584-.934.464-.58-.162-.785-.653-.595-1.345.208-.744.721-1.02 1.316-.855.196.054.372.14.486.262l-.142.157a.8.8 0 0 0-.396-.223c-.472-.131-.859.089-1.025.684a1.883 1.883 0 0 0-.039.18c.176-.211.469-.274.774-.191.435.12.666.462.555.864v.003zm-.225-.054c.08-.288-.082-.534-.418-.625-.336-.094-.621.051-.695.322-.065.243.071.525.45.63.316.089.586-.037.666-.328h-.003zM200.495 33.722c-.103.368-.444.576-.974.428-.316-.089-.589-.283-.709-.502l.16-.148c.1.185.324.362.609.442.362.1.609-.015.686-.285.074-.263-.062-.488-.47-.6l-.156-.042.045-.165.817-.593-1.118-.311.054-.2 1.406.39-.046.16-.834.608c.462.157.63.467.533.818h-.003zM202.698 34.306c-.113.411-.509.585-.933.468-.581-.163-.786-.653-.595-1.346.205-.744.72-1.02 1.315-.855.196.054.373.14.487.262l-.14.157a.801.801 0 0 0-.395-.222c-.473-.131-.86.088-1.025.684a1.879 1.879 0 0 0-.04.18c.176-.211.47-.274.774-.191.436.12.666.462.555.864h-.003zm-.224-.054c.079-.288-.083-.533-.419-.624-.336-.094-.62.051-.694.322-.066.242.071.525.449.63.316.089.587-.037.666-.328h-.002zM205.138 33.326l-.046.16-1.477 1.778-.245-.068 1.452-1.742-1.128-.313-.114.41-.222-.063.168-.61 1.609.445.003.003zM208.269 34.195l-.045.16-1.478 1.779-.244-.069 1.451-1.742-1.127-.313-.114.41-.222-.062.168-.61 1.609.444.002.003zM209.985 36.373c-.108.388-.501.54-1.025.394-.526-.146-.777-.476-.669-.864.074-.262.274-.408.573-.422-.197-.148-.274-.348-.211-.579.1-.356.464-.496.925-.367.464.128.712.436.612.792-.063.228-.233.36-.484.385.251.168.35.4.279.659v.002zm-.23-.068c.074-.268-.111-.502-.499-.61-.387-.108-.663 0-.737.268-.074.274.105.505.495.613.388.108.667 0 .743-.271h-.002zm-.45-.79c.341.094.586 0 .652-.24.068-.247-.106-.458-.433-.547-.33-.09-.584 0-.649.246-.066.242.091.45.433.544l-.003-.003zM212.251 36.459c-.205.744-.72 1.02-1.315.855-.196-.054-.373-.14-.487-.262l.14-.157a.802.802 0 0 0 .395.222c.473.132.86-.088 1.025-.684.014-.051.029-.114.04-.18-.176.212-.47.274-.774.192-.436-.12-.666-.462-.555-.864.114-.41.509-.585.933-.468.581.163.786.653.595 1.346h.003zm-.191-.522c.066-.242-.071-.524-.449-.63-.316-.088-.587.037-.666.328-.08.288.082.533.418.624.333.094.621-.05.695-.322h.002zM214.768 36l-.607 2.192-.224-.062.552-1.993-.515-.143.056-.2.741.206h-.003zM216.47 38.614l-.054.2-1.534-.425.045-.16 1.156-.641c.316-.177.402-.31.444-.46.071-.253-.065-.458-.398-.552-.257-.072-.476-.049-.666.08l-.123-.183c.225-.154.527-.19.863-.097.444.123.663.428.56.793-.056.21-.176.379-.549.587l-.948.527 1.204.334v-.003zM218.552 38.731c-.103.368-.445.576-.974.428-.316-.089-.589-.282-.709-.502l.16-.148c.099.185.324.362.609.442.361.1.609-.015.686-.285.074-.263-.066-.488-.47-.6l-.156-.042.045-.165.817-.593-1.119-.311.057-.2 1.407.391-.046.16-.834.607c.461.154.629.467.532.818h-.005zM201.112 36.313l-.263.954 17.538 4.864.264-.953-17.539-4.865zM209.129 40.587l-.264.953 8.996 2.495.264-.953-8.996-2.495z" fill="#fff"/>
            <path d="m188.019 20.604 4.636 1.286c.752.209 1.192.988.984 1.74l-.768 2.778a1.412 1.412 0 0 1-1.738.985l-4.636-1.285a1.414 1.414 0 0 1-.984-1.74l.768-2.778a1.412 1.412 0 0 1 1.738-.986z" fill="#F5F5F5" opacity=".5"/>
            <path d="m185.553 24.217.097-.354 3.788 1.053a.828.828 0 0 0 1.014-.576.829.829 0 0 0-.572-1.015l-3.789-1.052.097-.354 3.788 1.052a1.192 1.192 0 0 1-.634 2.295l-3.789-1.052v.003z" fill="#E0E0E0"/>
            <path d="m190.676 24.208-.099.355 2.6.724.099-.354-2.6-.725z" fill="#E0E0E0"/>
            <path d="m207.699 21.204-18.924-5.252-.45 1.626 18.923 5.252.451-1.626zM220.692 23.632l-2.08-.577a.896.896 0 0 0-1.103.626l-.577 2.082a.899.899 0 0 0 .625 1.105l2.079.578a.896.896 0 0 0 1.104-.626l.576-2.083a.898.898 0 0 0-.624-1.105z" fill="#fff"/>
            <path d="M60.066 94.036c-.017 0-.034-.236-.114-.655a8.285 8.285 0 0 0-.52-1.722 6.567 6.567 0 0 0-1.487-2.184c-.712-.69-1.759-1.206-2.912-1.209-1.153-.006-2.203.505-2.92 1.192-.73.687-1.196 1.482-1.498 2.178a8.337 8.337 0 0 0-.53 1.719c-.082.42-.1.656-.116.653a.62.62 0 0 1 .003-.174 7.346 7.346 0 0 1 .54-2.246 6.51 6.51 0 0 1 1.5-2.241c.732-.713 1.823-1.25 3.024-1.243 1.198.002 2.286.547 3.014 1.263a6.509 6.509 0 0 1 1.49 2.246c.293.716.415 1.332.478 1.756.03.214.045.38.05.493.007.115.01.172 0 .174h-.002z" fill="#E0E0E0"/>
            <path d="M61.811 94.036c-.017 0-.034-.236-.114-.655a8.285 8.285 0 0 0-.52-1.722 6.567 6.567 0 0 0-1.487-2.184c-.711-.69-1.759-1.206-2.912-1.209-1.153-.006-2.203.505-2.92 1.192-.73.687-1.196 1.482-1.498 2.178a8.337 8.337 0 0 0-.53 1.719c-.082.42-.099.656-.116.653a.62.62 0 0 1 .003-.174 7.34 7.34 0 0 1 .54-2.246c.291-.71.758-1.529 1.5-2.241.732-.713 1.823-1.25 3.024-1.243 1.199.002 2.286.547 3.015 1.263a6.51 6.51 0 0 1 1.489 2.246c.293.716.415 1.332.478 1.756.031.214.045.38.05.493.007.115.01.172 0 .174h-.002z" fill="#E0E0E0"/>
            <path d="m44.976 93.412 19.696-.151.43 26.887H43l1.976-26.736z" fill="#EBEBEB"/>
            <path d="M64.672 93.261h2.47l2.13 26.887h-4.17l-.43-26.887z" fill="#E0E0E0"/>
            <path d="M60.496 103.846H47.603v2.164h12.893v-2.164z" fill="#fff"/>
            <path d="M217.191 94.036c-.017 0-.034-.236-.114-.655a8.237 8.237 0 0 0-.521-1.722 6.567 6.567 0 0 0-1.486-2.184c-.711-.69-1.759-1.206-2.912-1.209-1.153-.006-2.203.505-2.921 1.192-.728.687-1.195 1.482-1.497 2.178a8.28 8.28 0 0 0-.529 1.719c-.083.42-.1.656-.117.653-.006 0-.006-.06.003-.174a7.32 7.32 0 0 1 .541-2.246c.29-.71.757-1.529 1.5-2.241.731-.713 1.822-1.25 3.023-1.243 1.198.002 2.286.547 3.015 1.263a6.501 6.501 0 0 1 1.488 2.246c.294.716.416 1.332.479 1.756.031.214.045.38.051.493.006.115.008.172 0 .174h-.003z" fill="#E0E0E0"/>
            <path d="M218.932 94.036c-.017 0-.034-.236-.113-.655a8.362 8.362 0 0 0-.521-1.722 6.567 6.567 0 0 0-1.486-2.184c-.712-.69-1.76-1.206-2.912-1.209-1.153-.006-2.204.505-2.921 1.192-.729.687-1.196 1.482-1.497 2.178a8.295 8.295 0 0 0-.53 1.719c-.083.42-.1.656-.117.653a.767.767 0 0 1 0-.174 7.368 7.368 0 0 1 .541-2.246 6.518 6.518 0 0 1 1.5-2.241c.732-.713 1.822-1.25 3.024-1.243 1.198.002 2.285.547 3.014 1.263a6.52 6.52 0 0 1 1.489 2.246c.293.716.416 1.332.478 1.756.032.214.046.38.051.493.006.115.009.172 0 .174z" fill="#E0E0E0"/>
            <path d="m202.101 93.412 19.693-.151.43 26.887h-22.102l1.979-26.736z" fill="#EBEBEB"/>
            <path d="M221.794 93.261h2.474l2.129 26.887h-4.173l-.43-26.887z" fill="#E0E0E0"/>
            <path d="M217.62 103.846h-12.892v2.164h12.892v-2.164z" fill="#fff"/>
            <path d="M231.171 120.043c0 .04-42.079.074-93.974.074s-93.983-.034-93.983-.074c0-.04 42.07-.074 93.983-.074 51.912 0 93.974.034 93.974.074z" fill="#263238"/>
            <path d="M77.675 99.362h-27.32v20.683h27.32V99.362z" fill="#AE7461"/>
            <g opacity=".3" fill-rule="evenodd" clip-rule="evenodd" fill="#000">
                <path d="M67.384 101.791v-.964h1.656v.964a.816.816 0 0 1-.723.804v.838h.368c.128 0 .233.074.233.162h-1.415c0-.088.106-.162.234-.162h.367v-.838a.82.82 0 0 1-.723-.804h.003zM64.213 101.725a1.201 1.201 0 0 1 1.167-.898c.564 0 1.04.385 1.167.898h-1.056v1.511a.235.235 0 0 0 .467 0h.225a.453.453 0 0 1-.459.431.455.455 0 0 1-.458-.431v-1.511h-1.053z"/>
            </g>
            <path d="M70.9 120.043h6.775V99.359H70.9v20.684z" fill="#000" opacity=".3"/>
            <path d="M70.886 119.837c-.037 0-.069-4.587-.069-10.243 0-5.657.032-10.244.069-10.244.037 0 .068 4.585.068 10.244s-.031 10.243-.068 10.243z" fill="#263238"/>
            <path d="M75.36 115.276h-2.094v2.323h2.095v-2.323z" fill="#fff"/>
            <path d="M61.793 99.413H58.69v4.413h3.103v-4.413zM61.793 115.569H58.69v4.414h3.103v-4.414z" fill="#000" opacity=".3"/>
            <path d="M50.555 99.373c0 .032 6.057.054 13.53.054 7.473 0 13.533-.025 13.533-.054 0-.028-6.058-.054-13.533-.054s-13.53.026-13.53.054z" fill="#263238"/>
            <path d="M62.906 111.079h-4.594a.2.2 0 0 1 0-.399h4.426l.479-2.643h-5.338a.2.2 0 0 1 0-.399h5.574c.06 0 .114.026.15.071a.2.2 0 0 1 .043.163l-.55 3.042a.198.198 0 0 1-.195.162l.005.003z" fill="#E0E0E0"/>
            <path d="m62.755 112.143-4.375-.015a.2.2 0 0 1-.197-.174l-.617-4.727h-1.23a.2.2 0 0 1 0-.399h1.406c.1 0 .185.074.197.174l.617 4.727 4.202.014c.108 0 .2.089.197.2a.198.198 0 0 1-.2.197v.003zM59.094 113.671a.738.738 0 0 1-.742-.733c0-.405.333-.733.742-.733.41 0 .743.328.743.733a.738.738 0 0 1-.743.733zm0-1.069a.343.343 0 0 0-.347.336c0 .185.157.336.347.336.191 0 .348-.151.348-.336a.343.343 0 0 0-.348-.336zM62.112 113.671a.738.738 0 0 1-.743-.733c0-.405.333-.733.743-.733s.743.328.743.733a.738.738 0 0 1-.743.733zm0-1.069a.343.343 0 0 0-.347.336c0 .185.156.336.347.336.19 0 .347-.151.347-.336a.343.343 0 0 0-.347-.336z" fill="#E0E0E0"/>
            <path d="M59.732 111.079a.197.197 0 0 1-.196-.185l-.188-2.942a.201.201 0 0 1 .185-.211c.105-.012.202.077.21.185l.188 2.942a.201.201 0 0 1-.184.211h-.015zM61.411 111.079h-.01a.2.2 0 0 1-.189-.208l.168-2.942c.006-.108.103-.2.208-.188a.199.199 0 0 1 .188.208l-.168 2.942a.2.2 0 0 1-.197.188z" fill="#E0E0E0"/>
            <path d="M58.05 109.608a.201.201 0 0 1-.2-.197.2.2 0 0 1 .197-.199l5.13-.049c.108 0 .196.089.199.197a.2.2 0 0 1-.196.2l-5.13.048z" fill="#E0E0E0"/>
            <path d="M220.035 112.382s-1.105-7.609-1.014-12.036c.091-4.428-.005-9.409-.005-9.409h.509s-.344 8.787.031 14.087c.376 5.297 1.364 7.355 1.364 7.355h-.885" fill="#263238"/>
            <path d="M223.328 82.376c-.103-.26-.228-.53-.464-.681-.322-.205-.746-.12-1.107.008-1.54.545-2.904 3.419-3.525 4.93l2.044 6.893c3.687-3.427 4.327-7.92 3.052-11.15z" fill="#455A64"/>
            <path d="m222.745 81.977-.029.091-.099.251c-.089.217-.217.533-.365.924a34.95 34.95 0 0 0-1.027 3.11 34.927 34.927 0 0 0-.721 3.196c-.074.413-.128.747-.162.98l-.043.269c-.011.06-.017.094-.02.091-.002 0 .001-.034.003-.094.009-.071.017-.16.029-.268.025-.234.071-.57.136-.986.131-.83.356-1.97.698-3.208a29.506 29.506 0 0 1 1.053-3.11c.157-.39.291-.701.39-.915.046-.1.086-.18.114-.245.026-.057.043-.086.046-.083l-.003-.003z" fill="#263238"/>
            <path d="M219.365 95.18c-1.916-1.061-3.043-3.054-3.148-5.24-.074-1.531.395-3.031.928-4.468.045-.125.099-.26.216-.325.159-.091.362-.011.521.083 1.392.792 2.235 2.306 2.682 3.846.298 1.023.452 2.104.316 3.161-.137 1.058-.743 2.21-1.515 2.943z" fill="#455A64"/>
            <path d="M219.365 95.18s-.005-.032-.008-.092l-.006-.265c0-.23-.008-.561-.028-.972a26.912 26.912 0 0 0-.356-3.184 50.415 50.415 0 0 0-.661-3.14l-.227-.946-.06-.26a.373.373 0 0 1-.014-.09s.014.028.031.088l.074.254c.063.222.151.541.253.94.205.796.473 1.902.686 3.14.211 1.237.311 2.374.333 3.195.012.41.012.744 0 .975l-.011.265a.366.366 0 0 1-.009.092h.003z" fill="#263238"/>
            <path d="M219.365 95.18c-1.916-1.061-3.043-3.054-3.148-5.24-.074-1.531.395-3.031.928-4.468.045-.125.099-.26.216-.325.159-.091.362-.011.521.083 1.392.792 2.235 2.306 2.682 3.846.298 1.023.452 2.104.316 3.161-.137 1.058-.743 2.21-1.515 2.943z" fill="#000" opacity=".3"/>
            <path d="M221.526 106.823c1.885.413 3.436 1.745 5.255 2.392 1.204.428 2.562.579 3.525 1.423-.231-.582-.778-.97-1.307-1.303a23.442 23.442 0 0 0-4.763-2.278c-.854-.297-1.782-.542-2.656-.3M218.802 108.505c-2.36-.037-4.845-2.05-7.194-2.17 2.46-.795 5.978-.145 7.194 2.17zM219.725 102.834c1.198-.433 2.513-.453 3.771-.256 1.259.196 2.474.601 3.684 1.003-.122-.821-.783-1.437-1.406-1.981-.47-.411-.943-.824-1.481-1.138-.538-.313-1.15-.527-1.773-.501-.752.03-1.466.419-1.959.989-.492.57-.757 1.14-.839 1.887M214.879 100.226c-1.486-1.272-3.735-1.146-5.688-1.103 3.004 1.436 6.237 3.406 8.822 5.505.08-1.383-1.258-2.8-3.134-4.405v.003z" fill="#455A64"/>
            <path d="M214.879 100.226c-1.486-1.272-3.735-1.146-5.688-1.103 3.004 1.436 6.237 3.406 8.822 5.505.08-1.383-1.258-2.8-3.134-4.405v.003z" fill="#000" opacity=".3"/>
            <path d="M220.393 98.472c.746-.498 1.503-.974 2.286-1.328.783-.356 1.512-.924 2.266-1.331.979-.53 1.828-1.27 2.727-1.928.9-.658 1.887-1.251 2.986-1.428-.896-.185-1.833-.085-2.718.157-.883.242-1.722.618-2.557.998-1.158.521-2.337 1.057-3.285 1.907-.948.85-1.804 1.688-1.702 2.956" fill="#455A64"/>
            <path d="M226.739 108.505s-.029-.009-.075-.031c-.056-.029-.122-.066-.204-.106-.177-.094-.433-.234-.755-.396a12.3 12.3 0 0 0-.526-.262 11.625 11.625 0 0 0-.613-.283c-.435-.185-.922-.382-1.451-.507-.53-.131-1.056-.16-1.515-.037a4.56 4.56 0 0 0-.64.191c-.194.08-.367.171-.518.265a3.397 3.397 0 0 0-.652.539c-.137.145-.202.236-.211.231 0 0 .011-.026.043-.069.028-.045.077-.105.142-.185.131-.154.339-.365.643-.567.151-.1.328-.197.524-.28.197-.085.419-.145.649-.202.467-.129 1.017-.1 1.552.031.538.128 1.027.328 1.466.519.219.097.424.194.612.291.191.094.367.185.524.271.318.168.569.316.743.422.079.048.145.088.199.119.045.029.068.046.065.049l-.002-.003zM217.043 107.333s.054.012.148.043c.094.031.225.088.384.168a4.679 4.679 0 0 1 1.973 1.899c.085.157.148.285.182.379a.524.524 0 0 1 .049.146c-.015.005-.103-.194-.282-.494a5.383 5.383 0 0 0-.851-1.066 5.382 5.382 0 0 0-1.096-.81c-.308-.168-.51-.25-.504-.262l-.003-.003zM211.819 100.106l.099.029.282.099.447.166c.174.065.364.16.578.254a13.65 13.65 0 0 1 3.071 1.961c.538.47 1.025.947 1.432 1.414.407.468.749.907 1.016 1.292.271.382.473.701.615.92.066.103.12.189.163.254a.349.349 0 0 1 .051.091 3.929 3.929 0 0 1-.239-.327c-.148-.214-.359-.528-.635-.904a17.053 17.053 0 0 0-1.028-1.275 15.25 15.25 0 0 0-1.429-1.399 14.364 14.364 0 0 0-3.043-1.97c-.21-.097-.398-.197-.569-.266-.168-.068-.316-.128-.441-.176l-.277-.117c-.062-.029-.096-.043-.093-.046zM223.266 101.506s-.069-.003-.188-.026c-.066-.011-.137-.025-.216-.04-.086-.017-.183-.017-.291-.028-.424-.031-1.042.003-1.622.319a2.895 2.895 0 0 0-.738.548 3.254 3.254 0 0 0-.475.587c-.236.362-.31.624-.325.621a.69.69 0 0 1 .049-.185c.042-.114.111-.279.225-.467.111-.189.264-.405.469-.611a2.83 2.83 0 0 1 .755-.567c.598-.325 1.238-.353 1.665-.305.108.014.208.02.293.04l.217.054a.874.874 0 0 1 .182.057v.003zM225.637 94.136s-.029.023-.088.054l-.262.143c-.228.123-.558.305-.96.542-.398.24-.868.533-1.366.89-.498.358-1.033.775-1.526 1.28a3.822 3.822 0 0 0-.623.809c-.154.296-.302.584-.439.86-.273.551-.495 1.059-.654 1.495a9.02 9.02 0 0 0-.319 1.052c-.06.253-.083.396-.091.393 0 0 0-.037.008-.105.009-.069.023-.169.049-.297.048-.256.142-.624.296-1.066.153-.442.372-.955.643-1.508.134-.277.282-.567.435-.864a3.85 3.85 0 0 1 .638-.83 10.99 10.99 0 0 1 1.543-1.285 18.241 18.241 0 0 1 2.354-1.397c.111-.055.202-.097.271-.129a.53.53 0 0 1 .096-.04l-.005.003zM219.018 101.292s-.023-.071-.046-.2a52.325 52.325 0 0 1-.102-.547 15.68 15.68 0 0 0-.447-1.773 15.053 15.053 0 0 0-.675-1.7c-.091-.202-.168-.37-.23-.504a1.094 1.094 0 0 1-.077-.191c.005 0 .042.06.105.177.063.117.151.285.253.496.208.422.481 1.015.701 1.699a12.445 12.445 0 0 1 .501 2.341c.014.131.02.202.014.205l.003-.003z" fill="#263238"/>
            <path d="M218.847 95.915c-.059-.892-.35-1.762-.768-2.551-1.145-2.17-3.299-3.778-5.702-4.257l5.278 7.877.68 1.406c.464-.764.569-1.582.51-2.475h.002z" fill="#455A64"/>
            <path d="M226.419 111.441h-12.272v2.179h12.272v-2.179z" fill="#FF725E"/>
            <path d="m215.064 113.186 1.045 6.76h8.147l1.247-6.76h-10.439z" fill="#FF725E"/>
            <path d="M226.411 113.622c0 .023-2.767.043-6.183.043s-6.183-.02-6.183-.043c0-.022 2.767-.042 6.183-.042s6.183.02 6.183.042z" fill="#263238"/>
            <path d="M196.718 118.52H76.369c-3.977 0-7.202-3.23-7.202-7.213V28.585a5.259 5.259 0 0 1 5.255-5.263h124.534a4.969 4.969 0 0 1 4.964 4.972v83.011c0 3.982-3.225 7.212-7.202 7.212v.003z" fill="#455A64"/>
            <path d="M203.778 119.968H70.493c-3.846 0-6.963-3.121-6.963-6.973v-1.086c0-.148.12-.268.268-.268h145.459c.148 0 .268.12.268.268v2.303a5.751 5.751 0 0 1-5.747 5.756z" fill="#455A64"/>
            <path d="m203.778 119.968.196-.014c.131-.014.328 0 .581-.054a5.43 5.43 0 0 0 2.143-.758c.436-.251.88-.608 1.301-1.064a5.733 5.733 0 0 0 1.082-1.71c.279-.682.43-1.474.419-2.321V112.04c0-.117.011-.234-.077-.308-.077-.083-.197-.063-.319-.065-7.666.005-18.757.014-32.461.022l-107.095.023H63.812a.178.178 0 0 0-.088.017.194.194 0 0 0-.11.129c-.012.045-.007.148-.007.222v.485c-.005.325.009.644.029.963.054.636.176 1.269.41 1.865.097.305.253.584.387.872.168.268.313.556.515.801a6.91 6.91 0 0 0 2.947 2.312 7.183 7.183 0 0 0 1.821.468c.624.06 1.256.048 1.89.048h11.239c9.861 0 19.375.003 28.436.006 18.122.006 34.442.011 48.146.017l32.457.023 8.825.014 2.294.009c.519 0 .783.008.783.008s-.264.006-.783.009c-.518 0-1.286.003-2.294.008l-8.825.015c-7.666.005-18.754.014-32.457.022-13.704.006-30.024.009-48.146.018-9.061 0-18.575 0-28.436.005H71.606c-.631 0-1.263.015-1.904-.048a7.41 7.41 0 0 1-1.862-.476 7.054 7.054 0 0 1-3.008-2.361c-.206-.251-.353-.544-.527-.818-.137-.294-.296-.579-.396-.892-.239-.608-.361-1.255-.418-1.905-.02-.328-.035-.653-.029-.975v-.485c.006-.085-.011-.148.012-.262a.348.348 0 0 1 .344-.256h5.736l107.095.022c13.704.012 24.794.017 32.461.023h.182a.314.314 0 0 1 .176.08c.049.046.08.106.091.168.009.069 0 .12.003.18V114.05a5.951 5.951 0 0 1-.43 2.338 5.727 5.727 0 0 1-1.093 1.719 5.55 5.55 0 0 1-1.312 1.066 5.378 5.378 0 0 1-2.158.747c-.256.048-.452.034-.583.046-.131.005-.197.005-.197.005l-.011-.003zM196.519 29.135H76.189c-.828 0-1.5.672-1.5 1.502v74.974c0 .83.672 1.503 1.5 1.503h120.33c.828 0 1.5-.673 1.5-1.503V30.637c0-.83-.672-1.502-1.5-1.502z" fill="#263238"/>
            <path d="M196.519 107.114s.088.003.259-.029a1.486 1.486 0 0 0 1.227-1.422v-1.759l-.015-11.666c-.005-10.133-.014-24.792-.022-42.907 0-4.527-.003-9.274-.006-14.218v-4.219c0-.16.006-.316-.017-.465a1.438 1.438 0 0 0-1.201-1.217c-.148-.026-.308-.017-.47-.02h-8.318c-10.635 0-21.996.006-33.955.006-23.915 0-50.207.003-77.803.005a1.425 1.425 0 0 0-1.377 1.03c-.06.196-.06.399-.058.618V105.081c.01.379-.04.755.112 1.083a1.423 1.423 0 0 0 1.24.876c.18.008.37 0 .553.002h15.238a601511.712 601511.712 0 0 1 46.068.012c18.088.011 32.723.017 42.84.023 5.055.005 8.984.011 11.645.014l3.029.008c.683 0 1.034.009 1.034.009s-.351.006-1.034.009c-.683 0-1.699.002-3.029.008-2.664.003-6.59.009-11.645.014-10.117.006-24.752.015-42.84.023-9.044 0-18.95.006-29.586.009-5.317 0-10.817 0-16.482.003H76.668c-.188 0-.367.005-.56-.003a1.57 1.57 0 0 1-1.36-.961 1.519 1.519 0 0 1-.121-.573v-3.96c0-1.517 0-3.04-.003-4.573V30.843c0-.211-.003-.445.063-.662a1.582 1.582 0 0 1 1.52-1.135c27.595 0 53.887.003 77.802.006 11.956 0 23.32.006 33.955.006h8.318c.157 0 .322-.009.487.02a1.559 1.559 0 0 1 1.298 1.32c.023.165.017.325.017.482v4.219c0 4.944-.002 9.688-.005 14.218-.012 18.114-.017 32.774-.023 42.906l-.014 11.666c0 .667-.006 1.255-.006 1.762a1.492 1.492 0 0 1-1.44 1.451h-.066l-.011.012zM123.26 111.479l1.81 3.079h25.492l1.683-3.079H123.26zM137.539 26.495a1.011 1.011 0 1 1-2.02.002 1.011 1.011 0 0 1 2.02-.002z" fill="#263238"/>
            <path d="M193.478 31.62H79.608v71.882h113.87V31.621z" fill="#fff"/>
            <path d="M193.478 38.204H79.608v7.207h113.87v-7.207z" fill="#E0E0E0"/>
            <path d="M84.271 41.508c0 .604-.492 1.098-1.096 1.098a1.097 1.097 0 0 1 0-2.196c.604 0 1.096.49 1.096 1.098zM87.477 41.508a1.1 1.1 0 0 1-1.096 1.098 1.097 1.097 0 1 1 1.096-1.098zM90.68 41.508a1.1 1.1 0 0 1-1.097 1.098 1.098 1.098 0 1 1 1.096-1.098z" fill="#fff"/>
            <path d="M95.203 51.198h11.187c.603 0 1.093.49 1.093 1.095v11.204c0 .605-.49 1.095-1.093 1.095H95.202c-.603 0-1.093-.49-1.093-1.095V52.293c0-.604.49-1.095 1.094-1.095zM109.387 67.56H92.202c-.67 0-1.213.544-1.213 1.214v.59c0 .671.543 1.215 1.213 1.215h17.185c.67 0 1.213-.544 1.213-1.214v-.59c0-.671-.543-1.215-1.213-1.215zM121.606 48.672h11.187c.604 0 1.093.49 1.093 1.095v11.204c0 .605-.489 1.095-1.093 1.095h-11.187c-.604 0-1.093-.49-1.093-1.095V49.767c0-.604.489-1.095 1.093-1.095zM135.794 65.034h-17.186c-.67 0-1.212.544-1.212 1.214v.59c0 .671.542 1.215 1.212 1.215h17.186c.669 0 1.212-.544 1.212-1.214v-.59c0-.671-.543-1.215-1.212-1.215zM95.143 77.934h11.187c.604 0 1.093.49 1.093 1.095v11.204c0 .605-.489 1.095-1.093 1.095H95.143c-.604 0-1.093-.49-1.093-1.095V79.03c0-.604.49-1.095 1.093-1.095zM109.331 94.296H92.145c-.67 0-1.212.544-1.212 1.214v.59c0 .671.543 1.215 1.212 1.215h17.186c.669 0 1.212-.544 1.212-1.215v-.59c0-.67-.543-1.214-1.212-1.214zM133.283 75.175h-11.188c-.604 0-1.093.49-1.093 1.094v11.204c0 .605.489 1.095 1.093 1.095h11.188c.603 0 1.093-.49 1.093-1.094V76.269c0-.604-.49-1.094-1.093-1.094zM136.28 91.536h-17.185c-.67 0-1.213.544-1.213 1.215v.59c0 .67.543 1.214 1.213 1.214h17.185c.67 0 1.213-.544 1.213-1.214v-.59c0-.671-.543-1.215-1.213-1.215z" fill="#EBEBEB"/>
            <path d="M161.843 47.731h13.254c.604 0 1.093.49 1.093 1.095V62.1c0 .605-.489 1.095-1.093 1.095h-13.254c-.603 0-1.093-.49-1.093-1.095V48.826c0-.604.49-1.095 1.093-1.095z" fill="#FF725E"/>
            <path d="M171.044 56.735h-5.098a.141.141 0 0 1-.143-.143c0-.08.063-.142.143-.142h4.981l.558-3.162h-6.02a.141.141 0 0 1-.143-.143c0-.08.063-.142.143-.142h6.188c.043 0 .083.02.108.051.029.031.04.074.032.117l-.609 3.444a.142.142 0 0 1-.14.117v.003z" fill="#fff"/>
            <path d="m170.873 57.94-4.856-.017a.142.142 0 0 1-.14-.125l-.694-5.425h-1.435a.141.141 0 0 1-.143-.143c0-.08.063-.142.143-.142h1.56c.071 0 .131.054.142.125l.695 5.428 4.731.017c.08 0 .142.066.142.143a.14.14 0 0 1-.142.142l-.003-.002zM166.808 59.671a.748.748 0 0 1 0-1.494.75.75 0 0 1 .746.747c0 .41-.336.747-.746.747zm0-1.212a.461.461 0 1 0 0 .923.461.461 0 0 0 0-.922zM170.162 59.671a.747.747 0 0 1 0-1.494.75.75 0 0 1 .746.747c0 .41-.336.747-.746.747zm0-1.212a.461.461 0 1 0 0 .923.461.461 0 0 0 0-.922z" fill="#fff"/>
            <path d="M167.517 56.735a.144.144 0 0 1-.143-.134l-.208-3.333a.142.142 0 0 1 .134-.151c.086-.006.145.054.151.134l.208 3.333a.141.141 0 0 1-.134.15h-.008zM169.381 56.735h-.009a.14.14 0 0 1-.133-.151l.185-3.333a.143.143 0 0 1 .151-.134.14.14 0 0 1 .133.15l-.185 3.334a.141.141 0 0 1-.142.134z" fill="#fff"/>
            <path d="M165.652 55.067a.143.143 0 0 1-.142-.143.14.14 0 0 1 .142-.142l5.696-.057c.08.008.143.063.143.142 0 .08-.063.143-.143.143l-5.696.057z" fill="#fff"/>
            <path d="M168.706 74.476h-11.839c-.593 0-1.073.481-1.073 1.075V76.6c0 .594.48 1.075 1.073 1.075h11.839c.593 0 1.074-.481 1.074-1.075v-1.05c0-.593-.481-1.074-1.074-1.074zM168.706 68.4h-11.839c-.593 0-1.073.482-1.073 1.076v1.049c0 .593.48 1.075 1.073 1.075h11.839c.593 0 1.074-.482 1.074-1.075v-1.05c0-.593-.481-1.074-1.074-1.074z" fill="#E0E0E0"/>
            <path d="M176.714 83.739h-18.902a3.52 3.52 0 0 0-3.518 3.523v1.714a3.52 3.52 0 0 0 3.518 3.524h18.902a3.521 3.521 0 0 0 3.519-3.524v-1.713a3.521 3.521 0 0 0-3.519-3.524z" fill="#FF725E"/>
            <path d="M166.751 87.704c0 .44-.33.713-.857.713h-.336v.505h-.546v-1.936h.882c.527 0 .857.274.857.716v.002zm-.552 0c0-.18-.114-.285-.339-.285h-.305v.568h.305c.225 0 .339-.106.339-.282zM168.214 88.549h-.817l-.151.376h-.558l.852-1.936h.538l.857 1.936h-.57l-.151-.376zm-.159-.405-.248-.619-.247.619h.498-.003zM170.002 88.23v.692h-.547v-.701l-.737-1.232h.578l.458.767.458-.767h.53l-.74 1.24z" fill="#fff"/>
            <path d="M142.263 103.125c-.039 0-.074-14.483-.074-32.347 0-17.863.035-32.349.074-32.349.04 0 .074 14.48.074 32.35s-.034 32.346-.074 32.346z" fill="#EBEBEB"/>
            <path d="M109.685 52.299a3.012 3.012 0 1 0-5.947-.955 3.012 3.012 0 1 0 5.947.955z" fill="#FF725E"/>
            <path d="M106.446 53.034a.293.293 0 0 1-.176-.06l-1.062-.832a.284.284 0 0 1 .35-.448l.849.665 1.412-1.648a.284.284 0 1 1 .432.37l-1.588 1.856a.288.288 0 0 1-.217.1v-.003z" fill="#fff"/>
            <path d="M107.837 81.404a3.018 3.018 0 0 0 1.667-3.925 3.01 3.01 0 0 0-3.92-1.67 3.018 3.018 0 0 0-1.667 3.926 3.01 3.01 0 0 0 3.92 1.67z" fill="#455A64"/>
            <path d="M106.447 79.813a.293.293 0 0 1-.176-.06l-1.062-.832a.284.284 0 0 1 .35-.448l.849.664 1.412-1.65a.285.285 0 0 1 .432.37l-1.588 1.856a.288.288 0 0 1-.217.1z" fill="#fff"/>
            <path d="M178.44 68.4h-1.142a1.22 1.22 0 0 0-1.218 1.221v.593c0 .674.546 1.22 1.218 1.22h1.142c.673 0 1.218-.546 1.218-1.22v-.593c0-.674-.545-1.22-1.218-1.22zM178.602 74.775h-1.141a1.22 1.22 0 0 0-1.219 1.22v.594c0 .674.546 1.22 1.219 1.22h1.141c.673 0 1.218-.546 1.218-1.22v-.593c0-.674-.545-1.22-1.218-1.22z" fill="#E0E0E0"/>
            <path d="M196.266 91.87s-.026-.177-.086-.49a6.183 6.183 0 0 0-.392-1.292 4.938 4.938 0 0 0-1.114-1.637c-.535-.518-1.318-.903-2.183-.906-.862-.003-1.651.376-2.189.892a4.893 4.893 0 0 0-1.122 1.63 5.98 5.98 0 0 0-.395 1.29c-.063.313-.074.49-.089.49-.002 0-.002-.046 0-.128.003-.086.015-.209.04-.368a5.65 5.65 0 0 1 .365-1.314 4.86 4.86 0 0 1 1.124-1.68c.547-.533 1.367-.935 2.266-.932.897 0 1.714.41 2.258.947a4.869 4.869 0 0 1 1.115 1.684 5.63 5.63 0 0 1 .399 1.683c.006.085.006.128 0 .128l.003.003z" fill="#455A64"/>
            <path d="M197.573 91.87s-.026-.177-.086-.49a6.343 6.343 0 0 0-.39-1.292 4.92 4.92 0 0 0-1.113-1.637c-.535-.518-1.318-.903-2.183-.906-.863-.003-1.651.376-2.189.892a4.893 4.893 0 0 0-1.122 1.63 5.994 5.994 0 0 0-.396 1.29c-.062.313-.074.49-.088.49a.703.703 0 0 1 0-.128 5.59 5.59 0 0 1 .404-1.682 4.865 4.865 0 0 1 1.125-1.68c.546-.533 1.366-.935 2.266-.932.896 0 1.713.41 2.257.947.555.536.9 1.151 1.116 1.684.219.536.31.998.359 1.315.022.16.034.285.04.368.005.085.005.128 0 .128v.003z" fill="#455A64"/>
            <path d="m184.959 91.402 14.757-.111.322 20.148h-16.562l1.483-20.037z" fill="#EBEBEB"/>
            <path d="M199.716 91.291h1.853l1.597 20.148h-3.129l-.321-20.148z" fill="#E0E0E0"/>
            <path d="M196.587 99.222h-9.661v1.622h9.661v-1.622z" fill="#fff"/>
            <path d="M192.135 95.904c-.034.008-.037-.747-.439-1.836-.202-.54-.518-1.155-1.007-1.688-.481-.533-1.19-.93-1.967-.932-.778-.003-1.489.387-1.973.918-.493.53-.811 1.143-1.014 1.682-.404 1.086-.412 1.844-.444 1.836a.455.455 0 0 1 0-.134 6.238 6.238 0 0 1 .362-1.742 5.118 5.118 0 0 1 1.016-1.74c.495-.552 1.238-.971 2.055-.966.815 0 1.555.425 2.047.981.501.556.814 1.192 1.011 1.745a6.319 6.319 0 0 1 .356 1.745c.002.088.002.134 0 .134l-.003-.003z" fill="#263238"/>
            <path d="M193.316 95.904c-.034.008-.037-.747-.438-1.836-.202-.54-.518-1.155-1.008-1.688-.481-.533-1.19-.93-1.967-.932-.777-.003-1.489.387-1.972.918a5.103 5.103 0 0 0-1.014 1.682c-.404 1.086-.413 1.844-.444 1.836a3.66 3.66 0 0 1 .034-.516 6.25 6.25 0 0 1 .328-1.36 5.118 5.118 0 0 1 1.016-1.74c.495-.552 1.238-.971 2.055-.966.814 0 1.554.425 2.047.981.501.556.814 1.192 1.01 1.745a6.332 6.332 0 0 1 .356 1.745.756.756 0 0 1 0 .134l-.003-.003z" fill="#263238"/>
            <path d="m181.32 95.108 13.346-.094.29 16.581h-14.974l1.338-16.487z" fill="#FF725E"/>
            <path d="M194.666 95.014h1.674l1.443 16.581h-2.827l-.29-16.58z" fill="#FF725E"/>
            <path d="M194.666 95.014h1.674l1.443 16.581h-2.827l-.29-16.58z" fill="#000" opacity=".3"/>
            <path d="M192.391 100.648h-8.737v1.676h8.737v-1.676z" fill="#fff"/>
            <path d="M74.468 29.03h10.28v5.88a4.141 4.141 0 0 1-4.137 4.143h-2.007a4.141 4.141 0 0 1-4.136-4.142v-5.882z" fill="#FF725E"/>
            <path d="M84.747 29.03h10.28v5.88a4.141 4.141 0 0 1-4.137 4.143h-2.007a4.141 4.141 0 0 1-4.136-4.142v-5.882z" fill="#FF725E"/>
            <path d="M95.026 29.03h10.28v5.88a4.141 4.141 0 0 1-4.137 4.143h-2.006a4.141 4.141 0 0 1-4.137-4.142v-5.882zM105.306 29.03h10.33v5.88a4.14 4.14 0 0 1-4.136 4.143h-2.055a4.14 4.14 0 0 1-4.136-4.142v-5.882h-.003z" fill="#FF725E"/>
            <path d="M115.637 29.03h10.279v5.88a4.14 4.14 0 0 1-4.136 4.143h-2.007a4.14 4.14 0 0 1-4.136-4.142v-5.882z" fill="#FF725E"/>
            <path d="M125.916 29.03h10.279v5.88a4.14 4.14 0 0 1-4.136 4.143h-2.007a4.14 4.14 0 0 1-4.136-4.142v-5.882z" fill="#FF725E"/>
            <path d="M136.195 29.03h10.28v5.88a4.142 4.142 0 0 1-4.137 4.143h-2.006a4.141 4.141 0 0 1-4.137-4.142v-5.882z" fill="#FF725E"/>
            <path d="M146.475 29.03h10.45v5.88a4.14 4.14 0 0 1-4.136 4.143h-2.178a4.14 4.14 0 0 1-4.136-4.142v-5.882z" fill="#FF725E"/>
            <path d="M156.802 29.03h10.279v5.88a4.14 4.14 0 0 1-4.136 4.143h-2.007a4.14 4.14 0 0 1-4.136-4.142v-5.882zM167.084 29.03h10.279v5.88a4.14 4.14 0 0 1-4.136 4.143h-2.007a4.14 4.14 0 0 1-4.136-4.142v-5.882z" fill="#FF725E"/>
            <path d="M177.363 29.03h10.28v5.88a4.142 4.142 0 0 1-4.137 4.143H181.5a4.141 4.141 0 0 1-4.137-4.142v-5.882zM187.644 29.03h10.279v5.88a4.14 4.14 0 0 1-4.136 4.143h-2.007a4.14 4.14 0 0 1-4.136-4.142v-5.882z" fill="#FF725E"/>
            <path d="M84.747 29.03h10.28v5.88a4.141 4.141 0 0 1-4.137 4.143h-2.007a4.141 4.141 0 0 1-4.136-4.142v-5.882zM105.306 29.03h10.33v5.88a4.14 4.14 0 0 1-4.136 4.143h-2.055a4.14 4.14 0 0 1-4.136-4.142v-5.882h-.003zM125.916 29.03h10.279v5.88a4.14 4.14 0 0 1-4.136 4.143h-2.007a4.14 4.14 0 0 1-4.136-4.142v-5.882zM146.475 29.03h10.45v5.88a4.14 4.14 0 0 1-4.136 4.143h-2.178a4.14 4.14 0 0 1-4.136-4.142v-5.882zM167.084 29.03h10.279v5.88a4.14 4.14 0 0 1-4.136 4.143h-2.007a4.14 4.14 0 0 1-4.136-4.142v-5.882zM187.644 29.03h10.279v5.88a4.14 4.14 0 0 1-4.136 4.143h-2.007a4.14 4.14 0 0 1-4.136-4.142v-5.882z" fill="#fff" opacity=".3"/>
            <path d="M84.747 35.69c-.04 0-.074-1.492-.074-3.33 0-1.84.034-3.33.074-3.33.04 0 .074 1.49.074 3.33 0 1.838-.034 3.33-.074 3.33zM94.953 35.69c-.04 0-.074-1.492-.074-3.33 0-1.84.034-3.33.074-3.33.04 0 .074 1.49.074 3.33 0 1.838-.034 3.33-.074 3.33zM105.305 35.69c-.039 0-.074-1.492-.074-3.33 0-1.84.035-3.33.074-3.33.04 0 .074 1.49.074 3.33 0 1.838-.034 3.33-.074 3.33zM115.637 35.615c-.04 0-.075-1.49-.075-3.33 0-1.839.035-3.33.075-3.33.039 0 .074 1.491.074 3.33 0 1.84-.035 3.33-.074 3.33zM125.916 35.538c-.04 0-.074-1.457-.074-3.256 0-1.799.034-3.255.074-3.255.04 0 .074 1.456.074 3.255 0 1.8-.034 3.256-.074 3.256zM136.289 35.421c-.04 0-.074-1.457-.074-3.256 0-1.799.034-3.255.074-3.255.04 0 .074 1.456.074 3.255 0 1.8-.034 3.256-.074 3.256zM146.474 35.307c-.039 0-.074-1.406-.074-3.139 0-1.733.035-3.139.074-3.139.04 0 .074 1.406.074 3.14 0 1.733-.034 3.138-.074 3.138zM156.865 35.307c-.04 0-.074-1.406-.074-3.139 0-1.733.034-3.139.074-3.139.04 0 .074 1.406.074 3.14 0 1.733-.034 3.138-.074 3.138zM167.085 35.307c-.04 0-.074-1.406-.074-3.139 0-1.733.034-3.139.074-3.139.04 0 .074 1.406.074 3.14 0 1.733-.034 3.138-.074 3.138zM177.406 35.307c-.04 0-.074-1.406-.074-3.139 0-1.733.034-3.139.074-3.139.04 0 .074 1.406.074 3.14 0 1.733-.034 3.138-.074 3.138zM187.728 35.307c-.04 0-.074-1.406-.074-3.139 0-1.733.034-3.139.074-3.139.04 0 .074 1.406.074 3.14 0 1.733-.034 3.138-.074 3.138z" fill="#263238"/>
            <path d="M90.147 90.846s-3.644.211-3.937.85c0 0-.045 2.685 2.53 5.39l-.509 1.101v1.79c1.196-2.326 2.534-5.89 2.534-5.89s.06-2.502-.618-3.238v-.003z" fill="#455A64"/>
            <path d="M90.016 91.083s-1.273 3.307-.493 5.69c0 0 1.748-2.922.493-5.69z" fill="#000" opacity=".3"/>
            <path d="M95.743 95.3s-1.69-3.24-2.391-3.245c0 0-2.463 1.06-3.866 4.527l-1.21-.011s-.643-2.783-3.88-4.314c0 0-1.847 3.333-1.91 3.302-.063-.032 1.549 1.608 4.16 1.745 2.61.136 6.404-.109 6.404-.109s2.303-.975 2.693-1.896z" fill="#455A64"/>
            <path d="M87.647 97.018s-2.733-1.579-4.939-1.43c0 0 2.56 2.157 4.939 1.43zM95.476 95.277s-3.533.2-5.38 1.89c0 0 3.379.393 5.38-1.89z" fill="#000" opacity=".3"/>
            <path d="m101.058 97.19-.965 14.528-22.395-.211-.176-14.54 23.536.222z" fill="#FF725E"/>
            <path d="m96.808 97.15-.137 14.537 3.422.031.965-14.528-4.25-.04z" fill="#000" opacity=".3"/>
            <path d="m99.373 97.172-.706 14.532-.777-.006.136-14.537 1.347.011zM86.415 97.056l-.137 14.537 1.868.017.136-14.536-1.867-.018z" fill="#455A64"/>
            <path d="M100.554 103.37H77.599v1.412h22.955v-1.412z" fill="#455A64"/>
            <path d="M123.465 51.03c-.134-1.169-.262-2.343-.194-3.515.068-1.175.342-2.355.962-3.356.094-.15.834-1.146 1.005-1.092.122.037-.404.998-.364 1.118.39 1.152.304 2.423-.032 3.59-.336 1.168-.797 2.186-1.375 3.255" fill="#263238"/>
            <path d="m122.24 56.931 1.996-10.317c.489-2.908 2.587-5.046 5.474-4.473l.265.068a5.27 5.27 0 0 1 3.868 6.007c-.438 2.518-.953 5.294-1.312 6.611-.74 2.732-3.587 2.447-3.587 2.447a359 359 0 0 0-.862 3.903l-4.031-1.409-.974-.308-.837-2.531v.002z" fill="#FFBF9D"/>
            <path d="M128.947 57.27s-1.751-.344-3.288-1.975c0 0 .325 2.28 3.117 2.74l.171-.764z" fill="#FF9A6C"/>
            <path d="M132.517 50.753a.402.402 0 0 1-.479.297.384.384 0 0 1-.31-.456.401.401 0 0 1 .478-.297c.22.043.359.248.314.456h-.003zM132.95 49.27c-.063.038-.302-.256-.72-.364-.419-.114-.783.023-.815-.04-.017-.029.057-.108.217-.171.156-.063.407-.1.669-.031.262.068.455.222.558.353.102.134.122.237.094.254h-.003zM128.753 49.91a.4.4 0 0 1-.478.296.381.381 0 0 1-.31-.456.4.4 0 0 1 .478-.297.385.385 0 0 1 .313.457h-.003zM128.881 48.396c-.062.037-.301-.257-.72-.365-.418-.114-.783.023-.814-.04-.017-.029.057-.108.216-.171.157-.063.408-.1.669-.032.262.069.456.223.558.354.103.134.123.236.094.254h-.003zM129.479 51.925c.003-.025.277 0 .715.054.111.017.216.023.253-.045.046-.072.032-.2.012-.337l-.106-.9c-.139-1.28-.21-2.321-.159-2.327.051-.006.208 1.027.347 2.306l.091.901c.009.134.043.288-.054.437a.267.267 0 0 1-.216.11c-.074.004-.134-.01-.188-.022-.433-.088-.697-.154-.692-.18l-.003.003zM129.5 46.8c-.086.093-.464-.126-.957-.266-.489-.148-.928-.168-.948-.294-.008-.06.1-.134.299-.173.197-.043.481-.04.774.045.296.086.536.24.678.38.142.142.193.262.156.307h-.002zM133.365 47.683c-.111.074-.43-.108-.842-.214-.41-.117-.778-.12-.835-.24-.022-.056.055-.139.231-.193.174-.054.441-.066.723.008.282.077.507.223.626.357.123.134.146.245.097.282z" fill="#263238"/>
            <path d="M123.937 48.698c-.043-.032-1.736-1.044-2.158.844-.424 1.887 1.557 1.924 1.572 1.87.014-.054.586-2.717.586-2.717v.003z" fill="#FFBF9D"/>
            <path d="M122.935 50.568s-.037.015-.099.029a.343.343 0 0 1-.248-.052c-.182-.117-.279-.473-.213-.815.034-.174.105-.328.196-.45.088-.126.199-.203.305-.197a.17.17 0 0 1 .173.134c.015.06-.005.094 0 .1.003.005.049-.023.049-.103a.211.211 0 0 0-.049-.134.25.25 0 0 0-.17-.088c-.148-.023-.308.082-.41.216a1.112 1.112 0 0 0-.231.502c-.074.382.04.784.296.924a.354.354 0 0 0 .31.017c.069-.034.089-.074.083-.077l.008-.006z" fill="#FF9A6C"/>
            <path d="M133.297 44.815c.342-.103-.361-1.291-1.039-1.796-1.025-.761-2.69-1.454-3.8-1.383-1.338.086-2.519.488-3.399 1.5-.88 1.012-1.406 2.298-1.651 3.618-.074.402-.123.83.017 1.211.174.476.623.847.478 1.42a.806.806 0 0 0 .071.619c.268.442.763.188 1.034-.117.575-.65.811-1.526 1.03-2.367.157-.598.313-1.208.268-1.824-.026-.337-.108-.664-.114-1-.006-.337.082-.696.336-.916.043-.034.105-.077.188-.123a2.015 2.015 0 0 1 2.035.049c.982.607 2.679 1.562 3.231 1.303.794-.374 1.031-.676 1.031-.676l.29.48-.006.002zM128.09 51.902c.065.009-.026.445.282.833.304.388.78.436.768.499 0 .028-.119.063-.316.025a1.11 1.11 0 0 1-.649-.39.963.963 0 0 1-.208-.693c.023-.185.094-.282.123-.274z" fill="#263238"/>
            <path d="m132.812 74.927 7.134 2.913-.877 3.35-7.33-1.508a4.384 4.384 0 0 1-3.538-2.689l-2.522-6.138 4.042-3.848 3.094 7.92h-.003z" fill="#FFBF9D"/>
            <path d="M139.804 81.951c.734.274 1.543.613 1.543.613l.734.262c-.031.04-.071.077-.108.114-.074.066-.151.134-.182.228-.06.177.068.368.219.482.316.24.757.291 1.119.134.344-.15.598-.49.649-.864a.81.81 0 0 0 .202-.248c.347-.647-.154-1.587-.154-1.587l.271.056s.703.482.495 1.89c-.031.212.009.431.125.608.071.108.171.202.311.22.341.042.458-.192.6-1.067.143-.875-.011-1.767-.424-2.198-.416-.427-.603-.57-.603-.57s2.462.36 2.619.376c.452.049.854-.114.913-.416.037-.191-.057-.465-.583-.536-.456-.063-5.047-1.294-5.047-1.294l-2.061-.425-1.757-.074-.649 2.668.504.545c.282.499.732.886 1.27 1.086l-.006-.003z" fill="#FFBF9D"/>
            <path d="M140.558 78.156c-.105.248.051.54.262.713.211.171.473.265.695.422.666.465.891 1.4 1.577 1.833.096.06.233.106.31.026.074-.074.04-.197 0-.297-.327-.832-.658-1.667-.985-2.5" fill="#FFBF9D"/>
            <path d="M142.417 78.35s.057.089.134.26c.076.17.185.419.313.73.131.322.282.687.447 1.089l.128.316c.031.103.119.223.06.4-.035.085-.14.133-.22.125a.48.48 0 0 1-.207-.069 1.626 1.626 0 0 1-.311-.248c-.376-.379-.583-.83-.851-1.171a2.038 2.038 0 0 0-.424-.434c-.154-.11-.319-.19-.464-.28-.302-.165-.481-.424-.51-.618-.031-.2.046-.296.049-.29.014.002-.037.102.008.276.046.174.211.39.504.539.142.08.313.154.484.268.171.117.325.273.464.45.282.354.498.801.846 1.15.085.087.185.162.279.224.093.057.199.066.216.009.028-.06-.017-.174-.06-.282l-.122-.317-.416-1.1a23.99 23.99 0 0 1-.267-.747c-.06-.177-.089-.277-.08-.282v.002zM143.817 81.047c-.005.02.217.017.453.228a.857.857 0 0 1 .256.474c.043.202.037.436.009.678-.026.245-.054.485-.029.704.023.22.089.417.191.553a.436.436 0 0 0 .347.189c.094 0 .143-.023.143-.029 0-.008-.051 0-.14-.011a.428.428 0 0 1-.293-.191 1.144 1.144 0 0 1-.157-.522c-.017-.208.012-.44.037-.687.026-.248.035-.493-.019-.71a.9.9 0 0 0-.299-.505.797.797 0 0 0-.356-.17c-.091-.018-.143-.012-.143-.006v.005zM147.393 80.415s-.188-.038-.49-.075l-1.181-.15-1.179-.169c-.301-.045-.489-.071-.492-.057 0 .014.179.063.481.126.299.062.717.134 1.178.196.462.063.883.103 1.187.123.305.02.496.017.496.006zM143.189 81.53s.011.056.037.15c.023.092.06.246-.031.382-.043.066-.126.103-.222.1-.097 0-.2-.034-.316-.068-.114-.032-.257-.06-.393.006a.47.47 0 0 0-.245.347.543.543 0 0 0 .117.41.702.702 0 0 0 .318.232c.237.068.45.077.632.077a1.25 1.25 0 0 0 .422-.069c.094-.04.136-.08.134-.082-.006-.009-.052.022-.146.048-.094.026-.236.04-.41.037a2.367 2.367 0 0 1-.603-.094c-.199-.068-.401-.29-.367-.536a.368.368 0 0 1 .19-.276c.1-.049.217-.032.328-.003.111.028.225.062.339.06a.32.32 0 0 0 .279-.143c.102-.177.042-.342.008-.433-.04-.094-.068-.143-.074-.14l.003-.006z" fill="#FF9A6C"/>
            <path d="M142.218 82.826s-.048-.025-.142-.005a.43.43 0 0 0-.291.25c-.068.157-.042.385.097.565.14.18.37.297.618.33.25.035.495-.016.686-.12a1.067 1.067 0 0 0 .544-.746c.014-.088.008-.14.003-.14-.02-.005-.026.203-.197.46a1.048 1.048 0 0 1-1.022.45.893.893 0 0 1-.561-.288.512.512 0 0 1-.102-.482.402.402 0 0 1 .236-.24c.08-.028.128-.022.131-.03v-.004zM140.789 80.9s.037-.086.029-.237a.941.941 0 0 0-.245-.556l-.034.08c.105.002.219 0 .336-.01.652-.053 1.11-.347 1.096-.367-.012-.028-.476.217-1.105.268a3.198 3.198 0 0 1-.324.014h-.111l.077.08a.994.994 0 0 1 .253.5c.025.139.017.227.031.227h-.003zM144.979 81.526c-.009-.025-.197.046-.319.251-.123.203-.097.405-.071.4.028 0 .048-.175.153-.349.106-.176.248-.276.234-.302h.003z" fill="#FF9A6C"/>
            <path d="M128.793 61.764s-.382-2.412-.348-2.25c.171.824 1.378 2.047 1.674 4.727.114 1.047 1.973 7.86 1.973 7.86l-5.161 2.395-.325-5.779 2.19-6.956-.003.003z" fill="#FF725E"/>
            <path d="M165.225 98.042c-.031.011-.091-.724-.56-1.754-.237-.507-.587-1.083-1.102-1.565-.507-.481-1.224-.815-1.978-.764-.758.054-1.418.485-1.851 1.035-.441.55-.703 1.172-.862 1.708-.313 1.086-.265 1.822-.299 1.816-.006 0-.009-.046-.009-.131a6.092 6.092 0 0 1 .225-1.72c.151-.55.41-1.191.86-1.764.441-.576 1.133-1.035 1.924-1.09.792-.056 1.543.3 2.061.805.527.504.88 1.1 1.107 1.622a6.227 6.227 0 0 1 .473 1.668.435.435 0 0 1 .009.13l.002.004z" fill="#263238"/>
            <path d="M166.372 97.956c-.031.012-.091-.724-.561-1.753-.236-.508-.586-1.083-1.102-1.565-.506-.482-1.224-.816-1.978-.764-.757.054-1.418.485-1.85 1.035-.442.55-.703 1.171-.863 1.707-.313 1.087-.265 1.822-.299 1.816a4.556 4.556 0 0 1-.003-.505c.017-.321.063-.792.22-1.345.15-.55.409-1.191.859-1.764.442-.576 1.133-1.035 1.925-1.09.791-.057 1.543.3 2.061.804.526.505.879 1.1 1.107 1.623.233.524.347.983.413 1.3.031.16.051.282.06.367.011.086.014.129.008.132l.003.002z" fill="#263238"/>
            <path d="m154.658 98.056 12.958-1.063 1.489 16.09-14.549 1.092.102-16.119zM167.616 96.993l1.629-.123 2.604 16.005-2.744.208-1.489-16.09z" fill="#FF725E"/>
            <path d="m167.616 96.993 1.629-.123 2.604 16.005-2.744.208-1.489-16.09z" fill="#000" opacity=".3"/>
            <path d="m165.822 102.622-8.488.637.122 1.629 8.488-.637-.122-1.629z" fill="#fff"/>
            <path d="M148.677 88.546c-.029.008-.032-.625-.368-1.534a4.359 4.359 0 0 0-.839-1.409c-.402-.444-.994-.775-1.64-.778-.649-.003-1.241.325-1.646.767a4.349 4.349 0 0 0-.845 1.403c-.339.906-.344 1.54-.37 1.53a2.984 2.984 0 0 1 .028-.43c.037-.274.106-.673.274-1.135.165-.459.427-.992.848-1.45.413-.463 1.033-.81 1.714-.808.68 0 1.298.354 1.708.822.418.464.68.995.842 1.456a5.275 5.275 0 0 1 .296 1.457.517.517 0 0 1 0 .111l-.002-.002z" fill="#263238"/>
            <path d="M149.662 88.546c-.029.008-.031-.625-.367-1.534a4.363 4.363 0 0 0-.84-1.409c-.402-.444-.994-.775-1.64-.778-.649-.003-1.241.325-1.645.767-.41.442-.675.955-.846 1.403-.338.906-.344 1.54-.37 1.53a3.042 3.042 0 0 1 .029-.43 5.36 5.36 0 0 1 .273-1.135c.165-.459.427-.992.848-1.45.413-.463 1.034-.81 1.714-.808.68 0 1.298.354 1.708.822.419.464.68.995.843 1.456a5.262 5.262 0 0 1 .296 1.457.517.517 0 0 1 0 .111l-.003-.002z" fill="#263238"/>
            <path d="m139.653 87.881 11.133-.077.245 13.836h-12.497l1.119-13.759z" fill="#455A64"/>
            <path d="M150.786 87.804h1.398l1.204 13.836h-2.357l-.245-13.836z" fill="#455A64"/>
            <path d="M150.786 87.804h1.398l1.204 13.836h-2.357l-.245-13.836z" fill="#000" opacity=".3"/>
            <path d="M148.888 92.503h-7.29V93.9h7.29v-1.397z" fill="#fff"/>
            <path d="M147.194 95.393s-3.285.44-3.507 1.035c0 0 .139 2.435 2.655 4.71l-.384 1.032.12 1.622c.928-2.186 1.896-5.505 1.896-5.505s-.117-2.27-.78-2.89v-.004z" fill="#E0E0E0"/>
            <path d="M147.091 95.616s-.928 3.082-.06 5.183c0 0 1.384-2.766.06-5.183z" fill="#000" opacity=".3"/>
            <path d="M152.562 99.043s-1.75-2.817-2.385-2.777c0 0-2.158 1.129-3.194 4.362l-1.096.071s-.772-2.475-3.803-3.64c0 0-1.446 3.144-1.506 3.118-.06-.025 1.511 1.352 3.883 1.297 2.371-.054 5.79-.533 5.79-.533s2.018-1.04 2.311-1.901v.003z" fill="#E0E0E0"/>
            <path d="M145.349 101.152s-2.579-1.243-4.566-.961c0 0 2.463 1.779 4.566.961zM152.318 99.043s-3.186.419-4.743 2.075c0 0 3.086.125 4.743-2.075z" fill="#000" opacity=".3"/>
            <path d="m157.501 100.394.111 13.22-20.291 1.331-1.141-13.151 21.321-1.4z" fill="#FF725E"/>
            <path d="m153.649 100.648.863 13.168 3.1-.202-.111-13.22-3.852.254z" fill="#000" opacity=".3"/>
            <path d="m155.975 100.494.345 13.202-.704.049-.862-13.172 1.221-.079zM145.925 101.154l-1.69.111.862 13.169 1.69-.111-.862-13.169z" fill="#F5F5F5"/>
            <path d="m157.467 106.016-20.779 1.561.095 1.276 20.779-1.561-.095-1.276z" fill="#F5F5F5"/>
            <path d="M139.039 114.822a.142.142 0 0 1-.14-.114l-5.221-26.211a.145.145 0 0 1 .111-.168.142.142 0 0 1 .168.11l5.221 26.212a.145.145 0 0 1-.111.169h-.028v.002zM143.542 114.575a.14.14 0 0 1-.14-.117l-4.546-24.43a.142.142 0 1 1 .279-.051l4.546 24.429a.143.143 0 0 1-.114.166h-.025v.003zM147.735 114.332a.142.142 0 0 1-.14-.122l-3.547-24.068a.145.145 0 0 1 .12-.163.144.144 0 0 1 .162.12l3.547 24.068a.143.143 0 0 1-.119.162h-.02l-.003.003zM152.475 114.429a.142.142 0 0 1-.14-.123l-3.45-23.423a.145.145 0 0 1 .12-.162.144.144 0 0 1 .162.12l3.45 23.423a.142.142 0 0 1-.119.162h-.02l-.003.003zM157.069 113.548a.142.142 0 0 1-.14-.122l-3.177-21.56a.145.145 0 0 1 .12-.162.144.144 0 0 1 .162.12l3.177 21.559a.142.142 0 0 1-.119.162h-.02l-.003.003zM161.863 114.01a.142.142 0 0 1-.14-.123l-3.171-21.519a.145.145 0 0 1 .12-.162.144.144 0 0 1 .162.12l3.171 21.519a.142.142 0 0 1-.119.162h-.02l-.003.003zM166.096 113.548a.144.144 0 0 1-.142-.128l-2.044-20.236a.143.143 0 0 1 .128-.157.146.146 0 0 1 .157.129l2.044 20.235a.142.142 0 0 1-.128.157h-.015zM169.637 113.548a.142.142 0 0 1-.142-.137l-.683-19.483c0-.08.059-.145.136-.148.074 0 .145.06.148.137l.683 19.483c0 .08-.059.145-.136.148h-.006z" fill="#E0E0E0"/>
            <path d="M134.005 110.332c1.304-.065 2.607-.131 3.914-.193 3.131-.157 6.263-.311 9.394-.468l11.324-.565 9.793-.487 3.242-.163c.51-.025 1.031-.022 1.54-.076.023 0 .046 0 .068-.003.228-.012.231-.368 0-.357-1.303.066-2.607.131-3.914.194-3.131.157-6.262.311-9.394.468l-11.324.564-9.792.488-3.243.162c-.509.026-1.03.023-1.54.077-.023 0-.045 0-.068.003-.228.011-.231.368 0 .356zM132.804 103.416l4.062.086c3.239.068 6.476.136 9.716.202 3.917.083 7.831.165 11.748.245l10.182.214 3.351.071c.521.012 1.053.054 1.574.034h.071c.228.006.228-.35 0-.356l-4.062-.085c-3.239-.069-6.476-.137-9.716-.203-3.917-.083-7.831-.165-11.748-.245l-10.182-.214-3.351-.071c-.521-.012-1.053-.054-1.574-.034h-.071c-.228-.006-.228.35 0 .356zM131.054 95.57l4.264.405 10.202.967 12.335 1.169 10.689 1.014c1.167.112 2.335.223 3.502.331.549.051 1.113.148 1.665.157.026 0 .051.006.074.006.228.022.228-.334 0-.357l-4.264-.405-10.203-.966c-4.11-.39-8.224-.778-12.334-1.169-3.564-.34-7.126-.676-10.69-1.015-1.167-.111-2.334-.222-3.501-.33-.549-.052-1.113-.149-1.665-.157-.026 0-.052-.006-.074-.006-.228-.023-.228.334 0 .356z" fill="#E0E0E0"/>
            <path d="M136.417 115.812a2.216 2.216 0 0 1-2.173-1.762l-5.588-26.112a.563.563 0 0 1 .632-.673l44.912 6.897c.288.042.493.3.476.59l-1.059 17.066a2.227 2.227 0 0 1-2.101 2.087l-34.977 1.904c-.04 0-.083.003-.125.003h.003zM129.923 88.5l5.417 25.316c.114.536.587.904 1.139.873l34.977-1.905a1.106 1.106 0 0 0 1.042-1.035l1.028-16.552-43.603-6.694V88.5z" fill="#E0E0E0"/>
            <path d="M129.924 88.5s.068.008.208.028l.62.091c.552.083 1.361.206 2.411.363 2.113.319 5.187.786 9.053 1.37l31.322 4.773.062.009v.066c-.179 2.839-.361 5.801-.552 8.852l-.287 4.638-.146 2.361-.037.593a1.304 1.304 0 0 1-.15.604c-.2.376-.63.619-1.045.613-8.6.465-16.79.909-24.242 1.314l-10.579.57c-.427.052-.888-.151-1.116-.521a1.332 1.332 0 0 1-.136-.291 4.3 4.3 0 0 1-.069-.302c-.042-.2-.085-.397-.125-.593-.168-.784-.33-1.557-.492-2.312l-.923-4.345-3.774-17.881c.085.399 1.491 6.87 3.88 17.887.296 1.379.609 2.822.933 4.327l.496 2.301c.042.197.085.391.125.59.04.203.08.388.188.55a1.06 1.06 0 0 0 1.008.465l10.578-.582 24.239-1.325c.385.003.746-.206.925-.536.094-.166.129-.342.134-.542l.037-.593c.049-.792.097-1.579.148-2.36l.288-4.639c.191-3.05.376-6.013.552-8.852l.06.074c-12.634-1.956-23.522-3.64-31.254-4.838-3.871-.602-6.949-1.083-9.066-1.411l-2.426-.38c-.273-.042-.484-.076-.629-.1a8.076 8.076 0 0 1-.216-.036h-.003z" fill="#263238"/>
            <path d="m136.417 115.812 5.198-.308 14.176-.795 9.79-.542 5.454-.3c.234-.014.473-.019.698-.051a2.03 2.03 0 0 0 .652-.217c.41-.21.757-.558.956-.983.1-.211.168-.439.197-.673.025-.234.034-.485.051-.727l.091-1.477.766-12.43c.034-.539.065-1.08.099-1.622l.052-.818c.011-.143.014-.254-.04-.365a.5.5 0 0 0-.254-.24c-.102-.04-.253-.048-.387-.074l-.407-.062-.817-.126c-.546-.082-1.093-.168-1.645-.254-2.201-.339-4.435-.681-6.696-1.026-9.044-1.391-17.658-2.714-25.492-3.92-1.958-.302-3.868-.596-5.724-.88-.928-.143-1.842-.286-2.742-.423l-.672-.102-.333-.052c-.116-.02-.207-.034-.307-.005a.499.499 0 0 0-.367.424c-.014.097.017.197.037.308l.068.325 2.047 9.605c1.247 5.87 2.254 10.623 2.952 13.91l.461 2.181a2.197 2.197 0 0 0 1.799 1.687c.222.038.339.026.339.035h-.086a2.222 2.222 0 0 1-1.187-.382 2.228 2.228 0 0 1-.908-1.329c-.136-.633-.296-1.36-.475-2.181-.709-3.284-1.734-8.031-2.998-13.898-.632-2.934-1.32-6.15-2.063-9.6l-.069-.324c-.02-.103-.06-.223-.04-.348a.625.625 0 0 1 .459-.53.799.799 0 0 1 .358 0l.333.05.672.104c.9.136 1.816.276 2.744.419 1.856.285 3.767.576 5.725.875 7.837 1.2 16.451 2.523 25.495 3.908 2.26.348 4.495.69 6.695 1.03.55.085 1.099.168 1.646.254.273.042.546.082.817.125l.407.063c.136.028.267.025.418.082a.617.617 0 0 1 .33.311c.074.137.069.31.055.44l-.052.817-.102 1.623c-.268 4.31-.53 8.467-.774 12.43-.032.496-.063.986-.092 1.476-.017.246-.022.485-.051.736a2.288 2.288 0 0 1-1.916 1.987c-.244.031-.475.034-.711.051-1.876.1-3.695.2-5.455.294l-9.789.525c-5.984.316-10.829.57-14.18.746l-3.854.197c-.438.02-.774.037-1.002.049-.225.011-.342.008-.342.008l-.008-.011zM109.923 85.264s-.652 2.609-.587 4.302c.066 1.696.911 4.433.911 4.433l-.72 11.609s-3.997 3.795-5.275 5.463c-1.167 1.519-9.041 10.4-9.041 10.4l5.989 5.058s9.756-9.725 11.774-11.943c2.018-2.215 4.299-3.743 5.144-6.743.846-2.999 2.741-13.975 2.741-13.975l2.261-4.108-.57-3.758-12.627-.74v.002z" fill="#263238"/>
            <path d="M114.494 107.712c-.094.471-5.329 21.437-5.329 21.437l8.099 1.938c-.162-.248 1.714-7.797 3.262-13.81 1.426-5.533 2.226-7.315 2.593-9.565.368-2.252 2.093-15.383 2.024-16.227-.065-.844.356-1.993.356-1.993l-6.886-1.665-4.122 19.885h.003z" fill="#263238"/>
            <path d="M122.22 91.396s-.023.04-.071.114c-.054.08-.128.186-.225.322-.205.291-.501.708-.882 1.25l.005-.015a274.64 274.64 0 0 1-1.298 7.544c-.304 1.63-.646 3.418-1.076 5.308-.105.473-.222.952-.347 1.434-.057.242-.134.482-.202.727a7.964 7.964 0 0 1-.245.727c-.077.248-.231.473-.373.687-.148.214-.302.425-.467.63-.321.414-.663.815-1.01 1.217-1.93 2.213-3.872 4.22-5.637 6.047a428.472 428.472 0 0 1-7.982 7.991l-.891.859-.233.219a.665.665 0 0 1-.083.071s.023-.028.074-.082c.057-.057.131-.134.225-.231l.871-.878c.763-.767 1.856-1.868 3.205-3.228a564.795 564.795 0 0 0 4.72-4.82c1.76-1.831 3.698-3.841 5.622-6.047.348-.402.689-.801 1.008-1.212.31-.413.649-.812.82-1.28.088-.237.177-.47.242-.716.068-.242.145-.479.202-.721.125-.482.245-.958.35-1.428.433-1.885.78-3.672 1.093-5.3a449.745 449.745 0 0 0 1.358-7.53v-.008l.006-.006.908-1.231.236-.314a.523.523 0 0 1 .086-.102l-.009.002z" fill="#455A64"/>
            <path d="m103.076 123.695-3.957 4.082s2.813 5.4 2.155 6.227l-8.178-7.401 5.907-6.614 4.073 3.709v-.003z" fill="#263238"/>
            <path d="M96.91 125.132a.45.45 0 0 0-.575.174.435.435 0 0 0 .165.573c.196.102.524.017.61-.186.085-.205-.024-.521-.24-.576" fill="#E0E0E0"/>
            <path d="m93.096 126.6.62-.644 7.609 7.338s.222.487-.051.707l-8.178-7.401z" fill="#455A64"/>
            <path d="M99.288 127.854c-.037.04-.254-.122-.567-.174-.31-.057-.57.023-.592-.025-.029-.04.245-.225.623-.16.379.063.575.328.536.359zM99.825 128.986c-.025.046-.259-.043-.55.006-.29.037-.489.191-.526.151-.042-.029.14-.288.501-.337.359-.054.61.143.575.18zM99.384 130.454c-.043-.025.08-.273.382-.402.299-.128.566-.045.552.003-.006.054-.233.06-.478.168-.248.103-.41.26-.456.228v.003zM100.087 126.825c-.049.02-.183-.199-.422-.388-.236-.193-.48-.276-.47-.33.004-.049.308-.043.587.185.282.225.353.522.305.536v-.003z" fill="#fff"/>
            <path d="m116.304 127.666-.942 4.416-.028.85s5.707 2.107 5.773 3.162l-11.023.022-.022-3.287 1.187-5.83 5.058.673-.003-.006z" fill="#263238"/>
            <path d="M111.923 132.459a.45.45 0 0 0-.31.516.434.434 0 0 0 .506.313c.214-.054.399-.339.325-.547-.074-.208-.37-.371-.564-.265" fill="#E0E0E0"/>
            <path d="m110.084 136.113.028-.895 10.559.314s.492.214.435.559l-11.022.022z" fill="#455A64"/>
            <path d="M115.512 132.875c0 .054-.27.08-.535.254-.27.168-.404.402-.455.379-.049-.012.031-.334.353-.539.321-.208.646-.145.635-.094h.002zM116.669 133.351c.011.051-.22.145-.405.373-.187.223-.233.471-.287.468-.051.008-.088-.308.142-.587.231-.283.547-.305.547-.254h.003zM117.329 134.734c-.049.011-.125-.257.014-.553.137-.297.39-.414.413-.368.031.045-.134.202-.242.447-.114.243-.131.471-.182.474h-.003zM115.413 131.572c-.023.048-.271-.026-.575-.003-.305.014-.541.117-.57.071-.031-.039.2-.239.558-.259.359-.023.612.148.584.191h.003z" fill="#fff"/>
            <path d="M130.15 131.669a.54.54 0 0 1-.453-.827l8.087-12.698a6.073 6.073 0 0 1 4.461-2.783 6.042 6.042 0 0 1 3.664.75l20.667 11.663s.028.017.04.026c1.241.852 1.924 1.773 2.024 2.731a.536.536 0 1 1-1.068.111c-.065-.627-.586-1.283-1.546-1.944l-20.644-11.652a4.958 4.958 0 0 0-3.017-.616 4.989 4.989 0 0 0-3.675 2.293l-8.088 12.698a.539.539 0 0 1-.452.248z" fill="#E0E0E0"/>
            <path d="M130.15 131.669s.085.008.228-.057a.546.546 0 0 0 .213-.188l.214-.343c.33-.521.811-1.288 1.435-2.275 1.255-1.978 3.071-4.843 5.326-8.404l.868-1.369c.285-.467.615-.949 1.05-1.34a5.075 5.075 0 0 1 6.072-.621l.863.485 3.581 2.015c4.908 2.766 10.331 5.825 16.069 9.06h.006c.33.234.658.491.942.799.282.305.541.673.621 1.114.017.12.026.194.074.277a.473.473 0 0 0 .199.182.459.459 0 0 0 .649-.307c.026-.089.006-.183-.008-.291a2.598 2.598 0 0 0-.18-.599c-.358-.807-1.044-1.417-1.756-1.919-.752-.439-1.532-.869-2.289-1.3-1.52-.858-3.017-1.705-4.489-2.534l-8.486-4.795-3.951-2.236c-.643-.356-1.27-.735-1.896-1.054a5.958 5.958 0 0 0-1.998-.556 6.077 6.077 0 0 0-3.786.886 5.993 5.993 0 0 0-1.404 1.221c-.398.461-.689.992-1.013 1.482-2.534 3.957-4.583 7.162-6.001 9.38-.706 1.106-1.27 1.964-1.628 2.548a.529.529 0 0 0 .225.667c.156.083.256.066.253.072 0 0-.023.003-.068 0a.534.534 0 0 1-.425-.297.554.554 0 0 1-.017-.453c.356-.599.908-1.454 1.609-2.569 1.409-2.224 3.447-5.437 5.964-9.405.321-.488.612-1.024 1.019-1.497a6.122 6.122 0 0 1 1.426-1.246 6.175 6.175 0 0 1 3.857-.912 6.015 6.015 0 0 1 2.041.565c.643.327 1.261.698 1.907 1.054 1.281.722 2.602 1.466 3.954 2.23 2.708 1.525 5.546 3.127 8.492 4.787 1.472.829 2.972 1.676 4.492 2.534.76.433 1.523.852 2.3 1.306.723.51 1.426 1.132 1.808 1.981.088.203.154.416.188.633.014.106.04.225.005.348a.606.606 0 0 1-.856.41.595.595 0 0 1-.262-.239c-.066-.097-.083-.24-.094-.328-.069-.396-.311-.744-.581-1.038a5.805 5.805 0 0 0-.919-.772h.005l-16.061-9.069c-1.227-.693-2.419-1.369-3.578-2.021-.29-.163-.578-.325-.863-.488a5.607 5.607 0 0 0-.868-.416 4.948 4.948 0 0 0-5.067 1.009c-.427.385-.746.844-1.036 1.314-.299.465-.589.921-.871 1.366l-5.366 8.382c-.632.98-1.122 1.742-1.455 2.261a15.15 15.15 0 0 1-.222.339.541.541 0 0 1-.225.191c-.148.063-.233.045-.233.045l-.003-.005zM129.766 137a2.527 2.527 0 0 0 2.525-2.529 2.527 2.527 0 0 0-2.525-2.529 2.528 2.528 0 0 0-2.525 2.529 2.527 2.527 0 0 0 2.525 2.529z" fill="#263238"/>
            <path d="M131.366 131.834a.359.359 0 0 0 .105-.256v-.217c0-.2-.162-.365-.364-.365h-2.343a.366.366 0 0 0-.364.365v.217c0 .122.063.225.156.29l-1.11.211v.608l1.202.43.686 1.702a.53.53 0 0 0 .987-.003l.686-1.727 1.202-.291v-.784l-.846-.18h.003z" fill="#E0E0E0"/>
            <path d="M131.366 131.834s.088.012.233.037c.148.026.356.057.618.109l.026.005v.029c.002.225.008.487.011.784v.034l-.034.009c-.353.088-.754.191-1.199.302l.04-.034-.378.972c-.069.171-.137.348-.208.53-.037.091-.066.177-.114.279a.595.595 0 0 1-.231.246.61.61 0 0 1-.876-.314c-.04-.1-.08-.2-.123-.302-.162-.405-.333-.821-.504-1.246l-.054-.134.043.043c-.41-.149-.811-.291-1.198-.431l-.049-.017v-.718l.057-.012 1.11-.205-.025.123a.426.426 0 0 1-.168-.237c-.026-.103-.012-.183-.015-.262a.524.524 0 0 1 .049-.263.412.412 0 0 1 .193-.185.501.501 0 0 1 .251-.04h.649c.547.009 1.028.014 1.435.02.099.006.19-.006.293.017a.393.393 0 0 1 .29.374c0 .065-.003.125-.005.182.002.234-.134.314-.129.305-.014-.006.103-.088.086-.305-.009-.108.02-.251-.074-.365a.336.336 0 0 0-.188-.122c-.074-.018-.177-.003-.273-.006-.407.006-.888.008-1.435.014-.139 0-.279 0-.427.003h-.222c-.08 0-.134 0-.196.031-.12.06-.186.18-.168.337.002.08-.006.168.011.225.017.063.06.12.12.162l.128.092-.157.031-1.11.214.057-.071v.607l-.049-.069c.39.14.792.283 1.202.428l.031.011.011.032.054.134.501 1.246.12.302a.464.464 0 0 0 .848.063c.037-.08.074-.18.111-.268a1430.753 1430.753 0 0 1 .607-1.494l.011-.029.029-.005 1.204-.28-.034.046.011-.784.026.034c-.282-.066-.496-.123-.635-.157-.14-.037-.211-.054-.205-.057h.017z" fill="#263238"/>
            <path d="M129.766 134.862a.286.286 0 1 0-.001-.571.286.286 0 0 0 .001.571zM170.745 134.902a2.703 2.703 0 0 0-2.035-3.234 2.703 2.703 0 0 0-1.193 5.272 2.698 2.698 0 0 0 3.228-2.038z" fill="#263238"/>
            <path d="M169.825 131.483a.366.366 0 0 0 .102-.253v-.28a.366.366 0 0 0-.364-.365h-2.551a.366.366 0 0 0-.364.365v.28a.36.36 0 0 0 .151.287l-1.173.223v.65l1.281.459.734 1.819a.567.567 0 0 0 .527.356.575.575 0 0 0 .53-.359l.734-1.845 1.281-.31v-.839l-.894-.191.006.003z" fill="#E0E0E0"/>
            <path d="m169.825 131.483.245.04.654.117.026.006v.028c.003.24.008.522.011.839v.034l-.034.008-1.278.322.04-.034c-.128.325-.262.673-.407 1.041-.071.185-.145.373-.222.567-.04.1-.071.191-.123.299a.639.639 0 0 1-1.173-.079 13.648 13.648 0 0 0-.131-.322c-.173-.434-.355-.879-.538-1.335l-.054-.134.043.043-1.281-.462-.048-.017V131.683l.057-.012c.404-.074.797-.148 1.172-.216l-.028.122a.45.45 0 0 1-.171-.259c-.017-.114-.006-.185-.008-.277 0-.079-.003-.191.045-.279a.448.448 0 0 1 .208-.2c.088-.042.191-.037.265-.037h.239c.156 0 .307 0 .455.003.587.006 1.105.012 1.54.015.111.005.202-.006.314.014a.392.392 0 0 1 .304.399l-.006.194a.427.427 0 0 1-.059.262c-.037.054-.06.066-.066.068-.014-.005.108-.094.083-.33-.012-.114.025-.271-.071-.394a.334.334 0 0 0-.203-.128c-.079-.014-.193 0-.296-.003-.435.006-.953.009-1.54.017-.148 0-.301 0-.455.003h-.239c-.086 0-.151 0-.214.029a.303.303 0 0 0-.145.142c-.034.063-.031.128-.028.223.002.079-.006.185.008.248.014.068.06.131.12.176l.125.092-.154.028c-.376.071-.766.148-1.17.225l.057-.071v.65l-.048-.068 1.281.459.031.011.011.031.055.134c.182.457.361.901.538 1.335l.128.322a.495.495 0 0 0 .723.273.5.5 0 0 0 .193-.202c.04-.085.08-.191.117-.285.077-.194.154-.382.228-.565l.418-1.034.012-.029.028-.006 1.284-.299-.034.046.011-.839.026.035a20.561 20.561 0 0 1-.669-.166 3.936 3.936 0 0 1-.217-.057h.015z" fill="#263238"/>
            <path d="M168.413 134.411a.305.305 0 1 1-.609 0 .305.305 0 0 1 .609 0zM160.217 114.552s-.08.014-.233.022c-.168.009-.393.023-.675.037l-2.479.132c-2.093.111-4.985.288-8.176.499-3.188.208-6.072.393-8.176.53-1.036.06-1.879.105-2.479.139-.282.012-.507.023-.675.029a1.18 1.18 0 0 1-.236 0c0-.006.08-.014.233-.031.168-.015.39-.035.672-.057l2.477-.189c2.092-.153 4.981-.364 8.173-.575a360.11 360.11 0 0 1 8.181-.457c1.047-.045 1.896-.071 2.482-.082l.675-.012c.154 0 .236 0 .236.006v.009z" fill="#263238"/>
            <path d="M122.124 56.045s-3.929 1.357-5.312 4.022c-.76 1.469-2.938 9.927-2.938 9.927l-1.549 7.832-3.541 9.502s1.406 1.54 7.831 2.278c6.425.738 9.884 1.736 9.884 1.736s.544-8.447 1.116-11.851c.572-3.404 1.936-13.58 1.899-14.543-.037-.963-1.071-5.428-1.071-5.428s-2.061-.96-3.322-1.813c-1.261-.853-2.997-1.66-2.997-1.66v-.002z" fill="#FF725E"/>
            <path d="M113.06 76.383s1.093 1.434 2.875 2.766c1.782 1.331 9.858 6.403 9.858 6.403l2.029-2.155-14.762-7.01v-.004z" fill="#000" opacity=".3"/>
            <path d="M117.472 60.475s-4.797 14.04-4.572 15.557c.228 1.517 7.746 4.844 12.719 7.461l2.371-2.71-8.511-6.547s4.808-10.725 5.187-12.547c.378-1.819-1.213-4.55-2.5-4.7-1.287-.152-4.694 3.489-4.694 3.489v-.003z" fill="#FFBF9D"/>
            <path d="M122.084 56.78c-2.434-.234-4.02 1.74-5.027 3.547-1.008 1.807-3.052 8.929-3.052 8.929l8.079 2.466c.21-.217 2.938-8.23 3.02-9.913.083-1.682-.586-4.795-3.02-5.029z" fill="#FF725E"/>
            <path d="M122.084 56.78s.029 0 .083.009l.244.037c.214.034.524.137.886.348.35.225.729.593 1.036 1.106.313.51.552 1.16.695 1.904.142.739.21 1.594 0 2.472-.185.878-.447 1.799-.735 2.771a101.51 101.51 0 0 1-1.509 4.67c-.096.274-.196.55-.296.827-.051.14-.105.276-.156.416-.063.14-.1.274-.197.433l-.02.035-.051-.018c-1.173-.356-2.391-.73-3.638-1.109l-4.441-1.357-.068-.02.02-.068c.643-2.201 1.281-4.25 1.913-6.075.322-.91.629-1.768.996-2.538.382-.764.826-1.417 1.278-1.973.459-.55.948-.983 1.427-1.28a4.017 4.017 0 0 1 1.326-.541c.194-.035.364-.066.515-.069.151-.008.276-.017.379-.005.097.005.174.01.231.017l.076.008c0 .026-.432-.06-1.195.094-.376.089-.831.251-1.298.556-.467.3-.945.73-1.395 1.28-.441.55-.88 1.21-1.25 1.962-.359.76-.66 1.622-.976 2.531a135.388 135.388 0 0 0-1.893 6.076l-.049-.089c1.415.43 2.907.887 4.441 1.355 1.247.382 2.465.752 3.638 1.111l-.048.043c.82-2.212 1.528-4.373 2.115-6.303.29-.97.558-1.89.746-2.76.213-.864.151-1.7.017-2.432-.137-.735-.365-1.377-.666-1.884a3.378 3.378 0 0 0-1-1.104 2.806 2.806 0 0 0-.862-.364c-.1-.02-.179-.038-.239-.049-.054-.011-.083-.02-.083-.02l.003-.003z" fill="#263238"/>
            <path d="M129.027 88.511a.424.424 0 0 1-.35-.182l-1.882-2.697a.428.428 0 0 1 .701-.49l1.881 2.696a.429.429 0 0 1-.35.673z" fill="#E0E0E0"/>
            <path d="M128.814 85.769a1.941 1.941 0 0 1-1.939 1.941 1.94 1.94 0 0 1-1.938-1.941 1.94 1.94 0 0 1 1.938-1.942c1.07 0 1.939.87 1.939 1.942z" fill="#455A64"/>
            <path d="M124.937 82.105s.196 1.223.506 1.67c.311.448.74.235 1.207.371.467.137.564.331.644.625.079.293.441 2.318.797 2.574.247.177.603.06.603-.234 0-.293-.367-2.885-.367-2.885s.64 1.443.66 1.97c.02.528.066 1.62.53 1.68.253.03.41.037.484-.411.077-.465.136-1.383.097-1.736-.04-.35-.294-1.463-.294-1.463s.721 1.403.701 1.716c-.02.311-.311.545-.117.782.193.233.643.136.817-.06.176-.194.427-.995.41-1.249-.017-.254-.427-1.462-.427-1.462s.629.88.686 1.231c.06.35-.009 1.708.205 1.882.213.177.603.293.7-.177.097-.468.157-1.682.157-1.993 0-.43-1.088-2.073-1.301-2.386-.214-.314-1.344-.507-1.597-.662-.254-.156-2.323-1.251-2.323-1.251l-2.776 1.471-.002-.003z" fill="#FFBF9D"/>
            <path d="M128.444 59.517s.023.048.057.145c.037.112.082.251.142.428.122.39.293.935.507 1.61v.006c.136.859.23 1.942.276 3.182.008.31.011.63-.006.96l-.077 1.005-.185 2.123c-.245 2.635-.549 5.012-.825 6.723a60.16 60.16 0 0 1-.353 2.021l-.114.548a1.69 1.69 0 0 1-.048.188c-.006 0 0-.069.019-.194.023-.14.052-.325.086-.55.074-.496.179-1.186.304-2.027.248-1.714.538-4.089.78-6.723.066-.73.129-1.44.188-2.124.029-.342.054-.675.08-1 .02-.323.017-.642.011-.95-.037-1.231-.119-2.32-.236-3.167v.006a287.12 287.12 0 0 0-.464-1.623c-.048-.18-.088-.322-.117-.436a.564.564 0 0 1-.031-.154l.006.003z" fill="#263238"/>
        </g>
    </g>
    <defs>
        <clipPath id="ckvca7vnaa">
            <path fill="#fff" d="M0 0h275v148H0z"/>
        </clipPath>
        <clipPath id="xaqphfud1b">
            <path fill="#fff" transform="translate(43 11)" d="M0 0h188.171v126H0z"/>
        </clipPath>
    </defs>
</svg>
