<svg xmlns="http://www.w3.org/2000/svg" xmlns:xlink="http://www.w3.org/1999/xlink" width="86" height="77" viewBox="0 0 86 77">
    <defs>
        <linearGradient id="a" x1="50%" x2="50%" y1="0%" y2="100%">
            <stop offset="0%" stop-color="#389EFC"/>
            <stop offset="100%" stop-color="#E8F4FF"/>
        </linearGradient>
        <path id="b" d="M.043 13.913C3.092 6.49 8.222-3.671 14.663 1.468c4.104 3.274 4.779 7.212 3.93 16.936 0 0-7.741-.375-10.44-1.302-2.286-.785-8.11-3.19-8.11-3.19"/>
    </defs>
    <g fill="none" fill-rule="evenodd">
        <circle cx="42" cy="39" r="36" stroke="url(#a)" stroke-width="3"/>
        <path fill="#E5E5E5" d="M75.283 60.559l-24.91-5.298c-1.003-.214-1.646-1.195-1.43-2.18l7.16-32.488c.218-.985 1.216-1.617 2.22-1.404l24.91 5.298c1.004.214 1.647 1.195 1.43 2.18l-7.16 32.488c-.217.985-1.216 1.617-2.22 1.404"/>
        <path fill="#FFF" d="M75.502 60.988l-24.91-5.298c-1.004-.213-1.647-1.194-1.43-2.18l7.16-32.487c.217-.986 1.216-1.618 2.219-1.404l24.91 5.298c1.004.213 1.647 1.194 1.43 2.18l-7.16 32.487c-.217.986-1.216 1.618-2.22 1.404"/>
        <path fill="#6A79A8" d="M75.87 60.726l-3.504-.74-7.94-1.675-8.37-1.767-4.912-1.036c-.134-.029-.27-.054-.4-.094-.878-.272-1.34-1.164-1.173-2.02.058-.295.13-.588.196-.881l1.146-5.159 1.75-7.886 1.885-8.483 1.515-6.825c.225-1.011.42-2.035.676-3.04.216-.847.994-1.422 1.9-1.264.093.016.184.039.275.058l1.866.394L68 21.83l8.617 1.819 6.113 1.29c.374.079.786.127 1.144.265.82.317 1.224 1.169 1.063 1.99-.019.094-.042.189-.063.283l-.93 4.185c-.552 2.49-1.105 4.98-1.659 7.469A30592.04 30592.04 0 0 1 78.75 55.05l-.923 4.152c-.019.087-.036.175-.058.261-.224.88-1.022 1.42-1.946 1.254-.192-.035-.419.227-.146.276 1.207.216 2.27-.531 2.53-1.673.1-.434.193-.868.29-1.302l1.308-5.895a1387086.01 1387086.01 0 0 1 3.728-16.785l1.398-6.293c.268-1.211.923-2.796-.233-3.759-.45-.374-1.004-.45-1.557-.567l-2.403-.507-7.936-1.675-8.575-1.81-5.11-1.078c-1.007-.213-2.07.03-2.597.981-.187.34-.244.748-.327 1.122a102622.84 102622.84 0 0 1-4.785 21.542l-1.557 7.014c-.23 1.038-.489 2.075-.693 3.118-.218 1.12.523 2.075 1.632 2.315.535.115 1.07.225 1.605.338l7.12 1.503 8.834 1.865 6.332 1.336.95.2c.165.035.483-.205.239-.257"/>
        <path fill="#6A79A8" d="M57.27 51.136l4.966 1.023 7.87 1.62 1.822.376c.119.024.488-.153.26-.2l-4.966-1.022-7.87-1.62-1.821-.376c-.12-.024-.489.153-.26.2M56.852 52.263A88500.493 88500.493 0 0 0 69.67 54.86l1.818.368c.168.034.494-.2.245-.25l-4.96-1.005a270698.346 270698.346 0 0 1-9.678-1.96c-.168-.034-.494.201-.244.251M56.628 53.531l6.352 1.267c.154.03.487-.182.245-.23L56.873 53.3c-.154-.03-.487.182-.245.23"/>
        <path fill="#FFF" d="M74.007 50.935c-.48-4.641-1.64-8.396-3.87-10.203-4.19-3.394-8.563 1.042-12.066 6.826l15.936 3.377"/>
        <path fill="#FFF" d="M73.789 50.327c-.213-2.001-.547-4.013-1.224-5.921-.508-1.432-1.235-2.877-2.404-3.913-1.107-.98-2.546-1.55-4.054-1.32-1.58.242-2.95 1.195-4.082 2.245-1.759 1.63-3.14 3.63-4.378 5.648-.036.059.007.11.069.123l5.304 1.114 8.5 1.784 1.94.408c.141.03.484-.18.247-.229l-5.304-1.113-8.5-1.785-1.94-.407.069.123c1.05-1.712 2.199-3.39 3.592-4.86 1.1-1.163 2.438-2.332 4.053-2.736 3.253-.813 5.475 2.298 6.417 4.857.72 1.956 1.066 4.03 1.285 6.089.015.143.427.054.41-.107"/>
        <g transform="translate(55.014 40.196)">
            <mask id="c" fill="#fff">
                <use xlink:href="#b"/>
            </mask>
            <path fill="#DEF3F9" d="M2.404 2.094l-.292 1.298c-.045.202.377.159.418-.026l.292-1.298c.045-.203-.376-.16-.418.026M3.754 2.386l-.292 1.298c-.034.15.38.088.412-.049l.291-1.298c.034-.15-.38-.088-.411.049M5.104 2.68l-.292 1.298c-.016.072.384.018.405-.074l.291-1.298c.017-.072-.384-.018-.404.074M6.449 2.954l-.292 1.298c-.025.114.383.051.408-.061l.292-1.298c.025-.114-.383-.051-.408.061M7.795 3.234l-.292 1.298c-.028.124.382.061.41-.058l.29-1.298c.029-.125-.381-.062-.408.058M9.138 3.503l-.291 1.298c-.041.183.378.13.415-.035l.292-1.298c.04-.183-.378-.13-.416.035M10.488 3.795l-.292 1.298c-.029.13.382.067.41-.056l.291-1.298c.03-.13-.381-.068-.41.056M11.836 4.08l-.292 1.298c-.023.103.383.042.407-.065l.292-1.298c.023-.103-.383-.042-.407.065M13.183 4.363l-.292 1.298c-.02.09.384.031.406-.069l.292-1.298c.02-.09-.384-.031-.406.07M14.524 4.623l-.292 1.298c-.045.201.377.157.418-.027l.291-1.298c.046-.2-.376-.157-.417.027M15.87 4.904l-.291 1.298c-.045.2.376.157.417-.027l.292-1.298c.045-.2-.376-.156-.418.027M17.217 5.186l-.291 1.298c-.045.197.377.15.417-.029l.291-1.298c.045-.197-.376-.15-.417.03M18.568 5.48l-.292 1.298c-.03.132.382.069.41-.055l.291-1.298c.03-.132-.381-.069-.41.055M1.154 4.572L.862 5.87c-.018.082.384.025.406-.071L1.559 4.5c.019-.083-.384-.026-.405.07M2.494 4.83l-.291 1.298c-.045.201.376.157.417-.026l.292-1.298c.045-.201-.377-.157-.418.026M3.846 5.129l-.292 1.298c-.025.114.383.051.408-.062l.292-1.298c.025-.114-.383-.051-.408.062M5.192 5.41l-.291 1.298c-.025.113.383.05.408-.062L5.6 5.348c.026-.113-.382-.05-.408.062M6.535 5.677l-.291 1.298c-.043.187.377.136.415-.034l.292-1.298c.042-.187-.378-.136-.416.034M7.881 5.957L7.59 7.255c-.043.191.377.142.416-.032l.292-1.298c.043-.19-.378-.142-.417.032M9.231 6.249L8.94 7.547c-.031.137.381.074.41-.054l.291-1.298c.031-.136-.381-.073-.41.054M10.58 6.538l-.291 1.298c-.02.085.383.027.405-.07l.292-1.298c.019-.084-.384-.027-.406.07M11.924 6.808l-.292 1.298c-.034.151.38.09.412-.048l.291-1.298c.034-.151-.38-.09-.411.048M13.272 7.096l-.291 1.298c-.026.115.382.053.408-.061l.291-1.298c.026-.116-.382-.053-.408.06M14.614 7.36l-.291 1.299c-.044.196.377.15.417-.03l.291-1.297c.044-.197-.377-.15-.417.029M15.961 7.644l-.291 1.298c-.042.187.378.136.416-.033l.291-1.298c.043-.188-.377-.137-.416.033M17.31 7.933l-.291 1.298c-.033.147.38.085.411-.05l.292-1.298c.033-.147-.381-.085-.411.05M18.655 8.205l-.292 1.298c-.042.19.378.14.416-.032l.292-1.298c.042-.189-.378-.139-.416.032" mask="url(#c)"/>
        </g>
        <path fill="#FFF" d="M65.606 45.84l-1.633-1.654c-.515-.522-1.228-1.056-1.634-1.657-.381-.564.223-.853.707-1.253.428-.353.88-.681 1.365-.959 1.907-1.092 4.005-1.043 5.743.328 1.019.803 1.738 1.93 2.238 3.083.334.769-.352 1.074-.996 1.493a9.009 9.009 0 0 1-1.86.925c-.568.205-1.167.279-1.774.279-.207 0-.413-1.08-.66-1.514l-1.496.93"/>
        <path fill="#FFF" d="M65.507 45.615c-.596-.631-1.178-1.28-1.794-1.892-.266-.265-.546-.514-.81-.782-.249-.253-.706-.651-.717-1.03-.01-.37.423-.612.674-.816.327-.268.646-.54.994-.78.757-.522 1.611-.91 2.538-.983 1.68-.131 3.178.803 4.18 2.085.501.64.942 1.388 1.225 2.153.297.8-.49 1.173-1.06 1.544-.893.582-1.905 1.052-2.99 1.074-.199.004-.223-.05-.294-.22-.053-.127-.093-.26-.135-.392-.097-.302-.18-.613-.325-.897-.057-.112-.29-.012-.361.034l-1.473.956c-.178.115.228.098.317.04l1.473-.957-.361.034c.16.315.246.66.356.993.06.186.115.49.304.591.245.131.78-.01 1.048-.051.505-.08.98-.241 1.445-.448.753-.335 1.602-.783 2.209-1.351.684-.641.08-1.523-.292-2.183-.91-1.613-2.38-3.011-4.307-3.193-1.932-.183-3.476.833-4.906 1.99-.25.202-.621.44-.66.791-.048.44.468.887.74 1.164.873.887 1.748 1.768 2.604 2.673.082.088.464-.056.378-.147"/>
        <path fill="#6A79A8" d="M71.84 43.237c1.078 2.229 1.506 4.724 1.771 7.167.02.19.417.091.396-.106-.27-2.476-.714-4.98-1.807-7.239-.08-.165-.454-.015-.36.178M58.487 47.392c1.436-2.326 3.06-4.56 5.19-6.325.215-.178-.12-.301-.274-.174-2.18 1.806-3.842 4.078-5.312 6.46-.117.189.306.186.396.04"/>
        <path fill="#FFF" d="M73.23 36.08c.978-4.413-.22-8.41-2.675-8.93-2.457-.518-5.242 2.638-6.22 7.051-.024.102-.136.61-.176.79-.543 2.447-.708 4.197-.598 5.463.225 2.6 3 4.253 3 4.253s3.296-.35 4.567-2.364c.695-1.102 1.339-2.828 1.926-5.472l.175-.791"/>
        <path fill="#FFF" d="M73.658 35.843c.41-1.913.52-3.962-.001-5.866-.35-1.28-1.077-2.713-2.438-3.169-1.17-.393-2.41.074-3.34.797-1.347 1.047-2.252 2.612-2.863 4.168-.703 1.794-1.076 3.787-1.326 5.688-.206 1.564-.35 3.25.444 4.683.53.96 1.4 1.939 2.37 2.494.166.095.287.073.473.043a9.706 9.706 0 0 0 1.507-.367c.727-.24 1.436-.565 2.048-1.026.624-.47 1.049-1.076 1.393-1.764.89-1.779 1.311-3.755 1.733-5.68.029-.132-.381-.067-.408.057-.274 1.247-.55 2.492-.946 3.708-.314.966-.68 1.999-1.29 2.828-.925 1.26-2.677 1.91-4.203 2.079l.16.023c-1.203-.73-2.295-1.922-2.762-3.242-.342-.968-.293-2.04-.204-3.048.111-1.261.353-2.506.624-3.743.502-2.292 1.296-4.628 2.997-6.341.65-.655 1.51-1.274 2.473-1.295.871-.018 1.627.466 2.151 1.123.747.935 1.086 2.159 1.241 3.32.204 1.53.08 3.084-.241 4.588-.028.132.382.067.408-.058"/>
        <path fill="#BBDFF5" d="M74.446 31.643c1.172-.953 1.387-2.708.7-4.017-.685-1.31-2.115-2.178-3.623-2.503-1.508-.324-3.09-.162-4.596.173-.958.213-1.968.541-2.535 1.3-.599.803-.535 1.94-.01 2.787.524.847 1.44 1.428 2.415 1.767.975.34 2.017.464 3.048.583.663.076 1.343.15 1.991 0 .648-.152 1.267-.58 1.428-1.192l1.182 1.102"/>
        <path fill="#FFF" d="M74.184 32.014c1.412-1.244 1.464-3.39.382-4.857-1.293-1.754-3.608-2.326-5.71-2.191-1.095.07-2.24.263-3.268.647-.887.331-1.685.912-1.95 1.844-.6 2.11 1.37 3.7 3.21 4.24.603.176 1.225.282 1.847.367.667.09 1.349.197 2.024.184 1.003-.019 2.07-.45 2.374-1.465l-.393.104 1.162 1.124c.13.126.516-.038.373-.176l-1.162-1.124c-.118-.114-.346-.05-.393.103-.323 1.078-1.593 1.2-2.554 1.114-1.016-.092-2.063-.212-3.042-.5-1.64-.48-3.355-1.759-3.109-3.638.266-2.03 3.024-2.392 4.687-2.522 1.857-.146 3.853.258 5.172 1.637 1.267 1.326 1.559 3.625.08 4.928-.205.18.118.314.27.18"/>
        <path fill="#6A79A8" d="M73.659 35.85c.41-1.911.518-3.959-.003-5.86-.351-1.281-1.072-2.69-2.42-3.168-1.18-.418-2.425.052-3.361.784-1.348 1.054-2.248 2.611-2.86 4.17-.703 1.789-1.076 3.778-1.326 5.675-.206 1.564-.346 3.244.445 4.679.536.97 1.405 1.924 2.376 2.5.17.099.281.084.474.054a9.602 9.602 0 0 0 1.506-.366c.746-.247 1.47-.582 2.09-1.064.619-.481 1.034-1.094 1.373-1.787.866-1.767 1.287-3.712 1.706-5.618.036-.165-.38-.104-.412.045-.354 1.613-.714 3.235-1.333 4.773-.235.585-.504 1.183-.873 1.7-.425.597-1.046 1.038-1.703 1.358-.81.395-1.654.582-2.532.747.166-.031.13.02-.028-.087a7.8 7.8 0 0 1-1.701-1.578c-.47-.592-.838-1.267-1.008-2.003-.153-.667-.137-1.375-.099-2.054.094-1.646.438-3.267.801-4.872.394-1.744 1.08-3.463 2.176-4.898.774-1.014 1.965-2.143 3.356-2.066 1.532.085 2.432 1.57 2.846 2.861.63 1.967.526 4.124.098 6.12-.035.165.38.104.412-.046"/>
        <path fill="#E5E5E5" d="M71.51 45.25c-.749.609-1.566 1.088-2.501 1.351-.27.076-.823.248-1.176.294l-.605-1.667c-.097-.266-.546-.243-.726-.1l-1.313 1.047-2.606-3.063c-.247-.29-1.042-.026-.729.343l2.896 3.403c.155.182.505.168.68.029l1.166-.931.313.86c.157.433.204.7.734.682 1.617-.054 3.272-.852 4.496-1.848.411-.334-.325-.648-.63-.4"/>
        <path fill="#6A79A8" d="M71.878 44.926c-.707.657-1.496 1.199-2.393 1.511-.263.092-.532.16-.802.225-.177.042-.61.043-.745.16-.057.051.034.08.04.026.004-.052-.048-.152-.064-.201l-.218-.699-.349-1.118c-.044-.142-.313-.035-.38.026L65.28 46.38l.366-.053-2.8-3.727c-.087-.117-.494.039-.393.174l2.8 3.727c.075.102.295.01.365-.052l1.687-1.525c-.127.01-.254.018-.38.026l.442 1.42c.114.364.095.744.511.695 1.61-.192 3.126-.944 4.338-2.07.181-.17-.237-.164-.338-.07M66.367 38.004c.09 1.495 1.867 1.764 2.603.649.097-.148-.26-.125-.332-.016-.648.982-1.854.322-1.917-.736-.008-.134-.364-.052-.354.103"/>
        <path fill="#F0F9FC" d="M66.773 33.986c-.153.87-.85 1.422-1.557 1.233-.707-.188-1.156-1.045-1.003-1.914.153-.87.85-1.422 1.557-1.234.707.189 1.156 1.046 1.003 1.915"/>
        <path fill="#6A79A8" d="M67.227 33.753a1.318 1.318 0 0 1-1.729.904c-.644-.235-1.009-.916-.858-1.55.174-.73.979-1.177 1.729-.904.664.243.977.908.858 1.55-.038.202.388.155.422-.027.169-.906-.465-1.765-1.437-1.891-.9-.116-1.806.447-1.994 1.3-.199.902.488 1.768 1.437 1.89.93.121 1.765-.454 1.994-1.3.053-.194-.374-.15-.422.028"/>
        <path fill="#F0F9FC" d="M71.14 34.845c-.154.87-.85 1.422-1.558 1.234-.707-.189-1.156-1.046-1.002-1.915.153-.87.85-1.422 1.557-1.233.706.188 1.155 1.045 1.002 1.914"/>
        <path fill="#6A79A8" d="M71.602 34.858c-.217.83-1.058 1.34-1.872.889a1.484 1.484 0 0 1-.73-1.596c.182-.84 1.073-1.33 1.872-.889.579.32.843.966.73 1.596-.021.117.393.048.414-.065.172-.957-.495-1.826-1.493-1.895-.852-.058-1.75.47-1.937 1.318-.21.952.523 1.83 1.493 1.895.877.059 1.715-.474 1.937-1.318.028-.11-.384-.05-.414.065"/>
        <path fill="#6A79A8" d="M72.154 34.446a4.469 4.469 0 0 1 1.499-.607c.267-.054.592-.113.864-.048.212.05.678.48.257.631-.255.093-.026.242.167.172.262-.095.414-.296.368-.545-.057-.305-.388-.457-.718-.494-.926-.106-1.967.305-2.694.762-.22.138.114.219.257.13M67.432 34.148c.038-.22.26-.447.552-.362.247.071.39.305.373.513-.012.161.398.105.41-.033.03-.389-.33-.718-.798-.728-.45-.009-.88.267-.946.643-.028.157.384.105.409-.033"/>
        <path fill="#E5E5E5" d="M26.634 24.075v30.046a1.33 1.33 0 0 0 1.336 1.325h27.236a1.33 1.33 0 0 0 1.337-1.325v-4.683l-.023-2.58V18.324A1.33 1.33 0 0 0 55.184 17H33.752l-7.118 7.069v.006"/>
        <path fill="#FFF" d="M27.289 24.72v30.045a1.33 1.33 0 0 0 1.336 1.325h27.236a1.33 1.33 0 0 0 1.336-1.325v-4.682l-.022-2.581V18.969a1.33 1.33 0 0 0-1.337-1.325H34.407l-7.118 7.07v.005"/>
        <path fill="#6A79A8" d="M26.905 24.892V54.85a1.2 1.2 0 0 0 1.208 1.189H55.5a1.2 1.2 0 0 0 1.208-1.19v-4.676l-.022-2.576V19.1a1.2 1.2 0 0 0-1.209-1.189H33.983l-7.078 6.981zM55.5 56.305H28.113a1.47 1.47 0 0 1-1.48-1.456V24.843v-.003l.001-.006c0-.034.015-.067.04-.091l7.157-7.06a.137.137 0 0 1 .096-.039h21.55c.816 0 1.48.653 1.48 1.456v28.495l.022 2.576v4.678a1.47 1.47 0 0 1-1.48 1.456z"/>
        <path fill="#6A79A8" d="M27.095 24.681h5.42c.7 0 1.272-.561 1.272-1.251v-5.332l-6.692 6.583zm5.42.266h-5.746a.135.135 0 0 1-.125-.082.131.131 0 0 1 .03-.145l7.152-7.037a.136.136 0 0 1 .147-.028c.05.02.083.068.083.122v5.653c0 .836-.691 1.517-1.542 1.517z"/>
        <path fill="#F2F2F2" d="M34.018 44.85c.098.276.294.878.294.878s-.286.728-.545 1.418l.536-.011c3.535-.062 7.069.065 10.603.098 1.453.013 2.906.033 4.359.05a40.582 40.582 0 0 0-.232-.724c-.39-1.183-.58-1.404.742-1.484-.013 0-.156-.68-.166-.721-.05-.207-.116-.413-.147-.622l-.102-.703a80.35 80.35 0 0 0-.137-.875 8.183 8.183 0 0 0-.585.025c-.23.015-.46.017-.691.003-.35-.02-.637-.14-.892-.387-.422-.41-.708-.91-1.034-1.394-1.63-2.097-3.65-3.027-6.143-1.811a7.547 7.547 0 0 0-1.875 1.326c-.69.656-1.148 1.48-1.784 2.18a5.54 5.54 0 0 1-1.303 1.058c-.232.135-.472.253-.703.39-.142.085-.606.325-.593.512.007.103.17.283.218.379.068.134.129.273.18.416"/>
        <path fill="#FFF" d="M34.888 45.726l-.436 1.407c3.482-.055 6.964.068 10.445.1 1.456.013 2.911.033 4.367.05a40.528 40.528 0 0 0-.232-.724c-.391-1.183-.581-1.404.743-1.484-.013 0-.156-.68-.166-.721-.05-.207-.117-.413-.147-.622l-.103-.703c-.04-.271-.137-.875-.137-.875a8.213 8.213 0 0 0-.586.025c-.23.015-.462.017-.692.003a1.33 1.33 0 0 1-.894-.387c-.423-.41-.71-.91-1.036-1.394-1.632-2.097-3.657-3.027-6.154-1.811a7.56 7.56 0 0 0-1.878 1.326c-.692.656-1.15 1.48-1.788 2.18-.379.416-.82.775-1.305 1.058-.232.135-.473.253-.704.39-.143.085-.449.303-.313.43.678.632 1.016 1.752 1.016 1.752"/>
        <path fill="#FFF" d="M40.482 44.45l-1.913-1.315c-.603-.415-1.4-.802-1.915-1.317-.484-.484.034-.89.414-1.38.335-.435.7-.85 1.106-1.22 1.597-1.459 3.617-1.824 5.573-.81 1.145.593 2.071 1.567 2.794 2.61.481.695-.111 1.133-.64 1.676-.475.487-1.01.92-1.588 1.283-.501.315-1.081.587-1.668.498-.588-.09-1.12-.687-.925-1.24l-1.238 1.216"/>
        <path fill="#E5E5E5" d="M45.955 42.24c-.594.716-1.28 1.324-2.122 1.753-.243.123-.738.392-1.067.505l-.916-1.444c-.146-.23-.572-.12-.715.049l-1.046 1.236-3.114-2.36c-.295-.223-1.003.18-.629.464l3.46 2.621c.185.14.517.06.656-.105l.93-1.1.473.744c.238.376.336.616.84.496 1.538-.366 2.963-1.436 3.934-2.608.326-.393-.442-.543-.684-.252"/>
        <path fill="#6A79A8" d="M46.744 42.142c-.551.626-1.201 1.172-1.994 1.57-.25.126-.508.232-.77.333-.122.047-.646.164-.699.257-.001.002.149.104.144.01-.002-.044-.08-.119-.105-.154l-.346-.509-.373-.548c-.075-.11-.16-.17-.093-.245.113-.124-.31-.097-.392-.005l-1.394 1.534.392-.067-3.37-2.38c-.114-.08-.505.06-.393.14l3.371 2.38c.104.073.316.016.392-.067l1.394-1.535-.392-.005-.07.077a.055.055 0 0 0-.016.051l.69 1.013c.18.264.247.576.65.477 1.502-.37 2.841-1.272 3.766-2.321.112-.127-.31-.099-.392-.006"/>
        <path fill="#FFF" d="M46.718 32.981c.03-4.422-1.997-8.019-4.527-8.034-2.53-.015-4.605 3.557-4.635 7.979l-.006.792c-.016 2.452.192 4.162.568 5.353.774 2.449 3.859 3.488 3.859 3.488s3.172-.982 3.998-3.162c.451-1.193.72-2.973.738-5.623l.005-.793"/>
        <path fill="#BBDFF5" d="M45.483 26.97c.37-.381.98-1.03.997-1.594.207.63.254 1.345.443 1.998.105.365.21.733.23 1.113.028.585-.153 1.166-.427 1.68-.274.515-.639.972-1.004 1.424.061.056.128-.065.127-.149l-.011-1.079c-.068.07-.302.18-.37.25l-.438.45a.888.888 0 0 0 .027-.766l-.12-.001c-.188.248-.468.35-.737.5l.157-.04c-.003-.18-.04-.36-.108-.528-.13-.319-.387-.568-.514-.885-.194-.485.036-.436.257-.84.33-.604 1.022-1.05 1.49-1.533"/>
        <path fill="#BBDFF5" d="M36.255 27.326c.587-1.133 1.336-2.16 2.409-2.957 1.042-.774 2.394-1.43 3.702-1.557.972-.093 1.88.315 2.621.906.626.499 1.725 1.237 1.118 2.057a11.19 11.19 0 0 1-3.569 3.113c-.697.386-1.437.701-2.202.933-.337.103-.73.132-.998.355-.131.11-.557.68-.55.847-.003-.08-.269-.977-.376-.894a3.57 3.57 0 0 0-.887 1.006c-.052.088-.123.189-.156.285-.035.102-.013.207-.01.316.006.13.005.262 0 .393-.003.06-.056.292-.025.335-.134-.187-.356-.3-.484-.49-.178-.263-.14-.595-.18-.893a8.561 8.561 0 0 0-.182-.948 1.21 1.21 0 0 0-.369.687c-.036.203-.042.412-.09.613-.063.275-.203.56-.104.825-.396-.33-.493-.957-.538-1.437a5.24 5.24 0 0 1 .12-1.599c.074-.335.164-.625.301-.943.14-.323.288-.641.45-.953"/>
        <path fill="#6A79A8" d="M46.719 33.18c.002-1.917-.308-3.89-1.196-5.614-.584-1.134-1.512-2.298-2.849-2.566-1.243-.249-2.399.404-3.184 1.312-1.129 1.306-1.69 3.054-1.952 4.721-.286 1.82-.235 3.756-.09 5.587.12 1.536.33 3.17 1.377 4.386.732.85 1.725 1.499 2.768 1.923.2.082.314.076.518.001a9.063 9.063 0 0 0 1.284-.591c.672-.374 1.31-.83 1.82-1.404.518-.584.809-1.26 1.003-2.004.487-1.87.488-3.834.5-5.752.002-.202-.414-.135-.415.036-.01 1.6-.026 3.209-.297 4.792-.107.62-.24 1.26-.493 1.84-.292.665-.798 1.216-1.372 1.66a8.008 8.008 0 0 1-1.522.914c-.095.045-.733.23-.763.313.036-.1.238.067.01-.053-.154-.08-.322-.138-.478-.215a7.846 7.846 0 0 1-1.386-.872c-.56-.443-1.052-.983-1.385-1.612-.315-.593-.458-1.266-.57-1.921-.28-1.63-.28-3.29-.263-4.938.018-1.78.318-3.603 1.1-5.222.54-1.119 1.447-2.423 2.789-2.645 1.48-.245 2.642 1.018 3.297 2.16.997 1.74 1.336 3.826 1.333 5.799 0 .202.415.135.416-.036"/>
        <path fill="#F2F2F2" d="M41.697 47.07c-.105-.382-.223-.626-.356-.634l-.209-.011c-.162-.009-.3.268-.308.62l.873.024"/>
        <path fill="#BBDFF5" d="M41.916 47.07c-.125-.4-.258-.652-.396-.645l-.203.01c-.155.008-.275.279-.275.61l.874.024"/>
        <path fill="#6A79A8" d="M42.349 46.707c-.093-.163-.208-.373-.402-.457-.126-.055-.27-.04-.406-.034-.401.017-.697.2-.717.58-.002.04.107.037.128.038l1.087.017c.136.002.473-.177.182-.182l-1.087-.017.128.038a.502.502 0 0 1 .043-.194c.018-.036.134-.148-.003-.096a.65.65 0 0 1 .196-.006c.207.022.329.27.413.419.063.11.484-.024.438-.106"/>
        <path fill="#BBDFF5" d="M41.3 45.023c.113-.115.249-.157.42.008.243.235.39.628.54.921.122.244.175.41-.177.458-.31.042-.671-.02-.986-.03-.502-.015-.181-.76-.058-.965.074-.124.158-.288.26-.392"/>
        <path fill="#6A79A8" d="M41.367 44.943c.071-.071.494.86.534.952.022.052.056.11.066.167.021.123.02.105-.08.142-.161.06-.431-.015-.602-.028-.142-.011-.264.005-.302-.169-.026-.122.016-.272.05-.389.074-.248.2-.502.357-.702.099-.124-.265-.096-.338-.003-.22.277-.51.816-.433 1.198.036.18.167.245.329.263.319.035.668.082.986.022.15-.029.372-.093.412-.276.046-.21-.16-.518-.24-.696-.103-.236-.242-.58-.486-.686-.188-.083-.405.01-.544.148-.152.15.206.14.29.057M33.527 44.969c-.641.385-1.13.952-1.434 1.646-.022.049.316.024.357-.068.289-.659.743-1.209 1.353-1.575.148-.089-.212-.042-.276-.003M49.631 43.715c1.308.213 2.674.181 3.953-.186 1.12-.322 1.945-.92 2.403-2.036 1.127-2.753-.884-5.547-1.457-8.183-.192-.883-.326-1.778-.477-2.668-.042-.243-.093-.498.02-.729.095-.193.246-.263.423-.365.192-.112.35-.227.43-.442.049-.132-.349-.084-.4.05-.09.245-.404.314-.594.461a.822.822 0 0 0-.306.454c-.066.266.006.55.052.812.063.359.12.718.18 1.077a21.334 21.334 0 0 0 1.115 4.131c.48 1.257 1.021 2.6.946 3.975-.058 1.072-.496 2.3-1.438 2.88-.65.402-1.504.549-2.249.626a8.916 8.916 0 0 1-2.357-.078c-.127-.02-.468.184-.244.22"/>
        <path fill="#6A79A8" d="M53.204 29.073c.164-.022.316-.037.36.181.036.185-.028.351-.046.53-.018.172.332.107.347-.041.025-.245.119-.499-.004-.735-.123-.233-.411-.204-.617-.177-.065.008-.185.052-.194.141-.009.09.095.109.154.1M52.624 29.166c-.061.396.134.83.545.929a.334.334 0 0 0 .28-.075c.06-.059.046-.121-.037-.141-.313-.076-.435-.48-.392-.763.024-.154-.375-.086-.396.05M36.518 41.552c-.503.516-.951 1.094-1.59 1.427-.36.188-.904.353-1.165.698-.083.11-.173.281-.134.422.025.089.172.248.219.332.09.164.161.337.215.517.203.68.105 1.369-.223 1.984-.102.19.309.166.384.026.253-.475.39-.99.353-1.537a2.697 2.697 0 0 0-.194-.836c-.081-.199-.388-.569-.303-.783.075-.186.397-.296.558-.382.297-.16.64-.273.907-.48.482-.375.879-.856 1.306-1.294.175-.18-.223-.207-.333-.094M37.237 41.168l.732-.868c.058-.069-.05-.102-.093-.104a.3.3 0 0 0-.232.103l-.733.867c-.058.07.05.102.093.104a.3.3 0 0 0 .233-.102M49.42 46.693c-.059-.346-.236-.643-.361-.967a1.38 1.38 0 0 1-.11-.422c-.019-.404.41-.487.747-.481.054 0 .332-.055.294-.156-.084-.22-.297-.484-.549-.235-.17.169.02.369.21.389.076.008.36-.031.339-.154-.097-.53-.284-1.04-.323-1.579-.016-.21-.085-.372-.138-.572-.076-.282.037-.471-.103-.756-.022-.045-.08-.047-.123-.046-.755.01-1.617.215-2.183-.415-.082-.091-.477.053-.389.152.616.685 1.58.475 2.402.465l-.123-.046c.12.246.028.46.08.705.045.217.144.393.16.624.04.54.227 1.048.323 1.578l.34-.154c-.334-.036.153-.18-.263-.09l-.218-.009c.077.05.111.174.141.253l.294-.156c-.452-.008-1.142-.005-1.305.518-.173.561.35 1.127.441 1.664.02.114.439.02.417-.11M46.716 41.144a29.233 29.233 0 0 0-.727-.927c-.058-.07-.415.052-.355.126.241.294.476.594.705.898.068.09.41-.055.377-.097M40.39 36.464c.389.626 1.092.994 1.87.934.657-.052 1.355-.351 1.62-.948.024-.056-.367-.027-.41.071-.527 1.188-2.109.731-2.664-.162-.057-.091-.447.056-.417.105M33.731 50.194H48.845c.14 0 .436-.548.164-.548H33.895c-.14 0-.437.548-.164.548M33.791 51.482H48.908c.226 0 .318-.547.04-.547H33.832c-.226 0-.318.547-.04.547M33.74 52.771h6.596c.173 0 .421-.547.149-.547h-6.596c-.172 0-.42.547-.148.547"/>
        <path fill="#E5E5E5" d="M37.232 55.629l-25.862 6.63c-1.005.257-2.043-.335-2.307-1.317L.062 27.446c-.264-.981.342-1.995 1.347-2.253l25.862-6.63c1.005-.257 2.044.335 2.307 1.317l9.001 33.496c.264.981-.342 1.995-1.347 2.253"/>
        <path fill="#FFF" d="M38.105 56.273l-25.862 6.63c-1.005.257-2.043-.335-2.307-1.317L.935 28.091c-.264-.982.343-1.996 1.348-2.254l25.862-6.629c1.005-.258 2.043.335 2.307 1.316l9 33.496c.264.982-.342 1.996-1.347 2.253"/>
        <path fill="#6A79A8" d="M37.893 55.999l-3.615.934-8.107 2.096-8.65 2.236-5.12 1.324c-.085.021-.17.046-.255.065-.936.215-1.802-.378-2.059-1.26-.09-.31-.167-.626-.25-.938a127412.763 127412.763 0 0 1-3.644-13.674l-2.336-8.77-1.893-7.101c-.276-1.04-.58-2.075-.831-3.12-.215-.893.25-1.825 1.169-2.089.09-.026.182-.047.273-.07l1.884-.488a915035.677 915035.677 0 0 0 22.626-5.849c.372-.096.755-.232 1.138-.284.882-.118 1.65.49 1.885 1.3.03.101.055.204.082.307l1.166 4.376 2.07 7.77c.79 2.96 1.578 5.921 2.367 8.881l2.049 7.69 1.146 4.303c.024.09.05.18.072.27.217.896-.248 1.822-1.167 2.09-.25.073-.182.335.07.262 1.187-.347 1.777-1.442 1.472-2.6-.124-.472-.251-.943-.377-1.415l-1.65-6.193-2.315-8.689-2.35-8.82a11359.7 11359.7 0 0 1-2.154-8.085c-.228-.852-.759-1.558-1.704-1.715-.564-.093-1.108.094-1.647.233l-2.498.646-8.157 2.109-8.84 2.285-5.266 1.362C1.442 25.645.572 26.4.66 27.547c.028.351.155.708.245 1.047l1.39 5.219 2.223 8.34 2.393 8.98 1.933 7.253c.277 1.042.529 2.093.833 3.128.346 1.178 1.533 1.656 2.676 1.366.565-.143 1.13-.292 1.695-.438l7.342-1.898 9.104-2.354 6.506-1.682.962-.248c.253-.066.183-.327-.07-.261"/>
        <path fill="#6A79A8" d="M16.152 55.43l5.112-1.447 8.144-2.305 1.863-.527c.25-.071.203-.272-.05-.2l-5.112 1.446-8.144 2.306-1.863.527c-.25.07-.203.272.05.2M16.39 56.508l5.107-1.42 8.135-2.263 1.861-.518c.259-.072.187-.359-.072-.286l-5.108 1.42-8.135 2.263-1.861.517c-.259.072-.187.36.072.287M16.812 57.369l6.39-1.486c.248-.058.184-.27-.063-.213l-6.391 1.486c-.247.058-.184.27.064.213"/>
        <path fill="#F9AB98" d="M34.275 47.668c-3.694-6.124-8.492-11.471-12.677-7.74-2.32 2.068-3.196 6.53-3.26 11.866l15.937-4.126"/>
        <path fill="#FFF" d="M19.505 45.439c.323.245.65.42.987.628.412.256.768.686 1.124 1.014.761.7 1.53 1.393 2.283 2.102l.97.893 2.08-.542c.133-1.275.478-2.542.93-3.732.221-.581.275-1.125.583-1.666.28-.49.513-.958.86-1.403.094-.122.194-.278.13-.417a.425.425 0 0 0-.097-.121c-.544-.533-1.043-1.086-1.616-1.59a8.986 8.986 0 0 0-1.286-.858c-1.786-.963-3.699-.834-5.23.538-.652.585-1.148 1.324-1.528 2.107-.207.426-.48.824-.626 1.278-.075.235-.078.43-.07.67.006.203-.038.422.05.616.091.204.277.347.456.483"/>
        <path fill="#6A79A8" d="M19.707 42.252c-1.14 2.85-1.32 5.96-1.369 9.024-.003.162.371.077.373-.052.05-3.064.23-6.174 1.37-9.024.047-.12-.322-.077-.374.052M34.041 47.478c-1.557-2.906-3.493-5.584-5.966-7.681-.123-.104-.472.083-.305.225 2.452 2.08 4.369 4.751 5.912 7.632.078.145.454 0 .36-.176"/>
        <path fill="#FFF" d="M18.147 35.733c-1.116-4.139-.149-7.972 2.158-8.562 2.308-.59 5.082 2.287 6.197 6.426l.2.741c.619 2.295.849 3.945.798 5.147-.104 2.472-2.666 4.148-2.666 4.148s-3.14-.199-4.43-2.055c-.706-1.016-1.39-2.623-2.058-5.103l-.2-.742"/>
        <path fill="#F9AB98" d="M16.177 31.951a8.662 8.662 0 0 1 1.009-3.432c.533-.963 1.665-1.691 2.707-2.019.934-.293 2.262-.412 3.18.011.886.409 1.74 1.283 2.33 2.034a7.853 7.853 0 0 1 1.665 4.494c.012.275-.016.597-.252.747-.302.193-.704-.046-.925-.325-.43-.546-.584-1.236-.825-1.871-.123-.326-.634-1.593-1.176-1.243-.142.092-.233.247-.38.331-.262.153-.595.034-.878-.077-.284-.11-.636-.2-.87-.008-.218.177-.242.536-.497.657-.333.16-.708-.238-1.072-.165-.362.074-.494.561-.847.669-.223.067-.46-.039-.692-.047-.903-.03-.937 1.156-.985 1.765-.05.637-.028 1.332-.156 1.958-.136.665-.471.581-.748.024-.545-1.096-.668-2.302-.588-3.503"/>
        <path fill="#6A79A8" d="M20.565 41.924c-.59-.738-.98-1.63-1.316-2.502-.421-1.09-.736-2.215-1.038-3.342-.578-2.163-.857-4.618.015-6.749.317-.773.851-1.572 1.674-1.886.784-.299 1.628-.057 2.32.352 1.86 1.1 2.992 3.273 3.634 5.233.401 1.223.71 2.497.947 3.759.212 1.123.409 2.34.206 3.478-.03.165.389.1.415-.047.185-1.034.037-2.133-.138-3.158-.21-1.235-.52-2.458-.867-3.662-.62-2.14-1.782-4.489-3.75-5.734-1.396-.884-3.124-.773-4.19.549-1.439 1.783-1.383 4.515-.994 6.63.258 1.403.678 2.812 1.156 4.157.379 1.068.825 2.186 1.542 3.085.093.116.492-.028.384-.163"/>
        <path fill="#6A79A8" d="M25.977 30.016c-.655-2.289-3.02-3.833-5.463-3.213-2.443.62-3.716 3.09-3.123 5.392.028.11.281.023.338-.006 2.446-1.274 5.192-1.868 7.952-2.015.14-.007.45-.223.17-.208-2.91.156-5.8.782-8.377 2.125l.338-.005c-.53-2.061.472-4.538 2.751-5.106 2.28-.57 4.404 1.086 4.993 3.145.035.124.457.015.42-.11"/>
        <path fill="#E5E5E5" d="M20.387 44.396c.094.1.249.186.366.272 1.39 1.019 3.108 1.394 4.766.89.979-.298 1.779-.956 2.446-1.738.333-.391.636-.809.936-1.228.2-.283.51-.579.562-.943.086-.598-.447-.38-.675-.08-.956 1.254-1.823 3.219-3.53 3.388-1.426.141-2.958-.377-4.176-1.118-.2-.122-.525.035-.675.183-.151.15-.12.27-.02.374"/>
        <path fill="#6A79A8" d="M20.355 43.917c1.44 1.006 3.446 1.739 5.174 1.308 1.958-.489 2.84-2.66 3.92-4.243.127-.186-.305-.179-.403-.036-.5.734-.96 1.496-1.445 2.242-.529.815-1.204 1.534-2.142 1.759-1.588.38-3.455-.356-4.772-1.275-.14-.098-.522.112-.332.245M31.882 43.514c2.235-.453 3.6 1.935 4.372 3.693.072.165.48.035.415-.115-.488-1.113-1.045-2.26-1.984-3.043-.818-.68-1.832-.991-2.867-.781-.258.052-.19.297.064.246M14.175 53.723a13.455 13.455 0 0 1-1.757-4.217c-.035-.156-.445-.042-.409.117.351 1.53.959 2.969 1.787 4.272.079.124.475-.021.38-.172M17.986 47.189c-.572 1.6-.948 3.276-1.39 4.928-.047.172.321.12.365-.042.435-1.627.803-3.28 1.367-4.857.074-.207-.288-.18-.342-.03"/>
        <path fill="#6A79A8" d="M11.855 50.608c.244.075.488.15.733.223.082.025.195-.02.257-.116.055-.083.046-.171-.03-.195l-.733-.222c-.083-.025-.196.02-.258.116-.055.083-.046.171.03.194M11.813 49.867l.429.375c.077.068.198.056.288.017.052-.023.186-.12.108-.189l-.429-.375c-.077-.068-.198-.056-.288-.017-.053.024-.186.121-.108.19"/>
        <path fill="#6A79A8" d="M12.661 52.245a38.758 38.758 0 0 0-1.12-5.52c-.046-.17-.45-.062-.403.107a38.77 38.77 0 0 1 1.12 5.52c.02.167.426.071.403-.107"/>
        <path fill="#F9AB98" d="M15.117 42.32c-.328-.864-1.138-1.517-2.05-1.772-.913-.255-1.91-.138-2.784.222-1.019.42-1.904 1.185-2.346 2.17-.442.985-.401 2.187.201 3.089.602.9 1.783 1.434 2.863 1.2l.098-.214c.847.096 1.772-.244 2.475-.76 1.236-.906 2.08-2.522 1.543-3.934"/>
        <path fill="#FFF" d="M14.3 43.168c-.215-.568-.747-.996-1.347-1.164-.6-.167-1.255-.09-1.83.146-.669.275-1.25.778-1.54 1.424-.291.647-.265 1.435.131 2.027.396.591 1.172.941 1.882.788l.064-.14c.556.062 1.164-.16 1.626-.5.812-.594 1.367-1.655 1.015-2.581"/>
        <path fill="#EA8571" d="M12.626 43.674a.708.708 0 0 0-.465-.438.915.915 0 0 0-.636.06 1.06 1.06 0 0 0-.54.546.873.873 0 0 0 .041.77c.136.224.405.355.652.295l.023-.055c.193.023.405-.063.566-.193.284-.228.479-.633.359-.985"/>
        <path fill="#6A79A8" d="M11.035 47.211c-1.208.235-2.427-.479-2.92-1.581-.503-1.122-.295-2.445.417-3.428.775-1.07 2.104-1.773 3.434-1.776 1.232-.002 2.483.672 2.95 1.846.428 1.073.06 2.262-.613 3.15-.746.981-2.09 1.843-3.374 1.518-1.042-.264-1.549-1.323-1.45-2.329.114-1.143 1.051-2.175 2.262-2.145 1.415.035 2.518 1.777 1.453 2.919-.54.578-1.57.598-1.944-.185-.138-.288-.126-.71.11-.949.194-.198.571-.182.764.024a.65.65 0 0 1 .175.449l.077-.119-.437.29c-.232.153.122.216.257.127.264-.175.598-.256.49-.617-.083-.273-.346-.47-.614-.543-.523-.144-1.082.167-1.263.668-.244.678.266 1.307.913 1.481.624.168 1.31-.066 1.761-.512 1.123-1.112.342-2.882-1.1-3.212-1.365-.31-2.855.58-3.23 1.913-.359 1.278.261 2.724 1.647 2.995 1.48.289 3.02-.621 3.887-1.762.936-1.233 1.198-2.973.063-4.174-1.168-1.235-3.053-1.302-4.547-.67-1.629.69-2.907 2.238-2.77 4.066.131 1.774 1.758 3.137 3.547 2.79.195-.039.338-.288.055-.234"/>
        <path fill="#EA8571" d="M28.418 49.033a17.627 17.627 0 0 1 1.824-5.745c.09-.18.25-.81-.2-.72-.114.022-.296.499-.351.602a18.426 18.426 0 0 0-1.596 4.137 17.785 17.785 0 0 0-.37 1.91l.693-.184M23.167 48.882c.428.389.844.788 1.253 1.194l.904-.227a39.938 39.938 0 0 0-3.476-3.128c-.397-.317-.795-.64-1.215-.93-.328-.225-.663-.42-.967-.677-.241-.204-.457-.335-.637.079a.426.426 0 0 0-.036.155c-.022.604 1.298 1.146 1.696 1.453.855.661 1.682 1.356 2.478 2.08"/>
        <path fill="#6A79A8" d="M28.087 48.65c.245-2.373 1.111-4.594 2.245-6.63.087-.156-.275-.122-.337-.01-1.143 2.052-2.022 4.295-2.269 6.688-.016.157.347.086.361-.048M19.037 45.164c1.992 1.59 4.194 2.942 5.885 4.868.107.121.5-.03.38-.169-1.707-1.944-3.932-3.309-5.942-4.914-.122-.097-.494.078-.323.215M23.147 42.688c.76.575 2.063.284 2.394-.531.023-.056-.346-.023-.38.059-.118.292-.328.527-.694.606-.368.08-.684-.037-.957-.244-.074-.056-.417.07-.363.11M24.372 37.962c.343-.124.775-.31.73.284-.019.256-.313.56-.493.718-.225.196-.527.34-.696.363-.544.073-1.747-.242-1.347-1.005.362-.689.955-.317 1.514-.288a.882.882 0 0 0 .292-.072M20.301 26.333c-.222-.29-.363-.6-.426-.934-.012-.06-.46.01-.445.092.063.334.205.644.427.934.06.08.475-.052.444-.092"/>
        <path fill="#6A79A8" d="M17.96 26.44c1.64-.318 3.067-1.202 3.855-2.45.114-.18-.411-.13-.49-.005-.712 1.128-1.94 1.952-3.434 2.241-.32.062-.25.275.068.213"/>
        <path fill="#6A79A8" d="M17.295 24.739c1.643.815 3.569 1.04 5.421.698.316-.058.25-.263-.065-.205a7.956 7.956 0 0 1-4.938-.7c-.137-.067-.62.106-.418.207M16.576 25.836c-.365-.45-.294-1.064.193-1.396.081-.056.028-.102-.036-.128-.084-.034-.223.03-.29.076-.557.38-.675 1.075-.25 1.599.08.098.475-.037.383-.151M21.093 23.56c.51-.247 1.08-.085 1.417.274.098.104.507-.018.392-.14-.503-.535-1.388-.592-2.08-.257-.245.118.118.196.271.122"/>
        <path fill="#6A79A8" d="M21.533 22.994c.708-.092 1.24.554 1.24 1.264 0 .094.368.03.368-.104-.001-.904-.744-1.447-1.55-1.342-.165.022-.316.216-.058.182M16.582 26.516c-.547-.322-.8-.938-.618-1.52.03-.093-.368-.044-.401.062-.192.607.065 1.256.638 1.593.104.06.452-.093.381-.135"/>
        <circle cx="58.5" cy="5.5" r="5.5" fill="#2496FF"/>
    </g>
</svg>
