<svg width="40" height="40" viewBox="0 0 40 40" fill="none" xmlns="http://www.w3.org/2000/svg">
    <circle cx="20" cy="20" r="20" fill="#E5F1FF"/>
    <path fill-rule="evenodd" clip-rule="evenodd" d="M17.66 12.77c.755 0 1.367.612 1.367 1.367v.912c0 .755-.612 1.367-1.367 1.367h-3.646a1.367 1.367 0 0 1-1.367-1.367v-.912c0-.755.612-1.367 1.367-1.367h3.646zm8.203 10.938c.755 0 1.368.612 1.368 1.367v.912c0 .755-.613 1.367-1.368 1.367h-3.646a1.368 1.368 0 0 1-1.367-1.367v-.912c0-.755.612-1.367 1.367-1.367h3.646z" fill="#377DFF"/>
    <path opacity=".3" fill-rule="evenodd" clip-rule="evenodd" d="M17.66 18.239c.755 0 1.367.612 1.367 1.367v6.38c0 .756-.612 1.368-1.367 1.368h-3.646a1.367 1.367 0 0 1-1.367-1.367v-6.38c0-.756.612-1.368 1.367-1.368h3.646zm8.203-5.47c.755 0 1.368.613 1.368 1.368v6.383c0 .755-.613 1.367-1.368 1.367h-3.646a1.367 1.367 0 0 1-1.367-1.367v-6.383c0-.755.612-1.367 1.367-1.367h3.646z" fill="#377DFF"/>
</svg>
