<svg xmlns="http://www.w3.org/2000/svg" width="208" height="124" viewBox="0 0 208 124">
    <defs>
        <linearGradient id="a" x1="8.382%" x2="56.57%" y1="13.188%" y2="50%">
            <stop offset="0%" stop-color="#CFE49F"/>
            <stop offset="100%" stop-color="#A9D386"/>
        </linearGradient>
        <linearGradient id="b" x1="50%" x2="50%" y1="7.264%" y2="151.058%">
            <stop offset="0%" stop-color="#D0F6FF"/>
            <stop offset="100%" stop-color="#8BE2F7"/>
        </linearGradient>
        <linearGradient id="c" x1="4.766%" y1="37.179%" y2="65.332%">
            <stop offset="0%" stop-color="#6EAE7C"/>
            <stop offset="100%" stop-color="#0F575D"/>
        </linearGradient>
        <linearGradient id="d" x1="36.155%" x2="52.186%" y1="13.138%" y2="50%">
            <stop offset="0%" stop-color="#CFE49F"/>
            <stop offset="100%" stop-color="#A9D386"/>
        </linearGradient>
        <linearGradient id="e" x1="34.115%" x2="64.833%" y1="33.998%" y2="52.403%">
            <stop offset="0%" stop-color="#77D791"/>
            <stop offset="100%" stop-color="#4FA67E"/>
        </linearGradient>
        <linearGradient id="f" x1="50%" x2="50.935%" y1="78.399%" y2="39.309%">
            <stop offset="0%" stop-color="#2B3389"/>
            <stop offset="100%" stop-color="#444FB7"/>
        </linearGradient>
        <linearGradient id="g" x1="50%" x2="50%" y1="7.264%" y2="151.058%">
            <stop offset="0%" stop-color="#D0F6FF"/>
            <stop offset="100%" stop-color="#8BE2F7"/>
        </linearGradient>
        <linearGradient id="h" x1="50%" x2="50%" y1="0%" y2="100%">
            <stop offset="0%" stop-color="#4DBCFA"/>
            <stop offset="100%" stop-color="#1486DB"/>
        </linearGradient>
        <linearGradient id="i" x1="50%" x2="50%" y1="0%" y2="100%">
            <stop offset="0%" stop-color="#FF9485"/>
            <stop offset="100%" stop-color="#FF676E"/>
        </linearGradient>
        <linearGradient id="j" x1="50%" x2="50%" y1="0%" y2="100%">
            <stop offset="0%" stop-color="#4DBCFA"/>
            <stop offset="100%" stop-color="#1486DB"/>
        </linearGradient>
        <linearGradient id="k" x1="82.577%" x2="82.577%" y1="-52.951%" y2="186.665%">
            <stop offset="0%" stop-color="#1533B6"/>
            <stop offset="100%" stop-color="#356BE9"/>
        </linearGradient>
        <linearGradient id="l" x1="50%" x2="50%" y1="-27.364%" y2="100%">
            <stop offset="0%" stop-color="#C0E4FD"/>
            <stop offset="100%" stop-color="#72B9FE"/>
        </linearGradient>
        <linearGradient id="m" x1="50%" x2="50%" y1="-27.364%" y2="100%">
            <stop offset="0%" stop-color="#C0E4FD"/>
            <stop offset="100%" stop-color="#72B9FE"/>
        </linearGradient>
        <linearGradient id="n" x1="50%" x2="50%" y1="0%" y2="100%">
            <stop offset="0%" stop-color="#1D2A78"/>
            <stop offset="100%" stop-color="#12033B"/>
        </linearGradient>
        <linearGradient id="o" x1="50%" x2="50%" y1="0%" y2="100%">
            <stop offset="0%" stop-color="#FF9485"/>
            <stop offset="100%" stop-color="#FF676E"/>
        </linearGradient>
        <linearGradient id="p" x1="50%" x2="50%" y1="0%" y2="100%">
            <stop offset="0%" stop-color="#1D2A78"/>
            <stop offset="100%" stop-color="#12033B"/>
        </linearGradient>
        <linearGradient id="q" x1="50%" x2="50%" y1="0%" y2="100%">
            <stop offset="0%" stop-color="#FF9485"/>
            <stop offset="100%" stop-color="#FF676E"/>
        </linearGradient>
        <linearGradient id="r" x1="82.577%" x2="82.577%" y1="-52.951%" y2="186.665%">
            <stop offset="0%" stop-color="#1533B6"/>
            <stop offset="100%" stop-color="#356BE9"/>
        </linearGradient>
    </defs>
    <g fill="none" fill-rule="nonzero">
        <path fill="url(#a)" d="M26.59 53.146C11.906 53.146 0 41.248 0 26.573S11.905 0 26.59 0c14.687 0 26.591 11.898 26.591 26.573s-11.904 26.573-26.59 26.573zm0-12.582c7.73 0 13.998-6.264 13.998-13.991 0-7.728-6.267-13.991-13.997-13.991-7.73 0-13.998 6.263-13.998 13.99 0 7.728 6.268 13.992 13.998 13.992z" transform="translate(.5)"/>
        <path fill="url(#b)" d="M109.875 9.908h36.835V17.3c0 8.686-7.047 15.727-15.741 15.727H94.134v-7.392c0-8.686 7.048-15.727 15.741-15.727z" transform="translate(.5)"/>
        <path fill="url(#c)" d="M6.218 25.927c3.771-14.643 12.937-19.79 27.496-15.44-1.238 6.622-4.187 11.724-8.845 15.307s-10.875 3.627-18.651.133z" transform="translate(149.729 5.033)"/>
        <path fill="#FFF" d="M167.187 24.427l.516-5.049c.021-.209.334-.177.313.032l-.493 4.828c3.821-2.158 8.595-4.835 14.322-8.032a.157.157 0 0 1 .153.275 4585.08 4585.08 0 0 0-8.551 4.785l4.435 1.057a.157.157 0 1 1-.073.306l-4.767-1.136a2427.74 2427.74 0 0 0-5.6 3.152.148.148 0 0 1-.051.029 1170.63 1170.63 0 0 0-4.971 2.821l4.126 1.506a.157.157 0 1 1-.108.295l-4.356-1.59a.159.159 0 0 1-.018-.007 243.003 243.003 0 0 0-4.765 2.775.157.157 0 0 1-.163-.268c1.606-.975 4.957-2.901 10.051-5.779z"/>
        <path fill="url(#d)" d="M7.917 30.342C.22 17.324 3.059 7.21 16.433 0c3.81 5.557 5.336 11.248 4.579 17.072-.758 5.824-5.123 10.247-13.095 13.27z" transform="translate(149.729 5.033)"/>
        <path fill="#FFF" d="M160.971 22.815l-3.209-3.935c-.132-.162.112-.36.244-.198l3.068 3.762c1.175-4.225 2.656-9.49 4.443-15.797a.157.157 0 0 1 .303.086c-.978 3.453-1.865 6.595-2.66 9.424l3.884-2.385a.157.157 0 0 1 .165.268l-4.175 2.564c-.637 2.267-1.213 4.329-1.73 6.186a.148.148 0 0 1-.015.055c-.583 2.1-1.09 3.935-1.518 5.507l3.984-1.85a.157.157 0 0 1 .132.285l-4.205 1.954a.16.16 0 0 1-.018.007 242.55 242.55 0 0 0-1.405 5.328.157.157 0 0 1-.306-.074c.447-1.824 1.452-5.553 3.018-11.187z"/>
        <path fill="url(#e)" d="M0 35.751c7.436-13.168 17.623-15.769 30.56-7.802-2.912 6.075-7.082 10.24-12.51 12.497-5.427 2.257-11.444.692-18.05-4.695z" transform="translate(149.729 5.033)"/>
        <path fill="#FFF" d="M162.279 37.381l1.806-4.743c.075-.196.369-.085.294.111l-1.727 4.536c4.25-1.096 9.555-2.447 15.915-4.054a.157.157 0 0 1 .077.305c-3.483.88-6.65 1.683-9.5 2.41l4.01 2.168a.157.157 0 1 1-.15.277l-4.31-2.33c-2.283.582-4.359 1.115-6.226 1.596a.148.148 0 0 1-.056.015c-2.112.545-3.956 1.025-5.533 1.44l3.596 2.521a.157.157 0 1 1-.181.258l-3.796-2.662a.159.159 0 0 1-.016-.012 243.126 243.126 0 0 0-5.32 1.449.157.157 0 0 1-.089-.302c1.804-.526 5.54-1.52 11.206-2.983z"/>
        <path fill="#4BC4FC" d="M138.71 123.15h46.95c0-13.033-10.51-23.598-23.475-23.598-12.965 0-23.475 10.565-23.475 23.598z"/>
        <path fill="#CDCBDF" d="M161.979 90.522a.694.694 0 1 1-1.388-.001.694.694 0 0 1 1.388 0zm0-2.774a.694.694 0 1 1-1.388 0 .694.694 0 0 1 1.388 0zm0-2.773a.694.694 0 1 1-1.388 0 .694.694 0 0 1 1.388 0zm0-2.773a.694.694 0 1 1-1.388-.001.694.694 0 0 1 1.388 0zm0-2.774a.694.694 0 1 1-1.388 0 .694.694 0 0 1 1.388 0zm0-2.773a.694.694 0 1 1-1.388 0 .694.694 0 0 1 1.388 0zm2.776 13.867a.694.694 0 1 1-1.388-.001.694.694 0 0 1 1.388 0zm0-2.774a.694.694 0 1 1-1.388 0 .694.694 0 0 1 1.388 0zm0-2.773a.694.694 0 1 1-1.388 0 .694.694 0 0 1 1.388 0zm0-2.773a.694.694 0 1 1-1.388-.001.694.694 0 0 1 1.388 0zm0-2.774a.694.694 0 1 1-1.388 0 .694.694 0 0 1 1.388 0zm0-2.773a.694.694 0 1 1-1.388 0 .694.694 0 0 1 1.388 0zm2.776 13.867a.694.694 0 1 1-1.388-.001.694.694 0 0 1 1.388 0zm0-2.774a.694.694 0 1 1-1.388 0 .694.694 0 0 1 1.388 0zm0-2.773a.694.694 0 1 1-1.388 0 .694.694 0 0 1 1.388 0zm0-2.773a.694.694 0 1 1-1.388-.001.694.694 0 0 1 1.388 0zm0-2.774a.694.694 0 1 1-1.388 0 .694.694 0 0 1 1.388 0zm0-2.773a.694.694 0 1 1-1.388 0 .694.694 0 0 1 1.388 0zm2.776 13.867a.694.694 0 1 1-1.388-.001.694.694 0 0 1 1.388 0zm0-2.774a.694.694 0 1 1-1.388 0 .694.694 0 0 1 1.388 0zm0-2.773a.694.694 0 1 1-1.388 0 .694.694 0 0 1 1.388 0zm0-2.773a.694.694 0 1 1-1.388-.001.694.694 0 0 1 1.388 0zm0-2.774a.694.694 0 1 1-1.388 0 .694.694 0 0 1 1.388 0zm0-2.773a.694.694 0 1 1-1.388 0 .694.694 0 0 1 1.388 0zm2.776 13.867a.694.694 0 1 1-1.388-.001.694.694 0 0 1 1.388 0zm0-2.774a.694.694 0 1 1-1.388 0 .694.694 0 0 1 1.388 0zm0-2.773a.694.694 0 1 1-1.388 0 .694.694 0 0 1 1.388 0zm0-2.773a.694.694 0 1 1-1.388-.001.694.694 0 0 1 1.388 0zm0-2.774a.694.694 0 1 1-1.388 0 .694.694 0 0 1 1.388 0zm0-2.773a.694.694 0 1 1-1.388 0 .694.694 0 0 1 1.388 0zm2.776 13.867a.694.694 0 1 1-1.388-.001.694.694 0 0 1 1.388 0zm0-2.774a.694.694 0 1 1-1.388 0 .694.694 0 0 1 1.388 0zm0-2.773a.694.694 0 1 1-1.388 0 .694.694 0 0 1 1.388 0zm0-2.773a.694.694 0 1 1-1.388-.001.694.694 0 0 1 1.388 0zm0-2.774a.694.694 0 1 1-1.388 0 .694.694 0 0 1 1.388 0zm0-2.773a.694.694 0 1 1-1.388 0 .694.694 0 0 1 1.388 0z"/>
        <g>
            <path fill="#1056BF" d="M9.787 117.796h157.415a5.35 5.35 0 0 1-5.352 5.347H15.14a5.35 5.35 0 0 1-5.353-5.347z"/>
            <path fill="url(#f)" d="M11.019 0h135.376a3.147 3.147 0 0 1 3.149 3.145v91.217H7.87V3.145A3.147 3.147 0 0 1 11.019 0z" transform="translate(9.787 20.917)"/>
            <path fill="#FEF3F4" d="M24.27 27.195h128.135a.63.63 0 0 1 .63.63v8.432a.63.63 0 0 1-.63.629H24.27a.63.63 0 0 1-.63-.63v-8.432a.63.63 0 0 1 .63-.629z"/>
            <path fill="#00ADFF" d="M29.15 34.442a2.36 2.36 0 1 1 2.36-2.359 2.36 2.36 0 0 1-2.36 2.36zm9.444 0a2.36 2.36 0 1 1 2.362-2.359 2.36 2.36 0 0 1-2.362 2.36zm9.445 0a2.36 2.36 0 1 1 2.361-2.359 2.36 2.36 0 0 1-2.36 2.36z"/>
            <path fill="#FFF" d="M24.27 39.777h128.135a.63.63 0 0 1 .63.629v72.514a.63.63 0 0 1-.63.63H24.27a.63.63 0 0 1-.63-.63V40.406a.63.63 0 0 1 .63-.63z"/>
            <path fill="url(#g)" d="M84.689 58.611h52.104v24.742H84.69V58.611zm0-33.448h52.104v23.748H84.69V25.163zm-64.54 0h58.243v23.748H20.15V25.163z" transform="translate(9.787 20.917)"/>
            <path fill="#FFF" d="M105.653 64.638a6.608 6.608 0 0 1-6.612-6.605 6.608 6.608 0 0 1 6.612-6.606 6.608 6.608 0 0 1 6.611 6.606 6.608 6.608 0 0 1-6.611 6.605zm12.908-13.21h14.797v2.83H118.56v-2.83zm0 10.38h14.797v2.83H118.56v-2.83zm0-5.19h14.797v2.83H118.56v-2.83zM118.56 84.718h14.798v2.831H118.56v-2.83zm0 10.38h14.798v2.83H118.56v-2.83zm0-5.19h14.798v2.83H118.56v-2.83zm-12.907 8.071a6.608 6.608 0 0 1-6.612-6.605 6.608 6.608 0 0 1 6.612-6.605 6.608 6.608 0 0 1 6.611 6.605 6.608 6.608 0 0 1-6.611 6.605z"/>
            <path fill="#00ADFF" d="M106.834 56.504a.63.63 0 0 1 .923.856l-1.899 2.044a.63.63 0 0 1-.833.08l-1.318-.964a.629.629 0 1 1 .744-1.016l.865.634 1.518-1.634z"/>
            <path fill="#1E1539" d="M104.03 117.796a3.937 3.937 0 0 1-3.73 2.673H76.847a3.937 3.937 0 0 1-3.73-2.673H9.787v-2.517h157.415v2.517H104.03z"/>
        </g>
        <g>
            <path fill="url(#h)" d="M44.706 0v32.24H6.296V0z" transform="translate(41.743 57.09)"/>
            <path fill="#00ADFF" d="M70.864 57.09v32.24H41.743V57.09z"/>
            <path fill="#FFF" d="M58.743 57.09v10.379h-5.352v-10.38z"/>
        </g>
        <g>
            <path fill="#D64F53" d="M75.587 80.522v34.757H30.88V80.522z"/>
            <path fill="url(#i)" d="M34.631 0v34.757H0V0z" transform="translate(24.112 80.522)"/>
            <path fill="#FFF" d="M42.53 80.522V91.69h-5.667V80.522z"/>
        </g>
        <g>
            <path fill="url(#j)" d="M36.048 0v25.95H5.033V0z" transform="translate(150.83 48.911)"/>
            <path fill="#00ADFF" d="M174.295 48.911v25.95h-23.464V48.91z"/>
            <path fill="#FFF" d="M164.544 48.911v8.314h-4.278v-8.314z"/>
        </g>
        <g>
            <path fill="#211D41" d="M186.879 59.356l3.71-10.097 1.058-1.74-1.059 15.206-3.71 2.962z"/>
            <path fill="#F4B696" d="M196.422 116.537v3.4h-3.404v-3.4z"/>
            <path fill="#021038" d="M196.554 119.683v2.423a.755.755 0 0 1-.755.755h-6.707c-.266 0-.482-.264-.482-.589 0-1.265.962-1.43 2.103-1.834l2.265-.755h3.576z"/>
            <path fill="#F4B696" d="M206.84 116.537v3.4h-3.405v-3.4z"/>
            <path fill="#211D41" d="M192.416 118.61l-1.602-45.204 11.153-.275-5.124 45.479z"/>
            <path fill="#021038" d="M206.971 119.683v2.423a.755.755 0 0 1-.756.755h-6.707c-.265 0-.481-.264-.481-.589 0-1.265.961-1.43 2.103-1.834l2.265-.755h3.576z"/>
            <path fill="url(#k)" d="M31.182 86.18l-8.24-45.203 11.152-.276 1.515 45.48z" transform="translate(171.65 32.43)"/>
            <path fill="url(#l)" d="M23.363 13.03l2.042-.178a6.61 6.61 0 0 1 7.165 6.028l1.87 22.26-15.306 1.339-1.115-16.509s-1.22-2.525-.885-4.973c.251-1.84 2.324-7.625 6.23-7.966z" transform="translate(171.65 32.43)"/>
            <path fill="#F4B696" d="M192.802 46.762c-.586-1.83-1.213-2.795-1.88-2.895-1-.151-1.63-.195-1.749-1.177-.12-.983-.456-1.24-.898-1.33-.442-.09-.91-.617.055-1.547.644-.62.816-1.765.517-3.436 3.733-2.34 6.177-2.14 7.33.598 1.153 2.738 1.003 5.028.355 6.892l.435 1.746c-.29 1.02-.97 1.763-2.039 2.231-1.069.468-1.778.107-2.126-1.082z"/>
            <path fill="#221E41" d="M189.85 62.212l.321-2.238 4.026-6.101 7.067.98-10.475 20.058z"/>
            <path fill="#F4B696" d="M193.624 54.8l5.203 3.157-2.868 4.438a3.78 3.78 0 0 1-3.474 1.715c-5.018-.4-10.07-.672-15.158-.818-.384.247-1.024.409-1.918.485-2.234-.054-3.474-.572-3.72-1.554-.247-.983.711-1.531 2.874-1.644l-.076-.436a.668.668 0 0 1 .613-.781l.472 1.044c.596.28 1.29.391 2.083.336 3.242-.179 7.975-.67 14.2-1.474l1.77-4.469z"/>
            <path fill="url(#m)" d="M22.716 19.908l7.048 2.382-5.44 7.794a3.78 3.78 0 0 1-3.4 1.603 298.957 298.957 0 0 0-15.248-.825l.328-2.55c3.243-.178 7.976-.67 14.2-1.473l2.512-6.931z" transform="translate(171.65 32.43)"/>
            <path fill="#A587FF" d="M205.198 117.61l-.157.015-.111-1.095.156-.016.112 1.095zm-.27-2.66l-.158.015-.111-1.095.157-.016.111 1.095zm-.272-2.66l-.156.015-.112-1.095.157-.016.111 1.096zm-.27-2.66l-.157.016-.112-1.096.157-.016.111 1.096zm-.271-2.66l-.157.016-.112-1.096.157-.015.112 1.095zm-.271-2.66l-.157.016-.111-1.095.156-.016.112 1.095zm-.271-2.66l-.157.016-.111-1.095.156-.016.112 1.095zm-.27-2.66l-.158.016-.111-1.095.157-.016.111 1.095zm-.272-2.66l-.156.016-.112-1.095.157-.016.111 1.095zm-.27-2.66l-.157.016-.112-1.095.157-.016.111 1.095zm-.271-2.66l-.157.017-.112-1.096.157-.016.112 1.096zm-.271-2.66l-.157.017-.111-1.096.156-.016.112 1.096zm-.271-2.66l-.157.017-.111-1.095.156-.016.112 1.095zm-.27-2.659l-.157.016-.112-1.095.157-.016.111 1.095zm-.272-2.66l-.156.016-.112-1.095.157-.016.111 1.095zm-.27-2.66l-.157.016-.112-1.095.157-.016.111 1.095zm-.292-2.864l.09.89-.156.016-.09-.89.156-.016zm0 0l.02.204-.156.016-.02-.204.156-.016zm.093 2.47l.157-.015.111 1.095-.156.016-.112-1.095zm.271 2.66l.157-.015.111 1.095-.156.016-.112-1.096zm.27 2.66l.157-.016.112 1.096-.157.016-.111-1.096zm.272 2.66l.156-.016.112 1.096-.157.015-.111-1.095zm.27 2.66l.157-.016.112 1.095-.157.016-.112-1.095zm.271 2.66l.157-.016.111 1.095-.156.016-.112-1.095zm.271 2.66l.157-.016.111 1.095-.156.016-.112-1.095zm.271 2.66l.157-.016.111 1.095-.157.016-.111-1.095zm.27 2.66l.157-.016.112 1.095-.157.016-.111-1.095zm.272 2.66l.156-.016.112 1.095-.157.016-.111-1.096zm.27 2.66l.157-.017.112 1.096-.157.016-.112-1.096zm.271 2.66l.157-.017.111 1.095-.156.016-.112-1.095zm.271 2.659l.157-.016.111 1.095-.156.016-.112-1.095zm.27 2.66l.158-.016.111 1.095-.157.016-.111-1.095zm.272 2.66l.156-.016.112 1.095-.157.016-.111-1.095zm.27 2.66l.157-.016.042.41-.157.015-.041-.41z"/>
            <path fill="url(#n)" d="M17.067 1.521c-.959 2.082-.26 3.28 2.1 3.593 3.537.47 1.412 4.894 3.931 6.002 2.52 1.108-.543 4.085 4.093 4.085 3.091 0 4.928 1.647 5.51 4.939-.098-4.43-1.198-7.438-3.302-9.024-3.155-2.38-1.58-8.055-3.732-9.595C23.514-.019 21.21 0 19.636 0c-1.05 0-1.907.507-2.569 1.521z" transform="translate(171.65 32.43)"/>
        </g>
        <g>
            <path fill="#F4B696" d="M138.139 116.695h3.404v3.399h-3.404z"/>
            <path fill="#021038" d="M138.007 119.84h3.576l2.265.755c1.142.404 2.103.57 2.103 1.834 0 .326-.216.589-.482.589h-6.706a.755.755 0 0 1-.756-.755v-2.423z"/>
            <path fill="#F4B696" d="M127.722 116.695h3.405v3.399h-3.405z"/>
            <path fill="#211D41" d="M142.146 118.767h-4.428l-5.124-45.479 11.153.276zM150.83 56.73v4.058c-1.424.13-2.823.28-4.194.449a3.78 3.78 0 0 1-3.46-1.45l-3.783-4.927 5.768-5.32 1.935 6.725c1.31.17 2.555.324 3.735.464z"/>
            <path fill="#021038" d="M127.59 119.84h3.576l2.265.755c1.142.404 2.103.57 2.103 1.834 0 .326-.215.589-.481.589h-6.707a.755.755 0 0 1-.756-.755v-2.423z"/>
            <path fill="url(#k)" d="M4.428 85.62H0l1.515-45.48 11.153.276z" transform="translate(127.301 33.147)"/>
            <path fill="url(#o)" d="M12.246 12.47c4.437.388 6.432 3.136 5.984 8.243l-1.755 21.205L1.17 40.581l1.87-22.262a6.61 6.61 0 0 1 7.164-6.028l2.043.18z" transform="translate(127.301 33.147)"/>
            <path fill="#F4B696" d="M157.354 67.044c-.806.056-1.845-.43-2.387-.472-1.81-.141-5.508-.39-11.091-.749-.928-.072-2.216-.49-2.925-1.045l-4.849-3.806 3.89-4.677 4.244 4.846c4.643 1.514 8.66 1.846 11.184 2.352.63-.329 1.132-.566 1.507-.712.562-.218 1.229.073 1.544.226.553.27.192.433-1.084.49.807.03 1.363.052 1.667.065.456.019.953.72.652 1.95-.2.82-.985 1.33-2.352 1.532zM141.76 46.92c-.349 1.189-1.058 1.55-2.127 1.081-1.069-.468-1.749-1.211-2.04-2.23l.437-1.747c-.649-1.864-.799-4.154.354-6.892 1.154-2.738 3.597-2.937 7.33-.598-.299 1.671-.127 2.817.517 3.437.966.929.497 1.455.055 1.546-.442.09-.778.347-.898 1.33-.12.983-.748 1.026-1.749 1.177-.667.1-1.293 1.066-1.88 2.895z"/>
            <path fill="url(#p)" d="M10.273 10.835c-.394-.198-.603-.48-.627-.844-.036-.548.303-.765-.64-1.983-.942-1.218-1.637-2.77-.694-5.243.943-2.474 2.493-2.52 4.031-2.49 1.538.032 2.139.274 4.306-.19 2.167-.463 3.078 1.01 2.4 3.041-.678 2.03-3.82 1.62-4.364 1.484-.545-.135-.36.724-.395 1.583-.035.86-.601.986-.788.844-.187-.142-.596-.328-1.033.1-.436.43-.14 1.218.16 1.293.3.075.713.03.69.377-.023.347-.321 1.391-.737 1.915-.277.35-1.047.387-2.309.113z" transform="translate(127.301 33.147)"/>
            <path fill="url(#q)" d="M14.348 24.521l-5.421 4.83c-3.975-4.155-5.196-7.098-3.662-8.83 2.3-2.598 4.275-1.351 5.711.153.957 1.003 2.081 2.285 3.372 3.847z" transform="translate(127.301 33.147)"/>
            <path fill="#A587FF" d="M129.699 117.642l-.157-.018.122-1.094.156.018-.121 1.094zm.295-2.658l-.157-.017.121-1.094.157.017-.121 1.094zm.294-2.657l-.156-.017.121-1.094.157.017-.122 1.094zm.295-2.657l-.156-.018.121-1.094.157.018-.122 1.094zm.295-2.657l-.156-.018.121-1.094.157.017-.122 1.095zm.295-2.658l-.156-.017.121-1.094.156.017-.121 1.094zm.295-2.657l-.157-.017.122-1.095.156.018-.121 1.094zm.295-2.657l-.157-.018.122-1.094.156.017-.121 1.095zm.295-2.658l-.157-.017.122-1.094.156.017-.121 1.094zm.294-2.657l-.156-.017.121-1.095.157.018-.122 1.094zm.295-2.657l-.156-.018.121-1.094.157.017-.122 1.095zm.295-2.658l-.156-.017.121-1.094.157.017-.122 1.094zm.295-2.657l-.156-.017.121-1.095.156.018-.12 1.094zm.295-2.657l-.157-.018.122-1.094.156.017-.121 1.095zm.295-2.658l-.157-.017.122-1.094.156.017-.121 1.094zm.356-3.206l-.061.549-.157-.017.061-.55.157.018zm-.39 2.09l.156.018-.122 1.094-.156-.018.121-1.094zm-.296 2.658l.157.017-.122 1.094-.156-.017.121-1.094zm-.294 2.657l.156.017-.121 1.094-.157-.017.122-1.094zm-.295 2.657l.156.018-.121 1.094-.157-.018.122-1.094zm-.295 2.658l.156.017-.121 1.094-.157-.017.122-1.094zm-.295 2.657l.156.017-.121 1.094-.156-.017.12-1.094zm-.295 2.657l.157.017-.122 1.095-.156-.018.121-1.094zm-.295 2.657l.157.018-.122 1.094-.156-.017.121-1.095zm-.295 2.658l.157.017-.122 1.094-.156-.017.121-1.094zm-.295 2.657l.157.017-.122 1.095-.156-.018.121-1.094zm-.294 2.657l.156.018-.121 1.094-.157-.017.122-1.095zm-.295 2.658l.156.017-.121 1.094-.157-.017.122-1.094zm-.295 2.657l.156.017-.121 1.095-.157-.018.122-1.094zm-.295 2.657l.156.018-.121 1.094-.156-.017.121-1.095zm-.295 2.658l.157.017-.122 1.094-.156-.017.121-1.094z"/>
        </g>
        <g>
            <path fill="url(#r)" d="M36.048 0v25.95H5.033V0z" transform="translate(75.587 89.33)"/>
            <path fill="#0737A3" d="M99.051 89.33v25.95H75.587V89.33z"/>
            <path fill="#FFF" d="M89.3 89.33v8.314h-4.278V89.33z"/>
        </g>
    </g>
</svg>
