<svg width="475" height="318" viewBox="0 0 475 318" fill="none" xmlns="http://www.w3.org/2000/svg">
    <path fill-rule="evenodd" clip-rule="evenodd" d="m119.648 285.143-62.47 13.977 360.606-9.465-57.552-14.03-240.584 9.518z" fill="url(#kr1hh29hsa)"/>
    <path fill-rule="evenodd" clip-rule="evenodd" d="m57.177 299.12 4.908 6.973 349.462-5.825 6.237-10.613-360.607 9.465z" fill="url(#5ah6s7fpob)"/>
    <path fill-rule="evenodd" clip-rule="evenodd" d="m362.269 301.092 4.563-9.943 24.35-.711-4.614 9.938-24.299.716z" fill="#540041" style="mix-blend-mode:multiply" opacity=".3"/>
    <path fill-rule="evenodd" clip-rule="evenodd" d="m106.839 30.976 5.816 82.539 245.69 3.323 4.525-86.653-256.031.791z" fill="url(#3to6rv7doc)"/>
    <path fill-rule="evenodd" clip-rule="evenodd" d="M106.839 30.976 113 78.464l247.094-4.953-1.205 32.913-246.782-.725-5.268-74.723z" fill="#B01734" style="mix-blend-mode:multiply" opacity=".2"/>
    <path fill-rule="evenodd" clip-rule="evenodd" d="m124.306 276.422-7.277-171.401 236.46-.753-7.745 173.03-221.438-.876z" fill="url(#hmoldy1x0d)"/>
    <path fill-rule="evenodd" clip-rule="evenodd" d="m118.906 274.654.861 8.181h228.559l.596-8.859-88.926 2.446-141.09-1.768z" fill="url(#ttssxyte7e)"/>
    <path fill-rule="evenodd" clip-rule="evenodd" d="m126.406 259.552 29.022-1.132-.019 10.205h-28.97l-.033-9.073zM245.437 249.964l29.027-1.133-.024 10.21h-28.97l-.033-9.077zM174.645 270.005l29.022-1.129-.014 6.839-28.989-.365-.019-5.345zM309.989 201.021l29.022-1.133-.023 10.21h-28.966l-.033-9.077zM261.739 155.258l29.023-1.133-.024 10.209h-28.97l-.029-9.076zM135.758 249.344l29.027-1.134-.024 10.21h-28.97l-.033-9.076z" fill="#FF9F57" style="mix-blend-mode:soft-light"/>
    <path fill-rule="evenodd" clip-rule="evenodd" d="m132.851 215.122 29.021-1.133-.022 10.21h-28.971l-.028-9.077zM229.497 260.885l25.845-1.01-.019 9.086h-25.798l-.028-8.076zM142.643 153.628l25.845-1.01-.019 9.09h-25.798l-.028-8.08zM247.03 167.142l25.841-1.01-.019 9.091h-25.793l-.029-8.081zM322.14 212.444l26.555-1.033-.728 9.114h-25.798l-.029-8.081zM274.464 166.691l26.549-1.039-.727 9.12h-25.793l-.029-8.081z" fill="#811734" style="mix-blend-mode:multiply" opacity=".2"/>
    <path fill-rule="evenodd" clip-rule="evenodd" d="m126.916 204.993 31.836.322v8.38l-31.836.294v-8.996z" fill="#FFBF57" style="mix-blend-mode:soft-light"/>
    <path fill-rule="evenodd" clip-rule="evenodd" d="m133.588 169.326-24.044-48.882h7.48l19.873 48.882s-1.778 2-3.314 0h.005z" fill="url(#tmjiowluhf)"/>
    <path fill-rule="evenodd" clip-rule="evenodd" d="m333.97 169.326 24.044-48.882h-7.48l-19.873 48.882s1.777 2 3.314 0h-.005z" fill="url(#8map7tf0ng)"/>
    <path fill-rule="evenodd" clip-rule="evenodd" d="m146.562 258.885-2.023-94.897h95.144l-2.199 93.787-90.922 1.11z" fill="#FFD1B3"/>
    <path fill-rule="evenodd" clip-rule="evenodd" d="m150.444 253.937 82.591-.869 1.91-84.372-85.678.038 1.177 85.203z" fill="url(#11q04dfvxh)"/>
    <path fill-rule="evenodd" clip-rule="evenodd" d="M239.683 163.988h1.555l-1.555 93.787h-2.199l2.199-93.787zM150.444 253.937l-1.177-85.203 2.062-.038v85.241h-.885z" fill="#FF8D90"/>
    <path fill-rule="evenodd" clip-rule="evenodd" d="m259.953 282.333.704-98.873 63.843.863-4.758 98.511-59.789-.501z" fill="#FFD1B3"/>
    <path fill-rule="evenodd" clip-rule="evenodd" d="m264.393 282.834 1.702-93.961h53.482l-4.17 93.961h-51.014z" fill="url(#i0na39hc6i)"/>
    <path fill-rule="evenodd" clip-rule="evenodd" d="M319.577 188.873h-2.288l-3.704 93.942 1.822.019 4.17-93.961z" fill="#FF8D90"/>
    <path fill-rule="evenodd" clip-rule="evenodd" d="M270.506 263.861v-70.31h43.122l-3.711 70.31h-39.411z" fill="url(#0dgy716x6j)"/>
    <path fill-rule="evenodd" clip-rule="evenodd" d="m350.046 181.161 2.303-51.488-233.996 6.555 1.621 38.216 230.072 6.717z" fill="#811734" style="mix-blend-mode:multiply" opacity=".5"/>
    <path fill-rule="evenodd" clip-rule="evenodd" d="m121.578 98.433-1.811-10.39h230.171l-2.908 9.072-225.452 1.318z" fill="url(#jervtpkzdk)"/>
    <path fill-rule="evenodd" clip-rule="evenodd" d="M111.521 150.338c-6.804 0-12.852-5.659-13.504-12.636l-1.849-19.779h25.216l1.504 19.779c.529 6.982-4.558 12.636-11.362 12.636h-.005z" fill="url(#cweh70d6yl)"/>
    <path fill-rule="evenodd" clip-rule="evenodd" d="M136.17 150.338c-6.804 0-12.753-5.659-13.282-12.636l-1.504-19.779H146.6l1.154 19.779c.407 6.982-4.78 12.636-11.584 12.636z" fill="url(#3y8x36cx7m)"/>
    <path fill-rule="evenodd" clip-rule="evenodd" d="M160.814 150.338c-6.804 0-12.653-5.659-13.06-12.636l-1.153-19.779h25.216l.808 19.779c.284 6.982-5.002 12.636-11.806 12.636h-.005z" fill="url(#hi0nynl6wn)"/>
    <path fill-rule="evenodd" clip-rule="evenodd" d="M185.462 150.338c-6.804 0-12.553-5.659-12.837-12.636l-.808-19.779h25.215l.46 19.779c.161 6.982-5.225 12.636-12.03 12.636z" fill="url(#lxuo59jroo)"/>
    <path fill-rule="evenodd" clip-rule="evenodd" d="M210.107 150.338c-6.804 0-12.455-5.659-12.615-12.636l-.46-19.779h25.217l.114 19.779c.036 6.982-5.449 12.636-12.251 12.636h-.005z" fill="url(#yoicee4fnp)"/>
    <path fill-rule="evenodd" clip-rule="evenodd" d="M234.75 150.338c-6.804 0-12.354-5.659-12.392-12.636l-.114-19.779h25.217l-.236 19.779c-.086 6.982-5.67 12.636-12.475 12.636z" fill="url(#goljj7skcq)"/>
    <path fill-rule="evenodd" clip-rule="evenodd" d="M259.4 150.338c-6.804 0-12.256-5.659-12.17-12.636l.236-19.779h25.216l-.583 19.779c-.202 6.982-5.89 12.636-12.694 12.636h-.005z" fill="url(#rl5g659grr)"/>
    <path fill-rule="evenodd" clip-rule="evenodd" d="M284.045 150.338c-6.804 0-12.158-5.659-11.949-12.636l.582-19.779h25.216l-.933 19.779c-.326 6.982-6.113 12.636-12.916 12.636z" fill="url(#vffnjb1tts)"/>
    <path fill-rule="evenodd" clip-rule="evenodd" d="M308.693 150.338c-6.804 0-12.058-5.659-11.727-12.636l.931-19.779h25.217l-1.277 19.779c-.448 6.982-6.335 12.636-13.139 12.636h-.005z" fill="url(#25cg9vl66t)"/>
    <path fill-rule="evenodd" clip-rule="evenodd" d="M333.336 150.338c-6.804 0-11.958-5.659-11.508-12.636l1.277-19.779h25.216l-1.626 19.779c-.574 6.982-6.554 12.636-13.363 12.636h.004z" fill="url(#sgg3vucx5u)"/>
    <path fill-rule="evenodd" clip-rule="evenodd" d="M357.981 150.338c-6.804 0-11.858-5.659-11.287-12.636l1.627-19.779h25.217l-1.972 19.779c-.695 6.982-6.776 12.636-13.585 12.636z" fill="url(#xv18xtsyav)"/>
    <path fill-rule="evenodd" clip-rule="evenodd" d="m121.578 98.433-25.41 19.49c102.638 5.844 172.144 6.09 277.37 0L347.03 97.115l-225.452 1.318z" fill="url(#no3auaaruw)"/>
    <path fill-rule="evenodd" clip-rule="evenodd" d="m121.488 119.283 18.488-20.874 15.59-.175-8.965 22.206-25.113-1.157z" fill="url(#8t5fo2bgtx)"/>
    <path fill-rule="evenodd" clip-rule="evenodd" d="m121.488 119.283 18.488-20.874 15.59-.175-8.965 22.206-25.113-1.157z" fill="url(#73sf81dody)"/>
    <path fill-rule="evenodd" clip-rule="evenodd" d="m171.954 121.374 5.277-23.287 21.575-.104-2.141 24.026-24.711-.635z" fill="url(#89fjenobvz)"/>
    <path fill-rule="evenodd" clip-rule="evenodd" d="m171.954 121.374 5.277-23.287 21.575-.104-2.141 24.026-24.711-.635z" fill="url(#e4xnlxyguA)"/>
    <path fill-rule="evenodd" clip-rule="evenodd" d="m222.391 122.397-.79-24.282 23.438-.109 2.186 24.391h-24.834z" fill="url(#2sxp79nsbB)"/>
    <path fill-rule="evenodd" clip-rule="evenodd" d="m222.391 122.397-.79-24.282 23.438-.109 2.186 24.391h-24.834z" fill="url(#d6eow0duqC)"/>
    <path fill-rule="evenodd" clip-rule="evenodd" d="m272.554 122.033-6.023-24.448 21.026-.124 10.364 23.927-25.367.645z" fill="url(#nbxry1lmxD)"/>
    <path fill-rule="evenodd" clip-rule="evenodd" d="m272.554 122.033-6.023-24.448 21.026-.124 10.364 23.927-25.367.645z" fill="url(#u0o9hjc15E)"/>
    <path fill-rule="evenodd" clip-rule="evenodd" d="m323.109 120.463-10-23.149 18.276-.199 16.827 22.187-25.103 1.161z" fill="url(#7o7gsm8z9F)"/>
    <path fill-rule="evenodd" clip-rule="evenodd" d="m323.109 120.463-10-23.149 18.276-.199 16.827 22.187-25.103 1.161z" fill="url(#whcvhpetxG)"/>
    <path fill-rule="evenodd" clip-rule="evenodd" d="m140.331 257.775.193 3.636h99.585v-4.858l-99.778 1.222z" fill="#FFDEC8"/>
    <path fill-rule="evenodd" clip-rule="evenodd" d="m146.6 261.411 3.669 7.551 85.082-.086 4.01-7.465H146.6z" fill="#811734" style="mix-blend-mode:multiply" opacity=".5"/>
    <path fill-rule="evenodd" clip-rule="evenodd" d="m240.108 256.553 3.04.568-.027 4.29h-3.013v-4.858z" fill="#FF8D90"/>
    <path style="mix-blend-mode:screen" fill-rule="evenodd" clip-rule="evenodd" d="m162.723 181.161 3.76 47.545h17.481l1.129 18.448h3.466l-1.522-14.258h20.534l.96 14.258h4.044l.576-23.335 20.63-3.839 1.074-39.341-72.132.522z" fill="url(#wlwi0s9inH)"/>
    <path style="mix-blend-mode:screen" fill-rule="evenodd" clip-rule="evenodd" d="m274.464 195.707 1.787 34.999h8.738v14.343h3.57l-.819-9.755h9.586l-.1 9.755h8.181l4.58 6.441 2.091-56.631-37.614.848z" fill="url(#ja86h7kzfI)"/>
    <path fill-rule="evenodd" clip-rule="evenodd" d="m158.752 213.695 4.818 22.523 48.333-4.621 2.1-23.579-55.251 5.677z" fill="#816090" style="mix-blend-mode:multiply" opacity=".5"/>
    <path fill-rule="evenodd" clip-rule="evenodd" d="m158.752 213.695 55.251-5.677 2.089 21.205-54.218 5.167-3.122-20.695z" fill="url(#let7pjpc7J)"/>
    <path fill-rule="evenodd" clip-rule="evenodd" d="m214.003 208.016-19.641-11.578-35.61 17.257 1.991-.241 33.562-16.286 18.563 10.962 1.135-.114z" fill="url(#fgpgnh8dtK)"/>
    <path d="M172.445 220.052a4.183 4.183 0 0 1 1.357-1.664 3.968 3.968 0 0 1 2-.759 3.92 3.92 0 0 1 2.104.375 4.263 4.263 0 0 1 1.655 1.379c.436.602.686 1.27.757 1.999a3.962 3.962 0 0 1-.369 2.12 4.235 4.235 0 0 1-1.372 1.644 3.964 3.964 0 0 1-1.998.745 3.997 3.997 0 0 1-2.115-.36 4.157 4.157 0 0 1-1.636-1.361 4.021 4.021 0 0 1-.746-2.015 4.03 4.03 0 0 1 .363-2.103zm1.736 3.213c.259.375.59.659.997.853.407.193.841.27 1.31.222a2.302 2.302 0 0 0 1.206-.459c.35-.265.614-.602.79-1.014.174-.413.241-.853.193-1.332a2.677 2.677 0 0 0-.45-1.285 2.488 2.488 0 0 0-.977-.852 2.407 2.407 0 0 0-1.286-.234 2.39 2.39 0 0 0-1.226.465 2.48 2.48 0 0 0-.803 1.024c-.185.416-.25.863-.204 1.347.043.468.195.89.454 1.265h-.004zM186.337 217.467c.587.437.918 1.077.998 1.921a3.32 3.32 0 0 1-.151 1.383 2.362 2.362 0 0 1-.814 1.124c-.396.313-.927.497-1.589.559l-1.138.11.24 2.559-1.588.148-.757-8.088 2.44-.232c.984-.095 1.773.081 2.359.516zm-1.006 3.163c.169-.153.283-.322.35-.513.06-.189.084-.37.07-.535a1.494 1.494 0 0 0-.327-.806c-.193-.251-.529-.354-1.012-.308l-1.138.109.226 2.437 1.131-.109c.298-.029.534-.12.705-.27l-.005-.005zM194.002 216.008l.141 1.54-3.91.365.161 1.726 3.461-.322.143 1.535-3.463.322.167 1.745 4.065-.379.143 1.535-5.656.532-.755-8.088 5.499-.516.004.005zM203.061 215.161l.785 8.412h-.043L197.685 219l.478 4.772-1.607.152-.786-8.405h.067l6.118 4.651-.488-4.863 1.598-.146h-.004z" fill="#fff"/>
    <path fill-rule="evenodd" clip-rule="evenodd" d="m158.752 88.043 44.915-70.011 178.656-13.11L378.03 64.6 272.091 88.043H158.752z" fill="url(#24mr0e3btL)"/>
    <path fill-rule="evenodd" clip-rule="evenodd" d="m378.03 64.6-17.936 13.073V73.51l-75.105 14.532H272.09l105.94-23.442z" fill="url(#ebxkk4balM)"/>
    <path fill-rule="evenodd" clip-rule="evenodd" d="M272.091 88.043 171.16 68.7l-12.408 19.343h113.339zM203.667 18.032l68.425 70.011-84.672-44.691 16.247-25.32z" fill="#FFB657" style="mix-blend-mode:soft-light"/>
    <path fill-rule="evenodd" clip-rule="evenodd" d="m239.361 15.41 32.729 72.633-5.56-74.623-27.169 1.99zM304.697 10.619 272.09 88.043l62.973-79.652-30.366 2.228zM382.322 4.921 272.09 88.043 378.03 46.48l4.292-41.559z" fill="#FFB657" style="mix-blend-mode:soft-light"/>
    <path d="M245.139 57.52c0 1.317-.138 2.478-.412 3.469-.274.995-.634 1.844-1.074 2.555-.443.71-.936 1.294-1.489 1.753a7.738 7.738 0 0 1-3.338 1.654 6.823 6.823 0 0 1-1.361.162c-.2 0-.474-.015-.824-.038-.35-.024-.752-.08-1.2-.161-.45-.086-.946-.204-1.486-.365a11.89 11.89 0 0 1-1.71-.664l.274-6.313c.983.834 1.862 1.393 2.638 1.678.775.284 1.427.426 1.963.426 1.029 0 1.81-.374 2.334-1.128.526-.754.786-1.73.786-2.93 0-.8-.193-1.7-.586-2.691-.393-.996-1.088-2.067-2.091-3.219a359.827 359.827 0 0 1-2.122-2.507 22.139 22.139 0 0 1-2.001-2.782 15.827 15.827 0 0 1-1.474-3.18c-.383-1.138-.578-2.366-.578-3.683 0-1.669.228-3.115.686-4.337.459-1.218 1.073-2.233 1.84-3.034a7.37 7.37 0 0 1 2.637-1.792 8.366 8.366 0 0 1 3.112-.587c.951 0 1.92.128 2.913.388.993.261 1.986.654 2.987 1.19l-.472 6.313c-.435-.55-.888-.99-1.362-1.317a6.425 6.425 0 0 0-1.376-.74 5.769 5.769 0 0 0-1.225-.327 6.923 6.923 0 0 0-.936-.076c-.481 0-.931.124-1.338.365-.407.242-.76.57-1.05.977a4.9 4.9 0 0 0-.684 1.455 6.14 6.14 0 0 0-.252 1.768c0 .953.204 1.81.614 2.578.407.768.924 1.527 1.538 2.28.62.754 1.282 1.526 1.986 2.318a18.89 18.89 0 0 1 1.985 2.683c.615.995 1.131 2.128 1.538 3.408.405 1.28.615 2.758.615 4.445l-.005.005zM260.336 35.64a53.698 53.698 0 0 0-1.84-.075c-.691-.015-1.427-.024-2.213-.024a164.238 164.238 0 0 0-.288 4.825 319.913 319.913 0 0 0-.189 5.062c-.047 1.711-.08 3.432-.099 5.162a465.467 465.467 0 0 0 .014 10.697c.024 1.797.081 3.532.165 5.2h-5.324c.151-2.84.265-5.863.35-9.072.081-3.209.122-6.441.122-9.698 0-2.123-.024-4.194-.074-6.213-.053-2.02-.1-3.991-.152-5.916-.799 0-1.56.01-2.275.024a61.98 61.98 0 0 0-1.924.076l.052-5.238c.6.052 1.277.09 2.024.114a215.194 215.194 0 0 0 4.904.1c.865.01 1.715.014 2.548.014h2.359c.743 0 1.405-.02 1.986-.052l-.151 5.01.005.004zM279.387 48.85c0 3.356-.233 6.204-.686 8.546-.459 2.341-1.078 4.237-1.864 5.702-.784 1.46-1.706 2.521-2.775 3.18-1.069.66-2.208.99-3.423.99a6.649 6.649 0 0 1-3.424-.938c-1.068-.625-1.999-1.659-2.799-3.095-.8-1.436-1.428-3.332-1.886-5.687-.459-2.356-.691-5.252-.691-8.693s.232-6.394.691-8.807c.458-2.412 1.086-4.375 1.886-5.887.8-1.511 1.736-2.607 2.799-3.28 1.064-.677 2.208-1.014 3.424-1.014 1.215 0 2.359.332 3.423.99 1.069.66 1.991 1.74 2.775 3.248.781 1.502 1.405 3.46 1.864 5.877.458 2.412.686 5.375.686 8.882v-.014zm-5.575 0c0-2.621-.086-4.835-.25-6.64-.167-1.806-.398-3.27-.686-4.399-.293-1.128-.629-1.943-1.012-2.441-.384-.502-.791-.754-1.225-.754-.435 0-.871.257-1.262.764-.393.507-.733 1.327-1.026 2.455-.293 1.128-.521 2.597-.686 4.408-.167 1.81-.25 4.014-.25 6.602s.083 4.73.25 6.475c.165 1.744.397 3.147.686 4.209.293 1.061.633 1.815 1.026 2.27.391.45.812.678 1.262.678.449 0 .841-.237 1.225-.716.383-.474.719-1.251 1.012-2.332.293-1.076.519-2.483.686-4.223.164-1.74.25-3.858.25-6.366v.01zM296.735 41.129c0 1.118-.105 2.242-.312 3.37a14.317 14.317 0 0 1-1.012 3.256 13.39 13.39 0 0 1-1.798 2.929c-.732.91-1.636 1.716-2.699 2.417a75.46 75.46 0 0 0 3.087 6.878 60.77 60.77 0 0 0 3.76 6.351l-6.246.35-4.252-12.1c.067 2.038.153 4.058.251 6.062.1 2.005.223 3.987.374 5.94h-6.1c.265-3.792.464-7.584.586-11.376.128-3.792.19-7.608.19-11.452 0-2.222-.014-4.44-.052-6.654-.033-2.214-.1-4.446-.2-6.702.886-.266 1.779-.441 2.687-.526a25.343 25.343 0 0 1 2.312-.128c.45 0 .998.047 1.636.137.643.09 1.315.28 2.015.564a9.587 9.587 0 0 1 2.089 1.204c.69.517 1.305 1.2 1.848 2.043.54.844.984 1.872 1.324 3.08.341 1.214.512 2.66.512 4.347v.01zm-9.524 9.394a4.73 4.73 0 0 0 1.538-.74 6.37 6.37 0 0 0 1.163-1.113c.331-.417.614-.863.836-1.327.228-.47.412-.934.564-1.403.331-1.086.524-2.27.576-3.56 0-.033-.004-.237-.014-.616a12.66 12.66 0 0 0-.138-1.417 21.066 21.066 0 0 0-.364-1.854 9.402 9.402 0 0 0-.686-1.943 6.408 6.408 0 0 0-1.148-1.668 3.913 3.913 0 0 0-1.703-1.029 229.313 229.313 0 0 0-.462 7.83c-.11 2.598-.167 5.214-.167 7.854v.977l.005.009zM309.582 52.983a54.78 54.78 0 0 0-1.576-.075 60.219 60.219 0 0 0-1.598-.024c-.303 0-.615.01-.937.023-.326.02-.647.024-.964.024l-.098 8.944c1.365-.033 2.694-.1 3.985-.199 1.291-.1 2.662-.256 4.113-.474v5.238c-.936-.034-1.839-.057-2.713-.076-.874-.014-1.746-.024-2.615-.024-1.3 0-2.582.019-3.849.062-1.267.042-2.572.104-3.925.19.152-3.105.27-6.186.365-9.234.09-3.047.137-6.128.137-9.233 0-3.105-.038-5.925-.114-8.859-.076-2.929-.202-5.882-.388-8.858 1.967.151 3.84.222 5.623.222 1.134 0 2.265-.028 3.385-.085 1.126-.057 2.331-.137 3.612-.237v5.764a39.148 39.148 0 0 0-3.064-.427 30.63 30.63 0 0 0-3.011-.152h-.974c-.167 2.09-.279 4.167-.336 6.238a533.845 533.845 0 0 0-.138 6.238c.436.033.871.052 1.315.052h2.539c.402 0 .809-.02 1.226-.052V52.983z" fill="#FFFF92"/>
    <path fill-rule="evenodd" clip-rule="evenodd" d="m129.124 284.768-14.071 7.405 233.273-9.339H181.468l-52.344 1.934z" fill="#AC2A41" style="mix-blend-mode:multiply" opacity=".5"/>
    <defs>
        <radialGradient id="kr1hh29hsa" cx="0" cy="0" r="1" gradientUnits="userSpaceOnUse" gradientTransform="rotate(-1.674 9945.342 -7939.976) scale(127.428 115.077)">
            <stop stop-color="#7C65E0"/>
            <stop offset=".99" stop-color="#954CB8"/>
        </radialGradient>
        <radialGradient id="ttssxyte7e" cx="0" cy="0" r="1" gradientUnits="userSpaceOnUse" gradientTransform="matrix(81.3843 0 0 81.5814 233.914 278.408)">
            <stop stop-color="#FFD1A9"/>
            <stop offset=".99" stop-color="#F9B7A0"/>
        </radialGradient>
        <radialGradient id="tmjiowluhf" cx="0" cy="0" r="1" gradientUnits="userSpaceOnUse" gradientTransform="matrix(20.0434 0 0 20.092 123.223 145.328)">
            <stop stop-color="#EBD7E3"/>
            <stop offset=".98" stop-color="#BDAFD2"/>
        </radialGradient>
        <radialGradient id="8map7tf0ng" cx="0" cy="0" r="1" gradientUnits="userSpaceOnUse" gradientTransform="matrix(-20.0434 0 0 -20.092 344.335 145.328)">
            <stop stop-color="#EBD7E3"/>
            <stop offset=".98" stop-color="#BDAFD2"/>
        </radialGradient>
        <radialGradient id="11q04dfvxh" cx="0" cy="0" r="1" gradientUnits="userSpaceOnUse" gradientTransform="matrix(72.878 0 0 73.0544 190.168 249.879)">
            <stop stop-color="#0FF"/>
            <stop offset=".99" stop-color="#26A9FF"/>
        </radialGradient>
        <radialGradient id="0dgy716x6j" cx="0" cy="0" r="1" gradientUnits="userSpaceOnUse" gradientTransform="matrix(43.9547 0 0 44.0612 291.557 251.537)">
            <stop stop-color="#0FF"/>
            <stop offset=".99" stop-color="#26A9FF"/>
        </radialGradient>
        <radialGradient id="jervtpkzdk" cx="0" cy="0" r="1" gradientUnits="userSpaceOnUse" gradientTransform="matrix(81.46 0 0 81.6573 234.855 93.238)">
            <stop stop-color="#6D47D3"/>
            <stop offset=".99" stop-color="#713592"/>
        </radialGradient>
        <radialGradient id="cweh70d6yl" cx="0" cy="0" r="1" gradientUnits="userSpaceOnUse" gradientTransform="matrix(19.1082 0 0 24.3114 109.623 151.122)">
            <stop stop-color="#6D47D3"/>
            <stop offset=".99" stop-color="#713592"/>
        </radialGradient>
        <radialGradient id="3y8x36cx7m" cx="0" cy="0" r="1" gradientUnits="userSpaceOnUse" gradientTransform="matrix(18.8537 0 0 23.9875 134.661 151.122)">
            <stop stop-color="#FFD1A9"/>
            <stop offset=".99" stop-color="#F99B98"/>
        </radialGradient>
        <radialGradient id="hi0nynl6wn" cx="0" cy="0" r="1" gradientUnits="userSpaceOnUse" gradientTransform="matrix(18.5991 0 0 23.6638 159.704 151.122)">
            <stop stop-color="#6D47D3"/>
            <stop offset=".99" stop-color="#713592"/>
        </radialGradient>
        <radialGradient id="lxuo59jroo" cx="0" cy="0" r="1" gradientUnits="userSpaceOnUse" gradientTransform="matrix(18.352 0 0 23.3494 184.75 -1123.42)">
            <stop stop-color="#FFD1A9"/>
            <stop offset=".99" stop-color="#F99B98"/>
        </radialGradient>
        <radialGradient id="yoicee4fnp" cx="0" cy="0" r="1" gradientUnits="userSpaceOnUse" gradientTransform="matrix(18.105 0 0 23.0349 209.795 151.122)">
            <stop stop-color="#6D47D3"/>
            <stop offset=".99" stop-color="#713592"/>
        </radialGradient>
        <radialGradient id="goljj7skcq" cx="0" cy="0" r="1" gradientUnits="userSpaceOnUse" gradientTransform="matrix(18.0239 0 0 22.9317 234.963 -1123.42)">
            <stop stop-color="#FFD1A9"/>
            <stop offset=".99" stop-color="#F99B98"/>
        </radialGradient>
        <radialGradient id="rl5g659grr" cx="0" cy="0" r="1" gradientUnits="userSpaceOnUse" gradientTransform="matrix(18.1897 0 0 23.1429 260.064 151.122)">
            <stop stop-color="#6D47D3"/>
            <stop offset=".99" stop-color="#713592"/>
        </radialGradient>
        <radialGradient id="vffnjb1tts" cx="0" cy="0" r="1" gradientUnits="userSpaceOnUse" gradientTransform="matrix(18.4406 0 0 23.462 285.111 -1123.42)">
            <stop stop-color="#FFD1A9"/>
            <stop offset=".99" stop-color="#F99B98"/>
        </radialGradient>
        <radialGradient id="25cg9vl66t" cx="0" cy="0" r="1" gradientUnits="userSpaceOnUse" gradientTransform="matrix(18.6913 0 0 23.7811 310.156 151.122)">
            <stop stop-color="#6D47D3"/>
            <stop offset=".99" stop-color="#713592"/>
        </radialGradient>
        <radialGradient id="sgg3vucx5u" cx="0" cy="0" r="1" gradientUnits="userSpaceOnUse" gradientTransform="matrix(18.9458 0 0 24.1048 335.197 -1123.42)">
            <stop stop-color="#FFD1A9"/>
            <stop offset=".99" stop-color="#F99B98"/>
        </radialGradient>
        <radialGradient id="xv18xtsyav" cx="0" cy="0" r="1" gradientUnits="userSpaceOnUse" gradientTransform="matrix(19.2002 0 0 24.4285 360.237 151.122)">
            <stop stop-color="#6D47D3"/>
            <stop offset=".99" stop-color="#713592"/>
        </radialGradient>
        <radialGradient id="no3auaaruw" cx="0" cy="0" r="1" gradientUnits="userSpaceOnUse" gradientTransform="matrix(98.1478 0 0 113.087 233.856 109.756)">
            <stop stop-color="#7C65E0"/>
            <stop offset=".99" stop-color="#954CB8"/>
        </radialGradient>
        <radialGradient id="8t5fo2bgtx" cx="0" cy="0" r="1" gradientUnits="userSpaceOnUse" gradientTransform="matrix(175.40046 1.62647 -1.28802 138.90103 234.613 115.902)">
            <stop stop-color="#FFECC0"/>
            <stop offset=".99" stop-color="#F9C78C"/>
        </radialGradient>
        <radialGradient id="73sf81dody" cx="0" cy="0" r="1" gradientUnits="userSpaceOnUse" gradientTransform="matrix(175.40046 1.62647 -1.28802 138.90103 234.613 115.902)">
            <stop stop-color="#FFECC0"/>
            <stop offset=".99" stop-color="#F9C78C"/>
        </radialGradient>
        <radialGradient id="89fjenobvz" cx="0" cy="0" r="1" gradientUnits="userSpaceOnUse" gradientTransform="rotate(.531 -12464.791 25381.477) scale(175.568 139.035)">
            <stop stop-color="#FFECC0"/>
            <stop offset=".99" stop-color="#F9C78C"/>
        </radialGradient>
        <radialGradient id="e4xnlxyguA" cx="0" cy="0" r="1" gradientUnits="userSpaceOnUse" gradientTransform="rotate(.531 -12464.791 25381.477) scale(175.568 139.035)">
            <stop stop-color="#FFECC0"/>
            <stop offset=".99" stop-color="#F9C78C"/>
        </radialGradient>
        <radialGradient id="2sxp79nsbB" cx="0" cy="0" r="1" gradientUnits="userSpaceOnUse" gradientTransform="matrix(180.06626 1.66973 -1.32228 142.59687 235.29 116.694)">
            <stop stop-color="#FFECC0"/>
            <stop offset=".99" stop-color="#F9C78C"/>
        </radialGradient>
        <radialGradient id="d6eow0duqC" cx="0" cy="0" r="1" gradientUnits="userSpaceOnUse" gradientTransform="matrix(180.06626 1.66973 -1.32228 142.59687 235.29 116.694)">
            <stop stop-color="#FFECC0"/>
            <stop offset=".99" stop-color="#F9C78C"/>
        </radialGradient>
        <radialGradient id="nbxry1lmxD" cx="0" cy="0" r="1" gradientUnits="userSpaceOnUse" gradientTransform="matrix(176.07143 1.6327 -1.29295 139.433 235.085 115.989)">
            <stop stop-color="#FFECC0"/>
            <stop offset=".99" stop-color="#F9C78C"/>
        </radialGradient>
        <radialGradient id="u0o9hjc15E" cx="0" cy="0" r="1" gradientUnits="userSpaceOnUse" gradientTransform="matrix(176.07143 1.6327 -1.29295 139.433 235.085 115.989)">
            <stop stop-color="#FFECC0"/>
            <stop offset=".99" stop-color="#F9C78C"/>
        </radialGradient>
        <radialGradient id="7o7gsm8z9F" cx="0" cy="0" r="1" gradientUnits="userSpaceOnUse" gradientTransform="rotate(.531 -12212.202 25412.815) scale(175.341 138.855)">
            <stop stop-color="#FFECC0"/>
            <stop offset=".99" stop-color="#F9C78C"/>
        </radialGradient>
        <radialGradient id="whcvhpetxG" cx="0" cy="0" r="1" gradientUnits="userSpaceOnUse" gradientTransform="rotate(.531 -12212.202 25412.815) scale(175.341 138.855)">
            <stop stop-color="#FFECC0"/>
            <stop offset=".99" stop-color="#F9C78C"/>
        </radialGradient>
        <radialGradient id="let7pjpc7J" cx="0" cy="0" r="1" gradientUnits="userSpaceOnUse" gradientTransform="matrix(22.3084 0 0 22.3624 187.42 221.203)">
            <stop stop-color="#7C65E0"/>
            <stop offset=".99" stop-color="#954CB8"/>
        </radialGradient>
        <radialGradient id="fgpgnh8dtK" cx="0" cy="0" r="1" gradientUnits="userSpaceOnUse" gradientTransform="matrix(20.4595 0 0 20.509 186.376 205.068)">
            <stop stop-color="#7C65E0"/>
            <stop offset=".99" stop-color="#954CB8"/>
        </radialGradient>
        <linearGradient id="5ah6s7fpob" x1="57.311" y1="304.89" x2="417.879" y2="294.402" gradientUnits="userSpaceOnUse">
            <stop stop-color="#603082"/>
            <stop offset=".99" stop-color="#2A0E51"/>
        </linearGradient>
        <linearGradient id="3to6rv7doc" x1="234.855" y1="116.838" x2="234.855" y2="30.185" gradientUnits="userSpaceOnUse">
            <stop stop-color="#FFA700"/>
            <stop offset="1" stop-color="#FFD328"/>
        </linearGradient>
        <linearGradient id="hmoldy1x0d" x1="235.257" y1="277.298" x2="235.257" y2="104.268" gradientUnits="userSpaceOnUse">
            <stop stop-color="#FF6E27"/>
            <stop offset="1" stop-color="#E03347"/>
        </linearGradient>
        <linearGradient id="i0na39hc6i" x1="291.982" y1="283.653" x2="291.982" y2="189.471" gradientUnits="userSpaceOnUse">
            <stop stop-color="#6D47D3"/>
            <stop offset=".99" stop-color="#713592"/>
        </linearGradient>
        <linearGradient id="wlwi0s9inH" x1="198.787" y1="247.154" x2="198.787" y2="180.639" gradientUnits="userSpaceOnUse">
            <stop stop-color="#953D5E"/>
            <stop offset="1" stop-color="#86CCD9"/>
        </linearGradient>
        <linearGradient id="ja86h7kzfI" x1="293.268" y1="251.49" x2="293.268" y2="194.859" gradientUnits="userSpaceOnUse">
            <stop stop-color="#953D5E"/>
            <stop offset="1" stop-color="#86CCD9"/>
        </linearGradient>
        <linearGradient id="24mr0e3btL" x1="158.752" y1="46.48" x2="382.323" y2="46.48" gradientUnits="userSpaceOnUse">
            <stop stop-color="#FF6E27"/>
            <stop offset="1" stop-color="#E03347"/>
        </linearGradient>
        <linearGradient id="ebxkk4balM" x1="272.09" y1="76.322" x2="378.03" y2="76.322" gradientUnits="userSpaceOnUse">
            <stop stop-color="#C73E27"/>
            <stop offset="1" stop-color="#A4152C"/>
        </linearGradient>
    </defs>
</svg>
