<svg xmlns="http://www.w3.org/2000/svg" width="99" height="42" viewBox="0 0 99 42">
    <g fill="#6772E5" fill-rule="evenodd">
        <path d="M99 21.528c0-7.242-3.338-12.957-9.717-12.957-6.407 0-10.283 5.715-10.283 12.9 0 8.515 4.576 12.815 11.144 12.815 3.203 0 5.626-.764 7.456-1.839v-5.658c-1.83.962-3.93 1.556-6.595 1.556-2.61 0-4.926-.962-5.222-4.3h13.163c0-.367.054-1.838.054-2.517zM85.703 18.84c0-3.196 1.857-4.526 3.553-4.526 1.642 0 3.391 1.33 3.391 4.526h-6.944zM68.082 8.571c-2.728 0-4.48 1.28-5.455 2.169l-.362-1.724h-6.122V41.43l6.957-1.474.028-7.867c1.002.723 2.477 1.752 4.926 1.752 4.981 0 9.517-4.003 9.517-12.815-.027-8.061-4.62-12.454-9.49-12.454zm-1.67 19.153c-1.642 0-2.616-.584-3.284-1.306L63.1 16.105c.724-.806 1.726-1.362 3.312-1.362 2.532 0 4.286 2.835 4.286 6.476 0 3.725-1.726 6.505-4.286 6.505zM47.571 7.143l7.143-1.501V0l-7.143 1.473zM47.572 8.571h7.143v24.286h-7.143zM39.312 10.885l-.416-2.03h-5.61v24.002h6.493V16.591c1.533-2.113 4.13-1.729 4.935-1.427V8.855c-.83-.33-3.87-.933-5.402 2.03zM25.452 4.286L19.026 5.69 19 27.34c0 4 2.923 6.946 6.82 6.946 2.16 0 3.74-.406 4.609-.892v-5.487c-.843.352-5.004 1.595-5.004-2.405v-9.595h5.004v-5.756h-5.004l.027-5.865zM7.259 16.23c0-1.103.864-1.527 2.294-1.527 2.052 0 4.644.65 6.696 1.809v-6.64c-2.241-.933-4.455-1.3-6.696-1.3-5.48 0-9.124 2.995-9.124 7.996 0 7.8 10.258 6.556 10.258 9.919 0 1.3-1.08 1.723-2.591 1.723-2.241 0-5.103-.96-7.37-2.26v6.725c2.51 1.13 5.048 1.61 7.37 1.61 5.615 0 9.475-2.91 9.475-7.968-.027-8.42-10.312-6.923-10.312-10.088z"/>
    </g>
</svg>
