<?xml version="1.0" encoding="UTF-8"?>
<svg width="53px" height="69px" viewBox="0 0 53 69" version="1.1" xmlns="http://www.w3.org/2000/svg" xmlns:xlink="http://www.w3.org/1999/xlink">
    <!-- Generator: Sketch 60 (88103) - https://sketch.com -->
    <title>tnc2</title>
    <desc>Created with Sketch.</desc>
    <g id="Web" stroke="none" stroke-width="1" fill="none" fill-rule="evenodd">
        <g id="tnc2" transform="translate(1.000000, 1.000000)">
            <path d="M39.4142857,65.8625 L3.45535714,65.8625 C1.65357143,65.8625 0.194642857,64.4285714 0.194642857,62.6571429 L0.194642857,11.3803571 C0.194642857,9.60892857 1.65357143,8.175 3.45535714,8.175 L39.4142857,8.175 C41.2142857,8.175 42.675,9.60892857 42.675,11.3803571 L42.675,62.6571429 C42.675,64.4285714 41.2142857,65.8625 39.4142857,65.8625" id="Path" fill="#FFFFFE" fill-rule="nonzero"></path>
            <path d="M39.4142857,65.8625 L3.45535714,65.8625 C1.65357143,65.8625 0.194642857,64.4285714 0.194642857,62.6571429 L0.194642857,11.3803571 C0.194642857,9.60892857 1.65357143,8.175 3.45535714,8.175 L39.4142857,8.175 C41.2142857,8.175 42.675,9.60892857 42.675,11.3803571 L42.675,62.6571429 C42.675,64.4285714 41.2142857,65.8625 39.4142857,65.8625 Z" id="Path" stroke="#16449B" stroke-width="2.34107143"></path>
            <path d="M36.5464286,10.8 C36.3614822,10.5443745 36.1428367,10.3149169 35.8964286,10.1178571 C34.8910714,9.325 33.3803571,9.06428571 32.125,9.06428571 L31.2553571,9.06428571 L31.2553571,8.16071429 C31.2553571,7.03571429 30.3267857,6.12321429 29.1839286,6.12321429 L27.4928571,6.12321429 C27.4928571,2.875 24.8142857,0.244642857 21.5107143,0.244642857 C18.2089286,0.244642857 15.5303571,2.875 15.5303571,6.12321429 L13.8410714,6.12321429 C12.6964286,6.12321429 11.7678571,7.03571429 11.7678571,8.16071429 L11.7678571,9.06071429 L10.8035714,9.06071429 C9.08035714,9.06071429 7.24107143,9.72857143 6.40178571,10.8732143 C5.08392857,12.6696429 6.00357143,15.1285714 8.25535714,15.1285714 L34.6696429,15.1285714 C35.7267857,15.1285714 36.675,14.4857143 37.0642857,13.5214286 C37.4214286,12.6428571 37.1232143,11.5892857 36.5464286,10.7982143" id="Path" fill="#6182C1" fill-rule="nonzero"></path>
            <path d="M36.5464286,10.8 C36.3614822,10.5443745 36.1428367,10.3149169 35.8964286,10.1178571 C34.8910714,9.325 33.3803571,9.06428571 32.125,9.06428571 L31.2553571,9.06428571 L31.2553571,8.16071429 C31.2553571,7.03571429 30.3267857,6.12321429 29.1839286,6.12321429 L27.4928571,6.12321429 C27.4928571,2.875 24.8142857,0.244642857 21.5107143,0.244642857 C18.2089286,0.244642857 15.5303571,2.875 15.5303571,6.12321429 L13.8410714,6.12321429 C12.6964286,6.12321429 11.7678571,7.03571429 11.7678571,8.16071429 L11.7678571,9.06071429 L10.8035714,9.06071429 C9.08035714,9.06071429 7.24107143,9.72857143 6.40178571,10.8732143 C5.08392857,12.6696429 6.00357143,15.1285714 8.25535714,15.1285714 L34.6696429,15.1285714 C35.7267857,15.1285714 36.675,14.4857143 37.0642857,13.5214286 C37.4214286,12.6428571 37.1232143,11.5892857 36.5464286,10.7982143 L36.5464286,10.8 Z" id="Path" stroke="#16449B" stroke-width="2.34107143"></path>
            <path d="M21.5125,7.45714286 C20.5053571,7.45714286 19.6910714,6.65357143 19.6910714,5.66607143 C19.6910714,4.675 20.5053571,3.87321429 21.5125,3.87321429 C22.5178571,3.87321429 23.3339286,4.67678571 23.3339286,5.66607143 C23.3339286,6.65357143 22.5178571,7.45714286 21.5125,7.45714286" id="Path" fill="#FFFFFE" fill-rule="nonzero"></path>
            <path d="M21.5125,7.45714286 C20.5053571,7.45714286 19.6910714,6.65357143 19.6910714,5.66607143 C19.6910714,4.675 20.5053571,3.87321429 21.5125,3.87321429 C22.5178571,3.87321429 23.3339286,4.67678571 23.3339286,5.66607143 C23.3339286,6.65357143 22.5178571,7.45714286 21.5125,7.45714286 Z" id="Path" stroke="#16449B" stroke-width="2.34107143"></path>
            <line x1="6.86785714" y1="25.5714286" x2="31.0142857" y2="25.5714286" id="Path" fill="#FFFFFE" fill-rule="nonzero"></line>
            <line x1="6.86785714" y1="25.5714286" x2="31.0142857" y2="25.5714286" id="Path" stroke="#16449B" stroke-width="2.34107143"></line>
            <line x1="6.86785714" y1="35.6017857" x2="31.0142857" y2="35.6017857" id="Path" fill="#FFFFFE" fill-rule="nonzero"></line>
            <line x1="6.86785714" y1="35.6017857" x2="31.0142857" y2="35.6017857" id="Path" stroke="#16449B" stroke-width="2.34107143"></line>
            <line x1="6.86785714" y1="45.6321429" x2="31.0142857" y2="45.6321429" id="Path" fill="#FFFFFE" fill-rule="nonzero"></line>
            <line x1="6.86785714" y1="45.6321429" x2="31.0142857" y2="45.6321429" id="Path" stroke="#16449B" stroke-width="2.34107143"></line>
            <line x1="6.86785714" y1="55.6642857" x2="31.0142857" y2="55.6642857" id="Path" fill="#FFFFFE" fill-rule="nonzero"></line>
            <line x1="6.86785714" y1="55.6642857" x2="31.0142857" y2="55.6642857" id="Path" stroke="#16449B" stroke-width="2.34107143"></line>
            <path d="M32.8285714,58.5428571 C12.8232143,54.3571429 15.8821429,24.2339286 15.8821429,24.2339286 C26.0678571,23.6875 32.8285714,19.2285714 32.8285714,19.2285714 C32.8285714,19.2285714 39.5910714,23.6875 49.7785714,24.2339286 C49.7785714,24.2339286 52.8339286,54.3571429 32.8285714,58.5428571" id="Path" fill="#16449B" fill-rule="nonzero"></path>
            <path d="M32.8285714,58.5428571 C12.8232143,54.3571429 15.8821429,24.2339286 15.8821429,24.2339286 C26.0678571,23.6875 32.8285714,19.2285714 32.8285714,19.2285714 C32.8285714,19.2285714 39.5910714,23.6875 49.7785714,24.2339286 C49.7785714,24.2339286 52.8339286,54.3571429 32.8285714,58.5428571 Z" id="Path" stroke="#16449B" stroke-width="2.34107143"></path>
            <path d="M35.5410714,45.8607143 C35.5410714,46.7392857 33.7267857,46.9142857 32.8303571,46.9142857 C31.9321429,46.9142857 30.1196429,46.7392857 30.1196429,45.8607143 L31.2053571,37.5821429 C29.5789447,36.9461322 28.5053111,35.3820385 28.4964286,33.6357143 C28.4964286,31.2875 30.4375,29.3821429 32.8303571,29.3821429 C35.2232143,29.3821429 37.1607143,31.2875 37.1607143,33.6375 C37.1607143,35.4232143 36.0410714,36.9482143 34.4535714,37.5821429 L35.5428571,45.8607143" id="Path" fill="#FFFFFF" fill-rule="nonzero"></path>
        </g>
    </g>
</svg>