<?xml version="1.0" encoding="UTF-8"?>
<svg width="151px" height="50px" viewBox="0 0 151 50" version="1.1" xmlns="http://www.w3.org/2000/svg" xmlns:xlink="http://www.w3.org/1999/xlink">
    <!-- Generator: Sketch 63.1 (92452) - https://sketch.com -->
    <title>Tookan-Full-Logo</title>
    <desc>Created with Sketch.</desc>
    <defs>
        <linearGradient x1="-8.74781679e-14%" y1="46.6157427%" x2="633.424496%" y2="46.6157427%" id="linearGradient-1">
            <stop stop-color="#37C87C" offset="0%"></stop>
            <stop stop-color="#2FA894" offset="55%"></stop>
            <stop stop-color="#2EA598" offset="71%"></stop>
            <stop stop-color="#2A9CA4" offset="88%"></stop>
            <stop stop-color="#2692B1" offset="100%"></stop>
        </linearGradient>
        <linearGradient x1="-97.0764356%" y1="34.4763521%" x2="528.84763%" y2="34.4763521%" id="linearGradient-2">
            <stop stop-color="#37C87C" offset="0%"></stop>
            <stop stop-color="#2FA894" offset="55%"></stop>
            <stop stop-color="#2EA598" offset="71%"></stop>
            <stop stop-color="#2A9CA4" offset="88%"></stop>
            <stop stop-color="#2692B1" offset="100%"></stop>
        </linearGradient>
        <linearGradient x1="-208.956393%" y1="34.5065469%" x2="417.153451%" y2="34.5065469%" id="linearGradient-3">
            <stop stop-color="#37C87C" offset="0%"></stop>
            <stop stop-color="#2FA894" offset="55%"></stop>
            <stop stop-color="#2EA598" offset="71%"></stop>
            <stop stop-color="#2A9CA4" offset="88%"></stop>
            <stop stop-color="#2692B1" offset="100%"></stop>
        </linearGradient>
        <linearGradient x1="-359.932952%" y1="50.5416317%" x2="333.250508%" y2="50.5416317%" id="linearGradient-4">
            <stop stop-color="#37C87C" offset="0%"></stop>
            <stop stop-color="#2FA894" offset="55%"></stop>
            <stop stop-color="#2EA598" offset="71%"></stop>
            <stop stop-color="#2A9CA4" offset="88%"></stop>
            <stop stop-color="#2692B1" offset="100%"></stop>
        </linearGradient>
        <linearGradient x1="-480.975103%" y1="34.5156115%" x2="225.261176%" y2="34.5156115%" id="linearGradient-5">
            <stop stop-color="#37C87C" offset="0%"></stop>
            <stop stop-color="#2FA894" offset="55%"></stop>
            <stop stop-color="#2EA598" offset="71%"></stop>
            <stop stop-color="#2A9CA4" offset="88%"></stop>
            <stop stop-color="#2692B1" offset="100%"></stop>
        </linearGradient>
        <linearGradient x1="-585.577582%" y1="35.0695406%" x2="100.199935%" y2="35.0695406%" id="linearGradient-6">
            <stop stop-color="#37C87C" offset="0%"></stop>
            <stop stop-color="#2FA894" offset="55%"></stop>
            <stop stop-color="#2EA598" offset="71%"></stop>
            <stop stop-color="#2A9CA4" offset="88%"></stop>
            <stop stop-color="#2692B1" offset="100%"></stop>
        </linearGradient>
        <linearGradient x1="39.3532986%" y1="-0.9%" x2="67.5560764%" y2="89.4444444%" id="linearGradient-7">
            <stop stop-color="#37C87C" offset="0%"></stop>
            <stop stop-color="#2FA894" offset="55%"></stop>
            <stop stop-color="#2EA598" offset="71%"></stop>
            <stop stop-color="#2A9CA4" offset="88%"></stop>
            <stop stop-color="#2692B1" offset="100%"></stop>
        </linearGradient>
    </defs>
    <g id="Tookan-Full-Logo" stroke="none" stroke-width="1" fill="none" fill-rule="evenodd">
        <g id="tookan_full_1" transform="translate(5.000000, 3.500000)" fill-rule="nonzero">
            <path d="M42.6512222,17.2 C42.2825182,16.562196 42.0865493,15.839252 42.0826667,15.1025556 C42.0826667,14.3221852 42.2570556,13.7647778 42.6058333,13.4303333 C42.9737298,13.0844122 43.4653194,12.9010347 43.9698889,12.9215 L57.0371111,12.9215 C57.2040653,13.2033914 57.334889,13.5051688 57.4265,13.8197222 C57.5467871,14.2064033 57.6072082,14.6092113 57.6056954,15.0141667 C57.6056954,15.7929444 57.4312778,16.3503519 57.0825,16.6863889 C56.7158183,17.0347532 56.2238285,17.2200033 55.7184444,17.2 L52.3907222,17.2 L52.3907222,31.0555556 C52.0508048,31.1367875 51.7061287,31.1966272 51.3587222,31.2347222 C50.8960654,31.2943775 50.4300974,31.3246973 49.9636111,31.3255 C49.5566446,31.3298069 49.1502208,31.2946048 48.7500556,31.2203889 C48.4314295,31.1618927 48.1296296,31.0338316 47.8661667,30.8453333 C47.6183552,30.6518959 47.431028,30.3916272 47.3262778,30.0952222 C47.1936449,29.689222 47.13301,29.2631605 47.1471111,28.8362778 L47.1471111,17.2 L42.6512222,17.2 Z" id="Path" fill="url(#linearGradient-1)"></path>
            <path d="M73.0402778,23.8888889 C73.0587064,25.0191175 72.8658819,26.1428465 72.4717222,27.2022778 C72.1223008,28.1234831 71.5751378,28.956867 70.8687778,29.6437222 C70.1609248,30.3136978 69.3178766,30.824414 68.3962778,31.1415556 C67.3637811,31.4934754 66.2787393,31.6663711 65.188,31.6527778 C64.0956253,31.6667243 63.0096665,31.483843 61.9821111,31.1128889 C61.0595055,30.776202 60.2173676,30.2505777 59.5096111,29.5696667 C58.8060364,28.8795879 58.2593278,28.0460812 57.9066667,27.1258333 C57.5121067,26.092947 57.3175404,24.9944576 57.3333333,23.8888889 C57.318628,22.7937224 57.5123867,21.7057548 57.9042778,20.683 C58.2575751,19.7637775 58.8042224,18.9311789 59.5072222,18.2415556 C60.2142326,17.5591143 61.0565368,17.0325724 61.9797222,16.6959444 C63.0074271,16.3258037 64.0933817,16.1437323 65.1856111,16.1584444 C66.2801292,16.1429312 67.368007,16.3308595 68.3938889,16.7126667 C69.3149285,17.0592593 70.1560649,17.5891346 70.8663889,18.2702222 C71.5692118,18.9609184 72.1158065,19.7942513 72.4693333,20.7140556 C72.8581952,21.7268484 73.0519171,22.8040722 73.0402778,23.8888889 L73.0402778,23.8888889 Z M62.5506667,23.8888889 C62.5506667,25.1088148 62.7895556,26.0428704 63.2673333,26.6910556 C63.713575,27.3287094 64.4532949,27.6958697 65.231,27.6657222 C66.0044287,27.6994439 66.738556,27.3237595 67.1636111,26.6767222 C67.6127222,26.0173889 67.8372778,25.0881111 67.8372778,23.8888889 C67.8372778,22.6896667 67.6007778,21.7635741 67.1277778,21.1106111 C66.6681025,20.4970837 65.9462661,20.135944 65.1796389,20.135944 C64.4130117,20.135944 63.6911752,20.4970837 63.2315,21.1106111 C62.7776111,21.7603889 62.5506667,22.6864815 62.5506667,23.8888889 L62.5506667,23.8888889 Z" id="Shape" fill="url(#linearGradient-2)"></path>
            <path d="M90.601,23.8888889 C90.6205573,25.0192041 90.4276972,26.1431412 90.0324444,27.2022778 C89.6830231,28.1234831 89.13586,28.956867 88.4295,29.6437222 C87.721647,30.3136978 86.8785988,30.824414 85.957,31.1415556 C84.9252835,31.4932978 83.8410568,31.6661923 82.7511111,31.6527778 C81.6599237,31.6635941 80.5756672,31.4782995 79.55,31.1057222 C78.6279485,30.7679005 77.7860325,30.2424148 77.0775,29.5625 C76.3746771,28.8718039 75.8280824,28.038471 75.4745556,27.1186667 C75.0800746,26.0881841 74.8847118,24.9922067 74.8988333,23.8888889 C74.8833659,22.793876 75.0763131,21.7059135 75.4673889,20.683 C75.8215473,19.7642194 76.3680814,18.9317933 77.0703333,18.2415556 C77.7795571,17.5567004 78.6242019,17.0277803 79.55,16.6887778 C80.5785243,16.3186068 81.6652674,16.1365389 82.7582778,16.1512778 C83.8519947,16.1360609 84.9390354,16.3239844 85.9641667,16.7055 C86.8852063,17.0520927 87.7263427,17.581968 88.4366667,18.2630556 C89.1394896,18.9537517 89.6860843,19.7870846 90.0396111,20.7068889 C90.4274544,21.7221864 90.6179916,22.8021678 90.601,23.8888889 Z M80.1137778,23.8888889 C80.1137778,25.1088148 80.3478889,26.0428704 80.8161111,26.6910556 C81.2623527,27.3287094 82.0020727,27.6958697 82.7797778,27.6657222 C83.5532065,27.6994439 84.2873338,27.3237595 84.7123889,26.6767222 C85.1615,26.0173889 85.3868519,25.0881111 85.3884527,23.8888889 C85.390037,22.6896667 85.1599074,21.765963 84.6980556,21.1177778 C84.2383803,20.5042503 83.5165439,20.1431106 82.7499167,20.1431106 C81.9832895,20.1431106 81.261453,20.5042503 80.8017778,21.1177778 C80.3431111,21.7627778 80.1137778,22.6864815 80.1137778,23.8888889 Z" id="Shape" fill="url(#linearGradient-3)"></path>
            <path d="M107.323222,28.5281111 C107.226074,29.4661481 106.951352,30.1828148 106.499056,30.6781111 C106.046759,31.1734074 105.393,31.4234444 104.537778,31.4284215 C103.934529,31.4349909 103.341909,31.2692231 102.829722,30.9504444 C102.204693,30.5220087 101.657009,29.9904805 101.210056,29.3785556 L98.2430556,25.6805556 L98.2430556,31.1343889 C98.0232778,31.175 97.6983889,31.2299444 97.2707778,31.2992222 C96.8395011,31.3690061 96.4033304,31.4041554 95.9664444,31.4043333 C95.5665188,31.4085206 95.1669531,31.3789527 94.772,31.3159444 C94.4532293,31.2664297 94.1505027,31.1428846 93.8881111,30.9552222 C93.6413542,30.7644786 93.4500201,30.5112908 93.3338889,30.2218333 C93.1916195,29.8336078 93.1259089,29.4214968 93.1403889,29.0082778 L93.1403889,11.6553889 C93.3601667,11.5956667 93.6826667,11.5311667 94.1126667,11.4595 C94.5439433,11.3897161 94.9801141,11.3545668 95.417,11.3543889 C95.8169956,11.3509117 96.2165685,11.3812793 96.6114444,11.4451667 C96.9308025,11.4925518 97.2340122,11.6162941 97.4953333,11.8058889 C97.7425925,11.9961352 97.9340399,12.2494729 98.0495556,12.5392778 C98.1918249,12.9275033 98.2575355,13.3396143 98.2430556,13.7528333 L98.2430556,21.6648333 L103.398278,16.3901667 C104.438241,16.3901667 105.272759,16.6202963 105.901833,17.0805556 C106.489131,17.4632828 106.843924,18.1162812 106.845444,18.8172778 C106.849009,19.0991443 106.797899,19.3790292 106.694944,19.6414444 C106.579121,19.9177777 106.422939,20.1753973 106.2315,20.4058889 C105.985372,20.7030394 105.714454,20.9787522 105.421667,21.2300556 C105.092,21.5191111 104.705,21.8559444 104.267833,22.2333889 L102.528722,23.7336111 L107.323222,28.5281111 Z" id="Path" fill="url(#linearGradient-4)"></path>
            <path d="M115.775111,16.1512778 C116.769134,16.1422688 117.760585,16.253767 118.727778,16.4833333 C119.543406,16.6703868 120.316008,17.010883 121.004389,17.4866667 C121.62463,17.9253002 122.124857,18.5125945 122.459222,19.1947222 C122.814463,19.9585332 122.988595,20.7940376 122.968056,21.6361667 L122.968056,28.3513333 C122.986769,28.815096 122.831727,29.2691478 122.533278,29.6246111 C122.23519,29.9612204 121.886152,30.2489949 121.498889,30.4774444 C120.199333,31.2562222 118.367852,31.6464074 116.004444,31.648 C115.040472,31.6586842 114.078507,31.5576778 113.137778,31.347 C112.362156,31.1780093 111.622284,30.8739742 110.951944,30.4487778 C110.35895,30.0682615 109.873629,29.5418124 109.5425,28.9198889 C109.202607,28.2550696 109.032713,27.5163996 109.048,26.7698889 C109.048,25.3922963 109.457296,24.3332222 110.275889,23.5926667 C111.094481,22.8521111 112.368556,22.3934444 114.098111,22.2166667 L118.023056,21.7962222 L118.023056,21.586 C118.051334,21.0532528 117.74694,20.5586123 117.258611,20.3437778 C116.749778,20.1048889 116.014,19.9687222 115.056056,19.9687222 C114.310569,19.966836 113.567137,20.0469472 112.839167,20.2076111 C112.173482,20.3515409 111.521328,20.5521424 110.889833,20.8072222 C110.602723,20.5938903 110.375604,20.3099925 110.2305,19.9830556 C110.053036,19.6243027 109.960663,19.2294685 109.960556,18.8292222 C109.938078,18.3842253 110.070628,17.9452059 110.335611,17.587 C110.649663,17.2317838 111.045764,16.9586958 111.489444,16.7915 C112.153256,16.552574 112.842769,16.3922223 113.543889,16.3137222 C114.28358,16.2137239 115.028737,16.1594726 115.775111,16.1512778 Z M116.014,27.9285 C116.391322,27.9247368 116.767676,27.8895784 117.139167,27.8233889 C117.458403,27.7827588 117.76806,27.6865469 118.054111,27.5391111 L118.054111,25.1502222 L115.904111,25.3293889 C115.424072,25.349227 114.953942,25.4722593 114.525722,25.6901111 C114.18599,25.8586098 113.975227,26.2092589 113.985833,26.5883333 C113.97693,26.9688901 114.14995,27.330901 114.451667,27.563 C114.750278,27.8042778 115.275833,27.9285 116.014,27.9285 Z" id="Shape" fill="url(#linearGradient-5)"></path>
            <path d="M135.313833,21.9347778 C135.313833,21.3160556 135.139444,20.8597778 134.790667,20.5707222 C134.37967,20.2602022 133.87158,20.1060816 133.357333,20.1359444 C132.954416,20.1352906 132.55305,20.1858627 132.162889,20.2864444 C131.803782,20.3734975 131.463704,20.5257232 131.159556,20.7355556 L131.159556,31.1343889 C130.845437,31.2161237 130.526207,31.2767773 130.204,31.3159444 C129.762231,31.3760554 129.316838,31.4055886 128.871,31.4043333 C128.471071,31.4086232 128.071497,31.3790547 127.676556,31.3159444 C127.357641,31.2669502 127.054797,31.1433574 126.792667,30.9552222 C126.545238,30.7651438 126.353752,30.5117552 126.238444,30.2218333 C126.096175,29.8336078 126.030464,29.4214968 126.044944,29.0082778 L126.044944,20.0165 C126.024396,19.5523528 126.144281,19.0927948 126.388944,18.6978333 C126.647603,18.331945 126.971543,18.0169138 127.3445,17.7685556 C128.12831,17.239852 128.994536,16.8450853 129.907778,16.6003889 C131.024073,16.2882627 132.179199,16.1370346 133.338222,16.1512778 C135.596519,16.1512778 137.334833,16.6457778 138.553167,17.6347778 C139.7715,18.6237778 140.380667,19.9973889 140.380667,21.7556111 L140.380667,31.1343889 C140.066548,31.2161237 139.747318,31.2767773 139.425111,31.3159444 C138.983342,31.3760554 138.537949,31.4055886 138.092111,31.4043333 C137.692182,31.4086232 137.292608,31.3790547 136.897667,31.3159444 C136.578752,31.2669502 136.275908,31.1433574 136.013778,30.9552222 C135.766349,30.7651438 135.574864,30.5117552 135.459556,30.2218333 C135.315221,29.8340981 135.248658,29.4217338 135.263667,29.0082778 L135.313833,21.9347778 Z" id="Path" fill="url(#linearGradient-6)"></path>
            <path d="M11.6362778,34.7798333 L11.7318333,21.9180556 L21.6170556,33.5352222 L21.6170556,32.3025556 C21.6982778,29.8157222 21.7436667,25.6136667 21.7436667,25.1000556 C21.727867,24.0224128 21.5655264,22.9519293 21.2611111,21.9180556 C19.9137778,17.1641667 15.9434444,11.2516667 10.5326111,8.49966667 L10.5326111,8.52594444 C10.5226422,8.51073166 10.5114575,8.49635131 10.4991667,8.48294444 L10.3725556,8.41605556 L18.6978333,8.41605556 L18.7503889,8.45427778 L19.9878333,8.45427778 C24.4001111,8.45427778 29.5625,8.75288889 29.5625,10.1742778 C29.5625,0 18.6333333,0 18.6333333,0 L10.3725556,0 L10.3725556,0.0358333333 C9.81116667,0.0286666667 2.54416667,-0.0334444444 0,0.0358333333 L0.0477777778,20.9959444 C0,20.9959444 11.2468889,34.4740556 11.2468889,34.4931667 L11.2468889,34.6603889 L11.3400556,34.6603889 L11.3400556,43 L29.4239444,43 L22.5893333,34.7798333 L11.6362778,34.7798333 Z M29.5242778,9.9115 C29.4908333,9.84461111 29.4526111,9.7825 29.4167778,9.718 C29.4736878,9.76830635 29.5116305,9.83660323 29.5242778,9.9115 L29.5242778,9.9115 Z" id="Shape" fill="url(#linearGradient-7)"></path>
        </g>
    </g>
</svg>