<svg xmlns="http://www.w3.org/2000/svg" width="222" height="339" viewBox="0 0 222 339">
    <g fill="none" fill-rule="evenodd">
        <path fill="#C0E1FF" d="M176 135s-26.863 7.135-60 7.135S56 135 56 135c0 57.002 23.534 116.245 53.719 123.596.113 1.376 3.348 41.836-7.886 49.441-1.416.959.378 3.372 2.064 3.624 3.722.555 1.414 1.339 11.908 1.339 7.135 0 8.064-.741 11.877-1.293 1.741-.251 3.473-2.73 2.024-3.738-10.496-7.306-7.544-47.947-7.437-49.37C152.459 251.262 176 192.01 176 135"/>
        <path fill="#E3F0FC" d="M121.393 257.847a17.403 17.403 0 0 0 3.46-.736c1.708-.563 3.324-1.416 4.894-2.272 2.26-1.232 4.39-2.686 6.39-4.286 2.167-1.733 4.186-3.639 6.077-5.654a77.14 77.14 0 0 0 5.726-6.898 99.707 99.707 0 0 0 5.334-8.014c1.072-1.787 2.447-3.698 3.062-5.681.587-1.893.673-3.923 1.076-5.856.572-2.742 1.64-4.803 3.14-7.192.666-1.064 1.41-2.047 2.197-3.03 1.927-2.41 2.792-4.821 3.761-7.733a193.248 193.248 0 0 0 3.356-11.228 207.304 207.304 0 0 0 2.759-11.717 215.343 215.343 0 0 0 3.567-24.398 209.363 209.363 0 0 0 .788-15.293c.003-.265-.098-2.824.02-2.859-.038.011-24.243 7.105-58.5 7.105C84.216 142.105 60 135 60 135c0 8.272.513 16.543 1.494 24.758a214.037 214.037 0 0 0 4.264 24.046c4.82 20.31 12.61 41.566 26.192 57.883 3.514 4.221 7.507 8.132 12.12 11.22 2.05 1.373 4.225 2.578 6.514 3.536.893.374 1.815.823 2.762 1.04 1.006.23 2.033.37 3.065.44 1.621.111 3.32.114 4.982-.076"/>
        <path fill="#E3F0FC" d="M118.588 256.45c.086-.114.22-.218.428-.31.828-.372 2.786.038 3.337.763.526.691-.03 1.75-.114 2.514-.946 8.545-.815 17.742.137 26.295.82 7.375 1.003 14.673 6.247 20.367 1.001 1.087 1.843 2.515 1.084 3.75-.5.814-3.395 1.088-4.41 1.26a65.265 65.265 0 0 1-10.976.91c-2.487-.003-5.002-.153-7.374-.825-1.249-.355-2.59-.997-2.903-2.141-.347-1.275 1.436-2.464 2.33-3.5 3.882-4.505 4.706-10.284 5.589-15.93 1.5-9.6 1.425-19.342.947-29.026-.015-.304-.028-.623.118-.903.91-1.726 4.001.454 5.197-1.55.397-.666.032-1.241.363-1.675"/>
        <path fill="#C0E1FF" d="M117.316 172c-27.669 0-51.584-2.408-58.158-5.855-1.039-.546-1.456-1.863-.931-2.942.525-1.08 1.794-1.513 2.834-.967 5.102 2.676 26.064 5.385 56.255 5.385 25.931 0 48.857-2.116 55.752-5.145 1.073-.47 2.311.05 2.765 1.164.454 1.113-.048 2.398-1.12 2.87-7.477 3.284-30.542 5.49-57.397 5.49M116.29 162c-28.874 0-53.233-2.471-59.236-6.009a2.15 2.15 0 0 1-.762-2.931 2.123 2.123 0 0 1 2.915-.766c4.46 2.628 25.981 5.421 57.083 5.421 30.09 0 51.28-2.615 56.663-5.2a2.124 2.124 0 0 1 2.839 1.012 2.148 2.148 0 0 1-1.005 2.856c-6.998 3.36-30.506 5.617-58.497 5.617"/>
        <path fill="#2496FF" d="M55.001 148.833c1.82 26.99 8.063 54.747 21.146 78.625 4.978 9.087 11.161 17.91 19.407 24.333 3.4 2.648 7.167 4.832 11.27 6.186 1.254.413 1.915-.02 2.003 1.126.07.924.124 1.85.175 2.775.42 7.694.45 15.449-.235 23.128-.378 4.244-.965 8.51-2.133 12.617-.904 3.177-2.195 6.745-4.771 8.97-.524.453-1.248.79-1.49 1.484-.324.93.32 1.935.973 2.546 1.093 1.021 2.527 1.037 3.884 1.444 3.44 1.032 7.049.94 10.616.924 2.546-.011 5.1-.094 7.614-.525 1.705-.293 3.746-.415 5.336-1.08 1.351-.565 3.388-2.546 2.195-4.102-.398-.519-1.092-.871-1.551-1.352a11.503 11.503 0 0 1-1.357-1.76c-1.99-3.112-2.912-6.917-3.598-10.502-.83-4.339-1.236-8.756-1.464-13.164-.362-6.985-.274-14.008.152-20.99.03-.504.063-1.01.101-1.513l-.782.614c12.868-3.182 22.445-13.912 29.356-24.628 9.775-15.159 15.909-32.663 19.974-50.142 2.642-11.358 4.349-22.923 5.177-34.553.058-.814-1.792-.486-1.84.2-1.368 19.203-5.086 38.348-11.603 56.487-5.33 14.831-12.644 30.017-24.035 41.196-4.855 4.765-10.627 8.76-17.305 10.41-.254.064-.758.29-.783.615-.545 7.233-.62 14.537-.294 21.781.24 5.363.71 10.769 1.895 16.015.861 3.81 2.108 8.258 5.06 11.028.26.243.623.445.856.71.762.867.478 1.963-.538 2.593-1.008.625-2.88.668-4.052.89-3.389.639-6.828.669-10.267.626-2.222-.028-4.596.05-6.762-.537-1.419-.384-3.71-.658-4.618-1.772-1.126-1.38.113-2.028 1.014-2.91a12.95 12.95 0 0 0 1.73-2.133c1.158-1.753 1.963-3.735 2.61-5.725 1.607-4.952 2.263-10.208 2.659-15.38.646-8.466.576-17.07-.125-25.534-.013-.154-.249-.263-.366-.292-13.122-3.251-22.678-14.785-29.457-25.791-9.396-15.256-15.294-32.656-19.167-50.067-2.443-10.98-4.02-22.141-4.777-33.362-.045-.671-1.884-.273-1.833.49"/>
        <path fill="#E3F0FC" d="M184.551 143.22c3.653.396 7.432 2.607 9.087 6.54 3.469 8.247 2.43 17.637-.83 25.868-3.573 9.024-9.884 16.897-16.845 23.073-6.388 5.667-14.394 9.748-17.865 18.083-2.027 4.867-1.271 9.518 2.46 13.222 1.954 1.939 4.441 3.093 7.227 2.987 3.796-.144 6.823-2.243 9.308-4.988 1.628-1.798.734-4.353-1.374-5.186-2.456-.97-5.377.026-7.093 1.922-.156.172-.913.907-.692.694.308-.295-.112.062-.233.105.438-.156.715-.319 1.217-.346.344-.019 1.481.37.85.083-.72-.328.013.011.116.086-.178-.129-.364-.243-.535-.38-.172-.138-.333-.288-.502-.429.032.027.472.495.156.161a14.483 14.483 0 0 1-.733-.826c-.734-.903-.783-.867-1.049-1.967a5.988 5.988 0 0 1-.14-.761c.01.086.022.511.023.058.001-.458.039-.914.11-1.367.135-.856.209-1.019.693-2.097a20.332 20.332 0 0 1 .983-1.87c-.354.572.037-.03.099-.119a29.21 29.21 0 0 1 1.764-2.294c.296-.344.605-.673.91-1.008.74-.808-.318.221.276-.281.52-.44 1.013-.902 1.56-1.308 1.915-1.417 3.859-2.776 5.717-4.27 4.152-3.337 8.067-7.029 11.59-11.04 6.85-7.797 12.074-17.062 14.26-27.307 1.877-8.8 1.19-19.453-4.509-26.777-3.646-4.686-9.187-7.606-15.126-7.477a15.627 15.627 0 0 0-5.566 1.158c-.912.373-1.716.89-2.581 1.344-.89.468-1.512-.481-2.484-.248-.675.162-2.08.545-2.485 1.119-1.224 1.736-.803 4.493-.803 6.466 0 .802.078 1.731-.037 2.514-.061.422-.225.819-.255 1.26-.042.62-.013 1.964.958 1.546.25-.108.396-.542.587-.755.843-.94 2.25-1.204 3.319-1.773.659-.35 1.082-.99 1.642-1.47.638-.544 1.442-.927 2.218-1.222 1.45-.552 3.057-.822 4.607-.722M47.449 143.22c-3.653.396-7.432 2.607-9.087 6.54-3.47 8.247-2.43 17.637.83 25.868 3.573 9.025 9.884 16.897 16.845 23.073 6.388 5.667 14.394 9.748 17.865 18.083 2.027 4.867 1.271 9.518-2.46 13.222-1.954 1.939-4.441 3.093-7.227 2.987-3.796-.144-6.823-2.243-9.308-4.988-1.628-1.798-.734-4.352 1.374-5.186 2.456-.97 5.377.026 7.093 1.922.156.172.913.907.692.694-.308-.295.112.062.233.105-.438-.156-.715-.319-1.217-.346-.344-.019-1.481.371-.85.083.72-.328-.013.011-.116.086.178-.128.364-.243.535-.38.172-.138.333-.288.502-.429-.032.027-.472.495-.156.161.252-.266.501-.54.733-.826.734-.902.783-.866 1.049-1.967.06-.248.112-.509.14-.761-.01.086-.022.511-.023.058a8.878 8.878 0 0 0-.11-1.367c-.135-.856-.209-1.019-.693-2.097a20.332 20.332 0 0 0-.983-1.87c.354.572-.037-.03-.099-.118a29.146 29.146 0 0 0-1.764-2.295c-.296-.344-.605-.673-.91-1.008-.74-.808.318.222-.276-.281-.52-.44-1.013-.902-1.56-1.308-1.915-1.417-3.859-2.776-5.717-4.27-4.152-3.337-8.067-7.029-11.59-11.039-6.85-7.798-12.074-17.062-14.26-27.308-1.877-8.8-1.19-19.453 4.509-26.777 3.646-4.686 9.187-7.606 15.126-7.477 3.377.074 6.168 1.747 9.4 2.385 1.07.211 2.262.423 3.222.815 2.13.87 1.692 2.9 2.624 4.583.68 1.23 1.994 2.14 2.294 3.57.169.802-.216 1.187-.298 1.89-.094.815.368 1.456.471 2.257.064.495-.029.996-.158 1.478-.18.675-.459 1.368-1.016 1.783-.88.656-2.154.637-3.167.375-.969-.251-1.946-.74-2.96-.76-.034-.684-.112-1.359-.145-2.044-.023-.454-.108-.904-.12-1.359-.065-2.67-.716-1.898-1.631-2.65-.689-.564-1.354-1.165-2.09-1.668-1.474-1.008-3.731-1.635-5.546-1.438"/>
        <path fill="#E3F0FC" d="M176 135c0-3.866-26.863-7-60-7s-60 3.134-60 7 26.863 7 60 7 60-3.134 60-7"/>
        <path fill="#C0E1FF" d="M168 137.5c0-1.933-23.057-3.5-51.5-3.5S65 135.567 65 137.5s23.057 3.5 51.5 3.5 51.5-1.567 51.5-3.5"/>
        <path fill="#2496FF" d="M177 134.252c-.065-1.274-2.014-1.914-2.95-2.267-2.605-.98-5.402-1.473-8.131-1.935-9.858-1.665-19.912-2.255-29.883-2.657a487.559 487.559 0 0 0-38.12-.04c-9.98.379-20.02.97-29.899 2.525-2.983.469-6.001 1.006-8.877 1.961-1.214.403-3.342 1-3.987 2.293-1.416 2.841 7.412 4.17 8.677 4.416 9.056 1.76 18.354 2.378 27.546 2.851 12.622.65 25.28.752 37.913.406 10.634-.29 21.309-.844 31.861-2.27 3.317-.449 6.647-.974 9.888-1.835 1.734-.462 3.914-.98 5.287-2.248.364-.336.648-.682.675-1.2.017-.337-1.789-.095-1.819.497-.061 1.2-2.42 1.733-3.242 1.986-2.832.87-5.788 1.348-8.709 1.78-9.393 1.394-18.916 1.953-28.394 2.313-12.009.456-24.04.464-36.05.026-9.488-.346-19.012-.905-28.423-2.237-3.067-.434-6.153-.931-9.14-1.78-1.15-.327-3.64-.818-4.26-2.064-1.236-2.481 8.216-3.705 9.328-3.895 8.874-1.52 17.916-2.11 26.894-2.535 11.957-.567 23.941-.654 35.906-.326 10.854.298 21.766.844 32.53 2.368 3.324.47 6.699.996 9.914 2.01 1.003.317 3.574.938 3.646 2.354.02.392 1.848.069 1.819-.497M176.937 148.967c-.216-5.816 7.01-6.778 11.17-4.717 5.048 2.501 6.494 9.204 6.77 14.31.673 12.43-5.762 24.27-13.98 33.197-3.746 4.069-7.989 7.442-12.37 10.793-3.834 2.93-7.635 6.075-10.133 10.264-2.54 4.258-3.488 9.37-.695 13.75 2.645 4.15 7.333 6.255 12.17 5.14 3.24-.746 11.055-4.918 8.423-9.204-1.181-1.924-3.754-2.294-5.813-1.93-2.261.4-3.816 1.692-5.406 3.231-.797.772 1 .845 1.492.397.048-.042.092-.088.132-.139.745-.807-.883-.831-1.329-.527-.108.078-.222.15-.338.216-1.016.614.365.996.962.77.682-.258.955-.08 1.547-.026.381.034 1.877-.619 1.057-1.05a4.1 4.1 0 0 0-.49-.233c-.561-.25-2.286.486-1.435.95.138.075.28.143.418.219.554.305 2.243-.385 1.435-.95l-.916-.7c-.501-.42-2.268.165-1.687.749.09.088.178.179.265.27l1.687-.748c-1.061-1.095-1.737-1.975-1.969-3.498-.11-.726-1.874-.252-1.827.488.005.087.01.174.018.26.053.67 1.82.281 1.832-.339.042-2.033.726-3.594 1.74-5.33.472-.807-1.37-.678-1.72-.109l-.142.233c-.513.834 1.354.574 1.72.108.999-1.274 2.374-2.568 3.2-3.934.526-.871-1.296-.515-1.606-.252-.147.124-.305.274-.341.47-.131.715 1.208.463 1.5.234 6.679-5.22 13.368-10.112 19.068-16.45 5.187-5.768 9.49-12.334 12.31-19.565 4.83-12.381 5.769-30.1-6.396-38.772-6.29-4.482-14.634-4.763-21.117-.55-1.035.673.513 1.084 1.166.66 6.43-4.18 14.574-2.83 20.148 2.151 4.844 4.327 7.09 10.77 7.606 17.089 1.139 13.908-5.572 27.6-14.557 37.858-5.744 6.557-12.566 11.584-19.393 16.92l1.501.234c-.117.195-.119.234-.004.117l-1.606-.252c-.482.799-1.336 1.458-1.92 2.2-.446.565-.837 1.17-1.28 1.734l1.72.108.144-.232-1.72-.109c-1.07 1.832-1.814 3.489-1.858 5.63l1.832-.339a8.633 8.633 0 0 1-.018-.26l-1.827.487c.25 1.642.96 2.574 2.109 3.758.493.51 2.233-.182 1.687-.748a12.799 12.799 0 0 0-.265-.271l-1.687.749c.435.366.702.574 1.168.9l1.435-.949c-.138-.076-.28-.144-.418-.22-.478.318-.957.634-1.435.95a4.1 4.1 0 0 1 .49.234l1.056-1.051c-1.153-.104-1.855-.131-2.983.296l.962.77a3.65 3.65 0 0 0 .338-.216l-1.329-.528c-.04.05-.084.096-.132.138l1.492.397c1.852-1.794 5.01-3.975 7.443-1.698 2.493 2.334-.587 4.984-2.533 6.363-5.38 3.813-12.202 1.515-14.814-4.393-2.24-5.066.264-10.604 3.598-14.553 3.132-3.71 7.182-6.468 10.996-9.42 8.145-6.305 15.286-14.318 19.582-23.726 2.284-5.002 3.781-10.426 3.915-15.94.117-4.803-.632-10.547-3.614-14.504-2.634-3.494-7.076-4.754-11.294-4.015-3.85.675-6.888 3-6.735 7.142.025.676 1.856.289 1.828-.487M56.696 147.429c-.801-3.593-4.322-5.097-7.727-5.26-3.78-.183-7.515 1.258-9.884 4.26-2.97 3.764-3.825 9.333-3.805 13.984.023 5.31 1.286 10.558 3.358 15.435 3.984 9.374 10.821 17.517 18.747 23.855 3.612 2.89 7.507 5.47 10.756 8.786 3.356 3.426 6.512 8.197 5.995 13.205-.32 3.105-2.163 6.017-4.747 7.764-2.93 1.98-6.547 1.717-9.543.022-1.926-1.089-5.78-3.646-4.544-6.287 1.71-3.654 6.222-.555 8.025 1.193.561-.25 1.122-.5 1.684-.748a1.112 1.112 0 0 1-.132-.138l-1.558.848c.108.079.22.15.338.217l1.26-1.018c-1.015-.385-1.67-.28-2.699-.188l.272 1.01c.158-.088.32-.166.488-.233l-.96-.77c-.136.075-.28.144-.417.22l1.164.658c.457-.32.776-.571 1.203-.93l-1.49-.397c-.089.089-.177.18-.264.27-.763.792 1.008.894 1.49.397 1.19-1.231 1.947-2.212 2.207-3.92l-1.834.19c-.005.088-.01.175-.018.262l1.833-.191c-.044-2.204-.771-3.874-1.87-5.757l-1.684.748.143.233 1.684-.748c-.442-.564-.83-1.17-1.276-1.733-.587-.74-1.434-1.397-1.918-2.2l-1.684.75c.033.07.065.085.098.045l1.629-.718c-6.098-4.773-12.255-9.253-17.573-14.933-4.823-5.151-8.973-10.957-11.925-17.375-5.277-11.47-7.704-27.608 1.375-37.945 2.436-2.774 5.714-4.871 9.331-5.711 4.686-1.088 8.475.382 12.338 2.963.563.377 2.22-.423 1.433-.949-3.003-2.006-6.17-3.666-9.874-3.593a19.922 19.922 0 0 0-9.204 2.49c-6.017 3.316-9.706 9.384-11.122 15.97-3.178 14.789 3.586 30.21 12.912 41.445 6.067 7.31 13.454 12.778 20.876 18.587.434.34 1.747-.067 1.628-.718-.025-.136-.14-.224-.238-.307-.474-.403-2.153-.03-1.684.748.483.8 1.329 1.459 1.918 2.2.447.561.835 1.168 1.276 1.732.422.54 2.125-.03 1.684-.748l-.143-.233c-.359-.584-2.108.022-1.684.748.986 1.69 1.68 3.225 1.72 5.2.018.835 1.78.5 1.834-.191.008-.087.014-.174.019-.261.053-.834-1.73-.49-1.834.19-.217 1.43-.872 2.31-1.863 3.334l1.49.396c.086-.092.174-.182.264-.27.805-.811-1.012-.798-1.49-.397l-.877.669c-1.051.737.538 1.004 1.164.658.137-.075.28-.143.417-.219.997-.544-.33-1.05-.96-.77-.168.068-.33.145-.489.234-.736.388-.62 1.09.272 1.01.677-.061 1.142-.124 1.823.134.496.188 2.062-.533 1.261-1.018a3.687 3.687 0 0 1-.338-.216c-.441-.302-2.106.253-1.558.849.04.05.084.096.132.138.51.466 2.248-.2 1.684-.748-2.637-2.557-6.722-4.638-10.17-2.052-4.132 3.098.632 7.181 3.573 8.844 4.09 2.313 9.108 2.096 12.835-.822 3.718-2.91 5.535-7.512 4.43-12.13-2.446-10.227-13.468-15.32-20.555-21.933-8.458-7.892-15.473-18.042-17.482-29.6-.589-3.39-.715-6.86-.212-10.27.47-3.192 1.358-6.794 3.512-9.298 3.393-3.946 12.535-4.718 13.93 1.539.16.715 1.989.25 1.824-.487"/>
        <path fill="#FFF" d="M116.912 177.948l6.344 13.36c.24.503.7.852 1.232.93l14.108 2.104c1.34.2 1.879 1.92.913 2.912l-10.175 10.444c-.383.394-.557.96-.465 1.515l2.451 14.696c.233 1.396-1.164 2.465-2.363 1.809l-12.633-6.905a1.567 1.567 0 0 0-1.519.005l-12.593 6.98c-1.195.662-2.598-.398-2.373-1.795l2.367-14.711a1.76 1.76 0 0 0-.474-1.511l-10.234-10.383c-.971-.986-.442-2.71.897-2.918l14.095-2.188a1.64 1.64 0 0 0 1.226-.938l6.268-13.397a1.601 1.601 0 0 1 2.928-.009"/>
        <path fill="#2496FF" d="M116.013 178.689l3.346 6.885 2.231 4.59c.325.67.626 1.632 1.165 2.182.683.697 1.813.703 2.716.835l4.837.705 5.398.786c.757.11 1.7.1 2.426.354 2.288.801.394 2.548-.48 3.425l-3.49 3.5c-1.814 1.82-3.838 3.56-5.502 5.52-1.453 1.712-.056 5.338.275 7.278l.939 5.5c.174 1.02.626 2.296.568 3.333-.098 1.757-.858 1.194-1.706.74l-4.197-2.241c-2.451-1.31-4.886-2.867-7.437-3.973-2.078-.9-4.432 1-6.186 1.95l-4.927 2.668c-1.209.655-2.448 1.525-3.731 2.022-.145.056-.482.363-.644.349-.933-.081-.89-1.337-.847-2.006.085-1.305.436-2.646.648-3.936.522-3.168 1.127-6.335 1.567-9.516.305-2.205-1.475-3.307-2.919-4.738l-7.137-7.077c-.681-.676-1.842-2-.533-2.682.916-.476 2.622-.397 3.636-.55 3.241-.493 6.486-.965 9.724-1.476 2.385-.376 2.923-1.776 3.865-3.743l4.435-9.263c.308-.644.988-2.898 2.026-1.307.335.515 2.104-.08 1.69-.716-.959-1.47-3.221-1.398-4.336-.093-.597.698-.92 1.739-1.31 2.552l-4.654 9.72c-.315.658-.55 1.495-1.191 1.784-1.102.494-2.852.432-4.039.612-3.22.488-6.492.843-9.688 1.47-1.262.247-2.658 1.005-2.545 2.508.077 1.013 1.033 1.706 1.702 2.368l7.818 7.752c.767.76 1.685 1.387 1.717 2.59.03 1.058-.374 2.278-.546 3.32-.567 3.444-1.194 6.884-1.702 10.337-.448 3.046 2.073 3.55 4.397 2.296 3.078-1.661 6.15-3.332 9.226-4.997.596-.323 2.04-1.5 2.747-1.489.61.01 1.843 1.01 2.351 1.281l9.573 5.114c.9.48 1.683.939 2.76.74 1.521-.28 2.39-1.396 2.206-2.91-.391-3.228-1.1-6.45-1.648-9.656-.233-1.366-.607-2.78-.71-4.163-.084-1.136.388-1.601 1.112-2.328l7.632-7.656c.637-.639 1.426-1.26 1.947-2.007.996-1.432.06-2.858-1.458-3.223-3.076-.74-6.391-.931-9.521-1.387-1.379-.201-2.865-.273-4.217-.615-1.016-.257-1.26-.847-1.676-1.703a77346.354 77346.354 0 0 0-5.882-12.103c-.307-.632-2.087-.06-1.82.488"/>
        <path fill="#FFF" d="M162.346 123.552c-2.187 1.419-4.926 6.448-4.926 6.448s-1.453-5.862-3.128-8.236c-1.715-2.432-6.292-5.467-6.292-5.467s4.979-.722 7.107-2.103c2.128-1.38 5.684-6.194 5.684-6.194s1.092 4.788 2.808 7.22c1.51 2.143 6.401 5.665 6.401 5.665s-5.23 1.095-7.654 2.667"/>
        <path fill="#2496FF" d="M161.793 123.704c-2.29 1.605-3.899 4.258-5.24 6.665l1.79-.206c-.685-2.692-1.486-5.631-3.007-7.98-1.565-2.42-4.287-4.265-6.666-5.83l-.844 1.024c2.71-.397 5.837-.921 8.124-2.516 2.267-1.581 4.077-4.033 5.727-6.224l-1.789.205c.634 2.688 1.515 5.71 3.34 7.843 1.713 2.002 3.983 3.632 6.12 5.156l.594-.976c-2.783.583-5.696 1.367-8.149 2.84-1.068.64.524 1.01 1.166.624 2.165-1.3 4.798-1.937 7.254-2.451.403-.084 1.138-.587.593-.975-2.051-1.463-4.224-3.04-5.87-4.965-1.756-2.054-2.59-4.998-3.2-7.59-.173-.73-1.533-.136-1.79.205-1.413 1.877-2.934 3.831-4.742 5.344-1.89 1.58-4.767 2.023-7.148 2.372-.38.056-1.526.574-.844 1.023 2.3 1.512 4.906 3.286 6.416 5.637 1.455 2.266 2.21 5.138 2.868 7.73.173.68 1.562.2 1.789-.207 1.196-2.147 2.633-4.693 4.674-6.123 1.024-.717-.54-1.063-1.166-.625"/>
        <path fill="#FFF" d="M74.925 69.02c-1.493 2.185-2.16 7.98-2.16 7.98s-3.51-4.948-5.934-6.53C64.348 68.85 59 67.777 59 67.777s4.326-2.615 5.78-4.741C66.231 60.909 67.731 55 67.731 55s2.78 4.078 5.263 5.698C75.183 62.126 81 63.536 81 63.536s-4.42 3.064-6.075 5.484"/>
        <path fill="#2496FF" d="M74.1 67.829c-1.464 2.206-1.914 5.138-2.236 7.703l1.777-.463c-1.676-2.21-3.575-4.652-5.952-6.18-2.365-1.518-5.472-2.19-8.22-2.716l.026.82c2.286-1.31 4.984-2.919 6.382-5.177 1.359-2.196 2.091-4.874 2.762-7.335l-1.778.463c1.602 2.19 3.557 4.58 6.053 5.83 2.347 1.177 5.061 1.827 7.619 2.415-.01-.273-.018-.546-.027-.82-2.326 1.526-4.712 3.264-6.405 5.46-.523.677 1.337.587 1.728.08 1.533-1.987 3.737-3.554 5.841-4.934.36-.236.523-.694-.026-.82-2.438-.561-5.04-1.17-7.275-2.29-2.39-1.2-4.267-3.545-5.803-5.645-.368-.505-1.636-.052-1.777.463-.617 2.269-1.304 4.665-2.458 6.734-1.238 2.219-3.816 3.718-6 4.97-.371.212-.516.716.025.82 2.633.505 5.628 1.118 7.878 2.594 2.268 1.487 4.09 3.869 5.702 5.992.346.457 1.707.093 1.777-.463.309-2.455.718-5.313 2.116-7.42.485-.732-1.372-.618-1.728-.081"/>
        <path fill="#FFF" d="M137.98 84.135c-2.455.791-6.34 4.865-6.34 4.865s.063-5.924-.955-8.599c-1.042-2.739-4.685-6.775-4.685-6.775s4.965.576 7.354-.194c2.39-.77 7.006-4.432 7.006-4.432s-.143 4.815.9 7.555c.918 2.413 4.74 6.99 4.74 6.99s-5.299-.287-8.02.59"/>
        <path fill="#2496FF" d="M137.619 84.19c-2.605.951-4.85 3.12-6.744 5.071l1.663.078c.023-2.728.02-5.73-.84-8.342-.888-2.7-3.01-5.125-4.9-7.208l-1.194.92c2.753.305 5.973.563 8.589-.51 2.52-1.035 4.805-2.8 6.935-4.463l-1.663-.078c-.07 2.719-.009 5.805 1.194 8.293 1.129 2.334 2.882 4.453 4.547 6.433l1.194-.92c-2.813-.141-5.821-.14-8.543.643-1.094.315-.84 1.315.27.995 2.412-.695 5.086-.658 7.58-.532.348.017 1.659-.368 1.195-.92-1.602-1.904-3.31-3.947-4.41-6.185-1.174-2.393-1.256-5.396-1.188-8.012.021-.815-1.336-.333-1.663-.077-1.801 1.407-3.754 2.91-5.855 3.843-2.224.99-5.116.648-7.49.385-.342-.038-1.67.393-1.194.919 1.823 2.009 3.908 4.36 4.763 6.96.83 2.523.856 5.429.834 8.06-.007.77 1.345.405 1.663.078 1.692-1.744 3.681-3.753 6.004-4.602 1.194-.436.116-1.146-.747-.83"/>
        <path fill="#FFF" d="M148.19 33.207C145.61 33.208 140.67 36 140.67 36s1.87-5.837 1.718-8.804c-.155-3.04-2.389-8.189-2.389-8.189s4.548 2.148 7.056 2.147c2.508-.001 8.02-2.154 8.02-2.154s-1.608 4.715-1.452 7.755c.137 2.679 2.376 8.419 2.376 8.419s-4.954-1.968-7.81-1.967"/>
        <path fill="#2496FF" d="M147.306 31.329c-2.877.12-5.763 1.551-8.256 2.857l1.5.2c.857-2.522 1.75-5.303 1.734-7.98-.015-2.767-1.263-5.629-2.413-8.124l-1.64.691c2.504 1.094 5.425 2.29 8.217 2.074 2.735-.212 5.488-1.199 8.044-2.125l-1.293-.307c-.889 2.468-1.737 5.298-1.405 7.931.32 2.528 1.363 5.054 2.339 7.404l1.64-.691c-2.612-.961-5.423-1.862-8.234-1.938-.746-.02-1.93 1.05-.693 1.084 2.533.068 5.122.891 7.48 1.759.354.13 1.923-.008 1.64-.692-.936-2.254-1.878-4.63-2.281-7.036-.442-2.631.462-5.546 1.354-8.022.22-.615-1.08-.385-1.294-.307-2.13.772-4.43 1.591-6.699 1.833-2.464.262-5.16-.907-7.368-1.872-.349-.152-1.942.037-1.64.691 1.126 2.445 2.393 5.286 2.4 8 .007 2.62-.888 5.358-1.728 7.828-.24.707 1.277.317 1.498.201 2.061-1.08 4.502-2.292 6.87-2.39.945-.04 1.492-1.122.228-1.07"/>
        <path fill="#FFF" d="M213.135 94.82c-2.548.195-7.227 3.18-7.227 3.18s1.42-5.606 1.053-8.374c-.376-2.835-2.961-7.488-2.961-7.488s4.653 1.67 7.133 1.48c2.479-.189 7.769-2.618 7.769-2.618s-1.243 4.536-.867 7.371c.331 2.498 2.965 7.705 2.965 7.705s-5.041-1.472-7.865-1.256"/>
        <path fill="#2496FF" d="M213.253 95.539c-2.843.352-5.584 2.019-7.959 3.592l1.487.21c.643-2.683 1.27-5.6 1.104-8.376-.178-2.945-1.68-5.908-3.027-8.464l-1.457.792c2.573.955 5.534 1.936 8.29 1.483 2.622-.43 5.225-1.648 7.622-2.793l-1.283-.323c-.683 2.651-1.312 5.701-.778 8.43.514 2.627 1.744 5.195 2.893 7.584l1.457-.793c-2.68-.809-5.543-1.484-8.349-1.342-.935.047-1.48 1.187-.225 1.124 2.489-.126 5.1.582 7.478 1.3.318.096 1.74-.201 1.457-.792-1.102-2.29-2.22-4.71-2.807-7.202-.645-2.733.009-5.845.698-8.52.166-.641-1.033-.443-1.282-.323-2.074.99-4.281 2.023-6.528 2.495-2.43.51-5.265-.563-7.546-1.41-.314-.116-1.755.229-1.458.792 1.29 2.448 2.721 5.268 2.998 8.072.274 2.772-.438 5.795-1.082 8.478-.176.736 1.232.38 1.487.212 1.942-1.287 4.258-2.814 6.585-3.102.915-.114 1.48-1.28.225-1.124"/>
        <path fill="#BBF9BC" d="M23.756 54.448c-1.85.005-3.711 1.434-4.611 2.913-.743 1.22-.53 2.69-.23 3.086.135-.018.472-.098 1.036-.454 1.753-1.106 3.365-3.4 3.805-5.545zm-5.82 11.473a5.615 5.615 0 0 1-2.893-1.44c-2.41-2.301-2.731-6.68-.73-9.97 1.515-2.49 4.467-4.931 7.963-5.488a22.874 22.874 0 0 0-2.325-3.53 2.743 2.743 0 0 1 .46-3.894 2.847 2.847 0 0 1 3.956.452c1.843 2.29 3.364 4.96 4.522 7.934 2.263.837 4.573 2.132 6.983 3.91a2.743 2.743 0 0 1 .566 3.88 2.846 2.846 0 0 1-3.943.556 27.354 27.354 0 0 0-3.38-2.158c-.901 3.465-3.305 6.708-6.123 8.487-2.034 1.283-3.74 1.485-5.057 1.261z"/>
        <path fill="#2496FF" d="M29.96 52.121c.886.47 1.745.978 2.581 1.536.843.563 2.154 1.242 2.53 2.267.395 1.075-.086 2.625-1.361 2.746-1.05.099-2.306-1.219-3.128-1.757-.66-.433-2.173.492-1.336 1.04 1.313.86 2.475 2.083 4.131 2.046 1.313-.03 2.626-.764 3.24-1.976 1.76-3.468-2.983-5.701-5.321-6.942-.685-.363-2.198.584-1.336 1.04"/>
        <path fill="#2496FF" d="M19.748 55.621c-1.622 1.031-4.148 3.577-2.795 5.712.18.284.758.123 1.003.066 1.979-.458 3.781-2.188 4.678-3.956 1.256-2.476.673-5.262-.38-7.703-.619-1.434-1.553-2.552-2.343-3.872-.721-1.203-1.215-4.482 1.332-3.962 1.595.327 2.75 2.942 3.487 4.215.817 1.41 1.552 2.88 1.948 4.467.791 3.175.671 6.861-.915 9.769-1.767 3.239-5.881 7.555-9.847 5.277-2.558-1.468-3.37-4.76-2.913-7.504.593-3.558 3.353-6.535 6.642-7.872 1.204-.49.074-.766-.651-.472-5.039 2.048-9.502 7.333-7.508 13.053 1.833 5.262 7.768 4.97 11.656 2.234 5.33-3.75 7.264-10.702 4.799-16.725-.644-1.572-1.52-3.071-2.474-4.476-.71-1.045-1.444-2.306-2.72-2.706-1.498-.468-3.552.085-4.593 1.259-2.233 2.517 1.262 5.506 2.26 7.807.742 1.709 1.346 3.717 1.038 5.594-.29 1.758-1.757 4.507-3.664 4.949l1.004.066c-1.219-1.922.913-4.197 2.375-5.126.778-.493-1.058-.323-1.419-.094"/>
        <path fill="#BBF9BC" d="M179.074 95.997c.568.348.906.424 1.041.44.293-.402.484-1.877-.277-3.09-.92-1.468-2.799-2.872-4.646-2.849.471 2.142 2.116 4.417 3.882 5.499zm-2.963 4.72c-2.84-1.74-5.289-4.952-6.241-8.411a27.262 27.262 0 0 0-3.34 2.213 2.834 2.834 0 0 1-3.943-.499 2.756 2.756 0 0 1 .505-3.896c2.378-1.817 4.663-3.149 6.909-4.021 1.11-2.997 2.587-5.694 4.391-8.017a2.834 2.834 0 0 1 3.941-.512 2.756 2.756 0 0 1 .518 3.895 22.92 22.92 0 0 0-2.266 3.571c3.498.506 6.48 2.909 8.031 5.381 2.048 3.265 1.796 7.657-.575 10a5.596 5.596 0 0 1-2.865 1.485c-1.31.244-3.016.067-5.065-1.188z"/>
        <path fill="#2496FF" d="M166.888 87.14c-2.322 1.397-7.091 3.884-5.607 7.657.53 1.347 1.74 2.178 3.047 2.202 1.753.033 2.968-1.394 4.338-2.409.976-.722-.425-1.517-1.17-.965-.756.56-1.75 1.742-2.664 1.86-1.327.172-2.214-1.446-2.004-2.74.316-1.954 3.428-3.516 4.85-4.372 1.035-.623.106-1.772-.79-1.233"/>
        <path fill="#2496FF" d="M176.632 91.942c1.499.922 3.867 3.26 2.638 5.268l1.67-.51c-3.082-.666-4.788-4.573-4.47-7.4.193-1.706.835-3.423 1.638-4.933.692-1.301 1.965-2.471 2.235-3.961.386-2.122-1.465-3.516-3.422-3.4-2.256.135-3.424 1.489-4.597 3.277-3.77 5.754-4.98 13.105-.174 18.68 3.12 3.618 8.701 5.83 12.69 2.125 2.222-2.063 2.593-5.528 1.732-8.303-1.037-3.34-3.96-5.893-7.142-7.133-.493-.192-1.849.565-1.743.607 2.987 1.163 5.688 3.426 6.854 6.478 1.046 2.741.907 6.571-1.463 8.627-3.283 2.849-7.908-1.217-9.845-3.849-1.967-2.672-2.559-5.612-2.377-8.881.184-3.323 1.761-7.364 4.07-9.836.775-.83 1.49-1.37 2.54-.615a2.64 2.64 0 0 1 1.04 1.6c.345 1.651-1.016 2.942-1.807 4.216-1.456 2.345-2.643 5.65-1.912 8.421.547 2.075 2.437 4.48 4.627 4.954.418.09 1.423-.108 1.67-.51 1.294-2.115-1.083-4.528-2.71-5.529-.426-.262-1.92.497-1.742.607"/>
        <path fill="#DEF3F9" d="M113.695 49.624c-.066 1.706.202 3.305.828 4.638.198.423.802 1.712 2.46 1.262 1.237-.335 2.41-1.518 2.267-3.132-.055-.627-.293-1.427-1.653-2.064-1.09-.51-2.498-.721-3.902-.704zm6.094 10.834c-.44.204-.891.37-1.345.492-3.76 1.02-7.288-.666-8.99-4.295-.758-1.617-1.195-3.43-1.323-5.337-1.526 1.324-3.462 3.883-3.529 5.372-.01.241.025.27.118.35a2.817 2.817 0 0 1 .34 3.96 2.793 2.793 0 0 1-3.947.34c-1.445-1.22-2.193-2.961-2.106-4.901.195-4.349 4.53-8.806 6.478-10.172.947-.664 2.1-1.186 3.361-1.56a23.166 23.166 0 0 1 2.775-6.243c3.419-5.391 8.37-8.477 13.585-8.464A2.806 2.806 0 0 1 128 32.817a2.806 2.806 0 0 1-2.807 2.803c-3.207-.007-6.515 2.183-8.847 5.861-.526.828-.975 1.69-1.349 2.568 1.793.119 3.521.508 4.968 1.186 2.877 1.346 4.605 3.712 4.865 6.663.36 4.083-2.101 7.196-5.041 8.56z"/>
        <path fill="#2496FF" d="M104.227 51.687c-.849 1.133-2.176 2.77-1.657 4.244.185.526.787.837.89 1.497.181 1.168-.67 2.591-2.174 2.15-1.213-.357-2.096-2.05-2.337-3.185-.902-4.253 3.084-9.198 6.595-11.178 1.038-.585.1-1.58-.79-1.078-4.357 2.456-9.851 9.143-6.938 14.343 1.239 2.212 4 3.454 6.174 1.665.928-.763 1.454-1.989 1.229-3.188-.125-.662-.613-1.023-.824-1.586-.38-1.014.707-2.327 1.312-3.135.673-.899-.98-1.218-1.48-.55M115.9 44.016c4.015.794 7.62 3.193 8.001 7.502.402 4.54-3.5 9.543-8.508 8.579-4.375-.843-6.561-5.628-6.635-9.642-.078-4.275 1.076-8.847 3.355-12.483 2.303-3.676 5.872-7.093 10.31-7.975 2.158-.429 5.158.068 4.625 2.888-.396 2.093-2.88 1.712-4.506 2.23-3.083.984-5.57 3.232-7.28 5.896-2.091 3.26-3.545 8.46-2.146 12.218.914 2.457 3.357 2.683 5.444 1.245 1.076-.742 1.828-2.063 1.442-3.379-.478-1.63-2.501-2.12-3.98-2.364-.458-.077-2.071.653-1.524.744 1.99.33 4.653 1.434 3.47 3.899-.654 1.366-1.962 1.287-2.625.186-.603-1.004-.818-2.293-.867-3.445-.213-4.977 2.312-10.757 6.606-13.52 1.855-1.193 3.767-.816 5.664-1.622 1.258-.534 2.265-1.608 2.254-3.024-.032-3.861-5.1-3.052-7.53-2.4-3.565.959-6.702 3.089-9.084 5.846-3.125 3.616-4.572 7.679-5.193 12.322-.545 4.064-.09 8.796 3.385 11.585 2.58 2.07 6.13 2.09 9.108.906 3.579-1.42 6.195-4.684 6.116-8.577-.097-4.746-4.007-7.495-8.377-8.359-.458-.09-2.083.634-1.525.744"/>
        <path fill="#FFF" d="M69.784 105.193c-1.676-.244-3.282-.148-4.664.325-.438.15-1.774.607-1.506 2.28.2 1.248 1.242 2.522 2.85 2.552.623.011 1.438-.138 2.21-1.405.62-1.015.978-2.374 1.11-3.752zm-11.336 4.838a8.298 8.298 0 0 1-.342-1.37c-.606-3.793 1.431-7.076 5.193-8.364 1.676-.574 3.51-.813 5.405-.738-1.144-1.635-3.463-3.802-4.925-4.024-.236-.036-.269-.004-.357.08a2.807 2.807 0 0 1-3.942-.084 2.743 2.743 0 0 1 .084-3.905c1.357-1.29 3.154-1.84 5.059-1.55 4.269.646 8.205 5.365 9.346 7.418.554.999.947 2.183 1.182 3.46a23.027 23.027 0 0 1 5.864 3.375c4.955 3.919 7.474 9.097 6.906 14.21-.168 1.516-1.545 2.61-3.076 2.444-1.53-.167-2.635-1.531-2.467-3.047.348-3.143-1.462-6.617-4.842-9.29a17.696 17.696 0 0 0-2.39-1.591c-.307 1.745-.876 3.399-1.698 4.746-1.634 2.68-4.152 4.126-7.09 4.072-4.066-.076-6.877-2.815-7.91-5.842z"/>
        <path fill="#2496FF" d="M67.7 97.041c-1.02-1.01-2.688-2.736-4.26-2.262-1.282.386-2.666 1.31-3.439-.593-.76-1.873.723-3.458 2.357-3.908 4.397-1.213 9.293 4.524 10.861 8.41.276.684 2.007.12 1.756-.502-2.066-5.118-8.03-10.929-13.603-8.694-2.333.936-4.816 3.952-2.352 6.334.865.836 2.087 1.043 3.202.785.34-.079 1.187-.667 1.478-.68.611-.026 1.9 1.391 2.373 1.86.474.47 2.13-.25 1.626-.75M73.785 109.131c-1.505 4.816-5.875 8.473-10.856 5.514-3.095-1.839-4.848-5.876-3.813-9.392 1.545-5.252 7.597-5.64 12.036-4.555 4.335 1.06 7.985 2.77 11.135 6.052 2.675 2.787 4.588 6.369 4.794 10.294.04.767.17 2.673-.533 3.268-.628.532-2.029.494-2.572-.076-.472-.495-.59-.942-.657-1.575-.176-1.686-.035-3.123-.72-4.756-1.436-3.42-4.421-6.042-7.744-7.52-3.111-1.383-7.056-2.492-10.348-1.057-2.444 1.066-2.502 4.177-.041 5.409 2.977 1.49 5.158-1.173 5.889-3.798.184-.664-1.654-.405-1.83.228-.406 1.457-1.154 3.876-3.072 2.378-.686-.536-1.274-1.76-.972-2.646.437-1.28 2.55-1.211 3.537-1.142 1.626.114 3.269.667 4.775 1.271 4.114 1.648 8.284 5.371 8.675 10.098.138 1.657-.287 3.122 1.29 4.242 1.123.798 2.668.794 3.898.247 3.257-1.45 2.447-6.068 1.54-8.805-2.66-8.033-11.11-13.133-19.207-13.767-3.476-.272-7.599.733-10.012 3.419-2.371 2.638-2.541 6.493-.876 9.558 1.807 3.325 5.432 5.115 9.15 4.68 4.33-.508 7.11-3.785 8.364-7.797.201-.645-1.634-.401-1.83.228"/>
        <path fill="#FFFAC3" d="M187.432 42.731l-7.062-6.295a1.124 1.124 0 0 1-.107-1.556l10.582-12.502a1.05 1.05 0 0 1 1.482-.131l7.277 6.084c.471.394.53 1.11.132 1.58l-10.797 12.712a1.05 1.05 0 0 1-1.507.108"/>
        <path fill="#2496FF" d="M197.909 32.377l-7.173 8.107-1.724 1.948c-.12.136-.304.464-.467.528-.524.209.368.137-.072-.096-1.515-.803-2.935-2.503-4.23-3.607-.866-.738-3.825-2.394-3.231-3.876.378-.945 1.765-1.996 2.431-2.748 2.747-3.104 5.396-6.333 8.259-9.333.55-.578.093-.34.464-.026.783.663 1.58 1.311 2.37 1.967l4.636 3.847c.483.401 2.223-.311 1.746-.707l-4.916-4.08c-1.29-1.07-2.658-2.818-4.539-2.155-1.3.458-2.262 2.006-3.127 2.983l-5.261 5.946c-1.203 1.358-2.746 2.713-3.743 4.23-1.064 1.617.672 2.533 1.792 3.489 1.816 1.547 3.57 3.35 5.53 4.715 1.366.951 2.706.41 3.753-.68 3.215-3.342 6.168-6.97 9.24-10.442.508-.574-1.356-.441-1.738-.01"/>
        <path fill="#FFFAC3" d="M116.402 128.175l-7.735 2.777c-.49.176-1.048-.15-1.245-.73l-5.353-15.74c-.192-.563.03-1.16.501-1.35l7.66-3.074c.495-.199 1.073.129 1.274.722l5.428 16.036c.195.577-.042 1.184-.53 1.36"/>
        <path fill="#2496FF" d="M111.499 113.788l3.36 9.808c.432 1.26.968 2.53 1.309 3.82.23.87.127.672-.66.953l-3.03 1.08-2.777.989c-.752.268-.96.588-1.384-.068-.596-.923-.829-2.419-1.184-3.455l-3.947-11.52c-.12-.35-.532-1.194-.294-1.564.23-.358 1.667-.624 2.048-.767l5.505-2.059c1.196-.447.124-1.261-.77-.926l-5.661 2.117c-1.386.519-3.336.89-2.969 2.83.281 1.482 1.03 3.003 1.516 4.425l2.514 7.338c.454 1.325.776 2.865 1.41 4.115.92 1.813 2.628.946 4.074.43 2.01-.716 4.108-1.32 6.07-2.162 1.568-.675 1.574-1.698 1.086-3.123l-4.373-12.762c-.256-.747-2.09-.22-1.843.501"/>
        <path fill="#FFFAC3" d="M91.151 33.415l-8.04.583c-.511.037-.958-.41-.999-1l-1.109-15.992c-.04-.573.322-1.07.817-1.124l8.045-.877c.52-.057.986.396 1.027.998l1.105 16.287c.04.586-.338 1.088-.846 1.125"/>
        <path fill="#2496FF" d="M89.259 19.386l.685 10.2c.083 1.236.515 2.96.28 4.187-.085.447.195.246-.038.433-.134.107-.584.043-.76.057a9279.037 9279.037 0 0 1-6.042.452c-.819.061-1.24.33-1.43-.657-.224-1.167-.166-2.472-.245-3.657l-.812-12.095c-.008-.112-.222-1.354-.207-1.378.14-.215 1.918-.174 2.14-.195l5.753-.522c.955-.087 1.454-1.317.205-1.204l-6.08.553c-1.577.143-3.581.08-3.696 2.206-.07 1.31.183 2.722.27 4.03l.533 7.924c.104 1.55 0 3.318.325 4.84.4 1.88 2.227 1.419 3.63 1.314 2.085-.156 4.287-.115 6.347-.475 1.726-.302 1.966-1.48 1.863-3.013l-.907-13.502c-.049-.728-1.869-.31-1.814.502"/>
        <path fill="#FFFAC3" d="M43.723 88.216l-6.046 5.562c-.383.353-1.021.277-1.424-.17L25.311 81.464c-.392-.435-.417-1.063-.056-1.42l5.864-5.802c.38-.375 1.035-.306 1.447.151L43.69 86.776c.4.445.415 1.089.033 1.44"/>
        <path fill="#2496FF" d="M33.435 76.516l6.85 7.341c.79.848 2.117 1.836 2.668 2.86.717 1.333-2.025 2.912-2.89 3.68l-2.165 1.925c-.144.127-.534.601-.713.633-.507.09.234.055-.085-.225-.874-.767-1.624-1.74-2.414-2.587L26.64 81.52c-.41-.44-1.047-.914-.768-1.59.205-.499 1.19-1.09 1.583-1.45l4.254-3.9c.776-.71-1.027-.712-1.475-.302l-4.254 3.899c-1.038.95-2.74 1.936-1.603 3.447.941 1.25 2.203 2.36 3.274 3.508l5.115 5.483c.859.92 1.679 2.05 2.66 2.851 1.556 1.272 2.99.01 4.16-1.03 1.61-1.43 3.4-2.785 4.882-4.338 1.089-1.14.305-1.959-.555-2.88l-8.774-9.404c-.432-.463-2.185.187-1.704.703"/>
        <path fill="#F4CAC1" d="M137 110a5 5 0 1 1-10 0 5 5 0 0 1 10 0"/>
        <path fill="#2496FF" d="M132.706 105.3c4.407.208 6.509 6.223 2.021 8.07-2.014.828-4.296-.14-5.317-1.889-1.074-1.841-.568-3.913.989-5.349.836-.77-.965-1.093-1.572-.534-4.727 4.356.535 11.262 6.504 8.935 5.876-2.29 4.313-10.233-1.982-10.532-.923-.044-1.906 1.238-.643 1.299"/>
        <path fill="#F4CAC1" d="M11 85a5 5 0 1 1-10 0 5 5 0 0 1 10 0"/>
        <path fill="#2496FF" d="M5.468 80.809c4.133.206 6.86 5.912 3.078 8.618-2.306 1.65-5.282.174-6.294-2.181-.855-1.99-.27-4.135 1.254-5.613.424-.411-1.36-.234-1.707.102-2.044 1.983-2.49 5.08-.591 7.344 1.7 2.028 4.58 2.333 6.965 1.462 5.8-2.117 4.774-10.227-1.504-10.54-.438-.022-2.145.76-1.2.808"/>
        <path fill="#F4CAC1" d="M124 6a5 5 0 1 1-10 0 5 5 0 0 1 10 0"/>
        <path fill="#2496FF" d="M118.69 1.19c4.285.205 6.568 6.16 2.287 8.201-2.083.994-4.493.006-5.567-1.867-1.07-1.865-.596-4.018.973-5.48.816-.76-1.007-.94-1.546-.437-4.705 4.384.43 11.158 6.366 8.968 5.994-2.212 4.523-10.27-1.832-10.574-.84-.04-1.948 1.128-.68 1.189"/>
        <path fill="#FFF" d="M169 56a5 5 0 1 1-10 0 5 5 0 0 1 10 0"/>
        <path fill="#2496FF" d="M163.476 51.86c4.193.208 6.879 5.997 2.938 8.594-2.285 1.506-5.16.089-6.161-2.22-.857-1.976-.262-4.096 1.258-5.563.462-.446-1.349-.292-1.716.063-2.05 1.977-2.478 5.076-.583 7.334 1.69 2.013 4.589 2.353 6.971 1.48 5.788-2.118 4.764-10.235-1.521-10.548-.475-.023-2.158.81-1.186.86"/>
        <path fill="#FFF" d="M48 117a5 5 0 1 1-10 0 5 5 0 0 1 10 0"/>
        <path fill="#2496FF" d="M42.466 111.783c4.06.203 6.964 6.026 3.086 8.668-2.342 1.595-5.281.188-6.299-2.2-.85-1.996-.276-4.153 1.252-5.638.403-.393-1.365-.205-1.702.123-2.041 1.985-2.498 5.077-.596 7.349 1.705 2.035 4.577 2.322 6.964 1.452 5.797-2.112 4.782-10.222-1.496-10.537-.42-.02-2.139.737-1.209.783"/>
        <path fill="#FFF" d="M103 86a5 5 0 1 1-10 0 5 5 0 0 1 10 0"/>
        <path fill="#2496FF" d="M97.696 82.22c4.276.204 6.554 6.116 2.276 8.14-4.797 2.267-7.913-4.198-4.584-7.292.822-.764-.995-.981-1.553-.464-4.702 4.37.435 11.163 6.372 8.972 5.991-2.212 4.516-10.271-1.841-10.575-.862-.041-1.938 1.158-.67 1.218"/>
        <path fill="#F4CAC1" d="M213 57a5 5 0 1 1-10 0 5 5 0 0 1 10 0"/>
        <path fill="#2496FF" d="M207.703 53.28c4.346.206 6.51 6.121 2.137 8.05-2.044.9-4.373-.025-5.43-1.841-1.073-1.847-.574-3.932.986-5.373.832-.768-.973-1.065-1.567-.517-4.731 4.37.534 11.26 6.499 8.934 5.881-2.293 4.314-10.233-1.976-10.532-.907-.043-1.914 1.218-.65 1.278"/>
        <path fill="#FFF" d="M52 29a5 5 0 1 1-10 0 5 5 0 0 1 10 0"/>
        <path fill="#2496FF" d="M46.47 24.816c4.13.206 6.86 5.902 3.075 8.604-2.306 1.647-5.28.177-6.293-2.176-.855-1.988-.27-4.13 1.254-5.606.43-.416-1.358-.242-1.707.097-2.045 1.982-2.488 5.079-.59 7.342 1.697 2.026 4.58 2.336 6.966 1.465 5.799-2.118 4.771-10.228-1.507-10.542-.443-.021-2.147.769-1.199.816"/>
        <path fill="#EFEFEF" d="M62.876 322.666c-1.716 1.166-2.343 2.567-1.51 4.238 5.794 11.622 31.597 11.684 44.115 11.872 15.744.239 32.128.806 46.294-1.773 5.928-1.08 19.367-1.944 21.653-5.81 5.994-10.151-36.92-13.661-43.864-13.911-11.576-.419-56.889-1.281-66.688 5.384"/>
        <path fill="#E3F0FC" d="M140.654 309c0 3.152-10.847 5.707-24.654 5.707S91.346 312.152 91.346 309L91 325.29c0 3.154 11.193 5.71 25 5.71s25-2.556 25-5.71l-.346-16.29"/>
        <path fill="#2496FF" d="M139.85 308.614c-.165 2.708-5.989 3.452-7.846 3.807-5.493 1.052-11.135 1.333-16.715 1.28-5.36-.053-10.805-.412-16.05-1.597-1.815-.41-6.918-1.295-7.075-3.875-.03-.502-1.81-.106-1.822.497l-.305 14.247c-.032 1.495-.265 2.64 1.008 3.674 2.25 1.822 5.656 2.387 8.39 2.902 10.17 1.913 21.162 1.894 31.357.18 3.088-.522 6.464-1.145 9.207-2.77 1.345-.8 2.026-1.634 2-3.19-.086-5.18-.221-10.36-.332-15.54-.01-.465-1.837-.14-1.823.497l.273 12.795c.025 1.137.447 3.036-.15 4.085-.505.884-1.747 1.326-2.632 1.671-1.83.72-3.791 1.134-5.716 1.48-9.75 1.733-20.214 1.725-29.974.08-2.821-.472-6.565-.98-8.896-2.878-1.13-.918-.923-1.898-.895-3.232l.31-14.498c-.607.165-1.215.33-1.822.497.166 2.75 5.376 3.718 7.283 4.169 6.216 1.469 12.734 1.787 19.094 1.725 5.961-.058 12.073-.456 17.871-1.956 1.93-.5 6.907-1.605 7.071-4.324.04-.642-1.78-.257-1.812.274"/>
        <path fill="#C0E1FF" d="M137.28 306.257c-3.318-1.095-6.865-1.538-10.319-1.843a108.99 108.99 0 0 0-14.83-.284c-4.698.228-9.485.663-14.05 1.903-1.882.512-6.851 1.798-7.058 4.448-.003.038 0 .073.001.109-.019.101-.03.204-.021.31.15 1.926 3.355 2.71 4.748 3.09 3.806 1.034 7.746 1.468 11.665 1.71 8.8.543 18.29.58 26.854-1.897 1.993-.577 5.965-1.644 6.657-4.084.569-2.01-2.317-3.023-3.648-3.462"/>
        <path fill="#2496FF" d="M138.133 305.4c-8.961-2.85-19.17-2.647-28.425-1.983-4.148.297-8.27.874-12.29 2-2.2.617-4.932 1.341-6.55 3.135-4.823 5.342 11.943 6.799 13.86 6.956 8.877.729 18.036.864 26.78-1.12 2.99-.679 6.812-1.412 9.218-3.552.928-.826 1.721-2.115.984-3.345-.722-1.204-2.365-1.682-3.577-2.092-.394-.133-1.994.544-1.511.707 2.371.8 5.198 2.812 2.167 5.125-2.391 1.823-6.137 2.408-8.96 2.936-7.51 1.402-15.278 1.243-22.861.688-2.121-.156-17.121-1.017-14.876-5.835.97-2.082 4.063-2.709 6.018-3.23 3.88-1.035 7.866-1.486 11.857-1.732 8.718-.537 18.226-.631 26.655 2.048.397.126 1.99-.555 1.51-.707"/>
    </g>
</svg>
