<svg xmlns="http://www.w3.org/2000/svg" xmlns:xlink="http://www.w3.org/1999/xlink" width="15" height="14" viewBox="0 0 15 14">
    <defs>
        <path id="a" d="M.017.25h14.735v4.942H.017z"/>
    </defs>
    <g fill="none" fill-rule="evenodd">
        <g transform="translate(0 8.365)">
            <mask id="b" fill="#fff">
                <use xlink:href="#a"/>
            </mask>
            <path fill="#FFF" d="M14.752.81a.561.561 0 0 0-1.125 0v3.258H1.124V.811A.561.561 0 0 0 0 .81v3.585c0 .042.016.078.024.118C.016 4.552 0 4.589 0 4.63c0 .31.251.56.562.56H14.19a.561.561 0 0 0 .562-.56c0-.042-.014-.08-.023-.117.009-.04.023-.076.023-.118V.811z" mask="url(#b)"/>
        </g>
        <path fill="#FFF" d="M7.41.23a.562.562 0 0 0-.561.563v8.21L4.4 6.555a.561.561 0 1 0-.794.795l3.407 3.407a.562.562 0 0 0 .795 0l3.407-3.407a.561.561 0 1 0-.794-.795L7.973 9.003V.793A.562.562 0 0 0 7.411.23z"/>
    </g>
</svg>
