<svg xmlns="http://www.w3.org/2000/svg" width="52" height="32" viewBox="0 0 52 32">
    <g fill="none" fill-rule="evenodd">
        <rect width="51.467" height="31.467" x=".267" y=".267" fill="#FFF" stroke="#E9E9E9" stroke-width=".533" rx="2.133"/>
        <path fill="#26337A" d="M20.55 21.35l1.661-10.173h2.654l-1.66 10.173h-2.654M32.832 11.427A6.633 6.633 0 0 0 30.454 11c-2.624 0-4.471 1.38-4.487 3.357-.016 1.463 1.318 2.278 2.325 2.764 1.034.498 1.381.817 1.377 1.262-.007.682-.825.994-1.588.994-1.063 0-1.627-.154-2.5-.534l-.342-.161-.37 2.277c.618.283 1.765.529 2.956.542 2.789 0 4.6-1.364 4.622-3.475.01-1.16-.698-2.038-2.23-2.764-.927-.472-1.496-.784-1.49-1.262.001-.422.481-.875 1.521-.875a4.705 4.705 0 0 1 1.986.39l.239.117.359-2.205M36.366 17.743c.22-.584 1.057-2.843 1.057-2.843-.015.027.219-.59.353-.97l.18.877s.508 2.428.613 2.936h-2.203zm3.274-6.556h-2.05c-.637 0-1.113.18-1.392.844l-3.941 9.323h2.787s.455-1.255.558-1.53l3.4.005c.08.355.323 1.525.323 1.525h2.463L39.64 11.187zM18.324 11.186l-2.597 6.935-.279-1.41c-.484-1.624-1.99-3.385-3.676-4.267l2.376 8.897 2.81-.002 4.179-10.153h-2.813"/>
        <path fill="#EC982D" d="M13.315 11.179h-4.28l-.035.21c3.33.843 5.534 2.877 6.448 5.322l-.93-4.674c-.16-.645-.626-.836-1.203-.858"/>
    </g>
</svg>
