<?xml version="1.0" encoding="UTF-8"?>
<svg width="50px" height="51px" viewBox="0 0 50 51" version="1.1" xmlns="http://www.w3.org/2000/svg" xmlns:xlink="http://www.w3.org/1999/xlink">
    <!-- Generator: Sketch 60 (88103) - https://sketch.com -->
    <title>wallet</title>
    <desc>Created with Sketch.</desc>
    <g id="Web" stroke="none" stroke-width="1" fill="none" fill-rule="evenodd">
        <g id="wallet" fill="#16449B" fill-rule="nonzero">
            <path d="M49.9902334,23.5216888 L47.5676347,23.5216888 L47.5676347,12.3776142 C47.5676347,9.70592523 45.3941263,7.53241679 42.7224373,7.53241679 L39.4412915,7.53241679 L36.0835489,1.49529541 C35.5717981,0.572666325 34.5979034,0 33.5416824,0 C33.0493823,0 32.5610026,0.126957621 32.1297689,0.366247105 L19.2434195,7.53226601 L4.84925994,7.53226601 C2.17757099,7.53226601 0.00406254729,9.70577445 0.00406254729,12.3774634 L0.00406254729,45.6477485 C0.00406254729,48.3194374 2.17757099,50.4929459 4.84925994,50.4929459 L42.7224373,50.4929459 C45.3941263,50.4929459 47.5676347,48.3194374 47.5676347,45.6477485 L47.5676347,35.8768366 L49.9902334,35.8768366 L49.9902334,23.5216888 Z M42.7224373,9.47040528 C44.2147171,9.47040528 45.4337817,10.6041278 45.5975299,12.054792 L41.9558666,12.054792 L40.5196773,9.47040528 L42.7224373,9.47040528 Z M33.0726026,2.06012112 C33.5270566,1.80530119 34.1386244,1.98352436 34.3895241,2.43616899 L39.7386316,12.0538873 L15.0998062,12.0538873 L33.0726026,2.06012112 Z M45.6294954,45.6477485 C45.6294954,47.2505507 44.3250888,48.5549574 42.7222865,48.5549574 L4.84925994,48.5549574 C3.24645767,48.5549574 1.94205104,47.2505507 1.94205104,45.6477485 L1.94205104,12.3776142 C1.94205104,10.7748119 3.24645767,9.47040528 4.84925994,9.47040528 L15.7587193,9.47040528 L11.1111958,12.0549428 L5.45494731,12.0549428 C4.91907155,12.0549428 4.48587768,12.4890414 4.48587768,13.0240124 C4.48587768,13.5589835 4.91907155,13.9930821 5.45494731,13.9930821 L7.62559092,13.9930821 L43.0334986,13.9930821 L45.6294954,13.9930821 L45.6294954,23.5225935 L38.5429381,23.5225935 C35.2519915,23.5225935 32.5736682,26.2010676 32.5736682,29.4918634 L32.5736682,29.9086222 C32.5736682,33.1995688 35.2521423,35.8778921 38.5429381,35.8778921 L45.6294954,35.8778921 L45.6294954,45.6477485 Z M48.0520941,33.9388481 L47.5676347,33.9388481 L38.5429381,33.9388481 C36.3199735,33.9388481 34.5116567,32.1306821 34.5116567,29.9075667 L34.5116567,29.490808 C34.5116567,27.2678433 36.3198227,25.4595265 38.5429381,25.4595265 L47.5676347,25.4595265 L48.0520941,25.4595265 L48.0520941,33.9388481 Z M41.5110626,29.7787997 C41.5110626,30.9610737 40.5536031,31.9183824 39.3714798,31.9183824 C38.1892058,31.9183824 37.2318971,30.9609229 37.2318971,29.7787997 C37.2318971,28.5966765 38.1893566,27.639217 39.3714798,27.639217 C40.5537538,27.6390662 41.5110626,28.5974304 41.5110626,29.7787997 Z" id="Shape"></path>
        </g>
    </g>
</svg>