<svg xmlns="http://www.w3.org/2000/svg" xmlns:xlink="http://www.w3.org/1999/xlink" width="512" height="453" viewBox="0 0 512 453">
    <defs>
        <path id="a" d="M.06.139h511.939V453H.06z"/>
    </defs>
    <g fill="none" fill-rule="evenodd">
        <g>
            <mask id="b" fill="#fff">
                <use xlink:href="#a"/>
            </mask>
            <path fill="#8DC9FF" d="M501.449 339.484L320.566 36.777C306.751 13.954 282.728.139 256 .139s-50.752 13.815-64.567 36.638L10.55 339.484c-13.812 23.725-14.114 51.953-.599 75.678C23.464 438.885 47.787 453 75.116 453h361.767c27.328 0 51.653-14.115 65.165-37.838 13.515-23.725 13.214-51.953-.599-75.678" mask="url(#b)"/>
            <path fill="#8DC9FF" d="M502.049 415.162C488.536 438.885 464.212 453 436.884 453H256V.14c26.727 0 50.751 13.815 64.566 36.638L501.45 339.485c13.812 23.724 14.113 51.952.599 75.677" mask="url(#b)"/>
        </g>
        <path fill="#A6D8FF" d="M75.109 422.969c-16.628 0-30.851-8.27-39.062-22.669-8.212-14.413-8.066-31.086.469-45.72L217.23 52.119c8.27-13.666 22.816-21.952 38.769-21.952s30.5 8.285 38.887 22.157l180.745 302.49c8.387 14.4 8.534 31.072.322 45.485-8.211 14.4-22.435 22.669-39.062 22.669H75.109v.001"/>
        <path fill="#A6D8FF" d="M436.891 422.969c16.627 0 30.851-8.27 39.062-22.669 8.212-14.413 8.065-31.086-.322-45.485L294.886 52.324c-8.387-13.871-22.933-22.157-38.887-22.157v392.802h180.892"/>
        <path fill="#FFF" d="M286.03 122.664v120.122c0 16.517-13.513 30.031-30.03 30.031-16.517 0-30.031-13.514-30.031-30.031V122.664c0-16.516 13.514-30.03 30.031-30.03s30.03 13.514 30.03 30.03"/>
        <path fill="#FFF" d="M286.03 122.664v120.122c0 16.517-13.513 30.031-30.03 30.031V92.634c16.516 0 30.03 13.514 30.03 30.03M256 302.847c-24.926 0-45.046 20.12-45.046 45.046 0 24.924 20.12 45.046 45.046 45.046s45.046-20.122 45.046-45.046c0-24.925-20.121-45.046-45.046-45.046"/>
        <path fill="#FFF" d="M301.046 347.893c0 24.924-20.12 45.046-45.046 45.046v-90.092c24.925 0 45.046 20.121 45.046 45.046"/>
    </g>
</svg>
