<svg width="14" height="14" viewBox="0 0 14 14" fill="none" xmlns="http://www.w3.org/2000/svg">
    <circle cx="6.533" cy="7.467" fill="#377DFF" r="6.533"/>
    <path d="M6.533 4.335c-1.16 0-2.321-.134-3.448-.398a.212.212 0 1 1 .098-.414 14.78 14.78 0 0 0 7.503-.21.212.212 0 1 1 .12.406 15.137 15.137 0 0 1-4.273.616zM10.746 11.634a.215.215 0 0 1-.06-.008 14.772 14.772 0 0 0-8.305 0 .212.212 0 0 1-.12-.407 15.193 15.193 0 0 1 8.545 0 .212.212 0 0 1-.06.415z" fill="#fff"/>
    <path d="M6.274 13.45a.212.212 0 0 1-.12-.037 7.205 7.205 0 0 1-3.163-5.946c0-1.922.756-3.73 2.13-5.093a.212.212 0 0 1 .3.3 6.707 6.707 0 0 0-2.006 4.793 6.78 6.78 0 0 0 2.979 5.595.213.213 0 0 1-.12.388zM6.81 13.45a.212.212 0 0 1-.119-.388A6.78 6.78 0 0 0 9.67 7.467 6.78 6.78 0 0 0 6.69 1.87a.213.213 0 0 1 .24-.35 7.205 7.205 0 0 1 3.163 5.946 7.205 7.205 0 0 1-3.164 5.946.214.214 0 0 1-.12.037z" fill="#fff"/>
    <path d="M6.533 13.386a.212.212 0 0 1-.212-.212V1.759a.212.212 0 0 1 .424 0v11.415a.212.212 0 0 1-.212.212z" fill="#fff"/>
    <path d="M12.453 7.68H1.463a.212.212 0 0 1 0-.425h10.99a.212.212 0 1 1 0 .424z" fill="#fff"/>
    <path d="M6.533 13.621A6.161 6.161 0 0 1 .38 7.467c0-1.495.542-2.937 1.528-4.06a.212.212 0 1 1 .319.28 5.729 5.729 0 1 0 4.307-1.95 5.665 5.665 0 0 0-3.556 1.237.212.212 0 1 1-.264-.332 6.083 6.083 0 0 1 3.82-1.33 6.161 6.161 0 0 1 6.154 6.155 6.161 6.161 0 0 1-6.154 6.154z" fill="#377DFF"/>
</svg>
