<svg width="14" height="14" viewBox="0 0 14 14" fill="none" xmlns="http://www.w3.org/2000/svg">
<g clip-path="url(#clip0_70_1170)">
<path d="M7.53998 0.555265C9.45054 2.43897 10.4775 4.6952 10.4775 7.00914C10.4775 9.32308 9.45054 11.5793 7.53998 13.463M1.96667 11.1072C3.43576 10.0591 5.19537 9.49581 7 9.49581C8.80463 9.49581 10.5642 10.0591 12.0333 11.1072M6.57238 0.493164C4.64859 2.38992 3.61455 4.66179 3.61455 6.99177C3.61455 9.32174 4.64859 11.5936 6.57238 13.4904M7 0.500046V13.5M13.5 7.00005H0.5M1.96667 3.08903C3.43576 4.1371 5.19537 4.70044 7 4.70044C8.80463 4.70044 10.5642 4.1371 12.0333 3.08903M6.96667 0.500046C5.24567 0.508872 3.59842 1.19986 2.38616 2.42148C1.17391 3.64309 0.495609 5.29561 0.500021 7.01663C0.504434 8.73764 1.1912 10.3867 2.4097 11.602C3.62821 12.8174 5.27898 13.5 7 13.5C8.72102 13.5 10.3718 12.8174 11.5903 11.602C12.8088 10.3867 13.4956 8.73764 13.5 7.01663C13.5044 5.29561 12.8261 3.64309 11.6138 2.42148C10.4016 1.19986 8.75433 0.508872 7.03333 0.500046H6.96667Z" stroke="white"/>
</g>
<defs>
<clipPath id="clip0_70_1170">
<rect width="14" height="14" fill="white"/>
</clipPath>
</defs>
</svg>
