<svg width="21" height="21" viewBox="0 0 21 21" fill="none" xmlns="http://www.w3.org/2000/svg">
<rect width="21" height="21" fill="white"/>
<path d="M2.04053 19L3.23549 14.6345C2.49811 13.3567 2.11065 11.9082 2.11136 10.4228C2.11349 5.77896 5.89244 2 10.5356 2C12.7888 2.00071 14.9039 2.87833 16.4948 4.47067C18.085 6.063 18.9605 8.1795 18.9598 10.4306C18.9577 15.0751 15.1787 18.8541 10.5356 18.8541C9.12599 18.8534 7.73694 18.4999 6.50657 17.8284L2.04053 19V19ZM6.7134 16.3034C7.90057 17.0082 9.0339 17.4303 10.5327 17.431C14.3917 17.431 17.5353 14.2903 17.5374 10.4292C17.5389 6.56025 14.4102 3.42375 10.5384 3.42233C6.67657 3.42233 3.53511 6.56308 3.53369 10.4235C3.53299 11.9995 3.99482 13.1796 4.77044 14.4142L4.06282 16.9982L6.7134 16.3034V16.3034ZM14.7792 12.433C14.7268 12.3452 14.5865 12.2928 14.3754 12.1872C14.1651 12.0817 13.1302 11.5724 12.9368 11.5023C12.7442 11.4322 12.6039 11.3967 12.4629 11.6078C12.3227 11.8182 11.9189 12.2928 11.7964 12.433C11.6739 12.5733 11.5506 12.591 11.3402 12.4855C11.1299 12.3799 10.4513 12.1582 9.64732 11.4407C9.02186 10.8825 8.59899 10.1933 8.47644 9.98221C8.3539 9.77183 8.46369 9.65779 8.56853 9.55296C8.66344 9.45875 8.7789 9.30717 8.88444 9.18392C8.9914 9.06208 9.02611 8.97425 9.09694 8.83329C9.16707 8.69304 9.13236 8.56979 9.07924 8.46425C9.02611 8.35942 8.60536 7.32312 8.4304 6.90167C8.25899 6.49154 8.08544 6.54679 7.95653 6.54042L7.55278 6.53333C7.41253 6.53333 7.18444 6.58575 6.99178 6.79683C6.79911 7.00792 6.25511 7.5165 6.25511 8.55279C6.25511 9.58908 7.00949 10.59 7.11432 10.7302C7.21986 10.8705 8.59828 12.9969 10.7098 13.9085C11.212 14.1252 11.6044 14.2549 11.9097 14.3519C12.4141 14.512 12.8731 14.4893 13.2357 14.4355C13.6402 14.3753 14.481 13.9262 14.6567 13.4346C14.8323 12.9423 14.8323 12.5209 14.7792 12.433V12.433Z" fill="#418107"/>
</svg>
