<svg width="20" height="20" viewBox="0 0 20 20" fill="none" xmlns="http://www.w3.org/2000/svg">
    <g clip-path="url(#59gzxsplaa)">
        <path d="M4.54 0C4.1.02 3.52.06 3.26.12c-.4.08-.78.2-1.08.36-.38.18-.7.42-.98.7-.3.3-.54.62-.72 1-.16.3-.28.68-.36 1.08-.06.26-.1.84-.1 1.28-.02.18-.02.42-.02.54V15.46c.02.44.06 1.02.12 1.28.08.4.2.78.36 1.08.18.38.42.7.7.98.3.3.62.54 1 .72.3.16.68.28 1.08.36.26.06.84.1 1.28.1.18.02.42.02.54.02H15.46c.44-.02 1.02-.06 1.28-.12.4-.08.78-.2 1.08-.36.38-.18.7-.42.98-.7.3-.3.54-.62.72-1 .16-.3.28-.68.36-1.08.06-.26.1-.84.1-1.28.02-.18.02-.42.02-.54V4.54c-.02-.44-.06-1.02-.12-1.28-.08-.4-.2-.78-.36-1.08-.18-.38-.42-.7-.7-.98-.3-.3-.62-.54-1-.72-.3-.16-.68-.28-1.08-.36-.26-.06-.84-.1-1.28-.1-.18-.02-.42-.02-.54-.02H4.54z" fill="url(#z1m4cm861b)"/>
        <path fill-rule="evenodd" clip-rule="evenodd" d="M13.467 11.316c-.178-.089-1.054-.52-1.217-.58-.163-.059-.282-.088-.4.09-.12.178-.461.58-.565.698-.104.119-.208.134-.386.045-.178-.09-.752-.278-1.432-.884a5.366 5.366 0 0 1-.991-1.234c-.104-.178-.011-.274.078-.363.08-.08.178-.208.267-.312.09-.104.119-.178.178-.297.06-.12.03-.223-.015-.312-.044-.09-.4-.966-.549-1.323-.144-.347-.291-.3-.4-.305a7.147 7.147 0 0 0-.342-.006.655.655 0 0 0-.475.222c-.163.179-.624.61-.624 1.486s.639 1.723.728 1.842c.089.119 1.256 1.918 3.043 2.689.425.184.757.293 1.015.375.427.136.815.117 1.122.07.343-.05 1.054-.43 1.203-.846.148-.416.148-.773.104-.847-.045-.074-.164-.119-.342-.208zm-3.25 4.437h-.003a5.919 5.919 0 0 1-3.015-.826l-.217-.128-2.242.588.598-2.186-.14-.224a5.91 5.91 0 0 1-.907-3.153 5.933 5.933 0 0 1 5.928-5.923c1.583 0 3.07.618 4.19 1.737a5.887 5.887 0 0 1 1.733 4.191 5.933 5.933 0 0 1-5.925 5.924zM15.26 4.787a7.084 7.084 0 0 0-5.043-2.09c-3.93 0-7.128 3.197-7.13 7.127 0 1.256.328 2.482.952 3.563L3.028 17.08l3.78-.991a7.126 7.126 0 0 0 3.406.867h.003c3.93 0 7.127-3.197 7.13-7.127 0-1.904-.741-3.695-2.087-5.042z" fill="#fff"/>
    </g>
    <defs>
        <linearGradient id="z1m4cm861b" x1="10" y1="20" x2="10" y2="0" gradientUnits="userSpaceOnUse">
            <stop stop-color="#25CF43"/>
            <stop offset="1" stop-color="#61FD7D"/>
        </linearGradient>
        <clipPath id="59gzxsplaa">
            <path fill="#fff" d="M0 0h20v20H0z"/>
        </clipPath>
    </defs>
</svg>
