<svg xmlns="http://www.w3.org/2000/svg" xmlns:xlink="http://www.w3.org/1999/xlink" width="12" height="14" viewBox="0 0 12 14">
    <defs>
        <path id="a" d="M0 .023h12V12H0z"/>
    </defs>
    <g fill="none" fill-rule="evenodd">
        <g transform="translate(0 1)">
            <mask id="b" fill="#fff">
                <use xlink:href="#a"/>
            </mask>
            <path fill="#2496FF" d="M6 2.18c.197 0 .352.154.352.351h1.406c0-.85-.605-1.56-1.406-1.722V.375a.351.351 0 1 0-.704 0v.434A1.758 1.758 0 0 0 4.242 2.53h1.406c0-.197.155-.351.352-.351zM7.835 5.344H4.172l-.598 5.976h-1.09a.351.351 0 1 0 0 .703h2.461v-1.758c0-.583.471-1.054 1.055-1.054s1.055.47 1.055 1.054v1.758h1.054a.356.356 0 0 0 .26-.112.363.363 0 0 0 .092-.274c-.678-6.813.565 5.617-.626-6.293zM6 7.804a.348.348 0 0 1-.352-.351c0-.197.155-.351.352-.351.197 0 .352.154.352.351A.348.348 0 0 1 6 7.805zm0-1.406a.348.348 0 0 1-.352-.351c0-.197.155-.352.352-.352.197 0 .352.155.352.352A.348.348 0 0 1 6 6.398z" mask="url(#b)"/>
            <path fill="#2496FF" d="M6 9.914a.348.348 0 0 0-.352.351v1.758h.704v-1.758A.348.348 0 0 0 6 9.914zM11.95 10.448a.358.358 0 0 0 .015-.337l-.727-1.406a.36.36 0 0 0-.316-.197H8.855l.21 2.109h2.583c.12 0 .232-.063.303-.169zM3.89 4.64h4.22a.348.348 0 0 0 .35-.351v-.703a.348.348 0 0 0-.35-.352H3.89a.348.348 0 0 0-.351.352v.703c0 .197.155.352.352.352zM11.648 11.32H9.136l.028.246a.99.99 0 0 1-.063.457h2.547a.351.351 0 1 0 0-.703zM2.133 3.234a.351.351 0 0 0-.352-.351H.351a.351.351 0 1 0 0 .703h1.43a.351.351 0 0 0 .352-.352zM9.867 3.234c0 .195.157.352.352.352h1.43a.351.351 0 1 0 0-.703h-1.43a.351.351 0 0 0-.352.351z" mask="url(#b)"/>
        </g>
        <path fill="#2496FF" d="M2.65 6.168a.351.351 0 0 0-.48-.129l-1.217.703a.351.351 0 1 0 .351.61l1.218-.704a.351.351 0 0 0 .129-.48zM9.83 2.43l1.217-.704a.351.351 0 1 0-.352-.609l-1.217.703a.351.351 0 1 0 .351.61zM.953 1.726l1.218.703a.351.351 0 0 0 .351-.609l-1.218-.703a.352.352 0 0 0-.351.61zM9.478 6.648l1.217.703a.352.352 0 0 0 .352-.609L9.829 6.04a.35.35 0 1 0-.351.61z"/>
    </g>
</svg>
