<?xml version="1.0" encoding="UTF-8"?>
<svg width="140px" height="50px" viewBox="0 0 140 50" version="1.1" xmlns="http://www.w3.org/2000/svg" xmlns:xlink="http://www.w3.org/1999/xlink">
    <!-- Generator: Sketch 63.1 (92452) - https://sketch.com -->
    <title>Yelo-Full-Logo-white</title>
    <desc>Created with Sketch.</desc>
    <g id="Yelo-Full-Logo-white" stroke="none" stroke-width="1" fill="none" fill-rule="evenodd">
        <g id="YeloFull" transform="translate(4.000000, 1.000000)" fill="#FFFFFF" fill-rule="nonzero">
            <path d="M25.4971751,35.4067797 L19.8022599,32.3813559 C17.5423729,35.440678 14.7344633,38.1468927 10.9971751,39.8361582 C12.8700565,42.5169492 14.700565,45.1412429 16.5847458,47.8446328 L16.4774011,47.8446328 L16.4774011,47.8954802 L22.7288136,47.8954802 L22.7288136,47.8954802 L16.7146893,47.8531073 L22.7288136,47.8531073 C22.6394449,47.8332636 22.5590597,47.7846355 22.5,47.7146893 C21.9548023,46.9265537 21.1553672,46.6497175 20.2711864,46.480226 C20.031856,46.4339969 19.8217132,46.2922016 19.6892655,46.0875706 C18.9152542,44.5960452 18.1779661,43.0875706 17.4293785,41.5819209 C18.8418079,40.5988701 20.2542373,39.6723164 21.6101695,38.6412429 C22.9661017,37.6101695 24.220339,36.4717514 25.4971751,35.4067797 Z" id="Path"></path>
            <path d="M48.5575818,11.6374382 L48.7464441,11.4751762 L51.3532762,13.158977 C50.6510276,12.1109241 50.0232598,11.054891 49.2890908,10.0866391 C48.1134356,8.48285404 46.6327549,7.12691929 44.9319571,6.09658996 C44.4013813,5.5206425 43.7882038,5.02669392 43.1124947,4.63091191 L44.8175757,4.00314418 C43.788143,3.53231838 42.7799906,3.05617251 41.7611981,2.60662697 C40.7424055,2.15708143 39.7635135,1.74743639 38.7739813,1.32715121 L40.0720773,1.06114793 C40.0720773,0.936126394 40.0720773,0.795144657 40.0906975,0.683423281 C38.6888602,0.646182822 37.2205221,0.321658825 35.9038059,0.635542691 C33.4033751,1.23405006 30.5491599,1.29789085 29.0622016,4.06432493 C28.769598,4.59633148 27.9981885,4.86233476 27.5167226,5.3198604 C27.2870669,5.58831572 27.0987882,5.88956156 26.9581157,6.21363141 C26.6681721,6.74563796 26.4739897,7.33616523 26.088285,7.75645041 C25.6467196,8.23525631 25.0242719,8.55446024 24.4470448,8.97208539 C25.1599336,11.1586323 26.5511307,12.1189042 28.8600391,11.7917201 L27.6710045,12.5232291 C28.0513892,13.5180814 27.8598668,14.784257 29.3681054,15.2577428 C29.8708516,14.0474279 30.3230572,12.834453 30.881664,11.6720186 C31.0492461,11.3262144 31.5200719,11.1400121 31.852576,10.8740088 C31.898767,11.3161445 31.898767,11.7618896 31.852576,12.2040252 C31.7343147,12.5405639 31.5538456,12.8518731 31.3205694,13.1217365 C30.3424181,14.5295286 29.9328652,16.2551622 30.1740953,17.952356 L30.1554751,17.9762963 C30.4959593,18.2077192 32.5495046,18.029497 32.5495046,18.029497 C30.5624601,19.9872811 27.2773196,20.2426442 24.6891078,20.6895297 C23.1489488,20.955533 21.6141099,21.280057 20.1005512,21.6790619 C17.0821025,22.4508442 14.1794758,23.6199453 11.4687449,25.1557247 C11.2828263,25.2728183 11.0602903,25.3173255 10.8436372,25.2807463 C8.798072,24.6290383 7.68883833,23.4666039 7.77129935,21.1098149 C7.80055971,20.3357454 8.11178354,19.6414768 8.80339206,19.3249329 C9.63967303,18.9038669 10.5375428,18.6183443 11.4634248,18.4790425 C13.5568706,18.2582598 15.6529764,18.2369795 17.7517423,18.0560973 C18.5292317,18.0079631 19.2928898,17.8280672 20.0101101,17.5240907 C21.0954035,17.0266646 21.4944084,16.0451125 21.4013073,14.864058 C21.3188462,13.8399454 20.7602394,13.1350367 19.6164253,12.8424331 C18.8689561,12.6509107 18.0736063,12.6482507 17.3021968,12.5338693 C17.0703588,12.5158905 16.8507935,12.4224585 16.6770891,12.267866 C14.9214674,10.1052593 12.0991727,10.1105794 9.69184301,12.7519919 C10.0775478,13.0605558 10.4499523,13.3877398 10.8489573,13.6697033 C13.0328442,15.2045422 15.2034309,14.9066185 16.6797491,13.0924761 C16.8094719,12.9448755 16.9966319,12.8605081 17.1931354,12.8610533 C17.9864433,12.9490962 18.7717322,13.0985057 19.5419443,13.3079388 C20.2994457,13.4866803 20.8175597,14.1857408 20.7682195,14.9624792 C20.8119294,15.7740828 20.3241666,16.5202629 19.5632246,16.8058819 C19.1654564,16.9736484 18.7393162,17.0639324 18.3076891,17.0718852 C16.5573876,17.0718852 14.8097461,17.0266646 13.0594445,17.0399648 C12.0115617,17.0186889 10.9636676,17.0818472 9.92592589,17.2288271 C8.14636397,17.5240907 6.64876552,18.3699812 6.11409893,20.221364 C5.52357166,22.253629 6.01035766,24.8418409 8.09316331,26.3394393 C8.35916659,26.5389418 8.6437901,26.7437643 8.77679174,26.8421855 C8.25808535,28.01792 7.66755807,29.0845931 7.31377371,30.2230872 C6.48580051,32.9634393 4.80926153,35.3702042 2.52571473,37.0966118 C2.05761563,37.4297834 1.77377114,37.963963 1.75962529,38.5383496 C1.57608303,40.6663758 1.25953913,42.7465214 0.509409892,44.7495261 C0.478350042,44.9557135 0.524786003,45.1660968 0.639751498,45.3400534 C1.02811628,46.0236818 1.43776133,46.6940101 1.93252742,47.5 L6.84294791,47.5 L6.84294791,47.422859 C6.48650352,46.1513634 5.43313055,45.6406371 4.20685544,45.225672 C4.57926003,43.5658115 4.94900458,41.9112712 5.3160891,40.272691 C11.9821312,40.2381105 16.3419249,36.4848043 19.8824285,31.5344833 C21.3587467,32.3830338 22.8084646,33.2821249 24.303403,34.0561944 C25.7983414,34.8302639 27.4954423,35.2159687 29.4053459,35.3862108 C29.2351038,36.3464826 29.0515615,37.2482337 28.9158998,38.1819052 C28.8480381,38.5071004 28.8654489,38.8443201 28.9664404,39.1607973 C29.7644503,41.084001 30.4640389,43.033805 30.7220621,45.1166106 C30.7672826,45.4757151 30.8577237,45.9146205 30.7007818,46.1965839 C30.3931773,46.6566299 30.0295036,47.076597 29.6181485,47.4467993 L29.6181485,47.4467993 L29.6181485,47.4866998 L34.2333053,47.4866998 L34.2333053,47.4494594 L34.1614844,47.4494594 C34.4274877,46.8855324 34.7839321,46.3854463 34.8397928,45.87738 C34.8956535,45.3693138 34.6349703,44.8133669 34.528569,44.2680602 C34.0258228,41.7224088 34.047103,39.2299581 35.3478591,36.8891293 C35.5040977,36.6362412 35.73182,36.4353642 36.0022271,36.3119022 C36.8933381,35.888957 37.8270096,35.5564529 38.7074804,35.1122274 C42.1841433,33.3539457 45.3017017,31.1221782 47.517509,27.852998 C48.3155188,26.6746035 48.9060461,25.3578872 49.6455352,23.9932904 C49.8535092,24.6106471 50.0258091,25.2394529 50.1615815,25.8765936 C50.2340609,26.5132531 50.2678168,27.1537261 50.2626628,27.7944773 C53.3243605,22.0461464 52.5157105,16.6808603 48.5575818,11.6374382 Z" id="Path"></path>
            <path d="M42.9858757,35.9632768 C43.8333333,34.7090395 44.7146893,33.4915254 45.5084746,32.2118644 C46.4181263,30.7719902 47.1012314,29.2009438 47.5338983,27.5536723 C44.8898305,31.7909605 41.0677966,34.6412429 36.6892655,36.8446328 C36.7655367,37.0112994 36.8107345,37.1101695 36.8587571,37.2090395 C38.2591992,39.9878138 38.6391265,43.1702045 37.9322034,46.200565 C37.9103847,46.4503966 37.9572721,46.7014398 38.0677966,46.9265537 C38.3079096,47.559322 38.5847458,48.180791 38.8615819,48.8474576 L38.7542373,48.8474576 L38.7542373,48.8813559 L45.8954802,48.8813559 C45.5982008,48.8274702 45.3215637,48.692573 45.0960452,48.4915254 C44.440678,48.039548 43.8389831,47.5 43.1497175,47.1129944 C42.8107345,46.9237288 42.5677966,46.8050847 42.5508475,46.3954802 C42.5508475,46.1327684 42.4689266,45.8757062 42.4463277,45.6158192 C42.1638418,42.6412429 42.3785311,39.6836158 42.6355932,36.7146893 C42.6897889,36.4395506 42.8099946,36.18169 42.9858757,35.9632768 Z" id="Path"></path>
            <path d="M76.7175141,35.2864725 C76.3202321,35.3820731 75.9173804,35.4528316 75.5112994,35.4983369 C74.9831008,35.568481 74.4509132,35.6043376 73.9180791,35.6056815 C72.8295669,35.6056815 72.0141243,35.4220657 71.4717514,35.0548341 C70.9293785,34.6876024 70.6581921,33.9145328 70.6581921,32.735625 L70.6581921,27.9503143 C70.0649718,27.0774329 69.4293785,26.1085064 68.7429379,25.0435346 C68.0564972,23.9785629 67.3841808,22.896642 66.7231638,21.7836476 C66.0621469,20.6706533 65.4491525,19.5830827 64.8813559,18.5068115 C64.3670163,17.5460457 63.905869,16.557738 63.5,15.5463595 C63.8461847,15.0849168 64.2718658,14.6888899 64.7570621,14.376868 C65.3478922,14.0052486 66.0369495,13.8201875 66.7344633,13.8457945 C67.526827,13.8087937 68.312618,14.0052415 68.9943503,14.4107663 C69.5743879,14.7874141 70.1233522,15.4964537 70.6412429,16.5378849 L73.5819209,22.4700883 L73.7966102,22.4700883 C74.1271186,21.7384499 74.4152542,21.0576589 74.6638418,20.4672635 C74.9124294,19.876868 75.1525424,19.2610488 75.3898305,18.6593539 C75.6271186,18.0576589 75.8728814,17.4305403 76.1355932,16.7808228 C76.3983051,16.1311053 76.700565,15.3683934 77.019774,14.5209358 C77.468825,14.2988903 77.9430763,14.1319538 78.4322034,14.0237606 C78.9202124,13.9089092 79.4195738,13.8492132 79.920904,13.8457945 C80.6698924,13.8287698 81.4036074,14.0591107 82.0084746,14.5011618 C82.5885122,14.9399565 82.8785311,15.5990902 82.8785311,16.4785629 C82.867548,16.827021 82.80764,17.1722057 82.700565,17.5039866 C82.4827911,18.1351604 82.2095978,18.7458277 81.8841808,19.3288454 C81.4642185,20.1405215 80.846516,21.2403331 80.0310734,22.6282804 C79.2156309,24.0162277 78.1111111,25.8354367 76.7175141,28.0859075 L76.7175141,35.2864725 Z" id="Path"></path>
            <path d="M92.8418079,35.995512 C91.5252178,36.0074031 90.2151,35.8100272 88.960452,35.4107663 C87.8158625,35.044081 86.7583975,34.447094 85.8531073,33.656529 C84.9445638,32.8455003 84.2301254,31.8404592 83.7627119,30.715851 C83.2287136,29.3999209 82.9691702,27.9887737 83,26.5689584 C82.9648046,25.1890712 83.2248465,23.8175905 83.7627119,22.5463595 C84.6622817,20.457913 86.4284925,18.8660536 88.5988701,18.1876024 C89.6529017,17.8468228 90.7538304,17.6733431 91.8615819,17.6734781 C93.025408,17.6579081 94.1827467,17.8492037 95.279661,18.2384499 C96.2560467,18.5861222 97.1579352,19.115179 97.9378531,19.7977719 C98.6789547,20.4563234 99.2712041,21.2652493 99.6751412,22.1706533 C100.093095,23.120018 100.303991,24.1475338 100.293785,25.1847776 C100.339802,25.8661047 100.095589,26.5351243 99.6214689,27.0265855 C99.0952588,27.4871809 98.4386973,27.7725137 97.7429379,27.8429697 L88.9858757,29.1537041 C89.2480505,29.93657 89.8272415,30.5731675 90.5819209,30.9079414 C91.4461066,31.3112163 92.3911637,31.5112437 93.3446328,31.4926872 C94.2737985,31.4981672 95.199098,31.3726384 96.0932203,31.1198058 C96.8304433,30.9237503 97.5388884,30.6322052 98.200565,30.2525742 C98.5940306,30.5022885 98.9223104,30.8421888 99.1581921,31.2440996 C99.5487937,31.873633 99.6521484,32.6399464 99.4422834,33.3504663 C99.2324183,34.0609863 98.7292857,34.6481625 98.059322,34.9644386 C97.2637508,35.3774737 96.4042553,35.6534673 95.5169492,35.7808228 C94.6317858,35.9185634 93.7376091,35.9903242 92.8418079,35.995512 Z M91.8502825,22.0633087 C91.3450793,22.0503744 90.8430444,22.1467343 90.3785311,22.3457945 C89.9939559,22.5136771 89.6492946,22.7611015 89.3672316,23.0717832 C89.1124532,23.36426 88.9158979,23.7027187 88.7881356,24.0689584 C88.6585694,24.4328227 88.5815236,24.8132962 88.559322,25.1989019 L94.6186441,24.2045516 C94.510651,23.6645981 94.2383238,23.1712518 93.8389831,22.7921222 C93.3841808,22.3034216 92.7231638,22.0633087 91.8502825,22.0633087 Z" id="Shape"></path>
            <path d="M109.319209,35.3938171 L108.166667,35.5887324 C107.657644,35.6713545 107.142803,35.7129196 106.627119,35.7130262 C106.154121,35.7172463 105.681617,35.681336 105.214689,35.6056815 C104.837049,35.5496487 104.478504,35.4033235 104.169492,35.1791279 C103.876301,34.9549632 103.64973,34.6551479 103.514124,34.3118962 C103.344791,33.8530463 103.266123,33.3656925 103.282486,32.876868 L103.282486,12.3231957 C103.542373,12.2742314 103.926554,12.2092597 104.435028,12.1282804 C104.945012,12.045761 105.460784,12.004197 105.977401,12.0039866 C106.450442,11.9984479 106.923059,12.0343667 107.389831,12.1113313 C107.76693,12.167588 108.125212,12.3128374 108.435028,12.5350601 C108.726818,12.7606142 108.95307,13.0600085 109.090395,13.4022917 C109.258574,13.8623625 109.336269,14.350596 109.319209,14.8401448 L109.319209,35.3938171 Z" id="Path"></path>
            <path d="M130.937853,26.8175459 C130.959857,28.1533851 130.730842,29.481479 130.262712,30.7328002 C129.85126,31.8230108 129.204006,32.8088435 128.367232,33.6198058 C127.531267,34.4141208 126.534102,35.0191639 125.443503,35.3938171 C124.223412,35.8091163 122.941263,36.0126168 121.652542,35.995512 C120.360682,36.0136804 119.076238,35.7973732 117.861582,35.357094 C116.770087,34.9600178 115.774052,34.3383382 114.937853,33.5322352 C114.105674,32.7169188 113.458308,31.732383 113.039548,30.6452296 C112.141727,28.1821215 112.141727,25.481219 113.039548,23.0181109 C113.458308,21.9309574 114.105674,20.9464216 114.937853,20.1311053 C115.774052,19.3250023 116.770087,18.7033227 117.861582,18.3062465 C119.076238,17.8659673 120.360682,17.6496601 121.652542,17.6678284 C122.945759,17.6511378 124.230946,17.8733162 125.443503,18.3231957 C126.534004,18.7315954 127.529103,19.359421 128.367232,20.1678284 C129.199145,20.9828001 129.845649,21.9674899 130.262712,23.0548341 C130.724858,24.2547625 130.953996,25.5317985 130.937853,26.8175459 Z M118.533898,26.8175459 C118.533898,28.2582239 118.811676,29.3627437 119.367232,30.1311053 C119.893591,30.88484 120.767871,31.3182529 121.686441,31.2808228 C122.601759,31.3205695 123.470645,30.8764721 123.974576,30.1113313 C124.50565,29.3316702 124.771186,28.2337418 124.771186,26.8175459 C124.771186,25.4013501 124.499058,24.3081297 123.954802,23.5378849 C123.409868,22.814505 122.556796,22.3890982 121.65113,22.3890982 C120.745464,22.3890982 119.892392,22.814505 119.347458,23.5378849 C118.805085,24.3062465 118.533898,25.3994668 118.533898,26.8175459 L118.533898,26.8175459 Z" id="Shape"></path>
        </g>
    </g>
</svg>