<?xml version="1.0" encoding="UTF-8"?>
<svg width="419px" height="220px" viewBox="0 0 419 220" version="1.1" xmlns="http://www.w3.org/2000/svg" xmlns:xlink="http://www.w3.org/1999/xlink">
    <!-- Generator: Sketch 49 (51002) - http://www.bohemiancoding.com/sketch -->
    <title>Yelo White@2x</title>
    <desc>Created with Sketch.</desc>
    <defs></defs>
    <g id="Page-1" stroke="none" stroke-width="1" fill="none" fill-rule="evenodd">
        <g id="Yelo-White" fill="#FFFFFF">
            <g id="Group" transform="translate(0.301024, 0.961266)">
                <ellipse id="Oval-2" cx="397.639454" cy="148.669796" rx="21.0134671" ry="21.0076885"></ellipse>
                <path d="M0,43.6313531 L37.2304278,43.6313531 L63.1204652,132.152053 L88.5003964,43.6313531 L123.376451,43.6313531 L74.335096,186.297529 C66.8100434,207.574401 54.9748779,218.210461 38.8295994,218.205707 L17.7877419,218.205707 L17.7877419,190.692637 L29.0332485,190.692637 C41.1541312,191.023526 45.9654765,182.404339 45.2214732,171.123778 L0,43.6313531 Z M216.608133,132.604842 L216.608133,152.343727 C204.260012,169.445606 182.74351,175.944271 152.058626,171.839722 C117.225827,163.541592 101.160597,139.713718 103.862937,100.356098 L116.689935,63.1074958 C153.334056,20.802349 208.444387,45.7512555 216.608133,63.1074958 L216.608133,114.837953 L137.336442,114.837953 C134.642818,139.361837 175.228803,159.093868 195.586097,132.604842 L216.608133,132.604842 Z M193.221886,93.504104 C193.221886,77.8857228 181.811776,66.8404993 165.742737,66.8404993 C149.673697,66.8404993 138.263588,77.8857228 138.263588,93.504104 L193.221886,93.504104 Z M250.5523,137.609676 L250.5523,168.061508 L216.607469,168.061508 L216.607469,0 L250.5523,0 L250.5523,74.5573091 C261.765989,53.8739042 283.670557,39.828475 308.856514,39.828475 C345.458215,39.828475 375.129756,69.4918569 375.129756,106.083493 C375.129756,142.675129 345.458215,172.33851 308.856514,172.33851 C283.670557,172.33851 261.765989,158.293081 250.5523,137.609676 Z M308.856514,144.866918 C325.818278,144.866918 339.568504,127.141238 339.568504,105.275505 C339.568504,83.4097711 325.818278,65.6840917 308.856514,65.6840917 C291.89475,65.6840917 278.144523,83.4097711 278.144523,105.275505 C278.144523,127.141238 291.89475,144.866918 308.856514,144.866918 Z" id="Path-3"></path>
            </g>
        </g>
    </g>
</svg>