<svg xmlns="http://www.w3.org/2000/svg" width="134" height="57" viewBox="0 0 134 57">
    <g fill="none" fill-rule="evenodd">
        <g fill="#2496FF" fill-rule="nonzero">
            <path d="M8.93 27.84c3.103 6.012 13.418 9.316 19.872 5.59 6.455-3.727 6.901-13.338 3.5-19.084-3.4-5.746-9.844-4.967-16.298-1.24C9.55 16.831 5.825 21.828 8.929 27.84zM22.613 8.87c-1.23-.32-2.216-1.167-2.9-1.926a6.476 6.476 0 0 1-1.467-2.725c-.276-1.071-.62-2.46.83-3.317 1.708-1.01 4.07-1.08 5.891-.66 3.722.859 4.163 6.668.515 8.332-1.058.484-2.021.515-2.869.295z"/>
            <path d="M.935 20.301c-.718-1.008-.91-2.267-.933-3.272a6.425 6.425 0 0 1 .662-2.988c.486-.987 1.127-2.258 2.771-2.01 1.937.295 3.757 1.71 4.853 3.165 2.24 2.97-1.189 7.669-5.007 6.666-1.108-.29-1.852-.866-2.346-1.56zM14.922 2.561c.836.33 1.632 1.66 1.646 2.597.03 2.13 2.166 10.09-6.637 8.658-.916-.15-2.052-.756-2.753-1.354-1.276-1.085-1.654-2.25-1.452-3.39.533-2.994 6.25-7.675 9.196-6.51z"/>
        </g>
        <path fill="#2296FF" d="M58.912 33h-6.816V19.896L39.76.984h7.776l7.968 12.864L63.376.984h7.776l-12.24 18.912V33zm24.016.576c-7.056 0-12.384-4.752-12.384-12.192 0-6.72 4.944-12.144 12-12.144 6.912 0 11.616 5.184 11.616 12.768v1.344H76.928c.384 2.928 2.736 5.376 6.672 5.376 1.968 0 4.704-.864 6.192-2.304l2.688 3.936c-2.304 2.112-5.952 3.216-9.552 3.216zm5.328-14.352c-.144-2.208-1.68-5.136-5.712-5.136-3.792 0-5.424 2.832-5.712 5.136h11.424zM105.672 33h-6.096V.984h6.096V33zm15.8.576c-7.632 0-12.24-5.568-12.24-12.192 0-6.576 4.608-12.144 12.24-12.144 7.68 0 12.288 5.568 12.288 12.144 0 6.624-4.608 12.192-12.288 12.192zm0-5.424c3.792 0 5.952-3.12 5.952-6.768 0-3.6-2.16-6.72-5.952-6.72s-5.904 3.12-5.904 6.72c0 3.648 2.112 6.768 5.904 6.768z"/>
        <path fill="#404042" d="M4.584 56.144a4.09 4.09 0 0 1-1.62-.312 3.659 3.659 0 0 1-1.254-.87 3.968 3.968 0 0 1-.81-1.314 4.58 4.58 0 0 1-.288-1.644c0-.592.096-1.14.288-1.644.192-.504.462-.942.81-1.314a3.659 3.659 0 0 1 1.254-.87 4.09 4.09 0 0 1 1.62-.312 4.09 4.09 0 0 1 1.62.312c.488.208.906.498 1.254.87s.618.81.81 1.314a4.58 4.58 0 0 1 .288 1.644 4.58 4.58 0 0 1-.288 1.644 3.968 3.968 0 0 1-.81 1.314 3.659 3.659 0 0 1-1.254.87 4.09 4.09 0 0 1-1.62.312zm0-.888c.448 0 .852-.082 1.212-.246.36-.164.668-.392.924-.684.256-.292.454-.636.594-1.032.14-.396.21-.826.21-1.29 0-.464-.07-.896-.21-1.296a3.05 3.05 0 0 0-.594-1.032 2.741 2.741 0 0 0-.924-.678 2.891 2.891 0 0 0-1.212-.246c-.448 0-.854.082-1.218.246-.364.164-.674.39-.93.678a2.973 2.973 0 0 0-.588 1.032 4 4 0 0 0-.204 1.296c0 .464.068.894.204 1.29.136.396.332.74.588 1.032.256.292.566.52.93.684.364.164.77.246 1.218.246zM15.78 56l-4.668-6.384V56h-.996v-8.004h1.02l4.608 6.252v-6.252h.996V56h-.96zm2.832 0v-8.004h.996v7.116h3.72V56h-4.716zm6.12 0v-8.004h.996V56h-.996zm8.532 0l-4.668-6.384V56H27.6v-8.004h1.02l4.608 6.252v-6.252h.996V56h-.96zm2.832 0v-8.004h5.244v.888h-4.248v2.58h4.164v.888h-4.164v2.76h4.248V56h-5.244zM53.776 56v-6.588L51.052 56h-.408l-2.712-6.588V56h-.996v-8.004h1.428l2.484 6.024 2.496-6.024h1.428V56h-.996zm8.58 0l-.708-1.776h-3.984L56.956 56h-1.14l3.216-8.004h1.236L63.496 56h-1.14zm-2.7-6.972l-1.704 4.308h3.396l-1.692-4.308zM69.172 56l-2.04-3.18h-1.596V56h-.996v-8.004h3.216c.368 0 .704.056 1.008.168a2.212 2.212 0 0 1 1.314 1.248c.124.296.186.628.186.996 0 .36-.056.68-.168.96a2.077 2.077 0 0 1-1.122 1.164c-.252.112-.514.18-.786.204L70.348 56h-1.176zm-1.536-4.056c.48 0 .866-.142 1.158-.426.292-.284.438-.654.438-1.11 0-.456-.146-.824-.438-1.104-.292-.28-.678-.42-1.158-.42h-2.1v3.06h2.1zM76.672 56l-3.036-3.6-.804.912V56h-.996v-8.004h.996v4.14l3.54-4.14h1.248L74.284 51.8l3.624 4.2h-1.236zm2.376 0v-8.004h5.244v.888h-4.248v2.58h4.164v.888h-4.164v2.76h4.248V56h-5.244zm8.808 0v-7.116h-2.532v-.888h6.072v.888h-2.544V56h-.996zm4.86 0v-8.004h3.216c.4 0 .756.064 1.068.192.312.128.574.302.786.522.212.22.374.476.486.768.112.292.168.602.168.93 0 .328-.056.638-.168.93a2.217 2.217 0 0 1-.492.768c-.216.22-.48.394-.792.522a2.76 2.76 0 0 1-1.056.192h-2.22V56h-.996zm3.096-4.068c.48 0 .866-.14 1.158-.42.292-.28.438-.648.438-1.104 0-.456-.146-.824-.438-1.104-.292-.28-.678-.42-1.158-.42h-2.1v3.048h2.1zM99.76 56v-8.004h.996v7.116h3.72V56H99.76zm11.832 0l-.708-1.776H106.9L106.192 56h-1.14l3.216-8.004h1.236L112.732 56h-1.14zm-2.7-6.972l-1.704 4.308h3.396l-1.692-4.308zm8.232 7.116c-.576 0-1.114-.1-1.614-.3-.5-.2-.936-.482-1.308-.846a3.916 3.916 0 0 1-.876-1.308 4.336 4.336 0 0 1-.318-1.686c0-.616.106-1.178.318-1.686.212-.508.504-.944.876-1.308a3.942 3.942 0 0 1 1.308-.846c.5-.2 1.038-.3 1.614-.3.352 0 .678.04.978.12.3.08.576.192.828.336.252.144.48.312.684.504.204.192.386.4.546.624l-.84.468a2.765 2.765 0 0 0-.93-.834c-.388-.22-.81-.33-1.266-.33-.44 0-.848.08-1.224.24-.376.16-.702.384-.978.672-.276.288-.492.63-.648 1.026a3.556 3.556 0 0 0-.234 1.314c0 .472.078.908.234 1.308.156.4.372.744.648 1.032.276.288.602.512.978.672.376.16.784.24 1.224.24a2.56 2.56 0 0 0 1.266-.324 2.66 2.66 0 0 0 .93-.84l.852.468a4.32 4.32 0 0 1-1.242 1.134c-.492.3-1.094.45-1.806.45zm4.32-.144v-8.004h5.244v.888h-4.248v2.58h4.164v.888h-4.164v2.76h4.248V56h-5.244zm9.42.144c-.704 0-1.308-.118-1.812-.354a3.857 3.857 0 0 1-1.26-.918l.588-.756c.128.144.28.286.456.426s.37.262.582.366c.212.104.442.188.69.252.248.064.512.096.792.096.36 0 .66-.044.9-.132.24-.088.432-.198.576-.33.144-.132.248-.28.312-.444.064-.164.096-.322.096-.474a.978.978 0 0 0-.204-.636 1.687 1.687 0 0 0-.534-.426 3.631 3.631 0 0 0-.756-.288 78.832 78.832 0 0 1-.876-.24c-.3-.084-.592-.178-.876-.282a2.957 2.957 0 0 1-.756-.402 1.941 1.941 0 0 1-.534-.606c-.136-.24-.204-.54-.204-.9 0-.328.07-.628.21-.9.14-.272.332-.506.576-.702.244-.196.534-.348.87-.456a3.55 3.55 0 0 1 1.092-.162c.616 0 1.16.096 1.632.288.472.192.876.468 1.212.828l-.6.732a2.71 2.71 0 0 0-1.056-.732c-.4-.152-.82-.228-1.26-.228-.48 0-.874.116-1.182.348a1.1 1.1 0 0 0-.462.924c0 .224.068.408.204.552.136.144.314.268.534.372.22.104.472.194.756.27.284.076.576.156.876.24.3.084.592.182.876.294.284.112.536.256.756.432.22.176.398.392.534.648s.204.572.204.948c0 .288-.052.574-.156.858a1.936 1.936 0 0 1-.51.756c-.236.22-.542.398-.918.534s-.832.204-1.368.204z"/>
    </g>
</svg>
