<svg xmlns="http://www.w3.org/2000/svg" width="39" height="40" viewBox="0 0 39 40">
    <g fill="#2496FF" fill-rule="evenodd">
        <path d="M10.515 31.89c3.356 6.517 14.705 9.994 21.876 5.854 7.172-4.14 7.78-14.624 4.095-20.848-3.686-6.224-10.81-5.297-17.982-1.157-7.171 4.14-11.344 9.634-7.989 16.15zM25.075 10.84c-1.354-.39-2.438-1.425-3.191-2.353a8.226 8.226 0 0 1-1.614-3.33c-.303-1.31-.681-3.007.913-4.055 1.88-1.233 4.477-1.32 6.48-.805 4.095 1.049 4.58 8.149.568 10.182-1.165.591-2.224.63-3.156.361z"/>
        <path d="M1.039 23.132c-.798-1.11-1.011-2.495-1.037-3.6a7.009 7.009 0 0 1 .736-3.287c.54-1.086 1.252-2.484 3.079-2.21 2.152.324 4.174 1.88 5.392 3.48 2.49 3.268-1.32 8.436-5.563 7.333-1.232-.32-2.058-.952-2.607-1.716zM15.81 2.623c.91.374 1.764 1.911 1.767 3.002.005 2.48 2.237 11.72-7.368 10.167-1-.162-2.233-.854-2.991-1.54-1.381-1.247-1.78-2.6-1.544-3.928.622-3.495 6.933-9.018 10.137-7.701z"/>
    </g>
</svg>
