<?xml version="1.0" encoding="UTF-8"?>
<svg width="600px" height="600px" viewBox="0 0 600 600" version="1.1" xmlns="http://www.w3.org/2000/svg" xmlns:xlink="http://www.w3.org/1999/xlink">
    <!-- Generator: Sketch 47.1 (45422) - http://www.bohemiancoding.com/sketch -->
    <title>image</title>
    <desc>Created with Sketch.</desc>
    <defs></defs>
    <g id="Page-1" stroke="none" stroke-width="1" fill="none" fill-rule="evenodd" opacity="0.300000012">
        <g id="image">
            <g id="Group" transform="translate(119.000000, 116.000000)">
                <g id="picture-(1)" transform="translate(5.000000, 0.000000)" fill-rule="nonzero" fill="#000000">
                    <path d="M345.931034,0 L6.06896552,0 C2.71889655,0 0,2.71115217 0,6.06521739 L0,272.934783 C0,276.288848 2.71889655,279 6.06896552,279 L345.931034,279 C349.281103,279 352,276.288848 352,272.934783 L352,6.06521739 C352,2.71115217 349.281103,0 345.931034,0 Z M339.862069,266.869565 L12.137931,266.869565 L12.137931,12.1304348 L339.862069,12.1304348 L339.862069,266.869565 Z" id="Shape"></path>
                    <path d="M97.5,133 C115.973424,133 131,117.973424 131,99.5060154 C131,81.0265757 115.973424,66 97.5,66 C79.0265757,66 64,81.0265757 64,99.5 C64,117.973424 79.0265757,133 97.5,133 Z M97.5,78.0308853 C109.338391,78.0308853 118.969115,87.6676243 118.969115,99.5 C118.969115,111.332376 109.338391,120.969115 97.5,120.969115 C85.6616089,120.969115 76.0308853,111.338391 76.0308853,99.5060154 C76.0308853,87.6736398 85.6616089,78.0308853 97.5,78.0308853 Z" id="Shape"></path>
                    <path d="M42.0669923,242 C43.4859178,242 44.9169708,241.504419 46.0690898,240.495127 L144.987599,153.695992 L207.456702,215.951798 C209.827642,218.314872 213.659953,218.314872 216.030893,215.951798 C218.401833,213.588725 218.401833,209.769128 216.030893,207.406054 L186.882283,178.35415 L242.553885,117.591129 L310.838157,179.979896 C313.306117,182.234184 317.144492,182.064961 319.406284,179.605189 C321.668075,177.145417 321.504353,173.319776 319.030329,171.065489 L246.26492,104.585159 C245.076419,103.503343 243.493771,102.965457 241.898996,103.001719 C240.292093,103.074243 238.776147,103.781352 237.69073,104.96591 L178.302029,169.796319 L149.541501,141.131209 C147.273646,138.876922 143.647503,138.762092 141.246244,140.865288 L38.0588311,231.41754 C35.5423607,233.623478 35.2998093,237.443076 37.5130905,239.951197 C38.7137197,241.311022 40.3873241,242 42.0669923,242 Z" id="Shape"></path>
                </g>
                <text id="Image-not-available" font-family="Inter" font-size="42" font-weight="bold" fill="#333333">
                    <tspan x="0.337" y="360">Image not available</tspan>
                </text>
            </g>
        </g>
    </g>
</svg>