<svg xmlns="http://www.w3.org/2000/svg" width="14" height="16" viewBox="0 0 14 16">
    <path fill="#979797" fill-rule="nonzero" d="M12.939 15.173H1.683a.401.401 0 1 0 0 .803h11.67c.222 0 .402-.18.402-.402a6.86 6.86 0 0 0-6.852-6.851 6.86 6.86 0 0 0-6.852 6.851c0 .222.18.402.402.402h1.605a.401.401 0 1 0 0-.803H.868a6.057 6.057 0 0 1 6.035-5.647c3.2 0 5.829 2.498 6.036 5.647zM6.903 7.92a3.965 3.965 0 0 0 3.96-3.96A3.965 3.965 0 0 0 6.903 0a3.965 3.965 0 0 0-3.96 3.96 3.965 3.965 0 0 0 3.96 3.96zm0-7.117A3.161 3.161 0 0 1 10.06 3.96a3.161 3.161 0 0 1-3.157 3.158A3.161 3.161 0 0 1 3.746 3.96 3.161 3.161 0 0 1 6.903.803z" />
</svg>
