<svg xmlns="http://www.w3.org/2000/svg" width="16" height="17" viewBox="0 0 16 17">
    <path fill="#979797" fill-rule="nonzero" d="M14.377 1.067l.945-.945a.416.416 0 1 1 .59.59l-.945.944v6.41l-.043.105-7.602 7.807a1.093 1.093 0 0 1-1.545.003L.32 10.523A1.084 1.084 0 0 1 0 9.752c0-.291.114-.566.32-.771l7.805-7.87.106-.044h6.146zM3.164 7.296L.91 9.569a.256.256 0 0 0-.001.365l5.457 5.457c.1.1.264.1.363.002l2.236-2.296-5.801-5.801zm10.97-4.807l-.95.95a1.485 1.485 0 0 1-1.3 2.194A1.485 1.485 0 0 1 10.4 4.15a1.485 1.485 0 0 1 2.195-1.3l.95-.95h-5.03L3.752 6.704 9.546 12.5l4.588-4.711v-5.3zM11.884 3.5a.651.651 0 0 0 0 1.3.651.651 0 0 0 .647-.708l-.353.353a.416.416 0 1 1-.589-.59l.353-.352a.6.6 0 0 0-.058-.003zm.95.65a.951.951 0 0 1-1.9 0c0-.524.426-.95.95-.95a.94.94 0 0 1 .407.095l.191.091-.68.682a.116.116 0 1 0 .164.165l.681-.682.092.192a.94.94 0 0 1 .095.407z" />
</svg>
