<svg xmlns="http://www.w3.org/2000/svg" width="16" height="16" viewBox="0 0 16 16">
    <path fill="#979797" fill-rule="nonzero" d="M14.9 6.11h-.587a6.63 6.63 0 0 0-.657-1.588l.415-.415a.804.804 0 0 0 .236-.572.805.805 0 0 0-.236-.572l-1.325-1.325a.829.829 0 0 0-1.144 0l-.415.415A6.65 6.65 0 0 0 9.6 1.396V.809A.81.81 0 0 0 8.791 0H6.918a.81.81 0 0 0-.809.809v.587c-.556.15-1.088.37-1.587.657l-.415-.415a.828.828 0 0 0-1.144 0L1.638 2.963a.804.804 0 0 0-.237.572c0 .216.084.419.237.572l.415.415a6.622 6.622 0 0 0-.657 1.587H.809A.81.81 0 0 0 0 6.918V8.79a.81.81 0 0 0 .809.809h.587c.15.556.37 1.088.657 1.587l-.415.415a.804.804 0 0 0-.236.572c0 .216.084.42.236.572l1.325 1.325a.828.828 0 0 0 1.144 0l.415-.415c.5.287 1.031.508 1.587.658v.587a.81.81 0 0 0 .81.808H8.79a.81.81 0 0 0 .809-.808v-.587a6.645 6.645 0 0 0 1.587-.658l.415.415a.828.828 0 0 0 1.144 0l1.325-1.325a.804.804 0 0 0 .237-.572.804.804 0 0 0-.237-.572l-.415-.415c.287-.499.508-1.031.658-1.587h.587a.81.81 0 0 0 .808-.809V6.918a.81.81 0 0 0-.809-.809zm.227 2.681a.227.227 0 0 1-.227.227h-1.045l-.052.225a6.076 6.076 0 0 1-.76 1.836l-.122.196.738.739a.227.227 0 0 1 0 .32l-1.324 1.325a.227.227 0 0 1-.321 0l-.739-.738-.196.122a6.062 6.062 0 0 1-1.836.76l-.225.052V14.9a.227.227 0 0 1-.227.227H6.918a.227.227 0 0 1-.227-.227v-1.045l-.225-.052a6.076 6.076 0 0 1-1.836-.76l-.196-.122-.739.738a.227.227 0 0 1-.32 0L2.05 12.335a.227.227 0 0 1 0-.321l.738-.739-.122-.196a6.062 6.062 0 0 1-.76-1.836l-.052-.225H.809a.227.227 0 0 1-.227-.227V6.918c0-.125.102-.227.227-.227h1.045l.052-.225a6.07 6.07 0 0 1 .76-1.836l.122-.196-.738-.739a.227.227 0 0 1 0-.32L3.374 2.05a.227.227 0 0 1 .321 0l.739.738.196-.122a6.062 6.062 0 0 1 1.836-.76l.225-.052V.809c0-.125.102-.227.227-.227H8.79c.125 0 .227.102.227.227v1.045l.225.052c.65.152 1.268.407 1.836.76l.196.122.739-.738a.227.227 0 0 1 .32 0l1.325 1.324a.227.227 0 0 1 0 .321l-.738.739.122.196c.353.567.609 1.185.76 1.836l.052.225H14.9c.125 0 .227.102.227.227V8.79zM7.855 4.945a2.912 2.912 0 0 0-2.91 2.91 2.912 2.912 0 0 0 2.91 2.909 2.912 2.912 0 0 0 2.909-2.91 2.912 2.912 0 0 0-2.91-2.909zm0 5.237a2.33 2.33 0 0 1-2.328-2.327 2.33 2.33 0 0 1 2.328-2.328 2.33 2.33 0 0 1 2.327 2.328 2.33 2.33 0 0 1-2.327 2.327zm0-6.4a4.077 4.077 0 0 0-4.073 4.073 4.077 4.077 0 0 0 4.073 4.072 4.077 4.077 0 0 0 4.072-4.072 4.077 4.077 0 0 0-4.072-4.073zm0 7.563a3.495 3.495 0 0 1-3.491-3.49 3.495 3.495 0 0 1 3.49-3.491 3.495 3.495 0 0 1 3.491 3.49 3.495 3.495 0 0 1-3.49 3.491z" />
</svg>
