<svg width="267" height="268" viewBox="0 0 267 268" fill="none" xmlns="http://www.w3.org/2000/svg">
<g filter="url(#filter0_d_1125_519)">
<rect x="18" y="16" width="226.982" height="228" rx="15" fill="white"/>
</g>
<path d="M79.7352 140.277L79.7077 140.19L97.0266 124.335V116.696H69.2415V124.335H85.8375L85.8649 124.408L68.7153 140.277V147.916H97.3056V140.277H79.7352Z" fill="#201515"/>
<path d="M114.363 115.969C111.159 115.969 108.547 116.452 106.528 117.419C104.647 118.261 103.063 119.649 101.981 121.403C100.946 123.168 100.295 125.132 100.073 127.167L108.504 128.352C108.809 126.555 109.419 125.282 110.334 124.532C111.374 123.747 112.655 123.351 113.957 123.411C115.668 123.411 116.909 123.868 117.68 124.783C118.445 125.698 118.833 126.965 118.833 128.635V129.468H110.727C106.601 129.468 103.637 130.383 101.834 132.212C100.032 134.042 99.1325 136.457 99.1355 139.458C99.1355 142.532 100.035 144.819 101.834 146.32C103.634 147.82 105.897 148.566 108.623 148.557C112.005 148.557 114.607 147.393 116.427 145.066C117.502 143.637 118.27 142 118.682 140.259H118.988L120.15 147.898H127.79V128.553C127.79 124.555 126.736 121.458 124.629 119.262C122.522 117.066 119.1 115.969 114.363 115.969ZM117.035 139.815C115.823 140.826 114.236 141.329 112.26 141.329C110.631 141.329 109.5 141.044 108.865 140.474C108.556 140.204 108.31 139.869 108.145 139.494C107.98 139.118 107.899 138.711 107.909 138.301C107.891 137.914 107.952 137.528 108.088 137.165C108.224 136.803 108.433 136.472 108.701 136.192C108.991 135.92 109.333 135.71 109.706 135.574C110.08 135.438 110.477 135.379 110.874 135.401H118.847V135.927C118.863 136.67 118.708 137.408 118.394 138.082C118.08 138.756 117.615 139.349 117.035 139.815Z" fill="#201515"/>
<path d="M173.982 116.696H164.957V147.921H173.982V116.696Z" fill="#201515"/>
<path d="M227.27 116.696C224.72 116.696 222.71 117.595 221.241 119.395C220.186 120.688 219.384 122.598 218.835 125.126H218.569L217.389 116.696H209.681V147.916H218.707V131.906C218.707 129.887 219.18 128.339 220.125 127.263C221.07 126.186 222.814 125.648 225.358 125.648H228.784V116.696H227.27Z" fill="#201515"/>
<path d="M200.724 117.716C198.618 116.462 195.959 115.837 192.752 115.84C187.701 115.84 183.749 117.278 180.895 120.154C178.04 123.03 176.613 126.994 176.613 132.048C176.54 135.103 177.207 138.13 178.557 140.872C179.793 143.315 181.717 145.342 184.092 146.704C186.482 148.086 189.326 148.778 192.624 148.781C195.475 148.781 197.856 148.342 199.768 147.463C201.566 146.675 203.131 145.438 204.316 143.872C205.443 142.335 206.28 140.605 206.785 138.767L199.009 136.59C198.682 137.785 198.051 138.875 197.18 139.756C196.301 140.634 194.829 141.073 192.765 141.073C190.31 141.073 188.48 140.37 187.276 138.964C186.402 137.949 185.853 136.498 185.611 134.618H206.905C206.992 133.74 207.037 133.004 207.037 132.409V130.465C207.088 127.853 206.549 125.263 205.459 122.89C204.439 120.727 202.788 118.924 200.724 117.716ZM192.491 123.283C196.15 123.283 198.225 125.084 198.716 128.685H185.771C185.976 127.484 186.474 126.351 187.221 125.387C188.407 123.981 190.164 123.28 192.491 123.283Z" fill="#201515"/>
<path d="M169.568 104.112C168.889 104.088 168.212 104.202 167.578 104.446C166.944 104.689 166.366 105.058 165.876 105.53C165.395 106.006 165.017 106.577 164.767 107.207C164.518 107.837 164.402 108.512 164.426 109.189C164.402 109.871 164.518 110.55 164.769 111.185C165.018 111.819 165.396 112.395 165.879 112.877C166.361 113.359 166.938 113.737 167.573 113.986C168.208 114.235 168.887 114.351 169.568 114.326C170.245 114.352 170.92 114.236 171.55 113.987C172.181 113.737 172.752 113.359 173.228 112.876C173.7 112.389 174.068 111.811 174.311 111.177C174.554 110.544 174.666 109.867 174.641 109.189C174.673 108.515 174.563 107.842 174.319 107.213C174.075 106.583 173.703 106.012 173.227 105.534C172.749 105.057 172.178 104.684 171.549 104.44C170.92 104.196 170.247 104.086 169.573 104.116L169.568 104.112Z" fill="#201515"/>
<path d="M150.923 115.84C147.849 115.84 145.378 116.806 143.512 118.736C142.13 120.166 141.116 122.301 140.47 125.14H140.182L139.002 116.709H131.294V156.891H140.319V140.341H140.649C140.924 141.445 141.31 142.517 141.801 143.543C142.565 145.214 143.817 146.614 145.393 147.56C147.026 148.451 148.866 148.894 150.726 148.845C154.505 148.845 157.381 147.373 159.358 144.431C161.334 141.488 162.322 137.381 162.322 132.112C162.322 127.022 161.366 123.038 159.454 120.159C157.542 117.28 154.698 115.84 150.923 115.84ZM151.838 138.466C150.785 139.99 149.139 140.753 146.897 140.753C145.973 140.795 145.052 140.617 144.211 140.233C143.368 139.849 142.63 139.27 142.058 138.543C140.889 137.076 140.307 135.068 140.31 132.519V131.924C140.31 129.335 140.892 127.353 142.058 125.977C143.222 124.602 144.836 123.922 146.897 123.937C149.179 123.937 150.836 124.661 151.87 126.11C152.904 127.559 153.42 129.579 153.42 132.171C153.427 134.852 152.902 136.95 151.846 138.466H151.838Z" fill="#201515"/>
<path d="M65.2251 140.277H34V147.926H65.2251V140.277Z" fill="#FF4F00"/>
<defs>
<filter id="filter0_d_1125_519" x="0" y="0" width="266.982" height="268" filterUnits="userSpaceOnUse" color-interpolation-filters="sRGB">
<feFlood flood-opacity="0" result="BackgroundImageFix"/>
<feColorMatrix in="SourceAlpha" type="matrix" values="0 0 0 0 0 0 0 0 0 0 0 0 0 0 0 0 0 0 127 0" result="hardAlpha"/>
<feOffset dx="2" dy="4"/>
<feGaussianBlur stdDeviation="10"/>
<feComposite in2="hardAlpha" operator="out"/>
<feColorMatrix type="matrix" values="0 0 0 0 0 0 0 0 0 0 0 0 0 0 0 0 0 0 0.2 0"/>
<feBlend mode="normal" in2="BackgroundImageFix" result="effect1_dropShadow_1125_519"/>
<feBlend mode="normal" in="SourceGraphic" in2="effect1_dropShadow_1125_519" result="shape"/>
</filter>
</defs>
</svg>
