<svg xmlns="http://www.w3.org/2000/svg" width="67" height="35" viewBox="0 0 67 35">
    <g fill="none" fill-rule="evenodd">
        <ellipse cx="63.637" cy="23.676" fill="#2296ff" rx="3.363" ry="3.346"/>
        <path fill="#F8CB33" d="M0 6.949h5.958l4.144 14.097 4.061-14.097h5.582l-7.849 22.72c-1.204 3.388-3.098 5.082-5.682 5.081H2.847V30.37h1.8c1.94.053 2.71-1.32 2.59-3.117L0 6.95zm34.665 14.169v3.144c-1.976 2.723-5.42 3.758-10.33 3.104-5.575-1.321-8.146-5.116-7.713-11.384l2.053-5.932c5.864-6.737 14.684-2.764 15.99 0v8.239H21.98c-.431 3.905 6.064 7.048 9.322 2.829h3.364zm-3.742-6.227c0-2.487-1.826-4.246-4.398-4.246-2.572 0-4.398 1.759-4.398 4.246h8.796zm9.175 7.024v4.85h-5.433V0h5.433v11.874a10.612 10.612 0 0 1 9.33-5.531c5.858 0 10.607 4.724 10.607 10.551 0 5.828-4.749 10.552-10.606 10.552-4.031 0-7.537-2.237-9.331-5.53zm9.33 1.156c2.715 0 4.916-2.823 4.916-6.305 0-3.483-2.201-6.305-4.915-6.305-2.715 0-4.916 2.822-4.916 6.305 0 3.482 2.201 6.305 4.916 6.305z"/>
    </g>
</svg>
