<svg xmlns="http://www.w3.org/2000/svg" width="502" height="114" viewBox="0 0 502 114">
    <g fill="none" fill-rule="evenodd">
        <path fill="#8D2C2E" d="M0 114l16.733-32.427L0 48h89v66zM413 114V48h89l-16.717 34.343L502 114z"/>
        <path fill="#C52125" d="M55 86.32V20.68L250.5 0 446 20.68v65.64L250.5 107z"/>
        <g fill="#FFF">
            <path d="M261.159 51.208c-1.92 0-3.677-.317-5.269-.95-1.591-.632-2.943-1.505-4.055-2.619a11.617 11.617 0 0 1-2.577-3.948c-.607-1.519-.91-3.164-.91-4.935 0-1.772.303-3.442.91-5.012.606-1.569 1.465-2.923 2.577-4.062 1.112-1.138 2.464-2.037 4.055-2.695 1.592-.658 3.348-.987 5.269-.987 1.97 0 3.74.329 5.306.987 1.567.658 2.918 1.557 4.056 2.695 1.137 1.14 2.008 2.493 2.615 4.062.606 1.57.91 3.24.91 5.012 0 1.771-.304 3.416-.91 4.935a11.35 11.35 0 0 1-2.615 3.948c-1.138 1.114-2.49 1.987-4.056 2.62-1.567.632-3.335.949-5.306.949zm-4.927 26.194l32.292-50.643h5.761l-32.368 50.643h-5.685zm4.927-32.117c1.769 0 3.209-.594 4.32-1.784 1.112-1.19 1.668-2.771 1.668-4.745 0-2.126-.556-3.784-1.667-4.974-1.112-1.19-2.552-1.784-4.321-1.784-1.718 0-3.146.595-4.283 1.784-1.137 1.19-1.706 2.848-1.706 4.974 0 1.974.569 3.555 1.706 4.745s2.565 1.784 4.283 1.784zM177.482 78.829c-4.448 0-8.263-.67-11.447-2.012-3.184-1.342-5.862-3.202-8.035-5.58l5.988-7.518a18.058 18.058 0 0 0 5.989 4.1c2.274.962 4.75 1.443 7.429 1.443 3.032 0 5.357-.734 6.974-2.202s2.425-3.24 2.425-5.315c0-2.277-.795-4.1-2.387-5.466-1.592-1.367-3.828-2.05-6.709-2.05-2.123 0-4.043.316-5.761.949-1.718.632-3.335 1.683-4.852 3.15l-7.504-1.973v-29.08h34.718v9.49h-23.954v12.377c1.213-1.215 2.792-2.228 4.738-3.037 1.945-.81 4.08-1.215 6.405-1.215 2.123 0 4.17.38 6.14 1.139 1.971.759 3.702 1.834 5.193 3.226 1.49 1.392 2.678 3.1 3.563 5.126.884 2.024 1.326 4.327 1.326 6.909 0 2.683-.48 5.112-1.44 7.289a15.392 15.392 0 0 1-4.093 5.542c-1.77 1.519-3.904 2.683-6.406 3.493-2.501.81-5.268 1.215-8.3 1.215zm44.055 0c-3.639 0-6.772-.747-9.4-2.24a19.266 19.266 0 0 1-6.481-5.96c-1.693-2.48-2.956-5.277-3.79-8.39a36.96 36.96 0 0 1-1.251-9.605 37.1 37.1 0 0 1 1.25-9.567c.835-3.138 2.098-5.934 3.79-8.39 1.694-2.454 3.854-4.428 6.482-5.922 2.628-1.493 5.761-2.24 9.4-2.24 3.588 0 6.696.747 9.324 2.24a19.785 19.785 0 0 1 6.519 5.923c1.718 2.455 2.994 5.251 3.828 8.39a37.1 37.1 0 0 1 1.25 9.566c0 3.29-.416 6.492-1.25 9.605-.834 3.113-2.11 5.91-3.828 8.39a19.628 19.628 0 0 1-6.52 5.96c-2.627 1.493-5.735 2.24-9.323 2.24zm0-9.567c1.82 0 3.348-.43 4.586-1.29 1.238-.861 2.261-2.038 3.07-3.531.809-1.493 1.39-3.252 1.743-5.277.354-2.025.531-4.201.531-6.53 0-2.328-.177-4.505-.53-6.53-.354-2.024-.935-3.77-1.744-5.238-.809-1.468-1.832-2.632-3.07-3.493-1.238-.86-2.767-1.29-4.586-1.29-1.82 0-3.36.43-4.624 1.29-1.264.86-2.3 2.025-3.108 3.493-.809 1.468-1.39 3.214-1.744 5.239-.353 2.024-.53 4.2-.53 6.53 0 2.328.177 4.504.53 6.529.354 2.025.935 3.784 1.744 5.277.808 1.493 1.844 2.67 3.108 3.53 1.263.86 2.805 1.291 4.624 1.291zM305.396 77.49V52.95h17.338v4.598h-12.122v5.188h11.865v4.599h-11.865v10.154h-5.216zm20.994 0V52.95h17.338v4.598h-12.122v5.188h11.865v4.599h-11.865v10.154h-5.216z"/>
            <path stroke="#FFF" stroke-width=".9" d="M289.117 76.844c-1.798 0-3.463-.305-4.996-.916-1.534-.611-2.858-1.467-3.972-2.57-1.114-1.101-1.983-2.413-2.606-3.934-.623-1.521-.934-3.18-.934-4.977 0-1.796.311-3.455.934-4.976s1.492-2.833 2.606-3.935c1.114-1.102 2.438-1.958 3.972-2.569 1.533-.61 3.198-.916 4.996-.916 1.82 0 3.498.305 5.031.916 1.534.611 2.858 1.467 3.972 2.57 1.114 1.101 1.983 2.413 2.606 3.934.623 1.521.934 3.18.934 4.976 0 1.797-.311 3.456-.934 4.977-.623 1.521-1.492 2.833-2.606 3.935-1.114 1.102-2.438 1.958-3.972 2.569-1.533.61-3.21.916-5.031.916zm0-4.527c1.102 0 2.102-.204 3-.611a6.978 6.978 0 0 0 2.301-1.653 7.331 7.331 0 0 0 1.474-2.48c.347-.958.52-2 .52-3.126 0-1.125-.173-2.167-.52-3.126a7.532 7.532 0 0 0-1.474-2.497 6.652 6.652 0 0 0-2.3-1.653c-.899-.395-1.9-.593-3.001-.593-1.103 0-2.103.198-3.002.593a6.473 6.473 0 0 0-2.282 1.653 7.701 7.701 0 0 0-1.456 2.497c-.347.959-.52 2-.52 3.126s.173 2.168.52 3.127c.348.958.833 1.784 1.456 2.479a6.783 6.783 0 0 0 2.282 1.653c.899.407 1.9.61 3.002.61z"/>
        </g>
    </g>
</svg>
