<svg xmlns="http://www.w3.org/2000/svg" xmlns:xlink="http://www.w3.org/1999/xlink" width="177" height="304" viewBox="0 0 177 304">
    <defs>
        <path id="a" d="M.925.929h58.79v65.485H.925z"/>
    </defs>
    <g fill="none" fill-rule="evenodd">
        <path fill="#DAE6ED" d="M124 149.468L126.138 135c94.068 6.383 30.786 55.745 5.558 60l-3.42-11.064c38.91-7.234 52.165-39.149-4.276-34.468"/>
        <path fill="#CCDDE6" d="M18.04 185.603V198c-29.44-3.847-27.307-45.313 40.107-56L59 156.534c-22.187 1.71-55.467 18.382-40.96 29.07"/>
        <path fill="#B7CFDB" d="M7 164.857c2.983-3 6.391-6.428 11.078-9.428 11.93.857 25.565-1.715 34.513-3.429.852 1.714 2.13 3.429 3.409 4.714C39.809 158 21.487 167 15.948 176c-2.13-5.143-5.113-9-8.948-11.143"/>
        <path fill="#DAE6ED" d="M49.362 146.37c0-43.596 6.021-54.708 11.182-97.02C66.134 4.044 67.855-2.367 75.596.624c18.064-1.71-12.902 82.489 9.892 83.771 21.504.855 21.074 20.088 20.644-10.258-.43-11.967-10.752-76.077 5.16-71.803 10.752-4.701 14.623 101.294 17.633 137.623 2.15 28.636 5.161 100.012.43 137.196 0 9.403 13.333 5.129 14.623 19.233.86 9.83-23.654 4.701-29.245 3.847-9.031-2.138 4.73-55.99 1.72-65.82-3.01-9.83-46.878-3.42-50.748 1.71-4.3 5.128.86 29.917 1.72 47.868 8.602 2.992 10.752 18.806 6.021 19.233-10.752.428-17.633 4.274-20.643-10.257-8.172-46.587-3.44-99.585-3.44-146.599"/>
        <path fill="#EBF2F5" d="M57.168 75.757c1.293-7.684 2.586-15.795 3.879-26.467C66.649 4.04 68.373-2.364 76.13.625c18.1-1.708-12.928 82.39 9.912 83.67 21.548.854 21.117 20.064 20.686-10.245-.43-11.953-10.774-75.987 5.172-71.718 10.774-4.696 14.652 101.173 17.669 137.459.431 6.403 0 13.66.431 23.906-.862 5.122-1.724 10.245-2.155 16.648-1.724 11.526-5.171 22.626-14.652 28.602-3.448 2.134-7.758 3.842-12.93 4.696-12.928 1.707-24.133-2.988-30.166-8.111-3.879-2.988-7.757-10.672-9.912-15.368-6.465-14.941-3.017-31.163-4.74-46.958-1.725-23.479 2.154-46.531 1.723-67.449"/>
        <path fill="#DAE6ED" d="M74.887 83.427c-1.744-6.43-3.052-24.863-1.744-36.865 1.744-17.576 5.668-33.865-.436-31.293-1.744.857-14.389 60.87-5.668 73.731.436-2.143 6.976-6.001 7.848-5.573M120.885 90.992c-2.663-.428-5.326-2.991-7.545-3.419 0-10.255.443-5.555-.444-16.238-2.663-28.203-3.995-38.885-1.776-39.313 2.22-.427 4.882 5.128 7.99 30.34 1.33 12.82 2.218 29.057 1.775 28.63"/>
        <path fill="#CCDDE6" d="M50.28 161.398V152c4.241 3.845 4.241 13.243 4.665 25.631.425 15.38-.848 20.078 3.818 35.885-8.907 17.942-5.514 70.059.848 79.457 3.393 4.7 8.058 6.835 16.965 5.126H77c0 2.99-.848 5.127-2.545 5.127-10.603.427-17.389 4.272-20.358-10.253-8.482-46.137-3.817-84.584-3.817-131.575M129.043 188.19c-3.826-.86-8.078 1.29-11.904 4.732-2.126 9.463-1.276 16.346 2.55 21.078 3.827 0 7.654-1.29 9.354-8.603 1.276-3.872 1.276-9.894 0-17.207"/>
        <g transform="translate(117 134)">
            <mask id="b" fill="#fff">
                <use xlink:href="#a"/>
            </mask>
            <path fill="#FFF" d="M8.507 6.454L9.361.929c93.866 6.375 32.426 55.25 7.253 59.5-15.36 17-24.32-7.225-3.413-11.05 27.306-6.375 33.706-19.125 30.293-27.625-2.987-8.5-16.64-12.75-34.987-15.3" mask="url(#b)"/>
        </g>
        <path fill="#B7CFDB" d="M143.978 296.196v.856c.859 9.837-23.614 4.704-29.196 3.849-9.016-2.139 4.723-56.03 1.718-65.868-2.147-7.27-25.332-5.988-39.5-2.566 11.163-2.994 29.196-5.132 37.782-4.277 14.598-1.283-1.717 53.892 4.294 67.578 2.576 4.278 13.739 3.422 24.902.428"/>
        <path fill="#FFF" d="M65.26 244c0 10.294 3.044 27.02 3.48 40.316 4.782 1.287 7.39 6.863 8.26 11.58-4.783.43-10-.428-14.348-3.43C58.74 289.891 57 265.444 57 262.87c0-9.864 3.478-15.869 8.26-18.871"/>
        <path fill="#E6E7E8" d="M132.039 235c0 15.718-.854 30.586-2.136 42.056 0 8.496 11.107 5.523 14.097 15.718-6.835 3.823-15.806 4.248-20.505 1.275-4.698-2.974-3.844-21.24-2.135-29.737 1.708-15.293 5.553-24.214 10.679-29.312"/>
        <path fill="#FFF" d="M17.509 183.672c-16.023-14.755-25.55 2.604-3.897 14.321 5.629 2.604 15.589 5.208 24.25 0 2.165-1.302 3.464-9.113 0-12.585-3.465-2.604-16.456-1.736-20.353-1.736"/>
        <path fill="#CCDDE6" d="M127.425 125.983c-21.03-14.502-42.487-14.928-64.375.426-1.287 4.692 22.317 46.064 66.95 24.312 0-9.384-1.717-19.62-2.575-24.738"/>
        <path fill="#FFF" d="M141.997 119.641c.43-7.703-43.44-50.925-73.116-29.956-9.462 6.42-11.183 26.532-6.022 39.37 6.022 14.979 28.817 19.258 45.16 15.835 9.462-2.14 33.548-14.55 33.978-25.249"/>
        <path fill="#4F4B6A" d="M84.674 98.119c-1.4 3.826-.467 6.377 1.399 6.802 1.399.425 3.264-.85 3.73-4.251 1.4-5.953-5.13-2.977-5.13-2.551M111.743 93.458c-2.214-1.364-4.429.455-3.543 3.637 1.329 3.183 4.872 5.001 6.2 3.183.886-.91 1.33-4.092-2.657-6.82"/>
        <path fill="#808184" d="M141.92 120.316c0-1.684.84-2.105-2.94-6.316-12.602 3.368-10.502 14.737-2.52 16 3.36-3.368 5.46-7.158 5.46-9.684"/>
        <path fill="#B7CFDB" d="M92.65 156.606c-6.864-3.394-13.729-6.788-20.593-10.606-3.433 6.364-6.007 12.303-4.72 17.394 5.578.424 11.584.424 18.02-1.273 3.433 2.97 7.723 4.243 13.3 2.546 4.72 4.242 10.298 7.212 15.875 9.333.858-3.394.43-8.06-.429-13.152-7.723-1.272-14.587-2.97-21.452-4.242"/>
        <path fill="#EC1C24" d="M89.697 160.115c.434-2.544.869-4.665 1.303-7.21-6.515-2.544-12.596-5.512-18.677-8.905-2.172 5.513-2.606 11.45-2.172 17.387 6.081 1.273 12.596.425 19.546-1.272M99 161.304l1.284-6.521c5.136 0 11.128-2.174 16.692-4.783.856 6.957 1.284 13.478.856 20-5.992-1.74-12.412-5.217-18.832-8.696"/>
        <path fill="#B01117" d="M99 161.304v-.87c.864 0 1.295 0 2.16-.434 5.18 3.043 9.93 6.522 16.84 8.26V170c-6.045-1.74-12.523-5.217-19-8.696"/>
        <path fill="#C3161C" d="M88.581 160.6L89 159c-5.86 1.2-11.72 1.6-17.163.4 0 .8-.418 1.6-.837 2.4 5.86.8 11.72 0 17.581-1.2"/>
        <path fill="#F0584B" d="M98.542 152.517c-5.453-3.464-12.584-.433-12.165 3.464-5.034 2.598-1.258 6.062 3.775 7.362 6.293 1.732 14.682.433 10.907-8.661 0-.866-1.678-1.732-2.517-2.165"/>
        <path fill="#F37A66" d="M99.2 152.4c-2.957-1.69-6.335-1.69-8.87-.845-2.955 1.689-3.8 4.222 1.69 7.178 1.69.845 5.068 1.267 7.18 1.267 1.688 0 3.378-.845 3.8-2.111 0-.845-.422-2.112-.845-3.8-.422-.423-2.111-1.267-2.956-1.69"/>
        <path fill="#F0584B" d="M104 154.194A59.47 59.47 0 0 0 117.152 150c.424 4.613.848 8.806.848 13-2.545-.42-5.09-1.677-6.788-2.097-2.121-1.258-5.515-4.193-7.212-6.71M87 152.367c-4.722-2.167-9.445-4.334-14.167-7.367-1.288 4.767-4.293 13 2.147 13h.429c6.869 0 9.445-.867 11.591-5.633"/>
    </g>
</svg>
