<svg xmlns="http://www.w3.org/2000/svg" xmlns:xlink="http://www.w3.org/1999/xlink" width="74" height="115" viewBox="0 0 74 115">
    <defs>
        <path id="a" d="M.392.186H16.02v22.671H.392z"/>
        <path id="c" d="M.4.732h64.078v30.32H.4z"/>
    </defs>
    <g fill="none" fill-rule="evenodd">
        <path fill="#3D7B93" d="M13.263 96.53c-3.685 1.942-1.164.583-1.746 1.068.194 1.262-1.551 1.359-.194 5.531 15.713 5.532 38.312-4.657 51.405-13.294 5.82-3.882-3.297-12.324-21.434-7.18-13.773 3.88-18.526 5.045-28.03 13.876"/>
        <path fill="#C4D8E2" d="M40.518 28.603c-1.843-1.65-4.656-2.038-6.984-.776-1.455.776-2.715 4.852-.776 6.404 2.328-.388 3.783-1.94 6.305-3.978.485-.291 1.552-1.553 1.455-1.65"/>
        <path fill="#3D7B93" d="M56.23 86.342c.097 3.687-2.521 2.426-2.23-.583-1.067-1.65 0-2.523 1.454-3.299-.581-1.65-.194-2.523 1.455-2.426 1.843-2.911 2.62-2.232 3.298-.776.97-3.785 3.104-2.426 2.328.097 3.394-4.173 7.662-.194-.68 1.844 10.185 0 9.603 7.375-1.357 1.94 6.983 4.561 4.268 7.86-2.037 2.33 4.074 5.142.291 5.822-2.23.873M12.875 91.582c0 1.067-.485 1.65-1.455 1.94-9.117 2.232-7.856-1.455-.97-1.164-6.013-1.553-5.334-5.531.68-1.164-2.813-4.561 1.842-5.435 1.745.388"/>
        <path fill="#4E859D" d="M45.95 88.574c-.292-1.359.775-2.33 1.745-1.553 1.358-2.135 2.134-1.455 2.328-.097 2.037-3.008 4.946-2.038 1.26 1.068 2.038.776 1.553 2.134-1.454 1.164 3.395 1.553 3.977 3.882-.873 1.553 3.2 2.329 2.23 4.366-1.455 1.552 2.23 3.009 1.164 4.95-2.716.486 2.037 2.91.68 4.075-1.454.873.775 2.523-.776 2.814-1.746.873.29 4.173-1.65 4.367-2.231.777-.582 1.65-1.358 1.843-2.328.194 1.746 4.463-.388 4.56-2.23 1.067-.486 1.747-1.843 1.94-2.231.68-2.328 3.299-3.686 2.037-1.94-.195-3.007 2.33-4.656.777-1.455-1.455-4.268.485-4.462-2.717.388-1.262-3.2-2.426-2.619-4.367 1.164-1.358-.776-1.941.679-2.426 2.327-.68.485-.679 1.067-.776 1.94-.29 1.067 0 1.94-.292 2.62-.874.29-.776.969-.874 2.036-.388.388-.68 1.067-.97 2.037-.583 1.067.486 1.746.097 2.23-.582.291-1.164 1.067-1.261 2.037-.97"/>
        <path fill="#4E859D" d="M37.802 92.261c-.873 2.038-1.746 1.844-2.619.68-.679 1.358-1.357 2.231-2.036.582-.68 1.746-1.358 2.232-2.328.97-.873 1.65-1.649 1.844-2.328.97-.29 1.165-.873 1.941-2.328 1.359-1.067 1.747-1.94 1.65-2.618.68-.388 1.746-1.65 2.231-2.716.97 1.649 3.687-.582 5.143-2.328.97-1.843 6.405-4.365 6.21-1.94-.68-1.843 5.726-3.685 4.853-2.328.486-8.826 7.957-8.535 1.164-2.036-2.135-7.178 3.008-7.275-.873.388-1.844-6.596.486-8.245-1.552.485-1.94-2.813-.195-4.268-1.941-.291-1.844-7.663-1.068-5.141-3.785.194-1.747-6.402-3.59-3.492-4.852 1.066-2.426-1.26-.776-2.618-1.65-.194-2.62-5.334.485-8.147-3.202 1.164-1.844-1.94-1.164-.097-3.59 1.65-2.523-1.747-1.746-.098-3.59 2.327-2.038-.388-1.746 2.328-3.008 3.298-1.843-.097-1.165 1.94-2.038 2.812-1.068.68-1.455 1.843-1.844 3.298-1.746.97-.874 1.94-1.747 3.2-.583.389-1.261 1.262-1.455 2.426-.873 1.163-1.067 2.424-1.94 4.073-.485.776-1.553 1.843-1.553 3.007-.777.97-1.067 1.94-2.231 3.588-1.067.291-4.173 3.686-3.882 3.201.582 1.455-5.337 5.335-4.658 2.813.194 1.358-2.62 3.007-2.232 1.358.97 2.91-4.366 7.08-5.045 1.746 1.747 5.237-5.725 7.468-4.463 1.94.874 1.94-1.941 5.237-.194 2.133 1.552 7.856-.194 6.305 3.494.194 2.426 7.662 2.232 7.468 5.629-1.067 2.038-1.455-.776-1.067 1.456.68 1.553 3.394-.194 6.595.776.678 2.135 7.177 1.164 6.79 5.337-1.746 1.067 5.238 3.105 5.432 7.666-1.455 1.65 3.977 4.464 0 5.725-2.424 1.164 1.455 2.911-1.261 3.979-3.104.97-.388 2.233-1.067 2.427-2.134.486-.873 3.396-1.843 2.62-2.91 1.261-.97 1.747-1.745 1.844-2.424.486-.776 2.232-1.455 2.037-2.037.582-.776 1.455-1.552 2.329-2.328.68"/>
        <path fill="#3D7B93" d="M13.166 85.08c.194-.097.388-.194.679-.29-5.334.484-8.147-3.203 1.164-1.845-1.94-1.164-.097-3.59 1.649-2.523-1.746-1.746-.097-3.59 2.328-2.037-.388-1.747 2.327-3.009 3.297-1.844-.097-1.165 1.94-2.038 2.813-1.068.679-1.455 1.843-1.843 3.298-1.746.97-.874 1.94-1.747 3.2-.583.388-1.261 1.261-1.455 2.425-.873 1.164-1.067 2.425-1.94 4.074-.485.776-1.553 1.843-1.553 3.006-.776.97-1.068 1.94-2.232 3.59-1.068.29-4.173 3.685-3.881 3.2.582 1.455-5.337 5.334-4.658 2.813.194 1.357-2.62 3.006-2.231 1.357.97 2.91-4.366 7.08-5.045 1.746 1.748 5.238-5.726 7.469-4.464 1.94.873 1.94-1.94 5.238-.194 2.134 1.553 5.237-.195 6.304 1.455 4.558 2.231-2.036-1.843-4.85-2.134-7.856-2.037 1.649-.777 1.164-1.456.388-2.135-1.067 0-2.23.29-1.94-1.65-1.843.388-2.91 0-3.297-1.553-2.037 1.844-2.716.874-3.492.097-1.843-.679-3.298-.776-3.783 1.456-2.036-1.164-3.685-1.261-3.782 1.844-.97-.388-1.552-.097-1.65.776-.29-2.135-1.26-1.94-2.52-1.067-.68.873-1.553.679-2.329 0 .097.776-.194 1.358-1.26 1.65 1.842.388 3.394 1.067 3.394 3.008-.194.582 0 1.067.485 1.455-.485.68-.97.68-1.649-.097-1.26-.68-1.649-1.747-.97-2.717-.776-.873-2.134-.68-2.037.582-.872-1.455-2.23-.582-2.036.97-1.067-2.134-3.589-1.067-2.522 1.165-1.067-1.261-2.813-.485-2.813.874-.776-2.135-2.813-1.844-3.007.388-1.454-4.755-4.267-2.717-2.036 0-2.425-.777-3.589.582-1.358 1.65-1.843-.098-1.746 1.552.097 1.552-.873.388-2.037.582-3.298.776M56.812 90.223c-.291.68-1.455.582-2.619-.485.485-.097.97-.485 1.552-1.359.194.68.582 1.359 1.067 1.844m-19.01 2.038c-.873 2.038-1.746 1.844-2.619.68-.679 1.358-1.358 2.231-2.037.582-.679 1.746-1.358 2.231-2.328.97-.872 1.65-1.648 1.844-2.327.97-.291 1.165-.873 1.941-2.328 1.359-.776 1.261-1.455 1.553-1.94 1.261.291-.97.485-1.94-.194-3.299 1.26.873 2.328.776 3.2-.485 1.553.873 2.426.68 1.553-1.844 3.782.582 4.267-.582 1.745-3.493.68.29 1.261.29 1.552-.583-.097.874.097 1.65 1.067 1.747.097.776.582.97 1.164.776 1.455 1.262 2.522.874 3.298-.485.29 1.747 1.067 2.426 3.782-.485.97.291 1.455-.582 1.261-2.717.873 1.359 1.94 1.261 3.201-.291.582.873 1.164 1.552 2.134.291.97.776 1.94 1.553 3.782.873.388.486.873 1.068 1.261 1.359-.097 1.553-2.037 1.65-3.491-.68-.388 2.233-1.067 2.427-2.134.486-.873 3.396-1.843 2.62-2.91 1.261-.97 1.747-1.746 1.844-2.425.486-.776 2.231-1.455 2.037-2.036.582-.68 1.455-1.455 2.329-2.231.679"/>
        <path fill="#4E859D" d="M24.805 51.505c.679-1.65 1.358-1.456 2.134-.486.582-1.067 1.164-1.746 1.649-.485.485-1.358 1.164-1.747 1.842-.776.68-1.262 1.261-1.456 1.843-.776.291-.874.68-1.553 1.843-1.068.873-1.456 1.552-1.358 2.134-.485.29-1.359 1.358-1.747 2.134-.776-1.358-3.009.485-4.076 1.843-.777 1.454-5.143 3.491-4.949 1.551.485 1.455-4.56 2.91-3.881 1.843-.388 7.08-6.404 6.887-.873 1.649 1.65 5.722-2.426 5.82.776-.29 1.553 5.334-.389 6.594 1.261-.389 1.552 2.23.097 3.395 1.553.194 1.456 6.11.873 4.074 3.008-.097 1.358 5.14 2.815 2.813 3.882-.873 1.941 1.067.582 2.134 1.262.194 2.135 4.268-.388 6.499 2.523-.873 1.553 1.552.97.097 2.814-1.26 1.94 1.357 1.456.096 2.912-1.843 1.65.29 1.456-1.843 2.426-2.62 1.456.098.97-1.551 1.552-2.23.873-.582 1.165-1.455 1.456-2.619 1.359-.776.679-1.552 1.358-2.522.485-.29 1.067-.97 1.164-1.94.776-.97.873-1.94 1.553-3.297.388-.679 1.165-1.455 1.262-2.425.583-.776.873-1.552 1.746-2.91.873-.193 3.396-3.006 3.105-2.521-.388-1.164 4.27-4.268 3.687-2.231-.194-1.067 2.135-2.425 1.746-1.067-.777-2.328 3.494-5.722 3.979-1.358-1.358-4.17 4.56-6.013 3.59-1.552-.68-1.552 1.553-4.17.098-1.649-1.261-6.207.194-5.043-2.814-.193-1.94-6.11-1.748-5.917-4.562.872-1.553 1.164.582.873-1.165-.582-1.262-2.715.097-5.237-.68-.581-1.747-5.723-.97-5.432-4.27 1.357-.873-4.17-2.523-4.364-6.21 1.164-1.359-3.2-3.59 0-4.56 1.94-.873-1.164-2.329.97-3.202 2.425-.776.388-1.844.873-1.941 1.649-.388.679-2.718 1.455-2.135 2.328-.97.775-1.36 1.454-1.456 1.94-.389.581-1.747 1.163-1.65 1.648-.485.485-1.359 1.067-2.038 1.746-.776"/>
        <path fill="#3D7B93" d="M44.494 57.327c-.194.097-.29.194-.582.291 4.268-.388 6.499 2.523-.872 1.553 1.551.97.097 2.814-1.261 1.94 1.358 1.456.097 2.912-1.843 1.65.29 1.456-1.843 2.426-2.619 1.456.097.97-1.552 1.552-2.23.873-.583 1.165-1.456 1.456-2.62 1.359-.775.679-1.551 1.358-2.521.485-.291 1.067-.97 1.164-1.94.776-.97.873-1.94 1.553-3.298.388-.679 1.165-1.455 1.262-2.424.583-.776.873-1.552 1.746-2.91.873-.194 3.396-3.007 3.105-2.522-.388-1.164 4.27-4.268 3.687-2.23-.194-1.068 2.135-2.426 1.746-1.068-.777-2.327 3.494-5.722 3.979-1.358-1.358-4.17 4.56-6.013 3.59-1.551-.68-1.552 1.553-4.171.098-1.65-1.261-4.17.097-5.043-1.164-3.588-1.844 1.649 1.456 3.88 1.747 6.305 1.65-1.358.68-.97 1.164-.291 1.65.872 0 1.745-.195 1.551 1.261 1.455-.291 2.328 0 2.62 1.262 1.648-1.456 2.23-.68 2.812 0 1.455.582 2.619.582 3.007-1.165 1.648.97 2.91.97 3.006-1.455.776.29 1.261.097 1.358-.583.194 1.747 1.067 1.553 2.037.874.582-.68 1.164-.486 1.843 0-.097-.583.194-1.068.97-1.359-1.552-.291-2.716-.873-2.716-2.426.194-.485 0-.873-.388-1.164.388-.583.776-.486 1.358.097 1.067.582 1.26 1.358.776 2.232.582.679 1.649.582 1.649-.486.679 1.165 1.842.486 1.649-.776.872 1.65 2.812.873 2.036-.97.873.97 2.231.388 2.231-.68.679 1.747 2.23 1.456 2.425-.29 1.164 3.784 3.395 2.134 1.552 0 1.94.679 2.812-.486 1.067-1.262 1.454.097 1.357-1.262-.097-1.262.388-.582 1.26-.776 2.327-.873M35.183 45.003c6.596.68 6.499 3.202-1.26 2.135 2.618.97 2.812 2.717-1.359 1.067 1.552 1.068 1.65 2.814-1.842 1.165 0 .776-.388 1.358-1.455 1.358.582 1.94-1.067 2.232-2.134 1.068-.485.873-1.164 1.261-2.328.679-.485.68-1.746.97-2.522.388-1.066 1.456-2.91 2.135-2.521-.388-.873.873-2.037.776-2.231-.194-1.552 2.62-4.074 3.202-1.649-.291-2.716 3.299-5.82 4.27-1.552-1.068-.97.777-2.037.485-1.067-.873-3.297 1.844-5.334.873-.776-1.359-4.267.97-4.461-.873-.194-1.455-9.117-1.747-4.461-3.203.097-2.038-4.364-2.814-3.394-4.755 1.552-.97-1.552-2.815-1.455-3.688 1.843-.777.582-.873 1.26-.97 2.328-.194.485-.291 1.067-.485 1.746-.097.873.194 1.649.194 2.327-.097.582-.68 1.358-.97 2.522-.388.388-.874 1.261-.97 2.231-.776-.097-2.62 1.358-2.62 1.649-.777.679-1.261 1.358-1.455 1.94-.68.97-4.366 3.103-3.395 1.94-.29 3.976-5.046 5.722-3.008 1.454 1.358 4.268-3.396 5.335-1.164.776 1.553 2.425-.582 3.2.97.485 1.94"/>
        <path fill="#3D7B93" d="M35.183 45.003c6.596.68 6.499 3.202-1.26 2.135 2.618.97 2.812 2.717-1.359 1.067 1.552 1.068 1.65 2.814-1.842 1.165 0 .776-.388 1.358-1.455 1.358.582 1.94-1.067 2.232-2.134 1.068-.485.873-1.164 1.261-2.328.679-.485.68-1.746.97-2.522.388-1.066 1.456-2.91 2.135-2.521-.388-.873.873-2.037.776-2.231-.194-1.552 2.62-4.074 3.202-1.649-.291-2.716 3.299-5.82 4.27-1.552-1.068-.97.777-2.037.485-1.067-.873-3.297 1.844-5.334.873-.776-1.359-3.103.68-4.073-.097-2.618-.776.776.68 1.842.68 2.91.68-4.462 2.328-1.456 2.231 1.357.387-.29 1.359.68 1.068 1.552.583-2.716 2.814-.29 2.426 1.746.485-.97 1.747.485 1.747 1.649.097-1.358 2.523.776 2.426 2.037.194.581 1.164 1.26 1.067 1.842-.485-.485 4.367 1.358 3.202 1.746.194.291 2.523 2.231 2.717 1.746-.68.679 1.165 1.94.583 1.649-.388 1.358 1.359 2.328.68 1.746-.776.97 1.068 2.618.68 1.455-.97 2.91 1.455 1.94-.097.97-.874 6.595.874 6.4-.582 1.066-1.843.97.29 2.62-.292 3.589-.874-.097.485-.582.97-1.746 1.359M13.457 42.965c-.679-1.65-.194-1.843 2.522.582.582-.873 1.261-.97 2.328-.194.485-.29 1.067-.485 1.746-.097.873.194 1.649.194 2.328-.097.581-.679 1.357-.97 2.521-.388.388-.873 1.261-.97 2.231-.776-.097-2.62 1.358-2.62 1.649-.776.679-1.262 1.358-1.456 1.94-.68.776-3.202 2.037-3.59 2.23-2.329-.29.97-1.066 1.844-2.327 2.912-.582-.098-.97.388-1.358 1.455-.873-.388-1.261-.194-1.164 1.068-1.164-1.068-1.649-.583-1.94.582-.776-.582-1.26-.194-1.649.388-.582-.582-1.164-.097-1.746.388-.872-.582-1.551-.291-2.133.291-.873-.776-1.552-.485-2.037.097-.873-.873-1.358-1.552-2.425-.776-.776-.097-1.94-.873-2.716-1.65"/>
        <path fill="#4E859D" d="M27.23 35.978c.873-2.232 1.455-2.329 1.649-.097 3.588-9.995 4.461-5.628 2.036-.97 3.298-5.726 4.462-4.27 3.298-1.941 8.05-7.375 8.632-3.785 1.843 1.164 7.371-4.56 8.05-1.94-.485 2.718 3.395.194 3.007 1.746-.291 2.134 4.656.874 4.559 3.3-.582 1.941.194.777.097 1.456-2.619.97.194.777.68 1.65-2.424.68 0 1.067-.388 1.553-1.65.873-.484 1.65-1.357 1.65-2.424.777-.873 1.067-1.746 1.261-2.522-.195-.485.874-1.067 1.068-1.746.292.097 1.552-.679 2.426-2.91 1.455.195 1.359-1.163 1.941-2.036.777-1.067 3.202-2.716.485-2.716.194-2.037 3.687-4.655 3.105-1.649-1.262-1.067 1.068-2.328.582-2.91-.291-2.23 4.076-4.946 3.687-1.26-1.456-5.529 2.426-5.82.291-.388-1.65-8.439-.873-5.917-3.105.679-1.94-1.552-1.359-1.843-2.717 2.521-1.359-6.304-4.658-2.715-5.24 1.94-.776-2.037-5.92.873-6.308 1.649-.68.873-1.843 1.358-1.26 1.843-.581 2.619-1.553 5.431-2.33 8.341-1.262.388.097 1.649-.291 2.813.485"/>
        <g transform="translate(7.76 .603)">
            <mask id="b" fill="#fff">
                <use xlink:href="#a"/>
            </mask>
            <path fill="#4E859D" d="M4.728 15.191c-.582-2.329-.097-2.329 1.164-.776-8.05-29.21.485-6.308 3.298 5.628.582-.582 1.164-1.164 1.746-1.844 6.401-6.792 6.304-3.3 2.23.97-1.163 1.068-2.327 2.233-3.491 3.3-.388.388-1.164.388-1.94.388-.97-.194-1.94-.291-3.007-.68-9.602-2.716-.679-2.522 2.231-1.843-2.23-1.164-10.378-5.92-2.91-3.881-2.521-3.009-2.134-3.3.68-1.262" mask="url(#b)"/>
        </g>
        <path fill="#4E859D" d="M21.992 25.304c-1.358 1.261-2.91 2.135-4.655 2.523-9.408.873-9.602.291-1.164-1.747-9.311-1.358-7.371-1.65-.194-1.552-3.2-2.718-2.425-3.203.97-2.038 2.91-5.143 3.782-5.92 1.649 0 6.595-4.561 7.274-4.27 2.424.582 9.312-3.396 7.663-1.747.97 2.232"/>
        <path fill="#5E90A7" d="M15.98 27.633c3.588-4.95 5.237-5.92 3.2.388 6.11-4.852 7.76-5.143 2.037 1.553 5.431-2.815 6.595-2.62 1.455 1.94 8.34-2.62 7.468-1.358.388 2.523 3.2-.679 4.17-.29-.388 2.523-.388 1.553-1.552 2.135-2.62.777-1.842.679-1.745.194-.678-.874-4.462 2.426-4.947 1.844-.97-1.65-4.074 2.718-5.14 2.912-1.067-1.26-5.237 2.813-5.043 1.746-.776-2.136-4.267 1.165-4.461.777-.582-1.261-5.043-.582-8.438-1.165 0-2.523M12.487 15.794c-.581-2.329-.097-2.329 1.164-.776-5.722-20.767-3.006-15.138 0-5.822-.388.388-.194 2.814 1.261 8.539-3.394-2.038-3.976-1.65-.873 1.262-2.036-.97-3.297-1.262-3.976-.97-1.746-1.262-2.328-2.136 1.746-1.068-2.522-2.912-2.134-3.203.678-1.165"/>
        <path fill="#5E90A7" d="M12.778 25.595c-5.334-.97-3.006-1.165 3.2-.97-3.2-2.718-2.424-3.203.97-2.038 2.91-5.143 3.783-5.92 1.65 0 2.036-1.359 3.491-2.33 4.364-2.814-.485.582-.97 1.067-1.067 1.164-1.454 1.747-4.752 3.785-6.983 4.27-.582.097-1.358.194-2.134.388M22.09 22.587c6.498-2.232 6.692-1.553 3.2.68-1.552.193-3.492.29-3.2-.68"/>
        <path fill="#4E859D" d="M23.254 27.148c-.485.679-1.164 1.455-1.94 2.426.388-.195.679-.389 1.067-.486-.388.68-.873 1.553-1.455 2.523 3.588-3.105 3.782-2.523 2.812-.873-.29.291-.581.582-.97.873.195-.097.389-.097.583-.194-.194.291-.388.583-.582.97 2.618-.776 4.073-.97 4.85-.873-.97.68-2.426 1.553-4.462 2.62 3.2-.679 4.17-.29-.388 2.523-.388 1.553-1.552 2.135-2.62.777-1.842.679-1.745.194-.678-.874-4.462 2.426-4.947 1.844-.97-1.65-4.074 2.718-5.14 2.912-1.067-1.26-5.237 2.813-5.043 1.746-.776-2.136-4.267 1.165-4.461.777-.582-1.261-1.843-.194-3.491-.388-4.364-.582-.097-.583 1.067-.97 4.17-1.068 3.2-4.173 3.686-2.717 2.813 1.553 3.977-4.076 5.237-4.755 4.559-3.008"/>
        <path fill="#3D7B93" d="M23.254 29.38c.872.485-2.134 5.143-3.298 4.658-1.746-.583 2.134-5.143 3.298-4.658"/>
        <path fill="#80A9BC" d="M24.611 20.84c.97.388-2.715 4.56-3.685 4.173-1.94-.874 2.618-4.658 3.685-4.173"/>
        <path fill="#3D7B93" d="M16.076 21.422c.194.874-3.686-.97-3.589-1.94.291-1.359 4.074 1.552 3.589 1.94M37.317 38.404c-.388.291-1.164.582-2.23.68 4.655.873 4.558 3.299-.583 1.94.194.777.097 1.456-2.618.97.194.777.679 1.65-2.425.68 0 1.067-.388 1.553-1.649.873-.485 1.65-1.358 1.65-2.425.777-.873 1.067-1.746 1.261-2.521-.194-.485.873-1.067 1.067-1.746.29.097 1.553-.68 2.427-2.91 1.456.194 1.359-1.164 1.941-2.037.777-1.067 3.202-2.716.485-2.716.194-2.036 3.687-4.655 3.105-1.648-1.262-1.067 1.068-2.134.68-2.813-.097 1.552.388 2.813-.291 3.589-1.94-1.455 6.307 1.066 4.366 1.648 0 .388 1.164.97.873 1.65-.098-.583 4.173 1.357 3.59 1.454-.097.388 2.038 1.067 1.941 2.134-.97-1.164 4.367.873 4.367 1.843.68 1.26.872 2.037.484 2.327-.68 1.746 1.94 2.425 2.038 1.552-.874 1.261 1.456 1.843 1.165 2.134-.194 1.552 2.523 1.843 1.844 1.843.486 2.425.776 2.716.097 1.552-1.65 2.23 1.261 3.491 1.261 1.358-1.262 4.946 3.009 5.237.874.582-1.455 2.424.97 3.88 1.164 4.655.97"/>
        <path fill="#5E90A7" d="M19.665 37.337c-.776-.97-1.843-.388-3.201.582-2.91-2.717-3.88-2.135-1.164 1.067-5.431-2.62-5.625-2.717-1.552 1.165-4.17 2.329-4.073 3.008.582 1.844-1.455 3.202-2.037 5.24 1.552 1.843.873.388 1.552.097 2.037-.873 1.649.097 3.104-.388 4.17-1.553.68 2.426 1.65 1.65 2.716.097 2.425 3.882 3.395 2.523 1.261-1.164 1.94 1.844 2.134 1.164 1.94-.097 3.686 1.552 3.589.776 1.552-1.165 3.782.97 3.588.194 2.618-.97 4.268-1.067 2.328-2.523-.97-1.359 1.65-1.843 1.65-2.62-.97-1.552 0-1.359.583-3.59-2.715 2.038.582-3.397.194-4.173-2.134.097 0-1.359-.485-1.941-2.813-.097-.679-.486-1.551-.777-2.91.097"/>
        <path fill="#6F9CB1" d="M28.2 30.641c1.26.291 0 6.016-1.358 5.725-1.552-.29.29-6.016 1.358-5.725M48.568 58.977c.582-4.27 2.23-4.367 2.134-.97-.582 2.037-1.65 3.881-2.134.97"/>
        <path fill="#80A9BC" d="M50.41 58.588c3.008-4.27 4.366-2.91 1.553.874-1.164.97-2.231 1.552-2.231.679.097-.388.388-.873.679-1.553"/>
        <path fill="#4E859D" d="M51.769 59.753c.776-1.165 1.358-1.068 1.843-.388 11.25-5.629 6.013.388 2.133 1.358 8.439.777 4.559 2.717-.873 3.494 1.94-.291 3.007 1.455 1.067 2.62 2.91.194 2.813 1.067-4.267 3.3.29.581.679 1.26-2.037 1.067 1.358 1.261 1.067 1.746-.194 1.65.582.97.582 1.746-.679 1.552.485 1.747.097 2.038-1.358 1.358-.485.583-1.164.874-2.522-.388.194 1.456 0 1.941-1.358.582.097 1.553-.29 2.232-1.745.777-.97.873-1.746.873-1.94-1.456-.582-.485-1.164-.68-1.552.582.582 2.33-.097 2.426-1.746 1.068-.776 1.164-1.552 1.455-2.328-.291.194 2.135-.582 2.91-2.812 1.164.097 1.165-.194 1.844-1.552 1.65.194 1.164-.194 1.94-1.746 2.135-1.358 2.135-3.104 1.844-4.17 1.261-.68 1.165-1.455 1.359-2.328 1.068-.776-.388-1.552-.68-2.425.194.097.68-.291.97-1.261.582 0 1.067-.194 1.94-2.328.097-1.26 1.262-3.492 1.359-2.23-1.358-2.134 3.008-4.947 3.008-1.94-1.165-3.783 3.979-7.08 2.911-1.65-.776-1.94 1.067-2.424.194-1.648-1.262-2.716.874-1.94-.68 0-1.65-4.462 2.427-7.468.195-1.746-2.231-4.559 1.358-10.087.388-2.134-2.135-1.358-1.359-1.455-2.232 3.298-1.844 5.043-3.202 3.783-.68 4.462.582.193-1.358.581-3.105 1.745-3.59.68-1.068 1.358-2.232 2.425-1.844.679-.776 1.455-.873 2.328-.194.97-.776 1.94-1.359 3.395-1.067.872-1.068 1.94-1.65 3.491-.874.97-.97 1.94-1.94 3.298-.97 1.067-1.165 2.328-1.553 3.88-.582.484-.97 1.26-1.456 2.133-1.165 1.067 0 2.134-.194 3.007-.97.776-.68 1.843-.097 2.91.582.485-1.068 1.26-1.553 2.425-1.068 2.133-2.328 3.006-.388 3.88-.097.872-1.261 1.454-1.164 2.036-.776.873-.776 1.843-1.261 2.813-.582"/>
        <path fill="#3D7B93" d="M9.578 81.587c-1.843.97-2.328.097-1.65-1.262-2.618.874-1.939-.582-.096-1.552h-.097c-1.261.194-2.619.388-3.88-.97-2.134 1.746.388 2.813 3.977.97.873.097 1.746-.291 2.522-.777-1.552 1.165-.873 2.135.194 1.747-.485.776-.776 1.359-.97 1.844m46.75-14.653c2.521.29 2.036 1.164-4.656 3.3.29.581.679 1.26-2.037 1.067 1.358 1.261 1.067 1.746-.194 1.65.582.97.582 1.746-.679 1.552.485 1.747.097 2.038-1.358 1.358-.485.583-1.164.874-2.522-.388.194 1.456 0 1.941-1.358.583.097 1.552-.29 2.231-1.745.776-.97.873-1.746.873-1.94-1.456-.582-.485-1.164-.679-1.552.582.582 2.33-.097 2.426-1.746 1.068-.776 1.164-1.552 1.456-2.328-.291.194 2.135-.582 2.911-2.812 1.164.097 1.165-.194 1.844-1.552 1.65.194 1.164-.194 1.94-1.746 2.135-1.358 2.135-3.104 1.844-4.17 1.261-.68 1.165-1.455 1.359-2.328 1.068-.776-.388-1.552-.68-2.425.194.097.68-.291.97-1.261.582 0 1.068-.194 1.94-2.328.097-1.26 1.262-3.492 1.359-2.23-1.358-2.134 3.008-4.947 3.008-1.94-1.165-3.783 3.979-7.08 2.911-1.746-.68-.582 1.748 1.455 1.262 2.521-.97.485.97 1.261.874 2.037.583-1.26 3.881-.776 4.658 1.455 2.426 1.94 3.008 1.94 1.164 1.94-.583 2.522.486 3.104-.582 1.552-.776-1.552-.291-2.619-.776-1.649-1.553.776-.776.485-1.455-.194-2.134 1.455.29 2.134-.292 2.425-1.262.097 1.068.776 1.068 2.328 0-3.298 3.105-1.067 4.076 1.26 1.65-2.618 3.202.582 2.814 1.746 1.164 1.164 1.456 2.328.194 2.231-.97.776-.194 2.134-.97 1.649-2.038 3.2.291 2.522-1.94-.679-2.232 1.067-.388 1.26-1.067.679-2.038.873-.29 1.164-1.067.873-2.232.388.583.776.68 1.164.291.194 1.456.582 1.941 1.164 1.553-.97 4.95.097 4.076 1.551 1.844.776 1.747 1.358 1.65 1.843.873 1.358.874 1.843.485 1.94-.582.97.485 1.552.194 1.843-.97.485 1.65 1.164 1.552 2.037.194-.291 2.232.485 1.843 1.26 1.358.68.388 1.164.194 1.261-.68-.29-.97 0-1.358.776-1.455 1.746.194 1.94-.679.873-2.329 1.455.68 2.037.292 2.231-.776 1.746.485 2.328 0 2.134-1.261 1.067 1.552 2.716 1.65 2.619 0 2.91.097 4.655-1.068 3.782-1.844M11.905 72.27c.194-1.164.68-2.425 1.65-2.813.678-1.068 1.357-2.232 2.424-1.844.679-.776 1.455-.873 2.328-.194.97-.776 1.94-1.359 3.394-1.068.873-1.067 1.94-1.65 3.492-.873.97-.97 1.94-1.94 3.298-.97 1.067-1.165 2.328-1.553 3.88-.583.484-.97 1.26-1.455 2.133-1.164 1.067 0 2.134-.194 3.007-.97.776-.68 1.843-.097 2.91.582.485-1.068 1.26-1.553 2.424-1.068 1.843-2.134 2.813-.679 3.59-.194-1.068.097-1.65.68-1.262 2.038-1.164-.388-2.23-.485-2.328 1.359-.775-.874-1.454-.874-1.745.582-1.067-.873-1.843-.97-2.328.291-.388.485-.873.873-1.94.776.097 1.068-.097 1.941-1.552 2.135-1.164-.97-2.23-1.746-3.491-.582-.776-.873-1.455-1.261-2.134-.582-.582.582-1.358.68-2.134.29-.485-.387-.97-.484-1.164 0-.679-.096-1.164 0-1.358.777.194.582.097 1.068-.29 1.456-.97 0-1.262.68-1.068 1.747-.29 1.164-.873 1.358-1.746.582-.678-.388-1.454-.582-2.036.097-.388.388-.68.485-1.067-.291-.873-.291-1.455-.194-1.552.97-.388.776-.97 1.359-1.94.776-.485-.776-1.067-1.261-1.843-.776-.582-.485-.97-.873-1.552-.485"/>
        <path fill="#5E90A7" d="M24.32 75.376c-5.043 1.747-5.431-.194-.097-1.455.388-.777 1.067-.874 1.746-.485 1.843.29 2.522.776 1.164 1.746 1.94.097 3.006.388 1.358 1.262.485.68.194 2.426-.97.873-.291.485-.68.582-1.261-.097.29 1.262-.097 1.65-1.649.485-.485.097-.776.388-1.164.583-2.23 1.65-3.395 2.231-1.649-.292.776-1.067 1.746-1.746 2.522-2.62M45.464 61.5c.97-.195 1.067.194 1.261.679.68-.874 1.358-.874 2.037-.485.873-1.65 1.067-.97 1.455-.777 1.746-4.27 3.492-1.65 1.067.97 3.006-2.231 4.073-.873.776.874 6.692-2.329 7.177 1.262.873 1.553 2.23.485 2.424 2.426-.388 1.358 3.976 2.232 1.745 3.105.097 2.038-.388 1.165-.873.97-1.455-.194.194 1.553-.485 1.65-1.94.582.097 1.068-.291 1.456-1.164 1.068 2.522 3.59 1.358 5.53-1.26.776-.874.582-.777.582-1.359-.582.194 2.814-.194 3.687-2.133-.097.484 1.358.484 2.037-1.164.388.097 1.067.29 2.135-2.134-1.068.194 1.068.097 1.747-.68 1.844 3.784 1.844 3.88 4.561-.969.68 0 .29 0 .582-.679.388.485 1.358.776 2.523-1.164 1.455.097.582.097 1.165-.97.874.097 1.65-1.164 1.746-1.649-.583-2.812 4.076-1.648-.388-1.066-1.358-.582.582-1.552 1.164-1.552-1.068-.776-.194-1.261-.582-.582-1.65-.582-1.455-.388-2.134.194-2.522.29.097.679.388.97.873 1.163-1.165 2.327-.388 3.491.582 1.455-.194 1.746-1.067 1.552-2.135 1.067.097 1.552-.29 1.94-.776.388-1.262 1.26-1.164 2.328-.291.29-1.456.97-1.456 1.746-.582.194-1.844 1.26-1.747 2.327-1.359-.29-.68-.194-1.164.194-1.455M11.13 71.786c0-2.038-.97-1.844-3.492 1.067-3.492-2.232-7.468-.097-1.164 1.262-8.05-.486-9.02 3.008-.485 1.358-2.425 4.95-.388 6.502 1.067.874-1.552 6.21.776 5.434.97 1.067.776.291 1.358 0 1.552-1.067.679-1.068 1.164-.583 1.649.194.582.97 1.552.29.679-.97.97.581 1.745.193.582-1.262-.194-.291-.097-.485.097-.68.485-.873.29-1.358-.582-1.552.388-.68-.291-1.553-.873-.291"/>
        <path fill="#5E90A7" d="M15.106 76.735c-.97-.097-1.843 0-2.425.68-2.813.484-3.298 2.231-1.746 1.94-1.746 2.426-.873 3.59.776 1.455-1.358 4.561 1.455 5.24.97-.29.194-1.068.776-.971 1.164-.874.097.582.388.873.679 1.067-1.358 4.658.776 3.59.679.874 1.358 3.396 3.104 3.3.873-.485 1.164.29.873-.097-.582-1.456 1.358.582 1.552.291 1.067-.388.776-.582.29-1.068-.776-1.359 5.14-1.067 4.461-2.91-.68-1.164"/>
        <path fill="#6F9CB1" d="M54 59.656c2.715-4.27 4.267-5.24 4.946-4.852-.582 2.038-2.813 4.852-4.947 4.852M41.197 63.246c.194-2.231-.194-2.814-1.649-.873-.679-.485-1.164-.388-1.455.776-.679 1.456-.582 2.135.291 2.523-1.455 1.068-.194 2.62.97 1.262.582 1.358 2.23.68 1.649-.97 1.26.485 4.85.194 1.067-1.65 6.11-5.143 3.782-7.181-.873-1.068M26.066 68.875c1.94 3.105 2.134 2.037 1.649-.486 4.268 3.106 4.462 1.553 1.843-.679 2.619 1.262 2.813-.097.776-1.747 1.455.097 1.358-.485-.194-1.65-.97-.679-1.94-.485-2.91.777-1.843-.194-3.686-.194-4.752 1.164-.97.097-1.746.486-2.522 1.165-2.231 3.396-.97 3.008 1.746.97.872.583 1.842.486 2.91-.097.678 3.59 1.163 2.814 1.454.583M49.732 62.664c-.68-.485-1.261.194-1.552.776-1.455.389-1.746 2.717.194 1.359-2.134 4.076.873 3.105 1.067.776 1.358 3.494 3.2 2.135 1.843-.485 3.297.194 3.976-2.232-.097-1.456 2.521-1.65.194-2.231-1.455-.97"/>
        <path fill="#3D7B93" d="M9.578 53.154c.29-.582 1.164-.485 2.134.389-.388.097-.776.388-1.261 1.164-.194-.582-.485-1.164-.873-1.553m15.227-1.65c.68-1.649 1.358-1.455 2.134-.484.582-1.068 1.164-1.747 1.649-.486.485-1.358 1.164-1.746 1.843-.776.679-1.261 1.26-1.456 1.843-.776.29-.874.679-1.553 1.842-1.068.582-.97 1.164-1.261 1.552-.97-.29.776-.388 1.553.194 2.62-.97-.776-1.843-.68-2.522.388-1.26-.68-1.94-.485-1.26 1.456-3.007-.486-3.395.485-1.358 2.814-.485-.194-.97-.194-1.261.485 0-.776-.097-1.359-.873-1.456-.097-.582-.485-.776-.97-.679-1.164-.97-2.037-.68-2.619.388-.194-1.358-.873-1.94-3.103.388-.776-.194-1.164.389-.97 2.135-.68-1.067-1.552-1.067-2.62.194-.484-.679-.969-1.261-1.745-.29-.776-.68-1.552-1.165-3.007-.68-.29-.388-.679-.873-1.067-1.067.097-1.262 1.65-1.359 2.813.485.388-1.844.873-1.941 1.649-.388.679-2.717 1.455-2.135 2.328-.97.776-1.36 1.455-1.456 1.94-.389.582-1.747 1.164-1.65 1.648-.485.68-.97 1.261-1.65 1.94-.388"/>
        <path fill="#5E90A7" d="M29.752 56.745c.194-.777 0-1.359-1.067-1.456-.097-.873-.291-1.456-1.067-.68-.291-.873-.388-1.746-1.843-.873 0-1.94-2.134-2.232-1.455.097-.679-.29-1.26-.097-1.649.874.097-3.203-2.23-4.755-2.037-.097-.387-1.553-2.715-1.941-1.745.388-.873-.291-1.261.097-1.455.776-.388-1.164-1.455-1.261-1.746.097-.97-1.455-2.23-.873-1.358.97-3.783-4.27-4.85-1.746-1.26 1.165-6.79-1.94-5.82 1.65-.68 1.65-5.334 3.784-2.037 6.016 1.358.388.582-.873 1.358-1.262 2.425-.97-1.067 0-1.746.582-2.037 2.037-.873.291-.873.583-.29 1.068-3.105.873-2.232 2.426 0 1.455-4.462 3.3-1.747 4.561.775 1.553-3.007 4.367-.29 4.658 1.067.97-.679 3.688 1.94 4.464 1.843-.485 1.164 3.59 3.491 4.076.873-1.067 1.164 1.94 2.618 1.65 1.94-.388 3.491 4.852 4.655 2.717 1.163-1.359 2.328 2.911 4.074 2.038 1.358-.485 4.656 2.911 5.723.388 1.164-1.65 1.455.194 1.843-.097.873-1.261 1.067.582 1.649 0 1.455-.874 1.26 2.232 2.23 1.747 1.649-.582 1.26 4.56 3.2 5.143 2.23-.388.583 3.493 2.037 3.396 1.746-.388.68 6.404 2.91 6.987 1.358.388 1.164 1.94 2.037 1.844 3.007.776 1.358 4.367 3.007 2.814 1.746 0 3.588 5.629 5.916 2.523 1.552-.873 5.043 2.426 4.85-.194 1.552-.97 2.618-.292 2.521-.777.581-1.65 5.626 1.552 6.305-.776.485-1.747.097-1.844-.679-1.553-2.036.194-.194-1.552.679-2.038 2.036-2.038 6.79.389 4.462-2.62.194-1.455 6.693-2.523 3.783-4.464-.679-1.165 1.358-4.949-1.26-6.598-1.454.388-.194-4.463-2.62-6.307-1.746.97-1.067-3.104-3.298-4.269-1.843.098.29.97.194 1.844-.485 2.62 1.164-1.553-5.238-8.637-1.843-1.553-1.94-2.426-3.491-1.843-.679 1.553-4.364-2.717-5.237-.388-1.358 1.94-.582-.29-1.067-.484-1.358.292-.096 1.067-.387 1.65-1.26 1.747"/>
        <path fill="#4E859D" d="M29.267 44.227c-.097-.97.679-1.747 1.358-1.068 1.066-1.65 1.745-1.067 1.842 0 1.65-2.135 3.783-1.455.873.873 1.552.68 1.164 1.65-1.164.874 2.522 1.261 2.91 3.105-.679 1.164 2.328 1.844 1.552 3.397-1.163 1.165 1.551 2.329.678 3.784-2.134.194 1.455 2.232.388 3.105-1.164.582.582 1.94-.68 2.135-1.358.582.097 3.106-1.358 3.3-1.746.486-.485 1.164-1.164 1.358-1.746.097 1.164 3.493-.485 3.396-1.745.679-.388 1.261-1.455 1.358-1.65.388-1.842 2.426-2.812 1.456-1.454-.194-2.328 1.65-3.589.485-1.067-1.165-3.298.195-3.298-2.231.29-.97-2.327-1.94-1.842-3.396.97-.97-.484-1.553.583-1.844 1.747-.388.388-.486.873-.486 1.454-.098.873.098 1.455-.097 2.037-.582.291-.582.776-.679 1.552-.194.291-.485.776-.68 1.552-.388.873.388 1.358.097 1.746-.388.388-.97.97-1.068 1.649-.68"/>
        <path fill="#5E90A7" d="M21.12 46.362c2.618-2.62 3.588-.68 1.066 1.164 2.134 2.523.485 2.814-.678 1.068.193 4.075-2.037 2.328-1.261.29-2.716 2.427-3.686.777-1.455-.97-3.104-.873-2.619-3.008.679-1.164-1.65-2.232-.776-3.494 1.649-.388M31.013 45.78c-.291-.68-.097-1.165.388-1.553 5.043-3.203 5.14-.388.873.582 4.073-.097 4.558 2.814-.097.873 2.715 2.62.097 4.076-1.164.097"/>
        <path fill="#6F9CB1" d="M19.374 56.842c0-.68.485-.874 1.067-.874.485-.873 1.067-.873 1.746-.29.582-.389 1.358-.583 1.454.29-.678.194-1.066.777-.678 1.553.872.582.97 1.164-.388 1.359 3.685 1.455 3.976 5.434-1.164 1.455 3.782 3.397 1.843 5.531-1.455.776 2.522 4.173 1.649 7.472-1.358.68 1.067 6.89-2.23 6.987-1.649.194-2.91 3.396-4.85 1.164-.388-1.65-3.88.582-4.461-1.261.485-1.261-.582-.97.485-1.65 1.455-1.165-.291-.68.194-1.358.873-1.067M34.601 55.871c-1.358 1.65-2.037 0-.776-1.164.194-1.165 1.067-1.068 1.94-.874.388-.97.873-1.164 1.649-.485 1.94-.485 2.037.097 1.746.97 1.94-1.26 2.327.195.97.971 3.103-.388 3.394 3.008-1.067.485 4.364 4.076 1.164 6.987-1.358.291 1.164 4.755-1.261 5.046-1.843.194-.29 3.98-2.134 2.718-1.26-.388"/>
        <path fill="#5E90A7" d="M31.594 85.76c-.194.97 0 1.649 1.358 1.843.097 1.068.388 1.747 1.358.873.291 1.068.582 2.232 2.328 1.068 0 2.426 2.716 2.717 1.843-.097.873.388 1.649.097 2.036-1.068-.193 3.98 2.813 5.92 2.522.097.485 1.941 3.395 2.524 2.231-.582 1.067.388 1.552-.097 1.843-.97.485 1.455 1.843 1.65 2.134-.097 1.164 1.844 2.812 1.164 1.745-1.165 4.656 5.338 6.11 2.135 1.552-1.455 8.536 2.523 7.275-2.038.873-2.038 6.693-4.755 2.522-7.57-1.649-.485-.679 1.164-1.648 1.65-3.103 1.164 1.26 0 2.23-.776 2.521-2.523 1.067-.291 1.164-.776.388-1.261 3.88-1.068 2.716-3.009 0-1.844 5.529-4.173 2.231-5.628-.97-1.844 3.783-5.434.388-5.822-1.357-1.261.776-4.561-2.425-5.629-2.328.582-1.552-4.464-4.365-5.143-1.164 1.358-1.455-2.426-3.298-2.037-2.425.486-4.364-6.114-5.82-3.3-1.358 1.746-2.91-3.687-5.043-2.523-1.745.583-5.82-3.59-7.08-.486-1.455 2.037-1.746-.29-2.328.194-1.067 1.553-1.358-.776-2.037 0-1.746 1.067-1.552-2.814-2.813-2.134-2.037.68-1.552-5.726-4.073-6.405-2.813.388-.776-4.367-2.521-4.27-2.133.485-.776-7.957-3.686-8.733-1.746-.485-1.358-2.426-2.619-2.329-3.686-1.068-1.649-5.434-3.783-3.493-2.23 0-4.56-7.083-7.372-3.202-1.94 1.068-6.305-3.105-6.014.291-1.94 1.261-3.298.389-3.201.874-.68 2.038-7.08-1.94-7.952.97-.581 2.135-.097 2.33.873 1.94 2.619-.291.194 1.94-.873 2.523-2.522 2.523-8.438-.388-5.626 3.202-.194 1.844-8.341 3.105-4.753 5.628.873 1.455-1.746 6.114 1.552 8.249 1.843-.388.194 5.531 3.297 7.86 2.23-1.164 1.261 3.881 4.171 5.337 2.231-.097-.29-1.165-.194-2.33.582-3.3-1.455 1.941 6.595 10.772 2.328 1.844 2.425 3.008 4.364 2.329.776-1.94 5.528 3.396 6.498.485 1.746-2.524.679.388 1.357.583 1.648-.388-.194-.97.194-1.747 1.261-1.844"/>
        <path fill="#6F9CB1" d="M49.538 77.414c6.11-2.426 6.207-7.763-.776-.97-.388-.873-1.552-.97-1.843.194-.68-.582-1.358-.776-1.746.194-.873-.097-1.26.291-1.26.97-.098.486-.486.874-1.359 1.068-.776.194-1.067.776-1.26 1.358-1.164-.388-1.455.194-1.552.97-.97.195-1.261.971-1.164 1.942.388-.292.679-.389.97-.389.388 0 .679.195.873.486-3.104 7.084.387 6.21 1.26.873-.194 7.472 2.231 5.143 1.746.291.776 7.666 3.298 4.852 1.843-.194 2.425 7.084 5.335 7.181 1.649-.485 3.686 4.464 5.82 2.717 1.067-1.553 1.649.097 2.425-.388 1.843-1.747 5.043 3.882 8.632 1.359.097-1.455 4.752-.194 5.528-2.911-.388-1.553M27.909 85.371c-.582.194-1.164 0-1.746-.68-.485-.678-1.067-1.358-1.746-.193-.582-.291-1.164-.485-1.746.097-.776-.291-1.648-.485-1.745.582-1.843-1.164-2.62-.097-1.94.97-5.432-1.358-3.686 1.068-.388 1.456-.485.68 0 1.94.582 2.232.29.873.097 1.65-.68 2.232-9.02 3.105-4.946 5.822.777.97-2.134 7.084 2.327 6.599 1.164-.194 1.357 4.852 4.17 4.658.873-.97 2.521 4.076 4.17 2.038.194-1.456 1.357.777 1.94.291 1.357-1.164 2.328 4.56 3.104 2.911 1.455-.194 2.91 4.464 5.044 3.493 1.164-.583 1.455.777 2.037-.388.68-1.552.775.485 1.26.097 1.648-.291.388-.583 1.067-.68 1.746-.777-.485-.776-1.067-.776-1.65-.485M33.438 86.827c-3.59 3.59-4.074.873.194-1.359.388-.388.872-.194 1.454.194.291.486.68.486 1.067.291.68-.097.873.195.97.68.485-.388.97-.291 1.358.097-.582.29-.873.679-1.067 1.067.582 4.561-1.164 4.95-1.455.097-.194 4.173-1.94 4.755-1.358-.29-.485 2.425-2.618 4.172-1.163-.777M55.357 69.36c3.686 1.552.679 2.329-2.91 1.455-.582-.29-.97-.679-.97-.97.776-.582 2.425-.68 3.88-.485"/>
        <path fill="#80A9BC" d="M54.096 71.495c1.552 1.844.388 2.426-2.91-.291-.387-.68-.484-1.262.292-1.262.097 0 .873.388.97.485.194.097.872.583 1.648 1.068M43.233 79.646c.097-.68.485-1.067 1.164-1.067.68-.777 1.164-.583 1.552-.195 2.522-.485 3.2.583 1.358.777 3.104 1.455 1.649 2.62-.485 1.358 3.686 3.785.776 5.24-1.164.486 1.552 5.337-1.455 4.27-1.746-.098-4.073 2.815-7.662-.582-1.649-.29.776-.098.873-.389.97-.971M23.447 87.312c-.097-1.067.194-1.553 1.164-1.359-.29-.679-.873-.873-1.843-.097-.388-.29-1.067-.29-1.746.389-.775.194-1.163.485-1.163 1.067-1.261 2.038.485 3.396.97 1.164.97 2.912 2.133 2.426 1.163-.485 1.261 2.33 2.62 1.553 1.455-.679"/>
        <path fill="#5E90A7" d="M34.892 94.784c-.485-.582-1.066-.582-1.745-.29-5.82 3.493-3.298 4.754.097 1.067-2.328 3.881.097 5.628.97.29.872 3.882 3.685 1.941.678-1.067"/>
        <path fill="#6F9CB1" d="M58.267 73.047c6.013-.679 3.007 2.33-.582 1.553-.97-.194-1.746-.776-1.358-1.553 1.164-3.105 4.268-6.598 1.94 0"/>
        <path fill="#80A9BC" d="M11.033 98.18c.776.874-4.656 4.076-5.14 3.3-.583-1.067 4.655-3.785 5.14-3.3"/>
        <path fill="#5E90A7" d="M60.4 84.207c-.872-.97-.97-1.844-.484-2.62 4.85-7.57 6.886-3.3 1.649.485 5.625-2.232 8.438 1.941.485 1.456 5.82 2.717 3.103 6.21-1.65.679"/>
        <path fill="#80A9BC" d="M59.43 78.578c.098 5.92 2.038 5.726 1.844.292-.485-1.747-.97-3.009-1.455-2.135-.194.388-.291 1.067-.388 1.843"/>
        <path fill="#DAE6ED" d="M8.608 20.84c-1.746-3.59-1.261-6.114.388-8.248 1.067-1.456 3.007-2.426 3.88-1.747.387 1.844 1.454 1.65 2.036 1.747 2.813-.389 6.208-.68 8.438 2.426-1.94.679-3.976 3.687-5.237 4.56.097 4.173-7.468-.29-9.505 1.262M27.618 21.228c-.776-2.814-.582-1.455-1.649-3.008-2.037-1.747-7.177 1.455-7.468 4.27 1.358-.777 2.328-.777 2.813.485 4.946-4.658 3.685-.97 2.23.291 2.037-.582 3.395-.485 4.074-2.038M16.076 24.14c-.097 0-3.007-1.553-5.82-.098-1.842 1.65-.776 3.882.097 3.979 1.552.097 2.91-1.068 5.432-1.65-.291-1.358 1.164-.873 1.455-.485 2.327-1.359.873-2.426-1.164-1.747M28.49 30.641c1.844-1.747-.387-4.755-3.2-4.852-3.782-.776-4.85 2.717-5.82 4.173 0 .873-.484.776-1.648-.194-.776-.194-5.723-1.553-7.274 1.358-.582 1.068-4.656 1.456-3.395 4.27-.194-.582 1.455-.485 3.977 1.65 3.297 2.135 2.521-1.456 5.237.679 1.358 1.067 1.455-1.553 3.298-.194 2.619 1.94 6.11.873 6.692-1.65.291-.582.291-5.143 2.134-5.24M13.554 49.079c-3.491-2.426-4.364-3.397-8.05 1.94-.97 1.456-1.843 4.561.68 4.464.97-.097.678 2.717 4.558 1.068.485-.097 4.85-2.912 4.17-5.338-.29-.776-.679-1.65-1.358-2.134"/>
        <path fill="#FFF" d="M7.929 19.093c-.776-2.717-.291-4.657 1.067-6.501 1.066-1.456 3.006-2.426 3.88-1.747.387 1.844 1.454 1.65 2.036 1.747 1.067-.194 2.23-.291 3.298-.194.582 2.329-1.261 3.202-1.746 4.755-.388 1.164-.776.97-1.261 1.94-.485.97-2.23.874-3.104.389-.776-.292-2.715-.583-4.17-.389M13.845 23.46a5.434 5.434 0 0 0-3.588.582c-1.164 1.068-1.164 2.33-.776 3.106 1.455-.388 2.521-.68 3.88-1.068.872-.29 1.357-1.65.484-2.62M23.932 17.735c-2.328.388-5.14 2.717-5.431 4.658.679-.485 1.358-.68 1.843-.582 1.066-.583 2.521-1.456 3.103-2.717.097-.292.388-.874.485-1.359"/>
        <path fill="#C4D8E2" d="M27.618 21.228c-.582-1.94-.582-1.844-.97-2.232-.582.485-1.26 1.165-1.843 1.747.194.485-.485 1.747-1.26 2.426 2.036-.485 3.394-.388 4.073-1.94"/>
        <path fill="#FFF" d="M16.852 29.476c-1.746-.388-4.946-.679-6.207 1.553-.582.97-3.783 1.359-3.589 3.494.485-.098.97-.098 1.552-.195 1.649-.485 2.328.486 3.88.874 1.745.388 1.163.873 3.297.582 1.164-.194.485-.776 2.619-1.261a.209.209 0 0 0 .194-.195c.776-.582 0-2.037-.388-2.523-1.164-1.358-.97-1.164-1.358-2.329"/>
        <path fill="#C4D8E2" d="M28.49 30.641c1.747-1.747-.29-4.658-3.103-4.852-1.94 2.329-.388 6.114-.776 8.83-.194 1.65-1.746 2.136-3.2 1.941-.68-.097-.68-.776-2.134-.679-1.261.097-1.649.874-1.552 1.747.485-.388.97-.873 2.037-.097 2.619 1.94 6.11.873 6.692-1.65.194-.582.194-5.143 2.037-5.24"/>
        <path fill="#DAE6ED" d="M35.28 37.628c.291 1.068-2.424.873-3.006 1.262-.873.582-1.65.97-2.91.97-1.067 0-.485 1.067-2.716.68-2.037-.389-2.716.679-4.074.096-1.745-.776-.581-2.426-.678-3.978-.291-3.688 3.88-2.62 4.655-3.494 1.746-1.843 3.007.194 4.559-.776.679-.485 1.164-.776 2.521-.097-.194.291-.097 1.067.582 1.358 2.62 1.941 2.716 4.27 1.067 3.98"/>
        <path fill="#FFF" d="M21.992 40.15c-.679-.873.097-2.231-.097-3.493-.29-3.687 3.88-2.62 4.656-3.493 1.746-1.844 3.007.194 4.558-.776.388-.291.776-.486 1.261-.486.194.583.291 1.165.194 1.844 0 2.038-2.91 1.165-3.588 2.232-1.261 2.232-4.268 4.464-6.984 4.173"/>
        <path fill="#C4D8E2" d="M35.28 37.628c.291 1.068-2.424.873-3.006 1.262-.873.582-1.65.97-2.91.97-1.067 0-.582.97-2.425.776 0-.388.097-.679.194-.873.485-.873 3.2-1.165 4.074-2.135.582-.582 1.455-.194 1.649-.873-.194-.874.484-2.038 1.454-2.814 2.522 1.746 2.522 3.978.97 3.687"/>
        <path fill="#FFF" d="M13.554 49.079c-3.491-2.426-4.364-3.397-8.05 1.94-.873 1.165-1.552 3.688-.29 4.27 3.782 0 7.468-1.747 9.213-5.24-.194-.388-.485-.68-.873-.97"/>
        <path fill="#DAE6ED" d="M2.206 40.733c.291-1.261 3.007-.776 5.432-.485.097-5.725-5.238-3.397-5.82-1.747-.29.485-.485 2.135.388 2.232"/>
        <path fill="#FFF" d="M6.668 37.143c-1.552-1.456-4.559.097-4.947 1.358-.097.195-.193.68-.193 1.165 1.94-.291 4.073-1.165 5.14-2.523"/>
        <path fill="#929497" d="M37.51 53.445c1.359.194 2.038 1.553 4.462.777.194-.097 2.62.873 2.522-.389 1.067-.776-.679-6.016.582-6.695 0-.68 3.2-3.494 3.88-3.979.097-1.358-2.425-2.62-4.559-2.232.291 1.262 1.164 2.523-.388 3.882-2.23 1.844-2.812 2.814-2.037 5.143.68 2.232-2.618 3.396-4.461 3.493"/>
        <path fill="#2E7289" d="M32.273 67.322c.97-.291 3.007 1.455 4.559 1.844.485.097 1.746-.486 2.134-.777 2.619-1.843 1.746-2.232 5.043-3.881 3.492-1.747 6.984-1.262 10.572-3.494 1.261-.776 3.977-2.814 1.164-3.493-3.88-.97-17.555 3.784-21.24 6.599-3.007 2.329-1.553 2.62-2.038 3.008-.097.097-.388.29-.194.194"/>
        <path fill="#DAE6ED" d="M60.4 56.745c-.096-2.426-2.812-4.27-8.34-1.844-.873.388-7.566-.097-9.99 3.784-.485.874-4.947.97-7.954 3.494-1.552.873-2.327 4.852-2.133 5.143.775.097.872-.776 3.685.776 3.88 2.232 3.783-3.396 9.893-4.755 1.261-.29 2.91-1.94 6.11-1.746 1.746.097 4.268-2.426 6.402-2.815.873-.194 2.425-.873 2.328-2.037"/>
        <path fill="#FFF" d="M49.829 55.192c-2.425.291-6.11.873-7.76 3.493-.484.874-4.946.97-7.953 3.494-.873.485-1.454 1.844-1.745 3.008.775-.388.775-.388 2.618-.68.097 0 2.91-.193 3.783-.484.873-.292 2.23-2.232 3.88-3.106 1.454-.776 2.424-.582 4.17-1.746 1.455-.97 2.91-2.33 3.007-3.98"/>
        <path fill="#C4D8E2" d="M60.4 56.745c-.096-1.941-1.745-3.397-5.14-2.815.194 2.426-2.618.777-1.843 3.203.582 1.746-.097 3.202-1.94 3.008-1.94-.194-2.23.291-3.297 1.359a5.92 5.92 0 0 1-1.94.873c-1.94.291-3.007 1.455-4.364 2.232-1.358.679-2.134 2.523-3.977 2.717-1.455.194-3.492-3.105-5.044-.097.485-.097 1.164.097 2.716.97 3.88 2.232 3.783-3.396 9.893-4.755 1.261-.29 2.91-1.94 6.11-1.746 1.746.097 4.268-2.426 6.402-2.815.97-.29 2.522-.97 2.425-2.134"/>
        <path fill="#2E7289" d="M7.056 62.955c1.26-.582 1.746.68 5.334-.776l.194-.097c2.134-.777 2.328-1.262 4.462-1.068 1.358.097 4.268.291 6.304.097 5.917-.776 4.753 1.553 7.566.777 1.067-.291 3.006-2.135 3.006-3.3.097-4.27 2.037-4.852 4.462-5.24.873.291 7.468 3.979 6.983-1.65-.097-1.455-.485-2.037.097-3.396.291-.776.485-.873.582-1.747 0-1.552.291-4.27-1.649-3.687-2.424.68-3.88 3.882-5.82 6.016l-.193.194c-1.455 1.65-10.378 6.502-12.609 7.181-3.2.874-4.461.291-8.244 1.456-2.91.776-3.977 1.261-6.983 1.94-1.067.292-2.62 1.36-3.492 2.233-.388.29-.873 1.552 0 1.067"/>
        <path fill="#DAE6ED" d="M43.04 41.413c-4.462.097-6.596 5.143-8.439 7.375-.582.29-1.455-.195-3.685.776-2.522-.388-.97 1.067-4.559 2.038-5.528 1.552-4.461.388-6.013.485-2.716.194-4.85 1.747-6.014 3.978-.873 1.553-2.715 1.165-4.461.098-2.328-1.553-8.245 2.523-6.305 6.598 1.358 2.911 2.91-.388 5.723 0 3.006.485 5.334-3.105 8.923-2.911 3.007.194 2.619.873 6.595.582 1.455-.097 3.298 1.359 4.753 1.165 1.649-.291 2.23-.388 3.588-2.232.388-.485-.97-3.882 2.037-5.337 3.395-1.747 3.298 1.455 6.79.29.194-.096 2.618.874 2.521-.387 1.067-.777-.679-6.017.582-6.696 0-.68 3.201-3.494 3.88-3.979.194-1.746-3.783-3.3-5.916-1.843"/>
        <path fill="#FFF" d="M11.13 56.745c-.388-.195-.776-.389-1.164-.68-2.328-1.552-8.05 2.426-6.305 6.405 2.134-.485 4.559-1.94 5.82-3.202.776-.68 1.358-1.65 1.649-2.523M34.02 48.884c-.583 0-1.553 0-3.105.68-2.521-.389-.97 1.067-4.558 2.037a16.211 16.211 0 0 1-2.813.68c-.194.679-.194 1.261-.194 1.261-2.328.097-4.267-.582-6.013.777-.97.776-2.716 2.231-1.843 3.396 1.067 1.456 3.298 0 5.043-.776 2.813-1.165 1.164 1.358 5.723.097 1.552-.388 1.26-2.232 5.043-3.3 2.037-.582 3.104-2.814 2.716-4.852"/>
        <path fill="#C4D8E2" d="M8.608 62.664h.776c3.006.485 5.334-3.105 8.923-2.911 3.007.194 2.619.97 6.595.68 1.455-.098 3.201 1.358 4.753 1.26 1.067-.096 2.522-.485 3.394-2.134-.678-.582-1.26-1.262-1.454-1.65-.68-1.65-2.037-1.164-3.104 0-1.552-.194-1.358 2.523-3.88 2.232-3.297-.388-2.715-1.553-4.655-1.456-2.134.195-1.552-.388-4.268.583-3.007.97-2.522 2.329-7.08 3.396.097 0 .097 0 0 0"/>
        <path fill="#2E7289" d="M29.752 43.644v.388c.582.194.776.874 2.618 1.068 1.261.194 4.462.291 4.85-1.553.388-2.232-3.589-3.008-5.82-2.329-.775.194-1.648 2.232-1.648 2.426"/>
        <path fill="#DAE6ED" d="M39.16 40.15c-1.94-1.649-6.304-1.455-8.05-.096-1.746 1.358-3.298 3.687.097 3.687 2.91 0 1.067.777 5.82.583 1.648-.098 6.013-.389 4.46-3.3-.29-.388-2.23-.68-2.327-.873"/>
        <path fill="#FFF" d="M34.213 39.084c-1.26.097-2.424.485-3.2 1.067-.873.68-1.746 1.65-1.843 2.33 3.394-.68 4.946-2.233 5.043-3.397"/>
        <path fill="#C4D8E2" d="M39.16 40.15c-.582-.484-1.261-.775-2.037-.97-.388.195-.776.292-.97.486-.097 2.037-.485 3.008-2.813 3.396-.775.097-1.551.388-2.327.776h.097c2.91 0 1.067.777 5.82.583 1.648-.097 6.013-.389 4.46-3.3-.193-.485-2.133-.776-2.23-.97"/>
        <path fill="#2E7289" d="M15.882 49.079c2.522.485 5.529-.195 7.371-2.038.873-1.844-3.588-2.135-6.401-.194-1.067.679-1.067 1.164-.97 2.232"/>
        <path fill="#DAE6ED" d="M22.38 44.227c-1.843-1.262-6.79-.68-7.953 3.105-1.067 3.3 7.274.68 7.856 0 0-.097 1.65-2.038.097-3.105"/>
        <path fill="#E6E7E8" d="M20.732 43.741c-2.134-.29-5.14.68-6.208 3.397 2.813-.097 5.917-1.262 6.208-3.397"/>
        <path fill="#C4D8E2" d="M18.889 48.69c1.649-.388 3.2-.97 3.395-1.358 0-.097 1.357-1.747.485-2.814-1.261.873-3.298 2.523-3.88 4.172"/>
        <path fill="#2E7289" d="M22.187 66.351c2.327-.29 1.454 1.844 5.14.777.873-.291 3.783-1.747 3.2-2.911-.096 0-.581-.583-2.133-.583-5.626.097-6.886 2.815-6.207 2.717"/>
        <path fill="#DAE6ED" d="M21.702 66.158c1.745.582 2.521 1.261 4.073.97 2.619-.388 4.074-2.232 5.14-2.329.292-2.135-3.588-3.008-5.722-2.426-1.843.582-4.461 3.396-3.491 3.785"/>
        <path fill="#FFF" d="M29.558 62.858c-1.261-.679-3.2-.873-4.462-.485-1.358.388-3.297 2.232-3.588 3.202 2.037.097 5.334-.582 6.692-1.358l.194-.097c.582-.388.97-.776 1.164-1.262"/>
        <path fill="#2E7289" d="M51.38 78.967c-3.297-1.844-17.845.97-22.307 1.455-4.17.485-7.274 1.068-11.057 2.814-2.91 1.262-6.692 3.59-7.177 6.987-.291 2.135-1.358 1.65-.485 3.59.097.098.194.486.29.486 3.492-.097 1.844-1.65 4.56-1.359.387 0 2.715-.097 3.006-.388 1.067-.291.485-2.911 1.164-4.173.679-1.261.194-1.843 2.037-2.717.776-.388-.194-.29 1.26-.582 3.201-.485.874 0 3.007.582 1.94.486 1.746-2.62 4.268-.194.873.777 3.686.194 4.752 0 1.164-.194 2.91-1.94 3.201-3.202.291-1.067 3.2-1.262 3.977-1.359.485.874 3.685-.388 5.625-.29.97-.098.388-.583 2.134-.486.485.097 2.134-.291 2.425.291.29 0 1.455.582 2.037.194l-2.716-1.65zM52.254 79.064c2.23-1.941 4.461 1.746 6.595 1.067 1.552-.485 1.358.097 3.007-1.261.97-.486 4.655-1.262 2.812-3.009-2.812-2.62-7.953-3.687-11.444-1.746-1.455.97-2.716 4.075-.97 4.949"/>
        <path fill="#C4D8E2" d="M65.93 76.832c1.842-6.599-3.104-5.046-6.014-8.248-1.26-1.359-4.268-1.165-6.207-.486-3.201 1.165-6.208 6.405-4.171 7.86 3.104 2.232 1.746-.096 6.207 2.232 3.395 3.009 4.559-.485 8.342-.097.776-.097 2.23-.29 1.842-1.261"/>
        <path fill="#DAE6ED" d="M59.722 68.39c-1.358-1.165-4.17-.874-5.917-.195-1.746.68-3.394 2.426-4.267 4.27.776.68 2.036 1.261 3.103 1.164 3.104-.679 6.014-2.231 7.08-5.24"/>
        <path fill="#B0CAD7" d="M65.93 76.832c1.357-4.95-.97-5.337-3.492-6.502-.485.68-.776 1.553-.97 2.426-.291 1.553-1.358 2.038-2.716 2.62-1.843.777-1.843-.485-3.686-.388-1.163.097-1.648 1.165-1.551 2.232.582.097 1.26.388 2.424.97 3.395 3.009 4.559-.485 8.342-.097.582-.097 2.036-.29 1.648-1.261"/>
        <path fill="#FFF" d="M57.685 67.613c-1.26-.097-2.812.097-3.88.485-1.551.583-3.103 2.135-3.976 3.785 1.94.582 4.074.485 6.013-.68 1.65-1.164 2.134-2.522 1.843-3.59"/>
        <path fill="#DAE6ED" d="M40.615 76.152c-1.94.777-3.2 1.262-4.753.68-1.552-.582-3.2 2.232-6.692 1.843-1.358.195-3.007 2.33-5.238 1.553-2.133.194-1.067-.873-4.17-1.067-3.2.873-1.552 2.038-5.335 2.62-8.729-.68-4.85 3.59-8.826 5.531-2.037.97-4.461 7.86 1.94 6.89 3.492-.582 2.328.873 5.82-1.844.97-.776 6.013 1.553 5.334-3.202-.582-.582-.485-1.262.388-1.747 0-1.067.485-1.65 1.455-1.747.097-.679.388-1.067 1.067-.679.29-.68.679-.873 1.26-.388.68-.68 1.455-.582 2.231.194 3.298 1.164 1.067-2.911 5.238.388 1.26.97 2.328.388 3.491-.097 1.261-.582 2.62-1.164 3.201-2.814l.194-.388c1.358-2.232 4.85-.97 5.529-2.038.485-.776-.776-4.173-2.134-3.688"/>
        <path fill="#FFF" d="M30.624 78.773c-.485.097-.97.097-1.454 0-1.358.194-3.007 2.329-5.238 1.552-2.134.194-1.067-.873-4.17-1.067-3.201.873-1.552 2.038-5.335 2.62-8.73-.68-4.85 3.59-8.826 5.531-1.164.582-2.522 3.203-2.134 5.046 2.037-.485 3.395-1.164 4.947-3.202 1.454-1.262 2.715.776 4.85-2.717 1.163-1.844 3.394-4.173 5.722-3.979.581.097 1.842-1.261 3.006-.29 1.455 1.164 5.917 1.164 7.08-1.262.486-.874 1.358-1.456 1.552-2.232"/>
        <path fill="#C4D8E2" d="M40.615 76.152c-1.94.777-3.2 1.262-4.753.68-.679-.291-1.358.194-2.23.679.581 1.164 1.551 2.232.096 3.008-1.066.582-.97 2.426-2.521 2.717-2.425 1.068-1.843-1.067-5.14.68-1.068.485-1.747-1.359-4.947.29-.291.195-2.328 1.262-2.328 1.262-2.328 1.844-1.552 3.785-3.007 4.755-1.746 1.165-2.425 1.359-4.267 2.038-1.65.582-1.843 1.067-2.425 1.844 1.552 0 1.358.485 4.17-1.747.97-.776 6.014 1.553 5.335-3.202-.582-.582-.485-1.262.388-1.747 0-1.067.485-1.65 1.455-1.747.097-.679.388-1.067 1.067-.679.29-.68.679-.873 1.26-.388.68-.68 1.455-.582 2.231.194 3.298 1.164 1.067-2.911 5.238.388 1.26.97 2.328.388 3.491-.097 1.261-.582 2.62-1.164 3.201-2.814l.194-.388c1.358-2.232 4.85-.97 5.529-2.038.582-.776-.68-4.173-2.037-3.688"/>
        <path fill="#DAE6ED" d="M53.03 80.131c-4.365-2.911-11.93 4.27-12.61-3.202-.484-5.046 7.954-6.405 9.409-3.397.873 1.941 3.394 1.65 3.2 6.6"/>
        <path fill="#FFF" d="M40.712 78.288a19.135 19.135 0 0 1-.291-1.456c-.291-3.493 3.589-5.24 6.498-4.95 0 .486 0 1.068-.097 1.65-.29 2.33-3.588 4.658-6.11 4.756"/>
        <path fill="#B0CAD7" d="M53.03 80.131c-2.91-1.94-7.178.582-9.894.291 2.716-1.067.582-1.843 5.432-3.202.97-.291.776-.582 1.94-.194.485 0 1.164-.291 1.454-.485 0 0 0-.291.097-.583.582.68 1.067 1.941.97 4.173"/>
        <path fill="#2E7289" d="M2.982 75.667c3.783.97 7.371-2.329 9.117-.582 2.425 2.329 5.14-1.844 7.372-.68 2.23 1.165 2.521 1.165 4.558-.29.485-.389.291-.874.097-1.262-1.649-2.62-14.064-1.844-16.876-.97-1.358.388-6.014.873-4.462 3.784 0 .097.194 0 .194 0"/>
        <path fill="#DAE6ED" d="M.364 74.988c-.68-1.552.194-3.105 1.454-4.172 1.164-.874 3.686-.583 5.335-1.165 2.619-.873 5.334-.97 6.886-.68.582-1.649 4.947-2.425 6.79-1.358.97.583 2.327 1.941 2.812 2.911.68 1.165.485 1.941.68 2.62-.486 1.262-3.88 2.232-5.432 1.262-1.261-2.426-3.589 1.262-5.723 1.067-3.394-.194-1.745-1.552-3.297-1.94-1.65-.291-2.522 1.358-4.17 1.843-1.844.68-4.656.583-5.335-.388"/>
        <path fill="#FFF" d="M.267 74.6c-.388-1.359.484-2.814 1.648-3.688 1.164-.873 3.686-.582 5.335-1.164 1.94-.68 3.88-.873 5.431-.873.291 1.94-1.94 3.881-3.588 3.493-2.716-.68-2.716 1.94-5.626 2.426-1.455.291-2.522-.097-3.2-.194M15.203 74.891c-.582.388-1.26.68-1.94.68-1.843-.098-2.23-.583-2.425-.971.582-1.164 2.134-2.329 3.492-1.456.582.195.679 1.068.873 1.747"/>
        <path fill="#C4D8E2" d="M21.12 67.807c.97.582 2.036 1.844 2.618 2.814.68 1.165.485 1.941.68 2.62-.486 1.262-3.88 2.232-5.432 1.262-.582-1.165-1.455-.97-2.328-.485.097-1.359.776-2.62 2.328-2.038 2.425.873 2.812-2.426 2.134-4.173"/>
        <g transform="translate(8.73 83.087)">
            <mask id="d" fill="#fff">
                <use xlink:href="#c"/>
            </mask>
            <path fill="#DAE6ED" d="M.946 28.679c-.291-3.882-1.164-5.046.194-8.83.097-.195.29-.776.29-.97 1.843-.583 2.425-1.457 4.462-.583.291.097 1.067-.776 3.492.194 2.716 1.068 6.013-.097 8.438-1.358 1.26-.68 1.552.582 3.589-2.038.679-.873 4.073-4.27 5.431-2.524 3.007 3.98 10.67-.97 14.16-1.164 7.857-.388 1.844-1.65 7.178-4.076 2.522-1.164 4.074-.29 5.335-2.037 1.067-1.553 2.23-.776 2.715-2.912.194-1.164.873-1.358 1.94-1.65 1.455 0 .97 1.941 3.395 3.494 1.94 1.263 2.716 2.233 2.91 4.852.097 1.456-2.037 1.94-3.298 4.852-1.067 2.426-5.432 2.814-8.438 4.464-3.201 1.747-1.94 2.232-5.917 3.202-1.746.39-10.766 7.763-13.384 7.376-3.298-.485-4.462.97-9.215-.389-4.267-1.164-11.347 3.688-15.13 1.747-1.067-.485-2.813 1.36-6.498.485-.873-.194-1.552-1.067-1.65-2.135" mask="url(#d)"/>
        </g>
        <path fill="#FFF" d="M9.48 110.116c-.29-3.493-1.163-3.784.486-7.18.679-1.36 1.454-2.912 4.752-1.553.291.097 1.067-.777 3.492.194 2.716 1.067 6.013-.097 8.438-1.359 1.26-.679 1.552.582 3.589-2.038.679-.873 4.073-4.27 5.431-2.523 2.425 3.3 8.147.486 12.027-.679-.097.97-.485 2.038-1.26 3.397-.195.29-3.687 1.746-3.687 5.143 0 1.94-7.565 3.687-7.953.873-.388-2.717-2.619-6.502-3.782-1.94-.291 1.067-2.037 1.455-1.261 3.784.679 2.038-1.746 3.59-2.813 3.881-1.746.485-.97-2.717-3.783-2.135-1.26.292-2.23-1.746-4.461-1.65-1.164.098-2.91 4.756-4.268 5.24-3.782 1.554-3.491-1.067-4.946-1.455"/>
        <path fill="#DAE6ED" d="M11.711 95.27c1.746-4.27 8.826 2.62 1.746 2.62-1.358 0-1.94-2.038-1.746-2.62"/>
        <path fill="#FFF" d="M11.711 95.27c.873-2.135 3.104-1.456 4.17-.292-.387.97-1.551 1.844-3.879 1.747-.29-.485-.388-1.164-.29-1.456"/>
        <path fill="#DAE6ED" d="M42.942 84.207c-7.468 2.135 3.104 6.502 2.328 1.65-.097-1.165-1.358-1.941-2.328-1.65"/>
        <path fill="#FFF" d="M42.942 84.207c-3.782 1.067-2.91 2.717-1.26 3.493 2.23-.582 2.812-1.94 2.812-3.105-.485-.388-1.067-.582-1.552-.388"/>
        <path fill="#C4D8E2" d="M45.658 65.381c-2.716-.097-2.134 3.785-1.067 3.882.582 1.164 4.074-.194 3.298-2.717-.68-2.718-2.134-1.165-2.231-1.165"/>
        <path fill="#E6E7E8" d="M45.658 65.381c-2.522-.097-2.23 3.105-1.358 3.785 1.649-.486 2.425-2.426 2.425-4.173-.485-.097-.97.388-1.067.388"/>
        <path fill="#C4D8E2" d="M23.835 78.967c1.94 1.843 3.492-.68 3.88-.97-1.067-3.785-4.947-.098-3.88.97"/>
        <path fill="#FFF" d="M23.835 78.967c.291.29.582.485.873.582.97-.776 1.649-1.94 1.358-3.202-1.455-.097-3.007 1.94-2.23 2.62M43.04 41.413c-3.007.097-5.044 2.523-6.596 4.754 1.94.389 4.074-.388 5.238-1.65 1.164-1.26 1.552-2.328 1.455-3.104 0-.098-.097 0-.097 0"/>
    </g>
</svg>
