<svg xmlns="http://www.w3.org/2000/svg" xmlns:xlink="http://www.w3.org/1999/xlink" width="97" height="148" viewBox="0 0 97 148">
    <defs>
        <path id="a" d="M0 .296h80.869v47.253H0z"/>
        <path id="c" d="M.348.167h54.329v16.33H.348z"/>
    </defs>
    <g fill="none" fill-rule="evenodd">
        <path fill="#3D7B93" d="M15.948 105.208c-5.34-.523-1.787-.226-2.57-.116-.585 1.514-2.661.374-4.15 5.676 12.784 17.14 44.355 22.57 64.652 22.741 8.942.017 5.318-15.547-17.776-23.123-17.555-5.649-23.45-7.844-40.156-5.178"/>
        <path fill="#C4D8E2" d="M94.982 51.918c-.736-2.923-3.506-5.258-6.963-5.529-2.14-.153-6.553 3.191-5.656 6.092 2.763 1.125 5.616.572 9.788.137.798-.112 2.831-.7 2.831-.7"/>
        <path fill="#3D7B93" d="M69.298 125.063c-2.456 4.035-4.503.793-1.914-2.3.114-2.582 1.829-2.823 3.947-2.48.492-2.156 1.494-2.937 3.433-1.605 4.036-1.852 4.39-.456 4.03 1.52 3.839-3.268 5.039-.387 2.318 1.76 6.553-2.046 8.237 5.42-2.03 1.409 10.911 7.45 4.954 14.868-2.877 1.044 4.113 10.014-1.08 11.547-3.834 1.022.594 8.742-3.818 6.793-3.073-.37M19.09 99.201c-.803 1.095-1.719 1.387-2.881 1.06-11.446-4.282-7.272-7.486-.114-1.948-5.326-6.123-1.734-10.063 1.496-.7.259-7.236 5.714-4.73 1.5 1.588"/>
        <path fill="#4E859D" d="M56.77 120.24c.738-1.536 2.433-1.934 2.963-.417 2.99-1.376 3.344.008 2.604 1.544 4.217-1.707 6.707 1.286.599 1.985 1.597 2.322.169 3.477-2.363.171 2.487 4.109 1.453 6.958-1.92 1.066 1.795 4.842-.704 6.307-2.786.552.19 4.748-2.332 6.057-3.228-1.456.012 4.614-2.195 4.765-2.25-.161-.967 3.319-2.837 2.467-2.43-.295-2.684 4.674-4.91 3.553-2.985-.854-1.896 1.22-2.742.863-2.604-1.544-1.372 6.082-3.664 4.494-3.095-.52-1.698 1.512-3.412.639-2.829-.875-4.818 1.95-5.46-.347-1.824-1.654-4.881.368-5.61-2.554-.529-2.631-4.986-2.642-2.771-6.136 1.273-1.134-1.638-4.862.348-6.574 2.297-.641.586-2.629 2.412-2.09 2.983.854.894-.444 1.762.07 2.228 1.12 1.222.782 2.226 1.119 3.474.943.87-.6 1.715-.24 2.382 1.098.893-.444 1.717-.241 2.495.763.821 1.317 1.78 1.342 2.849 1.032 1.05-.466 2.052-.129 2.695 1.054"/>
        <path fill="#4E859D" d="M45.17 117.605c-2.324 1.598-3.236.772-3.185-1.142-1.766 1.043-2.992 1.374-2.676-.895-1.877 1.376-2.992 1.374-3.097-.518-2.078 1.087-3.08.75-3.1-.518-1.14.955-2.344 1.442-3.388-.318-2.39 1.13-3.281.46-3.188-1.141-1.699 1.51-3.348 1.106-3.633-.92-.86 5.206-4.384 5.066-3.097-.518-6.55 5.529-9.064 3.498-1.58-2.162-6.01 4.818-7.455 2.478-2.872-1.185-15.15 2.129-9.935-4.96-.683-3.718-9.83-1.956-7.097-6.313 1.655-1.822-7.438-4.199-7.606-7.671 1.833-1.688-2.849-2.142-3.109-5.125.965-2.201-7.455-6.58-2.679-7.728 1.499-1.8-4.372-8.444-.27-7.59 2.926-1.841-.887-1.783-1.619-3.587 1.658-2.935-6.035-3.283-6.4-9.271 2.546-1.152-1.176-2.696 2.485-3.846 3.616-1.462-.594-3.095 2.486-3.845 3.927-.393.966-2.202 4.732-1.46 4.838.432.762-1.378 3.392-.794 3.79.898 1.764-1.042 3.257-.617 4.861.588 1.717-.241 3.278-.46 3.897 1.677 1.275-1.132 2.3-.64 3.3.808 2.03-.285 4.103-.26 4.788 2.346 1.92-1.064 3.145-.283 3.699 1.387 1.854-.42 3.682-.994 4.657 1.412 3.224-4.267 6.808-1.434 2.96 2.92 5.408-4.573 9.08-1.116 2.87 2.299 3.395-1.907 4.907-.213.753 1.96 6.163-2.614 11.264-.312.595 3.095 9.707-2.318 11.238.645 1.443 2.34 3.414-.64 5.767 3.638 1.241 3.162 8.55 5.314 4.194 8.31-1.524 2.757 6.537 7.98 3.83 11.38-2.68 1.33-1.043-1.76-2.276.797-.496 2.135 3.652 2.189 6.365 5.621-.877 2.825 6.786 6.356 3.408 10.645-2.564-.116 3.394 7.15.259 12.04-2.767.707 1.073 7.635-4.075 6.134-3.412-.474-.523 4.205-4.134 3.441-3.989-1.188-2.101 2.044-2.926 1.842-2.517-.917-3.398 3.02-3.93 1.505-3.924-.72-2.233 1.108-3.258.617-2.874-1.185-2.458 1.775-3.036 1.062-2.674-.896-2.455.663-3.837 1.016-3.52-1.253"/>
        <path fill="#3D7B93" d="M24.086 92.144c.313-.044.648.068.985.18-6.051-3.297-6.419-9.307 2.55-1.156-1.178-2.706 2.491-3.86 3.626-1.466-.595-3.107 2.493-3.86 3.936-.394.967-2.21 4.744-1.464 4.851.435.764-1.384 3.4-.797 3.8.902 1.768-1.047 3.267-.62 4.872.59 1.724-.241 3.29-.461 3.909 1.685 1.277-1.137 2.304-.643 3.307.811 2.037-.286 4.115-.259 4.803 2.356 1.924-1.068 3.154-.283 3.707 1.394 1.857-.421 3.692-.998 4.671 1.417 3.229-4.282 6.822-1.437 2.966 2.933 5.422-4.59 9.103-1.12 2.879 2.307 3.404-1.914 4.92-.212.757 1.968 6.176-2.623 11.29-.31.594 3.107 9.732-2.325 11.268.65 1.448 2.349 3.424-.641 5.782 3.654 1.245 3.175 5.782 3.654 5.664 6.223 3.206 5.77-.952-3.375-3.696-5.861-7.003-7.79 2.282.318 2.305-.642 1.952-2.028-1.05-.65-2.568-1.235-.933-3.22-2.19-.808-3.17-2.106-2.47-3.959-3.447.484-3.667-1.08-3.865-2.488-1.403-2.036-3.01-3.246-5.117-1.195-1.357-2.84-2.942-3.894-5.365-.682-.8-1.163-1.605-1.21-2.3-.474 1.236-2.567.05-3.038-1.85-2.93-1.388.354-2.124-.34-2.478-1.726-.36.848-1.255 1.293-2.596.843 1.695 1.836 2.898 3.581 1.44 5.7-.56.558-.786 1.227-.52 1.988-1.051.466-1.609-.093-1.628-1.367-.868-1.632-.418-2.972.925-3.64-.198-1.407-1.76-2.304-2.524-.92.005-2.235-1.918-2.284-2.772-.409.387-2.926-2.92-3.737-3.576-.454-.286-2.034-2.588-2.508-3.665-1.08.723-2.814-1.667-3.914-3.439-1.75 1.849-6.163-2.601-6.016-2.12-1.457-1.962-2.596-4.266-1.953-2.618.687-1.942-1.323-2.975.418-1.033 1.74a18.566 18.566 0 0 1-4.557-1.752M68.145 130.354c-.877.613-1.979-.37-2.428-2.42.517.25 1.462.117 2.677-.377-.36.864-.54 1.863-.249 2.797M46.11 118.657c-2.34 1.63-3.262.785-3.216-1.174-1.778 1.063-3.015 1.4-2.698-.92-1.89 1.403-3.015 1.398-3.127-.537-2.092 1.107-3.104.761-3.126-.536-1.147.974-2.362 1.471-3.418-.333-1.823.744-2.632.697-3.059-.056 1.012-.794 1.845-1.724 2.206-3.725.741 1.846 1.978 2.648 3.8 1.904 1.101 2.121 2.113 2.467 3.082-.92 3.687 3.384 5.014 2.546 4.455-2.578.427.753 1.124 1.143 2.159.51-.676.908-1.013 1.932-.092 2.776-.518.886-.113 1.481.719 1.688.673 2.506 2 2.807 3.8 1.904-.99 2.09-.632 3.503 4.497 2.296.944 1.004 2.002.531 3.24-2.081-.024 2.115 1.19 2.757 3.665 2.084.045 1.459.201 2.575 2.046 1.99.381 1.572 1.078 3.1 3.394 3.588.134.955.09 1.774.336 2.391-1.215 1.632-3.486.326-3.35-3.268-2.115 2.084-2.947 1.875-2.54-.945-3.42 3.083-3.96 1.533-3.959-.745-2.25 1.13-3.283.626-2.9-1.218-2.475 1.813-3.06 1.082-2.699-.921-2.137.788-3.532 1.147-3.215-1.174"/>
        <path fill="#4E859D" d="M60.607 64.89c1.894-1.236 2.473-.51 2.517.937 1.47-.852 2.384-1.142 2.161.665 1.603-1.032 2.405-.984 2.45.463 1.626-.874 2.45-.667 2.451.463 1.003-.787 1.894-1.235 2.74.26 1.939-.918 2.652-.372 2.518.938 1.404-1.327 2.74-.87 2.963.714.691-4.133 3.387-4.19 2.45.463 5.26-4.453 7.242-2.794 1.36 1.746 4.855-3.911 5.902-2.12 2.205.982 12.164-1.71 8.042 4.036.577 2.986 7.866 1.64 5.637 5.02-1.382 1.486 6.06 3.508 6.127 6.243-1.558 1.35 2.317 1.773 2.495 4.17-.713 1.714 6.014 5.452 2.16 6.316-1.071 1.442 3.498 6.774.245 6.262-2.338 1.46.668 1.358 1.357 2.876-1.404 2.457 4.834 2.71 5.19 7.504-2.095.94.936 2.129-1.939 3.179-2.853 1.208.513 2.511-1.94 3.179-3.12.439-.711 1.714-3.81 1.18-3.852-.266-.646 1.06-2.785.553-2.963-.714-1.47.852-2.629.53-3.876-.424-1.406.198-2.652.373-3.052-1.347-.98.945-1.827.58-2.63-.599-1.715.24-3.297.302-3.764-1.893-1.627.875-2.518.192-3.031-1.188-1.38.355-2.918.732-3.675-1.26-2.696 3.447-5.391 1.242-2.407-2.406-4.256 3.665-7.195.85-2.315-1.774-2.652 1.503-3.943.231-.713-1.676-4.968 1.99-9.045.141-.512-2.51-7.686 1.887-8.978-.515-1.069-1.95-2.786.554-4.544-2.913-1.002-2.603-6.818-4.37-3.34-6.796 1.115-2.256-5.348-6.352-3.051-9.258 2.072-1.098.846 1.495 1.804-.738.379-1.83-2.963-1.844-5.101-4.61.646-2.19-5.346-5.222-2.805-8.646 2.093.19-2.716-5.753-.264-9.81 2.14-.623-.867-6.175 3.276-4.98 2.763.42.468-3.457 3.431-2.743 3.163 1.008 1.671-1.688 2.34-1.46 2.028.845 2.673-2.475 3.163-1.252 3.252.511 1.783-.896 2.473-.509 2.362.96 1.871-1.393 2.428-.825 2.16.665 1.805-.738 3.03-1.071 2.83.894"/>
        <path fill="#3D7B93" d="M77.878 85.46c-.158.022-.495-.09-.81-.046 4.878 2.652 5.219 7.37-2.122.934.938 2.093-1.973 3.138-2.889 1.2.508 2.472-1.972 3.138-3.156.444-.727 1.692-3.857 1.178-3.896-.247-.658 1.046-2.819.555-2.994-.691-1.49.845-2.66.533-3.918-.403-1.42.2-2.683.377-3.081-1.315-.995.935-1.85.578-2.657-.58-1.735.244-3.335.31-3.8-1.85-1.648.868-2.546.2-3.059-1.158-1.398.355-2.954.733-3.712-1.227-2.74 3.405-5.457 1.244-2.424-2.36-4.318 3.626-7.28.864-2.336-1.738-2.687 1.49-3.988.243-.714-1.647-5.032 1.978-9.148.173-.508-2.471-7.78 1.888-9.078-.472-1.074-1.915-2.818.555-4.584-2.852-1.003-2.56-4.585-2.852-4.554-4.922-2.573-4.565.71 2.76 2.91 4.676 5.54 6.213-1.96-.201-1.85.578-1.539 1.647.877.512 2.069.98.824 2.426 1.867.691 2.494 1.716 1.902 3.229 2.84-.4 2.858.87 3.01 1.96 1.189 1.581 2.446 2.517 4.143.848 1.117 2.227 2.375 3.162 4.256.514.605.869 1.258.936 1.823.38-1 2.047.013 2.381 1.455 2.338 1.083-.311 1.644.245 2.113 1.292.385-.69.973-1.09 1.985-.756-1.323-1.403-2.331-2.85-1.13-4.608.587-.4.68-.89.434-1.491.767-.267 1.284-.022 1.437 1.069.671 1.336.329 2.337-.71 2.96.153 1.09 1.39 1.87 2.025.669-.075 1.758 1.547 1.848 2.297.313-.303 2.426 2.353 3.006 2.792.402.24 1.714 2.064 2.093 2.857.87-.64 2.314 1.407 3.139 2.766 1.359-1.574 4.829 2.121 4.786 1.775 1.18 1.57 2.004 3.44 1.582 2.165-.622 1.596 1.047 2.367-.333.93-1.402l3.576 1.404M76.654 65.653c6.719 5.357 4.673 8.007-3.032 1.371 2.195 3 1.011 4.9-2.235.157.958 2.228-.226 4.127-2.753-.086-.524.862-1.293 1.127-2.53.356-.781 2.473-2.83 1.658-3.113-.35-1.2.641-2.192.465-3.042-.99-.905.442-2.595-.108-2.926-1.322-2.149.775-4.809.203-2.403-2.182-1.74.244-2.66-.572-2.18-1.742-3.621 1.77-6.684.624-1.504-1.521-5.267 1.528-9.459.384-.958-2.228-1.58.222-2.545-.903-.555-1.655-4.895-.415-6.371-2.885.214-1.92-5.27-1.938-4.13-4.146.89-1.7-8.576-8.247-2.379-6.598 1.637-2.121-2.63-6.089-.252-7.526 2.437.13.384-4.15 1.066-5.033 2.638.417 1.221-.487 2.077-.135 2.61 1.366.813.043 1.489.263 1.935 1.145.763.838 1.64 1.345 2.632 1.52 1.086-.31 2.258-.001 2.927 1.322 1.042-.619 2.078-.134 3.02.836 1.866-2.783 3.441-1.901 2.459.284 1.652-.862 2.508-.51 2.682.726 4.287-3.91 5.921-1.462 2.409 1.08 8.026-2.546 8.346.874.505 2.449 7-.67 6.644 2.531-.328 2.251 2.567 1.057 2.238 3.309-1.436 2.407"/>
        <path fill="#3D7B93" d="M75.959 65.603c6.61 5.533 4.624 8.235-2.958 1.385 2.168 3.088 1.021 5.026-2.186.146.952 2.289-.194 4.227-2.695-.106-.507.879-1.257 1.146-2.473.347-.748 2.529-2.759 1.68-3.048-.379-1.17.65-2.142.463-2.983-1.035-.883.448-2.54-.127-2.872-1.373-2.097.78-4.704.177-2.366-2.252-1.7.239-2.606-.603-2.144-1.799-3.532 1.79-6.536.596-1.481-1.568-5.144 1.53-9.254.331-.953-2.29-1.545.218-2.496-.94-.554-1.699-4.793-.457-6.253-2.998.197-1.966-3.845-1.56-4.222-3.122-2.123-2.77.332 1.245 1.393 2.065 2.609 2.864-6.428-.874-3.113 1.406 1.128 1.295-1.39 1.326-.087 1.628 1.194 1.77-4.902 1.013-2.029 2.386 1.526 1.886-2.185 1.276-.792 2.211 1.768 1.367-3.222 1.745-.813 3.183 1.968 1.662-.241 1.65.444 2.037 2.32.805-3.64 4.388-.945 4.494 1.636 1.547-1.477 2.953.49 4.615 2.297.646-.086 1.627 1.703 2.022 1.989.69.488 2.354 1.924 2.475 2.43.466.244 1.742 2.277 2.749 2.208.013 2.08 3.584 2.077 1.323 1.7-.24 6.477 5.713 7.182 3.999 2.494-1.32.774 1.023 2.917 1.69 4.33 1.654-.55.562-1.478.692-2.958.254M55.172 47.411c.475-2.318 1.148-2.09 2.262 2.415 1.212-.492 2.064-.13 2.6 1.403.808.048 1.48.275 1.928 1.176.761.858 1.635 1.378 2.622 1.561 1.078-.312 2.244.006 2.915 1.359 1.033-.628 2.065-.13 3.005.864 1.846-2.832 3.415-1.927 2.446.3 1.64-.874 2.491-.512 2.669.75 3.102-3.009 4.806-2.284 4.04-.89-1.01.785-2.538 1.321-4.602 1.45-.56-.564-1.324-.296-2.492.512-.626-1.038-1.277-1.107-2.042.287-.446-2.028-1.388-1.895-2.512-.773-.335-1.239-1.277-1.106-2.04-.838-.156-1.104-1.256-.95-2.22-.975-.492-1.217-1.479-1.4-2.579-1.245-.379-1.554-1.343-1.58-2.264-1.29-.222-1.576-.377-2.68-2.127-2.594-.695-.385-1.41-2.053-1.61-3.472"/>
        <path fill="#4E859D" d="M74.877 50.14c2.61-1.8 3.299-1.419 1.735 1.03 10.95-8.067 8.847-2.676 2.76.409 7.58-3.773 7.91-1.43 4.81.28 14.009-2.129 11.907 2.147.997 2.566 11.2.496 9.9 3.704-2.499 2.58 3.378 2.551 1.994 4.02-1.92 2.181 4.266 4.337 2.546 6.808-1.986 1.713-.336 1.002-1.05 1.58-3.472-.946-.334 1.003-.472 2.296-3.16-.989-.803 1.069-1.539 1.49-2.426-.296-1.715 1.356-2.605.685-3.158-.989-1.673.554-2.696.06-2.513-2.035-1.182.643-1.85.419-2.047-.987-1.028 1.737-2.407 2.09-4.051-.545-.738 1.537-2.697 1.175-2.803-.72-3.458 2.555-3.227-1.458-2.957-1.814-4.904 2.44-7.17-.107-.841-2.59-2.007.442-2.848-1.032-2.891-2.46-5.348 2.663-7.906.316-.352-2.498-7.656-1.312-6.427-3.873.829-2.027-8.29-6.956-4.082-7.547 2.008-1.556-.663-2.455.03-4.304 3.718.433-3.41-9.553.84-7.602 2.624.586 2.087-7.777 5.513-6.029 2.294.474 2.362-1.287 2.34-.328 2.335.787 3.852.255 7.345 1.356 9.721 4.685 1.047.649 2.694 1.054 3.245 2.728M73.601 17.44c1.065-2.823 1.588-2.582 1.956.04 12.9-36.578 5.115-6.382-.626 8.269 1.116-.157 2.21-.468 3.166-.603 11.984-2.628 9.251 1.06 1.664 2.598-2.07.291-4.12.737-6.193 1.028-.637.09-1.52-.416-2.404-.92-.928-.814-1.876-1.782-2.687-2.927-8.51-9.658 1.182-3.155 3.847-.383-1.53-2.774-6.798-13.675-.208-6.106-.716-5.09-.058-5.026 1.485-.995"/>
        <path fill="#4E859D" d="M77.05 34.825c-2.33.327-4.569.148-6.747-.698-10.667-6.074-10.471-6.924-.076-2.788-8.943-8.456-6.745-7.448.86-1.767-1.392-5.402-.26-5.232 2.48-1.501 6.8-3.425 8.197-3.622 1.757 1.235 10.294.035 10.72.798 2.227 2.32 12.345 3.37 9.417 3.945-.502 3.2"/>
        <path fill="#5E90A7" d="M69.06 32.75c7.564-2.694 9.994-2.709 3.311 2.796 10.265-.79 12.172.083 1.084 3.109 8.085.983 9.194 1.968.133 3.242 11.01 3.344 9.146 3.932-1.369 2.964 3.972 1.725 4.767 2.754-2.25 2.436-1.593 1.365-3.25 1.11-3.382-.992-2.52-.624-2.088-1.011-.045-1.461-6.742-.683-6.72-1.665.14-2.466-6.495-.065-7.857-.526-.292-2.078-7.902-.846-6.742-1.825.73-2.875-5.447-1.843-5.376-2.505.391-1.848-5.489-4.447-8.709-7.744 1.549-2.827M74.02 17.44c1.046-2.824 1.564-2.582 1.932.043 9.012-26.145 7.713-18.247 4.257-6.266-.628.088-2.171 2.824-4.86 9.973-2.09-4.588-3.056-4.61-1.824.728-1.472-2.47-2.59-3.572-3.602-3.902-.997-2.537-.877-3.97 2.744.086-.83-4.764-.18-4.698 1.352-.662"/>
        <path fill="#5E90A7" d="M66.477 28.191c-5.092-4.8-2.425-3.284 4.249 1.137-1.38-5.165-.214-5.014 2.575-1.465 7.053-3.356 8.497-3.559 1.8 1.166 3.273.012 5.562.006 6.89.135-.942.29-1.744.402-2.043.602-3.004.737-7.925.64-10.848-.367-.707-.374-1.574-.724-2.623-1.208M78.806 31.955c8.703 2.404 8.494 3.258 3.075 3.195-1.93-.883-4.11-2.39-3.075-3.195"/>
        <path fill="#4E859D" d="M77.493 37.87c-1.086.307-2.333.638-3.874 1.166.498.085.995.171 1.468.105-.906.438-2.131.921-3.49 1.579 6.196-.716 5.966-.061 3.698 1.035l-1.584.223c.178.13.497.085.675.216l-1.36.658c3.36.927 5.094 1.772 5.834 2.446-1.446.047-3.729-.098-6.663-.308 3.94 1.623 4.726 2.602-2.257 2.339-1.592 1.312-3.24 1.077-3.36-.928-2.505-.58-2.07-.953-.034-1.395-6.709-.612-6.677-1.55.153-2.354-6.464-.024-7.815-.457-.28-1.982-7.856-.762-6.698-1.703.747-2.749-5.413-1.728-5.34-2.36.396-1.766-1.82-1.455-3.458-2.78-4.243-3.759.231-.654 1.744-.245 5.254 1.75 6.479-2.154 5.944-.213 1.96 3.613 7.062-1.46 8.87-1.247 6.96.11"/>
        <path fill="#3D7B93" d="M75.657 40.027c.671 1.204-6.302 3.97-7.324 2.653-1.44-1.908 6.446-4.153 7.324-2.653"/>
        <path fill="#80A9BC" d="M82.312 31.713c.793 1.4-5.808 3.271-6.456 1.851-1.44-2.818 5.664-3.25 6.456-1.85"/>
        <path fill="#3D7B93" d="M73.444 25.737c-.415.96-2.835-3.508-2.128-4.359 1.07-1.202 2.803 4.264 2.128 4.36M84.362 59.979c-.65-.067-1.638-.244-2.847-.865 4.292 4.299 2.553 6.757-2.005 1.705-.341.997-1.062 1.572-3.499-.931-.34.996-.48 2.28-3.183-.976-.813 1.063-1.555 1.484-2.446-.289-1.734 1.35-2.63.686-3.184-.975-1.686.553-2.716.065-2.528-2.017-1.192.642-1.865.42-2.06-.975-1.04 1.727-2.434 2.081-4.084-.533-.748 1.528-2.722 1.173-2.826-.71-3.49 2.546-3.249-1.44-2.978-1.795-4.95 2.435-7.228-.09-.842-2.57-1.865.42-2.848-.864-2.865-2.127 1.498 1.53 3.271 1.596 5.363.512-6.107 5.601-1.975 5.337 1.769 1.174-.433 1.484.397 1.684 1.747 1.02-3.766 4.007-1.098 4.74 1.567.886-1.088 2.525-.236 2.88 2.961.533-4.438 3.786-2.154 5.204 1.406 2.016.733 1.794 1.72 1.972 3.026.997.458 3.257 1.196 3.943 2.267.156.349 2.481 1.157 2.526 2.42 1.241-.107 3.81.614 3.234 1.698 1.817 2.122 2.548 2.843 1.972 2.808-.553 1.537 2.947 2.947 3.855 2.359-.331 3.025 6.69 4.986 4.675 1.62-1.019 1.852 2.903 3.148 4.143 4.336 4.609"/>
        <path fill="#5E90A7" d="M65.607 46.704c-.067-1.622-1.696-1.882-3.907-1.735-1.188-5.053-2.638-5.175-2.03.286-3.843-6.964-4.024-7.102-2.52.19-6.294-.583-6.494.26-.778 2.394-3.792 2.49-5.932 4.26.292 3.222.626 1.054 1.608 1.242 2.79.586 1.786 1.38 3.594 1.78 5.603 1.334-.98 3.237.582 3.018 2.835 2.048-.284 5.913 1.857 5.286 2.187-.307.806 3.476 1.52 2.886 2.254 1.315 2.838 4.332 3.35 3.444 2.521-.192 3.418 3.925 3.753 2.899 3.483.98 5.378 2.017 4.326-.935-.004-2.284 3.079-.76 3.747-1.669-.025-2.444 1.07-1.455 3.165-3.544-4.417.295 3.187-3.385 3.21-4.367-2.278-1.475.915-1.433.78-2.393-2.858-2.208-.314-1.098-1.096-2.13-3.148-2.005"/>
        <path fill="#6F9CB1" d="M80.16 44.755c1.176 1.287-4.557 6.45-5.894 5.185-1.357-1.423 4.904-6.337 5.894-5.185M81.496 90.354c3.544-3.78 5.2-2.728 2.782.464-1.895 1.55-4.313 2.603-2.782-.464"/>
        <path fill="#80A9BC" d="M82.967 91.634c5.939-2.41 6.449.145 1.07 2.302-1.783.075-3.297-.062-2.685-1.024.245-.385.782-.81 1.615-1.278"/>
        <path fill="#4E859D" d="M84.021 92.562c1.67-.71 2.229-.154 2.382.934 16.195 2.002 6.28 4.664 1.225 2.997 8.523 6.885 2.944 6.084-3.57 3.196 2.246 1.11 2.123 3.664-.779 3.596 3.073 2.42 2.213 3.176-7.002.509-.206.821-.21 1.931-2.946-.379.485 2.31-.122 2.553-1.38 1.62.04 1.421-.638 2.309-1.938 1.065-.664 2.154-1.293 2.242-2.343.488-.925.289-1.915.11-2.398-2.199-.73 1.688-1.474 2.11-1.823-.377-1.043 1.731-1.943 2.175-2.474-.445-1.732.243-2.607-.268-1.044-2.865-.29-.91-.85-1.465-2-.51-1.205 2.863-1.903 2.485-2.59-.112-1.668.71-2.677.376-2.376-2.044-1.426 2.42-2.666 2.752-3.8-.733-.791 1.22-1.673 1.82-2.792.709-.613 1.354-1.653 1.976-3.404.954-3.021 1.375-4.702-.29-5.527-1.6-1.51.687-2.681.376-3.284-.49-.448-.888-1.05-1.754-2.785-1.51-.364.843-.993.932-1.8-.223-.79 1.22-1.65 1.975-2.626-1.533-2.185.466-4.652-1.09-1.54-2.953-4.598 1.597-7.424-.224-1.182-2.686-7.005 1.618-9.756-1.957-1.228-1.888-2.768-.245-2.626-1.533-.844-2.576-3.508-.933-1.588-2.154 1.199-1.753-6.523-.668-8.123-5.198-.343-3.597-5.888-1.866-11.088-6.841-.706-3.863-.483-2.309-.006-3.485 4.882.424 7.742.18 4.627 2.043 4.396 3.82 1.107-1.266 2.959-2.952 4.467-2.53 1.51-.688 3.02-1.376 3.984-.243 1.237-.333 2.272.156 2.604 1.377 1.577-.222 3.039-.11 4.518 1.267 1.689-.554 3.309-.465 4.403 1.6 1.87-.422 3.447-.643 4.202 1.311 2.027-.443 3.691-.043 4.493 2.221 1.352-.665 2.478-.665 3.103.357 1.235.777 2.448 1.399 4.024 1.177 1.261-.177 2.088 1.133 2.78 2.62 1.33-.82 2.454-.82 3.46.624 4.035-1.043 3.46 1.733 4.244 2.732 1.826-.732 2.386-.177 2.81.555 1.352-.665 2.679-.376 3.348.956"/>
        <path fill="#3D7B93" d="M22.779 86.649c-2.609-.27-2.627-1.541-.846-2.588-3.506-.94-1.747-2.142 1.04-1.738-1.549-.737-3.098-1.474-3.585-3.794-3.645.353-1.63 3.254 3.608 3.95.897.67 2.066.984 3.348.963-2.407.02-2.503 1.625-.997 2.05-1.238.333-2.14.778-2.568 1.157m61.006 18.011c2.534 2.032 1.34 2.677-7.379.082-.205.825-.209 1.94-2.945-.382.487 2.32-.121 2.564-1.378 1.626.04 1.427-.638 2.319-1.938 1.069-.66 2.162-1.29 2.25-2.341.488-.923.289-1.912.11-2.399-2.21-.726 1.694-1.47 2.117-1.82-.381-1.041 1.738-1.943 2.183-2.473-.448-1.733.243-2.609-.27-1.047-2.878-.29-.914-.85-1.472-2-.515-1.203 2.875-1.899 2.496-2.587-.114-1.667.712-2.678.377-2.377-2.054-1.425 2.43-2.664 2.763-3.799-.74-.791 1.226-1.67 1.827-2.791.711-.612 1.36-1.65 1.983-3.4.956-3.02 1.38-4.7-.295-5.528-1.611-1.51.69-2.678.376-3.282-.494-.447-.892-1.051-1.763-2.782-1.52-.365.848-.995.936-1.8-.224-.792 1.226-1.65 1.983-2.627-1.541-2.182.466-4.652-1.097-1.541-2.967-4.595 1.6-7.423-.23-1.183-2.7-7.001 1.621-9.755-1.972-1.408-2.03-1.896 1.38.642 2.297 3.482.784-.118 1.45.736 1.807 1.748 2.142-4.197 3.296-4.177 4.567-.127 3.68-.151 4.637 1.183 2.699 2.517.76 2.42 2.366 3.75 1.542 2.295.314-1.504-1.54-2.31-2.7-.734-2.921 1.418-.2 1.601-1.18 1.268-2.407 1.324 1.406 2.425 1.25 3.44.471-.634 1.204.084 1.74 2.469 1.564-5.807.975-4.152 3.608.215 2.676-5.246 1.533-1.294 3.365.981 2.409.174 2.363 2.356 1.898 3.127.516 1.01.335 3.123.516 3.24-.933 3.253 2.567 4.14-.264.888-2.831 1.348.447 2.07-.132 2.165-1.737 1.169.313 2.048-.288 2.639-1.804.131.937.355 1.383.963 1.138-.882 1.716-.772 2.497.193 2.52-4.65 4.633-2.917 4.39.283 3.144-.459 2.453.236 2.833 1.452 2.343.76 1.963 1.703 1.83 2.517.76.65 1.183 1.615 1.207 2.608.271-.682 2.006.036 2.542 1.996 1.63-1.94 2.183-.795 2.34.33 2.341.446.893 1.1.96 1.8.225.317-1.159.925-1.404 1.779-1.046 1.794 1.34 2.516.76 2.64-1.804 1.05 1.763 2.016 1.786 3.009.85 1.545 1.853 2.49 1.72 3.238.183.014 2.385 1.81 3.725 2.85 1.987 3.187 2.1 5.909 2.035 5.554.652M31.98 77.524c1.117-1.1 2.412-2.068 3.725-1.781 1.494-.682 2.988-1.363 3.941-.24 1.226-.33 2.249.156 2.578 1.367 1.56-.219 3.006-.108 4.47 1.259 1.672-.55 3.275-.46 4.358 1.588 1.85-.417 3.41-.636 4.159 1.302 2.005-.439 3.652-.042 4.444 2.205 1.339-.66 2.452-.659 3.072.355 1.221.771 2.421 1.389 3.98 1.17 1.248-.176 2.067 1.124 2.751 2.6 1.317-.814 2.43-.813 3.427.619 3.543-.813 3.513 1.235 3.977 2.27-1.2-.617-2.292-.464-2.855 1.188-.975-1.278-2.04-2.072-3.517-.135-.217-1.541-.928-2.07-2.314-.618-.55-1.652-1.282-2.335-2.733-1.345-.758.264-1.538.373-2.625-.574-.628 1.188-1.477 1.936-3.188 1.076-.572-1.806-1.122-3.458-3.306-3.15-.216-1.542-.658-2.424-1.884-2.094-1.092.153-1.936-.2-2.556-1.213-.264-.749-.641-1.167-1.243-.926-.555-.55-1.222-.771-1.936-.2-.204.815-.784 1.211-1.408 1.3-1.044-.64-1.78-.222-2.387 1.12-1.14.947-1.94.902-2.313-.618-.464-1.035-1.04-1.74-2.11-1.432-.758.263-1.113-.001-.953-1.124-.598-.86-1.442-1.212-2.382.02-1.027.616-1.963.748-2.625-.574.004-1.101-.148-2.18-1.417-2.159-.087-.617-.173-1.233-1.13-1.256"/>
        <path fill="#5E90A7" d="M43.832 90.292c-6.797-1.892-5.84-4.372.89-1.8 1.075-.486 1.784-.083 2.243.857 1.878 1.746 2.178 2.71.072 2.838 2.015 1.56 3 2.76.507 2.441.001 1.173-1.552 2.899-1.601.225-.595.419-1.28.18-1.306-1.156-.593 1.59-1.233 1.68-2.22-.693-.525-.262-1.167-.171-1.67-.268-3.728.189-5.398-.08-1.534-1.627 1.578-.39 3.203-.45 4.619-.817M75.992 90.792c1.194.466 1.125 1.11.873 1.622 1.4-.355 2.098.022 2.545.911 2.104-1.088 1.899-.266 2.12.178 5.026-3.244 4.939.734.421 1.845 4.807-.2 5.113 1.978.197 1.4 8.86 2.245 6.875 6.49-.326 2.267 2.088 2.245.93 4.311-1.45 1.155 2.664 5.179-.314 4.645-1.454 2.267-1.313.978-1.717.4-1.461-1.222-1.046 1.733-1.722 1.51-2.524-.756-.637 1.2-1.427 1.311-2.055.289.155 5.689-2.58 6.867-1.94-.045-1.286.022-1.286.022-1.03-1.6-1.818 3.111-2.86 3.733-2.16-1.6-.391 1.8-.914 2.667-1.668-.4-.637 1.2-1.252 2.555-1.498-2.645-.637 1.2-1.184 1.911-2.04 1.555 2.755 4.69.915 7.645-1.624-.089-.112.333-.408.534-1.128 0-.39 1.8-.983 3.311-2.463.822-.385.69-.774 1.378-1.739.245-1.024 1.889-2.441.977-1.367-1.712-5.947 2.422-1.506-1.533-.15-2.2-1.106.156-2.549.2-.802-2.267-.603-.867-1.03-1.6.506-2.133.37-1.956 1.095-2.534 2.065-2.511.224.444.449.889.558 1.666 2.19-.466 2.746 1.2 3.347 3.179 1.733.867 2.594.111 3.231-1.089 1.103.956 1.872.689 2.662.578 1.45-1.156 2.21-.31 2.768 1.356 1.427-1.311 2.126-.934 2.345.622 1.518-1.8 2.598-1 3.563.134.48-1.178 1.047-1.734 1.678-1.822M32.56 77.394c1.5-2.188.258-2.837-4.62-1.328-2.198-5.126-8.198-5.765-2.231.479-8.473-6.55-12.135-3.4-1.474 1.195-6.376 3.696-5.276 6.836.573 1.731-6.266 5.657-3.185 6.542.273 1.938.617.902 1.445.95 2.46-.016 1.542-.71 1.678.258 1.675 1.412-.095 1.66 1.515 1.434 1.564-.55.665 1.225 1.86 1.55 1.66-1.056.09-.507.229-.691.551-.737 1.22-.665 1.313-1.172.51-2.212.76-.437.578-1.729-.941-.856"/>
        <path fill="#5E90A7" d="M32.3 85.051c-.928-.797-1.973-1.268-3.071-.96-3.476-1.52-5.225-.038-3.316.776-3.732 1.297-3.637 3.138-.203 2.038-4.852 3.773-2.347 6.512 1.343.275.992-1.067 1.557-.528 1.94-.119-.234.652-.309 1.28.054 1.539-4.83 3.925-1.685 4.255.032 1.386-1.003 4.47.948 5.586 1.322.124.97 1.1 1.045.471.384-1.91 1.034 1.556 1.492 1.337 1.503.253 1.301-.028 1.013-.915.203-2.038 6.088 2.7 6.728.291-.192-1.364"/>
        <path fill="#6F9CB1" d="M86.297 94.655c5.975-2.287 8.327-2.354 8.59-1.602-2.134 1.616-6.52 2.89-8.59 1.602M69.876 89.33c1.993-2.15 1.864-3.067-1.106-2.026-.472-1.025-.998-1.263-2.156-.165-1.824 1.036-2.199 1.868-1.566 2.87-2.435.186-2.254 2.655.117 2.01-.406 1.772 1.794 2.242 2.64.097 1.02 1.415 5.087 3.494 2.49-.974 10.32-1.294 9.3-5.048-.42-1.811M49.523 85.133c-.109 4.798.853 3.838 2.134.69 2.337 6.597 3.537 5.11 2.44.646 1.883 3.364 3.106 2.037 2.015-1.272 1.41 1.12 1.78.41.979-1.952-.535-1.573-1.701-2.07-3.63-1.303-1.809-1.725-3.703-2.943-5.809-2.317-1.012-.517-2.31-.83-3.538-.657-4.712 2.146-3.085 2.577 1.262 2.296.512 1.412 1.678 1.908 3.106 2.037-2.02 4.571-.99 4.097 1.041 1.832M79.494 95.449c-.302-1.057-1.467-.736-2.167-.324-1.615-.715-3.711 1.62-.696 1.511-4.919 2.733-1.285 3.792.662 1.477-1.007 4.696 1.837 4.453 2.231.786 3.234 2.529 5.521.48.994-1.553 3.503.136 1.523-2.098-1.024-1.897"/>
        <path fill="#3D7B93" d="M43.101 55.662c.743-.43 1.644.257 2.048 1.99-.518-.252-1.148-.163-2.207.31.203-.841.249-1.661.16-2.3m17.713 9.39c1.915-1.245 2.5-.514 2.544.945 1.486-.86 2.41-1.152 2.183.67 1.622-1.042 2.433-.993 2.477.465 1.644-.882 2.477-.674 2.476.466 1.014-.794 1.915-1.246 2.77.261 1.35-.678 2.184-.47 2.408-.013-.878.612-1.554 1.52-1.667 3.001-.54-1.551-1.575-2.057-2.949-1.538-.877-1.667-1.732-2.035-2.477.673-2.948-2.677-3.984-2.043-3.558 2.128-.405-.594-.945-1.006-1.666-.417.54-.727.901-1.591.181-2.14.383-.706 0-1.14-.517-1.393-.584-1.87-1.597-2.216-3.106-1.516.721-1.729.407-2.824-3.624-1.77-.765-.868-1.508-.438-2.658 1.676.091-1.64-.967-2.305-2.97-1.698 0-1.14-.135-2.097-1.666-1.556-.337-1.254-.832-2.487-2.813-2.86l-.269-1.914c.946-1.272 2.702-.217 2.61 2.562 1.69-1.702 2.365-1.471 2.049.851 2.703-2.495 3.197-1.263 3.287.515 1.801-.904 2.499-.514 2.386.966 1.892-1.405 2.454-.833 2.183.67 1.351-.678 2.59-1.015 2.386.966"/>
        <path fill="#5E90A7" d="M62.017 74.237c.69-.729.913-1.392-.17-2.346.49-1.017.713-1.68-.685-1.484.337-.995.804-2.167-1.413-2.172 1.446-2.099-.701-3.851-1.727-1.02-.599-.865-1.264-1.087-2.418-.293 2.381-3.337 1.125-6.637-2.127-1.597.67-1.99-1.365-4.075-2.17-.802-.776-.997-1.375-.754-2.087-.18.426-1.482-.657-2.436-1.905-1.155.006-2.213-1.635-2.614-2.218-.004-.847-7.15-3.913-5.297-2.175.306-5.728-6.938-7.315-2.449-1.887 1.213-8.522.25-6.447 4.856 1.148 1.419 1.2-.485 2.33-.328 3.281.803-1.061-.8-2.305-.624-3.551.657-1.153-.312-1.42.041-1.133.95-3.814-1.203-4.13 1.054-1.048 1.569-7.078.362-5.2 3.575-.161 2.234-6.307 2.467-3.607 4.774.418 1.838-3.316 3.468-1.193 6.172 2.326.78-1.255 4.6.647 6.86 1.667-.551-.231 2.877 1.608 3.566 2.347.934.29 7.702 2.913 6.07 2.132-.616.364 4.848 2.937 5.118 1.818.535 2.956 6.38 5.69 4.415 2.4-.97 1.281 1.243 2.058 1.134 1.797-.726.685 1.484 1.75 1.176 2.086.18-.34 3.21 1.121 3.478 2.15.647-2.033 5.816-.175 7.767 2.702 1.2-1.785 4.202-.39 5.112 2.172.801-3.9 7.185-1.822 9.58 1.15 1.419-.229 2.876.967 3.498 2.633 2.948-1.746 5.618 1.208 5.203 1.77 1.331-.221 8.564 4.464 6.958 2.241.16 3.578 6.291 5.205 3.218 2.374-.018 3.058 1.466 3.325 1.113 1.712-1.347 4.91 5.63 7.333 3.71 1.691-1.502 1.314-1.923.337-2.101-2.394-1.243 1.025-1.725 2.134-1.722 3.551-.657 6.908 5.191 6.567.499 1.224-1.437 8.847 2.075 7.327-1.977.073-1.748 4.958-4.173 3.48-7.916-1.841-.69 2.963-4.84 1.664-8.45-2.573-.27 1.165-4.114-.492-6.883-1.905-1.154-.469 1.172-1.136 2.056-2.356 2.385 2.265-.792.566-12.879-.881-2.878-.39-3.896-2.363-4.409-1.732 1.191-2.759-6.09-5.182-4.17-2.845 1.19-.42-.731-.817-1.307-1.684-.711-.023.95-.756 1.37-1.777.881"/>
        <path fill="#4E859D" d="M71.317 60.431c.63-1.21 1.886-1.386 2.218-.151 2.267-.96 2.58.118 1.95 1.327 3.364-1.113 5.131 1.201.377 1.549 1.206 1.753.038 2.557-1.749.086 1.742 3.278.93 5.475-1.503.691 1.156 3.682-.773 4.754-2.043.287.037 3.68-1.914 4.594-2.417-1.262-.144 3.544-1.891 3.63-1.614-.093-.768 2.51-2.315 1.767-1.817-.385-2.248 3.359-3.815 2.458-2.173-.656-1.482.849-2.153.623-1.924-1.171-1.288 4.506-3.057 3.313-2.466-.454-1.282 1.14-2.669.375-2.195-.813-3.815 1.337-4.08-.548-1.298-1.26-3.835.06-4.144-2.14-.287-2.041-3.673-2.206-1.94-4.692 1.011-.783-1.18-3.838.572-5.045 1.705-.4.52-1.995 2.021-1.565 2.194.813.763-.267 1.3.138 1.724.88.896.674 1.725.878 2.51.768.74-.425 1.256-.177 1.724.879.763-.268 1.415-.2 1.861.699.626 1.033 1.274 1.102 2.037.835.877-.604 1.57-.22 2.175.655"/>
        <path fill="#5E90A7" d="M61.063 56.986c4.66-.815 4.254 1.958.287 2.037.438 4.251-1.455 3.24-1.495.689-2.705 4.534-3.836 1.018-1.513-.586-4.683.658-4.568-1.914-.934-2.106-2.67-3.139-.57-5.191 1.628-.867-.172-3.49 1.635-4.224 2.027.833M71.92 63.557c.19-1.05.808-1.478 1.66-1.427 8.141.22 6.055 3.415.52 1.292 4.66 3.099 2.975 6.749-.879.976 1.084 5.309-2.867 4.84-1.3-.84"/>
        <path fill="#6F9CB1" d="M51.774 67.084c.55-.732 1.077-.479 1.785-.087 1.054-.64 1.785-.088 2.103 1.013.824.048 2.013.372 1.347 1.448-.846-.209-1.785.087-1.947 1.255.5 1.24.11 1.949-1.467 1.188 3.057 4.317.256 8.802-2.336.82 1.749 6.628-2.052 7.49-2.15-.189-.243 6.417-3.727 9.525-1.991-.211-3.884 8.401-7.655 5.985-1.943-1.037-5.678 1.453-6.22-2.399.85-2.083-4.709-2.12-3.925-4.685 1.49-1.028.118-1.49 1.743-1.554 2.426-.177.14-1.329 1.24-1.647 1.833-.912M68.452 76.784c-2.632.693-2.292-1.456.07-1.788 1.126-1.129 1.865-.424 2.63.438 1.036-.63 1.845-.582 2.023.686 2.518.778 2.157 1.637 1.122 2.267 2.9.077 2.359 1.932.245 1.744 3.618 1.755 1.43 5.619-1.484-.276 1.722 7.679-3.79 8.453-1.708-.73-2.212 5.969-5.134 4.6-2.092-1.161-2.77 4.269-3.958 1.526-.806-1.18"/>
        <path fill="#5E90A7" d="M43.212 106.767c-.854.762-1.19 1.772.107 3.034-.63 1.211-.97 2.221.914 1.957-.45 1.346-1.035 2.873 1.676 2.813-1.709 2.646.999 4.833 2.104 1.308.625 1.035 1.635 1.375 3.072.21-3.101 4.126-1.385 8.377 2.527 2.052-.788 2.356 1.828 5.037 2.711 1.062.825 1.328 1.746 1.039 2.598.277-.542 1.841.756 3.103 2.442 1.422-.073 2.898 2.21 3.219 2.712-.06 1.124 9.147 4.94 6.685 2.825-.398 7.31 8.76 9.383 3.013 2.332-1.61 10.691-.22 8.237-6.292-1.364-1.734-1.503.692-2.958.576-4.144-1.022 1.412.924 2.98.704 4.506-.955 1.344.453 1.77.073 1.282-1.142 4.859 1.563 5.112-1.2 1.326-1.951 8.897-.449 6.575-4.454.25-2.763 7.895-3.035 4.608-5.942-.645-2.316 4.199-4.28 1.473-7.747-2.866-1.041 1.558-5.995-.903-8.697-2.154.624.276-3.73-2.076-4.522-2.889-1.199-.25-9.751-3.818-7.806-2.758.87-.37-6.045-3.619-6.39-2.33-.636-3.705-8.143-7.206-5.726-3.028 1.228-1.676-1.69-2.62-1.557-2.288.803-.891-1.8-2.283-1.444-2.732-.098.365-4.222-1.404-4.295-2.668-.748 2.502-7.25.22-9.817-3.267-1.626 2.294-5.296.37-6.47-2.712-1.063 4.95-9.199 2.31-12.036-1.52-1.712.298-3.571-1.089-4.339-3.243-3.715 2.054-7.027-1.555-6.52-2.306-1.601.223-10.941-5.563-8.845-2.911-.233-4.47-7.875-6.65-4.04-3.05-.053-3.806-2.032-4.188-1.336-2.177 1.59-6.15-7.318-9.29-4.63-2.288 1.926-1.73 2.489-.409 2.785 2.955 1.67-1.282 2.266-2.74 2.15-4.508.955-8.773-6.629-8.404-.584-1.662 1.837-11.269-2.748-9.24 2.582-.161 2.27-6.286 5.375-4.344 10.075 2.194.814-3.775 6.146-2.15 10.89 3.25.345-1.355 5.164.59 8.741 2.463 1.58.586-1.527 1.394-2.603 2.919-3.138-2.892 1.048-.725 16.466 1.16 3.687.37 4.922 2.878 5.692 2.354-1.454 3.482 7.693 6.669 5.32 3.635-1.473.447.9 1.028 1.62 2.038.836 1.057-1.592 2.089-2.218 3.319-1.429"/>
        <path fill="#6F9CB1" d="M68.793 110.611c8.311 1.75 12.364-3.845-.065-1.612.16-1.157-.946-2.136-2.1-1.163-.314-1.09-.9-1.819-2.077-1.005-.925-.843-1.535-.595-2.1-.029-.589.407-1.2.655-2.238.152-1.016-.343-1.762.086-2.35.493-.992-1.32-1.738-.89-2.417.015-1.197-.48-2.08.13-2.736 1.195.655.07.994.185 1.332.3.362.273.587.727.654 1.204-8.436 5.4-4.01 7.047.742 1.84-5.66 7.928-1.254 7.147 1.692 1.708-4.713 8.929-.035 7.785 2.1 1.164-2.546 9.434.523 11.76 2.032.687.755 7.674 4.394 7.162 2.283-.97 1.647 1.39 2.935 1.37 3.322-.466 2.563 7.907 8.37 7.902 1.222-1.631 5.327 3.466 8.2.955.704-1.882M40.303 103.509c-.83-.21-1.256-.966-1.414-2.086 0-1.143-.158-2.263-1.794-1.38-.427-.756-.83-1.352-1.93-1.198-.606-.894-1.368-1.766-2.332-.651-1.168-2.61-2.85-2.047-2.759-.265-4.936-5.508-4.71-1.623-1.57 1.363-1.076.314-1.3 2.14-1.03 2.919-.313 1.186-1.03 1.777-2.287 1.953-12-3.372-9.553 2.648.068 1.623-7.466 6.108-2.261 8.967 1.369.623-1.994 6.319 1.147 8.162 1.704-.402-.244 6.235 2.985 5.292 1.233-1.48.898 1.833 1.862 1.86 2.22-.148-.805 6.804 1.258 5.535 1.705.74.025 7.013 2.986 7.576 1.794.237.92 1.992 2.4 1.131 1.906-1.247.471 1.076 1.256.966 2.041.855.92-.292 1.592-.06 2.467.47.134-1.325-.561-1.717-1.39-1.926M44.266 108.875c-6.202 1.176-4.668-1.93 1.044-1.212.593-.083.975.472 1.378 1.176-.045.767.444 1.002.912 1.089.806.343.869.79.633 1.28.743-.105 1.126.45 1.357 1.026-.785-.194-1.358.039-1.912.421-2.471 5.064-4.553 4.291-1.485-.856-2.917 4.061-5.252 3.629-1.228-1.197-2.15 1.976-5.591 2.307-.7-1.727M81.347 106.121c2.855 4.579-1.006 2.963-4.034-.595-.424-.77-.516-1.421-.407-1.769 1.108.01 2.995 1.073 4.44 2.364"/>
        <path fill="#80A9BC" d="M78.311 107.523c.247 3.06-1.618 2.858-3.265-2.327.052-.935.507-1.618 1.493-1.138 0 0 .69.986.71 1.138.022.152.712 1.138 1.062 2.327M60.684 109.041c.552-.721 1.353-.834 2.082-.292 1.26-.338 1.67.248 1.918.858 3.128 1.331 3.03 2.956.907 1.805 2.18 3.88-.086 4.038-1.629 1.195 1.115 6.768-3.046 6.226-1.508-.271-2.317 6.767-4.888 3.585-1.824-1.354-6.52.11-8.049-6.116-1.526-1.557.685.225.983.022 1.58-.384M34.163 102.656c.618-1.242 1.371-1.513 2.128-.63.176-1.014-.227-1.617-1.802-1.56-.246-.626-.935-1.024-2.176-.85-.844-.376-1.62-.267-2.02.284-2.813 1.385-1.805 4.048.273 1.941-1.03 3.94.614 4.368 1.466.29-.276 3.667 1.655 3.89 2.131.525"/>
        <path fill="#5E90A7" d="M40.684 118.823c-.125-.89-.691-1.416-1.676-1.429-9.082-.388-7.176 2.673-.659 1.152-5.404 2.423-4.12 5.722.788.948-1.83 4.493 2.74 4.305 1.547-.671"/>
        <path fill="#6F9CB1" d="M81.636 112.157c7.13 3.56 1.485 4.668-1.82 1.2-.964-.966-1.278-2.023-.368-2.623 3.802-2.422 9.891-3.907 2.188 1.423"/>
        <path fill="#80A9BC" d="M12.268 104.53c.164 1.166-7.858.972-7.827.042-.009-1.188 7.736-.69 7.827-.042"/>
        <path fill="#5E90A7" d="M75.94 125.472c-.222-1.578.277-2.615 1.32-3.243 10.664-4.558 9.9 1.503 1.375 1.738 7.682 1.817 7.778 8.24-.548 1.845 4.411 7.267-.998 8.992-2.147-.34"/>
        <path fill="#80A9BC" d="M79.042 118.702c-4.354 6.556-2.053 7.678 1.882 1.663.842-2.206 1.085-4.008.02-3.376-.626.249-1.205.812-1.902 1.713"/>
        <path fill="#DAE6ED" d="M65.998 19.911c.763-5 3.036-7.372 6.462-8.485 2.173-.778 5.154-.408 5.51.962-.812 2.324.392 2.787.798 3.361 3.319 1.586 7.202 3.723 7.396 8.59-2.548-.747-7.165 1.164-9.124 1.124-2.65 4.319-7.664-5.868-11.042-5.552M85.68 34.592c1.084-3.332.51-1.889.35-4.137-.916-3.202-8.545-3.342-10.82-.75 2.023.018 2.909.802 2.509 2.372 8.352-1.325 4.553 1.48 2.119 1.822 2.755.824 4.14 1.84 5.841.693M71.964 29.083c-.163.023-2.022-3.767-6.385-4.088-3.256.457-3.825 3.497-2.903 4.147 1.658 1.169 4.122.979 7.268 2.094.76-1.665 1.974-.121 1.897.513 3.71.413 3.04-1.986.123-2.666M80.527 46.013c3.242-.62 3.033-5.48.03-7.665-3.513-3.581-7.063-.638-9.15.308-.509.886-1.198.494-1.623-1.402-.734-.712-4.965-5.985-8.649-4-1.487.698-5.977-1.931-6.659 2.24.22-.683 1.822.558 3.05 4.786 1.94 4.78 3.689.297 5.095 4.663.625 2.194 2.598-.69 3.645 2.259 1.361 4.046 6.006 5.512 8.38 3.223.376-.705 3.656-5.567 5.88-4.412M50.214 54.838c-2.024-5.364-2.253-6.993-10.073-3.9-2.11.794-5.192 3.72-2.404 5.487 1.05.683-1.254 3.499 4.158 4.732.67.238 7.368.46 8.179-2.811.46-1.228.612-2.412.14-3.508"/>
        <path fill="#FFF" d="M66.645 17.543c1.117-3.431 3.118-5.116 5.855-6.124 2.132-.767 5.06-.4 5.41.955-.795 2.294.387 2.752.787 3.32 1.205.61 2.566 1.198 3.66 2.136-1.048 2.798-3.641 2.538-5.239 3.698-1.147.941-1.525.527-2.715 1.162-1.188.634-2.97-.674-3.592-1.679-.442-.873-2.448-2.618-4.166-3.468M69.93 26.976c-.974-.998-2.416-1.767-4.445-1.968-2.125.299-3.091 1.73-3.284 2.73 1.91.541 3.307.993 5.24 1.694 1.233.474 2.734-.709 2.488-2.456M84.857 28.658c-2.86-1.446-7.767-.924-9.627 1.185 1.162.004 2.023.22 2.44.833 1.674.1 4.023.274 5.535-.778.442-.398 1.049-.82 1.652-1.24"/>
        <path fill="#C4D8E2" d="M85.631 34.624c.819-2.206.819-2.206.585-2.73-.95.133-2.217.311-3.304.604-.24.59-1.906 1.382-3.172 1.56 2.687.737 4.107 1.653 5.891.566"/>
        <path fill="#FFF" d="M68.17 35.362c-1.66-1.718-4.89-4.517-7.672-2.988-1.322.674-4.928-1.421-6.313 1.05.509.254 1.038.668 1.703.9 2.143.674 2.19 2.131 3.518 3.734 1.507 1.74.555 1.71 3.098 2.98 1.348.623 1.038-.471 3.69.457.155-.022.33.116.464-.065 1.26-.015 1.431-2.153 1.297-3.11-.247-1.754-.18-1.276.215-2.958"/>
        <path fill="#C4D8E2" d="M80.39 45.178c3.129-.605 3.1-5.37.218-7.596-3.717 1.015-4.883 6.442-7.244 9.076-1.531 1.696-3.559.994-4.865-.303-.565-.578-.18-1.29-1.938-2.359-1.422-.951-2.455-.312-2.95.744.788-.111 1.576-.222 2.297 1.486 1.377 4.082 6.085 5.559 8.493 3.247.405-.55 3.734-5.459 5.988-4.295"/>
        <path fill="#DAE6ED" d="M82.03 57.443c-.433 1.342-3.075-.85-4.014-.878-1.242.015-2.355-.15-3.73-1.077-1.2-.793-1.283.82-3.294-1.3-1.812-1.827-3.445-1.277-4.278-2.762-1.222-2.07 1.129-3.042 1.976-4.763 2.216-4.155 5.908-.03 7.26-.38 3.159-.764 2.991 2.464 5.324 2.456 1.089.007 1.721.079 2.727 1.7-.434.22-.936 1.092-.368 1.813 1.513 4.112-.01 6.569-1.604 5.19"/>
        <path fill="#FFF" d="M66.382 50.516c-.046-1.484 1.624-2.38 2.56-3.837 2.336-4.301 6.2-.043 7.617-.408 3.316-.797 3.132 2.54 5.579 2.527.663.072 1.143.005 1.692.424-.23.695-.595 1.574-1.169 2.151-1.485 2.196-4.045-.921-5.578-.21-3.041 1.587-7.912 1.775-10.701-.647"/>
        <path fill="#C4D8E2" d="M82.444 58.343c-.464 1.382-3.252-.861-4.246-.886-1.316.02-2.493-.144-3.946-1.092-1.268-.81-1.385.688-3.274-1.023.276-.368.554-.736.877-.782 1.066-.644 4.454 1.186 6.048.797 1.109-.32 1.753.742 2.515.306.511-1.06 2.037-1.934 3.838-2.022 1.33 3.601-.29 6.135-1.812 4.702"/>
        <path fill="#FFF" d="M50.204 54.733c-2.011-5.268-2.236-6.869-10.064-3.81-1.8.743-4.199 2.876-3.33 4.55 4.055 2.857 9.262 3.758 13.664 1.18a4.008 4.008 0 0 0-.27-1.92"/>
        <path fill="#DAE6ED" d="M44.074 36.673c1.295-1.124 3.9 1.337 6.262 3.203 4.327-5.947-3.12-7.256-5.025-5.889-.567.551-2.136 2.028-1.237 2.686"/>
        <path fill="#FFF" d="M51.706 36.69c-.481-2.316-4.742-2.699-6.02-1.818-.287.18-.707.52-.955.975 2.008.98 4.874 1.419 6.975.843"/>
        <path fill="#929497" d="M72.923 76.15c1.288 1.234 1.078 3.15 4.224 3.965.334.11 2.13 2.687 3.053 1.3 1.74-.088 3.668-6.803 5.43-6.737.54-.704 5.854-1.451 6.972-1.451 1.098-1.255-.785-4.448-3.169-5.528-.586 1.497-.62 3.545-3.12 3.897-3.775.373-4.96 1.011-5.978 3.984-1.038 2.818-5.497 1.715-7.412.57"/>
        <path fill="#2E7289" d="M57.902 87.001c1.328.29 2.123 3.666 3.625 5.199.38.422 2.18.645 2.831.712 4.165-.11 3.38-1.11 8.283-.53 5.084.712 8.401 3.734 14.048 3.892 1.935.045 6.254-.086 3.769-2.908-3.427-3.8-21.61-8.537-27.665-8.162-4.928.376-3.606 1.775-4.394 1.886-.36-.266-.832-.2-.497-.089"/>
        <path fill="#DAE6ED" d="M96.386 96.41c1.702-2.811.04-6.598-7.75-8.076-1.151-.16-8.208-5.6-13.523-3.244-1.221.493-6.002-2.534-11.245-1.958-2.304-.319-5.951 3.57-6.043 4.066.743.7 1.424-.2 3.401 3.542 2.494 5.116 6.645-.934 14.182 2.187 1.534.588 4.518.008 7.945 2.582 1.803 1.354 6.527.53 8.942 1.637 1.173.318 3.296.502 4.09-.735"/>
        <path fill="#FFF" d="M85.168 86.622c-2.718-1.43-7.057-3.238-10.612-1.681-1.19.47-5.833-2.353-10.94-1.787-1.274-.123-2.867.857-4.128 1.94 1.12.145 1.12.145 3.291 1.049.153-.022 3.22 1.663 4.381 2.104 1.144.292 3.99-.712 6.208-.57 2.067.162 2.983 1.091 5.645 1.02 2.333-.178 4.801-.525 6.155-2.075"/>
        <path fill="#C4D8E2" d="M95.444 96.553c1.31-2.163.561-5.19-3.577-7.082-1.535 2.854-3.392-1.172-4.384 2.1-.631 2.397-2.417 3.472-4.249 1.916-2.013-1.696-2.623-1.445-4.657-.994-.972-.028-1.786-.079-2.668-.615-2.42-1.143-4.273-.553-6.421-.91-1.967-.22-4.181 1.246-6.285.058-1.74-.91-1.496-6.055-5.383-3.86.52.256 1.267.976 2.218 3.15 2.513 5.253 6.646-.933 14.198 2.292 1.538.608 4.522.024 7.96 2.674 1.81 1.394 6.533.566 8.953 1.71 1.38.63 3.504.826 4.295-.44"/>
        <path fill="#2E7289" d="M33.414 64.098c1.78.225 1.395 2.018 6.304 3.068l.333.111c2.778.558 3.377.316 5.529 2.07 1.419 1.065 4.281 3.351 6.677 4.596 6.971 3.29 3.897 5.145 7.54 6.215 1.332.445 4.734-.191 5.67-1.43 3.171-4.557 5.68-3.645 8.387-2.444.755.843 4.996 9.577 8.548 3.227.871-1.704.92-2.502 2.521-3.517.869-.597 1.18-.64 1.85-1.525 1.205-1.593 3.367-4.269.88-5.026-3.152-.98-6.96 1.294-10.475 2.262l-.311.044c-2.758.704-15.778-.47-18.598-1.34-3.998-1.335-4.995-2.777-9.834-4.469-3.663-1.224-5.131-1.492-8.839-3.027-1.354-.6-3.71-.427-5.267-.209-.599.243-2.046 1.237-.915 1.394"/>
        <path fill="#DAE6ED" d="M88.248 66.834c-4.895-2.993-10.766.713-14.282 1.847-.805-.047-1.45-1.236-4.405-1.781-2.39-2.225-1.701.399-6.376-1.025-7.044-2.37-5.03-2.814-6.773-3.85-3.129-1.8-6.462-1.652-9.287-.134-2.083 1.093-3.78-.75-4.76-3.172-1.425-3.321-10.534-3.321-11.484 2.414-.704 4.1 3.42 1.6 6.032 4.273 2.95 2.787 7.899.49 11.653 3.324 3.218 2.429 2.166 2.897 6.658 5.306 1.566.9 2.454 3.816 4.332 4.673 2.035.834 2.571 1.239 5.46.193.762-.267 1.733-4.725 6.12-4.221 4.877.594 2.474 3.973 7.128 5.24.334.113 2.141 2.74 3.062 1.33 1.745-.086 3.662-6.917 5.43-6.845.538-.716 5.866-1.465 6.985-1.462.9-1.567-2.134-6.102-5.493-6.11"/>
        <path fill="#FFF" d="M43.405 61.254c-.393-.44-.646-1.064-.876-1.527-1.473-3.422-10.713-3.278-11.747 2.311 2.8 1.092 6.62 1.214 8.89.895 1.437-.366 2.689-.872 3.733-1.679M72.791 68.246c-.687-.365-1.573-1.01-3.706-1.48-2.367-2.13-1.695.392-6.339-.956-1.508-.557-2.663-.857-3.506-1.2a7.095 7.095 0 0 0-1.12 1.08c-2.595-1.481-4.16-3.57-6.833-3.348-1.58.068-4.388.463-4.445 2.318.006 2.307 3.5 2.278 5.946 2.703 3.911.682.318 2.264 5.98 4.085 2 .642 2.97-1.495 7.813.133 2.31.598 5.104-1.025 6.21-3.335"/>
        <path fill="#C4D8E2" d="M35.19 65.523c.336.114.537.408.715.545 2.957 2.808 7.914.5 11.675 3.355 3.227 2.448 2.173 2.919 6.54 5.529 1.567.908 2.462 3.845 4.187 4.73 1.208.637 3.07 1.342 5.132.085-.311-1.084-.467-2.19-.4-2.845.473-2.323-1.34-2.713-3.201-2.29-1.478-1.404-3.277 1.75-5.828-.47-3.292-2.923-1.79-3.618-3.895-4.934-2.441-1.43-1.343-1.584-4.996-2.521-3.81-.916-4.194.912-9.93-1.184.158-.022 0 0 0 0"/>
        <path fill="#2E7289" d="M72.03 60.43l-.287.36c.584.556.198 1.408 2.116 3.053 1.334 1.09 4.872 3.464 6.493 1.8 2.24-2.07-1.662-5.83-4.815-6.663-.728-.377-3.363 1.27-3.507 1.45"/>
        <path fill="#DAE6ED" d="M84.409 62.794c-.931-3.187-5.673-5.996-8.714-5.884-2.864.244-6.228 1.507-2.657 4.007 3.032 2.101.555 1.66 5.814 4.712 1.753 1.017 6.809 3.782 7.191-.38.25-.508-1.749-2.123-1.634-2.455"/>
        <path fill="#FFF" d="M80.223 58.404c-1.41-.937-3.083-1.459-4.207-1.49-1.437.013-2.98.419-3.66 1.271 4.13 2.07 6.926 1.487 7.867.22"/>
        <path fill="#C4D8E2" d="M85.224 62.832c-.288-.876-.738-1.73-1.49-2.387-.67-.059-1.176-.14-1.34-.118-1.69 2.071-2.74 2.83-5.565 1.546-.874-.335-2.07-.625-3.085-.788 3.09 2.01.555 1.602 5.921 4.514 1.789.971 6.952 3.606 7.375-.425.1-.472-1.936-2.02-1.816-2.342"/>
        <path fill="#2E7289" d="M53.368 55.484c2.422 2.252 6.203 3.826 9.515 3.199 2.247-1.288-2.324-5.02-6.835-4.871-1.61.064-2.043.449-2.68 1.672"/>
        <path fill="#DAE6ED" d="M64.075 55.605c-1.21-2.744-6.904-5.668-11.08-2.49-3.713 2.95 7.457 6.076 8.73 5.735 0 0 3.331-.954 2.35-3.245"/>
        <path fill="#E6E7E8" d="M61.984 54.07c-2.169-1.99-5.987-3.397-8.96-1.036 2.964 2.055 7.067 3.245 8.96 1.036"/>
        <path fill="#C4D8E2" d="M56.596 57.55c2.182.982 4.455 1.399 4.957 1.328.14-.203 2.93-.964 2.651-2.95-2.082-.259-5.587.234-7.608 1.622"/>
        <path fill="#2E7289" d="M47.974 79.067c2.698 1.412.273 3.055 4.877 4.688 1.14.328 5.128.907 5.363-.754-.175-.138-.157-1.118-1.715-2.201-6.059-4.197-9.359-2.105-8.525-1.733"/>
        <path fill="#DAE6ED" d="M46.897 78.747c1.378 1.877 1.71 3.104 3.58 3.956 3.074 1.48 5.954.438 7.177 1.222 1.768-2.16-1.77-5.804-4.288-6.725-2.317-.63-7.245.54-6.469 1.547"/>
        <path fill="#FFF" d="M57.901 80.773c-.84-1.564-2.75-2.977-4.226-3.534-1.784-.514-4.985-.064-5.968.685 2.082 1.543 5.862 3 7.908 3.17l.305-.042c.804.193 1.545-.064 1.981-.279"/>
        <path fill="#2E7289" d="M69.894 113.772c-2.216-4.367-19.952-12.038-25.132-14.698-4.845-2.545-8.588-4.116-14.018-5.128-4.105-.713-9.76-1.048-12.813 2.285-1.8 2.027-2.606.85-3.193 3.514.023.158-.223.676-.068.655 3.879 2.52 3.142-.442 5.876 1.916.381.43 2.982 1.84 3.453 1.773 1.368.615 2.653-2.792 4.29-3.668 1.64-.875 1.484-1.983 4.109-1.545.987.184.09-.497 1.637.254 3.791 1.887.897.68 2.801 2.833 1.703 1.858 3.772-1.66 4.733 2.884.377 1.56 3.764 2.858 5.132 3.473 1.368.614 4.487.014 5.768-1.133.988-.946 4.306 1.007 5.18 1.53-.134 1.31 4.171 2.318 6.144 3.815 1.031.5.92-.29 2.556 1.092.54.409 2.422 1.273 2.377 2.086.357.273 1.186 1.608 2.15 1.634l-.982-3.572zM70.618 114.491c3.7-.357 3.39 5.211 6.326 6.098 1.951.539 1.406 1.104 4.033.896 1.446.284 5.766 2.115 4.989-1.189-1.154-4.875-5.768-9.913-10.829-10.34-2.212-.176-5.752 2.434-4.519 4.535"/>
        <path fill="#C4D8E2" d="M86.483 122.384c6.6-5.831.312-7.89-.477-13.5-.36-2.565-3.772-4.374-6.23-5.01-4.25-1.037-11.188 2.39-9.963 5.487 1.78 4.817 1.904 1.204 5.083 6.969 1.454 5.844 5.117 2.712 8.91 6.104.687.394 2.393 1.298 2.677-.05"/>
        <path fill="#DAE6ED" d="M86.256 108.301c-.642-2.245-3.802-3.825-6.332-4.404-2.37-.6-5.529.154-7.801 1.408.353 1.352 1.368 2.766 2.594 3.372 3.664 1.665 8.115 1.974 11.54-.376"/>
        <path fill="#B0CAD7" d="M87.303 122.28c5.138-4.288 2.85-6.561.934-9.694-1.081.476-2.14 1.111-2.855 1.86-1.59 1.52-2.943 1.224-4.964.86-2.525-.456-1.576-1.886-3.731-3.204-1.42-.773-2.618.044-3.427 1.292.572.568 1.188 1.454 1.874 2.816 1.468 5.79 5.294 2.66 9.206 5.999.894.524 2.66 1.41 2.963.071"/>
        <path fill="#FFF" d="M84.922 105.776c-1.284-1.001-3.189-1.768-4.689-2-2.183-.433-5.045.118-7.183 1.157 1.724 1.826 4.051 3.272 6.973 3.157 2.783.052 4.282-.897 4.899-2.314"/>
        <path fill="#DAE6ED" d="M59.294 102.903c-2.615-.588-4.254-.995-5.603-2.715-1.35-1.721-5.053.073-8.46-2.792-1.53-.74-4.855.364-6.623-2.094-2.393-1.255-.553-1.673-3.586-4.113-3.987-1.35-3.169 1.083-7.578-1.004-8.898-7.028-7.71.287-13.36-.51-2.904-.389-10.356 5.116-2.895 8.685 4.075 1.974 1.792 2.614 7.421 2.141 1.574-.062 5.266 5.947 7.977.47-.153-1.092.401-1.648 1.665-1.666.777-1.224 1.686-1.51 2.727-.86.554-.556 1.153-.8 1.752.071.732-.42 1.35-.508 1.639.407 1.24-.174 1.948.363 2.323 1.902 2.72 3.598 3.173-2.197 5.334 4.186.576 1.83 2.193 2.08 3.654 2.352 1.796.385 3.567.613 5.43-.763l.444-.222c3.104-1.55 5.89 2.516 7.377 1.83 1.064-.31 2.158-4.92.362-5.305"/>
        <path fill="#FFF" d="M47.699 98.777c-.513-.256-1.05-.672-1.584-1.09-1.542-.767-4.885.36-6.673-2.178-2.412-1.302-.562-1.726-3.622-4.248-4.017-1.404-3.186 1.104-7.63-1.06-8.98-7.269-7.759.27-13.448-.571-1.628-.263-5.016 1.69-5.97 3.956 2.544 1.119 4.485 1.338 7.516.256 2.52-.19 2.302 2.793 7.25.621 2.54-1.177 6.71-2.091 8.898-.102.56.577 2.878.087 3.46 1.974.652 2.37 5.408 5.638 8.505 3.89 1.182-.658 2.43-.833 3.298-1.448"/>
        <path fill="#C4D8E2" d="M60.215 102.6c-2.653-.585-4.316-.99-5.682-2.713-.583-.716-1.572-.897-2.854-.876-.23 1.788.17 3.488-2.102 3.328-1.462-.114-2.795 1.83-4.66 1.134-3.303-.653-1.139-2.394-6.04-2.982-1.462-.114-.867-2.752-5.433-3.227-.494-.09-3.418-.318-3.418-.318-3.824.218-4.395 3.012-6.644 3.009-2.72.063-3.733-.274-6.068-.903-2.181-.651-2.768-.25-3.826.218 1.617 1.21 1.165 1.433 5.62 1.126 1.598-.065 5.333 5.955 8.096.458-.154-1.095.409-1.653 1.69-1.674.792-1.228 1.715-1.518 2.772-.868.562-.558 1.17-.803 1.775.07.743-.424 1.375-.513 1.663.404 1.26-.177 1.978.36 2.355 1.904 2.755 3.603 3.224-2.209 5.408 4.188.579 1.834 2.22 2.083 3.705 2.353 1.819.383 3.617.609 5.513-.775l.449-.223c3.153-1.56 5.974 2.513 7.484 1.822.9-.446 2.019-5.073.197-5.455"/>
        <path fill="#DAE6ED" d="M70.974 116.35c-2.664-6.32-16.085-4.271-11.334-12.94 3.21-5.841 13.215-1.205 12.56 3.297-.41 2.833 2.55 4.377-1.226 9.643"/>
        <path fill="#FFF" d="M58.4 105.234c.09-.505.495-1.054.722-1.742 2.164-4.079 7.78-3.063 10.714-.521-.248.527-.654 1.076-1.196 1.81-2.097 2.263-7.419 2.19-10.24.453"/>
        <path fill="#B0CAD7" d="M70.936 116.356c-1.726-4.25-8.098-4.853-11.015-7.272 3.684.98 2.03-1.616 8.132.521 1.356.475 1.265-.177 2.261 1.18.519.26 1.515.453 2.012.55 0 0 .293-.208.563-.579.048 1.491-.196 3.19-1.953 5.6"/>
        <path fill="#2E7289" d="M20.107 75.515c3.44 3.745 9.61 2.722 10.357 5.75.902 4.101 7.035 1.673 8.556 4.435 1.543 2.916 1.882 3.025 5.121 3.04.816.041 1.045-.618.959-1.232.254-3.951-13.962-11.82-17.51-12.888-1.696-.545-7.092-3.232-7.665.764.022.154.182.131.182.131"/>
        <path fill="#DAE6ED" d="M17.621 72.745c.33-2.167 2.398-3.273 4.445-3.397 1.89-.103 4.43 2.15 6.566 2.664 3.472.98 6.434 2.847 7.771 4.453 1.711-1.382 6.987 1.137 8.259 3.405.669 1.373 1.006 3.772.897 5.255-.064 1.803-.931 2.414-1.108 3.417-1.444 1.018-5.785-.492-6.722-2.643.44-3.65-4.63-1.306-6.946-3.1-3.407-2.783-.738-2.995-2.23-4.579-1.494-1.584-3.539-.318-5.876-1.131-2.159-.675-5.165-2.861-5.056-4.344"/>
        <path fill="#FFF" d="M18.47 71.999c.536-1.777 2.476-2.514 4.322-2.774 1.87-.108 4.369 2.016 6.476 2.493 2.438.586 4.654 1.821 6.234 2.991-1.111 2.167-4.806 2.687-6.274 1.192-2.408-2.601-4.221.129-7.579-1.41-1.668-.694-2.456-1.82-3.179-2.492M33.852 83.35c-.986-.036-1.836-.266-2.573-.86-1.867-1.657-1.964-2.342-1.9-3.049 1.507-.91 3.936-1.076 4.89 1.058.44.81-.057 1.928-.417 2.851"/>
        <path fill="#C4D8E2" d="M44.78 79.854c.494 1.285.784 3.351.797 4.554-.079 1.666-.936 2.238-1.118 3.167-1.43.953-5.685-.405-6.588-2.385.252-1.54-.75-2.002-2.15-1.955 1.06-1.353 2.684-2.033 3.831-.54 2.08 2.568 4.773-.52 5.229-2.84"/>
        <g transform="rotate(-8 784.507 59.946)">
            <mask id="b" fill="#fff">
                <use xlink:href="#a"/>
            </mask>
            <path fill="#DAE6ED" d="M.68 9.171C3.692 5.21 4.01 3.307 8.607.93c.158-.159.951-.476 1.11-.634 2.22 1.11 3.646.634 4.914 3.328.159.317 1.586.159 3.171 3.17 1.744 3.328 5.866 5.23 9.354 6.023 1.744.475.952 1.902 5.232 1.11 1.427-.16 7.61-.476 7.452 2.218-.634 6.34 11.098 8.4 14.586 11.095 7.927 6.34 3.17 0 10.463 2.378 3.488 1.11 4.123 3.328 6.976 2.694 2.378-.475 2.854 1.268 5.074-.475 1.268-.951 2.06-.634 3.17.158 1.427 1.268-.792 2.695.318 6.34.792 3.012.634 4.597-1.427 7.132-1.269 1.427-3.647.159-7.293 1.744-3.171 1.426-7.61-2.06-12.05-3.012-4.597-.95-3.805.476-8.402-2.06-2.061-1.11-17.123-1.902-19.342-4.596-2.696-3.329-5.074-3.012-8.562-8.4-3.17-4.914-14.11-6.34-16.171-11.413-.634-1.426-3.964-1.11-6.659-5.072-.793-.95-.634-2.377.159-3.487" mask="url(#b)"/>
        </g>
        <path fill="#FFF" d="M2.206 116.563c2.18-3.99 1.639-4.394 5.733-7.372.136-.18.882-.604 1.018-.784 2.367.789 3.723.118 5.363 2.61.204.291 1.603-.065 3.602 2.697 2.204 3.053 6.577 4.36 10.164 4.657 1.805.227 1.213 1.751 5.37.366 1.402-.357 7.52-1.537 7.737 1.155.256 5.249 8.49 6.494 13.54 8.026-.84.92-1.994 1.882-3.802 2.777-.452.224-5.278-.86-7.818 2.86-1.473 2.128-10.85-1.518-9.213-4.792 1.498-3.092 1.969-8.924-2.785-4.892-.994.94-3.363.15-4.072 3.134-.753 2.669-4.477 2.55-5.83 2.1-2.186-.654.94-3.654-2.486-5.095-1.535-.585-1.142-3.523-3.596-4.94-1.398-.764-6.668 3.02-8.494 2.636-5.3-1.017-3.082-3.571-4.43-5.143"/>
        <g transform="rotate(-8 993.45 -142.83)">
            <mask id="d" fill="#fff">
                <use xlink:href="#c"/>
            </mask>
            <path fill="#C4D8E2" d="M45.967 1.231c2.068-.317 2.545 1.27 4.77-.476 1.272-.953 2.067-.635 3.178.159 1.43 1.27-.795 2.7.318 6.352.795 3.017.638 4.604-1.429 7.145-1.273 1.43-3.657.159-7.313 1.747-3.18 1.429-7.63-2.064-12.08-3.017-4.611-.953-3.816.476-8.424-2.064C22.919 9.965 7.817 9.17 5.594 6.472 3.844 4.248 2.254 3.613.348 2.025c2.385-.952 5.88-2.064 7.47-.158 1.59 1.905 3.657 3.017 5.086 2.381 5.724-3.017 4.77 3.018 11.288.16 3.813-1.589 7.787.158 9.22 4.128.952 2.7 5.563 1.429 7.787-1.112 2.068-2.223 3.34-4.446 4.768-6.193" mask="url(#d)"/>
        </g>
        <path fill="#DAE6ED" d="M15.169 101.987c5.337-3.227 7.879 8.799-.133 3.888-1.509-1.026-.66-3.467.133-3.888"/>
        <path fill="#FFF" d="M15.73 101.912c2.3-1.576 4.101.677 4.382 2.674-1.078.779-2.868.717-5.019-.861.016-.942.367-1.618.636-1.813"/>
        <path fill="#DAE6ED" d="M56.316 113.464c-9.392-3.174-1.377 9.184 1.278 3.512.77-1.232.042-3.055-1.278-3.512"/>
        <path fill="#FFF" d="M56.466 113.45c-4.904-1.582-5.226.735-3.963 2.829 2.871.894 4.526.013 5.295-1.393-.09-.637-.654-1.206-1.332-1.436"/>
        <path fill="#C4D8E2" d="M73.045 95.33c-2.72-2.278-4.748 2.495-3.56 3.492-.212 1.692 4.306 2.886 5.194-.398.843-3.609-1.634-3.094-1.634-3.094"/>
        <path fill="#E6E7E8" d="M73.368 95.32c-2.68-2.13-4.52 1.71-4.14 3.267 2.169.77 4.305-.963 5.459-2.916-.384-.483-1.319-.351-1.319-.351"/>
        <path fill="#C4D8E2" d="M40.115 93.58c.787 3.41 4.11 1.823 4.736 1.895 1.456-5.004-5.151-3.755-4.736-1.894"/>
        <path fill="#FFF" d="M40.143 93.754c.074.524.32 1.023.539 1.349 1.737-.066 3.524-1.03 4.16-2.722-1.74-1.18-5.066 0-4.699 1.373M88.239 67.81c-3.362-2.195-7.212-.987-10.567.319 1.718 1.926 4.559 2.693 6.9 2.197 2.185-.473 3.332-1.468 3.849-2.374-.023-.164-.182-.141-.182-.141"/>
    </g>
</svg>
