<svg xmlns="http://www.w3.org/2000/svg" xmlns:xlink="http://www.w3.org/1999/xlink" width="190" height="210" viewBox="0 0 190 210">
    <defs>
        <path id="a" d="M0 .015h25.098v16.548H0z"/>
    </defs>
    <g fill="none" fill-rule="evenodd">
        <path fill="#EC1C24" d="M169.111 86.524c-.007-4.11-1.382-7.757-4.125-10.942-2.505-16.564 6.934-13.28 5.433-6.298 5.261-4.228 8.315-5.523 12.477-6.23 4.83-1.107 6.622 7.3 6.711 8.319 1.383 7.756-15.286 14.352-20.496 15.15M12.592 26.938c2.47-2.96 8.434-4.855 12.43-5.89 1.095-6.959 1.172-13.828-1.005-15.353-1.471-1.244-4.702.755-3.974 5.151-1.683-3.627-3.611-6.203-6.156-8.039-3.986-2.739-9.004 2.16-9.962 2.93-5.02 4.9 4.93 17.411 8.667 21.201"/>
        <path fill="#670000" d="M96.454 165.226c4.196 3.985 14.8 5.234 23.227 1.595-7.7-4.041-17.518-4.27-23.227-1.595M21.897 150.625c2.626 5.657 16.066 9.059 23.48 4.486-7.771-3.57-14.696-5.581-23.48-4.486"/>
        <path fill="#344669" d="M105.664 143.27l9.027.94-3.086 28.654-7.49-.383z"/>
        <path fill="#485E87" d="M108.709 174.121l-4.477-.298 1.204-21.5c.68-.059 1.729.194 2.095.507 4.1 3.782 2.307 14.636 1.178 21.291"/>
        <path fill="#344669" d="M36.812 130.22l8.604 2.386-10.075 30.87-7.517-2.481z"/>
        <path fill="#485E87" d="M32.785 161.691l-5.073-1.975 5.327-19.127c.694-.061 1.068.252 1.796.534 3.337 2.127 1.14 13.032-2.05 20.568M120.404 140.976c-31.874.696-62.884-4.61-93.527-17.619 1.117-7.07 13.607-38.846 15.026-42.457-10.084-8.183-33.205-34.402-30.97-48.544l21.845-8.188c1.064.256 3.974 21.619 25.468 25.317 22.069 2.253 42.805 9.156 62.81 19.609 7.912 3.143 18.864 5.323 34.494 1.514l7.646 19.903c-12.8 8.442-26.7 8.263-41.47 6.069.62 11.103.03 32.074-1.322 44.396"/>
        <path fill="#344669" d="M75.445 65.607c-3.08 8.278-10.308 28.41-10.672 36.102-.112 6.625-2.777 11.733-2.957 21.498-.175 5.935 1.741 12.035 9.607 10.998 9.574-1.186 11.403-19.8 10.738-27.402-1.34-11.373 2.798-19.395 5.353-29.716.757-3.2-2.612-14.048-11.01-11.224-.682.06-1.029.09-1.06-.256"/>
        <path fill="#EC1C24" d="M56.895 126.121l7.176 1.715-1.515-8.902z"/>
        <path fill="#C3161C" d="M61.992 127.014l3.076.734-1.905-8.867-1.346 1.79c.087.997-.203 2.026-.116 3.022l.29 3.32z"/>
        <path fill="#EC1C24" d="M47.327 120.025l7.256 2.618-.785-8.966zM35.132 118.322l8.144 1.295-1.056-7.938zM29.916 116.068l3.05.436-.885-6.95zM107.542 131.333l7.036.114-2.44-7.817zM96.56 132.02l7.97-.697-3.234-7.748zM86.598 132.891l6.88-1.685-2.022-7.774zM116.567 131.23l6.33.493.431-3.529-2.23-4.344z"/>
        <path fill="#344669" d="M51.002 46.666c2.555 1.189 5.08 2.027 8.27 2.454 22.268 2.29 43.19 9.287 63.38 19.88 3.282 1.478 7.228 2.545 11.839 3.201-3.262 2.757-6.867 5.544-10.25 6.9-9.143 3.624-3.429 4.89-12.721 6.762-14.442 3.03-17.38 1.52-32.693-1.377-11.02-1.86-18.748-6.128-23.614-17.708-1.82-4.784-3.946-13.073-4.211-20.112"/>
        <path fill="#FFF" d="M126.51 147.157c4.444-1.087 2.392-8.578 2.466-11.722-.017-4.183-17.707-6.819-22.874-6.018-5.484 1.177-17.448.132-21.454 2.226 1.022-4.274 7.896-33.466 7.338-35.857-2.355-10.952 3.112-16.311 2.147-19.365-1.962-6.453-10.383-2.927-10.73-2.896-7.653.32-3.703 5.554-6.58 8.595-1.265 1.505-1.837 2.95-1.686 4.68.091 1.038.68 3.776.71 4.122.818 9.342-9.71 20.723-7.476 30.29.06.692.394 4.498-1.4 3.958-10.637-1.859-6.735-1.154-16.168-5.21-4.717-2.028-22.935-6.71-27.41-5.97-2.317 5.433-.857 2.167-3.296 6.216-3.58 14.957 13.55 15.201 23.18 17.497 10.668 2.204 9.268 6.162 23.822 4.889 3.119-.273 34.626 4.641 40.291 5.54 2.893 1.142 16.03-.357 19.12-.975"/>
        <path fill="#E2ECF1" d="M126.441 146.168c4.43-1.064 2.402-8.329 2.483-11.38-.059-.672-.463-1.313-1.586-2.23.44 5.036-6.656 11.408-13.825 8.99l-.72-.275c-4.664-1.621-11.025-2.756-15.74-.99-6.935.268-23.014 3.366-25.02-7.622-.087-1.007-1.82-4.914-3.84-8.12-.316.365-.662.396-1.007.426-2.82-.43-4.576-.615-5.986-.83.808 1.283 1.329 3.267-.074 7.11-5.898.178-6.508-2.813-15.976-3.676-8.088-.983-17.872-1.48-25.217-5.912-2.652 13.425 13.72 13.684 23.277 15.554 10.622 2.115 9.219 5.959 23.718 4.69 3.108-.272 34.48 4.426 40.121 5.285 3.225 1.071 16.314-.412 19.392-1.02"/>
        <path fill="#B7CAD8" d="M92.086 87.022c.568-5.614 3.119-8.62 2.585-10.66-1.966-6.435-10.451-2.91-10.804-2.88-7.706.327-3.732 5.544-6.636 8.58-.953 1.126-1.88 2.598-1.729 4.324 4.69 1.328 11.409 1.784 16.584.636"/>
        <path fill="#CCDDE6" d="M126.598 148.054c2.392-.564 2.899-2.739 2.998-5.588-4.851 4.33-.514 6.081-17.838 3.336-7.767-1.096-31.672.64-36.602-3.9-2.86-.815-10.705-10.78-6.608-15.756l-.03-.352c-.316.383-.662.413-1.008.443-1.069-.261-2.138-.523-3.176-.432-.352 3.937-.866 10.018-2.25 10.14-1.799 3.352-13.618-.23-20.192.346-1.73.15-3.083.624-4.06 1.42 2.138.523 4.245.694 6.037 1.247 10.657 2.264 9.266 6.291 23.799 5.02 3.114-.273 34.587 4.786 40.246 5.711 2.484.493 15.601-1.01 18.684-1.635"/>
        <path fill="#ECB06F" d="M96.503 8.996c12.17 3.822 35.788 11.18 36.988 28.875-8.697 59.746-88.278 37.39-64.345-15.312C74.049 10.96 87.188 5.972 96.503 8.996"/>
        <path fill="#D9A367" d="M97.405 8.917c12.202 3.816 35.882 11.163 37.08 28.85-1.546 10.252-5.067 17.886-9.808 23.533-.529-2.047-.394-4.5-1.555-5.794-3.195-4.605-1.298-6.864-4.403-10.43-2.095-4.002-9.867-5.066-14.461-5.711-6.703-.809-6.192-2.947-8.301-3.111-15.545-2.129-12.154.714-15.995.701-5.226.109-7.015 7.591-7.752 11.144.03.346-3.147-.073-6.01-.87-1.328-7.209-.323-15.67 4.115-24.779 4.574-11.563 17.75-16.553 27.09-13.533"/>
        <path fill="#A37275" d="M110.842 52.642c.682-.394 1.096.239.77.602-6.325 5.575-26.277 6.986-28.22-2.887-.058-.664.657-.727 1.071-.094 1.823 8.544 21.031 6.864 26.379 2.379"/>
        <path fill="#E2ECF1" d="M107.251 31.548c17.054 4.054 4.549.295 11.845 4.163 6.23 3.614 7.266 3.523 5.481 10.958-4.637 6.645-.002 7.972-2.369 12.685-5.903.17-1.74 3.965-14.89 4.769-19.74 1.033-6.905.604-23.328-4.198-5.704-1.58-12.025-6.227-10.469-12.255 2.64-9.59.783-7 .734-11.502-.12-1.376 1.954-1.557 2.78-4.056 2.82-7.525 4.592-3.174 8.3-4.538 3.046-.96 7.97-.351 7.97-.351 8.316-.381 10.749 3.565 13.946 4.325m15.066-26.62c2.132.507 3.888.7 6.02 1.207 3.633 1.762-1.05 3.904 5.87 7.458 1.472.911 9.31 10.97 8.725 16.22-1.094 7.374 5.239 16.178.542 22.135-5.67 6.735.35 7.94-7.307 15.89-5.1 5.298.844 1.658-12.89 7.712-2.015.87-4.955 7.02-11.572 6.905-9.07-.246-8.242-2.745-19.638-1.748-12.636-1.32-10.145-4.658-19.801-7.626-2.504-.82-12.758-10.668-12.804-15.17-.197-6.221-7.943-7.276-2.27-14.011 1.606-1.527-3.633-1.762-2.347-10.886.483-2.469 12.204-15.625 14.408-26.216.255-1.062.687-.06.946-1.122 0 0 9.828-2.94 12.939-3.212 5.839-.857.704-3.874 14.151-1.238.349-.03 9.73-.158 13.589.198 1.756.193 10.343 2.907 11.439 3.505"/>
        <path fill="#58595B" d="M107.693 40.972c2.012-3.88 11.477.643 8.656 2.948-.628.467-2.215-2.276-4.914-2.452-1.036-.32-3.969.76-3.742-.496M89.908 39.235c-.649.057-2.161-2.286-4.524-3.14-2.393-1.205-5.31-.95-4.076-1.765 3.059-2.39 11.225 5.03 8.6 4.905"/>
        <path fill="#FFF" d="M122.13 4.556c2.147.502 3.917.692 6.065 1.193 3.66 1.747-1.063 3.884 5.908 7.409 1.482.904 9.37 10.897 8.775 16.118-1.112 7.334 5.26 16.081.52 22.01-5.723 6.704.343 7.896-7.385 15.809-5.146 5.275.85 1.649-13 7.685-.666.403-1.303 1.148-2.287 1.923-8.793-12.326 4.083-13.452 5.861-21.19 1.977-9.477 6.153-9.842 1.229-18.027-4.865-7.5-10.874-8.008-18.224-11.845-5.138-2.652-17.24-4.695-23.28-5.545-14.882-1.8-13.142 10.11-22.201 6.767-2.9-1.125-4.064-2.401-4.184-3.77 3.406-5.122 7.107-10.96 8.398-16.242.258-1.056.696-.06.95-1.117 0 0 9.917-2.935 13.05-3.209 5.882-.86.714-3.853 14.268-1.248.345-.03 9.804-.169 13.693.18 2.088-.182 10.74 2.507 11.843 3.1"/>
        <path fill="#CCDDE6" d="M117.122 80.202c-1.336.812-2.703 1.28-4.828 1.118-9.167-.241-8.331-2.748-19.852-1.74-12.784-1.315-10.259-4.664-20.017-7.634-2.535-.821-12.897-10.691-12.94-15.207-.104-5.205-5.901-7.131-4.168-11.455l.345-.03c.853 1.664 4.633.638 9.694 10.276 5.538 10.987 2.41 7.437 14.568 13.674 6.996 3.56 9.59 5.07 17.453 6.468 7.224 2.15 14.844.787 19.745 4.53"/>
        <path fill="#E99E6A" d="M104.397 46.46c6.02-5.495 21.425 2.432 9.628 4.458-3.027.596-12.787 2.444-10.25-3.74 0 0 .283-.688.622-.718M76.21 40.065c2.09-3.663 21.633 6.807 12.45 8.306-5.789.855-15.419-2.826-12.45-8.306"/>
        <path fill="#EC1C24" d="M133.128 79.583l-2.51-5.753 5.07.61 3.51 5.666zM123.305 82.037l.921-5.64 4.875 3.048.135 5.548zM115.696 86.847l1.917-4.852 3.914 2.669-1.224 5.126zM106.787 88.282l3.206-4.617 2.77 4.094-2.779 4.941zM97.599 86.526l4.897-3.209 2.257 4.667-4.776 4.588z"/>
        <path fill="#C3161C" d="M130.37 74.856l-.748-.939 2.014.075c-.286.527-.6.805-1.265.864M123.993 78.425l.395-2.042 1.54 1.204c-.828.407-1.366.788-1.935.838M116.46 84.103l1.02-2.097.855.595c-.344.699-1.108 1.1-1.876 1.502M107.668 86.88l1.532-3.145 1.424 2.51c-1.196.105-2.06.557-2.956.635M97.648 87.087l4.356-3.727 1.766 4.865c-1.994.174-3.982.348-5.678.078l-.444-1.216z"/>
        <path fill="#CC8B5D" d="M62.768 85.006c2.956-1.347 3.24 1.892 1.9 2.553-2.171.734-2.688-1.94-1.9-2.553M55.253 81.035c-1.425 1.55-3.218-1.144-2.002-2.106 1.447-1.267 3.685.533 2.002 2.106M47.438 70.302c2.746-1.402 3.336 2.03 1.938 2.444-2.205 1.064-2.741-1.793-1.938-2.444M46.872 64.707c-1.554 1.544-3.139-1.133-2.198-1.919 1.554-1.543 3.72.027 2.198 1.92M40.945 52.823c2.702-1.425 3.297 1.792 1.79 2.518-2.13.781-2.7-2.141-1.79-2.518M45.388 47.746c-1.545 1.637-3.147-1.227-2.21-2.06 1.578-1.264 3.755.423 2.21 2.06"/>
        <path fill="#EC1C24" d="M67.749 77.505l5.737-2.692-.222 5.495-6.054 3.085zM59.905 73.66l6.346-1.225-1.747 5.841-6.696.92zM55.042 65.385l6.658.923-3.386 4.814-6.184.54zM51.445 58.673l6.7 1.421-4.115 4.376-5.638-1.113zM48.308 50.917l6.257 2.679-5.158 2.244-4.804-1.373zM46.701 44.03c2.219 1.413 4.819 3.193 8.493 5.28-2.114-.216-3.881-.463-5.995-.68-.836-1.533-1.665-3.066-2.498-4.6"/>
        <path fill="#C3161C" d="M67.073 77.963L72.49 74.9l-.15 5.93-2.227 1.305c-1.06-.647-2.088-.927-3.15-1.573l.11-2.599zM59.675 73.763l6.576-1.328-1.801 6.18-1.328.116c-1.46-1.378-2.586-2.785-3.713-4.192l.266-.776zM54.596 65.424l7.104.884-3.645 4.836-.734.064c-.865-1.43-1.73-2.86-2.26-4.695-.367.032-.4-.342-.465-1.09M51.993 58.625l6.102.9-4.545 3.983c-.498-1.39-1.027-3.137-1.557-4.883M51.383 51.652l5.138 1.357-4.457 1.594c-.498-.86-.602-2.055-.68-2.951M53.538 48.117c.274-.024.303.308.572.284L51.064 48l-.116-1.328c.599.616 1.446.877 2.59 1.446"/>
        <path fill="#CC8B5D" d="M130.289 86.141c2.573-1.387 3.146 2.048 1.834 2.453-2.334 1.075-2.851-1.783-1.834-2.453M108.88 94.021c2.777-1.33 3.06 1.908 1.803 2.562-2.303.745-2.797-1.93-1.804-2.562M120.737 94.356c-1.545 1.637-3.147-1.226-2.21-2.06 1.578-1.264 3.755.423 2.21 2.06M139.716 80.318c2.703-1.422 3.298 1.787 1.79 2.512-2.127.78-2.674-1.841-1.79-2.512M97.755 96.393c-1.428 1.536-3.219-1.13-2.002-2.082 1.447-1.256 3.658.244 2.002 2.082M141.576 72.871c.167 1.905 4.429 2.812 5.009-.118-1.66.145-3.349-.027-5.009.118"/>
        <path fill="#344669" d="M153.728 70.15c1.11-.097 2.19-.54 3.296-.638l8.083 19.893a88.083 88.083 0 0 1-8.208 4.21c-.8-.628-1.605-1.256-2.062-2.264-3.384-4.592-5.956-16.936-.066-17.8.706-.412-.152-1.733-1.043-3.401M14.938 45.806c-2.515-4.972-3.624-9.721-2.922-13.59l21.825-8.14c.344-.03.928 2.687 2.635 6.346-5.549 3.947-9.571 9.49-16.527 13.215-1.69.494-3.35 1.331-5.01 2.169"/>
        <path fill="#E2ECF1" d="M36.896 28.216c-1.564 1.917-5.064 1.51-9.1 6.849-2.816 3.451-8.533 1.459-13.504 4.03-2.344.917-3.001 1.33-5.813.865-.124-1.414-2.72.594-2.809-4.384.193-5.714-4.276-5.323 1.885-10.135 1.626-1.21 5.752-1.571 9.128-2.578 6.69-2.722 13.693-5.827 15.253-3.827 1.344-.474 6.525 7.262 4.96 9.18M150.846 70.633c4.545 7.951-1.573 6.051 3.956 13.221l.785.975c.468 1.35 3.14 11.901 8.228 10.065 3.726-1.37 10.206-3.328 7.79-6.944-2.388-3.27-3.034-6.692-4.408-10.399-.936-2.7-.544-6.214-2.612-9.86-2.57-5.341-17.468-3.69-13.739 2.942"/>
        <path fill="#CC8B5D" d="M94.386 123.396c2.776-1.33 3.059 1.908 1.802 2.562-2.304.745-2.798-1.93-1.802-2.562M104.266 122.574c2.697-1.447 3.3 1.831 1.795 2.568-2.155.492-2.707-2.185-1.795-2.568M117.305 124.793c-1.427 1.55-3.22-1.144-2.004-2.105 1.446-1.267 3.683.533 2.004 2.105M46.117 112.578c2.747-1.402 3.337 2.03 1.938 2.444-2.202 1.063-2.742-1.793-1.938-2.444M58.635 118.862c-1.546 1.637-3.145-1.227-2.208-2.06 1.58-1.265 3.755.423 2.208 2.06M34.78 108.572c2.7-1.422 3.298 1.787 1.79 2.512-2.13.779-2.674-1.842-1.79-2.512"/>
        <path fill="#B01117" d="M117.354 200.36c1.943-9.86 2.662-21.691 2.276-34.117-8.233 2.104-15.633 1.713-22.547-1.143-3.305 10.327-4.492 20.814-3.848 32.18 7.232 2.482 16.522 4.438 24.12 3.08"/>
        <path fill="#CD181E" d="M92.327 187.617c10.942-1.312 19.291 3.282 24.33 13.49-1.375 7.93-14.413 12.975-29.455 2.932-4.268-5.306-.458-13.094 5.125-16.422"/>
        <path fill="#B01117" d="M35.933 184.822c4.412-8.727 6.648-18.655 8.482-29.243-7.351 2.729-14.944 2.698-22.858-4.951-2.629 5.443-4.885 11.202-5.4 17.155-12.103-.33-18.76 10.331-14.568 14.83 8.062 9.375 25.956 8.852 34.374 2.554l-.03-.345z"/>
        <path fill="#CD181E" d="M15.793 168.275C4.024 168.253-2.341 178.63 1.55 183.55c5.419 6.54 15.969 8.422 24.81 6.597 1.964-13.148-3.046-19.022-10.568-21.87"/>
        <path fill="#EC1C24" d="M113.654 167.548c-6.1.888-11.982.34-17.709-2.348-3.195 10.554-4.316 21.28-3.641 32.913 2.507 1.198 5.324 2.014 8.482 2.8 6.781-.947 12.233-5.321 12.796-14.582.683-3.957.72-15.297.072-18.783"/>
        <path fill="#EF4E4C" d="M92.148 187.646c7.709-1.038 14.023 1.322 18.9 6.72-3.834 6.524-11.851 7.954-19.845 5.74-2.419-.516-4.291-2.536-5.154-4.645 1.062-3.37 3.533-6.134 6.099-7.815"/>
        <path fill="#EC1C24" d="M35.5 156.953c-4.272-.312-8.692-2.326-13.292-6.382-2.713 5.381-5.045 11.073-5.592 16.951C6.698 167.361.534 173.73.28 178.897c1.553 1.58 3.457 3.127 5.653 3.964 13.143 4.68 20.33-2.121 25.434-12.514 3.617-7.176 2.915-7.114 4.135-13.394"/>
        <g transform="rotate(-5 1930.81 91.407)">
            <mask id="b" fill="#fff">
                <use xlink:href="#a"/>
            </mask>
            <path fill="#EF4E4C" d="M16.278.127C7.12-.886.678 5.189-.001 9.914c1.36 1.688 3.056 3.375 5.087 4.388 8.818 4.05 15.261 2.362 20.012-2.7-.681-6.075-4.073-9.113-8.82-11.475" mask="url(#b)"/>
        </g>
        <path fill="#9D0B0F" d="M46.414 155.48c-.67.407-2.387.907-2.736.937-1.628 9.57-6.404 27.446-14.4 32.684 2.767-.591 6.84-2.344 8.147-3.506 5.9-13.086 7.756-24.072 8.989-30.115"/>
        <path fill="#FFF" d="M109.868 168.126l1.747-.153c1.046 7.933 1.864 17.283-2.043 24.951-3.01 5.846-17.4 6.408-19.736 3.82-3.159-3.91 3.467-8.677 3.752-9.4.05-3.493 1.543-18.627 3.424-21.234.732.285.732.285 1.808.54-2.217 6.823-2.982 14.217-3.485 20.542-4.266 3.513-6.729 7.567-3.436 9.023 4.668.988 13.662-.846 15.775-4.869 4.635-7.384 3.21-15.633 2.194-23.22"/>
        <path fill="#FFF" d="M107.211 173.45l2.71-3.45.523 5.977zM107.797 180.147l2.821-2.177-.311 5.046zM106.36 186.674l2.963-.56-1.532 3.145zM102.079 172.153l-1.962-3.303-.893 5.097zM100.663 178.918l-2.51-2.87-.311 5.047zM99.242 185.627l-1.566-1.506-.307 3.038zM32.036 156.33l1.392-.123c-1.801 7.473-3.98 14.63-8.047 20.21-14.075 7.502-21.14 2.895-22.017.882-2.103-3.996 6.9-9.312 13.193-9.514.878-5.999 2.83-11.743 5.508-17.202l1.139.946c-2.682 5.46-4.664 10.857-5.539 16.855-9.02 1.138-15.875 6.963-12.561 8.763 5.552 3.345 16.128-.018 19.774-2.427 3.753-5.205 6.023-11.325 7.158-18.39"/>
        <path fill="#FFF" d="M29.72 159.72l1.925-.94-.703 5.08zM24.44 156.733l-.539-2.295-1.396 3.133zM27.167 164.963l2.921-1.028-1.806 5.177zM22.98 163.005l-1.704-2.315-1.237 3.12zM23.638 170.522l3.025.154-2.254 4.798zM21.29 166.621l-1.162-1.815-.736 3.076zM172.01 88s-.03-.346-.378-.316c-2.394-3.277-3.045-6.706-4.423-10.42-.939-2.707-.545-6.228-2.62-9.882-1.287-2.676-5.907-3.318-9.71-2.636-1.666 5.026 1.15 13.147.938 18.744-.258 9.087 9.725 6.819 16.193 4.51M6.95 25.676c.666-.4 1.3-1.143 1.97-1.544 1.648-1.173 5.817-1.538 9.232-2.523 6.771-2.65 13.856-5.672 15.428-3.751.721.28 1.916 1.89 3.167 4.182-1.096 3.527-3.846 4.11-8.73 8.311-2.283 1.915-16.467 3.842-19.35-1.051-.873-1.982-1.306-2.973-1.717-3.624"/>
    </g>
</svg>
