<svg xmlns="http://www.w3.org/2000/svg" xmlns:xlink="http://www.w3.org/1999/xlink" width="557" height="221" viewBox="0 0 557 221">
    <defs>
        <path id="a" d="M0 .31h556.393v22.15H0z"/>
        <linearGradient id="c" x1="50%" x2="50%" y1="0%" y2="100%">
            <stop offset="0%" stop-color="#C52125"/>
            <stop offset="100%" stop-color="#8D2C2E"/>
        </linearGradient>
    </defs>
    <g fill="none" fill-rule="evenodd">
        <path fill="#1893EF" d="M539.642 100.699c-2.124 0-3.846 1.742-3.846 3.891 0 2.15 1.722 3.891 3.846 3.891s3.846-1.74 3.846-3.891c0-2.149-1.722-3.891-3.846-3.891m-13.318 0c-2.124 0-3.845 1.742-3.845 3.891 0 2.15 1.72 3.891 3.845 3.891 2.124 0 3.846-1.74 3.846-3.891 0-2.149-1.722-3.891-3.846-3.891m-13.317 0c-2.125 0-3.846 1.742-3.846 3.891 0 2.15 1.72 3.891 3.846 3.891 2.123 0 3.847-1.74 3.847-3.891 0-2.149-1.724-3.891-3.847-3.891m-13.32 0c-2.123 0-3.844 1.742-3.844 3.891 0 2.15 1.72 3.891 3.845 3.891s3.846-1.74 3.846-3.891c0-2.149-1.72-3.891-3.846-3.891m-428.959 0c-2.122 0-3.846 1.742-3.846 3.891 0 2.15 1.724 3.891 3.846 3.891 2.124 0 3.846-1.74 3.846-3.891 0-2.149-1.722-3.891-3.846-3.891m-13.318 0c-2.124 0-3.847 1.742-3.847 3.891 0 2.15 1.723 3.891 3.847 3.891 2.124 0 3.846-1.74 3.846-3.891 0-2.149-1.722-3.891-3.846-3.891m-13.318 0c-2.124 0-3.845 1.742-3.845 3.891 0 2.15 1.72 3.891 3.845 3.891 2.124 0 3.846-1.74 3.846-3.891 0-2.149-1.722-3.891-3.846-3.891m-13.318 0c-2.124 0-3.845 1.742-3.845 3.891 0 2.15 1.72 3.891 3.845 3.891s3.846-1.74 3.846-3.891c0-2.149-1.72-3.891-3.846-3.891m-13.319 0c-2.122 0-3.844 1.742-3.844 3.891 0 2.15 1.722 3.891 3.844 3.891 2.126 0 3.847-1.74 3.847-3.891 0-2.149-1.721-3.891-3.847-3.891m468.913 0c-2.122 0-3.843 1.742-3.843 3.891 0 2.15 1.721 3.891 3.843 3.891 2.126 0 3.847-1.74 3.847-3.891 0-2.149-1.721-3.891-3.847-3.891"/>
        <path fill="#1793EF" d="M276.922 1.373c-3.053 6.206-7.026 11.79-11.907 16.98a1.232 1.232 0 0 0-.306 1.177c.111.433.409.753.833.892 1.118.37 2.328.68 3.6.934a.373.373 0 0 1 .278.227.372.372 0 0 1-.035.356c-3.697 5.527-7.934 10.744-12.707 15.73-.307.319-.42.734-.32 1.163.101.429.387.751.802.903 2.024.742 4.268 1.353 6.656 1.835.129.024.23.11.278.232a.367.367 0 0 1-.043.359c-4.674 6.619-9.932 12.915-15.77 18.967a1.23 1.23 0 0 0-.324 1.153c.096.428.375.75.784.908 15.985 6.138 42.662 6.138 58.647 0 .407-.158.688-.48.784-.908a1.238 1.238 0 0 0-.326-1.154c-5.838-6.051-11.094-12.347-15.769-18.966a.367.367 0 0 1-.044-.36.367.367 0 0 1 .28-.231c2.386-.482 4.632-1.093 6.657-1.835.412-.152.698-.474.798-.903a1.227 1.227 0 0 0-.319-1.162c-4.772-4.987-9.01-10.204-12.705-15.73a.365.365 0 0 1-.037-.357.375.375 0 0 1 .28-.227 30.243 30.243 0 0 0 3.597-.934c.425-.14.723-.457.834-.892.11-.43.001-.853-.306-1.178-4.88-5.19-8.853-10.773-11.907-16.979a1.242 1.242 0 0 0-1.141-.707c-.496 0-.923.263-1.142.707M355.582 52.494c-.326-.65-.842-.84-1.34-1.022l-.2-.073c-1.08-.463-2.623-1.19-3.555-2.148-.218-.215-.304-.333-.055-.857.101-.205.226-.415.356-.64.162-.272.33-.563.49-.876.555-1.068 1.07-2.23 1.231-3.416.053 1.226.157 2.589 1.477 3.439.07.045.162.07.232.065.201.003.418-.178.418-.405a.41.41 0 0 0-.038-.166c-.003-.244.107-.63.222-1.034.17-.599.383-1.344.383-2.137-.046-2.48-1.572-4.017-4.099-4.142-1.704-1.856-4.882-2.854-7.067-2.854l-.103.002c-2.191.027-4.246.35-6.236.66-2.496.39-5.037.796-7.987.633l-.179-.003c-.687 0-1.182.157-1.545.272-.218.07-.39.124-.525.124h-.002c-.075 0-.224-.003-.489-.283-.264-.306-.262-.524-.26-.95v-.114c0-.047-.028-4.513-2.458-7.388.56-.49.945-1.109 1.226-1.946.089-.235.36-.954-.12-1.293-.312-.256-.949-.105-1.482.093a7.2 7.2 0 0 0-1.084.514c.061-.1.12-.206.176-.315a10 10 0 0 0 .55-1.057c.232-.559.435-1.165.61-1.832.068-.402.101-.735.136-1.145a6.373 6.373 0 0 0-.181-1.86c-.23-.716-.599-1.363-1.048-1.841-.395-.501-.823-.82-1.044-.943a.581.581 0 0 0-.124-.093.382.382 0 0 0-.107-.079c-.258-.127-.365-.18-.5-.18a.42.42 0 0 0-.3.129h-.003a.435.435 0 0 0-.12.33c.016.195.14.345.48.595l.12.117c.207.2.463.451.728.813.215.28.504.734.682 1.366-.3-.199-.576-.394-.771-.59-.182-.155-.263-.33-.34-.5l-.074-.185c-.062-.192-.156-.48-.476-.48-.475 0-.475.57-.47.813.031.245.14.72.477 1.139.277.333.628.595.998.875l.2.151c.152.125.322.265.401.418.135.22.145.418.078.7a4.725 4.725 0 0 0-.444-.576 4.089 4.089 0 0 0-2.257-1.19 5.11 5.11 0 0 0-1.674.037c-.745.148-.848.383-.848.592 0 .222.246.418.472.418l.147-.005a6.24 6.24 0 0 1 .383-.012 3.94 3.94 0 0 1 1.278.083c.373.108.692.246.966.42-.057.018-.115.035-.172.051-.192.058-.364.112-.552.133-.274.049-.466.006-.608-.022-.185-.041-.388-.026-.525.107l-.002-.003a.609.609 0 0 0-.073.103l.001.002a.473.473 0 0 0-.042.293.619.619 0 0 0 .39.426c.158.094.492.253.96.253.27 0 .534-.053.813-.108l.263-.054c.075 0 .15-.005.225-.008l.158-.007.127.012c.049.006.07.007.153.22.238.664.148.869-.203 1.479-.153.27-.342.52-.518.752l-.286.344c-.132-.298-.296-.506-.438-.69a.397.397 0 0 0-.08-.08c-.3-.223-.613-.238-.795-.06a.398.398 0 0 0-.098.41s.039.123.123.288c.06.12.142.28.195.494.04.162.028.368-.038.698l-.043.174c-.029.115-.06.24-.084.377-.006.018-.01.037-.015.055-.255.098-.41.265-.553.413a1.7 1.7 0 0 1-.3.27c-.375.239-.653.401-.87.528-.27.158-.458.27-.572.365-.287.158-.378.415-.46.665-.067.19-.15.427-.336.74-.539.42-.994.924-1.44 1.413-.367.405-.748.822-1.072 1.12-.406.198-.673.455-.796.746-.158.283-.201.583-.119.846a.855.855 0 0 0 .332.448c.07.119.139.214.213.287.14.137.36.32.675.327.05.09.126.157.202.21.257.17.525.224.817.153a.869.869 0 0 0 .492-.345l.111-.092c.063-.034.309-.076.504-.108.599-.1 1.475-.244 2.175-.786l.111.035c-.032.565-.154 1.172-.284 1.808-.4 2.003-.858 4.275 1.037 6.723.082.1.163.21.243.329-.245-.108-.516-.265-.927-.521a3.137 3.137 0 0 0-.945-.453c-.952-.256-1.671-.032-2.21.645-.202.235-.367.542-.5.938-.22.613-.22.919-.22 1.502-.083 1.564-.49 2.567-.92 3.625l-.092.227c-.185.426-.276.64-.405.859-.222.404-.497 1.004-.253 1.534.147.318.441.537.881.65.753.643 1.263 1.405 1.672 2.084a.68.68 0 0 0 .56.312c.384 0 .728-.342.806-.808l.164-1.268c.101-.931-.412-1.111-.959-1.219l-.128-.02c-.577-.092-.573-.117-.547-.3a.775.775 0 0 0-.163-.634c.005-.013.014-.027.018-.039l.153-.332c.196-.477.41-.95.625-1.423.48-1.056.972-2.144 1.252-3.27.553.467 1.096.985 1.625 1.492.866.83 1.759 1.689 2.747 2.353.322.206.524.444.718.674.26.308.53.627 1.003.762.283.092.64.112 1.023.083-.18.312-.375.633-.577.965-.458.748-.932 1.525-1.309 2.344-.148.322-.224.368-.351.445-.144.085-.338.203-.58.565a8.375 8.375 0 0 0-.265.546c-.097.214-.197.437-.317.641-.536.915-1.115 1.87-1.678 2.806l-.952 1.566c-.19.3-.206.324-.53.518-.751.39-1.067.784-1.25 1.553l-.048.199a1.576 1.576 0 0 1-.145.454c-.24.445-.739.927-1.139 1.313-.524.502-.81.78-.706 1.13.023.087.113.287.478.35h2.045c.816-.05 1.005-.994 1.16-1.757.02-.114.07-.414.11-.465.018-.02.118-.067.198-.106l.145-.07c.441-.203.54-.515.62-.765a1.55 1.55 0 0 1 .128-.325c.188-.377.574-.883.916-1.33.156-.201.3-.393.422-.563 1.057-1.502 2.483-3.453 4.16-5.183a16.297 16.297 0 0 1 2.14-1.807l3.075-2.302c.3-.296.553-.73.751-1.287l.345-.107c1.576-.601 3.964-.623 6.275-.642 1.822-.018 3.55-.034 4.972-.306.666 1.485 1.64 2.609 2.586 3.696.323.376.647.748.953 1.127.085.112.172.218.256.322.414.51.606.774.46 1.228a3.1 3.1 0 0 1-.477.94c-.779 1.276-2.135 2.991-3.23 3.806a9.13 9.13 0 0 1-1.365.862c-.058.03-.133.059-.206.09-.366.148-.92.372-.965.982 0 .1.012.204.024.31.019.143.032.276.043.279-.148.223-.366.507-.586.798-.771 1.008-1.033 1.392-.944 1.738a.562.562 0 0 0 .27.317.485.485 0 0 0 .171.035l2.31-.032c.248 0 .381-.129.44-.206.176-.238.095-.516.007-.809-.066-.212-.138-.448-.138-.683 0-.184.014-.283.003-.315l.103-.007c.074-.003.163-.01.271-.023.417-.07.596-.366.724-.586.078-.127.15-.248.284-.372 1.033-1.059 4.595-4.625 7.211-6.109a.376.376 0 0 0 .121-.103c.744-.955.165-1.938-.347-2.809-.102-.168-.2-.34-.291-.512l.218.055.205.05c.09.022.2.04.311.062.274.05.78.144.872.254.093.133.1.324.113.547.005.079.01.159.017.24l.131 1.232c.348 3.096.151 5.262-.597 6.603l-.084.135c-.17.264-.269.447-.229.916l.023.12c.028.138.047.24.012.388-.038.195-.05.209-.267.42-.441.403-.802.841-1.09 1.215-.182.233-.489.625-.306.995.18.368.668.368.987.368h1.371c.13 0 .44 0 .663-.235.151-.162.22-.392.197-.698l-.095-.83c0-.403.142-.608.503-.714.221-.075.814-.269.734-.797-.061-1.04.56-7.46 1.38-9.9.263-.738.228-1.536-.086-2.125m-155.038 0c.327-.65.843-.84 1.343-1.022l.197-.073c1.08-.463 2.625-1.19 3.556-2.148.219-.215.306-.333.057-.857-.104-.205-.228-.415-.359-.64-.159-.272-.33-.563-.487-.876-.558-1.068-1.07-2.23-1.231-3.416-.057 1.226-.159 2.589-1.48 3.439a.4.4 0 0 1-.23.065c-.202.003-.419-.178-.419-.405 0-.059.014-.115.037-.166.006-.244-.104-.63-.22-1.034-.171-.599-.382-1.344-.382-2.137.043-2.48 1.572-4.017 4.097-4.142 1.703-1.856 4.883-2.854 7.066-2.854l.104.002c2.19.027 4.247.35 6.237.66 2.495.39 5.038.796 7.987.633l.18-.003c.684 0 1.18.157 1.542.272.218.07.391.124.528.124.074 0 .223-.003.49-.283.263-.306.262-.524.262-.95l-.002-.114c0-.047.028-4.513 2.456-7.388-.556-.49-.942-1.109-1.223-1.946-.09-.235-.362-.954.119-1.293.311-.256.948-.105 1.481.093.386.144.748.32 1.083.514a5.137 5.137 0 0 1-.174-.315 10.015 10.015 0 0 1-.549-1.057 14.111 14.111 0 0 1-.613-1.832 14.112 14.112 0 0 1-.135-1.145 6.376 6.376 0 0 1 .183-1.86c.228-.716.596-1.363 1.046-1.841.396-.501.824-.82 1.043-.943a.636.636 0 0 1 .126-.093.389.389 0 0 1 .108-.079c.257-.127.365-.18.498-.18a.42.42 0 0 1 .3.129h.002a.43.43 0 0 1 .12.33c-.014.195-.138.345-.48.595l-.12.117c-.207.2-.463.451-.728.813-.215.28-.504.734-.682 1.366.302-.199.577-.394.774-.59.179-.155.26-.33.339-.5l.072-.185c.062-.192.157-.48.478-.48.475 0 .475.57.469.813-.032.245-.14.72-.478 1.139-.275.333-.626.595-.995.875l-.201.151c-.151.125-.322.265-.403.418-.135.22-.144.418-.078.7.13-.198.28-.39.446-.576a4.089 4.089 0 0 1 2.257-1.19 5.11 5.11 0 0 1 1.674.037c.746.148.847.383.847.592 0 .222-.247.418-.472.418l-.146-.005a6.24 6.24 0 0 0-.384-.012 3.95 3.95 0 0 0-1.28.083 3.645 3.645 0 0 0-.963.42c.056.018.115.035.171.051.192.058.365.112.553.133.273.049.467.006.606-.022.188-.041.388-.026.527.107v-.003l.043.052c.012.018.024.035.033.051l-.001.002c.043.09.06.201.043.293a.622.622 0 0 1-.391.426 1.888 1.888 0 0 1-.961.253c-.272 0-.534-.053-.815-.108l-.262-.054c-.074 0-.15-.005-.223-.008l-.16-.007-.127.012c-.048.006-.07.007-.152.22-.239.664-.15.869.204 1.479.151.27.34.52.518.752l.284.344c.133-.298.295-.506.437-.69a.441.441 0 0 1 .08-.08c.3-.223.616-.238.796-.06a.398.398 0 0 1 .098.41s-.038.123-.122.288c-.06.12-.144.28-.196.494-.04.162-.027.368.039.698l.042.174c.03.115.061.24.084.377l.017.055c.252.098.41.265.55.413.095.099.185.193.3.27.376.239.653.401.871.528.272.158.457.27.573.365.287.158.377.415.461.665.066.19.147.427.336.74.536.42.994.924 1.437 1.413.37.405.748.822 1.077 1.12.403.198.668.455.794.746.155.283.198.583.117.846a.863.863 0 0 1-.331.448c-.07.119-.138.214-.214.287-.14.137-.357.32-.675.327a.623.623 0 0 1-.201.21.993.993 0 0 1-.817.153c-.275-.07-.411-.242-.494-.345l-.111-.092c-.063-.034-.309-.076-.504-.108-.597-.1-1.472-.244-2.175-.786l-.11.035c.032.565.156 1.172.283 1.808.403 2.003.858 4.275-1.036 6.723-.082.1-.164.21-.242.329.246-.108.516-.265.927-.521.273-.197.58-.342.945-.453.95-.256 1.67-.032 2.211.645.2.235.367.542.5.938.216.613.216.919.216 1.502.087 1.564.492 2.567.921 3.625l.093.227c.185.426.277.64.404.859.226.404.497 1.004.253 1.534-.147.318-.441.537-.878.65-.756.643-1.265 1.405-1.675 2.084a.676.676 0 0 1-.56.312c-.381 0-.726-.342-.804-.808l-.163-1.268c-.104-.931.409-1.111.957-1.219l.127-.02c.58-.092.574-.117.547-.3a.777.777 0 0 1 .164-.634c-.004-.013-.013-.027-.02-.039l-.15-.332c-.196-.477-.411-.95-.625-1.423-.48-1.056-.973-2.144-1.252-3.27-.553.467-1.097.985-1.625 1.492-.865.83-1.76 1.689-2.746 2.353-.322.206-.524.444-.72.674-.26.308-.53.627-1.002.762-.283.092-.639.112-1.024.083.179.312.376.633.578.965.458.748.931 1.525 1.31 2.344.146.322.223.368.351.445.142.085.338.203.579.565.09.168.177.354.264.546.098.214.199.437.318.641.534.915 1.114 1.87 1.678 2.806l.95 1.566c.19.3.206.324.531.518.752.39 1.066.784 1.252 1.553l.046.199c.038.174.07.324.145.454.239.445.74.927 1.14 1.313.522.502.81.78.705 1.13-.023.087-.113.287-.476.35h-2.047c-.817-.05-1.005-.994-1.157-1.757-.022-.114-.072-.414-.112-.465-.02-.02-.119-.067-.198-.106l-.147-.07c-.441-.203-.539-.515-.617-.765-.03-.093-.06-.198-.128-.325-.19-.377-.577-.883-.92-1.33-.152-.201-.299-.393-.42-.563-1.055-1.502-2.482-3.453-4.16-5.183-.702-.698-1.264-1.17-2.139-1.807l-3.077-2.302c-.3-.296-.551-.73-.751-1.287l-.345-.107c-1.575-.601-3.965-.623-6.275-.642-1.819-.018-3.55-.034-4.972-.306-.665 1.485-1.639 2.609-2.583 3.696-.325.376-.65.748-.952 1.127-.088.112-.173.218-.257.322-.414.51-.608.774-.461 1.228.093.318.25.624.478.94.777 1.276 2.133 2.991 3.228 3.806.385.298.823.576 1.365.862.06.03.132.059.206.09.367.148.918.372.967.982 0 .1-.014.204-.026.31-.017.143-.032.276-.043.279.149.223.365.507.587.798.771 1.008 1.032 1.392.942 1.738a.548.548 0 0 1-.269.317.486.486 0 0 1-.172.035l-2.308-.032a.531.531 0 0 1-.441-.206c-.177-.238-.093-.516-.005-.809.063-.212.135-.448.135-.683 0-.184-.013-.283-.003-.315l-.101-.007a3.119 3.119 0 0 1-.272-.023c-.415-.07-.594-.366-.725-.586a1.483 1.483 0 0 0-.283-.372c-1.03-1.059-4.596-4.625-7.212-6.109a.431.431 0 0 1-.121-.103c-.742-.955-.162-1.938.35-2.809.099-.168.2-.34.291-.512l-.218.055-.205.05c-.09.022-.2.04-.314.062-.272.05-.779.144-.87.254-.092.133-.101.324-.115.547-.005.079-.008.159-.014.24l-.134 1.232c-.347 3.096-.15 5.262.598 6.603l.084.135c.168.264.27.447.228.916l-.022.12c-.027.138-.048.24-.012.388.038.195.05.209.267.42.442.403.8.841 1.09 1.215.183.233.49.625.308.995-.182.368-.668.368-.988.368h-1.37c-.133 0-.441 0-.663-.235-.153-.162-.22-.392-.198-.698l.093-.83c0-.403-.14-.608-.501-.714-.223-.075-.816-.269-.735-.797.06-1.04-.56-7.46-1.382-9.9-.26-.738-.226-1.536.087-2.125"/>
        <g transform="translate(0 56.119)">
            <mask id="b" fill="#fff">
                <use xlink:href="#a"/>
            </mask>
            <path fill="#1793EF" d="M9.98.31C4.476.31 0 4.77 0 10.25c0 3.557 1.33 6.722 3.743 8.913 2.378 2.157 5.708 3.297 9.63 3.297H543.02c3.921 0 7.251-1.14 9.631-3.297 2.412-2.19 3.742-5.357 3.742-8.913 0-5.481-4.478-9.94-9.982-9.94-4.496 0-8.153 3.644-8.153 8.122 0 1.025.233 2.017.694 2.948.74 1.49 2.262 2.999 3.744 2.999a2.631 2.631 0 0 0 2.635-2.624 2.633 2.633 0 0 0-3.735-2.385c-.36.163-.777.134-1.105-.08a1.137 1.137 0 0 1-.519-.975c.061-3.475 2.949-6.3 6.44-6.3 4.56 0 8.267 3.693 8.267 8.235 0 3.078-1.127 5.798-3.176 7.657-2.054 1.864-4.988 2.849-8.483 2.849H13.374c-3.497 0-6.43-.985-8.485-2.85-2.05-1.858-3.178-4.58-3.178-7.656 0-4.542 3.709-8.236 8.268-8.236 3.49 0 6.38 2.826 6.444 6.3.006.392-.19.76-.519.974-.33.217-.746.246-1.103.082-.35-.16-.72-.24-1.104-.24a2.634 2.634 0 0 0-2.636 2.625 2.633 2.633 0 0 0 2.636 2.624c1.482 0 3.004-1.508 3.743-3 .46-.927.694-1.918.694-2.947C18.134 3.954 14.476.31 9.98.31" mask="url(#b)"/>
        </g>
        <path fill="#1793EF" d="M410.398 35.689c-1.392 0-2.788.15-4.15.446-4.766 1.039-9.009 3.857-11.634 7.73-2.874 4.236-3.56 9.218-1.933 14.026a17.07 17.07 0 0 0 3.995 6.473c1.812 1.834 3.982 3.17 6.275 3.858 4.026 1.21 8.15.392 11.762-2.365a11.284 11.284 0 0 0 4.34-7.455c.566-4.07-1.133-8.167-4.33-10.438-1.353-.962-3.422-1.536-5.537-1.536-2.768 0-6.002 1.031-6.002 3.935 0 1.47 1.178 2.667 2.628 2.667 1.45 0 2.63-1.197 2.63-2.667 0-.268-.04-.53-.113-.778a1.171 1.171 0 0 1 .158-1.01c.206-.293.533-.472.886-.487l.29-.005c.345 0 .694.025 1.037.074 2.229.318 4.14 1.62 5.38 3.663 1.124 1.85 1.593 4.164 1.287 6.352a9.517 9.517 0 0 1-3.665 6.307c-3.153 2.41-6.785 3.14-10.276 2.091-2.016-.607-3.938-1.793-5.558-3.43a15.302 15.302 0 0 1-3.573-5.81c-1.451-4.288-.844-8.722 1.71-12.485 2.384-3.517 6.244-6.076 10.593-7.023 4.287-.93 8.784-.257 12.863 1.946 2.166 1.169 4.365 2.877 6.724 5.22 2.195 2.182 4.289 4.665 6.245 7.021l1.247 1.52c6.963 8.502 12.463 15.217 22.854 15.217 1.212 0 2.495-.093 3.818-.275 3.923-.542 6.408-1.717 9.49-4.495 1.051-.945 2.064-2.035 3.043-3.088 1.134-1.22 2.307-2.483 3.581-3.572 2.266-1.94 4.375-2.771 6.758-2.597a6.423 6.423 0 0 1 4.464 2.245 6.601 6.601 0 0 1 1.584 4.792 5.1 5.1 0 0 1-1.712 3.503 5.022 5.022 0 0 1-2.098 1.106 1.132 1.132 0 0 1-1.11-.334 1.178 1.178 0 0 1-.251-1.145c.083-.265.126-.54.126-.817 0-1.47-1.178-2.665-2.628-2.665-1.45 0-2.631 1.195-2.631 2.665 0 1.332 1.335 2.838 2.628 3.522a5.412 5.412 0 0 0 2.196.63c1.807.136 3.538-.479 4.884-1.671a6.825 6.825 0 0 0 2.295-4.683 8.35 8.35 0 0 0-2.01-6.036 8.122 8.122 0 0 0-5.626-2.835c-3.982-.269-6.605 1.518-9.367 4.299-.657.66-1.288 1.343-1.922 2.026-1.049 1.131-2.135 2.3-3.32 3.367a20.756 20.756 0 0 1-2.667 2.059 1.129 1.129 0 0 1-1.43-.172 1.168 1.168 0 0 1-.129-1.453c.607-.915 1.064-1.9 1.361-2.926 1.16-4.051-.447-7.399-2.002-9.493-1.445-1.945-3.55-3.205-5.923-3.545a8.884 8.884 0 0 0-6.642 1.742 7.435 7.435 0 0 0-2.585 3.693 7.784 7.784 0 0 0-.328 1.726c-.094 1.33.137 3.118 1.078 4.145.472.514 1.07.762 1.834.762 1.45 0 2.628-1.196 2.628-2.666 0-1.367-1.008-2.506-2.347-2.651a1.142 1.142 0 0 1-.884-.601 1.175 1.175 0 0 1-.01-1.08 5.64 5.64 0 0 1 1.627-1.954 7.236 7.236 0 0 1 5.4-1.41 7.206 7.206 0 0 1 4.797 2.864c1.897 2.557 2.494 5.321 1.728 7.993-.717 2.5-2.59 4.661-5.139 5.932-1.507.752-3.09 1.133-4.705 1.133-7.653.002-14.448-8.294-19.407-14.352l-1.256-1.525c-1.998-2.41-4.133-4.945-6.347-7.145-2.468-2.453-4.796-4.255-7.115-5.51-3.153-1.702-6.47-2.565-9.862-2.565M147.914 46.427c-2.115 0-4.185.574-5.537 1.536-3.196 2.27-4.896 6.368-4.33 10.439a11.275 11.275 0 0 0 4.34 7.455c3.612 2.756 7.734 3.575 11.76 2.366 2.294-.69 4.464-2.025 6.276-3.86a17.08 17.08 0 0 0 3.997-6.474c1.626-4.808.939-9.79-1.933-14.025-2.628-3.874-6.87-6.693-11.637-7.73-4.668-1.018-9.56-.283-14.008 2.12-2.32 1.254-4.65 3.056-7.119 5.51-2.2 2.186-4.339 4.728-6.344 7.143l-1.255 1.524c-4.96 6.057-11.755 14.356-19.41 14.356-1.616 0-3.2-.382-4.707-1.134-2.546-1.27-4.418-3.431-5.137-5.93-.765-2.674-.168-5.438 1.728-7.993a7.202 7.202 0 0 1 4.795-2.866 7.23 7.23 0 0 1 5.404 1.411 5.65 5.65 0 0 1 1.626 1.953c.172.34.167.743-.01 1.08-.18.335-.511.56-.886.6-1.338.146-2.346 1.285-2.346 2.652 0 1.47 1.179 2.666 2.628 2.666.763 0 1.363-.25 1.833-.764.941-1.024 1.174-2.812 1.078-4.144a7.582 7.582 0 0 0-.329-1.727 7.4 7.4 0 0 0-2.583-3.692 8.859 8.859 0 0 0-6.642-1.742 8.904 8.904 0 0 0-5.923 3.546c-1.553 2.095-3.161 5.444-2 9.493.295 1.025.751 2.009 1.36 2.926a1.17 1.17 0 0 1-.128 1.453 1.131 1.131 0 0 1-1.43.172 20.558 20.558 0 0 1-2.667-2.059c-1.188-1.068-2.276-2.24-3.328-3.374a82.134 82.134 0 0 0-1.916-2.02c-2.759-2.78-5.38-4.573-9.366-4.298a8.121 8.121 0 0 0-5.626 2.835 8.342 8.342 0 0 0-2.01 6.036 6.83 6.83 0 0 0 2.294 4.683 6.661 6.661 0 0 0 4.883 1.673 5.459 5.459 0 0 0 2.198-.632c1.292-.686 2.627-2.19 2.627-3.522 0-1.47-1.18-2.665-2.63-2.665-1.448 0-2.628 1.195-2.628 2.665 0 .28.043.554.127.82a1.17 1.17 0 0 1-.255 1.142 1.126 1.126 0 0 1-1.107.334 5.003 5.003 0 0 1-2.098-1.106 5.095 5.095 0 0 1-1.713-3.505 6.62 6.62 0 0 1 1.584-4.79 6.443 6.443 0 0 1 4.464-2.246c2.385-.161 4.493.657 6.76 2.598 1.27 1.089 2.443 2.349 3.577 3.569.98 1.054 1.993 2.145 3.045 3.091 3.085 2.778 5.569 3.953 9.49 4.495 1.323.182 2.608.275 3.818.275 10.39 0 15.89-6.717 22.855-15.219.481-.587.955-1.164 1.25-1.52 1.953-2.354 4.044-4.836 6.244-7.02 2.356-2.343 4.556-4.05 6.723-5.22 4.076-2.203 8.577-2.878 12.863-1.945 4.347.946 8.207 3.505 10.591 7.022 2.554 3.765 3.161 8.198 1.712 12.486a15.295 15.295 0 0 1-3.576 5.81c-1.615 1.636-3.537 2.823-5.557 3.43-3.484 1.047-7.12.318-10.275-2.09a9.536 9.536 0 0 1-3.668-6.308c-.303-2.19.166-4.505 1.29-6.353 1.24-2.044 3.152-3.344 5.38-3.663a7.27 7.27 0 0 1 1.038-.074l.287.005c.354.014.681.195.885.486.206.292.265.664.163 1.007a2.745 2.745 0 0 0-.116.783c0 1.47 1.18 2.667 2.63 2.667s2.628-1.197 2.628-2.667c0-2.906-3.233-3.936-6-3.936"/>
        <text fill="#3F3F3F" font-family="Inter" font-size="36" font-weight="bold" letter-spacing="14.4" transform="translate(0 -83)">
            <tspan x="191.004" y="207">HAPP</tspan> <tspan x="344.256" y="207" letter-spacing="11.52">Y</tspan>
        </text>
        <path fill="url(#c)" d="M61.568 302.678v-30.84H26.713v30.84H11v-73.466h15.713v28.858h34.855v-28.858h15.823v73.466H61.568zM126.853 304c-5.533 0-10.66-.936-15.38-2.809-4.722-1.872-8.798-4.497-12.228-7.875-3.43-3.378-6.104-7.398-8.022-12.06-1.918-4.664-2.877-9.749-2.877-15.256s.959-10.592 2.877-15.255c1.918-4.663 4.592-8.683 8.022-12.06 3.43-3.379 7.506-6.004 12.227-7.876 4.722-1.873 9.848-2.809 15.381-2.809 5.606 0 10.77.936 15.491 2.809 4.722 1.872 8.797 4.497 12.227 7.875 3.43 3.378 6.105 7.398 8.023 12.06 1.918 4.664 2.877 9.749 2.877 15.256s-.96 10.592-2.877 15.255c-1.918 4.663-4.592 8.683-8.023 12.06-3.43 3.379-7.505 6.004-12.227 7.876-4.72 1.873-9.885 2.809-15.491 2.809zm0-13.878c3.393 0 6.473-.624 9.24-1.873 2.766-1.248 5.126-2.937 7.081-5.066 1.955-2.13 3.467-4.663 4.537-7.6 1.07-2.938 1.604-6.132 1.604-9.583 0-3.451-.534-6.645-1.604-9.583-1.07-2.937-2.582-5.488-4.537-7.655-1.955-2.166-4.315-3.855-7.082-5.066-2.766-1.212-5.846-1.818-9.239-1.818-3.393 0-6.473.606-9.24 1.818-2.766 1.211-5.108 2.9-7.026 5.066-1.918 2.167-3.412 4.718-4.481 7.655-1.07 2.938-1.605 6.132-1.605 9.583 0 3.451.535 6.645 1.605 9.583 1.07 2.937 2.563 5.47 4.481 7.6 1.918 2.13 4.26 3.818 7.027 5.066 2.766 1.249 5.846 1.873 9.239 1.873zm49.683 12.556v-73.466h15.713v59.698h31.204v13.768h-46.917zm57.871 0v-73.466h15.713v73.466h-15.713zm30.319 0v-73.466h29.101c5.754 0 11.047.88 15.879 2.643 4.832 1.762 8.963 4.24 12.393 7.435 3.43 3.194 6.104 7.067 8.022 11.62 1.918 4.553 2.877 9.583 2.877 15.09s-.959 10.519-2.877 15.035c-1.918 4.516-4.592 8.37-8.022 11.565-3.43 3.194-7.561 5.672-12.393 7.435-4.832 1.762-10.125 2.643-15.879 2.643h-29.101zm29.101-13.768c3.615 0 6.86-.606 9.738-1.817 2.877-1.212 5.311-2.864 7.303-4.957s3.504-4.534 4.537-7.324c1.032-2.79 1.549-5.728 1.549-8.812 0-3.23-.498-6.26-1.494-9.087s-2.453-5.269-4.37-7.325c-1.919-2.056-4.335-3.671-7.249-4.846-2.913-1.175-6.251-1.762-10.014-1.762h-13.389v45.93h13.39zm101.247 13.768l-4.536-12.446H358.89l-4.647 12.446h-17.926l28.548-73.466h19.696L413 302.678h-17.926zm-20.36-57.826l-11.508 31.612h23.016l-11.508-31.612zm65.728 57.826v-30.07l-28.438-43.396h17.926l18.368 29.518 18.147-29.518h17.926l-28.217 43.397v30.07h-15.712zM517.456 304c-7.156 0-13.278-1.065-18.368-3.194-5.09-2.13-9.369-4.957-12.836-8.481l8.52-11.896c2.582 2.717 5.865 5.048 9.848 6.994 3.984 1.946 8.52 2.919 13.61 2.919 4.353 0 7.58-.826 9.682-2.478 2.103-1.652 3.154-3.543 3.154-5.673s-1.051-3.763-3.154-4.901c-2.102-1.138-4.72-2.111-7.856-2.919a600.247 600.247 0 0 0-10.235-2.533c-3.689-.881-7.1-2.13-10.236-3.745-3.135-1.616-5.753-3.8-7.856-6.554-2.102-2.754-3.153-6.443-3.153-11.07 0-3.084.645-5.966 1.936-8.646 1.29-2.68 3.135-5.048 5.533-7.104 2.397-2.056 5.33-3.672 8.796-4.847 3.468-1.174 7.377-1.762 11.73-1.762 11.729 0 21.319 3.415 28.77 10.244l-8.742 11.455c-3.025-2.79-6.418-4.828-10.18-6.113-3.763-1.285-7.525-1.928-11.287-1.928-3.393 0-5.994.68-7.8 2.038-1.808 1.358-2.712 3.139-2.712 5.342 0 1.909 1.051 3.396 3.154 4.46 2.102 1.065 4.72 1.983 7.856 2.754 3.135.771 6.529 1.616 10.18 2.534 3.652.918 7.045 2.203 10.18 3.855 3.135 1.652 5.754 3.873 7.856 6.663 2.103 2.79 3.154 6.462 3.154 11.015 0 3.378-.609 6.499-1.826 9.362-1.217 2.864-3.043 5.342-5.477 7.435s-5.514 3.745-9.24 4.957c-3.725 1.211-8.059 1.817-13.001 1.817z" transform="translate(0 -83)"/>
    </g>
</svg>
