<svg xmlns="http://www.w3.org/2000/svg" xmlns:xlink="http://www.w3.org/1999/xlink" width="557" height="426" viewBox="0 0 557 426">
    <defs>
        <path id="a" d="M.62.894h99.782V34.05H.62z"/>
        <path id="c" d="M0 .31h556.393v22.15H0z"/>
        <linearGradient id="e" x1="50%" x2="50%" y1="0%" y2="100%">
            <stop offset="0%" stop-color="#C4810F"/>
            <stop offset="100%" stop-color="#ECA328"/>
        </linearGradient>
    </defs>
    <g fill="none" fill-rule="evenodd">
        <g transform="translate(0 -83)">
            <path fill="#1893EF" d="M539.642 183.699c-2.124 0-3.846 1.742-3.846 3.891 0 2.15 1.722 3.891 3.846 3.891s3.846-1.74 3.846-3.891c0-2.149-1.722-3.891-3.846-3.891m-13.318 0c-2.124 0-3.845 1.742-3.845 3.891 0 2.15 1.72 3.891 3.845 3.891 2.124 0 3.846-1.74 3.846-3.891 0-2.149-1.722-3.891-3.846-3.891m-13.317 0c-2.125 0-3.846 1.742-3.846 3.891 0 2.15 1.72 3.891 3.846 3.891 2.123 0 3.847-1.74 3.847-3.891 0-2.149-1.724-3.891-3.847-3.891m-13.32 0c-2.123 0-3.844 1.742-3.844 3.891 0 2.15 1.72 3.891 3.845 3.891s3.846-1.74 3.846-3.891c0-2.149-1.72-3.891-3.846-3.891m-428.959 0c-2.122 0-3.846 1.742-3.846 3.891 0 2.15 1.724 3.891 3.846 3.891 2.124 0 3.846-1.74 3.846-3.891 0-2.149-1.722-3.891-3.846-3.891m-13.318 0c-2.124 0-3.847 1.742-3.847 3.891 0 2.15 1.723 3.891 3.847 3.891 2.124 0 3.846-1.74 3.846-3.891 0-2.149-1.722-3.891-3.846-3.891m-13.318 0c-2.124 0-3.845 1.742-3.845 3.891 0 2.15 1.72 3.891 3.845 3.891 2.124 0 3.846-1.74 3.846-3.891 0-2.149-1.722-3.891-3.846-3.891m-13.318 0c-2.124 0-3.845 1.742-3.845 3.891 0 2.15 1.72 3.891 3.845 3.891s3.846-1.74 3.846-3.891c0-2.149-1.72-3.891-3.846-3.891m-13.319 0c-2.122 0-3.844 1.742-3.844 3.891 0 2.15 1.722 3.891 3.844 3.891 2.126 0 3.847-1.74 3.847-3.891 0-2.149-1.721-3.891-3.847-3.891m468.913 0c-2.122 0-3.843 1.742-3.843 3.891 0 2.15 1.721 3.891 3.843 3.891 2.126 0 3.847-1.74 3.847-3.891 0-2.149-1.721-3.891-3.847-3.891"/>
            <path fill="#1591ED" d="M71.518 349.2c-2.123 0-3.847-1.744-3.847-3.893s1.724-3.89 3.847-3.89c2.124 0 3.846 1.741 3.846 3.89s-1.722 3.893-3.846 3.893m-13.319 0c-2.124 0-3.846-1.744-3.846-3.893s1.722-3.89 3.846-3.89 3.847 1.741 3.847 3.89-1.723 3.893-3.847 3.893m-13.318 0c-2.124 0-3.845-1.744-3.845-3.893s1.721-3.89 3.845-3.89 3.847 1.741 3.847 3.89-1.723 3.893-3.847 3.893m-13.318 0c-2.124 0-3.845-1.744-3.845-3.893s1.721-3.89 3.845-3.89c2.126 0 3.846 1.741 3.846 3.89s-1.72 3.893-3.846 3.893m-13.318 0c-2.123 0-3.845-1.744-3.845-3.893s1.722-3.89 3.845-3.89c2.125 0 3.846 1.741 3.846 3.89s-1.72 3.893-3.846 3.893M486.261 349.2c2.131 0 3.862-1.815 3.862-4.052 0-2.236-1.731-4.048-3.862-4.048-2.132 0-3.861 1.812-3.861 4.048 0 2.237 1.73 4.052 3.861 4.052m13.37 0c2.132 0 3.861-1.815 3.861-4.052 0-2.236-1.729-4.048-3.861-4.048s-3.861 1.812-3.861 4.048c0 2.237 1.729 4.052 3.861 4.052m13.37 0c2.132 0 3.86-1.815 3.86-4.052 0-2.236-1.728-4.048-3.86-4.048-2.132 0-3.862 1.812-3.862 4.048 0 2.237 1.73 4.052 3.862 4.052m13.37 0c2.132 0 3.86-1.815 3.86-4.052 0-2.236-1.728-4.048-3.86-4.048-2.134 0-3.862 1.812-3.862 4.048 0 2.237 1.728 4.052 3.861 4.052m13.37 0c2.13 0 3.86-1.815 3.86-4.052 0-2.236-1.73-4.048-3.86-4.048-2.134 0-3.861 1.812-3.861 4.048 0 2.237 1.727 4.052 3.861 4.052"/>
            <path fill="#1793EF" d="M276.922 84.373c-3.053 6.206-7.026 11.79-11.907 16.98a1.232 1.232 0 0 0-.306 1.177c.111.433.409.753.833.892 1.118.37 2.328.68 3.6.934a.373.373 0 0 1 .278.227.372.372 0 0 1-.035.356c-3.697 5.527-7.934 10.744-12.707 15.73-.307.319-.42.734-.32 1.163.101.429.387.751.802.903 2.024.742 4.268 1.353 6.656 1.835.129.024.23.11.278.232a.367.367 0 0 1-.043.359c-4.674 6.619-9.932 12.915-15.77 18.967a1.23 1.23 0 0 0-.324 1.153c.096.428.375.75.784.908 15.985 6.138 42.662 6.138 58.647 0 .407-.158.688-.48.784-.908a1.238 1.238 0 0 0-.326-1.154c-5.838-6.051-11.094-12.347-15.769-18.966a.367.367 0 0 1-.044-.36.367.367 0 0 1 .28-.231c2.386-.482 4.632-1.093 6.657-1.835.412-.152.698-.474.798-.903a1.227 1.227 0 0 0-.319-1.162c-4.772-4.987-9.01-10.204-12.705-15.73a.365.365 0 0 1-.037-.357.375.375 0 0 1 .28-.227 30.243 30.243 0 0 0 3.597-.934c.425-.14.723-.457.834-.892.11-.43.001-.853-.306-1.178-4.88-5.19-8.853-10.773-11.907-16.979a1.242 1.242 0 0 0-1.141-.707c-.496 0-.923.263-1.142.707M355.582 135.494c-.326-.65-.842-.84-1.34-1.022l-.2-.073c-1.08-.463-2.623-1.19-3.555-2.148-.218-.215-.304-.333-.055-.857.101-.205.226-.415.356-.64.162-.272.33-.563.49-.876.555-1.068 1.07-2.23 1.231-3.416.053 1.226.157 2.589 1.477 3.439.07.045.162.07.232.065.201.003.418-.178.418-.405a.41.41 0 0 0-.038-.166c-.003-.244.107-.63.222-1.034.17-.599.383-1.344.383-2.137-.046-2.48-1.572-4.017-4.099-4.142-1.704-1.856-4.882-2.854-7.067-2.854l-.103.002c-2.191.027-4.246.35-6.236.66-2.496.39-5.037.796-7.987.633l-.179-.003c-.687 0-1.182.157-1.545.272-.218.07-.39.124-.525.124h-.002c-.075 0-.224-.003-.489-.283-.264-.306-.262-.524-.26-.95v-.114c0-.047-.028-4.513-2.458-7.388.56-.49.945-1.109 1.226-1.946.089-.235.36-.954-.12-1.293-.312-.256-.949-.105-1.482.093a7.2 7.2 0 0 0-1.084.514c.061-.1.12-.206.176-.315a10 10 0 0 0 .55-1.057c.232-.559.435-1.165.61-1.832.068-.402.101-.735.136-1.145a6.373 6.373 0 0 0-.181-1.86c-.23-.716-.599-1.363-1.048-1.841-.395-.501-.823-.82-1.044-.943a.581.581 0 0 0-.124-.093.382.382 0 0 0-.107-.079c-.258-.127-.365-.18-.5-.18a.42.42 0 0 0-.3.129h-.003a.435.435 0 0 0-.12.33c.016.195.14.345.48.595l.12.117c.207.2.463.451.728.813.215.28.504.734.682 1.366-.3-.199-.576-.394-.771-.59-.182-.155-.263-.33-.34-.5l-.074-.185c-.062-.192-.156-.48-.476-.48-.475 0-.475.57-.47.813.031.245.14.72.477 1.139.277.333.628.595.998.875l.2.151c.152.125.322.265.401.418.135.22.145.418.078.7a4.725 4.725 0 0 0-.444-.576 4.089 4.089 0 0 0-2.257-1.19 5.11 5.11 0 0 0-1.674.037c-.745.148-.848.383-.848.592 0 .222.246.418.472.418l.147-.005a6.24 6.24 0 0 1 .383-.012 3.94 3.94 0 0 1 1.278.083c.373.108.692.246.966.42-.057.018-.115.035-.172.051-.192.058-.364.112-.552.133-.274.049-.466.006-.608-.022-.185-.041-.388-.026-.525.107l-.002-.003a.609.609 0 0 0-.073.103l.001.002a.473.473 0 0 0-.042.293.619.619 0 0 0 .39.426c.158.094.492.253.96.253.27 0 .534-.053.813-.108l.263-.054c.075 0 .15-.005.225-.008l.158-.007.127.012c.049.006.07.007.153.22.238.664.148.869-.203 1.479-.153.27-.342.52-.518.752l-.286.344c-.132-.298-.296-.506-.438-.69a.397.397 0 0 0-.08-.08c-.3-.223-.613-.238-.795-.06a.398.398 0 0 0-.098.41s.039.123.123.288c.06.12.142.28.195.494.04.162.028.368-.038.698l-.043.174c-.029.115-.06.24-.084.377-.006.018-.01.037-.015.055-.255.098-.41.265-.553.413a1.7 1.7 0 0 1-.3.27c-.375.239-.653.401-.87.528-.27.158-.458.27-.572.365-.287.158-.378.415-.46.665-.067.19-.15.427-.336.74-.539.42-.994.924-1.44 1.413-.367.405-.748.822-1.072 1.12-.406.198-.673.455-.796.746-.158.283-.201.583-.119.846a.855.855 0 0 0 .332.448c.07.119.139.214.213.287.14.137.36.32.675.327.05.09.126.157.202.21.257.17.525.224.817.153a.869.869 0 0 0 .492-.345l.111-.092c.063-.034.309-.076.504-.108.599-.1 1.475-.244 2.175-.786l.111.035c-.032.565-.154 1.172-.284 1.808-.4 2.003-.858 4.275 1.037 6.723.082.1.163.21.243.329-.245-.108-.516-.265-.927-.521a3.137 3.137 0 0 0-.945-.453c-.952-.256-1.671-.032-2.21.645-.202.235-.367.542-.5.938-.22.613-.22.919-.22 1.502-.083 1.564-.49 2.567-.92 3.625l-.092.227c-.185.426-.276.64-.405.859-.222.404-.497 1.004-.253 1.534.147.318.441.537.881.65.753.643 1.263 1.405 1.672 2.084a.68.68 0 0 0 .56.312c.384 0 .728-.342.806-.808l.164-1.268c.101-.931-.412-1.111-.959-1.219l-.128-.02c-.577-.092-.573-.117-.547-.3a.775.775 0 0 0-.163-.634c.005-.013.014-.027.018-.039l.153-.332c.196-.477.41-.95.625-1.423.48-1.056.972-2.144 1.252-3.27.553.467 1.096.985 1.625 1.492.866.83 1.759 1.689 2.747 2.353.322.206.524.444.718.674.26.308.53.627 1.003.762.283.092.64.112 1.023.083-.18.312-.375.633-.577.965-.458.748-.932 1.525-1.309 2.344-.148.322-.224.368-.351.445-.144.085-.338.203-.58.565a8.375 8.375 0 0 0-.265.546c-.097.214-.197.437-.317.641-.536.915-1.115 1.87-1.678 2.806l-.952 1.566c-.19.3-.206.324-.53.518-.751.39-1.067.784-1.25 1.553l-.048.199a1.576 1.576 0 0 1-.145.454c-.24.445-.739.927-1.139 1.313-.524.502-.81.78-.706 1.13.023.087.113.287.478.35h2.045c.816-.05 1.005-.994 1.16-1.757.02-.114.07-.414.11-.465.018-.02.118-.067.198-.106l.145-.07c.441-.203.54-.515.62-.765a1.55 1.55 0 0 1 .128-.325c.188-.377.574-.883.916-1.33.156-.201.3-.393.422-.563 1.057-1.502 2.483-3.453 4.16-5.183a16.297 16.297 0 0 1 2.14-1.807l3.075-2.302c.3-.296.553-.73.751-1.287l.345-.107c1.576-.601 3.964-.623 6.275-.642 1.822-.018 3.55-.034 4.972-.306.666 1.485 1.64 2.609 2.586 3.696.323.376.647.748.953 1.127.085.112.172.218.256.322.414.51.606.774.46 1.228a3.1 3.1 0 0 1-.477.94c-.779 1.276-2.135 2.991-3.23 3.806a9.13 9.13 0 0 1-1.365.862c-.058.03-.133.059-.206.09-.366.148-.92.372-.965.982 0 .1.012.204.024.31.019.143.032.276.043.279-.148.223-.366.507-.586.798-.771 1.008-1.033 1.392-.944 1.738a.562.562 0 0 0 .27.317.485.485 0 0 0 .171.035l2.31-.032c.248 0 .381-.129.44-.206.176-.238.095-.516.007-.809-.066-.212-.138-.448-.138-.683 0-.184.014-.283.003-.315l.103-.007c.074-.003.163-.01.271-.023.417-.07.596-.366.724-.586.078-.127.15-.248.284-.372 1.033-1.059 4.595-4.625 7.211-6.109a.376.376 0 0 0 .121-.103c.744-.955.165-1.938-.347-2.809-.102-.168-.2-.34-.291-.512l.218.055.205.05c.09.022.2.04.311.062.274.05.78.144.872.254.093.133.1.324.113.547.005.079.01.159.017.24l.131 1.232c.348 3.096.151 5.262-.597 6.603l-.084.135c-.17.264-.269.447-.229.916l.023.12c.028.138.047.24.012.388-.038.195-.05.209-.267.42-.441.403-.802.841-1.09 1.215-.182.233-.489.625-.306.995.18.368.668.368.987.368h1.371c.13 0 .44 0 .663-.235.151-.162.22-.392.197-.698l-.095-.83c0-.403.142-.608.503-.714.221-.075.814-.269.734-.797-.061-1.04.56-7.46 1.38-9.9.263-.738.228-1.536-.086-2.125m-155.038 0c.327-.65.843-.84 1.343-1.022l.197-.073c1.08-.463 2.625-1.19 3.556-2.148.219-.215.306-.333.057-.857-.104-.205-.228-.415-.359-.64-.159-.272-.33-.563-.487-.876-.558-1.068-1.07-2.23-1.231-3.416-.057 1.226-.159 2.589-1.48 3.439a.4.4 0 0 1-.23.065c-.202.003-.419-.178-.419-.405 0-.059.014-.115.037-.166.006-.244-.104-.63-.22-1.034-.171-.599-.382-1.344-.382-2.137.043-2.48 1.572-4.017 4.097-4.142 1.703-1.856 4.883-2.854 7.066-2.854l.104.002c2.19.027 4.247.35 6.237.66 2.495.39 5.038.796 7.987.633l.18-.003c.684 0 1.18.157 1.542.272.218.07.391.124.528.124.074 0 .223-.003.49-.283.263-.306.262-.524.262-.95l-.002-.114c0-.047.028-4.513 2.456-7.388-.556-.49-.942-1.109-1.223-1.946-.09-.235-.362-.954.119-1.293.311-.256.948-.105 1.481.093.386.144.748.32 1.083.514a5.137 5.137 0 0 1-.174-.315 10.015 10.015 0 0 1-.549-1.057 14.111 14.111 0 0 1-.613-1.832 14.112 14.112 0 0 1-.135-1.145 6.376 6.376 0 0 1 .183-1.86c.228-.716.596-1.363 1.046-1.841.396-.501.824-.82 1.043-.943a.636.636 0 0 1 .126-.093.389.389 0 0 1 .108-.079c.257-.127.365-.18.498-.18a.42.42 0 0 1 .3.129h.002a.43.43 0 0 1 .12.33c-.014.195-.138.345-.48.595l-.12.117c-.207.2-.463.451-.728.813-.215.28-.504.734-.682 1.366.302-.199.577-.394.774-.59.179-.155.26-.33.339-.5l.072-.185c.062-.192.157-.48.478-.48.475 0 .475.57.469.813-.032.245-.14.72-.478 1.139-.275.333-.626.595-.995.875l-.201.151c-.151.125-.322.265-.403.418-.135.22-.144.418-.078.7.13-.198.28-.39.446-.576a4.089 4.089 0 0 1 2.257-1.19 5.11 5.11 0 0 1 1.674.037c.746.148.847.383.847.592 0 .222-.247.418-.472.418l-.146-.005a6.24 6.24 0 0 0-.384-.012 3.95 3.95 0 0 0-1.28.083 3.645 3.645 0 0 0-.963.42c.056.018.115.035.171.051.192.058.365.112.553.133.273.049.467.006.606-.022.188-.041.388-.026.527.107v-.003l.043.052c.012.018.024.035.033.051l-.001.002c.043.09.06.201.043.293a.622.622 0 0 1-.391.426 1.888 1.888 0 0 1-.961.253c-.272 0-.534-.053-.815-.108l-.262-.054c-.074 0-.15-.005-.223-.008l-.16-.007-.127.012c-.048.006-.07.007-.152.22-.239.664-.15.869.204 1.479.151.27.34.52.518.752l.284.344c.133-.298.295-.506.437-.69a.441.441 0 0 1 .08-.08c.3-.223.616-.238.796-.06a.398.398 0 0 1 .098.41s-.038.123-.122.288c-.06.12-.144.28-.196.494-.04.162-.027.368.039.698l.042.174c.03.115.061.24.084.377l.017.055c.252.098.41.265.55.413.095.099.185.193.3.27.376.239.653.401.871.528.272.158.457.27.573.365.287.158.377.415.461.665.066.19.147.427.336.74.536.42.994.924 1.437 1.413.37.405.748.822 1.077 1.12.403.198.668.455.794.746.155.283.198.583.117.846a.863.863 0 0 1-.331.448c-.07.119-.138.214-.214.287-.14.137-.357.32-.675.327a.623.623 0 0 1-.201.21.993.993 0 0 1-.817.153c-.275-.07-.411-.242-.494-.345l-.111-.092c-.063-.034-.309-.076-.504-.108-.597-.1-1.472-.244-2.175-.786l-.11.035c.032.565.156 1.172.283 1.808.403 2.003.858 4.275-1.036 6.723-.082.1-.164.21-.242.329.246-.108.516-.265.927-.521.273-.197.58-.342.945-.453.95-.256 1.67-.032 2.211.645.2.235.367.542.5.938.216.613.216.919.216 1.502.087 1.564.492 2.567.921 3.625l.093.227c.185.426.277.64.404.859.226.404.497 1.004.253 1.534-.147.318-.441.537-.878.65-.756.643-1.265 1.405-1.675 2.084a.676.676 0 0 1-.56.312c-.381 0-.726-.342-.804-.808l-.163-1.268c-.104-.931.409-1.111.957-1.219l.127-.02c.58-.092.574-.117.547-.3a.777.777 0 0 1 .164-.634c-.004-.013-.013-.027-.02-.039l-.15-.332c-.196-.477-.411-.95-.625-1.423-.48-1.056-.973-2.144-1.252-3.27-.553.467-1.097.985-1.625 1.492-.865.83-1.76 1.689-2.746 2.353-.322.206-.524.444-.72.674-.26.308-.53.627-1.002.762-.283.092-.639.112-1.024.083.179.312.376.633.578.965.458.748.931 1.525 1.31 2.344.146.322.223.368.351.445.142.085.338.203.579.565.09.168.177.354.264.546.098.214.199.437.318.641.534.915 1.114 1.87 1.678 2.806l.95 1.566c.19.3.206.324.531.518.752.39 1.066.784 1.252 1.553l.046.199c.038.174.07.324.145.454.239.445.74.927 1.14 1.313.522.502.81.78.705 1.13-.023.087-.113.287-.476.35h-2.047c-.817-.05-1.005-.994-1.157-1.757-.022-.114-.072-.414-.112-.465-.02-.02-.119-.067-.198-.106l-.147-.07c-.441-.203-.539-.515-.617-.765-.03-.093-.06-.198-.128-.325-.19-.377-.577-.883-.92-1.33-.152-.201-.299-.393-.42-.563-1.055-1.502-2.482-3.453-4.16-5.183-.702-.698-1.264-1.17-2.139-1.807l-3.077-2.302c-.3-.296-.551-.73-.751-1.287l-.345-.107c-1.575-.601-3.965-.623-6.275-.642-1.819-.018-3.55-.034-4.972-.306-.665 1.485-1.639 2.609-2.583 3.696-.325.376-.65.748-.952 1.127-.088.112-.173.218-.257.322-.414.51-.608.774-.461 1.228.093.318.25.624.478.94.777 1.276 2.133 2.991 3.228 3.806.385.298.823.576 1.365.862.06.03.132.059.206.09.367.148.918.372.967.982 0 .1-.014.204-.026.31-.017.143-.032.276-.043.279.149.223.365.507.587.798.771 1.008 1.032 1.392.942 1.738a.548.548 0 0 1-.269.317.486.486 0 0 1-.172.035l-2.308-.032a.531.531 0 0 1-.441-.206c-.177-.238-.093-.516-.005-.809.063-.212.135-.448.135-.683 0-.184-.013-.283-.003-.315l-.101-.007a3.119 3.119 0 0 1-.272-.023c-.415-.07-.594-.366-.725-.586a1.483 1.483 0 0 0-.283-.372c-1.03-1.059-4.596-4.625-7.212-6.109a.431.431 0 0 1-.121-.103c-.742-.955-.162-1.938.35-2.809.099-.168.2-.34.291-.512l-.218.055-.205.05c-.09.022-.2.04-.314.062-.272.05-.779.144-.87.254-.092.133-.101.324-.115.547-.005.079-.008.159-.014.24l-.134 1.232c-.347 3.096-.15 5.262.598 6.603l.084.135c.168.264.27.447.228.916l-.022.12c-.027.138-.048.24-.012.388.038.195.05.209.267.42.442.403.8.841 1.09 1.215.183.233.49.625.308.995-.182.368-.668.368-.988.368h-1.37c-.133 0-.441 0-.663-.235-.153-.162-.22-.392-.198-.698l.093-.83c0-.403-.14-.608-.501-.714-.223-.075-.816-.269-.735-.797.06-1.04-.56-7.46-1.382-9.9-.26-.738-.226-1.536.087-2.125"/>
            <g transform="translate(390.845 370.95)">
                <mask id="b" fill="#fff">
                    <use xlink:href="#a"/>
                </mask>
                <path fill="#1591ED" d="M15.495.894c-1.224 0-2.46.183-3.671.546-2.31.692-4.494 2.03-6.315 3.87a17.113 17.113 0 0 0-4.02 6.486c-1.638 4.82-.947 9.813 1.946 14.06 2.642 3.885 6.91 6.708 11.707 7.746 4.7 1.023 9.621.285 14.097-2.123 2.33-1.256 4.672-3.062 7.16-5.524 2.228-2.206 4.376-4.746 6.384-7.158.495-.593.852-1.031 1.227-1.49C49.037 11.197 55.873 2.88 63.573 2.88c1.625 0 3.219.382 4.737 1.137 2.563 1.273 4.447 3.44 5.169 5.944.772 2.68.17 5.45-1.74 8.01a7.236 7.236 0 0 1-4.825 2.873 7.326 7.326 0 0 1-5.434-1.411 5.675 5.675 0 0 1-1.638-1.963 1.17 1.17 0 0 1 .011-1.08 1.15 1.15 0 0 1 .889-.604 2.657 2.657 0 0 0 2.362-2.657c0-1.474-1.186-2.672-2.643-2.672-.767 0-1.37.251-1.846.766-.947 1.028-1.18 2.82-1.084 4.153.044.59.154 1.173.329 1.734a7.434 7.434 0 0 0 2.603 3.697 8.946 8.946 0 0 0 6.681 1.747 8.984 8.984 0 0 0 5.961-3.553c1.563-2.097 3.18-5.453 2.012-9.517a10.575 10.575 0 0 0-1.368-2.932 1.167 1.167 0 0 1 .13-1.456 1.139 1.139 0 0 1 1.438-.172A20.788 20.788 0 0 1 78 6.99c1.194 1.068 2.287 2.243 3.344 3.376a82.828 82.828 0 0 0 1.93 2.027c2.778 2.787 5.4 4.584 9.427 4.309a8.167 8.167 0 0 0 5.66-2.842 8.343 8.343 0 0 0 2.022-6.048 6.822 6.822 0 0 0-2.309-4.693 6.712 6.712 0 0 0-4.913-1.676 5.478 5.478 0 0 0-2.212.631c-1.3.686-2.643 2.193-2.643 3.53 0 1.473 1.189 2.674 2.647 2.674 1.459 0 2.645-1.201 2.645-2.675 0-.28-.042-.552-.127-.814-.128-.4-.031-.84.252-1.15.285-.308.711-.44 1.114-.336A5.058 5.058 0 0 1 96.95 4.41a5.1 5.1 0 0 1 1.723 3.512 6.61 6.61 0 0 1-1.593 4.804 6.484 6.484 0 0 1-4.492 2.25c-2.411.177-4.52-.66-6.8-2.604-1.281-1.091-2.461-2.356-3.602-3.58-.986-1.056-2.003-2.148-3.061-3.095-3.103-2.783-5.602-3.963-9.55-4.506a28.39 28.39 0 0 0-3.842-.274c-10.453 0-15.988 6.73-22.994 15.251l-1.253 1.523c-1.97 2.364-4.077 4.85-6.288 7.038-2.37 2.348-4.582 4.058-6.764 5.233-4.101 2.208-8.628 2.886-12.942 1.95-4.374-.947-8.26-3.513-10.659-7.04-2.569-3.77-3.18-8.216-1.72-12.514A15.335 15.335 0 0 1 6.71 6.535c1.63-1.645 3.564-2.833 5.59-3.439 3.507-1.049 7.164-.318 10.34 2.093a9.556 9.556 0 0 1 3.69 6.325c.306 2.194-.166 4.515-1.295 6.37-1.25 2.047-3.173 3.352-5.416 3.67a7.356 7.356 0 0 1-1.033.073l-.302-.006a1.147 1.147 0 0 1-.891-.489 1.165 1.165 0 0 1-.16-1.012c.076-.248.114-.51.114-.777 0-1.474-1.186-2.675-2.646-2.675-1.458 0-2.644 1.201-2.644 2.675 0 2.911 3.252 3.945 6.038 3.945 2.128 0 4.211-.576 5.572-1.54 3.217-2.278 4.927-6.384 4.357-10.463a11.292 11.292 0 0 0-4.367-7.474C21.111 1.875 18.364.894 15.495.894" mask="url(#b)"/>
            </g>
            <path fill="#1591ED" d="M102.715 373.903c7.654 0 14.448 8.297 19.41 14.354l1.255 1.526c2.004 2.415 4.143 4.955 6.344 7.143 2.472 2.456 4.8 4.26 7.118 5.51 4.447 2.403 9.34 3.136 14.006 2.118 4.77-1.036 9.011-3.854 11.64-7.728 2.873-4.234 3.558-9.217 1.93-14.027a17.092 17.092 0 0 0-3.995-6.473c-1.81-1.835-3.98-3.169-6.277-3.86-4.02-1.208-8.146-.391-11.76 2.368-2.38 1.816-3.921 4.464-4.338 7.455-.567 4.068 1.133 8.167 4.329 10.437 1.353.962 3.422 1.538 5.539 1.538 2.766 0 5.999-1.031 5.999-3.936 0-1.47-1.179-2.668-2.628-2.668-1.45 0-2.63 1.198-2.63 2.668 0 .263.04.525.116.78.102.343.043.713-.161 1.007a1.135 1.135 0 0 1-.886.485l-.299.006a6.97 6.97 0 0 1-1.03-.074c-2.224-.317-4.136-1.617-5.377-3.662-1.124-1.848-1.593-4.163-1.288-6.352a9.528 9.528 0 0 1 3.666-6.311c3.155-2.406 6.791-3.136 10.275-2.086 2.017.603 3.94 1.79 5.557 3.428a15.31 15.31 0 0 1 3.576 5.81c1.45 4.287.842 8.722-1.712 12.486-2.384 3.516-6.244 6.078-10.591 7.023-4.288.933-8.787.258-12.863-1.945-2.17-1.172-4.369-2.879-6.724-5.223-2.199-2.183-4.29-4.663-6.245-7.018l-1.248-1.523c-6.965-8.5-12.466-15.216-22.855-15.216-1.212 0-2.495.093-3.818.275-3.923.542-6.406 1.717-9.49 4.494-1.052.948-2.064 2.038-3.045 3.091-1.134 1.22-2.307 2.482-3.578 3.57-2.264 1.94-4.368 2.766-6.757 2.597a6.436 6.436 0 0 1-4.466-2.245 6.624 6.624 0 0 1-1.584-4.791 5.095 5.095 0 0 1 1.713-3.504 5.01 5.01 0 0 1 2.101-1.107 1.13 1.13 0 0 1 1.106.337c.282.305.379.744.251 1.142a2.73 2.73 0 0 0-.125.817c0 1.47 1.18 2.667 2.628 2.667 1.451 0 2.63-1.197 2.63-2.667 0-1.333-1.335-2.837-2.627-3.522a5.484 5.484 0 0 0-2.195-.63 6.676 6.676 0 0 0-4.888 1.672 6.835 6.835 0 0 0-2.291 4.684 8.336 8.336 0 0 0 2.01 6.034 8.112 8.112 0 0 0 5.625 2.835c3.994.274 6.607-1.518 9.366-4.299a84.924 84.924 0 0 0 1.914-2.016c1.052-1.135 2.14-2.306 3.329-3.376a20.619 20.619 0 0 1 2.669-2.06 1.133 1.133 0 0 1 1.43.173c.376.394.429 1 .127 1.453-.609.916-1.065 1.9-1.36 2.925-1.161 4.052.447 7.4 2.001 9.495a8.912 8.912 0 0 0 5.922 3.545 8.879 8.879 0 0 0 6.642-1.742 7.41 7.41 0 0 0 2.585-3.693 7.55 7.55 0 0 0 .327-1.725c.096-1.333-.137-3.12-1.078-4.146-.47-.513-1.07-.763-1.833-.763-1.45 0-2.628 1.195-2.628 2.665 0 1.367 1.008 2.506 2.346 2.652.375.04.705.265.884.602.18.335.184.738.012 1.078-.39.77-.937 1.43-1.626 1.955a7.191 7.191 0 0 1-5.406 1.408 7.179 7.179 0 0 1-4.793-2.863c-1.896-2.556-2.493-5.32-1.728-7.991.719-2.502 2.591-4.662 5.137-5.933 1.508-.752 3.093-1.133 4.708-1.133"/>
            <path fill="#1591ED" d="M542.437 370.356c-1.481 0-3.004 1.525-3.742 3.032a6.709 6.709 0 0 0-.694 2.977c0 4.524 3.655 8.205 8.151 8.205 5.5 0 9.976-4.506 9.976-10.042 0-3.591-1.329-6.79-3.742-9.004-2.376-2.178-5.706-3.33-9.625-3.33H13.367c-3.922 0-7.25 1.152-9.626 3.331C1.329 367.736 0 370.935 0 374.528c0 5.536 4.475 10.042 9.974 10.042 4.495 0 8.151-3.68 8.151-8.205a6.669 6.669 0 0 0-.694-2.976c-.738-1.51-2.26-3.033-3.74-3.033a2.645 2.645 0 0 0-2.634 2.652c0 1.462 1.181 2.65 2.633 2.65a2.59 2.59 0 0 0 1.102-.242 1.135 1.135 0 0 1 1.104.083c.33.217.525.588.52.984-.065 3.51-2.953 6.364-6.442 6.364-4.557 0-8.264-3.732-8.264-8.319 0-3.11 1.128-5.856 3.176-7.734 2.054-1.883 4.986-2.877 8.481-2.877h529.394c3.493 0 6.425.994 8.48 2.877 2.046 1.878 3.175 4.623 3.175 7.734 0 4.587-3.707 8.319-8.264 8.319-3.49 0-6.377-2.856-6.438-6.365a1.145 1.145 0 0 1 1.623-1.064c.345.16.714.24 1.1.24a2.646 2.646 0 0 0 2.635-2.65 2.646 2.646 0 0 0-2.635-2.652"/>
            <g transform="translate(0 139.119)">
                <mask id="d" fill="#fff">
                    <use xlink:href="#c"/>
                </mask>
                <path fill="#1793EF" d="M9.98.31C4.476.31 0 4.77 0 10.25c0 3.557 1.33 6.722 3.743 8.913 2.378 2.157 5.708 3.297 9.63 3.297H543.02c3.921 0 7.251-1.14 9.631-3.297 2.412-2.19 3.742-5.357 3.742-8.913 0-5.481-4.478-9.94-9.982-9.94-4.496 0-8.153 3.644-8.153 8.122 0 1.025.233 2.017.694 2.948.74 1.49 2.262 2.999 3.744 2.999a2.631 2.631 0 0 0 2.635-2.624 2.633 2.633 0 0 0-3.735-2.385c-.36.163-.777.134-1.105-.08a1.137 1.137 0 0 1-.519-.975c.061-3.475 2.949-6.3 6.44-6.3 4.56 0 8.267 3.693 8.267 8.235 0 3.078-1.127 5.798-3.176 7.657-2.054 1.864-4.988 2.849-8.483 2.849H13.374c-3.497 0-6.43-.985-8.485-2.85-2.05-1.858-3.178-4.58-3.178-7.656 0-4.542 3.709-8.236 8.268-8.236 3.49 0 6.38 2.826 6.444 6.3.006.392-.19.76-.519.974-.33.217-.746.246-1.103.082-.35-.16-.72-.24-1.104-.24a2.634 2.634 0 0 0-2.636 2.625 2.633 2.633 0 0 0 2.636 2.624c1.482 0 3.004-1.508 3.743-3 .46-.927.694-1.918.694-2.947C18.134 3.954 14.476.31 9.98.31" mask="url(#d)"/>
            </g>
            <path fill="#1793EF" d="M410.398 118.689c-1.392 0-2.788.15-4.15.446-4.766 1.039-9.009 3.857-11.634 7.73-2.874 4.236-3.56 9.218-1.933 14.026a17.07 17.07 0 0 0 3.995 6.473c1.812 1.834 3.982 3.17 6.275 3.858 4.026 1.21 8.15.392 11.762-2.365a11.284 11.284 0 0 0 4.34-7.455c.566-4.07-1.133-8.167-4.33-10.438-1.353-.962-3.422-1.536-5.537-1.536-2.768 0-6.002 1.031-6.002 3.935 0 1.47 1.178 2.667 2.628 2.667 1.45 0 2.63-1.197 2.63-2.667 0-.268-.04-.53-.113-.778a1.171 1.171 0 0 1 .158-1.01c.206-.293.533-.472.886-.487l.29-.005c.345 0 .694.025 1.037.074 2.229.318 4.14 1.62 5.38 3.663 1.124 1.85 1.593 4.164 1.287 6.352a9.517 9.517 0 0 1-3.665 6.307c-3.153 2.41-6.785 3.14-10.276 2.091-2.016-.607-3.938-1.793-5.558-3.43a15.302 15.302 0 0 1-3.573-5.81c-1.451-4.288-.844-8.722 1.71-12.485 2.384-3.517 6.244-6.076 10.593-7.023 4.287-.93 8.784-.257 12.863 1.946 2.166 1.169 4.365 2.877 6.724 5.22 2.195 2.182 4.289 4.665 6.245 7.021l1.247 1.52c6.963 8.502 12.463 15.217 22.854 15.217 1.212 0 2.495-.093 3.818-.275 3.923-.542 6.408-1.717 9.49-4.495 1.051-.945 2.064-2.035 3.043-3.088 1.134-1.22 2.307-2.483 3.581-3.572 2.266-1.94 4.375-2.771 6.758-2.597a6.423 6.423 0 0 1 4.464 2.245 6.601 6.601 0 0 1 1.584 4.792 5.1 5.1 0 0 1-1.712 3.503 5.022 5.022 0 0 1-2.098 1.106 1.132 1.132 0 0 1-1.11-.334 1.178 1.178 0 0 1-.251-1.145c.083-.265.126-.54.126-.817 0-1.47-1.178-2.665-2.628-2.665-1.45 0-2.631 1.195-2.631 2.665 0 1.332 1.335 2.838 2.628 3.522a5.412 5.412 0 0 0 2.196.63c1.807.136 3.538-.479 4.884-1.671a6.825 6.825 0 0 0 2.295-4.683 8.35 8.35 0 0 0-2.01-6.036 8.122 8.122 0 0 0-5.626-2.835c-3.982-.269-6.605 1.518-9.367 4.299-.657.66-1.288 1.343-1.922 2.026-1.049 1.131-2.135 2.3-3.32 3.367a20.756 20.756 0 0 1-2.667 2.059 1.129 1.129 0 0 1-1.43-.172 1.168 1.168 0 0 1-.129-1.453c.607-.915 1.064-1.9 1.361-2.926 1.16-4.051-.447-7.399-2.002-9.493-1.445-1.945-3.55-3.205-5.923-3.545a8.884 8.884 0 0 0-6.642 1.742 7.435 7.435 0 0 0-2.585 3.693 7.784 7.784 0 0 0-.328 1.726c-.094 1.33.137 3.118 1.078 4.145.472.514 1.07.762 1.834.762 1.45 0 2.628-1.196 2.628-2.666 0-1.367-1.008-2.506-2.347-2.651a1.142 1.142 0 0 1-.884-.601 1.175 1.175 0 0 1-.01-1.08 5.64 5.64 0 0 1 1.627-1.954 7.236 7.236 0 0 1 5.4-1.41 7.206 7.206 0 0 1 4.797 2.864c1.897 2.557 2.494 5.321 1.728 7.993-.717 2.5-2.59 4.661-5.139 5.932-1.507.752-3.09 1.133-4.705 1.133-7.653.002-14.448-8.294-19.407-14.352l-1.256-1.525c-1.998-2.41-4.133-4.945-6.347-7.145-2.468-2.453-4.796-4.255-7.115-5.51-3.153-1.702-6.47-2.565-9.862-2.565M147.914 129.427c-2.115 0-4.185.574-5.537 1.536-3.196 2.27-4.896 6.368-4.33 10.439a11.275 11.275 0 0 0 4.34 7.455c3.612 2.756 7.734 3.575 11.76 2.366 2.294-.69 4.464-2.025 6.276-3.86a17.08 17.08 0 0 0 3.997-6.474c1.626-4.808.939-9.79-1.933-14.025-2.628-3.874-6.87-6.693-11.637-7.73-4.668-1.018-9.56-.283-14.008 2.12-2.32 1.254-4.65 3.056-7.119 5.51-2.2 2.186-4.339 4.728-6.344 7.143l-1.255 1.524c-4.96 6.057-11.755 14.356-19.41 14.356-1.616 0-3.2-.382-4.707-1.134-2.546-1.27-4.418-3.431-5.137-5.93-.765-2.674-.168-5.438 1.728-7.993a7.202 7.202 0 0 1 4.795-2.866 7.23 7.23 0 0 1 5.404 1.411 5.65 5.65 0 0 1 1.626 1.953c.172.34.167.743-.01 1.08-.18.335-.511.56-.886.6-1.338.146-2.346 1.285-2.346 2.652 0 1.47 1.179 2.666 2.628 2.666.763 0 1.363-.25 1.833-.764.941-1.024 1.174-2.812 1.078-4.144a7.582 7.582 0 0 0-.329-1.727 7.4 7.4 0 0 0-2.583-3.692 8.859 8.859 0 0 0-6.642-1.742 8.904 8.904 0 0 0-5.923 3.546c-1.553 2.095-3.161 5.444-2 9.493.295 1.025.751 2.009 1.36 2.926a1.17 1.17 0 0 1-.128 1.453 1.131 1.131 0 0 1-1.43.172 20.558 20.558 0 0 1-2.667-2.059c-1.188-1.068-2.276-2.24-3.328-3.374a82.134 82.134 0 0 0-1.916-2.02c-2.759-2.78-5.38-4.573-9.366-4.298a8.121 8.121 0 0 0-5.626 2.835 8.342 8.342 0 0 0-2.01 6.036 6.83 6.83 0 0 0 2.294 4.683 6.661 6.661 0 0 0 4.883 1.673 5.459 5.459 0 0 0 2.198-.632c1.292-.686 2.627-2.19 2.627-3.522 0-1.47-1.18-2.665-2.63-2.665-1.448 0-2.628 1.195-2.628 2.665 0 .28.043.554.127.82a1.17 1.17 0 0 1-.255 1.142 1.126 1.126 0 0 1-1.107.334 5.003 5.003 0 0 1-2.098-1.106 5.095 5.095 0 0 1-1.713-3.505 6.62 6.62 0 0 1 1.584-4.79 6.443 6.443 0 0 1 4.464-2.246c2.385-.161 4.493.657 6.76 2.598 1.27 1.089 2.443 2.349 3.577 3.569.98 1.054 1.993 2.145 3.045 3.091 3.085 2.778 5.569 3.953 9.49 4.495 1.323.182 2.608.275 3.818.275 10.39 0 15.89-6.717 22.855-15.219.481-.587.955-1.164 1.25-1.52 1.953-2.354 4.044-4.836 6.244-7.02 2.356-2.343 4.556-4.05 6.723-5.22 4.076-2.203 8.577-2.878 12.863-1.945 4.347.946 8.207 3.505 10.591 7.022 2.554 3.765 3.161 8.198 1.712 12.486a15.295 15.295 0 0 1-3.576 5.81c-1.615 1.636-3.537 2.823-5.557 3.43-3.484 1.047-7.12.318-10.275-2.09a9.536 9.536 0 0 1-3.668-6.308c-.303-2.19.166-4.505 1.29-6.353 1.24-2.044 3.152-3.344 5.38-3.663a7.27 7.27 0 0 1 1.038-.074l.287.005c.354.014.681.195.885.486.206.292.265.664.163 1.007a2.745 2.745 0 0 0-.116.783c0 1.47 1.18 2.667 2.63 2.667s2.628-1.197 2.628-2.667c0-2.906-3.233-3.936-6-3.936"/>
            <circle cx="279" cy="414" r="94.5" fill="#1591ED" fill-rule="nonzero"/>
            <g fill="#FFF">
                <path d="M256.543 366.236c.44.17.861.843.871 1.316.023 1.075 1.168 5.101-3.453 4.35-.481-.078-1.079-.388-1.448-.692-.673-.551-.875-1.141-.772-1.715.27-1.51 3.254-3.856 4.802-3.259zm-7.07 9.19c-.363-.514-.46-1.156-.472-1.668a3.295 3.295 0 0 1 .335-1.524c.246-.503.57-1.151 1.403-1.024.98.15 1.903.872 2.458 1.613 1.134 1.515-.602 3.91-2.536 3.4-.56-.149-.938-.442-1.188-.797zm10.847-5.738c-.634-.169-1.142-.617-1.495-1.018a3.452 3.452 0 0 1-.755-1.44c-.142-.566-.32-1.3.427-1.753.88-.534 2.097-.571 3.036-.349 1.917.454 2.144 3.524.265 4.404-.545.255-1.041.272-1.478.156zm-6.626 9.66c1.57 3.031 6.825 4.677 10.126 2.78 3.3-1.897 3.55-6.754 1.828-9.65-1.722-2.896-5.01-2.487-8.312-.59-3.3 1.897-5.212 4.43-3.642 7.46zM273.905 380.387c.103.052.229.09.377.116.148.026.28.039.397.039.322 0 .59-.048.802-.145.213-.097.377-.274.493-.532l.348-.794-3.79-9.484h2.63l2.436 6.503 2.437-6.503h2.649l-4.39 10.878c-.348.877-.825 1.47-1.43 1.78-.606.31-1.309.471-2.108.484-.142 0-.342-.013-.6-.039a4.498 4.498 0 0 1-.618-.096l.367-2.207zm13.903-1.22c-.71 0-1.37-.115-1.982-.348a4.645 4.645 0 0 1-1.586-.987 4.497 4.497 0 0 1-1.044-1.548c-.251-.607-.377-1.284-.377-2.032 0-.671.12-1.307.358-1.907.238-.6.57-1.12.996-1.558a4.73 4.73 0 0 1 1.527-1.045 4.842 4.842 0 0 1 1.953-.387c.696 0 1.331.126 1.905.377a4.34 4.34 0 0 1 1.48 1.055c.412.452.73.994.956 1.626.226.632.339 1.329.339 2.09v.542h-6.942c.077.594.345 1.103.802 1.53.458.425 1.086.638 1.886.638.193 0 .406-.023.638-.068.232-.045.46-.106.686-.184.226-.077.438-.174.638-.29.2-.116.377-.245.532-.387l1.083 1.587c-.464.426-1.038.748-1.721.968a6.915 6.915 0 0 1-2.127.329zm2.146-5.786a2.437 2.437 0 0 0-.154-.697 2.043 2.043 0 0 0-.407-.668c-.18-.2-.415-.368-.705-.503-.29-.136-.635-.203-1.035-.203-.387 0-.718.064-.996.193a2.108 2.108 0 0 0-.686.494c-.18.2-.322.422-.425.668a2.583 2.583 0 0 0-.194.716h4.602zm3.79 5.554v-12.91h2.456v12.91h-2.456zm8.856.233c-.773 0-1.463-.133-2.069-.397a4.726 4.726 0 0 1-1.547-1.065 4.589 4.589 0 0 1-.976-1.558 5.294 5.294 0 0 1-.339-1.896c0-.658.113-1.284.339-1.878a4.589 4.589 0 0 1 .976-1.558c.426-.445.941-.8 1.547-1.064.606-.265 1.296-.397 2.07-.397.773 0 1.465.132 2.078.397.612.264 1.131.619 1.556 1.064.426.445.751.965.977 1.558a5.24 5.24 0 0 1 .338 1.878c0 .67-.113 1.303-.338 1.896a4.589 4.589 0 0 1-.977 1.558c-.425.446-.944.8-1.556 1.065-.613.264-1.305.397-2.079.397zm0-2.187a2.26 2.26 0 0 0 1.025-.223 2.24 2.24 0 0 0 .744-.59c.2-.245.355-.533.464-.862.11-.329.165-.68.165-1.054 0-.362-.055-.707-.165-1.036a2.697 2.697 0 0 0-.464-.861 2.24 2.24 0 0 0-.744-.59 2.26 2.26 0 0 0-1.025-.223 2.2 2.2 0 0 0-1.015.223 2.377 2.377 0 0 0-1.209 1.451 3.442 3.442 0 0 0-.154 1.036c0 .374.051.725.154 1.054.104.33.258.617.465.862.206.245.454.442.744.59a2.2 2.2 0 0 0 1.015.223zM305.78 413.91c-1.642 0-3.143-.27-4.504-.81-1.36-.54-2.516-1.286-3.467-2.237a9.913 9.913 0 0 1-2.203-3.37c-.518-1.295-.777-2.7-.777-4.211 0-1.512.259-2.938.777-4.277.519-1.34 1.253-2.495 2.203-3.467s2.106-1.739 3.467-2.3c1.361-.562 2.862-.843 4.504-.843 1.685 0 3.197.281 4.536.843 1.34.561 2.495 1.328 3.467 2.3a9.884 9.884 0 0 1 2.235 3.467c.519 1.34.778 2.765.778 4.277s-.26 2.916-.778 4.212a9.685 9.685 0 0 1-2.235 3.37c-.972.95-2.128 1.695-3.467 2.235-1.34.54-2.851.81-4.536.81zm-4.212 22.355l27.605-43.222h4.924l-27.67 43.222h-4.86zm27.993.778c-1.641 0-3.142-.27-4.503-.81-1.36-.54-2.517-1.296-3.467-2.268a10.265 10.265 0 0 1-2.203-3.402c-.519-1.296-.778-2.7-.778-4.212 0-1.512.26-2.938.778-4.277.518-1.34 1.253-2.495 2.203-3.467s2.106-1.739 3.467-2.3c1.36-.562 2.862-.843 4.503-.843 1.642 0 3.143.281 4.504.843 1.36.561 2.527 1.328 3.5 2.3a9.884 9.884 0 0 1 2.235 3.467c.518 1.34.777 2.765.777 4.277s-.259 2.916-.777 4.212a10.021 10.021 0 0 1-2.236 3.402c-.972.972-2.138 1.728-3.499 2.268-1.36.54-2.862.81-4.504.81zm-23.781-28.188c1.512 0 2.743-.508 3.693-1.523.95-1.015 1.426-2.365 1.426-4.05 0-1.815-.475-3.23-1.426-4.245-.95-1.015-2.181-1.522-3.693-1.522-1.469 0-2.69.507-3.661 1.522-.972 1.016-1.458 2.43-1.458 4.245 0 1.685.486 3.035 1.458 4.05.972 1.015 2.192 1.523 3.66 1.523zm23.781 23.133c1.512 0 2.754-.497 3.726-1.49.972-.994 1.458-2.376 1.458-4.147 0-1.815-.486-3.23-1.458-4.245-.972-1.015-2.214-1.523-3.726-1.523s-2.743.508-3.693 1.523c-.95 1.015-1.426 2.43-1.426 4.245 0 1.77.475 3.153 1.426 4.147.95.993 2.181 1.49 3.693 1.49zM234.25 437.483c-3.802 0-7.064-.573-9.785-1.718-2.722-1.144-5.012-2.732-6.87-4.762l5.12-6.416a15.437 15.437 0 0 0 5.12 3.5c1.943.82 4.06 1.23 6.35 1.23 2.592 0 4.579-.626 5.961-1.878 1.383-1.253 2.074-2.765 2.074-4.536 0-1.944-.68-3.5-2.041-4.666-1.361-1.166-3.273-1.75-5.735-1.75-1.815 0-3.456.27-4.925.81-1.469.54-2.851 1.437-4.147 2.69l-6.415-1.685v-24.819h29.678v8.1h-20.477v10.563c1.037-1.037 2.387-1.9 4.05-2.592 1.663-.691 3.489-1.037 5.476-1.037 1.814 0 3.564.324 5.249.972a13.596 13.596 0 0 1 4.438 2.754c1.275 1.188 2.29 2.646 3.046 4.374.756 1.728 1.134 3.694 1.134 5.897 0 2.29-.41 4.363-1.231 6.22a13.138 13.138 0 0 1-3.5 4.731c-1.511 1.296-3.337 2.29-5.475 2.98-2.138.692-4.504 1.038-7.096 1.038zm37.66 0c-3.11 0-5.79-.638-8.036-1.912a16.46 16.46 0 0 1-5.54-5.087c-1.447-2.117-2.527-4.503-3.24-7.16a31.495 31.495 0 0 1-1.07-8.197c0-2.765.357-5.487 1.07-8.165.713-2.679 1.793-5.065 3.24-7.16a16.588 16.588 0 0 1 5.54-5.055c2.247-1.274 4.925-1.912 8.035-1.912 3.068 0 5.724.638 7.97 1.912a16.903 16.903 0 0 1 5.574 5.054c1.468 2.096 2.56 4.482 3.272 7.16.713 2.68 1.07 5.4 1.07 8.166 0 2.808-.357 5.54-1.07 8.197-.713 2.657-1.804 5.043-3.272 7.16a16.768 16.768 0 0 1-5.573 5.087c-2.247 1.274-4.903 1.912-7.97 1.912zm0-8.165c1.555 0 2.861-.367 3.92-1.102 1.058-.734 1.933-1.739 2.624-3.013.691-1.274 1.188-2.776 1.49-4.504.303-1.728.454-3.585.454-5.572 0-1.988-.15-3.845-.453-5.573-.303-1.728-.8-3.219-1.49-4.471-.692-1.253-1.567-2.247-2.625-2.981-1.059-.735-2.365-1.102-3.92-1.102-1.556 0-2.873.367-3.953 1.102-1.08.734-1.966 1.728-2.657 2.98-.691 1.253-1.188 2.744-1.49 4.472-.303 1.728-.454 3.585-.454 5.573 0 1.987.151 3.844.453 5.572.303 1.728.8 3.23 1.49 4.504.692 1.274 1.578 2.279 2.658 3.013 1.08.735 2.397 1.102 3.952 1.102zM266.517 462.904c-1.08 0-2.081-.184-3.003-.55a7.073 7.073 0 0 1-2.386-1.545 7.033 7.033 0 0 1-1.566-2.365c-.375-.915-.562-1.912-.562-2.992s.187-2.077.562-2.992a7.033 7.033 0 0 1 1.566-2.365 7.073 7.073 0 0 1 2.386-1.544c.922-.367 1.923-.551 3.003-.551 1.094 0 2.102.184 3.024.55a7.073 7.073 0 0 1 2.387 1.545 7.033 7.033 0 0 1 1.566 2.365c.374.915.561 1.912.561 2.992s-.187 2.077-.561 2.992a7.033 7.033 0 0 1-1.566 2.365 7.073 7.073 0 0 1-2.387 1.544c-.922.367-1.93.551-3.024.551zm0-2.722c.662 0 1.263-.122 1.803-.367s1.001-.576 1.383-.993c.381-.418.677-.915.885-1.49a5.475 5.475 0 0 0 .314-1.88c0-.677-.105-1.303-.314-1.88a4.528 4.528 0 0 0-.885-1.5 3.998 3.998 0 0 0-1.383-.994 4.431 4.431 0 0 0-1.803-.356c-.663 0-1.264.118-1.804.356a3.89 3.89 0 0 0-1.371.994 4.63 4.63 0 0 0-.875 1.5 5.475 5.475 0 0 0-.313 1.88c0 .677.104 1.303.313 1.88.209.575.5 1.072.875 1.49.374.417.831.748 1.371.993s1.141.367 1.804.367zm9.71 2.463v-14.407h10.195v2.7h-7.128v3.045h6.977v2.7h-6.977v5.962h-3.067zm12.345 0v-14.407h10.195v2.7h-7.128v3.045h6.977v2.7h-6.977v5.962h-3.067z"/>
            </g>
        </g>
        <text fill="#3F3F3F" font-family="Inter" font-size="36" font-weight="bold" letter-spacing="14.4" transform="translate(0 -83)">
            <tspan x="191.004" y="207">HAPP</tspan> <tspan x="344.256" y="207" letter-spacing="11.52">Y</tspan>
        </text>
        <path fill="url(#e)" d="M61.568 302.678v-30.84H26.713v30.84H11v-73.466h15.713v28.858h34.855v-28.858h15.823v73.466H61.568zM126.853 304c-5.533 0-10.66-.936-15.38-2.809-4.722-1.872-8.798-4.497-12.228-7.875-3.43-3.378-6.104-7.398-8.022-12.06-1.918-4.664-2.877-9.749-2.877-15.256s.959-10.592 2.877-15.255c1.918-4.663 4.592-8.683 8.022-12.06 3.43-3.379 7.506-6.004 12.227-7.876 4.722-1.873 9.848-2.809 15.381-2.809 5.606 0 10.77.936 15.491 2.809 4.722 1.872 8.797 4.497 12.227 7.875 3.43 3.378 6.105 7.398 8.023 12.06 1.918 4.664 2.877 9.749 2.877 15.256s-.96 10.592-2.877 15.255c-1.918 4.663-4.592 8.683-8.023 12.06-3.43 3.379-7.505 6.004-12.227 7.876-4.72 1.873-9.885 2.809-15.491 2.809zm0-13.878c3.393 0 6.473-.624 9.24-1.873 2.766-1.248 5.126-2.937 7.081-5.066 1.955-2.13 3.467-4.663 4.537-7.6 1.07-2.938 1.604-6.132 1.604-9.583 0-3.451-.534-6.645-1.604-9.583-1.07-2.937-2.582-5.488-4.537-7.655-1.955-2.166-4.315-3.855-7.082-5.066-2.766-1.212-5.846-1.818-9.239-1.818-3.393 0-6.473.606-9.24 1.818-2.766 1.211-5.108 2.9-7.026 5.066-1.918 2.167-3.412 4.718-4.481 7.655-1.07 2.938-1.605 6.132-1.605 9.583 0 3.451.535 6.645 1.605 9.583 1.07 2.937 2.563 5.47 4.481 7.6 1.918 2.13 4.26 3.818 7.027 5.066 2.766 1.249 5.846 1.873 9.239 1.873zm49.683 12.556v-73.466h15.713v59.698h31.204v13.768h-46.917zm57.871 0v-73.466h15.713v73.466h-15.713zm30.319 0v-73.466h29.101c5.754 0 11.047.88 15.879 2.643 4.832 1.762 8.963 4.24 12.393 7.435 3.43 3.194 6.104 7.067 8.022 11.62 1.918 4.553 2.877 9.583 2.877 15.09s-.959 10.519-2.877 15.035c-1.918 4.516-4.592 8.37-8.022 11.565-3.43 3.194-7.561 5.672-12.393 7.435-4.832 1.762-10.125 2.643-15.879 2.643h-29.101zm29.101-13.768c3.615 0 6.86-.606 9.738-1.817 2.877-1.212 5.311-2.864 7.303-4.957s3.504-4.534 4.537-7.324c1.032-2.79 1.549-5.728 1.549-8.812 0-3.23-.498-6.26-1.494-9.087s-2.453-5.269-4.37-7.325c-1.919-2.056-4.335-3.671-7.249-4.846-2.913-1.175-6.251-1.762-10.014-1.762h-13.389v45.93h13.39zm101.247 13.768l-4.536-12.446H358.89l-4.647 12.446h-17.926l28.548-73.466h19.696L413 302.678h-17.926zm-20.36-57.826l-11.508 31.612h23.016l-11.508-31.612zm65.728 57.826v-30.07l-28.438-43.396h17.926l18.368 29.518 18.147-29.518h17.926l-28.217 43.397v30.07h-15.712zM517.456 304c-7.156 0-13.278-1.065-18.368-3.194-5.09-2.13-9.369-4.957-12.836-8.481l8.52-11.896c2.582 2.717 5.865 5.048 9.848 6.994 3.984 1.946 8.52 2.919 13.61 2.919 4.353 0 7.58-.826 9.682-2.478 2.103-1.652 3.154-3.543 3.154-5.673s-1.051-3.763-3.154-4.901c-2.102-1.138-4.72-2.111-7.856-2.919a600.247 600.247 0 0 0-10.235-2.533c-3.689-.881-7.1-2.13-10.236-3.745-3.135-1.616-5.753-3.8-7.856-6.554-2.102-2.754-3.153-6.443-3.153-11.07 0-3.084.645-5.966 1.936-8.646 1.29-2.68 3.135-5.048 5.533-7.104 2.397-2.056 5.33-3.672 8.796-4.847 3.468-1.174 7.377-1.762 11.73-1.762 11.729 0 21.319 3.415 28.77 10.244l-8.742 11.455c-3.025-2.79-6.418-4.828-10.18-6.113-3.763-1.285-7.525-1.928-11.287-1.928-3.393 0-5.994.68-7.8 2.038-1.808 1.358-2.712 3.139-2.712 5.342 0 1.909 1.051 3.396 3.154 4.46 2.102 1.065 4.72 1.983 7.856 2.754 3.135.771 6.529 1.616 10.18 2.534 3.652.918 7.045 2.203 10.18 3.855 3.135 1.652 5.754 3.873 7.856 6.663 2.103 2.79 3.154 6.462 3.154 11.015 0 3.378-.609 6.499-1.826 9.362-1.217 2.864-3.043 5.342-5.477 7.435s-5.514 3.745-9.24 4.957c-3.725 1.211-8.059 1.817-13.001 1.817z" transform="translate(0 -83)"/>
    </g>
</svg>
