<svg xmlns="http://www.w3.org/2000/svg" xmlns:xlink="http://www.w3.org/1999/xlink" width="97" height="91" viewBox="0 0 97 91">
    <defs>
        <path id="a" d="M0 .15h96.069V73H0z"/>
        <path id="c" d="M.886.15h43.816V13H.886z"/>
    </defs>
    <g fill="none" fill-rule="evenodd">
        <g transform="translate(0 18)">
            <mask id="b" fill="#fff">
                <use xlink:href="#a"/>
            </mask>
            <path fill="#9D0B0F" d="M18.822 13.219c-8.366 10.503-33.703 42.013-6.693 54.426 16.97 7.877 30.356 3.58 48.761 5.012 16.732 1.433 16.493-1.67 27.727-8.354 12.907-7.64 6.454-28.646 0-38.194-4.303-6.445-14.58-18.142-21.034-21.723-16.732-8.593-39.2-3.341-48.761 8.833" mask="url(#b)"/>
        </g>
        <path fill="#C3161C" d="M23 15.967c4.334.702 11.075-.936 14.202 2.107 9.873 3.044 18.056 2.107 25.522-.234 4.09-4.917 6.498-9.365 6.26-14.516C64.65.046 54.298.983 43.22 1.685 30.223 2.153 24.683 6.602 23 15.967"/>
        <path fill="#C3161C" d="M18.873 31.155c-.479.72-.958 1.441-1.677 2.162-5.509 18.022-.718 28.595 15.09 39.888 9.102 6.488 26.588 6.248 37.606 5.287C78.994 77.77 86.659 73.205 96 67.438c0-8.41-3.832-17.781-7.665-23.308-4.311-6.487-14.61-18.262-21.078-21.866-16.288-8.65-38.803-3.364-48.384 8.89"/>
        <path fill="#EC1C24" d="M96 64.971c-.72-7.81-4.08-15.858-7.44-21.065-4.318-6.39-14.64-17.988-21.118-21.539C57.6 17.16 45.6 16.924 35.52 20.001l-.478 1.42C30.72 26.39 30 31.835 30 38.936c.242 19.645 6.72 25.325 26.642 30.532C66.48 72.072 85.68 71.835 96 64.971"/>
        <g transform="translate(24)">
            <mask id="d" fill="#fff">
                <use xlink:href="#c"/>
            </mask>
            <path fill="#EC1C24" d="M42.57 10.864c1.423-2.8 2.132-5.366 2.132-8.4C40.44-.802 30.257.131 19.359.831 8.941 1.298 3.491 4.564.886 10.631c4.502 1.633 5.686 3.733 9.473 1.167 4.737-7.467 12.08 1.866 16.816-3.734 2.842-3.5 7.345-3.033 9.713-.7 1.658 1.634 3.553 2.8 5.682 3.5" mask="url(#d)"/>
        </g>
        <path fill="#916E4E" d="M34.22 21.656c-1.665-1.397-1.665-2.793.24-4.656 9.744 1.63 19.49 1.863 29.475.466 2.14.93 2.618 2.095 1.429 3.725-10.938 2.328-21.16 2.328-31.144.465"/>
        <path fill="#A68A6B" d="M37 17c8.545 1.103 17.085 1.103 25.864 0 1.424.662 2.136 1.324 2.136 1.986-8.305 2.427-26.339 3.31-28-1.103V17z"/>
        <path fill="#FFF" d="M62.734 43.805l-5.053.726 1.686-4.36 3.367 3.634zm-.721 6.054l-3.848-3.632 5.05-.727-1.202 4.36zm-6.737 1.696l1.446-4.117 3.848 3.632-5.294.485zm-4.81-3.875l4.091-.727-1.443 3.633-2.648-2.906zm.964-5.328l3.127 2.664-4.33.484 1.203-3.148zm6.013-2.422l-1.202 4.117-3.608-3.39 4.81-.727zm5.532-8.235L62.49 30l-2.162.969-.721 2.422-2.405-2.664L55.276 30v1.938l3.85 3.148-.961 3.148-6.975 1.211-2.646-2.664 1.203-4.117-.722-1.453-1.443.969-.24 3.148-2.165-2.18-2.164-.242.238 2.18 1.926 1.695-3.367.242-1.683.97 1.921.968 4.81-1.211 3.37 2.906-1.684 4.844-4.329.484-3.848-3.875-1.683-.484.24 1.695 3.846 2.664-4.567.727L37 48.406l2.886.485 1.924-.243-1.202 1.938v1.695l1.924-.726 1.202-3.39 5.048-.97 4.089 4.117-1.44 3.876-4.33.242-1.202 1.453 2.162.484 2.888-.484-.964 2.422.964 1.695 1.922-1.453.964-3.149 2.406 3.633 1.924.485-.24-1.453-3.609-3.876.96-3.148 6.737-.727 3.126 2.907-.962 3.39.72 1.453 1.445-1.21V55.43l2.162 2.18 1.686.484-.24-1.938-2.887-2.664 4.57-.726 1.681-.97-1.922-.968-5.772 1.453-2.645-2.422 1.683-5.57 3.608-.484 3.607 3.148 1.684.242-.481-1.695-3.37-2.18 4.332-.484.962-1.453-1.924-.485-3.848.727 1.443-3.148-.24-1.696-1.927.727-1.203 4.36-3.607.484-4.327-5.086 1.203-3.149 4.81-.969 1.202-1.21-1.924-.485-3.37 1.211 1.687-.969z"/>
    </g>
</svg>
