<svg xmlns="http://www.w3.org/2000/svg" width="355" height="59" viewBox="0 0 355 59">
    <path fill="#E6EEF2" fill-rule="evenodd" d="M327.042 17.94c-60.92 22.467-47.58-40.93-130.066-6.896-18.899 2.447-28.682-6.451-39.131 1.78-14.675 11.567-38.687 11.122-58.252 7.34-12.674-2.447-23.123 8.898-45.135 7.786-12.006-.445-26.68-6.451-29.793 7.563-4.002 18.24-34.462 12.012-21.344 20.688 7.115 4.893 31.35 4.226 58.03-12.902 10.45-2.225 25.124 3.559 37.13-3.115 14.23-7.785 32.46 3.337 47.357 9.343 12.674 5.339 33.796 0 47.358-7.563 27.347-14.904 32.906 7.34 66.7-6.451 13.786.445 27.348-8.008 43.134-.222 11.784 4.226 41.355-1.113 43.8-7.564 18.677 4.894-2.668-16.016-19.788-9.787"/>
</svg>
