<svg xmlns="http://www.w3.org/2000/svg" width="50" height="56" viewBox="0 0 50 56">
    <path fill="#FFF" fill-rule="evenodd" d="M49.916 37.73l-.928-3.497-6.63 1.779-5.61-3.266 6.978-3.088v-3.317l-6.978-3.088 5.61-3.266 6.63 1.78.928-3.498-3.15-.845L50 15.544l-1.808-3.134-3.228 1.88.84-3.168-3.478-.932-1.77 6.666-5.591 3.249.821-7.585-2.85-1.66-6.14 4.518V8.875l4.851-4.876-2.543-2.564-2.309 2.319V0h-3.597v3.754l-2.307-2.32L18.346 4l4.852 4.875v6.503l-6.14-4.519-2.85 1.66.821 7.586-5.592-3.25-1.77-6.665-3.477.932.84 3.168-3.228-1.88L0 15.542l3.228 1.882-3.15.845.928 3.497 6.63-1.78 5.61 3.267-6.98 3.087v3.318l6.979 3.088-5.61 3.266-6.628-1.78-.929 3.498 3.15.844L0 40.455l1.802 3.134L5.03 41.71l-.84 3.166 3.477.933 1.77-6.666 5.593-3.25-.823 7.587 2.85 1.66 6.141-4.52v6.506L18.346 52l2.545 2.565 2.307-2.319V56h3.597v-3.755l2.309 2.32 2.544-2.566-4.853-4.873v-6.504l6.141 4.518 2.85-1.66-.821-7.585 5.592 3.248 1.77 6.667 3.478-.933-.84-3.165 3.227 1.878L50 40.456l-3.234-1.88 3.15-.845zM38.534 28l-5.644 2.5L28.59 28l4.3-2.5 5.645 2.5zm-6.77-11.792l-.663 6.145-4.306 2.509v-4.994l4.97-3.66zm-13.535 0l4.97 3.66v4.994l-4.306-2.509-.664-6.145zM11.459 28l5.644-2.5 4.302 2.499-4.303 2.501L11.46 28zm6.77 11.791l.664-6.146 4.305-2.508v4.993l-4.97 3.661zm13.536 0l-4.97-3.661v-4.993l4.306 2.508.664 6.146z"/>
</svg>
